<svg width="73.991mm" height="48.002mm" version="1.1" viewBox="0 0 73.991 48.002" xmlns="http://www.w3.org/2000/svg"><g transform="translate(-13.283 -82.814)"><path d="m16.884 13.064h31.051v47.606h-31.051z" fill="none" stroke="#000" stroke-width=".26458"/><path d="m16.902 31.492h31.051v7.8861h-31.051z" fill="none" stroke="#000" stroke-width=".26458"/><g stroke-width=".14585" aria-label="TEB"><path d="m30.501 62.921h-1.5154v3.7402h-0.56402v-3.7402h-1.5154v-0.50135h3.5949z"/><path d="m33.865 66.662h-2.7944v-4.2415h2.7944v0.50135h-2.2304v1.1622h2.2304v0.50135h-2.2304v1.5753h2.2304z"/><path d="m37.958 65.357q0 0.31619-0.11964 0.55832-0.11964 0.24213-0.32189 0.3988-0.23928 0.188-0.52698 0.26776-0.28486 0.07976-0.72638 0.07976h-1.504v-4.2415h1.2562q0.46432 0 0.69505 0.03418 0.23073 0.03418 0.44153 0.14243 0.23358 0.12249 0.33898 0.31619 0.1054 0.19085 0.1054 0.45862 0 0.30195-0.15382 0.51559-0.15382 0.21079-0.41019 0.33898v0.02279q0.43013 0.08831 0.67796 0.37886 0.24782 0.2877 0.24782 0.72923zm-0.94857-1.9114q0-0.15382-0.05128-0.25922-0.05127-0.1054-0.16522-0.17091-0.13388-0.07691-0.32474-0.094-0.19085-0.01994-0.47286-0.01994h-0.67226v1.2249h0.72923q0.26492 0 0.42159-0.02564 0.15667-0.02848 0.29055-0.11394 0.13388-0.08546 0.188-0.21934 0.05697-0.13673 0.05697-0.32189zm0.36177 1.9342q0-0.25637-0.07691-0.40734t-0.27916-0.25637q-0.13673-0.07121-0.33328-0.09115-0.1937-0.02279-0.47286-0.02279h-0.8859v1.5781h0.74632q0.37031 0 0.60674-0.03703 0.23643-0.03988 0.3874-0.14243 0.15952-0.11109 0.23358-0.25352 0.07406-0.14243 0.07406-0.36746z"/></g><g transform="scale(.99099 1.0091)" stroke-width=".10414" aria-label="*PEB"><path d="m29.412 35.14-0.13017 0.22373-0.73627-0.43322 0.0122 0.7322h-0.26237l0.01017-0.7322-0.73424 0.43525-0.1322-0.22373 0.77491-0.42102-0.77491-0.42102 0.1322-0.22373 0.73627 0.43322-0.0122-0.73017h0.26237l-0.01424 0.73017 0.7383-0.43119 0.13017 0.22373-0.77288 0.41695z"/><path d="m32.135 34.831q0 0.20136-0.07119 0.37424-0.06915 0.17085-0.19525 0.29695-0.15661 0.15661-0.37017 0.23593-0.21356 0.07729-0.53898 0.07729h-0.40271v1.1288h-0.40271v-3.0285h0.8217q0.27254 0 0.46169 0.04678 0.18915 0.04475 0.33559 0.14237 0.17288 0.11593 0.26644 0.28881 0.09559 0.17288 0.09559 0.43729zm-0.41898 0.01017q0-0.15661-0.05492-0.27254-0.05492-0.11593-0.16678-0.18915-0.09763-0.06305-0.22373-0.08949-0.12407-0.02848-0.31525-0.02848h-0.39864v1.2102h0.33966q0.24407 0 0.39661-0.04271 0.15254-0.04475 0.24814-0.14034 0.09559-0.09763 0.13424-0.20542 0.04068-0.1078 0.04068-0.24203z"/><path d="m34.661 36.944h-1.9953v-3.0285h1.9953v0.35797h-1.5925v0.82983h1.5925v0.35797h-1.5925v1.1247h1.5925z"/><path d="m37.584 36.013q0 0.22576-0.08542 0.39864t-0.22983 0.28474q-0.17085 0.13424-0.37627 0.19119-0.20339 0.05695-0.51864 0.05695h-1.0739v-3.0285h0.89695q0.33152 0 0.49627 0.02441 0.16474 0.02441 0.31525 0.10169 0.16678 0.08746 0.24203 0.22576 0.07525 0.13627 0.07525 0.32746 0 0.21559-0.10983 0.36814-0.10983 0.15051-0.29288 0.24203v0.01627q0.30712 0.06305 0.48407 0.27051 0.17695 0.20542 0.17695 0.52068zm-0.67729-1.3647q0-0.10983-0.03661-0.18508-0.03661-0.07525-0.11797-0.12203-0.09559-0.05492-0.23186-0.06712-0.13627-0.01424-0.33763-0.01424h-0.48v0.87458h0.52068q0.18915 0 0.30102-0.0183 0.11186-0.02034 0.20746-0.08136 0.09559-0.06102 0.13424-0.15661 0.04068-0.09763 0.04068-0.22983zm0.2583 1.381q0-0.18305-0.05492-0.29085-0.05492-0.1078-0.19932-0.18305-0.09763-0.05085-0.23797-0.06508-0.1383-0.01627-0.33763-0.01627h-0.63254v1.1268h0.53288q0.26441 0 0.43322-0.02644 0.16881-0.02848 0.27661-0.1017 0.1139-0.07932 0.16678-0.18102 0.05288-0.1017 0.05288-0.26237z"/></g><path d="m62.722 13.049h40.09v47.574h-40.09z" fill="none" stroke="#000" stroke-width=".26458"/><path d="m62.741 38.47h40.091v7.8549h-40.091z" fill="none" stroke="#000" stroke-width=".26408"/><g stroke-width=".15287" aria-label="PEB"><path d="m80.57 63.923q0 0.29559-0.1045 0.54939-0.10152 0.25081-0.28664 0.43592-0.22991 0.22991-0.54341 0.34635-0.31351 0.11346-0.79124 0.11346h-0.59119v1.6571h-0.59119v-4.4458h1.2063q0.4001 0 0.67777 0.06867 0.27768 0.06569 0.49266 0.209 0.25379 0.17019 0.39114 0.42398 0.14033 0.25379 0.14033 0.64194zm-0.61507 0.01493q0-0.22991-0.08062-0.4001t-0.24484-0.27768q-0.14332-0.09256-0.32844-0.13138-0.18213-0.0418-0.4628-0.0418h-0.58522v1.7765h0.49863q0.3583 0 0.58223-0.0627 0.22393-0.06569 0.36427-0.20602 0.14033-0.14332 0.19706-0.30156 0.05971-0.15825 0.05971-0.35531z"/><path d="m84.278 67.025h-2.9291v-4.4458h2.9291v0.5255h-2.3379v1.2182h2.3379v0.5255h-2.3379v1.6511h2.3379z"/><path d="m88.568 65.657q0 0.33142-0.1254 0.58522-0.1254 0.25379-0.33739 0.41801-0.25081 0.19706-0.55237 0.28066-0.29858 0.0836-0.76138 0.0836h-1.5765v-4.4458h1.3167q0.48668 0 0.72853 0.03583t0.4628 0.14929q0.24484 0.12839 0.35531 0.33142 0.11047 0.20005 0.11047 0.48071 0 0.31649-0.16123 0.54043-0.16123 0.22095-0.42995 0.35531v0.02389q0.45085 0.09256 0.71062 0.39711 0.25976 0.30156 0.25976 0.76436zm-0.99427-2.0035q0-0.16123-0.05374-0.27171t-0.17318-0.17915q-0.14033-0.08062-0.34038-0.09853-0.20005-0.0209-0.49564-0.0209h-0.70465v1.2839h0.76436q0.27768 0 0.4419-0.02687 0.16422-0.02986 0.30455-0.11943 0.14033-0.08957 0.19706-0.2299 0.05972-0.14332 0.05972-0.3374zm0.3792 2.0274q0-0.26872-0.08062-0.42697t-0.29261-0.26872q-0.14332-0.07465-0.34934-0.09555-0.20303-0.02389-0.49564-0.02389h-0.92858v1.6541h0.78228q0.38815 0 0.63597-0.03882 0.24782-0.0418 0.40607-0.14929 0.1672-0.11645 0.24484-0.26574 0.07763-0.14929 0.07763-0.38517z"/></g><g stroke-width=".091796" aria-label="*PEB_LDR_DATA"><path d="m68.895 42.438-0.11474 0.19722-0.64902-0.38188 0.01076 0.64544h-0.23128l9e-3 -0.64544-0.64723 0.38368-0.11654-0.19722 0.68309-0.37113-0.68309-0.37113 0.11654-0.19722 0.64902 0.38188-0.01076-0.64365h0.23128l-0.01255 0.64365 0.65082-0.38009 0.11474 0.19722-0.6813 0.36754z"/><path d="m71.296 42.165q0 0.1775-0.06275 0.32989-0.06096 0.1506-0.17212 0.26176-0.13805 0.13805-0.3263 0.20798-0.18825 0.06813-0.47512 0.06813h-0.35499v0.99505h-0.35499v-2.6696h0.72432q0.24025 0 0.40698 0.04124 0.16674 0.03944 0.29583 0.1255 0.1524 0.10219 0.23487 0.25459 0.08427 0.1524 0.08427 0.38547zm-0.36933 9e-3q0-0.13805-0.04841-0.24025-0.04841-0.1022-0.14702-0.16674-0.08606-0.05558-0.19722-0.07889-0.10937-0.0251-0.2779-0.0251h-0.35141v1.0668h0.29941q0.21515 0 0.34961-0.03765 0.13447-0.03944 0.21873-0.12371 0.08427-0.08606 0.11833-0.18108 0.03586-0.09502 0.03586-0.21335z"/><path d="m73.522 44.028h-1.7588v-2.6696h1.7588v0.31555h-1.4038v0.7315h1.4038v0.31555h-1.4038v0.99146h1.4038z"/><path d="m76.099 43.207q0 0.19901-0.0753 0.3514t-0.2026 0.251q-0.1506 0.11833-0.33168 0.16853-0.17929 0.0502-0.45719 0.0502h-0.94664v-2.6696h0.79066q0.29224 0 0.43746 0.02151 0.14522 0.02152 0.2779 0.08964 0.14702 0.07709 0.21335 0.19901 0.06634 0.12012 0.06634 0.28865 0 0.19005-0.09682 0.32451-0.09682 0.13267-0.25818 0.21335v0.01434q0.27073 0.05558 0.42671 0.23845 0.15598 0.18108 0.15598 0.45898zm-0.59703-1.203q0-0.09682-0.03227-0.16315-0.03227-0.06634-0.10399-0.10757-0.08427-0.04841-0.20439-0.05917-0.12012-0.01255-0.29762-0.01255h-0.42312v0.77094h0.45898q0.16674 0 0.26535-0.01614 0.09861-0.01793 0.18288-0.07172 0.08427-0.05379 0.11833-0.13805 0.03586-0.08606 0.03586-0.2026zm0.2277 1.2174q0-0.16136-0.04841-0.25638-0.04841-0.09502-0.1757-0.16136-0.08606-0.04482-0.20977-0.05737-0.12192-0.01434-0.29762-0.01434h-0.55759v0.99326h0.46974q0.23308 0 0.38188-0.02331 0.14881-0.0251 0.24383-0.08964 0.1004-0.06992 0.14702-0.15957 0.04662-0.08964 0.04662-0.23128z"/><path d="m78.585 44.566h-2.3487v-0.21515h2.3487z"/><path d="m80.626 44.028h-1.6889v-2.6696h0.35499v2.3541h1.3339z"/><path d="m83.236 42.696q0 0.36396-0.15957 0.65978-0.15777 0.29583-0.42133 0.45898-0.18287 0.11295-0.40878 0.16315-0.22411 0.0502-0.59165 0.0502h-0.67412v-2.6696h0.66695q0.39085 0 0.62034 0.05737 0.23128 0.05558 0.39085 0.15419 0.27252 0.17032 0.42491 0.4536t0.1524 0.67233zm-0.37113-0.0054q0-0.31376-0.10937-0.5289t-0.3263-0.33886q-0.15777-0.08964-0.33527-0.12371-0.1775-0.03586-0.42491-0.03586h-0.33348v2.06h0.33348q0.25638 0 0.44643-0.03765 0.19184-0.03765 0.3514-0.13984 0.19901-0.1273 0.29762-0.33527 0.1004-0.20797 0.1004-0.51994z"/><path d="m86.019 44.028h-0.46077l-0.89286-1.0614h-0.50022v1.0614h-0.35499v-2.6696h0.74763q0.24204 0 0.4034 0.03227 0.16136 0.03048 0.29045 0.11116 0.14522 0.09144 0.2259 0.23128 0.08247 0.13805 0.08247 0.3514 0 0.28866-0.14522 0.48408-0.14522 0.19363-0.39981 0.29224zm-0.83011-1.9184q0-0.11474-0.04124-0.2026-0.03944-0.08964-0.13267-0.1506-0.07709-0.05199-0.18287-0.07172-0.10578-0.02152-0.24921-0.02152h-0.41774v1.0076h0.35858q0.16853 0 0.29403-0.02869 0.1255-0.03048 0.21335-0.11116 0.08068-0.0753 0.11833-0.17212 0.03944-0.09861 0.03944-0.24921z"/><path d="m88.346 44.566h-2.3487v-0.21515h2.3487z"/><path d="m90.953 42.696q0 0.36396-0.15957 0.65978-0.15777 0.29583-0.42133 0.45898-0.18288 0.11295-0.40878 0.16315-0.22411 0.0502-0.59165 0.0502h-0.67412v-2.6696h0.66695q0.39085 0 0.62034 0.05737 0.23128 0.05558 0.39085 0.15419 0.27252 0.17032 0.42491 0.4536 0.1524 0.28328 0.1524 0.67233zm-0.37113-0.0054q0-0.31376-0.10937-0.5289t-0.3263-0.33886q-0.15777-0.08964-0.33527-0.12371-0.1775-0.03586-0.42491-0.03586h-0.33348v2.06h0.33348q0.25638 0 0.44643-0.03765 0.19184-0.03765 0.35141-0.13984 0.19901-0.1273 0.29762-0.33527 0.1004-0.20797 0.1004-0.51994z"/><path d="m93.631 44.028h-0.3783l-0.26176-0.74405h-1.1546l-0.26176 0.74405h-0.36037l0.97174-2.6696h0.47332zm-0.74943-1.0488-0.46794-1.3106-0.46974 1.3106z"/><path d="m95.725 41.674h-0.95382v2.3541h-0.35499v-2.3541h-0.95382v-0.31555h2.2626z"/><path d="m97.974 44.028h-0.3783l-0.26176-0.74405h-1.1546l-0.26176 0.74405h-0.36037l0.97174-2.6696h0.47332zm-0.74943-1.0488-0.46794-1.3106-0.46974 1.3106z"/></g><path d="m120.54 19.082h40.122v37.022h-40.122z" fill="none" stroke="#000" stroke-width=".23349"/><path d="m120.57 30.533h40.091v7.8549h-40.091z" fill="none" stroke="#000" stroke-width=".26408"/><g stroke-width=".13346" aria-label="PEB_LDR_DATA"><path d="m123.54 59.972q0 0.25805-0.0912 0.47961-0.0886 0.21895-0.25023 0.38056-0.20071 0.20071-0.4744 0.30236-0.27369 0.09905-0.69074 0.09905h-0.51611v1.4467h-0.5161v-3.8812h1.0531q0.34928 0 0.59169 0.05995 0.24242 0.05734 0.43009 0.18246 0.22156 0.14858 0.34146 0.37014 0.12251 0.22156 0.12251 0.56042zm-0.53695 0.01303q0-0.20071-0.0704-0.34928-0.0704-0.14858-0.21374-0.24241-0.12512-0.0808-0.28673-0.11469-0.159-0.03649-0.40402-0.03649h-0.51089v1.5509h0.4353q0.31279 0 0.50829-0.05474 0.19549-0.05734 0.318-0.17986 0.12251-0.12512 0.17203-0.26326 0.0521-0.13815 0.0521-0.31018z"/><path d="m126.78 62.68h-2.5571v-3.8812h2.5571v0.45876h-2.041v1.0635h2.041v0.45876h-2.041v1.4414h2.041z"/><path d="m130.53 61.487q0 0.28933-0.10948 0.51089-0.10947 0.22156-0.29454 0.36492-0.21895 0.17204-0.48222 0.24502-0.26066 0.07298-0.66468 0.07298h-1.3763v-3.8812h1.1495q0.42487 0 0.636 0.03128 0.21114 0.03128 0.40403 0.13033 0.21374 0.11208 0.31018 0.28933 0.0964 0.17464 0.0964 0.41966 0 0.2763-0.14075 0.47179-0.14076 0.19289-0.37535 0.31018v0.02085q0.39359 0.0808 0.62037 0.34668 0.22677 0.26326 0.22677 0.66729zm-0.86799-1.749q0-0.14076-0.0469-0.2372-0.0469-0.09644-0.15118-0.1564-0.12251-0.07038-0.29716-0.08602-0.17464-0.01825-0.43269-0.01825h-0.61515v1.1208h0.66728q0.24242 0 0.38578-0.02346 0.14336-0.02607 0.26587-0.10426 0.12251-0.0782 0.17203-0.20071 0.0521-0.12512 0.0521-0.29454zm0.33103 1.7699q0-0.23459-0.0704-0.37274t-0.25544-0.23459q-0.12512-0.06517-0.30497-0.08341-0.17725-0.02085-0.43269-0.02085h-0.81065v1.444h0.68292q0.33886 0 0.55521-0.03389 0.21634-0.03649 0.35449-0.13033 0.14597-0.10166 0.21374-0.23199 0.0678-0.13033 0.0678-0.33625z"/><path d="m134.14 63.462h-3.4146v-0.31279h3.4146z"/><path d="m137.11 62.68h-2.4554v-3.8812h0.5161v3.4224h1.9393z"/><path d="m140.9 60.744q0 0.52914-0.23198 0.95922-0.22938 0.43009-0.61255 0.66729-0.26587 0.16422-0.5943 0.2372-0.32583 0.07298-0.86018 0.07298h-0.98007v-3.8812h0.96965q0.56823 0 0.90187 0.08341 0.33625 0.0808 0.56824 0.22417 0.3962 0.24763 0.61776 0.65947 0.22156 0.41184 0.22156 0.97747zm-0.53956-0.0078q0-0.45615-0.159-0.76894-0.15901-0.31279-0.4744-0.49264-0.22938-0.13033-0.48743-0.17986-0.25806-0.05213-0.61777-0.05213h-0.48482v2.995h0.48482q0.37275 0 0.64904-0.05474 0.27891-0.05474 0.5109-0.20331 0.28933-0.18507 0.43269-0.48743 0.14597-0.30236 0.14597-0.75591z"/><path d="m144.95 62.68h-0.6699l-1.2981-1.5431h-0.72724v1.5431h-0.5161v-3.8812h1.087q0.35189 0 0.58648 0.04692 0.23459 0.04431 0.42227 0.16161 0.21113 0.13294 0.32843 0.33625 0.1199 0.20071 0.1199 0.51089 0 0.41966-0.21113 0.70378-0.21114 0.28151-0.58127 0.42487zm-1.2068-2.789q0-0.16682-0.06-0.29454-0.0573-0.13033-0.19288-0.21895-0.11209-0.07559-0.26587-0.10426-0.15379-0.03128-0.36232-0.03128h-0.60734v1.4649h0.52132q0.24502 0 0.42748-0.04171 0.18246-0.04431 0.31019-0.16161 0.11729-0.10948 0.17203-0.25023 0.0573-0.14336 0.0573-0.36232z"/><path d="m148.33 63.462h-3.4146v-0.31279h3.4146z"/><path d="m152.12 60.744q0 0.52914-0.23198 0.95922-0.22938 0.43009-0.61255 0.66729-0.26587 0.16422-0.5943 0.2372-0.32583 0.07298-0.86018 0.07298h-0.98007v-3.8812h0.96965q0.56823 0 0.90188 0.08341 0.33625 0.0808 0.56823 0.22417 0.3962 0.24763 0.61776 0.65947 0.22156 0.41184 0.22156 0.97747zm-0.53956-0.0078q0-0.45615-0.159-0.76894-0.159-0.31279-0.4744-0.49264-0.22938-0.13033-0.48743-0.17986-0.25805-0.05213-0.61776-0.05213h-0.48483v2.995h0.48483q0.37274 0 0.64904-0.05474 0.2789-0.05474 0.51089-0.20331 0.28933-0.18507 0.43269-0.48743 0.14597-0.30236 0.14597-0.75591z"/><path d="m156.02 62.68h-0.54999l-0.38056-1.0817h-1.6786l-0.38056 1.0817h-0.52393l1.4128-3.8812h0.68814zm-1.0896-1.5249-0.68032-1.9054-0.68292 1.9054z"/><path d="m159.06 59.258h-1.3867v3.4224h-0.5161v-3.4224h-1.3867v-0.45876h3.2895z"/><path d="m162.33 62.68h-0.54999l-0.38056-1.0817h-1.6786l-0.38056 1.0817h-0.52392l1.4128-3.8812h0.68814zm-1.0896-1.5249-0.68031-1.9054-0.68293 1.9054z"/></g><g stroke-width=".071977" aria-label="InMemoryOrderModuleList"><path d="m122.72 34.732h-0.82661v-0.21368h0.27413v-1.6659h-0.27413v-0.21368h0.82661v0.21368h-0.27413v1.6659h0.27413z"/><path d="m124.49 34.732h-0.26429v-0.89409q0-0.10825-0.0126-0.20244-0.0127-0.09559-0.0464-0.14901-0.0352-0.05904-0.10122-0.08716-0.0661-0.02952-0.17151-0.02952-0.10824 0-0.22633 0.05342t-0.22633 0.13636v1.1724h-0.26429v-1.5703h0.26429v0.17432q0.12371-0.10262 0.25585-0.16026 0.13214-0.05764 0.27132-0.05764 0.25445 0 0.388 0.15323t0.13355 0.44142z"/><path d="m126.88 34.732h-0.27835v-1.8036l-0.582 1.2273h-0.16588l-0.57778-1.2273v1.8036h-0.26008v-2.0932h0.37957l0.5581 1.1654 0.53983-1.1654h0.38659z"/><path d="m128.74 33.974h-1.157q0 0.1448 0.0436 0.25304 0.0436 0.10684 0.11949 0.17572 0.0731 0.06748 0.17291 0.10122 0.10122 0.03374 0.22212 0.03374 0.16026 0 0.32193-0.06326 0.16307-0.06467 0.23195-0.12652h0.0141v0.28819q-0.13355 0.05623-0.27272 0.09419-0.13918 0.03796-0.29241 0.03796-0.39081 0-0.61011-0.21087-0.21931-0.21228-0.21931-0.60168 0-0.38519 0.20947-0.61152 0.21087-0.22633 0.55388-0.22633 0.31771 0 0.48922 0.18556 0.17291 0.18556 0.17291 0.52717zm-0.25726-0.20244q-1e-3 -0.20806-0.10544-0.32193-0.10262-0.11387-0.31349-0.11387-0.21227 0-0.33879 0.12512-0.12512 0.12512-0.14199 0.31068z"/><path d="m131.43 34.732h-0.26429v-0.89409q0-0.10122-0.01-0.19541-8e-3 -0.09419-0.038-0.15042-0.0323-0.06045-0.0928-0.09138t-0.17432-0.03093q-0.11106 0-0.22211 0.05623-0.11106 0.05483-0.22212 0.14058 4e-3 0.03233 7e-3 0.07591 3e-3 0.04217 3e-3 0.08435v1.0051h-0.26429v-0.89409q0-0.10403-0.01-0.19681-8e-3 -0.09419-0.038-0.15042-0.0323-0.06045-0.0928-0.08997-0.0605-0.03093-0.17432-0.03093-0.10824 0-0.2179 0.05342-0.10824 0.05342-0.21649 0.13636v1.1724h-0.26429v-1.5703h0.26429v0.17432q0.12371-0.10262 0.24602-0.16026 0.12371-0.05764 0.26288-0.05764 0.16026 0 0.27132 0.06748 0.11246 0.06748 0.16729 0.18697 0.16026-0.13496 0.2924-0.194 0.13215-0.06045 0.28257-0.06045 0.25866 0 0.38097 0.15745 0.12371 0.15604 0.12371 0.4372z"/><path d="m133.28 33.948q0 0.38378-0.19681 0.6059t-0.52717 0.22212q-0.33317 0-0.52999-0.22212-0.1954-0.22212-0.1954-0.6059t0.1954-0.6059q0.19682-0.22352 0.52999-0.22352 0.33036 0 0.52717 0.22352 0.19681 0.22212 0.19681 0.6059zm-0.27272 0q0-0.30506-0.11949-0.45267-0.11949-0.14902-0.33177-0.14902-0.21509 0-0.33458 0.14902-0.11809 0.14761-0.11809 0.45267 0 0.29522 0.1195 0.44845 0.11949 0.15183 0.33317 0.15183 0.21087 0 0.33036-0.15042 0.1209-0.15182 0.1209-0.44985z"/><path d="m134.67 33.45h-0.0141q-0.059-0.01406-0.11527-0.01968-0.0548-7e-3 -0.13074-7e-3 -0.12231 0-0.23617 0.05483-0.11387 0.05342-0.21931 0.13917v1.1148h-0.26429v-1.5703h0.26429v0.23196q0.15745-0.12652 0.27694-0.17854 0.1209-0.05342 0.24602-0.05342 0.0689 0 0.0998 0.0042 0.0309 0.0028 0.0928 0.01265z"/><path d="m136.28 33.162-0.91658 2.1495h-0.28257l0.29241-0.6551-0.62558-1.4944h0.28678l0.48219 1.164 0.4864-1.164z"/><path d="m138.2 32.879q0.12793 0.14058 0.19541 0.34442 0.0689 0.20384 0.0689 0.46251 0 0.25867-0.0703 0.46391-0.0689 0.20384-0.194 0.3402-0.12933 0.14198-0.30646 0.21368-0.17573 0.0717-0.40206 0.0717-0.22071 0-0.40206-0.0731-0.17994-0.0731-0.30646-0.21228-0.12652-0.13917-0.19541-0.34161-0.0675-0.20244-0.0675-0.46251 0-0.25586 0.0675-0.45829 0.0675-0.20384 0.19682-0.34864 0.12371-0.13777 0.30646-0.21087 0.18416-0.0731 0.40065-0.0731 0.22493 0 0.40346 0.07451 0.17995 0.0731 0.30506 0.20946zm-0.0253 0.80693q0-0.40768-0.18276-0.62839-0.18275-0.22212-0.49905-0.22212-0.31912 0-0.50187 0.22212-0.18135 0.22071-0.18135 0.62839 0 0.4119 0.18556 0.6312 0.18557 0.2179 0.49766 0.2179 0.31208 0 0.49624-0.2179 0.18557-0.2193 0.18557-0.6312z"/><path d="m139.87 33.45h-0.0141q-0.0591-0.01406-0.11528-0.01968-0.0548-7e-3 -0.13074-7e-3 -0.1223 0-0.23617 0.05483-0.11387 0.05342-0.2193 0.13917v1.1148h-0.26425v-1.5703h0.26429v0.23196q0.15744-0.12652 0.27694-0.17854 0.1209-0.05342 0.24601-0.05342 0.0689 0 0.0998 0.0042 0.0309 0.0028 0.0928 0.01265z"/><path d="m141.39 34.732h-0.26429v-0.16448q-0.11387 0.09841-0.23758 0.15323-0.12371 0.05483-0.26851 0.05483-0.28115 0-0.44704-0.21649-0.16448-0.21649-0.16448-0.60028 0-0.19962 0.0562-0.35567 0.0576-0.15604 0.15463-0.2657 0.0956-0.10684 0.22212-0.16307 0.12793-0.05623 0.26429-0.05623 0.12371 0 0.2193 0.02671 0.0956 0.02531 0.20103 0.08013v-0.68041h0.26429zm-0.26429-0.38659v-0.90112q-0.10684-0.0478-0.19119-0.06607-0.0843-0.01827-0.18416-0.01827-0.22211 0-0.34582 0.15464-0.12371 0.15464-0.12371 0.43861 0 0.27975 0.0956 0.42596 0.0956 0.1448 0.30647 0.1448 0.11246 0 0.22773-0.0492 0.11528-0.05061 0.21509-0.12933z"/><path d="m143.22 33.974h-1.157q0 0.1448 0.0436 0.25304 0.0436 0.10684 0.11949 0.17572 0.0731 0.06748 0.17291 0.10122 0.10122 0.03374 0.22212 0.03374 0.16026 0 0.32192-0.06326 0.16308-0.06467 0.23196-0.12652h0.0141v0.28819q-0.13355 0.05623-0.27273 0.09419-0.13917 0.03796-0.2924 0.03796-0.39081 0-0.61012-0.21087-0.2193-0.21228-0.2193-0.60168 0-0.38519 0.20946-0.61152 0.21087-0.22633 0.55389-0.22633 0.31771 0 0.48921 0.18556 0.17292 0.18556 0.17292 0.52717zm-0.25727-0.20244q-1e-3 -0.20806-0.10543-0.32193-0.10262-0.11387-0.31349-0.11387-0.21228 0-0.3388 0.12512-0.12511 0.12512-0.14198 0.31068z"/><path d="m144.6 33.45h-0.0141q-0.059-0.01406-0.11528-0.01968-0.0548-7e-3 -0.13074-7e-3 -0.1223 0-0.23617 0.05483-0.11387 0.05342-0.2193 0.13917v1.1148h-0.26429v-1.5703h0.26429v0.23196q0.15745-0.12652 0.27694-0.17854 0.1209-0.05342 0.24601-0.05342 0.0689 0 0.0998 0.0042 0.0309 0.0028 0.0928 0.01265z"/><path d="m146.74 34.732h-0.27835v-1.8036l-0.582 1.2273h-0.16589l-0.57778-1.2273v1.8036h-0.26007v-2.0932h0.37957l0.5581 1.1654 0.53982-1.1654h0.3866z"/><path d="m148.62 33.948q0 0.38378-0.19681 0.6059t-0.52717 0.22212q-0.33317 0-0.52999-0.22212-0.1954-0.22212-0.1954-0.6059t0.1954-0.6059q0.19682-0.22352 0.52999-0.22352 0.33036 0 0.52717 0.22352 0.19681 0.22212 0.19681 0.6059zm-0.27272 0q0-0.30506-0.11949-0.45267-0.1195-0.14902-0.33177-0.14902-0.21509 0-0.33458 0.14902-0.11809 0.14761-0.11809 0.45267 0 0.29522 0.1195 0.44845 0.11949 0.15183 0.33317 0.15183 0.21087 0 0.33036-0.15042 0.1209-0.15182 0.1209-0.44985z"/><path d="m150.3 34.732h-0.26429v-0.16448q-0.11387 0.09841-0.23758 0.15323-0.12371 0.05483-0.2685 0.05483-0.28116 0-0.44705-0.21649-0.16448-0.21649-0.16448-0.60028 0-0.19962 0.0562-0.35567 0.0576-0.15604 0.15463-0.2657 0.0956-0.10684 0.22212-0.16307 0.12793-0.05623 0.26429-0.05623 0.12371 0 0.2193 0.02671 0.0956 0.02531 0.20103 0.08013v-0.68041h0.26429zm-0.26429-0.38659v-0.90112q-0.10684-0.0478-0.19119-0.06607-0.0843-0.01827-0.18416-0.01827-0.22211 0-0.34582 0.15464-0.12371 0.15464-0.12371 0.43861 0 0.27975 0.0956 0.42596 0.0956 0.1448 0.30647 0.1448 0.11246 0 0.22774-0.0492 0.11527-0.05061 0.21508-0.12933z"/><path d="m152.12 34.732h-0.26429v-0.17432q-0.13355 0.10544-0.25585 0.16167-0.12231 0.05623-0.26992 0.05623-0.24742 0-0.38518-0.15042-0.13777-0.15183-0.13777-0.44423v-1.0192h0.26429v0.89409q0 0.11949 0.0112 0.20525 0.0113 0.08435 0.0478 0.1448 0.038 0.06186 0.0984 0.08997 0.0605 0.02812 0.17572 0.02812 0.10263 0 0.22352-0.05342 0.12231-0.05342 0.22774-0.13636v-1.1724h0.26429z"/><path d="m152.91 34.732h-0.26429v-2.1874h0.26429z"/><path d="m154.75 33.974h-1.157q0 0.1448 0.0436 0.25304 0.0436 0.10684 0.1195 0.17572 0.0731 0.06748 0.17291 0.10122 0.10122 0.03374 0.22211 0.03374 0.16026 0 0.32193-0.06326 0.16307-0.06467 0.23196-0.12652h0.0141v0.28819q-0.13355 0.05623-0.27273 0.09419-0.13917 0.03796-0.2924 0.03796-0.39082 0-0.61012-0.21087-0.2193-0.21228-0.2193-0.60168 0-0.38519 0.20946-0.61152 0.21087-0.22633 0.55388-0.22633 0.31771 0 0.48922 0.18556 0.17291 0.18556 0.17291 0.52717zm-0.25726-0.20244q-1e-3 -0.20806-0.10543-0.32193-0.10263-0.11387-0.31349-0.11387-0.21228 0-0.3388 0.12512-0.12512 0.12512-0.14199 0.31068z"/><path d="m156.49 34.732h-1.3243v-2.0932h0.27835v1.8458h1.0459z"/><path d="m157.03 32.899h-0.29803v-0.27413h0.29803zm-0.0169 1.8332h-0.26429v-1.5703h0.26429z"/><path d="m158.66 34.28q0 0.21509-0.17853 0.35285-0.17713 0.13777-0.485 0.13777-0.17432 0-0.32052-0.04077-0.1448-0.04217-0.24321-0.09138v-0.29662h0.0141q0.12512 0.09419 0.27835 0.15042 0.15323 0.05483 0.29381 0.05483 0.17432 0 0.27273-0.05623 0.0984-0.05623 0.0984-0.17713 0-0.09278-0.0534-0.14058t-0.20525-0.08154q-0.0562-0.01265-0.1476-0.02952-0.09-0.01687-0.16448-0.03655-0.20665-0.05483-0.29381-0.16026-0.0858-0.10684-0.0858-0.26148 0-0.097 0.0394-0.18275 0.0408-0.08575 0.1223-0.15323 0.0787-0.06607 0.19962-0.10403 0.12231-0.03936 0.27273-0.03936 0.14058 0 0.28397 0.03514 0.14479 0.03374 0.24039 0.08294v0.28256h-0.0141q-0.10122-0.07451-0.24601-0.12512-0.1448-0.05201-0.28397-0.05201-0.1448 0-0.24461 0.05623-0.0998 0.05483-0.0998 0.16448 0 0.097 0.0605 0.1462 0.059 0.0492 0.19118 0.08013 0.0731 0.01687 0.16308 0.03374 0.0914 0.01687 0.15182 0.03093 0.18416 0.04217 0.28397 0.1448 0.0998 0.10403 0.0998 0.27554z"/><path d="m159.86 34.718q-0.0745 0.01968-0.16308 0.03233-0.0872 0.01265-0.15604 0.01265-0.24039 0-0.36551-0.12933-0.12511-0.12933-0.12511-0.41471v-0.83504h-0.17854v-0.22211h0.17854v-0.45126h0.26429v0.45126h0.54545v0.22212h-0.54545v0.71555q0 0.12371 6e-3 0.194 6e-3 0.06888 0.0394 0.12933 0.0309 0.05623 0.0844 0.08294 0.0548 0.0253 0.16588 0.0253 0.0647 0 0.13496-0.01828 0.0703-0.01968 0.10122-0.03233h0.0141z"/></g><g fill="none" stroke="#000" stroke-width=".26458px"><path d="m47.908 35.213 14.7-22.25z"/><path d="m62.541 13.029-2.0713 0.26727z"/><path d="m62.474 13.096-0.13364 1.9377z"/><path d="m102.81 42.617 17.576-8.221z"/><path d="m120.29 34.396-1.9844-0.28348z"/><path d="m120.2 34.301-0.85045 1.9844z"/></g><g transform="rotate(-90 64.463 131.18)"><path d="m73.163 80.156h32.267v8.0764h-32.267z" fill="none" stroke="#000" stroke-width=".31462"/><g stroke-width=".11539" aria-label="LIST_ENTRY"><path d="m77.807 85.541h-2.123v-3.3558h0.44624v2.9591h1.6768z"/><path d="m79.436 85.541h-1.3252v-0.34256h0.43947v-2.6706h-0.43947v-0.34256h1.3252v0.34256h-0.43947v2.6706h0.43947z"/><path d="m82.634 84.583q0 0.19607-0.0924 0.38764-0.09015 0.19156-0.25467 0.32453-0.1803 0.14424-0.42144 0.22537-0.23889 0.08113-0.57695 0.08113-0.36285 0-0.65358-0.06761-0.28848-0.06761-0.58822-0.20058v-0.55892h0.03155q0.25467 0.21185 0.58822 0.32679 0.33355 0.11494 0.62653 0.11494 0.41468 0 0.64456-0.15551 0.23213-0.15551 0.23213-0.41468 0-0.22312-0.11043-0.32904-0.10818-0.10592-0.3313-0.16452-0.16903-0.04507-0.36736-0.07437-0.19607-0.0293-0.41694-0.07437-0.44624-0.09466-0.66259-0.32228-0.2141-0.22988-0.2141-0.59723 0-0.42144 0.35609-0.68964 0.35609-0.27044 0.90374-0.27044 0.35383 0 0.64907 0.06761 0.29524 0.06761 0.52286 0.16678v0.52737h-0.03155q-0.19156-0.16227-0.50483-0.26819-0.31101-0.10818-0.6378-0.10818-0.35834 0-0.57695 0.14874-0.21636 0.14874-0.21636 0.38313 0 0.2096 0.10818 0.32904t0.38088 0.18255q0.14424 0.03155 0.41018 0.07663 0.26594 0.04507 0.45074 0.0924 0.37412 0.09916 0.56343 0.29974 0.18931 0.20058 0.18931 0.56117z"/><path d="m85.744 82.582h-1.199v2.9591h-0.44624v-2.9591h-1.199v-0.39665h2.8442z"/><path d="m88.688 86.217h-2.9524v-0.27045h2.9524z"/><path d="m91.34 85.541h-2.2109v-3.3558h2.2109v0.39665h-1.7647v0.91951h1.7647v0.39665h-1.7647v1.2463h1.7647z"/><path d="m94.608 85.541h-0.55216l-1.5911-3.0019v3.0019h-0.41694v-3.3558h0.69189l1.4514 2.7405v-2.7405h0.41694z"/><path d="m97.894 82.582h-1.199v2.9591h-0.44624v-2.9591h-1.199v-0.39665h2.8442z"/><path d="m101.12 85.541h-0.57921l-1.1223-1.3342h-0.62878v1.3342h-0.44624v-3.3558h0.9398q0.30425 0 0.50708 0.04057 0.20283 0.03831 0.3651 0.13973 0.18255 0.11494 0.28397 0.29073 0.10367 0.17354 0.10367 0.44173 0 0.36285-0.18255 0.6085-0.18255 0.2434-0.50258 0.36736zm-1.0435-2.4115q0-0.14424-0.0518-0.25467-0.04958-0.11268-0.16677-0.18931-0.09691-0.06536-0.22988-0.09015-0.13297-0.02704-0.31327-0.02704h-0.52512v1.2666h0.45074q0.21185 0 0.36961-0.03606 0.15776-0.03831 0.26819-0.13973 0.10142-0.09466 0.14875-0.21636 0.0496-0.12396 0.0496-0.31327z"/><path d="m103.88 82.185-1.181 1.8841v1.4717h-0.44623v-1.4243l-1.1855-1.9314h0.49357l0.91726 1.501 0.92627-1.501z"/></g></g><g transform="rotate(89.817 75.057 92.119)"><path d="m73.163 80.156h32.267v8.0764h-32.267z" fill="none" stroke="#000" stroke-width=".31462"/><g stroke-width=".11539" aria-label="LIST_ENTRY"><path d="m77.807 85.541h-2.123v-3.3558h0.44624v2.9591h1.6768z"/><path d="m79.436 85.541h-1.3252v-0.34256h0.43947v-2.6706h-0.43947v-0.34256h1.3252v0.34256h-0.43947v2.6706h0.43947z"/><path d="m82.634 84.583q0 0.19607-0.0924 0.38764-0.09015 0.19156-0.25467 0.32453-0.1803 0.14424-0.42144 0.22537-0.23889 0.08113-0.57695 0.08113-0.36285 0-0.65358-0.06761-0.28848-0.06761-0.58822-0.20058v-0.55892h0.03155q0.25467 0.21185 0.58822 0.32679 0.33355 0.11494 0.62653 0.11494 0.41468 0 0.64456-0.15551 0.23213-0.15551 0.23213-0.41468 0-0.22312-0.11043-0.32904-0.10818-0.10592-0.3313-0.16452-0.16903-0.04507-0.36736-0.07437-0.19607-0.0293-0.41694-0.07437-0.44624-0.09466-0.66259-0.32228-0.2141-0.22988-0.2141-0.59723 0-0.42144 0.35609-0.68964 0.35609-0.27044 0.90374-0.27044 0.35383 0 0.64907 0.06761 0.29524 0.06761 0.52286 0.16678v0.52737h-0.03155q-0.19156-0.16227-0.50483-0.26819-0.31101-0.10818-0.6378-0.10818-0.35834 0-0.57695 0.14874-0.21636 0.14874-0.21636 0.38313 0 0.2096 0.10818 0.32904t0.38088 0.18255q0.14424 0.03155 0.41018 0.07663 0.26594 0.04507 0.45074 0.0924 0.37412 0.09916 0.56343 0.29974 0.18931 0.20058 0.18931 0.56117z"/><path d="m85.744 82.582h-1.199v2.9591h-0.44624v-2.9591h-1.199v-0.39665h2.8442z"/><path d="m88.688 86.217h-2.9524v-0.27045h2.9524z"/><path d="m91.34 85.541h-2.2109v-3.3558h2.2109v0.39665h-1.7647v0.91951h1.7647v0.39665h-1.7647v1.2463h1.7647z"/><path d="m94.608 85.541h-0.55216l-1.5911-3.0019v3.0019h-0.41694v-3.3558h0.69189l1.4514 2.7405v-2.7405h0.41694z"/><path d="m97.894 82.582h-1.199v2.9591h-0.44624v-2.9591h-1.199v-0.39665h2.8442z"/><path d="m101.12 85.541h-0.57921l-1.1223-1.3342h-0.62878v1.3342h-0.44624v-3.3558h0.9398q0.30425 0 0.50708 0.04057 0.20283 0.03831 0.3651 0.13973 0.18255 0.11494 0.28397 0.29073 0.10367 0.17354 0.10367 0.44173 0 0.36285-0.18255 0.6085-0.18255 0.2434-0.50258 0.36736zm-1.0435-2.4115q0-0.14424-0.0518-0.25467-0.04958-0.11268-0.16677-0.18931-0.09691-0.06536-0.22988-0.09015-0.13297-0.02704-0.31327-0.02704h-0.52512v1.2666h0.45074q0.21185 0 0.36961-0.03606 0.15776-0.03831 0.26819-0.13973 0.10142-0.09466 0.14875-0.21636 0.0496-0.12396 0.0496-0.31327z"/><path d="m103.88 82.185-1.181 1.8841v1.4717h-0.44623v-1.4243l-1.1855-1.9314h0.49357l0.91726 1.501 0.92627-1.501z"/></g></g><g transform="translate(-38.828 36.007)"><path d="m73.163 80.156h32.267v8.0764h-32.267z" fill="none" stroke="#000" stroke-width=".31462"/><g stroke-width=".11539" aria-label="LIST_ENTRY"><path d="m77.807 85.541h-2.123v-3.3558h0.44624v2.9591h1.6768z"/><path d="m79.436 85.541h-1.3252v-0.34256h0.43947v-2.6706h-0.43947v-0.34256h1.3252v0.34256h-0.43947v2.6706h0.43947z"/><path d="m82.634 84.583q0 0.19607-0.0924 0.38764-0.09015 0.19156-0.25467 0.32453-0.1803 0.14424-0.42144 0.22537-0.23889 0.08113-0.57695 0.08113-0.36285 0-0.65358-0.06761-0.28848-0.06761-0.58822-0.20058v-0.55892h0.03155q0.25467 0.21185 0.58822 0.32679 0.33355 0.11494 0.62653 0.11494 0.41468 0 0.64456-0.15551 0.23213-0.15551 0.23213-0.41468 0-0.22312-0.11043-0.32904-0.10818-0.10592-0.3313-0.16452-0.16903-0.04507-0.36736-0.07437-0.19607-0.0293-0.41694-0.07437-0.44624-0.09466-0.66259-0.32228-0.2141-0.22988-0.2141-0.59723 0-0.42144 0.35609-0.68964 0.35609-0.27044 0.90374-0.27044 0.35383 0 0.64907 0.06761 0.29524 0.06761 0.52286 0.16678v0.52737h-0.03155q-0.19156-0.16227-0.50483-0.26819-0.31101-0.10818-0.6378-0.10818-0.35834 0-0.57695 0.14874-0.21636 0.14874-0.21636 0.38313 0 0.2096 0.10818 0.32904t0.38088 0.18255q0.14424 0.03155 0.41018 0.07663 0.26594 0.04507 0.45074 0.0924 0.37412 0.09916 0.56343 0.29974 0.18931 0.20058 0.18931 0.56117z"/><path d="m85.744 82.582h-1.199v2.9591h-0.44624v-2.9591h-1.199v-0.39665h2.8442z"/><path d="m88.688 86.217h-2.9524v-0.27045h2.9524z"/><path d="m91.34 85.541h-2.2109v-3.3558h2.2109v0.39665h-1.7647v0.91951h1.7647v0.39665h-1.7647v1.2463h1.7647z"/><path d="m94.608 85.541h-0.55216l-1.5911-3.0019v3.0019h-0.41694v-3.3558h0.69189l1.4514 2.7405v-2.7405h0.41694z"/><path d="m97.894 82.582h-1.199v2.9591h-0.44624v-2.9591h-1.199v-0.39665h2.8442z"/><path d="m101.12 85.541h-0.57921l-1.1223-1.3342h-0.62878v1.3342h-0.44624v-3.3558h0.9398q0.30425 0 0.50708 0.04057 0.20283 0.03831 0.3651 0.13973 0.18255 0.11494 0.28397 0.29073 0.10367 0.17354 0.10367 0.44173 0 0.36285-0.18255 0.6085-0.18255 0.2434-0.50258 0.36736zm-1.0435-2.4115q0-0.14424-0.0518-0.25467-0.04958-0.11268-0.16677-0.18931-0.09691-0.06536-0.22988-0.09015-0.13297-0.02704-0.31327-0.02704h-0.52512v1.2666h0.45074q0.21185 0 0.36961-0.03606 0.15776-0.03831 0.26819-0.13973 0.10142-0.09466 0.14875-0.21636 0.0496-0.12396 0.0496-0.31327z"/><path d="m103.88 82.185-1.181 1.8841v1.4717h-0.44623v-1.4243l-1.1855-1.9314h0.49357l0.91726 1.501 0.92627-1.501z"/></g></g><g transform="translate(33.275 2.1382)"><path d="m8.7517 86.3h15.917v8.1688h-15.917z" fill="none" stroke="#000" stroke-width=".26458"/><g stroke-width=".11539" aria-label="NULL"><path d="m13.879 91.731h-0.55216l-1.5911-3.0019v3.0019h-0.41694v-3.3558h0.69189l1.4514 2.7405v-2.7405h0.41694z"/><path d="m17.297 90.384q0 0.3651-0.08113 0.6378-0.07888 0.27044-0.26143 0.45074-0.17354 0.17128-0.40567 0.25016-0.23213 0.07888-0.54089 0.07888-0.31552 0-0.54991-0.08339t-0.3944-0.24565q-0.18255-0.1848-0.26368-0.44624-0.07888-0.26143-0.07888-0.64231v-2.0081h0.44624v2.0306q0 0.2727 0.03606 0.43046 0.03831 0.15776 0.12621 0.28622 0.09916 0.14649 0.26819 0.22086 0.17128 0.07437 0.41018 0.07437 0.24115 0 0.41018-0.07212 0.16903-0.07437 0.27045-0.22312 0.08789-0.12846 0.12395-0.29298 0.03831-0.16677 0.03831-0.41243v-2.0419h0.44624z"/><path d="m20.272 91.731h-2.123v-3.3558h0.44623v2.9591h1.6768z"/><path d="m22.842 91.731h-2.123v-3.3558h0.44623v2.9591h1.6768z"/></g></g><path d="m109.84 99.408s2.513-3.6752 15.872-3.6792c13.359-4e-3 16.445 3.4902 16.445 3.4902l0.0945-1.7954-0.0945 1.7954-1.6064-0.28348 1.6064 0.28348" fill="none" stroke="#000" stroke-width=".26458px"/><g stroke-width=".087105" aria-label="Flink"><path d="m64.497 83.228h-1.281v0.71453h1.1007v0.29942h-1.1007v1.2198h-0.33685v-2.5332h1.6179z"/><path d="m65.179 85.461h-0.31984v-2.6472h0.31984z"/><path d="m66.156 83.243h-0.36067v-0.33174h0.36067zm-0.02041 2.2184h-0.31984v-1.9003h0.31984z"/><path d="m68.357 85.461h-0.31984v-1.082q0-0.131-0.01531-0.24498-0.01531-0.11568-0.05614-0.18033-0.04253-0.07145-0.12249-0.10548-0.07996-0.03573-0.20755-0.03573-0.131 0-0.2739 0.06465t-0.2739 0.16502v1.4189h-0.31984v-1.9003h0.31984v0.21096q0.14971-0.12419 0.30963-0.19394 0.15992-0.06975 0.32834-0.06975 0.30793 0 0.46955 0.18544t0.16162 0.5342z"/><path d="m70.698 85.461h-0.42191l-0.76216-0.83192-0.20755 0.19735v0.63457h-0.31984v-2.6472h0.31984v1.6979l0.92378-0.951h0.4032l-0.88295 0.87785z"/></g><g transform="translate(141.97 30.516)"><path d="m6.023 99.179s-2.5105 3.9482-15.856 3.9525c-13.346 4e-3 -16.428-3.7495-16.428-3.7495l-0.09382 1.9288 0.09382-1.9288 1.6048 0.30454-1.6048-0.30454" fill="none" stroke="#000" stroke-width=".2741px"/><text x="-15.805597" y="107.43346" fill="#000000" font-family="sans-serif" font-size="4.6156px" stroke-width=".11539" style="line-height:1.25" xml:space="preserve"><tspan x="-15.805597" y="107.43346" stroke-width=".11539">Blink</tspan></text></g><g fill="none"><g stroke="#a20000" stroke-width=".26458px"><path d="m49.985 88.438s4.2406-2.2088 17.356-1.648c13.116 0.56087 15.634 3.4096 15.634 3.4096"/><path d="m50.088 124.23s4.2406 2.2088 17.356 1.648c13.116-0.56087 15.634-3.4096 15.634-3.4096"/><path d="m50.469 124.24s-4.2406 2.2088-17.356 1.648c-13.116-0.56087-15.634-3.4096-15.634-3.4096"/><path d="m49.985 88.438s-4.2406-2.2088-17.356-1.648c-13.116 0.56087-15.634 3.4096-15.634 3.4096"/></g><g stroke="#000091"><g stroke-width=".26458px"><path d="m78.989 106.35s-6.5964-0.0399-14.771-2.3312c-8.1747-2.2913-14.232-7.4078-14.232-7.4078"/><path d="m78.989 106.35s-6.5964 0.0399-14.771 2.3312c-8.1748 2.2913-14.232 7.4078-14.232 7.4078"/><path d="m21.466 106.42s6.5964 0.0399 14.771 2.3312c8.1748 2.2913 14.232 7.4078 14.232 7.4078"/><path d="m21.517 106.34s6.5964-0.0399 14.771-2.3312c8.1748-2.2913 14.232-7.4078 14.232-7.4078"/></g><g stroke-width=".26458"><path d="m37.395 102.51c-0.10656 0.43393-0.25274 0.85798-0.42504 1.27-0.0209 0.0453-0.04746 0.10988-0.07676 0.15483-3e-3 5e-3 -0.01738 0.0133-0.0122 0.0113 0.06049-0.0229 0.05149-0.0567 0.06742-0.112 0.05912-0.10955-0.0345-0.0634-0.02069 0.0148 0.01008 8e-3 0.01836 0.0185 0.0302 0.0228 0.05698 0.021 0.14497 0.0182 0.21085 0.0401 0.11962 0.0397 0.13054 0.0541 0.24552 0.11968 0.14784 0.0919 0.27081 0.21456 0.39963 0.32979 0.0019 2e-3 0.03591-0.0239 0.03405-0.0263-0.11752-0.13236-0.25-0.24952-0.39919-0.34567-0.0658-0.0372-0.3942-0.21463-0.47598-0.14878-0.0041-0.0124 0.0058-0.0272 5.29e-4 -0.0391-0.04402-0.10041-0.05173-0.0203-0.07028 0.0219-0.01458 0.0514-0.04817 0.11071 0.01304 0.151 0.02854 0.0188 0.08761-0.19763 0.10349-0.17682 0.17986-0.41236 0.32877-0.84041 0.42232-1.281 5.29e-4 -3e-3 -0.04656-0.01-0.04702-7e-3z"/><path d="m61.849 102.25c-0.36836 0.16826-0.73224 0.35089-1.0725 0.57132-0.01156 0.01-0.04607 0.0192-0.03468 0.0291 0.07793 0.0678 0.1892-0.078 0.30512 5e-3 0.08089 0.20403 0.11981 0.42301 0.19029 0.63167 0.02434 0.0642 0.02994 0.0799 0.0534 0.1391 0.01551 0.0391 0.02096 0.0516 0.02233 0.0506 0.05137-0.0386 0.03398-0.0421 0.0096-0.0773-1.69e-4 -7.9e-4 -0.01177 2e-3 -0.01161 2e-3 -0.0061 0.045-0.01863 0.0463 0.04263 0.0584 0.01691 3e-3 -0.0127-0.032-0.01873-0.0481-0.04498-0.12031 0.0021 8e-3 -0.05102-0.13797-0.07147-0.21583-0.1086-0.44556-0.20665-0.65037-0.01759-0.012-0.03244-0.0298-0.05281-0.0361-0.05032-0.0155-0.26278 4e-3 -0.2516 0.0928 0.0019 0.0139 0.02305-0.0159 0.03458-0.0239 0.34685-0.20598 0.70467-0.39318 1.0679-0.5686 0.0027-2e-3 -0.02355-0.0399-0.02622-0.038z"/><path d="m36.549 108.41c0.17699 0.36643 0.35282 0.7387 0.58422 1.0749 0.0064 5e-3 0.01307 0.0211 0.01923 0.0156 0.08096-0.0725-0.05312-0.22057-0.12088-0.24938-0.03301-0.014-0.07062-0.0126-0.10592-0.0189-0.22613 0.0455-0.44756 0.16475-0.60799 0.33335-0.02617 0.0275-0.04369 0.0621-0.06553 0.0932-0.0011 2e-3 0.02027 0.0158 0.02127 0.0143 0.1788-0.17415 0.39208-0.31897 0.63334-0.39005 0.11 7e-3 0.13359 0.0189 0.19499 0.11365 0.01217 0.0188 0.0141 0.0454 0.03167 0.0593 0.01243 0.01 0.07968 0.022 0.04745 4e-3 -0.21643-0.34292-0.39638-0.70795-0.5802-1.0688-0.0013-4e-3 -0.053 0.0157-0.05163 0.0194z"/><path d="m60.431 109.34c0.20012 0.14823 0.4093 0.28363 0.61262 0.42733 0.0021-0.018 0.01336-0.0373 0.0062-0.0539-0.01588-0.037-0.12135-0.0598-0.15179-0.0499-0.05677 0.0186-0.09029 0.0916-0.11785 0.13332-0.13344 0.29385-0.27372 0.61096-0.29463 0.93782-2.64e-4 2e-3 0.02418 6e-3 0.0245 4e-3 0.11607-0.30167 0.16067-0.63065 0.31883-0.91698 0.0079-0.0127 0.05974-0.12518 0.10535-0.11489 0.03089 7e-3 0.05157 0.0446 0.08322 0.0458 0.02217 8e-4 0.04194-0.0145 0.06291-0.0217-0.19346-0.15701-0.41103-0.28259-0.6119-0.42949-0.0027-3e-3 -0.04016 0.0354-0.03746 0.0381z"/></g></g><g stroke="#a20000" stroke-width=".26458"><path d="m33.058 86.306c0.1415 0.09777 0.29397 0.17921 0.43424 0.27882 0.05905 0.04194 0.15174 0.09134 0.14781 0.18294-0.0016 0.03966-0.03003 0.07349-0.04505 0.11023-0.14936 0.1992-0.35496 0.34273-0.54568 0.49868-0.0011 0.0011 0.01442 0.0176 0.01558 0.01648 0.22323-0.12856 0.42745-0.28775 0.5762-0.50153 0.01452-0.04612 0.04399-0.09 0.04358-0.13835-0.0016-0.18211-0.46255-0.38207-0.59686-0.48052-0.0024-0.0021-0.03218 0.03114-0.02983 0.03324z"/><path d="m65.239 85.982c0.24516 0.26329 0.59654 0.49154 0.79392 0.79141-0.0046 0.0159-0.0016 0.03664-0.01392 0.04772-0.02021 0.01818-0.04958 0.02246-0.07498 0.03218-0.05436 0.0208-0.10996 0.03826-0.1642 0.05938-0.2388 0.09302-0.18129 0.07119-0.40878 0.19586-0.0013 7.94e-4 0.01106 0.01794 0.01228 0.01707 0.39652-0.1607 0.03636-0.01619 0.42454-0.16783 0.03956-0.01545 0.21688-0.07201 0.25803-0.12897 0.01537-0.02127 0.0071-0.05197 0.01072-0.07795-0.19222-0.31131-0.54428-0.54185-0.80065-0.80025-0.0021-0.0026-0.03918 0.02877-0.03696 0.03138z"/><path d="m69.613 125.09c-0.24556 0.19105-0.49017 0.38415-0.72206 0.59176-0.0081 8e-3 -0.03236 0.0164-0.02447 0.025 0.02291 0.025 0.17844 0.0448 0.21329 0.0627 0.09639 0.0494 0.13155 0.0953 0.21167 0.17148 0.11824 0.13628 0.2189 0.28702 0.30491 0.44546 0.03017 0.0556 0.07503 0.13401 0.08191 0.20112 0.0039-0.0136 0.0077-0.0272 0.01161-0.0408-5.29e-4 -1e-3 -0.01931 7e-3 -0.01868 9e-3 0.01757 0.0102 0.03513 0.0205 0.0527 0.0307 0.0019-0.19376-0.27553-0.53419-0.39021-0.67968-0.0964-0.0904-0.18996-0.18939-0.32646-0.21493-0.0016-2.7e-4 -0.13865-0.0316-0.10389 0.0454 0.0046 0.0102 0.01704-0.0146 0.02558-0.0219 0.23816-0.19902 0.47879-0.39504 0.71876-0.59188 0.0024-2e-3 -0.03229-0.0356-0.03463-0.0332z"/><path d="m31.58 125.31c-0.13209 0.14353-0.26748 0.28439-0.39414 0.43284-0.02476 0.029-0.12248 0.13939-0.13837 0.19421-0.0049 0.0168 0.0046 0.0346 0.0069 0.052 0.02138 9e-3 0.04139 0.0228 0.06411 0.028 0.02826 7e-3 0.05843 7.9e-4 0.08675 7e-3 0.22082 0.0489 0.37688 0.22569 0.52713 0.38055 0.08348 0.0916 0.1514 0.19518 0.25101 0.26981 2.65e-4 5.3e-4 0.0084-5e-3 8e-3 -6e-3 -0.05881-0.10805-0.13562-0.20378-0.21586-0.29684-0.17404-0.17975-0.39639-0.43423-0.67625-0.39077-0.02318-0.0618 0.10364-0.17719 0.13023-0.20771 0.12788-0.14677 0.26189-0.28815 0.38974-0.43495 0.0021-3e-3 -0.03726-0.0313-0.03928-0.0285z"/></g></g><g stroke-width=".087105" aria-label="Flink"><path d="m65.328 127.78h-1.281v0.71453h1.1007v0.29942h-1.1007v1.2198h-0.33685v-2.5332h1.6179z"/><path d="m66.01 130.01h-0.31984v-2.6472h0.31984z"/><path d="m66.986 127.8h-0.36067v-0.33174h0.36067zm-0.02041 2.2184h-0.31984v-1.9003h0.31984z"/><path d="m69.188 130.01h-0.31984v-1.082q0-0.13099-0.01531-0.24498-0.01531-0.11568-0.05614-0.18033-0.04253-0.0714-0.12249-0.10548-0.07996-0.0357-0.20755-0.0357-0.131 0-0.2739 0.0647t-0.2739 0.16502v1.4188h-0.31984v-1.9003h0.31984v0.21095q0.14971-0.12419 0.30963-0.19394 0.15992-0.0697 0.32834-0.0697 0.30793 0 0.46955 0.18544 0.16162 0.18543 0.16162 0.53419z"/><path d="m71.529 130.01h-0.42191l-0.76216-0.83191-0.20755 0.19735v0.63456h-0.31984v-2.6472h0.31984v1.6979l0.92378-0.951h0.4032l-0.88295 0.87785z"/><path d="m29.781 128.58h-1.281v0.71453h1.1007v0.29943h-1.1007v1.2198h-0.33685v-2.5332h1.6179z"/><path d="m30.463 130.82h-0.31984v-2.6472h0.31984z"/><path d="m31.439 128.6h-0.36067v-0.33175h0.36067zm-0.02041 2.2184h-0.31984v-1.9003h0.31984z"/><path d="m33.641 130.82h-0.31984v-1.082q0-0.131-0.01531-0.24498-0.01531-0.11569-0.05614-0.18034-0.04253-0.0714-0.12249-0.10548-0.07996-0.0357-0.20755-0.0357-0.131 0-0.2739 0.0647-0.14291 0.0646-0.2739 0.16502v1.4188h-0.31984v-1.9003h0.31984v0.21096q0.14971-0.12419 0.30963-0.19395 0.15992-0.0697 0.32834-0.0697 0.30793 0 0.46955 0.18544 0.16162 0.18544 0.16162 0.5342z"/><path d="m35.982 130.82h-0.42191l-0.76216-0.83192-0.20755 0.19735v0.63457h-0.31984v-2.6472h0.31984v1.6979l0.92378-0.95101h0.4032l-0.88295 0.87785z"/><path d="m31.117 83.413h-1.281v0.71453h1.1007v0.29942h-1.1007v1.2198h-0.33685v-2.5332h1.6179z"/><path d="m31.799 85.647h-0.31984v-2.6472h0.31984z"/><path d="m32.776 83.429h-0.36067v-0.33175h0.36067zm-0.02041 2.2184h-0.31984v-1.9003h0.31984z"/><path d="m34.977 85.647h-0.31984v-1.082q0-0.131-0.01531-0.24498-0.01531-0.11569-0.05614-0.18033-0.04253-0.07145-0.12249-0.10548-0.07996-0.03573-0.20755-0.03573-0.131 0-0.2739 0.06465-0.1429 0.06465-0.2739 0.16502v1.4189h-0.31984v-1.9003h0.31984v0.21096q0.14971-0.12419 0.30963-0.19394 0.15992-0.06975 0.32834-0.06975 0.30793 0 0.46955 0.18544 0.16162 0.18544 0.16162 0.5342z"/><path d="m37.318 85.647h-0.42191l-0.76216-0.83192-0.20755 0.19735v0.63457h-0.31984v-2.6472h0.31984v1.6979l0.92378-0.951h0.4032l-0.88295 0.87785z"/></g><text x="94.372704" y="82.974419" fill="#000000" font-family="sans-serif" font-size="3.4842px" stroke-width=".087105" style="line-height:1.25" xml:space="preserve"><tspan x="94.372704" y="82.974419" stroke-width=".087105">Blink</tspan></text><g stroke-width=".087105"><g transform="rotate(21.337)" aria-label="Blink"><path d="m93.395 71.525q0 0.18884-0.07145 0.33345t-0.19224 0.23818q-0.14291 0.11228-0.31473 0.15992-0.17013 0.04763-0.43382 0.04763h-0.89826v-2.5332h0.75026q0.27731 0 0.41511 0.02041t0.2637 0.08506q0.1395 0.07315 0.20245 0.18884 0.06295 0.11398 0.06295 0.2739 0 0.18033-0.09187 0.30793-0.09187 0.12589-0.24498 0.20245v0.01361q0.25689 0.05274 0.4049 0.22627 0.14801 0.17183 0.14801 0.43552zm-0.56652-1.1415q0-0.09187-0.03062-0.15482-0.03062-0.06295-0.09867-0.10208-0.07996-0.04593-0.19394-0.05614-0.11398-0.01191-0.28241-0.01191h-0.4015v0.73154h0.43552q0.15822 0 0.25179-0.01531 0.09357-0.01701 0.17353-0.06805 0.07996-0.05104 0.11228-0.131 0.03402-0.08166 0.03402-0.19224zm0.21606 1.1552q0-0.15311-0.04593-0.24328-0.04593-0.09017-0.16672-0.15311-0.08166-0.04253-0.19905-0.05444-0.11569-0.01361-0.28241-0.01361h-0.5291v0.9425h0.44573q0.22116 0 0.36237-0.02212 0.1412-0.02382 0.23137-0.08506 0.09527-0.06635 0.1395-0.15141 0.04423-0.08506 0.04423-0.21946z"/><path d="m94.171 72.304h-0.31984v-2.6472h0.31984z"/><path d="m95.147 70.085h-0.36067v-0.33174h0.36067zm-0.02041 2.2184h-0.31984v-1.9003h0.31984z"/><path d="m97.349 72.304h-0.31984v-1.082q0-0.131-0.01531-0.24498-0.01531-0.11568-0.05614-0.18033-0.04253-0.07145-0.12249-0.10548-0.07996-0.03573-0.20755-0.03573-0.131 0-0.2739 0.06465t-0.2739 0.16502v1.4189h-0.31984v-1.9003h0.31984v0.21096q0.14971-0.12419 0.30963-0.19394 0.15992-0.06975 0.32834-0.06975 0.30793 0 0.46955 0.18544 0.16162 0.18544 0.16162 0.5342z"/><path d="m99.69 72.304h-0.42191l-0.76216-0.83192-0.20755 0.19735v0.63457h-0.31984v-2.6472h0.31984v1.6979l0.92378-0.951h0.4032l-0.88295 0.87785z"/></g><g transform="rotate(-26.53)" aria-label="Blink"><path d="m4.0812 128.5q0 0.18884-0.071453 0.33345t-0.19224 0.23818q-0.14291 0.11228-0.31473 0.15991-0.17013 0.0476-0.43382 0.0476h-0.89826v-2.5332h0.75026q0.27731 0 0.41511 0.0204t0.2637 0.0851q0.1395 0.0732 0.20245 0.18884 0.062947 0.11399 0.062947 0.2739 0 0.18034-0.091868 0.30793-0.091868 0.1259-0.24498 0.20245v0.0136q0.25689 0.0527 0.4049 0.22627 0.14801 0.17183 0.14801 0.43552zm-0.56652-1.1415q0-0.0919-0.030623-0.15482-0.030623-0.0629-0.098673-0.10207-0.079959-0.0459-0.19394-0.0561-0.11398-0.0119-0.28241-0.0119h-0.4015v0.73154h0.43552q0.15822 0 0.25179-0.0153 0.093569-0.017 0.17353-0.068 0.079959-0.051 0.11228-0.131 0.034025-0.0817 0.034025-0.19224zm0.21606 1.1552q0-0.15311-0.045934-0.24328-0.045934-0.0902-0.16672-0.15311-0.08166-0.0425-0.19905-0.0544-0.11569-0.0136-0.28241-0.0136h-0.52909v0.9425h0.44573q0.22116 0 0.36237-0.0221 0.1412-0.0238 0.23137-0.0851 0.095271-0.0663 0.1395-0.15141 0.044233-0.0851 0.044233-0.21947z"/><path d="m4.857 129.28h-0.31984v-2.6472h0.31984z"/><path d="m5.8335 127.06h-0.36067v-0.33175h0.36067zm-0.020415 2.2184h-0.31984v-1.9003h0.31984z"/><path d="m8.035 129.28h-0.31984v-1.082q0-0.131-0.015311-0.24498-0.015311-0.11569-0.056142-0.18034-0.042531-0.0714-0.12249-0.10547-0.079959-0.0357-0.20755-0.0357-0.131 0-0.2739 0.0647-0.14291 0.0646-0.2739 0.16502v1.4188h-0.31984v-1.9004h0.31984v0.21096q0.14971-0.12419 0.30963-0.19394 0.15992-0.0698 0.32834-0.0698 0.30793 0 0.46955 0.18544t0.16162 0.5342z"/><path d="m10.376 129.28h-0.42191l-0.76216-0.83192-0.20755 0.19735v0.63457h-0.31984v-2.6472h0.31984v1.6979l0.92378-0.95101h0.4032l-0.88295 0.87785z"/></g><g transform="rotate(-17.285)" aria-label="Blink"><path d="m2.6018 107.84q0 0.18884-0.071453 0.33345t-0.19224 0.23818q-0.14291 0.11228-0.31473 0.15991-0.17013 0.0476-0.43382 0.0476h-0.89827v-2.5332h0.75026q0.27731 0 0.41511 0.0204 0.1378 0.0204 0.2637 0.0851 0.1395 0.0732 0.20245 0.18884 0.062947 0.11399 0.062947 0.27391 0 0.18033-0.091868 0.30792-0.091868 0.1259-0.24498 0.20245v0.0136q0.25689 0.0527 0.4049 0.22627 0.14801 0.17183 0.14801 0.43552zm-0.56652-1.1415q0-0.0919-0.030623-0.15482-0.030623-0.0629-0.098673-0.10207-0.079959-0.0459-0.19394-0.0561-0.11398-0.0119-0.28241-0.0119h-0.4015v0.73154h0.43552q0.15822 0 0.25179-0.0153 0.093569-0.017 0.17353-0.068 0.079959-0.051 0.11228-0.131 0.034025-0.0817 0.034025-0.19224zm0.21606 1.1552q0-0.15311-0.045934-0.24328-0.045934-0.0902-0.16672-0.15311-0.08166-0.0425-0.19905-0.0544-0.11569-0.0136-0.28241-0.0136h-0.52909v0.9425h0.44573q0.22116 0 0.36237-0.0221 0.1412-0.0238 0.23137-0.0851 0.09527-0.0663 0.1395-0.15141 0.044233-0.0851 0.044233-0.21947z"/><path d="m3.3776 108.62h-0.31984v-2.6472h0.31984z"/><path d="m4.3541 106.4h-0.36067v-0.33175h0.36067zm-0.020415 2.2184h-0.31984v-1.9003h0.31984z"/><path d="m6.5555 108.62h-0.31984v-1.082q0-0.131-0.015311-0.24498-0.015311-0.11569-0.056142-0.18034-0.042531-0.0714-0.12249-0.10547-0.079959-0.0357-0.20755-0.0357-0.131 0-0.2739 0.0647-0.14291 0.0647-0.2739 0.16502v1.4188h-0.31984v-1.9003h0.31984v0.21096q0.14971-0.12419 0.30963-0.19394 0.15992-0.0698 0.32834-0.0698 0.30793 0 0.46955 0.18544 0.16162 0.18544 0.16162 0.5342z"/><path d="m8.8965 108.62h-0.42191l-0.76216-0.83192-0.20755 0.19735v0.63457h-0.31984v-2.6472h0.31984v1.6979l0.92378-0.95101h0.4032l-0.88295 0.87785z"/></g><g transform="rotate(15.995)" aria-label="Blink"><path d="m63.108 97.477q0 0.18884-0.07145 0.33345t-0.19224 0.23818q-0.14291 0.11228-0.31473 0.15992-0.17013 0.04763-0.43382 0.04763h-0.89826v-2.5332h0.75026q0.2773 0 0.41511 0.02041t0.2637 0.08506q0.1395 0.07315 0.20245 0.18884 0.06295 0.11398 0.06295 0.2739 0 0.18033-0.09187 0.30793-0.09187 0.12589-0.24498 0.20245v0.01361q0.25689 0.05274 0.4049 0.22627 0.14801 0.17183 0.14801 0.43552zm-0.56652-1.1415q0-0.09187-0.03062-0.15482-0.03062-0.06295-0.09867-0.10208-0.07996-0.04593-0.19394-0.05614-0.11398-0.01191-0.28241-0.01191h-0.4015v0.73154h0.43552q0.15822 0 0.25179-0.01531 0.09357-0.01701 0.17353-0.06805 0.07996-0.05104 0.11228-0.131 0.03403-0.08166 0.03403-0.19224zm0.21606 1.1552q0-0.15311-0.04594-0.24328-0.04593-0.09017-0.16672-0.15311-0.08166-0.04253-0.19905-0.05444-0.11569-0.01361-0.28241-0.01361h-0.52909v0.9425h0.44573q0.22116 0 0.36237-0.02212 0.1412-0.02382 0.23137-0.08506 0.09527-0.06635 0.1395-0.15141 0.04423-0.08506 0.04423-0.21946z"/><path d="m63.884 98.256h-0.31984v-2.6472h0.31984z"/><path d="m64.86 96.038h-0.36067v-0.33175h0.36067zm-0.02041 2.2184h-0.31984v-1.9003h0.31984z"/><path d="m67.062 98.256h-0.31984v-1.082q0-0.131-0.01531-0.24498-0.01531-0.11569-0.05614-0.18033-0.04253-0.07145-0.12249-0.10548-0.07996-0.03573-0.20755-0.03573-0.131 0-0.2739 0.06465-0.14291 0.06465-0.2739 0.16502v1.4188h-0.31984v-1.9003h0.31984v0.21096q0.14971-0.12419 0.30963-0.19394 0.15992-0.06975 0.32834-0.06975 0.30793 0 0.46955 0.18544 0.16162 0.18544 0.16162 0.5342z"/><path d="m69.403 98.256h-0.42191l-0.76216-0.83192-0.20755 0.19735v0.63457h-0.31984v-2.6472h0.31984v1.6979l0.92378-0.951h0.4032l-0.88295 0.87785z"/></g></g></g></svg>
