<svg width="93.842mm" height="48.428mm" version="1.1" viewBox="0 0 93.842 48.428" xmlns="http://www.w3.org/2000/svg"><g transform="translate(69.221 -43.821)" stroke-miterlimit="10"><g fill="none"><path d="m-69.221 68.035h93.842" stroke="#000" stroke-width=".14058"/><path d="m-61.4 68.035h0.39412v-3.0027h0.78962v-2.9545h0.79099v-2.8594h0.78962v-2.7175h0.78962v-2.5315h0.78962v-2.3055h0.78962v-2.0423h0.79099v-1.746h0.78962v-1.4208h0.78962v-1.0735h0.78962v-0.71107h0.78962v-0.33211h0.79099v0.04686h0.78962v0.42857h0.78962v0.80202h0.78962v1.1631h0.78962v1.5034h0.79099v1.8231h0.78962v2.1112h0.78962v2.3647h0.78962v2.5824h0.78962v2.7561h0.79099v2.8884h0.78962v2.971h0.78962v3.0069h0.78962v2.9959h0.78962v2.9352h0.79099v2.8291h0.78962v2.6748h0.78962v2.4791h0.78962v2.2421h0.78962v1.9706h0.791v1.6688h0.78962v1.3353h0.78962v0.98392h0.78962v0.61736h0.78962v0.23978h0.79099v-0.14469h0.78962v-0.5209h0.78962v-0.89297h0.78962v-1.2499h0.78962v-1.5875h0.79099v-1.8976h0.78962v-2.1773h0.78962v-2.4226h0.78962v-2.6307h0.78962v-2.7933h0.791v-2.9132h0.78962v-2.9848h0.78962v-3.0083h0.78962v-2.9862h0.78962v-2.9132h0.79099v-2.7933h0.78962v-2.6307h0.78962v-2.4226h0.78962v-2.1787h0.78962v-1.8976h0.791v-1.5875h0.78962v-1.2513h0.78962v-0.89297h0.78962v-0.52228h0.78962v-0.1447h0.79099v0.2384h0.78962v0.61598h0.78962v0.98392h0.78962v1.3353h0.78962v1.6674h0.79099v1.9706h0.78962v2.2421h0.78962v2.4777h0.78962v2.6748h0.78962v2.8277h0.79099v2.9352h0.78962v2.9959h0.78962v3.0069h0.78962v2.9724h0.78962v2.8884h0.79099v2.7561h0.78962v2.5824h0.78962v2.3661h0.78962v2.1112h0.78962v1.8231h0.79099v1.5048h0.78962v1.1644h0.78962v0.80202h0.78962v0.42857h0.78962v0.04823h0.79099v-0.33211h0.78962v-0.70969h0.78962v-1.0735h0.78962v-1.4208h0.78962v-1.7446h0.79099v-2.0409h0.78962v-2.3055h0.78962v-2.5315h0.78962v-2.7161h0.78962v-2.8594h0.791v-2.9545h0.78962v-3.0041h0.39412" stroke="#f00" stroke-width=".42176"/><path d="m-61.4 68.035m0.78962 0v-3.0027m0.78962 3.0027v-5.9573m0.78962 5.9573v-8.8167m0.78962 8.8167v-11.534m0.79099 11.534v-14.066m0.78962 14.066v-16.371m0.78962 16.371v-18.413m0.78962 18.413v-20.159m0.78962 20.159v-21.58m0.79099 21.58v-22.654m0.78962 22.654v-23.365m0.78962 23.365v-23.697m0.78962 23.697v-23.65m0.78962 23.65v-23.221m0.79099 23.221v-22.419m0.78962 22.419v-21.256m0.78962 21.256v-19.753m0.78962 19.753v-17.93m0.78962 17.93v-15.819m0.79099 15.819v-13.454m0.78962 13.454v-10.871m0.78962 10.871v-8.1153m0.78962 8.1153v-5.2269m0.78962 5.2269v-2.2558m0.79099 2.2558v0.75103m0.78962-0.75103v3.7469m0.78962-3.7469v6.6821m0.78962-6.6821v9.5112m0.78962-9.5112v12.186m0.79099-12.186v14.665m0.78962-14.665v16.907m0.78962-16.907v18.878m0.78962-18.878v20.547m0.78962-20.547v21.882m0.79099-21.882v22.866m0.78962-22.866v23.483m0.78962-23.483v23.723m0.78962-23.723v23.578m0.78962-23.578v23.057m0.79099-23.057v22.164m0.78962-22.164v20.914m0.78962-20.914v19.327m0.78962-19.327v17.429m0.78962-17.429v15.252m0.79099-15.252v12.83m0.78962-12.83v10.199m0.78962-10.199v7.4056m0.78962-7.4056v4.4924m0.78962-4.4924v1.5076m0.79099-1.5076v-1.5007m0.78962 1.5007v-4.4869m0.78962 4.4869v-7.4001m0.78962 7.4001v-10.193m0.78962 10.193v-12.824m0.79099 12.824v-15.247m0.78962 15.247v-17.425m0.78962 17.425v-19.323m0.78962 19.323v-20.91m0.78962 20.91v-22.162m0.791 22.162v-23.055m0.78962 23.055v-23.577m0.78962 23.577v-23.722m0.78962 23.722v-23.483m0.78962 23.483v-22.867m0.79099 22.867v-21.883m0.78962 21.883v-20.548m0.78962 20.548v-18.88m0.78962 18.88v-16.91m0.78962 16.91v-14.668m0.79099 14.668v-12.19m0.78962 12.19v-9.5154m0.78962 9.5154v-6.6876m0.78962 6.6876v-3.7524m0.78962 3.7524v-0.75654m0.79099 0.75654v2.2503m0.78962-2.2503v5.2228m0.78962-5.2228v8.1111m0.78962-8.1111v10.867m0.78962-10.867v13.45m0.79099-13.45v15.816m0.78962-15.816v17.927m0.78962-17.927v19.75m0.78962-19.75v21.255m0.78962-21.255v22.419m0.79099-22.419v23.221m0.78962-23.221v23.65m0.78962-23.65v23.698m0.78962-23.698v23.366m0.78962-23.366v22.656m0.79099-22.656v21.583m0.78962-21.583v20.162m0.78962-20.162v18.417m0.78962-18.417v16.377m0.78962-16.377v14.071m0.79099-14.071v11.54m0.78962-11.54v8.8236m0.78962-8.8236v5.9641m0.78962-5.9641v3.0096m0.78962-3.0096v0.0055" stroke="#000" stroke-width=".28117"/><path d="m-61.4 68.035 1.5627-5.8994 1.5641-5.5287 1.5641-4.8121 1.5641-3.791 1.5641-2.5328 1.5641-1.1135 1.5641 0.37345 1.5641 1.8369 1.5641 3.1874 1.5641 4.3339 1.5641 5.2117 1.5641 5.7602 1.5641 5.9462 1.5641 5.7602 1.5641 5.2117 1.5641 4.3353 1.5641 3.186 1.5641 1.8383 1.5627 0.37345 1.5641-1.1121 1.5641-2.5328 1.5641-3.7896 1.5641-4.8107 1.5641-5.5301 3.1281-11.799 1.5641-5.5301 1.5641-4.8121 1.5641-3.791 1.5641-2.5328 1.5641-1.1135 1.5641 0.37207 1.5641 1.8369 1.5641 3.186 1.5641 4.3339 1.5641 5.2117 1.5627 5.7588 1.5641 5.9476 1.5641 5.7602 1.5641 5.2117 1.5641 4.3353 1.5641 3.1874 1.5641 1.8383 1.5641 0.37483 1.5641-1.1135 1.5641-2.5315 1.5641-3.7896 1.5641-4.8107 1.5641-5.5287 1.5641-5.9008" stroke="#000" stroke-dasharray="0.140582, 0.351465" stroke-width=".14058"/></g><g stroke="#000" stroke-width=".28117"><path d="m-61.048 68.035c0-0.1943-0.15847-0.3514-0.3514-0.3514-0.1943 0-0.35278 0.1571-0.35278 0.3514s0.15847 0.3514 0.35278 0.3514c0.19292 0 0.3514-0.1571 0.3514-0.3514z"/><path d="m-60.259 65.032c0-0.1943-0.1571-0.3514-0.3514-0.3514-0.1943 0-0.3514 0.1571-0.3514 0.3514s0.1571 0.3514 0.3514 0.3514c0.1943 0 0.3514-0.1571 0.3514-0.3514z"/><path d="m-59.469 62.078c0-0.1943-0.1571-0.3514-0.3514-0.3514-0.1943 0-0.3514 0.1571-0.3514 0.3514s0.1571 0.3514 0.3514 0.3514c0.1943 0 0.3514-0.1571 0.3514-0.3514z"/><path d="m-58.679 59.218c0-0.1943-0.1571-0.3514-0.3514-0.3514s-0.3514 0.1571-0.3514 0.3514 0.1571 0.3514 0.3514 0.3514 0.3514-0.1571 0.3514-0.3514z"/><path d="m-57.89 56.501c0-0.1943-0.1571-0.3514-0.3514-0.3514s-0.3514 0.1571-0.3514 0.3514c0 0.1943 0.1571 0.3514 0.3514 0.3514s0.3514-0.1571 0.3514-0.3514z"/><path d="m-57.099 53.969c0-0.1943-0.15848-0.3514-0.3514-0.3514-0.1943 0-0.35278 0.1571-0.35278 0.3514 0 0.19431 0.15848 0.3514 0.35278 0.3514 0.19292 0 0.3514-0.1571 0.3514-0.3514z"/><path d="m-56.309 51.664c0-0.1943-0.1571-0.3514-0.3514-0.3514-0.1943 0-0.3514 0.1571-0.3514 0.3514 0 0.1943 0.1571 0.3514 0.3514 0.3514 0.1943 0 0.3514-0.1571 0.3514-0.3514z"/><path d="m-55.52 49.622c0-0.19431-0.1571-0.3514-0.3514-0.3514-0.1943 0-0.3514 0.1571-0.3514 0.3514 0 0.1943 0.1571 0.3514 0.3514 0.3514 0.1943 0 0.3514-0.1571 0.3514-0.3514z"/><path d="m-54.73 47.876c0-0.1943-0.1571-0.3514-0.3514-0.3514-0.1943 0-0.3514 0.1571-0.3514 0.3514s0.1571 0.3514 0.3514 0.3514c0.1943 0 0.3514-0.1571 0.3514-0.3514z"/><path d="m-53.94 46.455c0-0.1943-0.1571-0.3514-0.3514-0.3514-0.1943 0-0.3514 0.1571-0.3514 0.3514 0 0.1943 0.1571 0.3514 0.3514 0.3514 0.1943 0 0.3514-0.1571 0.3514-0.3514z"/><path d="m-53.149 45.381c0-0.1943-0.15848-0.3514-0.3514-0.3514-0.1943 0-0.35278 0.1571-0.35278 0.3514 0 0.19431 0.15848 0.3514 0.35278 0.3514 0.19292 0 0.3514-0.1571 0.3514-0.3514z"/><path d="m-52.36 44.67c0-0.1943-0.1571-0.3514-0.3514-0.3514-0.1943 0-0.3514 0.1571-0.3514 0.3514s0.1571 0.3514 0.3514 0.3514c0.1943 0 0.3514-0.1571 0.3514-0.3514z"/><path d="m-51.57 44.338c0-0.1943-0.1571-0.3514-0.3514-0.3514s-0.3514 0.1571-0.3514 0.3514c0 0.19293 0.1571 0.3514 0.3514 0.3514s0.3514-0.15848 0.3514-0.3514z"/><path d="m-50.781 44.385c0-0.19293-0.1571-0.3514-0.3514-0.3514-0.1943 0-0.3514 0.15848-0.3514 0.3514 0 0.1943 0.1571 0.3514 0.3514 0.3514 0.1943 0 0.3514-0.1571 0.3514-0.3514z"/><path d="m-49.991 44.814c0-0.1943-0.1571-0.3514-0.3514-0.3514-0.1943 0-0.3514 0.1571-0.3514 0.3514s0.1571 0.3514 0.3514 0.3514c0.1943 0 0.3514-0.1571 0.3514-0.3514z"/><path d="m-49.2 45.616c0-0.1943-0.15847-0.35278-0.3514-0.35278-0.1943 0-0.35278 0.15847-0.35278 0.35278 0 0.19292 0.15847 0.3514 0.35278 0.3514 0.19292 0 0.3514-0.15848 0.3514-0.3514z"/><path d="m-48.41 46.779c0-0.1943-0.1571-0.35278-0.3514-0.35278-0.1943 0-0.3514 0.15848-0.3514 0.35278 0 0.19293 0.1571 0.3514 0.3514 0.3514 0.1943 0 0.3514-0.15848 0.3514-0.3514z"/><path d="m-47.621 48.282c0-0.19292-0.1571-0.3514-0.3514-0.3514-0.1943 0-0.3514 0.15847-0.3514 0.3514 0 0.1943 0.1571 0.3514 0.3514 0.3514 0.1943 0 0.3514-0.1571 0.3514-0.3514z"/><path d="m-46.831 50.105c0-0.1943-0.1571-0.3514-0.3514-0.3514-0.1943 0-0.3514 0.1571-0.3514 0.3514s0.1571 0.3514 0.3514 0.3514c0.1943 0 0.3514-0.1571 0.3514-0.3514z"/><path d="m-46.041 52.217c0-0.1943-0.1571-0.3514-0.3514-0.3514s-0.3514 0.1571-0.3514 0.3514c0 0.19431 0.1571 0.3514 0.3514 0.3514s0.3514-0.1571 0.3514-0.3514z"/><path d="m-45.25 54.581c0-0.1943-0.15848-0.3514-0.3514-0.3514-0.1943 0-0.3514 0.1571-0.3514 0.3514s0.1571 0.3514 0.3514 0.3514c0.19292 0 0.3514-0.1571 0.3514-0.3514z"/><path d="m-44.461 57.164c0-0.1943-0.1571-0.3514-0.3514-0.3514-0.1943 0-0.3514 0.1571-0.3514 0.3514s0.1571 0.3514 0.3514 0.3514c0.1943 0 0.3514-0.1571 0.3514-0.3514z"/><path d="m-43.671 59.92c0-0.1943-0.1571-0.3514-0.3514-0.3514-0.1943 0-0.3514 0.1571-0.3514 0.3514 0 0.1943 0.1571 0.3514 0.3514 0.3514 0.1943 0 0.3514-0.1571 0.3514-0.3514z"/><path d="m-42.882 62.808c0-0.1943-0.1571-0.3514-0.3514-0.3514-0.1943 0-0.3514 0.1571-0.3514 0.3514 0 0.1943 0.1571 0.3514 0.3514 0.3514 0.1943 0 0.3514-0.1571 0.3514-0.3514z"/><path d="m-42.092 65.779c0-0.19292-0.1571-0.3514-0.3514-0.3514-0.19292 0-0.3514 0.15847-0.3514 0.3514 0 0.1943 0.15847 0.3514 0.3514 0.3514 0.1943 0 0.3514-0.1571 0.3514-0.3514z"/><path d="m-41.301 68.786c0-0.1943-0.15847-0.3514-0.3514-0.3514-0.1943 0-0.3514 0.1571-0.3514 0.3514s0.1571 0.3514 0.3514 0.3514c0.19293 0 0.3514-0.1571 0.3514-0.3514z"/><path d="m-40.511 71.782c0-0.19293-0.1571-0.3514-0.3514-0.3514s-0.3514 0.15847-0.3514 0.3514c0 0.1943 0.1571 0.3514 0.3514 0.3514s0.3514-0.1571 0.3514-0.3514z"/><path d="m-39.722 74.717c0-0.19292-0.1571-0.3514-0.3514-0.3514-0.1943 0-0.3514 0.15848-0.3514 0.3514 0 0.1943 0.1571 0.35278 0.3514 0.35278 0.1943 0 0.3514-0.15848 0.3514-0.35278z"/><path d="m-38.932 77.546c0-0.1943-0.1571-0.3514-0.3514-0.3514-0.1943 0-0.3514 0.1571-0.3514 0.3514 0 0.1943 0.1571 0.3514 0.3514 0.3514 0.1943 0 0.3514-0.1571 0.3514-0.3514z"/><path d="m-38.143 80.221c0-0.1943-0.1571-0.3514-0.3514-0.3514-0.19292 0-0.3514 0.1571-0.3514 0.3514 0 0.1943 0.15848 0.3514 0.3514 0.3514 0.1943 0 0.3514-0.1571 0.3514-0.3514z"/><path d="m-37.352 82.7c0-0.1943-0.15847-0.3514-0.3514-0.3514-0.1943 0-0.3514 0.1571-0.3514 0.3514 0 0.19292 0.1571 0.3514 0.3514 0.3514 0.19292 0 0.3514-0.15848 0.3514-0.3514z"/><path d="m-36.562 84.942c0-0.19292-0.1571-0.3514-0.3514-0.3514-0.1943 0-0.3514 0.15847-0.3514 0.3514 0 0.1943 0.1571 0.35278 0.3514 0.35278 0.1943 0 0.3514-0.15847 0.3514-0.35278z"/><path d="m-35.772 86.913c0-0.19293-0.1571-0.3514-0.3514-0.3514-0.1943 0-0.3514 0.15847-0.3514 0.3514 0 0.1943 0.1571 0.35278 0.3514 0.35278 0.1943 0 0.3514-0.15847 0.3514-0.35278z"/><path d="m-34.983 88.582c0-0.1943-0.1571-0.3514-0.3514-0.3514-0.1943 0-0.3514 0.1571-0.3514 0.3514s0.1571 0.3514 0.3514 0.3514c0.1943 0 0.3514-0.1571 0.3514-0.3514z"/><path d="m-34.193 89.917c0-0.1943-0.1571-0.3514-0.3514-0.3514-0.19292 0-0.3514 0.1571-0.3514 0.3514 0 0.1943 0.15847 0.3514 0.3514 0.3514 0.1943 0 0.3514-0.1571 0.3514-0.3514z"/><path d="m-33.402 90.901c0-0.1943-0.15848-0.3514-0.3514-0.3514-0.1943 0-0.3514 0.1571-0.3514 0.3514 0 0.1943 0.1571 0.3514 0.3514 0.3514 0.19292 0 0.3514-0.1571 0.3514-0.3514z"/><path d="m-32.612 91.518c0-0.1943-0.1571-0.3514-0.3514-0.3514s-0.3514 0.1571-0.3514 0.3514c0 0.1943 0.1571 0.3514 0.3514 0.3514s0.3514-0.1571 0.3514-0.3514z"/><path d="m-31.823 91.758c0-0.1943-0.1571-0.3514-0.3514-0.3514-0.1943 0-0.3514 0.1571-0.3514 0.3514 0 0.1943 0.1571 0.3514 0.3514 0.3514 0.1943 0 0.3514-0.1571 0.3514-0.3514z"/><path d="m-31.033 91.613c0-0.1943-0.1571-0.3514-0.3514-0.3514-0.1943 0-0.3514 0.1571-0.3514 0.3514s0.1571 0.3514 0.3514 0.3514c0.1943 0 0.3514-0.1571 0.3514-0.3514z"/><path d="m-30.244 91.092c0-0.1943-0.1571-0.3514-0.3514-0.3514-0.19293 0-0.3514 0.1571-0.3514 0.3514 0 0.19292 0.15847 0.3514 0.3514 0.3514 0.1943 0 0.3514-0.15847 0.3514-0.3514z"/><path d="m-29.453 90.199c0-0.1943-0.15847-0.3514-0.3514-0.3514-0.1943 0-0.3514 0.1571-0.3514 0.3514 0 0.1943 0.1571 0.3514 0.3514 0.3514 0.19293 0 0.3514-0.1571 0.3514-0.3514z"/><path d="m-28.663 88.95c0-0.1943-0.1571-0.35278-0.3514-0.35278-0.1943 0-0.3514 0.15847-0.3514 0.35278 0 0.19293 0.1571 0.3514 0.3514 0.3514 0.1943 0 0.3514-0.15847 0.3514-0.3514z"/><path d="m-27.873 87.362c0-0.1943-0.1571-0.3514-0.3514-0.3514-0.1943 0-0.3514 0.1571-0.3514 0.3514 0 0.1943 0.1571 0.3514 0.3514 0.3514 0.1943 0 0.3514-0.1571 0.3514-0.3514z"/><path d="m-27.084 85.464c0-0.1943-0.1571-0.3514-0.3514-0.3514s-0.3514 0.1571-0.3514 0.3514c0 0.1943 0.1571 0.3514 0.3514 0.3514s0.3514-0.1571 0.3514-0.3514z"/><path d="m-26.294 83.287c0-0.1943-0.1571-0.3514-0.3514-0.3514-0.19293 0-0.3514 0.1571-0.3514 0.3514 0 0.1943 0.15847 0.3514 0.3514 0.3514 0.1943 0 0.3514-0.1571 0.3514-0.3514z"/><path d="m-25.503 80.865c0-0.1943-0.15848-0.3514-0.3514-0.3514-0.1943 0-0.3514 0.1571-0.3514 0.3514 0 0.1943 0.1571 0.3514 0.3514 0.3514 0.19292 0 0.3514-0.1571 0.3514-0.3514z"/><path d="m-24.714 78.234c0-0.1943-0.1571-0.3514-0.3514-0.3514s-0.3514 0.1571-0.3514 0.3514c0 0.1943 0.1571 0.3514 0.3514 0.3514s0.3514-0.1571 0.3514-0.3514z"/><path d="m-23.924 75.441c0-0.1943-0.1571-0.3514-0.3514-0.3514s-0.3514 0.1571-0.3514 0.3514 0.1571 0.3514 0.3514 0.3514 0.3514-0.1571 0.3514-0.3514z"/><path d="m-23.134 72.527c0-0.19293-0.1571-0.3514-0.3514-0.3514s-0.3514 0.15847-0.3514 0.3514c0 0.1943 0.1571 0.3514 0.3514 0.3514s0.3514-0.1571 0.3514-0.3514z"/><path d="m-22.345 69.543c0-0.1943-0.1571-0.3514-0.3514-0.3514-0.19292 0-0.3514 0.1571-0.3514 0.3514 0 0.1943 0.15848 0.3514 0.3514 0.3514 0.19431 0 0.3514-0.1571 0.3514-0.3514z"/><path d="m-21.554 66.534c0-0.1943-0.15847-0.3514-0.3514-0.3514-0.1943 0-0.3514 0.1571-0.3514 0.3514 0 0.1943 0.1571 0.3514 0.3514 0.3514 0.19293 0 0.3514-0.1571 0.3514-0.3514z"/><path d="m-20.764 63.548c0-0.1943-0.1571-0.3514-0.3514-0.3514s-0.3514 0.1571-0.3514 0.3514c0 0.1943 0.1571 0.3514 0.3514 0.3514s0.3514-0.1571 0.3514-0.3514z"/><path d="m-19.974 60.635c0-0.19292-0.1571-0.3514-0.3514-0.3514-0.1943 0-0.3514 0.15848-0.3514 0.3514 0 0.1943 0.1571 0.3514 0.3514 0.3514 0.19431 0 0.3514-0.1571 0.3514-0.3514z"/><path d="m-19.185 57.842c0-0.1943-0.1571-0.3514-0.3514-0.3514-0.19431 0-0.3514 0.1571-0.3514 0.3514 0 0.1943 0.1571 0.3514 0.3514 0.3514 0.1943 0 0.3514-0.1571 0.3514-0.3514z"/><path d="m-18.395 55.211c0-0.19293-0.1571-0.3514-0.3514-0.3514-0.19293 0-0.3514 0.15848-0.3514 0.3514 0 0.1943 0.15848 0.3514 0.3514 0.3514 0.1943 0 0.3514-0.1571 0.3514-0.3514z"/><path d="m-17.604 52.788c0-0.1943-0.15848-0.3514-0.3514-0.3514-0.1943 0-0.3514 0.1571-0.3514 0.3514 0 0.19292 0.1571 0.3514 0.3514 0.3514 0.19293 0 0.3514-0.15848 0.3514-0.3514z"/><path d="m-16.815 50.61c0-0.19293-0.1571-0.3514-0.3514-0.3514-0.19431 0-0.3514 0.15848-0.3514 0.3514 0 0.1943 0.1571 0.3514 0.3514 0.3514 0.1943 0 0.3514-0.1571 0.3514-0.3514z"/><path d="m-16.025 48.712c0-0.1943-0.1571-0.3514-0.3514-0.3514s-0.3514 0.1571-0.3514 0.3514 0.1571 0.3514 0.3514 0.3514 0.3514-0.1571 0.3514-0.3514z"/><path d="m-15.235 47.125c0-0.1943-0.1571-0.3514-0.3514-0.3514s-0.3514 0.1571-0.3514 0.3514 0.1571 0.3514 0.3514 0.3514 0.3514-0.1571 0.3514-0.3514z"/><path d="m-14.446 45.873c0-0.19293-0.1571-0.3514-0.3514-0.3514-0.19293 0-0.3514 0.15848-0.3514 0.3514 0 0.1943 0.15847 0.3514 0.3514 0.3514 0.1943 0 0.3514-0.1571 0.3514-0.3514z"/><path d="m-13.655 44.98c0-0.19431-0.15847-0.3514-0.3514-0.3514-0.1943 0-0.3514 0.1571-0.3514 0.3514 0 0.1943 0.1571 0.3514 0.3514 0.3514 0.19292 0 0.3514-0.1571 0.3514-0.3514z"/><path d="m-12.865 44.458c0-0.1943-0.1571-0.3514-0.3514-0.3514s-0.3514 0.1571-0.3514 0.3514 0.1571 0.3514 0.3514 0.3514 0.3514-0.1571 0.3514-0.3514z"/><path d="m-12.076 44.313c0-0.1943-0.1571-0.3514-0.3514-0.3514s-0.3514 0.1571-0.3514 0.3514 0.1571 0.3514 0.3514 0.3514 0.3514-0.1571 0.3514-0.3514z"/><path d="m-11.286 44.552c0-0.1943-0.1571-0.3514-0.3514-0.3514s-0.3514 0.1571-0.3514 0.3514 0.1571 0.3514 0.3514 0.3514 0.3514-0.1571 0.3514-0.3514z"/><path d="m-10.496 45.168c0-0.19431-0.1571-0.3514-0.3514-0.3514-0.19292 0-0.3514 0.1571-0.3514 0.3514 0 0.1943 0.15848 0.3514 0.3514 0.3514 0.1943 0 0.3514-0.1571 0.3514-0.3514z"/><path d="m-9.7053 46.152c0-0.1943-0.15847-0.3514-0.3514-0.3514-0.1943 0-0.3514 0.1571-0.3514 0.3514s0.1571 0.3514 0.3514 0.3514c0.19292 0 0.3514-0.1571 0.3514-0.3514z"/><path d="m-8.9157 47.487c0-0.1943-0.1571-0.3514-0.3514-0.3514-0.1943 0-0.3514 0.1571-0.3514 0.3514 0 0.19431 0.1571 0.3514 0.3514 0.3514 0.1943 0 0.3514-0.1571 0.3514-0.3514z"/><path d="m-8.1261 49.155c0-0.1943-0.1571-0.3514-0.3514-0.3514-0.1943 0-0.3514 0.1571-0.3514 0.3514s0.1571 0.3514 0.3514 0.3514c0.1943 0 0.3514-0.1571 0.3514-0.3514z"/><path d="m-7.3365 51.125c0-0.1943-0.1571-0.3514-0.3514-0.3514s-0.3514 0.1571-0.3514 0.3514c0 0.19431 0.1571 0.3514 0.3514 0.3514s0.3514-0.1571 0.3514-0.3514z"/><path d="m-6.5469 53.367c0-0.1943-0.1571-0.3514-0.3514-0.3514-0.19292 0-0.3514 0.1571-0.3514 0.3514s0.15847 0.3514 0.3514 0.3514c0.19431 0 0.3514-0.1571 0.3514-0.3514z"/><path d="m-5.7559 55.845c0-0.1943-0.1571-0.3514-0.3514-0.3514-0.1943 0-0.3514 0.1571-0.3514 0.3514s0.1571 0.3514 0.3514 0.3514c0.1943 0 0.3514-0.1571 0.3514-0.3514z"/><path d="m-4.9663 58.52c0-0.1943-0.1571-0.3514-0.3514-0.3514-0.1943 0-0.3514 0.1571-0.3514 0.3514 0 0.1943 0.1571 0.3514 0.3514 0.3514 0.1943 0 0.3514-0.1571 0.3514-0.3514z"/><path d="m-4.1766 61.347c0-0.1943-0.1571-0.3514-0.3514-0.3514-0.1943 0-0.3514 0.1571-0.3514 0.3514 0 0.1943 0.1571 0.3514 0.3514 0.3514 0.19431 0 0.3514-0.1571 0.3514-0.3514z"/><path d="m-3.387 64.283c0-0.1943-0.1571-0.3514-0.3514-0.3514-0.19431 0-0.3514 0.1571-0.3514 0.3514s0.1571 0.3514 0.3514 0.3514c0.1943 0 0.3514-0.1571 0.3514-0.3514z"/><path d="m-2.5974 67.278c0-0.1943-0.1571-0.3514-0.3514-0.3514-0.19293 0-0.3514 0.1571-0.3514 0.3514 0 0.1943 0.15847 0.3514 0.3514 0.3514 0.1943 0 0.3514-0.1571 0.3514-0.3514z"/><path d="m-1.8064 70.285c0-0.19292-0.1571-0.3514-0.3514-0.3514-0.1943 0-0.3514 0.15847-0.3514 0.3514 0 0.1943 0.1571 0.3514 0.3514 0.3514 0.19431 0 0.3514-0.1571 0.3514-0.3514z"/><path d="m-1.0168 73.258c0-0.1943-0.1571-0.3514-0.3514-0.3514-0.19431 0-0.3514 0.1571-0.3514 0.3514 0 0.1943 0.1571 0.3514 0.3514 0.3514 0.1943 0 0.3514-0.1571 0.3514-0.3514z"/><path d="m-0.22718 76.146c0-0.1943-0.1571-0.3514-0.3514-0.3514s-0.3514 0.1571-0.3514 0.3514c0 0.19292 0.1571 0.3514 0.3514 0.3514s0.3514-0.15847 0.3514-0.3514z"/><path d="m0.56243 78.902c0-0.1943-0.1571-0.3514-0.3514-0.3514-0.1943 0-0.3514 0.1571-0.3514 0.3514s0.1571 0.3514 0.3514 0.3514c0.1943 0 0.3514-0.1571 0.3514-0.3514z"/><path d="m1.3534 81.485c0-0.1943-0.15847-0.3514-0.35278-0.3514-0.19293 0-0.3514 0.1571-0.3514 0.3514 0 0.1943 0.15847 0.3514 0.3514 0.3514 0.1943 0 0.35278-0.1571 0.35278-0.3514z"/><path d="m2.143 83.851c0-0.1943-0.1571-0.3514-0.3514-0.3514-0.1943 0-0.3514 0.1571-0.3514 0.3514s0.1571 0.3514 0.3514 0.3514c0.1943 0 0.3514-0.1571 0.3514-0.3514z"/><path d="m2.9327 85.962c0-0.19293-0.1571-0.3514-0.3514-0.3514-0.1943 0-0.3514 0.15847-0.3514 0.3514 0 0.1943 0.1571 0.3514 0.3514 0.3514 0.1943 0 0.3514-0.1571 0.3514-0.3514z"/><path d="m3.7223 87.785c0-0.1943-0.1571-0.3514-0.3514-0.3514s-0.3514 0.1571-0.3514 0.3514 0.1571 0.3514 0.3514 0.3514 0.3514-0.1571 0.3514-0.3514z"/><path d="m4.5119 89.29c0-0.1943-0.1571-0.3514-0.3514-0.3514-0.1943 0-0.3514 0.1571-0.3514 0.3514 0 0.1943 0.1571 0.3514 0.3514 0.3514 0.1943 0 0.3514-0.1571 0.3514-0.3514z"/><path d="m5.3029 90.454c0-0.1943-0.15847-0.3514-0.35278-0.3514-0.19292 0-0.3514 0.1571-0.3514 0.3514s0.15847 0.3514 0.3514 0.3514c0.1943 0 0.35278-0.1571 0.35278-0.3514z"/><path d="m6.0925 91.256c0-0.1943-0.1571-0.3514-0.3514-0.3514-0.1943 0-0.3514 0.1571-0.3514 0.3514 0 0.1943 0.1571 0.3514 0.3514 0.3514 0.1943 0 0.3514-0.1571 0.3514-0.3514z"/><path d="m6.8821 91.685c0-0.1943-0.1571-0.3514-0.3514-0.3514-0.1943 0-0.3514 0.1571-0.3514 0.3514s0.1571 0.3514 0.3514 0.3514c0.1943 0 0.3514-0.1571 0.3514-0.3514z"/><path d="m7.6717 91.733c0-0.1943-0.1571-0.3514-0.3514-0.3514s-0.3514 0.1571-0.3514 0.3514c0 0.1943 0.1571 0.3514 0.3514 0.3514s0.3514-0.1571 0.3514-0.3514z"/><path d="m8.4614 91.401c0-0.19292-0.1571-0.3514-0.3514-0.3514-0.1943 0-0.3514 0.15848-0.3514 0.3514 0 0.1943 0.1571 0.3514 0.3514 0.3514 0.1943 0 0.3514-0.1571 0.3514-0.3514z"/><path d="m9.2523 90.691c0-0.1943-0.15847-0.3514-0.35278-0.3514-0.19292 0-0.3514 0.1571-0.3514 0.3514 0 0.1943 0.15847 0.3514 0.3514 0.3514 0.19431 0 0.35278-0.1571 0.35278-0.3514z"/><path d="m10.042 89.618c0-0.1943-0.1571-0.3514-0.3514-0.3514-0.1943 0-0.3514 0.1571-0.3514 0.3514 0 0.1943 0.1571 0.3514 0.3514 0.3514 0.1943 0 0.3514-0.1571 0.3514-0.3514z"/><path d="m10.832 88.197c0-0.19292-0.1571-0.3514-0.3514-0.3514s-0.3514 0.15847-0.3514 0.3514c0 0.1943 0.1571 0.35278 0.3514 0.35278s0.3514-0.15847 0.3514-0.35278z"/><path d="m11.621 86.453c0-0.19292-0.1571-0.3514-0.3514-0.3514-0.1943 0-0.3514 0.15848-0.3514 0.3514 0 0.1943 0.1571 0.35278 0.3514 0.35278 0.19431 0 0.3514-0.15848 0.3514-0.35278z"/><path d="m12.411 84.412c0-0.1943-0.1571-0.3514-0.3514-0.3514-0.19431 0-0.3514 0.1571-0.3514 0.3514 0 0.1943 0.1571 0.3514 0.3514 0.3514 0.1943 0 0.3514-0.1571 0.3514-0.3514z"/><path d="m13.202 82.106c0-0.1943-0.15847-0.3514-0.35278-0.3514-0.19293 0-0.3514 0.1571-0.3514 0.3514 0 0.1943 0.15848 0.3514 0.3514 0.3514 0.1943 0 0.35278-0.1571 0.35278-0.3514z"/><path d="m13.991 79.575c0-0.19293-0.1571-0.3514-0.3514-0.3514-0.1943 0-0.3514 0.15847-0.3514 0.3514 0 0.1943 0.1571 0.35278 0.3514 0.35278 0.19431 0 0.3514-0.15847 0.3514-0.35278z"/><path d="m14.781 76.859c0-0.1943-0.1571-0.3514-0.3514-0.3514-0.19431 0-0.3514 0.1571-0.3514 0.3514 0 0.19293 0.1571 0.3514 0.3514 0.3514 0.1943 0 0.3514-0.15847 0.3514-0.3514z"/><path d="m15.571 73.999c0-0.1943-0.1571-0.3514-0.3514-0.3514s-0.3514 0.1571-0.3514 0.3514c0 0.1943 0.1571 0.3514 0.3514 0.3514s0.3514-0.1571 0.3514-0.3514z"/><path d="m16.36 71.045c0-0.1943-0.1571-0.3514-0.3514-0.3514s-0.3514 0.1571-0.3514 0.3514c0 0.1943 0.1571 0.3514 0.3514 0.3514s0.3514-0.1571 0.3514-0.3514z"/><path d="m17.151 68.041c0-0.1943-0.15848-0.3514-0.35278-0.3514-0.19293 0-0.3514 0.1571-0.3514 0.3514 0 0.1943 0.15847 0.3514 0.3514 0.3514 0.1943 0 0.35278-0.1571 0.35278-0.3514z"/></g></g></svg>
