<svg width="93.842mm" height="48.435mm" version="1.1" viewBox="0 0 93.842 48.435" xmlns="http://www.w3.org/2000/svg"><g transform="translate(28.778 -40.038)" stroke-miterlimit="10"><g fill="none"><path d="m-28.778 64.256h93.842" stroke="#000" stroke-width=".14058"/><path d="m-20.958 64.256h1.5641v-11.453h3.1281v-8.6183h3.1281v-3.6546h3.1281v2.2159h3.1281v7.5365h3.1281v10.994h3.1281v11.73h3.1281v9.5663h3.1268v5.0354h3.1281v-0.74138h3.1281v-6.3362h3.1281v-10.361h3.1281v-11.824h3.1281v-10.361h3.1281v-6.3376h3.1281v-0.74276h3.1281v5.034h3.1281v9.5663h3.1281v11.73h3.1268v10.994h3.1281v7.5379h3.1281v2.2159h3.1281v-3.6518h3.1281v-8.6196h3.1281v-11.451h1.5641" stroke="#f00" stroke-width=".42176"/><path d="m-20.958 64.256m3.1281 0v-11.453m3.1281 11.453v-20.071m3.1281 20.071v-23.726m3.1281 23.726v-21.51m3.1281 21.51v-13.973m3.1281 13.973v-2.9793m3.1281 2.9793v8.7505m3.1281-8.7505v18.317m3.1268-18.317v23.352m3.1281-23.352v22.611m3.1281-22.611v16.275m3.1281-16.275v5.9132m3.1281-5.9132v-5.9104m3.1281 5.9104v-16.272m3.1281 16.272v-22.609m3.1281 22.609v-23.352m3.1281 23.352v-18.318m3.1281 18.318v-8.7519m3.1268 8.7519v2.9779m3.1281-2.9779v13.972m3.1281-13.972v21.51m3.1281-21.51v23.726m3.1281-23.726v20.074m3.1281-20.074v11.454m3.1281-11.454v0.0028" stroke="#000" stroke-width=".28117"/><path d="m-20.958 64.256 1.5641-5.9118 1.5641-5.5397 1.5641-4.8218 1.5641-3.7979 1.5641-2.5383 1.5641-1.1162 1.5641 0.37345 1.5641 1.8411 1.5641 3.1943 1.5641 4.3422 1.5641 5.2228 1.5641 5.7712 1.5641 5.9586 1.5627 5.7726 1.5641 5.2214 1.5641 4.345 1.5641 3.1929 1.5641 1.8424 1.5641 0.37345 1.5641-1.1148 1.5641-2.537 1.5641-3.7993 1.5641-4.8204 1.5641-5.5397 3.1281-11.824 1.5641-5.5411 1.5641-4.8218 1.5641-3.7993 1.5641-2.5383 1.5641-1.1162 1.5627 0.37345 1.5641 1.8411 1.5641 3.1929 1.5641 4.3422 1.5641 5.2214 1.5641 5.7726 1.5641 5.9586 1.5641 5.7712 1.5641 5.2228 1.5641 4.345 1.5641 3.1929 1.5641 1.8424 1.5641 0.37483 1.5641-1.1148 1.5641-2.537 1.5641-3.7965 1.5641-4.8204 1.5641-5.5411 1.5627-5.9118" stroke="#000" stroke-dasharray="0.140582, 0.351465" stroke-width=".14058"/></g><g stroke="#000" stroke-width=".28117"><path d="m-20.606 64.256c0-0.1943-0.1571-0.3514-0.3514-0.3514s-0.3514 0.1571-0.3514 0.3514c0 0.1943 0.1571 0.3514 0.3514 0.3514s0.3514-0.1571 0.3514-0.3514z"/><path d="m-17.478 52.803c0-0.1943-0.1571-0.3514-0.3514-0.3514-0.1943 0-0.3514 0.1571-0.3514 0.3514 0 0.1943 0.1571 0.3514 0.3514 0.3514 0.1943 0 0.3514-0.1571 0.3514-0.3514z"/><path d="m-14.35 44.185c0-0.1943-0.1571-0.3514-0.3514-0.3514-0.1943 0-0.3514 0.1571-0.3514 0.3514 0 0.19431 0.1571 0.3514 0.3514 0.3514 0.1943 0 0.3514-0.1571 0.3514-0.3514z"/><path d="m-11.222 40.53c0-0.1943-0.1571-0.3514-0.3514-0.3514-0.1943 0-0.3514 0.1571-0.3514 0.3514 0 0.1943 0.1571 0.3514 0.3514 0.3514 0.1943 0 0.3514-0.1571 0.3514-0.3514z"/><path d="m-8.0936 42.746c0-0.1943-0.1571-0.3514-0.3514-0.3514s-0.3514 0.1571-0.3514 0.3514c0 0.19292 0.1571 0.3514 0.3514 0.3514s0.3514-0.15848 0.3514-0.3514z"/><path d="m-4.9655 50.283c0-0.1943-0.1571-0.3514-0.3514-0.3514-0.1943 0-0.3514 0.1571-0.3514 0.3514s0.1571 0.3514 0.3514 0.3514c0.1943 0 0.3514-0.1571 0.3514-0.3514z"/><path d="m-1.8373 61.277c0-0.1943-0.1571-0.3514-0.3514-0.3514-0.1943 0-0.3514 0.1571-0.3514 0.3514s0.1571 0.3514 0.3514 0.3514c0.1943 0 0.3514-0.1571 0.3514-0.3514z"/><path d="m1.2908 73.006c0-0.1943-0.15847-0.3514-0.3514-0.3514-0.1943 0-0.3514 0.1571-0.3514 0.3514 0 0.1943 0.1571 0.3514 0.3514 0.3514 0.19293 0 0.3514-0.1571 0.3514-0.3514z"/><path d="m4.419 82.573c0-0.1943-0.15847-0.3514-0.3514-0.3514-0.1943 0-0.35278 0.1571-0.35278 0.3514s0.15847 0.3514 0.35278 0.3514c0.19293 0 0.3514-0.1571 0.3514-0.3514z"/><path d="m7.5457 87.608c0-0.1943-0.1571-0.3514-0.3514-0.3514-0.19293 0-0.3514 0.1571-0.3514 0.3514 0 0.1943 0.15847 0.3514 0.3514 0.3514 0.1943 0 0.3514-0.1571 0.3514-0.3514z"/><path d="m10.674 86.867c0-0.1943-0.1571-0.3514-0.3514-0.3514-0.1943 0-0.3514 0.1571-0.3514 0.3514 0 0.1943 0.1571 0.3514 0.3514 0.3514 0.1943 0 0.3514-0.1571 0.3514-0.3514z"/><path d="m13.802 80.531c0-0.1943-0.1571-0.3514-0.3514-0.3514-0.1943 0-0.3514 0.1571-0.3514 0.3514 0 0.1943 0.1571 0.3514 0.3514 0.3514 0.1943 0 0.3514-0.1571 0.3514-0.3514z"/><path d="m16.93 70.169c0-0.1943-0.1571-0.3514-0.3514-0.3514-0.19431 0-0.3514 0.1571-0.3514 0.3514 0 0.1943 0.1571 0.3514 0.3514 0.3514 0.1943 0 0.3514-0.1571 0.3514-0.3514z"/><path d="m20.058 58.346c0-0.1943-0.1571-0.3514-0.3514-0.3514-0.1943 0-0.3514 0.1571-0.3514 0.3514s0.1571 0.3514 0.3514 0.3514c0.1943 0 0.3514-0.1571 0.3514-0.3514z"/><path d="m23.186 47.984c0-0.19431-0.1571-0.3514-0.3514-0.3514s-0.3514 0.1571-0.3514 0.3514c0 0.19292 0.1571 0.3514 0.3514 0.3514s0.3514-0.15848 0.3514-0.3514z"/><path d="m26.315 41.646c0-0.1943-0.1571-0.3514-0.3514-0.3514s-0.3514 0.1571-0.3514 0.3514 0.1571 0.3514 0.3514 0.3514 0.3514-0.1571 0.3514-0.3514z"/><path d="m29.443 40.904c0-0.1943-0.1571-0.3514-0.3514-0.3514-0.1943 0-0.3514 0.1571-0.3514 0.3514 0 0.19431 0.1571 0.3514 0.3514 0.3514 0.19431 0 0.3514-0.1571 0.3514-0.3514z"/><path d="m32.571 45.938c0-0.19292-0.1571-0.3514-0.3514-0.3514s-0.3514 0.15848-0.3514 0.3514c0 0.19431 0.1571 0.3514 0.3514 0.3514s0.3514-0.1571 0.3514-0.3514z"/><path d="m35.699 55.504c0-0.1943-0.15848-0.3514-0.3514-0.3514-0.1943 0-0.3514 0.1571-0.3514 0.3514 0 0.1943 0.1571 0.3514 0.3514 0.3514 0.19292 0 0.3514-0.1571 0.3514-0.3514z"/><path d="m38.827 67.234c0-0.1943-0.15848-0.3514-0.35278-0.3514-0.19292 0-0.3514 0.1571-0.3514 0.3514 0 0.1943 0.15848 0.3514 0.3514 0.3514 0.1943 0 0.35278-0.1571 0.35278-0.3514z"/><path d="m41.954 78.228c0-0.1943-0.1571-0.3514-0.3514-0.3514-0.19293 0-0.3514 0.1571-0.3514 0.3514 0 0.1943 0.15848 0.3514 0.3514 0.3514 0.1943 0 0.3514-0.1571 0.3514-0.3514z"/><path d="m45.082 85.766c0-0.1943-0.1571-0.3514-0.3514-0.3514-0.19431 0-0.3514 0.1571-0.3514 0.3514 0 0.1943 0.1571 0.3514 0.3514 0.3514 0.1943 0 0.3514-0.1571 0.3514-0.3514z"/><path d="m48.21 87.982c0-0.1943-0.1571-0.3514-0.3514-0.3514s-0.3514 0.1571-0.3514 0.3514c0 0.1943 0.1571 0.3514 0.3514 0.3514s0.3514-0.1571 0.3514-0.3514z"/><path d="m51.338 84.33c0-0.1943-0.1571-0.35278-0.3514-0.35278s-0.3514 0.15847-0.3514 0.35278c0 0.19292 0.1571 0.3514 0.3514 0.3514s0.3514-0.15847 0.3514-0.3514z"/><path d="m54.467 75.71c0-0.1943-0.1571-0.3514-0.3514-0.3514s-0.3514 0.1571-0.3514 0.3514c0 0.1943 0.1571 0.3514 0.3514 0.3514s0.3514-0.1571 0.3514-0.3514z"/><path d="m57.595 64.259c0-0.1943-0.1571-0.3514-0.3514-0.3514-0.19431 0-0.3514 0.1571-0.3514 0.3514 0 0.1943 0.1571 0.3514 0.3514 0.3514 0.1943 0 0.3514-0.1571 0.3514-0.3514z"/></g></g></svg>
