<svg width="108.62mm" height="68.349mm" version="1.1" viewBox="0 0 108.62 68.349" xmlns="http://www.w3.org/2000/svg"><defs><clipPath id="clip1"><path d="m115.19 343h266.01v110h-266.01z"/></clipPath></defs><g transform="translate(-71.18 -87.534)"><g shape-rendering="auto"><path d="m85.185 145.71v-56.938h0.14056v56.938zm18.769 0v-56.938h0.14056v56.938zm18.777 0v-56.938h0.14056v56.938zm18.769 0v-56.938h0.14056v56.938zm18.777 0v-56.938h0.14056v56.938z" color="#000000" color-rendering="auto" dominant-baseline="auto" fill="#bfbfbf" image-rendering="auto" solid-color="#000000" stop-color="#000000" style="font-feature-settings:normal;font-variant-alternates:normal;font-variant-caps:normal;font-variant-east-asian:normal;font-variant-ligatures:normal;font-variant-numeric:normal;font-variant-position:normal;font-variation-settings:normal;inline-size:0;isolation:auto;mix-blend-mode:normal;shape-margin:0;shape-padding:0;text-decoration-color:#000000;text-decoration-line:none;text-decoration-style:solid;text-indent:0;text-orientation:mixed;text-transform:none;white-space:normal"/><path d="m85.255 145.78v-0.14056h93.842v0.14056zm0-14.234v-0.14056h93.842v0.14056zm0-14.235v-0.14056h93.842v0.14056zm0-14.234v-0.14056h93.842v0.14056zm0-14.235v-0.14056h93.842v0.14056z" color="#000000" color-rendering="auto" dominant-baseline="auto" fill="#bfbfbf" image-rendering="auto" solid-color="#000000" stop-color="#000000" style="font-feature-settings:normal;font-variant-alternates:normal;font-variant-caps:normal;font-variant-east-asian:normal;font-variant-ligatures:normal;font-variant-numeric:normal;font-variant-position:normal;font-variation-settings:normal;inline-size:0;isolation:auto;mix-blend-mode:normal;shape-margin:0;shape-padding:0;text-decoration-color:#000000;text-decoration-line:none;text-decoration-style:solid;text-indent:0;text-orientation:mixed;text-transform:none;white-space:normal"/><path d="m85.22 146.46v-1.4993h0.07028v1.4993zm18.769 0v-1.4993h0.0703v1.4993zm18.777 0v-1.4993h0.0703v1.4993zm18.769 0v-1.4993h0.0703v1.4993zm18.777 0v-1.4993h0.0703v1.4993z" color="#000000" color-rendering="auto" dominant-baseline="auto" fill="#7f7f7f" image-rendering="auto" solid-color="#000000" stop-color="#000000" style="font-feature-settings:normal;font-variant-alternates:normal;font-variant-caps:normal;font-variant-east-asian:normal;font-variant-ligatures:normal;font-variant-numeric:normal;font-variant-position:normal;font-variation-settings:normal;inline-size:0;isolation:auto;mix-blend-mode:normal;shape-margin:0;shape-padding:0;text-decoration-color:#000000;text-decoration-line:none;text-decoration-style:solid;text-indent:0;text-orientation:mixed;text-transform:none;white-space:normal"/><path d="m84.506 145.74v-0.0703h1.5007v0.0703zm0-14.234v-0.0703h1.5007v0.0703zm0-14.235v-0.0703h1.5007v0.0703zm0-14.234v-0.0703h1.5007v0.0703zm0-14.235v-0.07028h1.5007v0.07028z" color="#000000" color-rendering="auto" dominant-baseline="auto" fill="#7f7f7f" image-rendering="auto" solid-color="#000000" stop-color="#000000" style="font-feature-settings:normal;font-variant-alternates:normal;font-variant-caps:normal;font-variant-east-asian:normal;font-variant-ligatures:normal;font-variant-numeric:normal;font-variant-position:normal;font-variation-settings:normal;inline-size:0;isolation:auto;mix-blend-mode:normal;shape-margin:0;shape-padding:0;text-decoration-color:#000000;text-decoration-line:none;text-decoration-style:solid;text-indent:0;text-orientation:mixed;text-transform:none;white-space:normal"/><path d="m85.255 145.78v-0.14056h93.139v0.14056z" color="#000000" color-rendering="auto" dominant-baseline="auto" image-rendering="auto" solid-color="#000000" stop-color="#000000" style="font-feature-settings:normal;font-variant-alternates:normal;font-variant-caps:normal;font-variant-east-asian:normal;font-variant-ligatures:normal;font-variant-numeric:normal;font-variant-position:normal;font-variation-settings:normal;inline-size:0;isolation:auto;mix-blend-mode:normal;shape-margin:0;shape-padding:0;text-decoration-color:#000000;text-decoration-line:none;text-decoration-style:solid;text-indent:0;text-orientation:mixed;text-transform:none;white-space:normal"/></g><g><g><path d="m179.1 145.71-1.1245-0.56224 0.42168 0.56224-0.42168 0.56224"/><path d="m85.185 145.71v-56.234h0.14056v56.234z" color="#000000" color-rendering="auto" dominant-baseline="auto" image-rendering="auto" shape-rendering="auto" solid-color="#000000" stop-color="#000000" style="font-feature-settings:normal;font-variant-alternates:normal;font-variant-caps:normal;font-variant-east-asian:normal;font-variant-ligatures:normal;font-variant-numeric:normal;font-variant-position:normal;font-variation-settings:normal;inline-size:0;isolation:auto;mix-blend-mode:normal;shape-margin:0;shape-padding:0;text-decoration-color:#000000;text-decoration-line:none;text-decoration-style:solid;text-indent:0;text-orientation:mixed;text-transform:none;white-space:normal"/><path d="m85.256 88.768-0.56224 1.1259 0.56224-0.42168 0.56224 0.42168"/></g><g transform="matrix(.35278 0 0 .35278 44.619 -23.24)"><g transform="translate(112.7 491.35)"><path d="m2.625-6.875c-1.5469 0-2.3281 1.2344-2.3281 3.6406 0 1.1719 0.20312 2.1719 0.54688 2.6719 0.35938 0.48438 0.90625 0.76562 1.5312 0.76562 1.5 0 2.2656-1.2969 2.2656-3.8594 0-2.1719-0.65625-3.2188-2.0156-3.2188zm-0.1875 0.35938c0.96875 0 1.3594 0.96875 1.3594 3.3594 0 2.125-0.375 3-1.2969 3-0.96875 0-1.375-1-1.375-3.4375 0-2.0938 0.375-2.9219 1.3125-2.9219z"/></g><g transform="translate(159.68 491.35)"><path d="m2.625-6.875c-1.5469 0-2.3281 1.2344-2.3281 3.6406 0 1.1719 0.20312 2.1719 0.54688 2.6719 0.35938 0.48438 0.90625 0.76562 1.5312 0.76562 1.5 0 2.2656-1.2969 2.2656-3.8594 0-2.1719-0.65625-3.2188-2.0156-3.2188zm-0.1875 0.35938c0.96875 0 1.3594 0.96875 1.3594 3.3594 0 2.125-0.375 3-1.2969 3-0.96875 0-1.375-1-1.375-3.4375 0-2.0938 0.375-2.9219 1.3125-2.9219z"/></g><g transform="translate(164.66 491.35)"><path d="m1.2344-1.1094c-0.29688 0-0.5625 0.28125-0.5625 0.57812s0.26562 0.57812 0.54688 0.57812c0.32812 0 0.60938-0.26562 0.60938-0.57812 0-0.29688-0.28125-0.57812-0.59375-0.57812z"/></g><g transform="translate(167.15 491.35)"><path d="m2.625-6.875c-1.5469 0-2.3281 1.2344-2.3281 3.6406 0 1.1719 0.20312 2.1719 0.54688 2.6719 0.35938 0.48438 0.90625 0.76562 1.5312 0.76562 1.5 0 2.2656-1.2969 2.2656-3.8594 0-2.1719-0.65625-3.2188-2.0156-3.2188zm-0.1875 0.35938c0.96875 0 1.3594 0.96875 1.3594 3.3594 0 2.125-0.375 3-1.2969 3-0.96875 0-1.375-1-1.375-3.4375 0-2.0938 0.375-2.9219 1.3125-2.9219z"/></g><g transform="translate(172.13 491.35)"><path d="m0.15625-0.23438v0.26562c1.875-0.03125 1.875-0.03125 2.2188-0.03125 0.35938 0 0.35938 0 2.2969 0.03125-0.03125-0.20312-0.03125-0.3125-0.03125-0.45312 0-0.125 0-0.21875 0.03125-0.45312-1.1562 0.0625-1.6094 0.0625-3.4531 0.10938l1.8125-1.9219c0.96875-1.0312 1.2656-1.5781 1.2656-2.3281 0-1.1406-0.78125-1.8594-2.0469-1.8594-0.71875 0-1.2031 0.20312-1.6875 0.70312l-0.17188 1.3594h0.28125l0.14062-0.46875c0.15625-0.57812 0.51562-0.8125 1.1875-0.8125 0.84375 0 1.4062 0.53125 1.4062 1.375 0 0.75-0.42188 1.4844-1.5469 2.6875z"/></g><g transform="translate(212.9 491.5)"><path d="m2.625-6.875c-1.5469 0-2.3281 1.2344-2.3281 3.6406 0 1.1719 0.20312 2.1719 0.54688 2.6719 0.35938 0.48438 0.90625 0.76562 1.5312 0.76562 1.5 0 2.2656-1.2969 2.2656-3.8594 0-2.1719-0.65625-3.2188-2.0156-3.2188zm-0.1875 0.35938c0.96875 0 1.3594 0.96875 1.3594 3.3594 0 2.125-0.375 3-1.2969 3-0.96875 0-1.375-1-1.375-3.4375 0-2.0938 0.375-2.9219 1.3125-2.9219z"/></g><g transform="translate(217.89 491.5)"><path d="m1.2344-1.1094c-0.29688 0-0.5625 0.28125-0.5625 0.57812s0.26562 0.57812 0.54688 0.57812c0.32812 0 0.60938-0.26562 0.60938-0.57812 0-0.29688-0.28125-0.57812-0.59375-0.57812z"/></g><g transform="translate(220.38 491.5)"><path d="m2.625-6.875c-1.5469 0-2.3281 1.2344-2.3281 3.6406 0 1.1719 0.20312 2.1719 0.54688 2.6719 0.35938 0.48438 0.90625 0.76562 1.5312 0.76562 1.5 0 2.2656-1.2969 2.2656-3.8594 0-2.1719-0.65625-3.2188-2.0156-3.2188zm-0.1875 0.35938c0.96875 0 1.3594 0.96875 1.3594 3.3594 0 2.125-0.375 3-1.2969 3-0.96875 0-1.375-1-1.375-3.4375 0-2.0938 0.375-2.9219 1.3125-2.9219z"/></g><g transform="translate(225.36 491.5)"><path d="m2.7969-1.7969v0.73438c0 0.60938-0.10938 0.75-0.60938 0.76562l-0.60938 0.03125v0.29688c1.3281-0.03125 1.3281-0.03125 1.5625-0.03125s0.23438 0 1.5625 0.03125v-0.29688l-0.46875-0.03125c-0.5-0.03125-0.60938-0.15625-0.60938-0.76562v-0.73438c0.59375 0 0.79688 0 1.0781 0.03125v-0.70312c-0.46875 0.03125-0.65625 0.03125-0.8125 0.03125h-0.26562v-1.3906c0-1.7812 0.03125-2.625 0.078125-3.0469l-0.125-0.046875-0.73438 0.26562-2.8281 4.625 0.10938 0.23438zm0-0.64062h-2.1562l2.1562-3.5156z"/></g><g transform="translate(266.1 491.35)"><path d="m2.625-6.875c-1.5469 0-2.3281 1.2344-2.3281 3.6406 0 1.1719 0.20312 2.1719 0.54688 2.6719 0.35938 0.48438 0.90625 0.76562 1.5312 0.76562 1.5 0 2.2656-1.2969 2.2656-3.8594 0-2.1719-0.65625-3.2188-2.0156-3.2188zm-0.1875 0.35938c0.96875 0 1.3594 0.96875 1.3594 3.3594 0 2.125-0.375 3-1.2969 3-0.96875 0-1.375-1-1.375-3.4375 0-2.0938 0.375-2.9219 1.3125-2.9219z"/></g><g transform="translate(271.09 491.35)"><path d="m1.2344-1.1094c-0.29688 0-0.5625 0.28125-0.5625 0.57812s0.26562 0.57812 0.54688 0.57812c0.32812 0 0.60938-0.26562 0.60938-0.57812 0-0.29688-0.28125-0.57812-0.59375-0.57812z"/></g><g transform="translate(273.58 491.35)"><path d="m2.625-6.875c-1.5469 0-2.3281 1.2344-2.3281 3.6406 0 1.1719 0.20312 2.1719 0.54688 2.6719 0.35938 0.48438 0.90625 0.76562 1.5312 0.76562 1.5 0 2.2656-1.2969 2.2656-3.8594 0-2.1719-0.65625-3.2188-2.0156-3.2188zm-0.1875 0.35938c0.96875 0 1.3594 0.96875 1.3594 3.3594 0 2.125-0.375 3-1.2969 3-0.96875 0-1.375-1-1.375-3.4375 0-2.0938 0.375-2.9219 1.3125-2.9219z"/></g><g transform="translate(278.56 491.35)"><path d="m4.1406-6.7031-0.35938-0.17188c-0.95312 0.32812-1.375 0.53125-1.875 0.96875-1.0312 0.85938-1.5938 2.0781-1.5938 3.4375 0 1.6562 0.79688 2.6719 2.0938 2.6719s2.2656-1.0312 2.2656-2.3906c0-1.1406-0.6875-1.8906-1.75-1.8906-0.5 0-0.79688 0.125-1.3906 0.59375-0.10938 0.09375-0.10938 0.10938-0.21875 0.1875 0.20312-1.8125 1.0469-2.7812 2.8281-3.3281zm-1.5938 3.2188c0.75 0 1.2656 0.65625 1.2656 1.6562 0 1.0312-0.51562 1.7031-1.2812 1.7031-0.84375 0-1.3125-0.73438-1.3125-2.0625 0-0.35938 0.046875-0.54688 0.15625-0.71875 0.21875-0.32812 0.6875-0.57812 1.1719-0.57812z"/></g><g transform="translate(319.33 491.35)"><path d="m2.625-6.875c-1.5469 0-2.3281 1.2344-2.3281 3.6406 0 1.1719 0.20312 2.1719 0.54688 2.6719 0.35938 0.48438 0.90625 0.76562 1.5312 0.76562 1.5 0 2.2656-1.2969 2.2656-3.8594 0-2.1719-0.65625-3.2188-2.0156-3.2188zm-0.1875 0.35938c0.96875 0 1.3594 0.96875 1.3594 3.3594 0 2.125-0.375 3-1.2969 3-0.96875 0-1.375-1-1.375-3.4375 0-2.0938 0.375-2.9219 1.3125-2.9219z"/></g><g transform="translate(324.31 491.35)"><path d="m1.2344-1.1094c-0.29688 0-0.5625 0.28125-0.5625 0.57812s0.26562 0.57812 0.54688 0.57812c0.32812 0 0.60938-0.26562 0.60938-0.57812 0-0.29688-0.28125-0.57812-0.59375-0.57812z"/></g><g transform="translate(326.8 491.35)"><path d="m2.625-6.875c-1.5469 0-2.3281 1.2344-2.3281 3.6406 0 1.1719 0.20312 2.1719 0.54688 2.6719 0.35938 0.48438 0.90625 0.76562 1.5312 0.76562 1.5 0 2.2656-1.2969 2.2656-3.8594 0-2.1719-0.65625-3.2188-2.0156-3.2188zm-0.1875 0.35938c0.96875 0 1.3594 0.96875 1.3594 3.3594 0 2.125-0.375 3-1.2969 3-0.96875 0-1.375-1-1.375-3.4375 0-2.0938 0.375-2.9219 1.3125-2.9219z"/></g><g transform="translate(331.78 491.35)"><path d="m1.6719-3.4375c-0.40625 0.1875-0.57812 0.29688-0.79688 0.5-0.375 0.39062-0.57812 0.82812-0.57812 1.3594 0 1.0156 0.82812 1.7812 1.9531 1.7812 1.2969 0 2.375-1.0156 2.375-2.25 0-0.79688-0.375-1.2344-1.5-1.75 0.90625-0.625 1.2188-1.0312 1.2188-1.6406 0-0.85938-0.70312-1.4375-1.7656-1.4375-1.1875 0-2.0469 0.76562-2.0469 1.8125 0 0.67188 0.26562 1.0625 1.1406 1.625zm1.1562 0.5c0.625 0.28125 1.0156 0.76562 1.0156 1.2969 0 0.84375-0.64062 1.5-1.4375 1.5-0.84375 0-1.4062-0.59375-1.4062-1.5312 0-0.71875 0.29688-1.1719 1.0312-1.625zm-0.60938-1.2812c-0.625-0.3125-0.9375-0.70312-0.9375-1.2031 0-0.65625 0.46875-1.1094 1.1875-1.1094s1.2031 0.48438 1.2031 1.2031c0 0.57812-0.25 0.96875-0.90625 1.375z"/></g><g transform="translate(96.372 481.88)"><path d="m6.8438-2.3906c0.17188 0 0.35938 0 0.35938-0.20312s-0.1875-0.20312-0.35938-0.20312h-5.625c-0.17188 0-0.35938 0-0.35938 0.20312s0.1875 0.20312 0.35938 0.20312z"/></g><g transform="translate(104.57 481.88)"><path d="m0.15625-0.23438v0.26562c1.875-0.03125 1.875-0.03125 2.2188-0.03125 0.35938 0 0.35938 0 2.2969 0.03125-0.03125-0.20312-0.03125-0.3125-0.03125-0.45312 0-0.125 0-0.21875 0.03125-0.45312-1.1562 0.0625-1.6094 0.0625-3.4531 0.10938l1.8125-1.9219c0.96875-1.0312 1.2656-1.5781 1.2656-2.3281 0-1.1406-0.78125-1.8594-2.0469-1.8594-0.71875 0-1.2031 0.20312-1.6875 0.70312l-0.17188 1.3594h0.28125l0.14062-0.46875c0.15625-0.57812 0.51562-0.8125 1.1875-0.8125 0.84375 0 1.4062 0.53125 1.4062 1.375 0 0.75-0.42188 1.4844-1.5469 2.6875z"/></g><g transform="translate(96.372 441.6)"><path d="m6.8438-2.3906c0.17188 0 0.35938 0 0.35938-0.20312s-0.1875-0.20312-0.35938-0.20312h-5.625c-0.17188 0-0.35938 0-0.35938 0.20312s0.1875 0.20312 0.35938 0.20312z"/></g><g transform="translate(104.57 441.6)"><path d="m0.67188-5.5312h0.09375l1.2812-0.57812c0.015625-0.015625 0.03125-0.015625 0.03125-0.015625 0.0625 0 0.078125 0.09375 0.078125 0.32812v4.8438c0 0.51562-0.10938 0.625-0.64062 0.65625l-0.5625 0.03125v0.29688c1.5469-0.03125 1.5469-0.03125 1.6562-0.03125 0.125 0 0.34375 0 0.6875 0.015625 0.10938 0 0.46875 0 0.875 0.015625v-0.29688l-0.51562-0.03125c-0.5625-0.03125-0.65625-0.14062-0.65625-0.65625v-5.9219l-0.14062-0.046875c-0.64062 0.34375-1.3594 0.64062-2.2656 0.95312z"/></g><g transform="translate(104.57 401.53)"><path d="m2.625-6.875c-1.5469 0-2.3281 1.2344-2.3281 3.6406 0 1.1719 0.20312 2.1719 0.54688 2.6719 0.35938 0.48438 0.90625 0.76562 1.5312 0.76562 1.5 0 2.2656-1.2969 2.2656-3.8594 0-2.1719-0.65625-3.2188-2.0156-3.2188zm-0.1875 0.35938c0.96875 0 1.3594 0.96875 1.3594 3.3594 0 2.125-0.375 3-1.2969 3-0.96875 0-1.375-1-1.375-3.4375 0-2.0938 0.375-2.9219 1.3125-2.9219z"/></g><g transform="translate(104.57 361.3)"><path d="m0.67188-5.5312h0.09375l1.2812-0.57812c0.015625-0.015625 0.03125-0.015625 0.03125-0.015625 0.0625 0 0.078125 0.09375 0.078125 0.32812v4.8438c0 0.51562-0.10938 0.625-0.64062 0.65625l-0.5625 0.03125v0.29688c1.5469-0.03125 1.5469-0.03125 1.6562-0.03125 0.125 0 0.34375 0 0.6875 0.015625 0.10938 0 0.46875 0 0.875 0.015625v-0.29688l-0.51562-0.03125c-0.5625-0.03125-0.65625-0.14062-0.65625-0.65625v-5.9219l-0.14062-0.046875c-0.64062 0.34375-1.3594 0.64062-2.2656 0.95312z"/></g><g transform="translate(104.57 320.88)"><path d="m0.15625-0.23438v0.26562c1.875-0.03125 1.875-0.03125 2.2188-0.03125 0.35938 0 0.35938 0 2.2969 0.03125-0.03125-0.20312-0.03125-0.3125-0.03125-0.45312 0-0.125 0-0.21875 0.03125-0.45312-1.1562 0.0625-1.6094 0.0625-3.4531 0.10938l1.8125-1.9219c0.96875-1.0312 1.2656-1.5781 1.2656-2.3281 0-1.1406-0.78125-1.8594-2.0469-1.8594-0.71875 0-1.2031 0.20312-1.6875 0.70312l-0.17188 1.3594h0.28125l0.14062-0.46875c0.15625-0.57812 0.51562-0.8125 1.1875-0.8125 0.84375 0 1.4062 0.53125 1.4062 1.375 0 0.75-0.42188 1.4844-1.5469 2.6875z"/></g></g></g><g shape-rendering="auto"><g transform="matrix(.35278 0 0 .35278 44.619 -23.24)" clip-path="url(#clip1)"><path transform="matrix(1 0 0 -1 115.19 478.9)" d="m223.12 40.027-2.9355 0.01367-2.8691 1.5625-2.7715 2.9512-2.7266 4.2168-2.7031 5.3418-2.6973 6.2773-2.6934 6.9941-2.6894 7.4629-2.6875 7.6621-2.6836 7.5859-2.6836 7.2363-2.6797 6.6172-2.6738 5.7598-2.6602 4.6836-2.627 3.4316-2.5566 2.0488-2.457 0.6582-2.457-0.67578-2.5566-2.0684-2.6289-3.4492-2.6621-4.6992-2.6738-5.7754-2.6797-6.625-2.6797-7.2441-2.6855-7.5859-2.6895-7.6621-2.6894-7.459-2.6894-6.9863-2.6973-6.2695-2.707-5.3242-2.7266-4.2012-2.7734-2.9297-2.8652-1.543-2.9394 0.0078-2.8672 1.5547-2.7734 2.9473-2.7266 4.2168-2.7031 5.334-2.6973 6.2734-2.6934 6.9941-2.6894 7.459-2.6836 7.6621-2.6875 7.5898-2.6836 7.2363-2.6797 6.6172-2.6738 5.7637-2.6562 4.6914-2.6309 3.4356-2.5586 2.0527-2.4551 0.66211-2.457-0.67187-2.5566-2.0606-2.6289-3.4453-2.6621-4.6992-2.6738-5.7715-2.6758-6.6211-2.6836-7.2402-2.6855-7.5898-2.6895-7.6621-2.6895-7.459-2.6895-6.9863-2.6973-6.2695-2.7051-5.332-2.7266-4.2031-2.7715-2.9395-2.8691-1.543h-2.9375l-2.8691 1.5508-2.7734 2.9434-2.7227 4.209-2.707 5.334-2.6973 6.2695-2.6934 6.9902-2.6895 7.4629-2.6836 7.6621-2.6875 7.5859-2.6836 7.2402-2.6797 6.6211-2.6699 5.7676-2.6602 4.6914-2.6309 3.4395-2.5586 2.0586-2.5879 0.70314 0.26172 0.96093 2.7871-0.75782 2.8164-2.2637 2.7441-3.5898 2.7148-4.7852 2.6973-5.8281 2.6953-6.6582 2.6914-7.2598 2.6895-7.5938 2.6836-7.6602 2.6836-7.4492 2.6816-6.9629 2.6777-6.2227 2.6699-5.2598 2.6445-4.0879 2.6016-2.7598 2.5059-1.3555h2.4355l2.5059 1.3477 2.5977 2.7559 2.6484 4.084 2.668 5.2559 2.6777 6.2227 2.6777 6.959 2.6855 7.4453 2.6875 7.6602 2.6875 7.5977 2.6914 7.2598 2.6914 6.6582 2.7012 5.8301 2.7148 4.7949 2.7441 3.5938 2.8125 2.2676 2.918 0.79688 2.918-0.78516 2.8164-2.2598 2.7441-3.5859 2.7109-4.7852 2.7012-5.8242 2.6953-6.6543 2.6914-7.2559 2.6894-7.5977 2.6836-7.6602 2.6836-7.4453 2.6816-6.9668 2.6777-6.2266 2.666-5.2598 2.6484-4.0957 2.6016-2.7656 2.5059-1.3574 2.4355-0.0078 2.502 1.3477 2.6016 2.748 2.6484 4.0801 2.668 5.248 2.6777 6.2227 2.6777 6.959 2.6855 7.4453 2.6875 7.6602 2.6875 7.5938 2.6875 7.2637 2.6953 6.6621 2.7012 5.834 2.7148 4.7949 2.7441 3.5977 2.8106 2.2754 2.918 0.80078 2.9199-0.78125 2.8164-2.2559 2.7402-3.582 2.7148-4.7773 2.7012-5.8203 2.6953-6.6543 2.6914-7.2559 2.6856-7.5938 2.6856-7.6602 2.6855-7.4492 2.6816-6.9668 2.6777-6.2305 2.666-5.2676 2.6484-4.0957 2.6016-2.7695 2.5078-1.3652 2.4316-0.01172 2.5039 1.3438 2.6016 2.7441 2.6484 4.0762 2.668 5.248 2.6738 6.2148 2.6816 6.959 2.6856 7.4414 2.6875 7.6602 2.6875 7.5977 2.6875 7.2637 2.6953 6.666 2.7012 5.834 2.7148 4.8008 2.7402 3.6035 2.8144 2.2793 2.7871 0.76953 0.26563-0.96093-2.5879-0.71485-2.5586-2.0723-2.627-3.4531-2.6621-4.707-2.6738-5.7754-2.6797-6.6289-2.6797-7.2441-2.6856-7.5898-2.6894-7.6621-2.6895-7.4551-2.6934-6.9863-2.6934-6.2617-2.707-5.3242-2.7266-4.1973-2.7734-2.9258z" color="#000000" color-rendering="auto" dominant-baseline="auto" fill="#00f" image-rendering="auto" solid-color="#000000" stop-color="#000000" style="font-feature-settings:normal;font-variant-alternates:normal;font-variant-caps:normal;font-variant-east-asian:normal;font-variant-ligatures:normal;font-variant-numeric:normal;font-variant-position:normal;font-variation-settings:normal;inline-size:0;isolation:auto;mix-blend-mode:normal;shape-margin:0;shape-padding:0;text-decoration-color:#000000;text-decoration-line:none;text-decoration-style:solid;text-indent:0;text-orientation:mixed;text-transform:none;white-space:normal"/><path transform="matrix(1 0 0 -1 115.19 478.9)" d="m44.334 39.316-44.771 81.49 0.87305 0.48047 43.898-79.9 44.332 80.695 44.332-80.695 44.332 80.695 44.332-80.695 43.896 79.9 0.87305-0.48047-44.77-81.49-44.332 80.695-44.332-80.695-44.332 80.695z" color="#000000" color-rendering="auto" dominant-baseline="auto" fill="#f00" image-rendering="auto" solid-color="#000000" stop-color="#000000" style="font-feature-settings:normal;font-variant-alternates:normal;font-variant-caps:normal;font-variant-east-asian:normal;font-variant-ligatures:normal;font-variant-numeric:normal;font-variant-position:normal;font-variation-settings:normal;inline-size:0;isolation:auto;mix-blend-mode:normal;shape-margin:0;shape-padding:0;text-decoration-color:#000000;text-decoration-line:none;text-decoration-style:solid;text-indent:0;text-orientation:mixed;text-transform:none;white-space:normal"/></g><g fill="#f00"><path d="m85.08 103.71v-0.5271h-0.5271v-0.3514h0.5271v-0.5271h0.3514v0.5271h0.52848v0.3514h-0.52848v0.5271z" color="#000000" color-rendering="auto" dominant-baseline="auto" image-rendering="auto" solid-color="#000000" stop-color="#000000" style="font-feature-settings:normal;font-variant-alternates:normal;font-variant-caps:normal;font-variant-east-asian:normal;font-variant-ligatures:normal;font-variant-numeric:normal;font-variant-position:normal;font-variation-settings:normal;inline-size:0;isolation:auto;mix-blend-mode:normal;shape-margin:0;shape-padding:0;text-decoration-color:#000000;text-decoration-line:none;text-decoration-style:solid;text-indent:0;text-orientation:mixed;text-transform:none;white-space:normal"/><path d="m100.72 132.17v-0.5271h-0.52848v-0.3514h0.52848v-0.5271h0.3514v0.5271h0.5271v0.3514h-0.5271v0.5271z" color="#000000" color-rendering="auto" dominant-baseline="auto" image-rendering="auto" solid-color="#000000" stop-color="#000000" style="font-feature-settings:normal;font-variant-alternates:normal;font-variant-caps:normal;font-variant-east-asian:normal;font-variant-ligatures:normal;font-variant-numeric:normal;font-variant-position:normal;font-variation-settings:normal;inline-size:0;isolation:auto;mix-blend-mode:normal;shape-margin:0;shape-padding:0;text-decoration-color:#000000;text-decoration-line:none;text-decoration-style:solid;text-indent:0;text-orientation:mixed;text-transform:none;white-space:normal"/><path d="m116.36 103.71v-0.5271h-0.5271v-0.3514h0.5271v-0.5271h0.3514v0.5271h0.5271v0.3514h-0.5271v0.5271z" color="#000000" color-rendering="auto" dominant-baseline="auto" image-rendering="auto" solid-color="#000000" stop-color="#000000" style="font-feature-settings:normal;font-variant-alternates:normal;font-variant-caps:normal;font-variant-east-asian:normal;font-variant-ligatures:normal;font-variant-numeric:normal;font-variant-position:normal;font-variation-settings:normal;inline-size:0;isolation:auto;mix-blend-mode:normal;shape-margin:0;shape-padding:0;text-decoration-color:#000000;text-decoration-line:none;text-decoration-style:solid;text-indent:0;text-orientation:mixed;text-transform:none;white-space:normal"/><path d="m132 132.17v-0.5271h-0.5271v-0.3514h0.5271v-0.5271h0.35139v0.5271h0.5271v0.3514h-0.5271v0.5271z" color="#000000" color-rendering="auto" dominant-baseline="auto" image-rendering="auto" solid-color="#000000" stop-color="#000000" style="font-feature-settings:normal;font-variant-alternates:normal;font-variant-caps:normal;font-variant-east-asian:normal;font-variant-ligatures:normal;font-variant-numeric:normal;font-variant-position:normal;font-variation-settings:normal;inline-size:0;isolation:auto;mix-blend-mode:normal;shape-margin:0;shape-padding:0;text-decoration-color:#000000;text-decoration-line:none;text-decoration-style:solid;text-indent:0;text-orientation:mixed;text-transform:none;white-space:normal"/><path d="m147.64 103.71v-0.5271h-0.5271v-0.3514h0.5271v-0.5271h0.3514v0.5271h0.5271v0.3514h-0.5271v0.5271z" color="#000000" color-rendering="auto" dominant-baseline="auto" image-rendering="auto" solid-color="#000000" stop-color="#000000" style="font-feature-settings:normal;font-variant-alternates:normal;font-variant-caps:normal;font-variant-east-asian:normal;font-variant-ligatures:normal;font-variant-numeric:normal;font-variant-position:normal;font-variation-settings:normal;inline-size:0;isolation:auto;mix-blend-mode:normal;shape-margin:0;shape-padding:0;text-decoration-color:#000000;text-decoration-line:none;text-decoration-style:solid;text-indent:0;text-orientation:mixed;text-transform:none;white-space:normal"/><path d="m163.28 132.17v-0.5271h-0.5271v-0.3514h0.5271v-0.5271h0.3514v0.5271h0.5271v0.3514h-0.5271v0.5271z" color="#000000" color-rendering="auto" dominant-baseline="auto" image-rendering="auto" solid-color="#000000" stop-color="#000000" style="font-feature-settings:normal;font-variant-alternates:normal;font-variant-caps:normal;font-variant-east-asian:normal;font-variant-ligatures:normal;font-variant-numeric:normal;font-variant-position:normal;font-variation-settings:normal;inline-size:0;isolation:auto;mix-blend-mode:normal;shape-margin:0;shape-padding:0;text-decoration-color:#000000;text-decoration-line:none;text-decoration-style:solid;text-indent:0;text-orientation:mixed;text-transform:none;white-space:normal"/><path d="m178.92 103.71v-0.5271h-0.5271v-0.3514h0.5271v-0.5271h0.3514v0.5271h0.5271v0.3514h-0.5271v0.5271z" color="#000000" color-rendering="auto" dominant-baseline="auto" image-rendering="auto" solid-color="#000000" stop-color="#000000" style="font-feature-settings:normal;font-variant-alternates:normal;font-variant-caps:normal;font-variant-east-asian:normal;font-variant-ligatures:normal;font-variant-numeric:normal;font-variant-position:normal;font-variation-settings:normal;inline-size:0;isolation:auto;mix-blend-mode:normal;shape-margin:0;shape-padding:0;text-decoration-color:#000000;text-decoration-line:none;text-decoration-style:solid;text-indent:0;text-orientation:mixed;text-transform:none;white-space:normal"/></g></g><g transform="matrix(.35278 0 0 .35278 44.619 -23.24)"><g transform="translate(230.55 505.16)"><path d="m0.98438-3.8125v2.875c0 0.73438 0.32812 1.0625 1.0938 1.0625 0.21875 0 0.46875-0.0625 0.53125-0.125l0.46875-0.53125-0.125-0.17188c-0.25 0.14062-0.40625 0.1875-0.59375 0.1875-0.39062 0-0.54688-0.1875-0.54688-0.6875v-2.6094h1.2812l0.09375-0.53125-1.375 0.0625v-0.39062c0-0.40625 0.03125-0.76562 0.10938-1.4062l-0.125-0.10938c-0.23438 0.14062-0.53125 0.28125-0.84375 0.375 0.03125 0.29688 0.046875 0.48438 0.046875 0.78125v0.70312l-0.78125 0.34375v0.21875z"/></g><g transform="translate(233.8 505.16)"><path d="m1.875-4.6406-0.09375-0.03125c-0.5 0.20312-1.0312 0.34375-1.5469 0.40625v0.28125h0.35938c0.40625 0 0.4375 0.0625 0.4375 0.71875v2.25c0 0.625-0.03125 0.70312-0.35938 0.71875l-0.46875 0.03125v0.29688c1-0.03125 1-0.03125 1.25-0.03125s0.25 0 1.25 0.03125v-0.29688l-0.45312-0.03125c-0.34375-0.015625-0.375-0.09375-0.375-0.71875zm-0.45312-2.2031c-0.3125 0-0.5625 0.25-0.5625 0.54688s0.25 0.5625 0.54688 0.5625c0.28125 0 0.5625-0.26562 0.5625-0.5625 0-0.26562-0.28125-0.54688-0.54688-0.54688z"/></g><g transform="translate(236.7 505.16)"><path d="m0.17188-3.9844h0.375c0.40625 0 0.4375 0.0625 0.4375 0.71875v2.25c0 0.625-0.03125 0.70312-0.35938 0.71875l-0.46875 0.03125v0.29688c0.95312-0.03125 0.98438-0.03125 1.2656-0.03125s0.54688 0.015625 1.1875 0.03125v-0.29688l-0.42188-0.03125c-0.32812-0.015625-0.35938-0.09375-0.35938-0.71875v-2.1094c0-0.45312 0.65625-0.9375 1.25-0.9375 0.54688 0 0.90625 0.5 0.90625 1.2656v1.7812c0 0.625-0.03125 0.70312-0.35938 0.71875l-0.46875 0.03125v0.29688c1-0.03125 1-0.03125 1.25-0.03125s0.25 0 1.25 0.03125v-0.29688l-0.46875-0.03125c-0.32812-0.015625-0.35938-0.09375-0.35938-0.71875v-2.1094c0-0.45312 0.65625-0.9375 1.25-0.9375 0.54688 0 0.90625 0.5 0.90625 1.2656v2.8281c0.60938-0.03125 0.625-0.03125 0.79688-0.03125 0.125 0 0.125 0 0.875 0.03125v-0.29688l-0.46875-0.03125c-0.32812-0.015625-0.35938-0.09375-0.35938-0.71875v-2.0625c0-0.98438-0.57812-1.5938-1.5-1.5938-0.34375 0-0.64062 0.09375-0.8125 0.25l-0.76562 0.67188c-0.3125-0.65625-0.71875-0.92188-1.4062-0.92188-0.375 0-0.65625 0.09375-0.82812 0.25l-0.6875 0.64062v-0.85938l-0.09375-0.03125c-0.51562 0.20312-1.0312 0.34375-1.5625 0.40625z"/></g><g transform="translate(245.49 505.16)"><path d="m4.3594-0.70312-0.125-0.09375c-0.64062 0.375-0.875 0.46875-1.2969 0.46875-0.65625 0-1.1875-0.29688-1.4688-0.78125-0.1875-0.32812-0.26562-0.60938-0.28125-1.1875h1.4531c0.6875 0 1.125-0.03125 1.8125-0.14062 0-0.14062 0.015625-0.21875 0.015625-0.34375 0-1.1406-0.73438-1.8906-1.8594-1.8906-0.35938 0-0.79688 0.125-1.2031 0.35938-0.8125 0.46875-1.1406 1.0938-1.1406 2.125 0 0.625 0.14062 1.1719 0.40625 1.5469 0.40625 0.53125 1.0781 0.84375 1.8281 0.84375 0.35938 0 0.73438-0.078125 1.1406-0.26562 0.26562-0.10938 0.46875-0.23438 0.51562-0.29688zm-0.78125-1.9531c-0.51562 0.015625-0.75 0.03125-1.1094 0.03125-0.46875 0-0.71875-0.015625-1.2656-0.0625 0-0.46875 0.046875-0.6875 0.17188-0.95312 0.20312-0.4375 0.64062-0.70312 1.125-0.70312 0.32812 0 0.57812 0.125 0.76562 0.39062 0.21875 0.32812 0.28125 0.625 0.3125 1.2969z"/></g><g transform="translate(253.29 505.16)"><path d="m3.4375 2.4844c0-0.03125 0-0.046875-0.1875-0.21875-1.2969-1.3125-1.625-3.2656-1.625-4.8594 0-1.8125 0.39062-3.6094 1.6719-4.9062 0.14062-0.125 0.14062-0.14062 0.14062-0.17188 0-0.078125-0.046875-0.10938-0.10938-0.10938-0.09375 0-1.0312 0.70312-1.6406 2.0156-0.53125 1.1562-0.65625 2.2969-0.65625 3.1719 0 0.8125 0.10938 2.0625 0.6875 3.2344 0.60938 1.2812 1.5156 1.9531 1.6094 1.9531 0.0625 0 0.10938-0.03125 0.10938-0.10938z"/></g><g transform="translate(257.56 505.16)"><path d="m0.3125-1.4688c-0.046875 0.5-0.10938 0.84375-0.21875 1.3125 0.375 0.17188 0.71875 0.26562 1.0625 0.26562 0.48438 0 0.95312-0.17188 1.4531-0.57812 0.51562-0.40625 0.71875-0.76562 0.71875-1.2656 0-0.53125-0.3125-0.82812-1.0625-0.96875l-0.42188-0.078125c-0.59375-0.10938-0.78125-0.28125-0.78125-0.6875 0-0.53125 0.4375-0.9375 1.0156-0.9375 0.40625 0 0.78125 0.17188 0.9375 0.45312v0.54688h0.23438c0.046875-0.35938 0.078125-0.625 0.1875-1.125-0.39062-0.1875-0.67188-0.28125-1-0.28125-0.51562 0-1.125 0.3125-1.5938 0.78125-0.26562 0.26562-0.375 0.51562-0.375 0.875 0 0.5625 0.3125 0.89062 0.96875 1.0156l0.625 0.10938c0.4375 0.09375 0.59375 0.26562 0.59375 0.65625 0 0.64062-0.45312 1.0781-1.1562 1.0781-0.35938 0-0.65625-0.10938-0.9375-0.34375v-0.82812z"/></g><g transform="translate(261.69 505.16)"><path d="m3-2.5938c0-0.8125-0.10938-2.0625-0.6875-3.2344-0.625-1.2812-1.5156-1.9531-1.625-1.9531-0.046875 0-0.09375 0.046875-0.09375 0.10938 0 0.03125 0 0.046875 0.1875 0.23438 1.0312 1.0312 1.6094 2.6719 1.6094 4.8438 0 1.7812-0.375 3.5938-1.6719 4.9062-0.125 0.125-0.125 0.14062-0.125 0.17188 0 0.0625 0.046875 0.10938 0.09375 0.10938 0.10938 0 1.0469-0.70312 1.6562-2.0156 0.53125-1.1562 0.65625-2.2969 0.65625-3.1719z"/></g><g transform="translate(82.528 421.04)"><path d="m-0.8125-3.2344 0.84375 0.046875c-0.03125-0.64062-0.03125-0.64062-0.03125-0.76562 0-0.046875 0.015625-0.29688 0.03125-0.73438h-0.29688l-0.03125 0.375c0 0.25-0.078125 0.28125-0.57812 0.28125h-1.8125c-1.4531 0-1.9844 0.42188-1.9844 1.5781 0 0.42188 0.10938 0.82812 0.32812 1.2031l0.32812 0.53125h0.64062l0.078125-0.26562-0.3125-0.125c-0.46875-0.20312-0.53125-0.3125-0.53125-0.76562 0-0.9375 0.35938-1.3281 1.2656-1.3594l0.1875 0.98438c0.25 1.3594 0.71875 1.9375 1.5781 1.9375 0.78125 0 1.2344-0.46875 1.2344-1.2656 0-0.17188-0.03125-0.34375-0.078125-0.42188zm-0.42188 0c0.40625 0.29688 0.78125 0.92188 0.78125 1.3125s-0.35938 0.75-0.79688 0.75c-0.35938 0-0.71875-0.20312-0.90625-0.5-0.14062-0.25-0.28125-0.79688-0.39062-1.5625z"/></g><g transform="translate(82.528 416.06)"><path d="m-3.9844-0.17188v-0.375c0-0.40625 0.0625-0.4375 0.71875-0.4375h2.25c0.625 0 0.70312 0.03125 0.71875 0.35938l0.03125 0.46875h0.29688c-0.03125-0.95312-0.03125-0.98438-0.03125-1.2656s0.015625-0.54688 0.03125-1.1875h-0.29688l-0.03125 0.42188c-0.015625 0.32812-0.09375 0.35938-0.71875 0.35938h-2.1094c-0.45312 0-0.9375-0.65625-0.9375-1.25 0-0.54688 0.5-0.90625 1.2656-0.90625h1.7812c0.625 0 0.70312 0.03125 0.71875 0.35938l0.03125 0.46875h0.29688c-0.03125-1-0.03125-1-0.03125-1.25s0-0.25 0.03125-1.25h-0.29688l-0.03125 0.46875c-0.015625 0.32812-0.09375 0.35938-0.71875 0.35938h-2.1094c-0.45312 0-0.9375-0.65625-0.9375-1.25 0-0.54688 0.5-0.90625 1.2656-0.90625h2.8281c-0.03125-0.60938-0.03125-0.625-0.03125-0.79688 0-0.125 0-0.125 0.03125-0.875h-0.29688l-0.03125 0.46875c-0.015625 0.32812-0.09375 0.35938-0.71875 0.35938h-2.0625c-0.98438 0-1.5938 0.57812-1.5938 1.5 0 0.34375 0.09375 0.64062 0.25 0.8125l0.67188 0.76562c-0.65625 0.3125-0.92188 0.71875-0.92188 1.4062 0 0.375 0.09375 0.65625 0.25 0.82812l0.64062 0.6875h-0.85938l-0.03125 0.09375c0.20312 0.51562 0.34375 1.0312 0.40625 1.5625z"/></g><g transform="translate(82.528 407.27)"><path d="m-3.9844-0.09375v-0.375c0-0.40625 0.0625-0.4375 0.71875-0.4375h5.0156c0.625 0 0.70312 0.03125 0.71875 0.375l0.03125 0.45312h0.29688c-0.03125-1-0.03125-1-0.03125-1.25s0-0.25 0.03125-1.25h-0.29688l-0.03125 0.46875c-0.015625 0.32812-0.09375 0.35938-0.71875 0.35938h-1.875c0.17188-0.29688 0.25-0.60938 0.25-1.0625 0-0.28125-0.0625-0.54688-0.17188-0.70312l-0.73438-1.1406c-0.25-0.39062-1.2812-0.85938-1.9219-0.85938-1.1094 0-1.9688 0.90625-1.9688 2.0625 0 0.375 0.09375 0.73438 0.25 0.89062l0.75 0.8125h-0.96875l-0.03125 0.09375c0.20312 0.51562 0.34375 1.0312 0.40625 1.5625zm0.9375-1.6562c-0.14062 0-0.25-0.046875-0.42188-0.17188-0.375-0.29688-0.5625-0.70312-0.5625-1.2031 0-0.9375 0.65625-1.5312 1.7031-1.5312 1.1094 0 1.9375 0.67188 1.9375 1.5625 0 0.54688-0.17188 0.95312-0.59375 1.3438z"/></g><g transform="translate(82.528 401.28)"><path d="m-6.5938-0.23438v-0.54688c0-0.1875 0.10938-0.25 0.40625-0.25h5.1719c0.625 0 0.70312 0.03125 0.71875 0.35938l0.03125 0.46875h0.29688c-0.03125-1-0.03125-1-0.03125-1.25s0-0.25 0.03125-1.25h-0.29688l-0.03125 0.45312c-0.015625 0.34375-0.09375 0.375-0.71875 0.375h-6.1406l-0.078125 0.09375c0.17188 0.4375 0.25 0.76562 0.35938 1.5469z"/></g><g transform="translate(82.528 398.38)"><path d="m-4.6406-1.875-0.03125 0.09375c0.20312 0.5 0.34375 1.0312 0.40625 1.5469h0.28125v-0.35938c0-0.40625 0.0625-0.4375 0.71875-0.4375h2.25c0.625 0 0.70312 0.03125 0.71875 0.35938l0.03125 0.46875h0.29688c-0.03125-1-0.03125-1-0.03125-1.25s0-0.25 0.03125-1.25h-0.29688l-0.03125 0.45312c-0.015625 0.34375-0.09375 0.375-0.71875 0.375zm-2.2031 0.45312c0 0.3125 0.25 0.5625 0.54688 0.5625s0.5625-0.25 0.5625-0.54688c0-0.28125-0.26562-0.5625-0.5625-0.5625-0.26562 0-0.54688 0.28125-0.54688 0.54688z"/></g><g transform="translate(82.528 395.48)"><path d="m-3.8125-0.98438h2.875c0.73438 0 1.0625-0.32812 1.0625-1.0938 0-0.21875-0.0625-0.46875-0.125-0.53125l-0.53125-0.46875-0.17188 0.125c0.14062 0.25 0.1875 0.40625 0.1875 0.59375 0 0.39062-0.1875 0.54688-0.6875 0.54688h-2.6094v-1.2812l-0.53125-0.09375 0.0625 1.375h-0.39062c-0.40625 0-0.76562-0.03125-1.4062-0.10938l-0.10938 0.125c0.14062 0.23438 0.28125 0.53125 0.375 0.84375 0.29688-0.03125 0.48438-0.046875 0.78125-0.046875h0.70312l0.34375 0.78125h0.21875z"/></g><g transform="translate(82.528 392.23)"><path d="m-4.6406-5.0156-0.03125 0.09375c0.20312 0.5 0.34375 1.0312 0.40625 1.5469h0.28125v-0.35938c0-0.40625 0.0625-0.4375 0.71875-0.4375h1.625c0.21875 0 0.5 0.14062 0.73438 0.35938 0.28125 0.28125 0.42188 0.60938 0.42188 0.98438 0 0.35938-0.10938 0.64062-0.29688 0.79688-0.17188 0.14062-0.46875 0.20312-0.90625 0.20312h-2.9531l-0.03125 0.09375c0.20312 0.51562 0.34375 1.0312 0.40625 1.5625h0.28125v-0.375c0-0.40625 0.0625-0.4375 0.71875-0.4375h1.6875c0.6875 0 1-0.0625 1.25-0.23438 0.29688-0.23438 0.45312-0.60938 0.45312-1.1719 0-0.45312-0.14062-0.84375-0.39062-1.125l-0.625-0.65625c0.29688 0 0.45312 0 0.92188 0.03125-0.03125-0.67188-0.03125-0.67188-0.03125-0.82812 0-0.14062 0-0.14062 0.03125-0.82812h-0.29688l-0.03125 0.40625c-0.015625 0.34375-0.078125 0.375-0.71875 0.375z"/></g><g transform="translate(82.528 386.22)"><path d="m-4.3594-4.1094c-0.23438 0.5625-0.3125 0.84375-0.3125 1.1875 0 0.26562 0.0625 0.51562 0.1875 0.76562l0.45312 0.875c0.29688 0.5625 1.0312 0.9375 1.875 0.9375 0.79688 0 1.4531-0.28125 1.8594-0.76562 0.28125-0.34375 0.42188-0.79688 0.42188-1.4531 0-0.20312-0.046875-0.42188-0.078125-0.48438l-0.9375-1.0938 0.92188 0.046875c-0.015625-0.48438-0.03125-0.65625-0.03125-0.76562 0-0.078125 0-0.21875 0.015625-0.4375 0-0.0625 0-0.26562 0.015625-0.46875h-0.29688l-0.03125 0.45312c-0.015625 0.34375-0.09375 0.375-0.71875 0.375h-6.1406l-0.078125 0.078125c0.17188 0.4375 0.25 0.76562 0.35938 1.5625h0.28125v-0.5625c0-0.17188 0.10938-0.25 0.40625-0.25zm2.1562 0c0.64062 0 0.75 0.015625 0.98438 0.15625 0.46875 0.28125 0.76562 0.76562 0.76562 1.2344 0 0.875-0.84375 1.5-2.0312 1.5-1.0781 0-1.7188-0.53125-1.7188-1.4375 0-0.375 0.125-0.76562 0.35938-1.125 0.14062-0.20312 0.28125-0.32812 0.35938-0.32812z"/></g><g transform="translate(82.528 380.14)"><path d="m-0.70312-4.3594-0.09375 0.125c0.375 0.64062 0.46875 0.875 0.46875 1.2969 0 0.65625-0.29688 1.1875-0.78125 1.4688-0.32812 0.1875-0.60938 0.26562-1.1875 0.28125v-1.4531c0-0.6875-0.03125-1.125-0.14062-1.8125-0.14062 0-0.21875-0.015625-0.34375-0.015625-1.1406 0-1.8906 0.73438-1.8906 1.8594 0 0.35938 0.125 0.79688 0.35938 1.2031 0.46875 0.8125 1.0938 1.1406 2.125 1.1406 0.625 0 1.1719-0.14062 1.5469-0.40625 0.53125-0.40625 0.84375-1.0781 0.84375-1.8281 0-0.35938-0.078125-0.73438-0.26562-1.1406-0.10938-0.26562-0.23438-0.46875-0.29688-0.51562zm-1.9531 0.78125c0.015625 0.51562 0.03125 0.75 0.03125 1.1094 0 0.46875-0.015625 0.71875-0.0625 1.2656-0.46875 0-0.6875-0.046875-0.95312-0.17188-0.4375-0.20312-0.70312-0.64062-0.70312-1.125 0-0.32812 0.125-0.57812 0.39062-0.76562 0.32812-0.21875 0.625-0.28125 1.2969-0.3125z"/></g></g><g transform="matrix(.35278 0 0 -.35278 85.256 145.71)" shape-rendering="auto"><path d="m165.53 128.61h94.957v29.359h-94.957z" color="#000000" color-rendering="auto" dominant-baseline="auto" fill="#fff" image-rendering="auto" solid-color="#000000" stop-color="#000000" style="font-feature-settings:normal;font-variant-alternates:normal;font-variant-caps:normal;font-variant-east-asian:normal;font-variant-ligatures:normal;font-variant-numeric:normal;font-variant-position:normal;font-variation-settings:normal;inline-size:0;isolation:auto;mix-blend-mode:normal;shape-margin:0;shape-padding:0;text-decoration-color:#000000;text-decoration-line:none;text-decoration-style:solid;text-indent:0;text-orientation:mixed;text-transform:none;white-space:normal"/><path d="m165.33 128.41v29.758h95.355v-29.758zm0.39844 0.39843h94.559v28.961h-94.559z" color="#000000" color-rendering="auto" dominant-baseline="auto" image-rendering="auto" solid-color="#000000" stop-color="#000000" style="font-feature-settings:normal;font-variant-alternates:normal;font-variant-caps:normal;font-variant-east-asian:normal;font-variant-ligatures:normal;font-variant-numeric:normal;font-variant-position:normal;font-variation-settings:normal;inline-size:0;isolation:auto;mix-blend-mode:normal;shape-margin:0;shape-padding:0;text-decoration-color:#000000;text-decoration-line:none;text-decoration-style:solid;text-indent:0;text-orientation:mixed;text-transform:none;white-space:normal"/></g><path d="m144.88 93.094v-0.3514h6v0.3514z" color="#000000" color-rendering="auto" dominant-baseline="auto" fill="#00f" image-rendering="auto" shape-rendering="auto" solid-color="#000000" stop-color="#000000" style="font-feature-settings:normal;font-variant-alternates:normal;font-variant-caps:normal;font-variant-east-asian:normal;font-variant-ligatures:normal;font-variant-numeric:normal;font-variant-position:normal;font-variation-settings:normal;inline-size:0;isolation:auto;mix-blend-mode:normal;shape-margin:0;shape-padding:0;text-decoration-color:#000000;text-decoration-line:none;text-decoration-style:solid;text-indent:0;text-orientation:mixed;text-transform:none;white-space:normal"/><g transform="matrix(.35278 0 0 .35278 44.619 -23.24)"><g transform="translate(324.03 332.13)"><path d="m0.40625-1.4219c0 0.6875-0.03125 0.98438-0.10938 1.375 0.51562 0.17188 0.90625 0.25 1.375 0.25 1.2969 0 2.2188-0.70312 2.2188-1.6719 0-0.3125-0.078125-0.54688-0.26562-0.75-0.26562-0.25-0.59375-0.35938-1.4688-0.53125-0.82812-0.15625-1.0938-0.35938-1.0938-0.8125 0-0.5 0.35938-0.78125 0.96875-0.78125 0.65625 0 1.1719 0.34375 1.1719 0.8125v0.23438h0.28125c0-0.57812 0.015625-0.8125 0.046875-1.125-0.53125-0.1875-0.89062-0.25-1.2969-0.25-1.1562 0-1.8594 0.54688-1.8594 1.4375 0 0.48438 0.21875 0.82812 0.67188 1.0312 0.26562 0.125 0.79688 0.28125 1.4688 0.42188 0.45312 0.10938 0.64062 0.3125 0.64062 0.6875 0 0.54688-0.5 0.92188-1.2031 0.92188-0.73438 0-1.25-0.34375-1.25-0.84375v-0.40625z"/></g><g transform="translate(328.25 332.13)"><path d="m1.875-4.6406-0.09375-0.03125c-0.5 0.20312-1.0312 0.34375-1.5469 0.40625v0.28125h0.35938c0.40625 0 0.4375 0.0625 0.4375 0.71875v2.25c0 0.625-0.03125 0.70312-0.35938 0.71875l-0.46875 0.03125v0.29688c1-0.03125 1-0.03125 1.25-0.03125s0.25 0 1.25 0.03125v-0.29688l-0.45312-0.03125c-0.34375-0.015625-0.375-0.09375-0.375-0.71875zm-0.45312-2.2031c-0.3125 0-0.5625 0.25-0.5625 0.54688s0.25 0.5625 0.54688 0.5625c0.28125 0 0.5625-0.26562 0.5625-0.5625 0-0.26562-0.28125-0.54688-0.54688-0.54688z"/></g><g transform="translate(331.15 332.13)"><path d="m5.1719-3.7656 0.25-0.40625-0.03125-0.125-1.4219 0.046875c-0.375-0.3125-0.73438-0.42188-1.2188-0.42188-0.4375 0-0.95312 0.14062-1.3594 0.375-0.54688 0.3125-0.84375 0.8125-0.84375 1.4219 0 0.73438 0.45312 1.2344 1.2031 1.3125l-0.79688 0.60938c-0.09375 0.15625-0.14062 0.28125-0.14062 0.4375 0 0.28125 0.17188 0.4375 0.65625 0.57812l-0.875 0.46875c-0.14062 0.078125-0.28125 0.45312-0.28125 0.75 0 0.90625 0.89062 1.5469 2.1562 1.5469 1.5156 0 2.6875-0.95312 2.6875-2.1719 0-0.71875-0.46875-1.2188-1.1719-1.2188h-1.5938c-0.51562 0-0.75-0.10938-0.75-0.39062 0-0.125 0.078125-0.23438 0.32812-0.45312 0.0625-0.046875 0.078125-0.0625 0.125-0.10938 0.09375 0.015625 0.15625 0.015625 0.23438 0.015625 0.4375 0 0.96875-0.1875 1.375-0.46875 0.4375-0.32812 0.65625-0.73438 0.65625-1.2656 0-0.1875-0.015625-0.32812-0.10938-0.53125zm-2.7812-0.57812c0.6875 0 1.1406 0.5625 1.1406 1.4062 0 0.65625-0.42188 1.1094-1.0312 1.1094-0.67188 0-1.1094-0.53125-1.1094-1.2969s0.35938-1.2188 1-1.2188zm0.46875 4.4844c1.125 0 1.5156 0.23438 1.5156 0.875 0 0.85938-0.78125 1.5-1.8281 1.5-0.875 0-1.4688-0.51562-1.4688-1.25 0-0.45312 0.25-0.85938 0.65625-1.0312 0.15625-0.078125 0.4375-0.09375 1.125-0.09375z"/></g><g transform="translate(336.69 332.13)"><path d="m4.0938 0.03125c0.59375-0.03125 0.60938-0.03125 0.78125-0.03125 0.14062 0 0.14062 0 0.82812 0.03125v-0.29688l-0.40625-0.03125c-0.34375-0.015625-0.375-0.078125-0.375-0.71875v-1.9219c0-1.1719-0.54688-1.7344-1.6562-1.7344-0.375 0-0.57812 0.0625-0.79688 0.25l-0.75 0.65625v-0.875l-0.09375-0.03125c-0.51562 0.20312-1.0312 0.34375-1.5625 0.40625v0.28125h0.375c0.40625 0 0.4375 0.0625 0.4375 0.71875v2.25c0 0.625-0.03125 0.70312-0.35938 0.71875l-0.45312 0.03125v0.29688c0.67188-0.015625 0.9375-0.03125 1.2344-0.03125 0.28125 0 0.5625 0.015625 1.2344 0.03125v-0.29688l-0.45312-0.03125c-0.32812-0.015625-0.35938-0.09375-0.35938-0.71875v-2.1094c0-0.45312 0.65625-0.9375 1.2656-0.9375 0.67188 0 1.1094 0.5 1.1094 1.2656z"/></g><g transform="translate(342.49 332.13)"><path d="m3.2344-0.8125-0.046875 0.84375c0.64062-0.03125 0.64062-0.03125 0.76562-0.03125 0.046875 0 0.29688 0.015625 0.73438 0.03125v-0.29688l-0.375-0.03125c-0.25 0-0.28125-0.078125-0.28125-0.57812v-1.8125c0-1.4531-0.42188-1.9844-1.5781-1.9844-0.42188 0-0.82812 0.10938-1.2031 0.32812l-0.53125 0.32812v0.64062l0.26562 0.078125 0.125-0.3125c0.20312-0.46875 0.3125-0.53125 0.76562-0.53125 0.9375 0 1.3281 0.35938 1.3594 1.2656l-0.98438 0.1875c-1.3594 0.25-1.9375 0.71875-1.9375 1.5781 0 0.78125 0.46875 1.2344 1.2656 1.2344 0.17188 0 0.34375-0.03125 0.42188-0.078125zm0-0.42188c-0.29688 0.40625-0.92188 0.78125-1.3125 0.78125s-0.75-0.35938-0.75-0.79688c0-0.35938 0.20312-0.71875 0.5-0.90625 0.25-0.14062 0.79688-0.28125 1.5625-0.39062z"/></g><g transform="translate(347.47 332.13)"><path d="m0.23438-6.5938h0.54688c0.1875 0 0.25 0.10938 0.25 0.40625v5.1719c0 0.625-0.03125 0.70312-0.35938 0.71875l-0.46875 0.03125v0.29688c1-0.03125 1-0.03125 1.25-0.03125s0.25 0 1.25 0.03125v-0.29688l-0.45312-0.03125c-0.34375-0.015625-0.375-0.09375-0.375-0.71875v-6.1406l-0.09375-0.078125c-0.4375 0.17188-0.76562 0.25-1.5469 0.35938z"/></g></g><path d="m144.88 97.572v-0.3514h6v0.3514z" color="#000000" color-rendering="auto" dominant-baseline="auto" fill="#f00" image-rendering="auto" shape-rendering="auto" solid-color="#000000" stop-color="#000000" style="font-feature-settings:normal;font-variant-alternates:normal;font-variant-caps:normal;font-variant-east-asian:normal;font-variant-ligatures:normal;font-variant-numeric:normal;font-variant-position:normal;font-variation-settings:normal;inline-size:0;isolation:auto;mix-blend-mode:normal;shape-margin:0;shape-padding:0;text-decoration-color:#000000;text-decoration-line:none;text-decoration-style:solid;text-indent:0;text-orientation:mixed;text-transform:none;white-space:normal"/><path d="m147.7 98.099v-0.5271h-0.5271v-0.3514h0.5271v-0.52848h0.3514v0.52848h0.5271v0.3514h-0.5271v0.5271z" color="#000000" color-rendering="auto" dominant-baseline="auto" fill="#f00" image-rendering="auto" shape-rendering="auto" solid-color="#000000" stop-color="#000000" style="font-feature-settings:normal;font-variant-alternates:normal;font-variant-caps:normal;font-variant-east-asian:normal;font-variant-ligatures:normal;font-variant-numeric:normal;font-variant-position:normal;font-variation-settings:normal;inline-size:0;isolation:auto;mix-blend-mode:normal;shape-margin:0;shape-padding:0;text-decoration-color:#000000;text-decoration-line:none;text-decoration-style:solid;text-indent:0;text-orientation:mixed;text-transform:none;white-space:normal"/><g transform="matrix(.35278 0 0 .35278 44.619 -23.24)"><g transform="translate(303.7 344.82)"><path d="m0.40625-1.4219c0 0.6875-0.03125 0.98438-0.10938 1.375 0.51562 0.17188 0.90625 0.25 1.375 0.25 1.2969 0 2.2188-0.70312 2.2188-1.6719 0-0.3125-0.078125-0.54688-0.26562-0.75-0.26562-0.25-0.59375-0.35938-1.4688-0.53125-0.82812-0.15625-1.0938-0.35938-1.0938-0.8125 0-0.5 0.35938-0.78125 0.96875-0.78125 0.65625 0 1.1719 0.34375 1.1719 0.8125v0.23438h0.28125c0-0.57812 0.015625-0.8125 0.046875-1.125-0.53125-0.1875-0.89062-0.25-1.2969-0.25-1.1562 0-1.8594 0.54688-1.8594 1.4375 0 0.48438 0.21875 0.82812 0.67188 1.0312 0.26562 0.125 0.79688 0.28125 1.4688 0.42188 0.45312 0.10938 0.64062 0.3125 0.64062 0.6875 0 0.54688-0.5 0.92188-1.2031 0.92188-0.73438 0-1.25-0.34375-1.25-0.84375v-0.40625z"/></g><g transform="translate(307.93 344.82)"><path d="m3.2344-0.8125-0.046875 0.84375c0.64062-0.03125 0.64062-0.03125 0.76562-0.03125 0.046875 0 0.29688 0.015625 0.73438 0.03125v-0.29688l-0.375-0.03125c-0.25 0-0.28125-0.078125-0.28125-0.57812v-1.8125c0-1.4531-0.42188-1.9844-1.5781-1.9844-0.42188 0-0.82812 0.10938-1.2031 0.32812l-0.53125 0.32812v0.64062l0.26562 0.078125 0.125-0.3125c0.20312-0.46875 0.3125-0.53125 0.76562-0.53125 0.9375 0 1.3281 0.35938 1.3594 1.2656l-0.98438 0.1875c-1.3594 0.25-1.9375 0.71875-1.9375 1.5781 0 0.78125 0.46875 1.2344 1.2656 1.2344 0.17188 0 0.34375-0.03125 0.42188-0.078125zm0-0.42188c-0.29688 0.40625-0.92188 0.78125-1.3125 0.78125s-0.75-0.35938-0.75-0.79688c0-0.35938 0.20312-0.71875 0.5-0.90625 0.25-0.14062 0.79688-0.28125 1.5625-0.39062z"/></g><g transform="translate(312.91 344.82)"><path d="m0.17188-3.9844h0.375c0.40625 0 0.4375 0.0625 0.4375 0.71875v2.25c0 0.625-0.03125 0.70312-0.35938 0.71875l-0.46875 0.03125v0.29688c0.95312-0.03125 0.98438-0.03125 1.2656-0.03125s0.54688 0.015625 1.1875 0.03125v-0.29688l-0.42188-0.03125c-0.32812-0.015625-0.35938-0.09375-0.35938-0.71875v-2.1094c0-0.45312 0.65625-0.9375 1.25-0.9375 0.54688 0 0.90625 0.5 0.90625 1.2656v1.7812c0 0.625-0.03125 0.70312-0.35938 0.71875l-0.46875 0.03125v0.29688c1-0.03125 1-0.03125 1.25-0.03125s0.25 0 1.25 0.03125v-0.29688l-0.46875-0.03125c-0.32812-0.015625-0.35938-0.09375-0.35938-0.71875v-2.1094c0-0.45312 0.65625-0.9375 1.25-0.9375 0.54688 0 0.90625 0.5 0.90625 1.2656v2.8281c0.60938-0.03125 0.625-0.03125 0.79688-0.03125 0.125 0 0.125 0 0.875 0.03125v-0.29688l-0.46875-0.03125c-0.32812-0.015625-0.35938-0.09375-0.35938-0.71875v-2.0625c0-0.98438-0.57812-1.5938-1.5-1.5938-0.34375 0-0.64062 0.09375-0.8125 0.25l-0.76562 0.67188c-0.3125-0.65625-0.71875-0.92188-1.4062-0.92188-0.375 0-0.65625 0.09375-0.82812 0.25l-0.6875 0.64062v-0.85938l-0.09375-0.03125c-0.51562 0.20312-1.0312 0.34375-1.5625 0.40625z"/></g><g transform="translate(321.71 344.82)"><path d="m0.09375-3.9844h0.375c0.40625 0 0.4375 0.0625 0.4375 0.71875v5.0156c0 0.625-0.03125 0.70312-0.375 0.71875l-0.45312 0.03125v0.29688c1-0.03125 1-0.03125 1.25-0.03125s0.25 0 1.25 0.03125v-0.29688l-0.46875-0.03125c-0.32812-0.015625-0.35938-0.09375-0.35938-0.71875v-1.875c0.29688 0.17188 0.60938 0.25 1.0625 0.25 0.28125 0 0.54688-0.0625 0.70312-0.17188l1.1406-0.73438c0.39062-0.25 0.85938-1.2812 0.85938-1.9219 0-1.1094-0.90625-1.9688-2.0625-1.9688-0.375 0-0.73438 0.09375-0.89062 0.25l-0.8125 0.75v-0.96875l-0.09375-0.03125c-0.51562 0.20312-1.0312 0.34375-1.5625 0.40625zm1.6562 0.9375c0-0.14062 0.046875-0.25 0.17188-0.42188 0.29688-0.375 0.70312-0.5625 1.2031-0.5625 0.9375 0 1.5312 0.65625 1.5312 1.7031 0 1.1094-0.67188 1.9375-1.5625 1.9375-0.54688 0-0.95312-0.17188-1.3438-0.59375z"/></g><g transform="translate(327.69 344.82)"><path d="m0.23438-6.5938h0.54688c0.1875 0 0.25 0.10938 0.25 0.40625v5.1719c0 0.625-0.03125 0.70312-0.35938 0.71875l-0.46875 0.03125v0.29688c1-0.03125 1-0.03125 1.25-0.03125s0.25 0 1.25 0.03125v-0.29688l-0.45312-0.03125c-0.34375-0.015625-0.375-0.09375-0.375-0.71875v-6.1406l-0.09375-0.078125c-0.4375 0.17188-0.76562 0.25-1.5469 0.35938z"/></g><g transform="translate(330.59 344.82)"><path d="m4.3594-0.70312-0.125-0.09375c-0.64062 0.375-0.875 0.46875-1.2969 0.46875-0.65625 0-1.1875-0.29688-1.4688-0.78125-0.1875-0.32812-0.26562-0.60938-0.28125-1.1875h1.4531c0.6875 0 1.125-0.03125 1.8125-0.14062 0-0.14062 0.015625-0.21875 0.015625-0.34375 0-1.1406-0.73438-1.8906-1.8594-1.8906-0.35938 0-0.79688 0.125-1.2031 0.35938-0.8125 0.46875-1.1406 1.0938-1.1406 2.125 0 0.625 0.14062 1.1719 0.40625 1.5469 0.40625 0.53125 1.0781 0.84375 1.8281 0.84375 0.35938 0 0.73438-0.078125 1.1406-0.26562 0.26562-0.10938 0.46875-0.23438 0.51562-0.29688zm-0.78125-1.9531c-0.51562 0.015625-0.75 0.03125-1.1094 0.03125-0.46875 0-0.71875-0.015625-1.2656-0.0625 0-0.46875 0.046875-0.6875 0.17188-0.95312 0.20312-0.4375 0.64062-0.70312 1.125-0.70312 0.32812 0 0.57812 0.125 0.76562 0.39062 0.21875 0.32812 0.28125 0.625 0.3125 1.2969z"/></g><g transform="translate(335.37 344.82)"><path d="m4.1094-4.3594c-0.5625-0.23438-0.84375-0.3125-1.1875-0.3125-0.26562 0-0.51562 0.0625-0.76562 0.1875l-0.875 0.45312c-0.5625 0.29688-0.9375 1.0312-0.9375 1.875 0 0.79688 0.28125 1.4531 0.76562 1.8594 0.34375 0.28125 0.79688 0.42188 1.4531 0.42188 0.20312 0 0.42188-0.046875 0.48438-0.078125l1.0938-0.9375-0.046875 0.92188c0.48438-0.015625 0.65625-0.03125 0.76562-0.03125 0.078125 0 0.21875 0 0.4375 0.015625 0.0625 0 0.26562 0 0.46875 0.015625v-0.29688l-0.45312-0.03125c-0.34375-0.015625-0.375-0.09375-0.375-0.71875v-6.1406l-0.078125-0.078125c-0.4375 0.17188-0.76562 0.25-1.5625 0.35938v0.28125h0.5625c0.17188 0 0.25 0.10938 0.25 0.40625zm0 2.1562c0 0.64062-0.015625 0.75-0.15625 0.98438-0.28125 0.46875-0.76562 0.76562-1.2344 0.76562-0.875 0-1.5-0.84375-1.5-2.0312 0-1.0781 0.53125-1.7188 1.4375-1.7188 0.375 0 0.76562 0.125 1.125 0.35938 0.20312 0.14062 0.32812 0.28125 0.32812 0.35938z"/></g><g transform="translate(344.35 344.82)"><path d="m0.40625-1.4219c0 0.6875-0.03125 0.98438-0.10938 1.375 0.51562 0.17188 0.90625 0.25 1.375 0.25 1.2969 0 2.2188-0.70312 2.2188-1.6719 0-0.3125-0.078125-0.54688-0.26562-0.75-0.26562-0.25-0.59375-0.35938-1.4688-0.53125-0.82812-0.15625-1.0938-0.35938-1.0938-0.8125 0-0.5 0.35938-0.78125 0.96875-0.78125 0.65625 0 1.1719 0.34375 1.1719 0.8125v0.23438h0.28125c0-0.57812 0.015625-0.8125 0.046875-1.125-0.53125-0.1875-0.89062-0.25-1.2969-0.25-1.1562 0-1.8594 0.54688-1.8594 1.4375 0 0.48438 0.21875 0.82812 0.67188 1.0312 0.26562 0.125 0.79688 0.28125 1.4688 0.42188 0.45312 0.10938 0.64062 0.3125 0.64062 0.6875 0 0.54688-0.5 0.92188-1.2031 0.92188-0.73438 0-1.25-0.34375-1.25-0.84375v-0.40625z"/></g><g transform="translate(348.58 344.82)"><path d="m1.875-4.6406-0.09375-0.03125c-0.5 0.20312-1.0312 0.34375-1.5469 0.40625v0.28125h0.35938c0.40625 0 0.4375 0.0625 0.4375 0.71875v2.25c0 0.625-0.03125 0.70312-0.35938 0.71875l-0.46875 0.03125v0.29688c1-0.03125 1-0.03125 1.25-0.03125s0.25 0 1.25 0.03125v-0.29688l-0.45312-0.03125c-0.34375-0.015625-0.375-0.09375-0.375-0.71875zm-0.45312-2.2031c-0.3125 0-0.5625 0.25-0.5625 0.54688s0.25 0.5625 0.54688 0.5625c0.28125 0 0.5625-0.26562 0.5625-0.5625 0-0.26562-0.28125-0.54688-0.54688-0.54688z"/></g><g transform="translate(351.48 344.82)"><path d="m5.1719-3.7656 0.25-0.40625-0.03125-0.125-1.4219 0.046875c-0.375-0.3125-0.73438-0.42188-1.2188-0.42188-0.4375 0-0.95312 0.14062-1.3594 0.375-0.54688 0.3125-0.84375 0.8125-0.84375 1.4219 0 0.73438 0.45312 1.2344 1.2031 1.3125l-0.79688 0.60938c-0.09375 0.15625-0.14062 0.28125-0.14062 0.4375 0 0.28125 0.17188 0.4375 0.65625 0.57812l-0.875 0.46875c-0.14062 0.078125-0.28125 0.45312-0.28125 0.75 0 0.90625 0.89062 1.5469 2.1562 1.5469 1.5156 0 2.6875-0.95312 2.6875-2.1719 0-0.71875-0.46875-1.2188-1.1719-1.2188h-1.5938c-0.51562 0-0.75-0.10938-0.75-0.39062 0-0.125 0.078125-0.23438 0.32812-0.45312 0.0625-0.046875 0.078125-0.0625 0.125-0.10938 0.09375 0.015625 0.15625 0.015625 0.23438 0.015625 0.4375 0 0.96875-0.1875 1.375-0.46875 0.4375-0.32812 0.65625-0.73438 0.65625-1.2656 0-0.1875-0.015625-0.32812-0.10938-0.53125zm-2.7812-0.57812c0.6875 0 1.1406 0.5625 1.1406 1.4062 0 0.65625-0.42188 1.1094-1.0312 1.1094-0.67188 0-1.1094-0.53125-1.1094-1.2969s0.35938-1.2188 1-1.2188zm0.46875 4.4844c1.125 0 1.5156 0.23438 1.5156 0.875 0 0.85938-0.78125 1.5-1.8281 1.5-0.875 0-1.4688-0.51562-1.4688-1.25 0-0.45312 0.25-0.85938 0.65625-1.0312 0.15625-0.078125 0.4375-0.09375 1.125-0.09375z"/></g><g transform="translate(357.01 344.82)"><path d="m4.0938 0.03125c0.59375-0.03125 0.60938-0.03125 0.78125-0.03125 0.14062 0 0.14062 0 0.82812 0.03125v-0.29688l-0.40625-0.03125c-0.34375-0.015625-0.375-0.078125-0.375-0.71875v-1.9219c0-1.1719-0.54688-1.7344-1.6562-1.7344-0.375 0-0.57812 0.0625-0.79688 0.25l-0.75 0.65625v-0.875l-0.09375-0.03125c-0.51562 0.20312-1.0312 0.34375-1.5625 0.40625v0.28125h0.375c0.40625 0 0.4375 0.0625 0.4375 0.71875v2.25c0 0.625-0.03125 0.70312-0.35938 0.71875l-0.45312 0.03125v0.29688c0.67188-0.015625 0.9375-0.03125 1.2344-0.03125 0.28125 0 0.5625 0.015625 1.2344 0.03125v-0.29688l-0.45312-0.03125c-0.32812-0.015625-0.35938-0.09375-0.35938-0.71875v-2.1094c0-0.45312 0.65625-0.9375 1.2656-0.9375 0.67188 0 1.1094 0.5 1.1094 1.2656z"/></g><g transform="translate(362.81 344.82)"><path d="m3.2344-0.8125-0.046875 0.84375c0.64062-0.03125 0.64062-0.03125 0.76562-0.03125 0.046875 0 0.29688 0.015625 0.73438 0.03125v-0.29688l-0.375-0.03125c-0.25 0-0.28125-0.078125-0.28125-0.57812v-1.8125c0-1.4531-0.42188-1.9844-1.5781-1.9844-0.42188 0-0.82812 0.10938-1.2031 0.32812l-0.53125 0.32812v0.64062l0.26562 0.078125 0.125-0.3125c0.20312-0.46875 0.3125-0.53125 0.76562-0.53125 0.9375 0 1.3281 0.35938 1.3594 1.2656l-0.98438 0.1875c-1.3594 0.25-1.9375 0.71875-1.9375 1.5781 0 0.78125 0.46875 1.2344 1.2656 1.2344 0.17188 0 0.34375-0.03125 0.42188-0.078125zm0-0.42188c-0.29688 0.40625-0.92188 0.78125-1.3125 0.78125s-0.75-0.35938-0.75-0.79688c0-0.35938 0.20312-0.71875 0.5-0.90625 0.25-0.14062 0.79688-0.28125 1.5625-0.39062z"/></g><g transform="translate(367.79 344.82)"><path d="m0.23438-6.5938h0.54688c0.1875 0 0.25 0.10938 0.25 0.40625v5.1719c0 0.625-0.03125 0.70312-0.35938 0.71875l-0.46875 0.03125v0.29688c1-0.03125 1-0.03125 1.25-0.03125s0.25 0 1.25 0.03125v-0.29688l-0.45312-0.03125c-0.34375-0.015625-0.375-0.09375-0.375-0.71875v-6.1406l-0.09375-0.078125c-0.4375 0.17188-0.76562 0.25-1.5469 0.35938z"/></g></g></g></svg>
