<svg width="49.126mm" height="44.988mm" version="1.1" viewBox="0 0 49.126 44.988" xmlns="http://www.w3.org/2000/svg"><defs><clipPath id="clip1"><path d="m448.27 319h33.727v2h-33.727z"/></clipPath><clipPath id="clip2"><path d="m480 344h66.898v1h-66.898z"/></clipPath><clipPath id="clip3"><path d="m448.27 310h98.625v70h-98.625z"/></clipPath></defs><g transform="translate(-63.127 -71.244)"><g shape-rendering="auto"><path d="m76.776 107.02v-34.794h0.14056v34.794zm11.598 0v-34.794h0.14056v34.794zm11.598 0v-34.794h0.14056v34.794zm11.598 0v-34.794h0.14056v34.794z" color="#000000" color-rendering="auto" dominant-baseline="auto" fill="#bfbfbf" image-rendering="auto" solid-color="#000000" stop-color="#000000" style="font-feature-settings:normal;font-variant-alternates:normal;font-variant-caps:normal;font-variant-east-asian:normal;font-variant-ligatures:normal;font-variant-numeric:normal;font-variant-position:normal;font-variation-settings:normal;inline-size:0;isolation:auto;mix-blend-mode:normal;shape-margin:0;shape-padding:0;text-decoration-color:#000000;text-decoration-line:none;text-decoration-style:solid;text-indent:0;text-orientation:mixed;text-transform:none;white-space:normal"/><path d="m76.846 107.09v-0.14056h34.793v0.14056zm0-8.6982v-0.14056h34.793v0.14056zm0-8.6996v-0.14056h34.793v0.14056zm0-8.6982v-0.14056h34.793v0.14056zm0-8.6982v-0.14056h34.793v0.14056z" color="#000000" color-rendering="auto" dominant-baseline="auto" fill="#bfbfbf" image-rendering="auto" solid-color="#000000" stop-color="#000000" style="font-feature-settings:normal;font-variant-alternates:normal;font-variant-caps:normal;font-variant-east-asian:normal;font-variant-ligatures:normal;font-variant-numeric:normal;font-variant-position:normal;font-variation-settings:normal;inline-size:0;isolation:auto;mix-blend-mode:normal;shape-margin:0;shape-padding:0;text-decoration-color:#000000;text-decoration-line:none;text-decoration-style:solid;text-indent:0;text-orientation:mixed;text-transform:none;white-space:normal"/><path d="m76.811 107.77v-1.4993h0.07028v1.4993zm11.598 0v-1.4993h0.07028v1.4993zm11.598 0v-1.4993h0.0703v1.4993zm11.598 0v-1.4993h0.0703v1.4993z" color="#000000" color-rendering="auto" dominant-baseline="auto" fill="#7f7f7f" image-rendering="auto" solid-color="#000000" stop-color="#000000" style="font-feature-settings:normal;font-variant-alternates:normal;font-variant-caps:normal;font-variant-east-asian:normal;font-variant-ligatures:normal;font-variant-numeric:normal;font-variant-position:normal;font-variation-settings:normal;inline-size:0;isolation:auto;mix-blend-mode:normal;shape-margin:0;shape-padding:0;text-decoration-color:#000000;text-decoration-line:none;text-decoration-style:solid;text-indent:0;text-orientation:mixed;text-transform:none;white-space:normal"/><path d="m76.096 107.06v-0.0703h1.4993v0.0703zm0-8.6982v-0.07028h1.4993v0.07028zm0-8.6996v-0.07028h1.4993v0.07028zm0-8.6982v-0.07028h1.4993v0.07028zm0-8.6982v-0.07028h1.4993v0.07028z" color="#000000" color-rendering="auto" dominant-baseline="auto" fill="#7f7f7f" image-rendering="auto" solid-color="#000000" stop-color="#000000" style="font-feature-settings:normal;font-variant-alternates:normal;font-variant-caps:normal;font-variant-east-asian:normal;font-variant-ligatures:normal;font-variant-numeric:normal;font-variant-position:normal;font-variation-settings:normal;inline-size:0;isolation:auto;mix-blend-mode:normal;shape-margin:0;shape-padding:0;text-decoration-color:#000000;text-decoration-line:none;text-decoration-style:solid;text-indent:0;text-orientation:mixed;text-transform:none;white-space:normal"/><path d="m76.846 107.09v-0.14056h34.09v0.14056z" color="#000000" color-rendering="auto" dominant-baseline="auto" image-rendering="auto" solid-color="#000000" stop-color="#000000" style="font-feature-settings:normal;font-variant-alternates:normal;font-variant-caps:normal;font-variant-east-asian:normal;font-variant-ligatures:normal;font-variant-numeric:normal;font-variant-position:normal;font-variation-settings:normal;inline-size:0;isolation:auto;mix-blend-mode:normal;shape-margin:0;shape-padding:0;text-decoration-color:#000000;text-decoration-line:none;text-decoration-style:solid;text-indent:0;text-orientation:mixed;text-transform:none;white-space:normal"/></g><g><g><path d="m111.64 107.02-1.1245-0.56224 0.42168 0.56224-0.42168 0.56224"/><path d="m76.776 107.02v-34.091h0.14056v34.091z" color="#000000" color-rendering="auto" dominant-baseline="auto" image-rendering="auto" shape-rendering="auto" solid-color="#000000" stop-color="#000000" style="font-feature-settings:normal;font-variant-alternates:normal;font-variant-caps:normal;font-variant-east-asian:normal;font-variant-ligatures:normal;font-variant-numeric:normal;font-variant-position:normal;font-variation-settings:normal;inline-size:0;isolation:auto;mix-blend-mode:normal;shape-margin:0;shape-padding:0;text-decoration-color:#000000;text-decoration-line:none;text-decoration-style:solid;text-indent:0;text-orientation:mixed;text-transform:none;white-space:normal"/><path d="m76.846 72.227-0.56224 1.1245 0.56224-0.42168 0.56224 0.42168"/></g><g transform="matrix(.35278 0 0 .35278 -81.295 -31.939)"><g transform="translate(446.28 404.33)"><path d="m2.0938-5.4844c-1.2344 0-1.8594 0.96875-1.8594 2.9062 0 0.92188 0.15625 1.7344 0.4375 2.125s0.73438 0.60938 1.2188 0.60938c1.2031 0 1.8125-1.0312 1.8125-3.0781 0-1.7344-0.51562-2.5625-1.6094-2.5625zm-0.14062 0.26562c0.76562 0 1.0781 0.78125 1.0781 2.7031 0 1.6875-0.29688 2.3906-1.0312 2.3906-0.76562 0-1.0938-0.79688-1.0938-2.75 0-1.6719 0.28125-2.3438 1.0469-2.3438z"/></g><g transform="translate(479.16 404.33)"><path d="m0.125-0.1875v0.21875c1.5-0.03125 1.5-0.03125 1.7812-0.03125s0.28125 0 1.8281 0.03125c-0.015625-0.17188-0.015625-0.25-0.015625-0.35938s0-0.1875 0.015625-0.35938c-0.92188 0.03125-1.2812 0.046875-2.7656 0.078125l1.4531-1.5469c0.78125-0.8125 1.0156-1.25 1.0156-1.8594 0-0.90625-0.625-1.4688-1.6406-1.4688-0.5625 0-0.95312 0.15625-1.3438 0.54688l-0.14062 1.0938h0.23438l0.09375-0.375c0.125-0.45312 0.42188-0.65625 0.95312-0.65625 0.6875 0 1.125 0.42188 1.125 1.1094 0 0.59375-0.34375 1.1875-1.2344 2.1406z"/></g><g transform="translate(512.03 404.45)"><path d="m2.2344-1.4375v0.59375c0 0.48438-0.09375 0.59375-0.48438 0.60938l-0.48438 0.015625v0.25c1.0469-0.03125 1.0469-0.03125 1.25-0.03125 0.1875 0 0.1875 0 1.25 0.03125v-0.25l-0.39062-0.015625c-0.39062-0.03125-0.46875-0.125-0.46875-0.60938v-0.59375c0.46875 0 0.625 0 0.85938 0.03125v-0.5625c-0.375 0.03125-0.53125 0.03125-0.65625 0.015625h-0.20312v-1.1094c0-1.4219 0.015625-2.0938 0.046875-2.4219l-0.09375-0.046875-0.59375 0.21875-2.25 3.6875 0.09375 0.1875zm0-0.51562h-1.7188l1.7188-2.7969z"/></g><g transform="translate(544.91 404.33)"><path d="m3.3125-5.3594-0.29688-0.125c-0.76562 0.25-1.0938 0.40625-1.5 0.76562-0.8125 0.6875-1.2656 1.6562-1.2656 2.75 0 1.3125 0.64062 2.125 1.6719 2.125s1.8125-0.8125 1.8125-1.9062c0-0.90625-0.5625-1.5156-1.4062-1.5156-0.39062 0-0.625 0.10938-1.0938 0.48438-0.09375 0.078125-0.10938 0.078125-0.1875 0.14062 0.17188-1.4375 0.82812-2.2188 2.2656-2.6562zm-1.2812 2.5781c0.60938 0 1.0156 0.53125 1.0156 1.3125 0 0.82812-0.40625 1.3594-1.0156 1.3594-0.6875 0-1.0469-0.57812-1.0469-1.6406 0-0.28125 0.03125-0.4375 0.10938-0.5625 0.1875-0.28125 0.5625-0.46875 0.9375-0.46875z"/></g><g transform="translate(527.85 413.27)"><path d="m1.5938-2.0781c0-0.23438-0.20312-0.4375-0.4375-0.4375s-0.4375 0.20312-0.4375 0.4375 0.20312 0.4375 0.4375 0.4375 0.4375-0.20312 0.4375-0.4375z"/></g><g transform="translate(530.25 413.27)"><path d="m0.53125-4.4219h0.078125l1.0312-0.46875h0.03125c0.046875 0 0.0625 0.0625 0.0625 0.26562v3.8594c0 0.42188-0.09375 0.5-0.51562 0.53125l-0.45312 0.015625v0.25c1.2188-0.03125 1.2188-0.03125 1.3125-0.03125 0.10938 0 0.28125 0 0.54688 0.015625 0.09375 0 0.375 0 0.70312 0.015625v-0.25l-0.40625-0.015625c-0.4375-0.03125-0.51562-0.10938-0.51562-0.53125v-4.7188l-0.125-0.046875c-0.51562 0.26562-1.0781 0.51562-1.7969 0.76562z"/></g><g transform="translate(534.24 413.27)"><path d="m2.0938-5.4844c-1.2344 0-1.8594 0.96875-1.8594 2.9062 0 0.92188 0.15625 1.7344 0.4375 2.125s0.73438 0.60938 1.2188 0.60938c1.2031 0 1.8125-1.0312 1.8125-3.0781 0-1.7344-0.51562-2.5625-1.6094-2.5625zm-0.14062 0.26562c0.76562 0 1.0781 0.78125 1.0781 2.7031 0 1.6875-0.29688 2.3906-1.0312 2.3906-0.76562 0-1.0938-0.79688-1.0938-2.75 0-1.6719 0.28125-2.3438 1.0469-2.3438z"/></g><g transform="translate(538.3 410.37)"><path d="m4.1094-1.4375c0.10938 0 0.21875 0 0.21875-0.125s-0.10938-0.125-0.21875-0.125h-3.375c-0.10938 0-0.21875 0-0.21875 0.125s0.10938 0.125 0.21875 0.125z"/></g><g transform="translate(543.21 410.37)"><path d="m0.09375-0.14062v0.15625c1.125-0.015625 1.125-0.015625 1.3438-0.015625 0.20312 0 0.20312 0 1.3594 0.015625-0.015625-0.125-0.015625-0.1875-0.015625-0.26562s0-0.14062 0.015625-0.26562c-0.6875 0.03125-0.95312 0.03125-2.0625 0.0625l1.0781-1.1562c0.59375-0.625 0.76562-0.95312 0.76562-1.4062 0-0.6875-0.46875-1.1094-1.2188-1.1094-0.4375 0-0.73438 0.125-1.0312 0.42188l-0.09375 0.8125h0.17188l0.078125-0.28125c0.09375-0.34375 0.3125-0.48438 0.71875-0.48438 0.51562 0 0.84375 0.3125 0.84375 0.82812 0 0.45312-0.25 0.89062-0.9375 1.6094z"/></g><g transform="translate(432.75 396.28)"><path d="m5.4844-1.9062c0.14062 0 0.28125 0 0.28125-0.17188s-0.14062-0.17188-0.28125-0.17188h-4.5c-0.14062 0-0.29688 0-0.29688 0.17188s0.15625 0.17188 0.29688 0.17188z"/></g><g transform="translate(439.31 396.28)"><path d="m0.125-0.1875v0.21875c1.5-0.03125 1.5-0.03125 1.7812-0.03125s0.28125 0 1.8281 0.03125c-0.015625-0.17188-0.015625-0.25-0.015625-0.35938s0-0.1875 0.015625-0.35938c-0.92188 0.03125-1.2812 0.046875-2.7656 0.078125l1.4531-1.5469c0.78125-0.8125 1.0156-1.25 1.0156-1.8594 0-0.90625-0.625-1.4688-1.6406-1.4688-0.5625 0-0.95312 0.15625-1.3438 0.54688l-0.14062 1.0938h0.23438l0.09375-0.375c0.125-0.45312 0.42188-0.65625 0.95312-0.65625 0.6875 0 1.125 0.42188 1.125 1.1094 0 0.59375-0.34375 1.1875-1.2344 2.1406z"/></g><g transform="translate(432.75 371.68)"><path d="m5.4844-1.9062c0.14062 0 0.28125 0 0.28125-0.17188s-0.14062-0.17188-0.28125-0.17188h-4.5c-0.14062 0-0.29688 0-0.29688 0.17188s0.15625 0.17188 0.29688 0.17188z"/></g><g transform="translate(439.31 371.68)"><path d="m0.53125-4.4219h0.078125l1.0312-0.46875h0.03125c0.046875 0 0.0625 0.0625 0.0625 0.26562v3.8594c0 0.42188-0.09375 0.5-0.51562 0.53125l-0.45312 0.015625v0.25c1.2188-0.03125 1.2188-0.03125 1.3125-0.03125 0.10938 0 0.28125 0 0.54688 0.015625 0.09375 0 0.375 0 0.70312 0.015625v-0.25l-0.40625-0.015625c-0.4375-0.03125-0.51562-0.10938-0.51562-0.53125v-4.7188l-0.125-0.046875c-0.51562 0.26562-1.0781 0.51562-1.7969 0.76562z"/></g><g transform="translate(439.31 347.25)"><path d="m2.0938-5.4844c-1.2344 0-1.8594 0.96875-1.8594 2.9062 0 0.92188 0.15625 1.7344 0.4375 2.125s0.73438 0.60938 1.2188 0.60938c1.2031 0 1.8125-1.0312 1.8125-3.0781 0-1.7344-0.51562-2.5625-1.6094-2.5625zm-0.14062 0.26562c0.76562 0 1.0781 0.78125 1.0781 2.7031 0 1.6875-0.29688 2.3906-1.0312 2.3906-0.76562 0-1.0938-0.79688-1.0938-2.75 0-1.6719 0.28125-2.3438 1.0469-2.3438z"/></g><g transform="translate(439.31 322.69)"><path d="m0.53125-4.4219h0.078125l1.0312-0.46875h0.03125c0.046875 0 0.0625 0.0625 0.0625 0.26562v3.8594c0 0.42188-0.09375 0.5-0.51562 0.53125l-0.45312 0.015625v0.25c1.2188-0.03125 1.2188-0.03125 1.3125-0.03125 0.10938 0 0.28125 0 0.54688 0.015625 0.09375 0 0.375 0 0.70312 0.015625v-0.25l-0.40625-0.015625c-0.4375-0.03125-0.51562-0.10938-0.51562-0.53125v-4.7188l-0.125-0.046875c-0.51562 0.26562-1.0781 0.51562-1.7969 0.76562z"/></g><g transform="translate(439.31 297.97)"><path d="m0.125-0.1875v0.21875c1.5-0.03125 1.5-0.03125 1.7812-0.03125s0.28125 0 1.8281 0.03125c-0.015625-0.17188-0.015625-0.25-0.015625-0.35938s0-0.1875 0.015625-0.35938c-0.92188 0.03125-1.2812 0.046875-2.7656 0.078125l1.4531-1.5469c0.78125-0.8125 1.0156-1.25 1.0156-1.8594 0-0.90625-0.625-1.4688-1.6406-1.4688-0.5625 0-0.95312 0.15625-1.3438 0.54688l-0.14062 1.0938h0.23438l0.09375-0.375c0.125-0.45312 0.42188-0.65625 0.95312-0.65625 0.6875 0 1.125 0.42188 1.125 1.1094 0 0.59375-0.34375 1.1875-1.2344 2.1406z"/></g></g></g><g><g transform="matrix(.35278 0 0 .35278 -81.295 -31.939)" clip-path="url(#clip1)"><path transform="matrix(1 0 0 -1 448.27 393.9)" d="m0 73.773v0.39844h32.875v-0.39844z" color="#000000" color-rendering="auto" dominant-baseline="auto" fill="#f00" image-rendering="auto" shape-rendering="auto" solid-color="#000000" stop-color="#000000" style="font-feature-settings:normal;font-variant-alternates:normal;font-variant-caps:normal;font-variant-east-asian:normal;font-variant-ligatures:normal;font-variant-numeric:normal;font-variant-position:normal;font-variation-settings:normal;inline-size:0;isolation:auto;mix-blend-mode:normal;shape-margin:0;shape-padding:0;text-decoration-color:#000000;text-decoration-line:none;text-decoration-style:solid;text-indent:0;text-orientation:mixed;text-transform:none;white-space:normal"/></g><g transform="matrix(.35278 0 0 .35278 -81.295 -31.939)" clip-path="url(#clip2)"><path transform="matrix(1 0 0 -1 448.27 393.9)" d="m32.875 49.117v0.39844h65.75v-0.39844z" color="#000000" color-rendering="auto" dominant-baseline="auto" fill="#f00" image-rendering="auto" shape-rendering="auto" solid-color="#000000" stop-color="#000000" style="font-feature-settings:normal;font-variant-alternates:normal;font-variant-caps:normal;font-variant-east-asian:normal;font-variant-ligatures:normal;font-variant-numeric:normal;font-variant-position:normal;font-variation-settings:normal;inline-size:0;isolation:auto;mix-blend-mode:normal;shape-margin:0;shape-padding:0;text-decoration-color:#000000;text-decoration-line:none;text-decoration-style:solid;text-indent:0;text-orientation:mixed;text-transform:none;white-space:normal"/></g><g transform="matrix(.35278 0 0 .35278 -81.295 -31.939)" clip-path="url(#clip3)"><path transform="matrix(1 0 0 -1 448.27 393.9)" d="m19.84 27.553-0.66406 0.09961-0.62109 0.3125-0.57227 0.48633-0.53906 0.63477-0.51953 0.77344-0.51367 0.91211-0.50586 1.0332-0.50391 1.1465-0.5 1.2383-0.5 1.3301-0.49805 1.3887-0.49805 1.4434-0.49414 1.4746-0.49609 1.4883-0.49609 1.4824-0.49414 1.4629-0.49414 1.4219-0.49414 1.3672-0.49219 1.2969-0.49219 1.2109-0.48438 1.1055-0.48633 0.99414-0.48242 0.87305-0.47461 0.73633-0.46484 0.5957-0.44727 0.45117-0.41992 0.30859-0.38867 0.17188-0.36523 0.060547-0.36719-0.039063-0.38867-0.14258-0.42188-0.26367-0.44922-0.37695-0.46289-0.48828-0.47461-0.58789-0.48047-0.66992-0.48242-0.74023-0.49023-0.79492-0.49414-0.83398-0.49414-0.85156-0.86133 0.50195 0.49609 0.85352 0.5 0.8457 0.50195 0.8125 0.50195 0.76953 0.50977 0.71094 0.51758 0.64062 0.5293 0.55859 0.54492 0.45898 0.56836 0.35352 0.60352 0.22266 0.625 0.06445 0.62109-0.10352 0.60352-0.26562 0.57031-0.41797 0.54492-0.54883 0.52734-0.67773 0.51758-0.80273 0.51172-0.92383 0.50586-1.0371 0.49805-1.1367 0.50195-1.2344 0.49805-1.3145 0.5-1.3809 0.49609-1.4297 0.49805-1.4688 0.49609-1.4844 0.49609-1.4883 0.49219-1.4707 0.49414-1.4336 0.49414-1.375 0.49219-1.3105 0.49023-1.2148 0.49024-1.1133 0.48438-0.98828 0.48047-0.85352 0.46484-0.69531 0.45117-0.5293 0.41992-0.35742 0.37109-0.1875 0.32812-0.04883 0.33398 0.07031 0.37695 0.21484 0.42383 0.39258 0.45117 0.58398 0.47266 0.76562 0.48047 0.93555 0.48633 1.0977 0.48828 1.2441 0.49219 1.3789 0.49219 1.4922 0.49414 1.5977 0.49414 1.6816 0.49219 1.7461 0.49414 1.791 0.49609 1.8242 0.49609 1.8281 0.49609 1.8145 0.49805 1.7871 0.49609 1.7344 0.49805 1.6699 0.49609 1.584 0.5 1.4824 0.5 1.3711 0.50391 1.2363 0.50781 1.1035 0.51367 0.95312 0.52344 0.80078 0.54297 0.64648 0.57227 0.48047 0.625 0.30664 0.66602 0.08398 0.6543-0.15039 0.60742-0.34766 0.5625-0.50586 0.53711-0.65625 0.51953-0.78711 0.50781-0.91406 0.50586-1.0312 0.50391-1.1328 0.5-1.2227 0.5-1.2969 0.49805-1.3535 0.49805-1.3906 0.49609-1.416 0.49219-1.4141 0.49414-1.4023 0.49609-1.3711 0.49219-1.3223 0.49414-1.2559 0.49023-1.1758 0.49023-1.084 0.48633-0.97266 0.47656-0.84766 0.47461-0.7207 0.46094-0.57813 0.44531-0.42969 0.41797-0.29102 0.38281-0.15625 0.35938-0.04297 0.36719 0.05859 0.39258 0.16992 0.42188 0.29102 0.44922 0.42188 0.4668 0.53516 0.47656 0.64844 0.48242 0.73828 0.48633 0.82031 0.49024 0.88086 0.49219 0.92578 0.49024 0.95703 0.49609 0.97266 0.49805 0.9707 0.5 0.94922 0.5 0.91406 0.50391 0.86523 0.50781 0.80078 0.51367 0.72461 0.51953 0.63281 0.53711 0.53711 0.55859 0.42578 0.58789 0.30078 0.61914 0.15234 0.62891-0.01953 0.61719-0.18945 0.58594-0.34766 0.55273-0.48047 0.5332-0.61133 0.52148-0.73047 0.51367-0.84766 0.50781-0.95117 0.50391-1.0527 0.50195-1.1367 0.5-1.2129 0.49414-1.2734 0.49805-1.3164 0.49805-1.3418 0.49609-1.3555 0.49414-1.3457 0.49609-1.3203 0.49219-1.2754 0.49414-1.2148 0.48633-1.1309 0.48828-1.0371 0.48242-0.91992 0.47852-0.78906 0.4668-0.64648 0.44531-0.48242 0.41406-0.31445 0.36523-0.15625 0.32617-0.02734 0.33594 0.09375 0.38867 0.24414 0.42969 0.42578 0.45703 0.61719 0.47461 0.80078 0.48047 0.97852 0.48828 1.1426 0.48828 1.291 0.48828 1.4316 0.49219 1.5586 0.49414 1.668 0.49414 1.7598 0.49609 1.8301 0.49414 1.8926 0.49609 1.9238 0.49609 1.9453 0.49219 1.9414 0.49609 1.9199 0.49805 1.8789 0.49805 1.8203 0.49805 1.7422 0.49805 1.6484 0.5 1.5391 0.5 1.416 0.5 1.2832 0.50586 1.1348 0.51367 0.98438 0.52344 0.82422 0.54102 0.66602 0.57422 0.50195 0.62109 0.31641 0.66406 0.10547 0.65234-0.13477 0.60937-0.32617 0.56641-0.49609 0.53906-0.63477 0.52148-0.76758 0.51172-0.89062 0.50586-1.0059 0.50391-1.1016 0.49609-1.1836 0.5-1.252 0.49805-1.3027 0.49609-1.3359 0.99219-2.7031 0.49609-1.332 0.49414-1.291 0.49414-1.2441-0.92578-0.36914-0.49609 1.25-0.49805 1.3027-0.49805 1.3379-0.99219 2.7031-0.49414 1.3301-0.49414 1.291-0.49414 1.2383-0.48633 1.1602-0.49024 1.0703-0.48438 0.96484-0.48047 0.83398-0.4707 0.69336-0.45508 0.53711-0.42578 0.37305-0.38281 0.20508-0.33203 0.06836-0.32812-0.05273-0.37109-0.18945-0.41797-0.36523-0.45117-0.55469-0.46875-0.73828-0.47852-0.91992-0.48438-1.0859-0.48633-1.2461-0.49023-1.3887-0.49219-1.5156-0.49414-1.6328-0.49414-1.7285-0.49414-1.8105-0.49609-1.873-0.49609-1.9141-0.49219-1.9414-0.49609-1.9473-0.49609-1.9258-0.49609-1.8984-0.49805-1.8398-0.49805-1.7715-0.49805-1.6836-0.49805-1.5762-0.49805-1.459-0.50195-1.3242-0.50586-1.1875-0.50976-1.0371-0.51953-0.87695-0.5332-0.7207-0.5625-0.55664-0.60352-0.38086-0.65039-0.17969-0.66406 0.05664-0.62695 0.26758-0.58008 0.44141-0.54492 0.58984-0.52734 0.72852-0.51367 0.84961-0.50781 0.96484-0.50391 1.0723-0.49805 1.1562-0.5 1.2324-0.49805 1.2871-0.49805 1.3281-0.49609 1.3496-0.49609 1.3555-0.49609 1.3359-0.49414 1.3105-0.49023 1.2578-0.49023 1.1934-0.49219 1.1113-0.48633 1.0195-0.48633 0.90821-0.47852 0.79297-0.4707 0.6582-0.45703 0.52344-0.43359 0.37695-0.4043 0.24024-0.37695 0.11523-0.36133 0.01172-0.37305-0.0918-0.4043-0.20703-0.43359-0.33203-0.45508-0.45508-0.4668-0.56836-0.47852-0.67383-0.48438-0.76367-0.48828-0.83789-0.49024-0.89648-0.49219-0.93555-0.49609-0.96484-0.49609-0.97266-0.49414-0.96484-0.5-0.94141-0.50195-0.90039-0.50391-0.85156-0.50976-0.7793-0.51562-0.70312-0.52734-0.60352-0.54102-0.50781-0.5625-0.38867-0.59961-0.25976-0.62695-0.09961-0.63086 0.07617-0.60937 0.24805-0.57422 0.39844-0.54883 0.53125-0.5293 0.66406-0.51953 0.78711-0.50586 0.90039-0.50586 1.0117-0.50391 1.1133-0.5 1.1992-0.5 1.2754-0.49805 1.334-0.49805 1.3789-0.49609 1.4082-0.49414 1.416-0.49414 1.4121-0.49609 1.3828-0.49219 1.3418-0.49414 1.2812-0.49024 1.1992-0.49023 1.1016-0.48633 0.99219-0.47656 0.85742-0.4707 0.71289-0.45703 0.55664-0.42773 0.38477-0.38672 0.22266-0.33789 0.076172-0.32617-0.041015-0.36719-0.17969-0.41211-0.3457-0.44922-0.53516-0.4668-0.71484-0.47852-0.88867-0.48633-1.0547-0.48828-1.1992-0.49023-1.3418-0.49219-1.4609-0.49023-1.5664-0.49414-1.6582-0.49414-1.7246-0.49609-1.7832-0.49609-1.8105-0.49609-1.8281-0.49609-1.8262-0.49609-1.7949-0.49414-1.7539-0.49805-1.6934-0.49805-1.6133-0.5-1.5137-0.5-1.4043-0.50195-1.2773-0.50781-1.1445-0.50977-0.99609-0.52148-0.8418-0.5332-0.69141-0.56836-0.52734-0.61328-0.34766z" color="#000000" color-rendering="auto" dominant-baseline="auto" fill="#0f0" image-rendering="auto" shape-rendering="auto" solid-color="#000000" stop-color="#000000" style="font-feature-settings:normal;font-variant-alternates:normal;font-variant-caps:normal;font-variant-east-asian:normal;font-variant-ligatures:normal;font-variant-numeric:normal;font-variant-position:normal;font-variation-settings:normal;inline-size:0;isolation:auto;mix-blend-mode:normal;shape-margin:0;shape-padding:0;text-decoration-color:#000000;text-decoration-line:none;text-decoration-style:solid;text-indent:0;text-orientation:mixed;text-transform:none;white-space:normal"/></g><g fill="#f00" shape-rendering="auto"><path d="m76.398 81.472-0.09922-0.09922 0.44786-0.44786-0.44786-0.44786 0.09922-0.09922 0.44786 0.44786 0.44786-0.44786 0.09922 0.09922-0.44786 0.44786 0.44786 0.44786-0.09922 0.09922-0.44786-0.44786z" color="#000000" color-rendering="auto" dominant-baseline="auto" image-rendering="auto" solid-color="#000000" stop-color="#000000" style="font-feature-settings:normal;font-variant-alternates:normal;font-variant-caps:normal;font-variant-east-asian:normal;font-variant-ligatures:normal;font-variant-numeric:normal;font-variant-position:normal;font-variation-settings:normal;inline-size:0;isolation:auto;mix-blend-mode:normal;shape-margin:0;shape-padding:0;text-decoration-color:#000000;text-decoration-line:none;text-decoration-style:solid;text-indent:0;text-orientation:mixed;text-transform:none;white-space:normal"/><path d="m87.996 81.472-0.09922-0.09922 0.44786-0.44786-0.44786-0.44786 0.09922-0.09922 0.44786 0.44786 0.44786-0.44786 0.09922 0.09922-0.44786 0.44786 0.44786 0.44786-0.09922 0.09922-0.44786-0.44786z" color="#000000" color-rendering="auto" dominant-baseline="auto" image-rendering="auto" solid-color="#000000" stop-color="#000000" style="font-feature-settings:normal;font-variant-alternates:normal;font-variant-caps:normal;font-variant-east-asian:normal;font-variant-ligatures:normal;font-variant-numeric:normal;font-variant-position:normal;font-variation-settings:normal;inline-size:0;isolation:auto;mix-blend-mode:normal;shape-margin:0;shape-padding:0;text-decoration-color:#000000;text-decoration-line:none;text-decoration-style:solid;text-indent:0;text-orientation:mixed;text-transform:none;white-space:normal"/><path d="m87.996 90.17-0.09922-0.09922 0.44786-0.44717-0.44786-0.44717 0.09922-0.09922 0.44786 0.44717 0.44786-0.44717 0.09922 0.09922-0.44786 0.44717 0.44786 0.44717-0.09922 0.09922-0.44786-0.44717z" color="#000000" color-rendering="auto" dominant-baseline="auto" image-rendering="auto" solid-color="#000000" stop-color="#000000" style="font-feature-settings:normal;font-variant-alternates:normal;font-variant-caps:normal;font-variant-east-asian:normal;font-variant-ligatures:normal;font-variant-numeric:normal;font-variant-position:normal;font-variation-settings:normal;inline-size:0;isolation:auto;mix-blend-mode:normal;shape-margin:0;shape-padding:0;text-decoration-color:#000000;text-decoration-line:none;text-decoration-style:solid;text-indent:0;text-orientation:mixed;text-transform:none;white-space:normal"/><path d="m111.19 90.17-0.0992-0.09922 0.44717-0.44717-0.44717-0.44717 0.0992-0.09922 0.44717 0.44717 0.44717-0.44717 0.0992 0.09922-0.44717 0.44717 0.44717 0.44717-0.0992 0.09922-0.44717-0.44717z" color="#000000" color-rendering="auto" dominant-baseline="auto" image-rendering="auto" solid-color="#000000" stop-color="#000000" style="font-feature-settings:normal;font-variant-alternates:normal;font-variant-caps:normal;font-variant-east-asian:normal;font-variant-ligatures:normal;font-variant-numeric:normal;font-variant-position:normal;font-variation-settings:normal;inline-size:0;isolation:auto;mix-blend-mode:normal;shape-margin:0;shape-padding:0;text-decoration-color:#000000;text-decoration-line:none;text-decoration-style:solid;text-indent:0;text-orientation:mixed;text-transform:none;white-space:normal"/></g></g><g transform="matrix(.35278 0 0 .35278 -81.295 -31.939)"><g transform="translate(483.47 417.93)"><path d="m0.78125-3.0469v2.2969c0 0.59375 0.26562 0.84375 0.875 0.84375 0.1875 0 0.375-0.03125 0.42188-0.09375l0.39062-0.42188-0.10938-0.14062c-0.20312 0.10938-0.3125 0.15625-0.46875 0.15625-0.3125 0-0.4375-0.15625-0.4375-0.54688v-2.0938h1.0156l0.078125-0.42188-1.0938 0.046875v-0.3125c0-0.32812 0.015625-0.60938 0.078125-1.125l-0.09375-0.09375c-0.1875 0.125-0.42188 0.23438-0.67188 0.3125 0.015625 0.23438 0.03125 0.39062 0.03125 0.625v0.5625l-0.625 0.28125v0.15625z"/></g><g transform="translate(486.07 417.93)"><path d="m1.5-3.7031-0.078125-0.03125c-0.40625 0.17188-0.8125 0.28125-1.2344 0.32812v0.21875h0.29688c0.3125 0 0.34375 0.0625 0.34375 0.57812v1.7969c0 0.5-0.015625 0.5625-0.29688 0.57812l-0.35938 0.015625v0.25c0.79688-0.03125 0.79688-0.03125 0.98438-0.03125 0.20312 0 0.20312 0 1 0.03125v-0.25l-0.35938-0.015625c-0.28125-0.015625-0.29688-0.078125-0.29688-0.57812zm-0.375-1.7656c-0.23438 0-0.4375 0.20312-0.4375 0.4375s0.20312 0.4375 0.4375 0.4375 0.4375-0.20312 0.4375-0.4375c0-0.21875-0.20312-0.4375-0.4375-0.4375z"/></g><g transform="translate(488.39 417.93)"><path d="m0.14062-3.1875h0.29688c0.3125 0 0.34375 0.0625 0.34375 0.57812v1.7969c0 0.5-0.015625 0.5625-0.28125 0.57812l-0.375 0.015625v0.25c0.76562-0.03125 0.79688-0.03125 1.0156-0.03125s0.42188 0.015625 0.95312 0.03125v-0.25l-0.34375-0.015625c-0.26562-0.015625-0.29688-0.078125-0.29688-0.57812v-1.6875c0-0.35938 0.53125-0.75 1.0156-0.75 0.42188 0 0.71875 0.40625 0.71875 1.0156v1.4219c0 0.5-0.03125 0.5625-0.29688 0.57812l-0.35938 0.015625v0.25c0.79688-0.03125 0.79688-0.03125 0.98438-0.03125 0.20312 0 0.20312 0 1 0.03125v-0.25l-0.35938-0.015625c-0.28125-0.015625-0.29688-0.078125-0.29688-0.57812v-1.6875c0-0.35938 0.51562-0.75 1-0.75 0.4375 0 0.73438 0.40625 0.73438 1.0156v2.2656c0.48438-0.03125 0.48438-0.03125 0.625-0.03125 0.09375 0 0.09375 0 0.70312 0.03125v-0.25l-0.375-0.015625c-0.26562-0.015625-0.29688-0.078125-0.29688-0.57812v-1.6406c0-0.79688-0.45312-1.2812-1.1875-1.2812-0.28125 0-0.51562 0.0625-0.65625 0.20312l-0.60938 0.53125c-0.25-0.51562-0.57812-0.73438-1.125-0.73438-0.29688 0-0.51562 0.0625-0.65625 0.20312l-0.5625 0.5v-0.67188l-0.0625-0.03125c-0.40625 0.17188-0.82812 0.28125-1.25 0.32812z"/></g><g transform="translate(495.43 417.93)"><path d="m3.4844-0.5625-0.10938-0.078125c-0.5 0.3125-0.6875 0.375-1.0312 0.375-0.51562 0-0.95312-0.23438-1.1719-0.625-0.15625-0.25-0.20312-0.48438-0.21875-0.9375h1.1562c0.54688 0 0.89062-0.03125 1.4375-0.10938 0.015625-0.125 0.015625-0.1875 0.015625-0.28125 0-0.92188-0.57812-1.5156-1.4688-1.5156-0.29688 0-0.64062 0.09375-0.96875 0.29688-0.65625 0.375-0.92188 0.85938-0.92188 1.6875 0 0.5 0.125 0.9375 0.34375 1.2344 0.3125 0.42188 0.84375 0.67188 1.4375 0.67188 0.29688 0 0.59375-0.0625 0.92188-0.20312 0.21875-0.09375 0.39062-0.1875 0.42188-0.23438zm-0.625-1.5625c-0.40625 0.015625-0.60938 0.015625-0.89062 0.015625-0.35938 0-0.57812 0-1-0.046875 0-0.375 0.03125-0.54688 0.125-0.75 0.17188-0.35938 0.51562-0.5625 0.89062-0.5625 0.26562 0 0.48438 0.09375 0.625 0.3125 0.17188 0.26562 0.23438 0.5 0.25 1.0312z"/></g><g transform="translate(501.66 417.93)"><path d="m2.75 2c0-0.03125 0-0.046875-0.14062-0.1875-1.0312-1.0469-1.2969-2.625-1.2969-3.8906 0-1.4531 0.3125-2.8906 1.3281-3.9375 0.10938-0.09375 0.10938-0.10938 0.10938-0.14062 0-0.046875-0.03125-0.078125-0.078125-0.078125-0.09375 0-0.82812 0.5625-1.3281 1.625-0.42188 0.90625-0.51562 1.8281-0.51562 2.5312 0 0.64062 0.09375 1.6562 0.54688 2.5938 0.5 1.0156 1.2031 1.5625 1.2969 1.5625 0.046875 0 0.078125-0.03125 0.078125-0.078125z"/></g><g transform="translate(505.08 417.93)"><path d="m0.25-1.1719c-0.046875 0.40625-0.09375 0.67188-0.17188 1.0469 0.29688 0.14062 0.5625 0.21875 0.84375 0.21875 0.39062 0 0.76562-0.15625 1.1719-0.46875s0.5625-0.60938 0.5625-1.0156c0-0.42188-0.25-0.65625-0.84375-0.76562l-0.34375-0.0625c-0.46875-0.09375-0.625-0.23438-0.625-0.54688 0-0.4375 0.35938-0.75 0.8125-0.75 0.32812 0 0.625 0.14062 0.76562 0.35938v0.4375h0.17188c0.03125-0.28125 0.0625-0.5 0.15625-0.90625-0.3125-0.15625-0.53125-0.21875-0.79688-0.21875-0.42188 0-0.90625 0.23438-1.2812 0.625-0.20312 0.21875-0.29688 0.40625-0.29688 0.70312 0 0.4375 0.25 0.70312 0.76562 0.79688l0.51562 0.09375c0.34375 0.078125 0.46875 0.21875 0.46875 0.53125 0 0.51562-0.35938 0.85938-0.9375 0.85938-0.26562 0-0.51562-0.078125-0.73438-0.28125v-0.65625z"/></g><g transform="translate(508.38 417.93)"><path d="m2.4062-2.0781c0-0.64062-0.09375-1.6562-0.54688-2.5938-0.5-1.0156-1.2188-1.5625-1.2969-1.5625-0.0625 0-0.09375 0.03125-0.09375 0.078125 0 0.03125 0 0.046875 0.15625 0.20312 0.82812 0.8125 1.2969 2.1406 1.2969 3.875 0 1.4219-0.3125 2.8906-1.3438 3.9375-0.10938 0.09375-0.10938 0.10938-0.10938 0.14062 0 0.046875 0.03125 0.078125 0.09375 0.078125 0.078125 0 0.82812-0.5625 1.3125-1.625 0.42188-0.90625 0.53125-1.8281 0.53125-2.5312z"/></g><g transform="translate(415.17 362.86)"><path d="m-0.65625-2.5781 0.6875 0.03125c-0.03125-0.51562-0.03125-0.51562-0.03125-0.60938 0-0.046875 0.015625-0.25 0.03125-0.59375h-0.25l-0.015625 0.3125c0 0.1875-0.0625 0.21875-0.45312 0.21875h-1.4688c-1.1562 0-1.5781 0.32812-1.5781 1.2656 0 0.32812 0.078125 0.65625 0.26562 0.95312l0.25 0.42188h0.53125l0.046875-0.20312-0.25-0.10938c-0.375-0.15625-0.42188-0.23438-0.42188-0.60938 0-0.75 0.29688-1.0625 1.0156-1.0781l0.14062 0.78125c0.20312 1.0938 0.57812 1.5469 1.2656 1.5469 0.625 0 0.98438-0.375 0.98438-1.0156 0-0.14062-0.015625-0.26562-0.0625-0.32812zm-0.32812 0c0.32812 0.23438 0.625 0.73438 0.625 1.0469s-0.29688 0.59375-0.64062 0.59375c-0.29688 0-0.5625-0.15625-0.71875-0.40625-0.125-0.1875-0.23438-0.625-0.32812-1.2344z"/></g><g transform="translate(415.17 358.87)"><path d="m-3.1875-0.14062v-0.29688c0-0.3125 0.0625-0.34375 0.57812-0.34375h1.7969c0.5 0 0.5625 0.015625 0.57812 0.28125l0.015625 0.375h0.25c-0.03125-0.76562-0.03125-0.79688-0.03125-1.0156s0.015625-0.42188 0.03125-0.95312h-0.25l-0.015625 0.34375c-0.015625 0.26562-0.078125 0.29688-0.57812 0.29688h-1.6875c-0.35938 0-0.75-0.53125-0.75-1.0156 0-0.42188 0.40625-0.71875 1.0156-0.71875h1.4219c0.5 0 0.5625 0.03125 0.57812 0.29688l0.015625 0.35938h0.25c-0.03125-0.79688-0.03125-0.79688-0.03125-0.98438 0-0.20312 0-0.20312 0.03125-1h-0.25l-0.015625 0.35938c-0.015625 0.28125-0.078125 0.29688-0.57812 0.29688h-1.6875c-0.35938 0-0.75-0.51562-0.75-1 0-0.4375 0.40625-0.73438 1.0156-0.73438h2.2656c-0.03125-0.48438-0.03125-0.48438-0.03125-0.625 0-0.09375 0-0.09375 0.03125-0.70312h-0.25l-0.015625 0.375c-0.015625 0.26562-0.078125 0.29688-0.57812 0.29688h-1.6406c-0.79688 0-1.2812 0.45312-1.2812 1.1875 0 0.28125 0.0625 0.51562 0.20312 0.65625l0.53125 0.60938c-0.51562 0.25-0.73438 0.57812-0.73438 1.125 0 0.29688 0.0625 0.51562 0.20312 0.65625l0.5 0.5625h-0.67188l-0.03125 0.0625c0.17188 0.40625 0.28125 0.82812 0.32812 1.25z"/></g><g transform="translate(415.17 351.84)"><path d="m-3.1875-0.078125v-0.29688c0-0.3125 0.0625-0.34375 0.57812-0.34375h4.0156c0.5 0 0.54688 0.015625 0.5625 0.28125l0.03125 0.375h0.23438c-0.015625-0.79688-0.015625-0.79688-0.015625-1s0-0.20312 0.015625-1h-0.23438l-0.03125 0.375c-0.015625 0.26562-0.0625 0.29688-0.5625 0.29688h-1.5156c0.15625-0.25 0.20312-0.5 0.20312-0.85938 0-0.23438-0.046875-0.4375-0.125-0.5625l-0.59375-0.90625c-0.20312-0.32812-1.0312-0.70312-1.5312-0.70312-0.89062 0-1.5781 0.73438-1.5781 1.6719 0 0.28125 0.078125 0.57812 0.20312 0.70312l0.59375 0.65625h-0.76562l-0.03125 0.0625c0.17188 0.40625 0.28125 0.82812 0.32812 1.25zm0.75-1.3125c-0.10938 0-0.20312-0.046875-0.32812-0.14062-0.29688-0.23438-0.45312-0.5625-0.45312-0.96875 0-0.75 0.53125-1.2188 1.3594-1.2188 0.89062 0 1.5469 0.53125 1.5469 1.25 0 0.4375-0.14062 0.76562-0.46875 1.0781z"/></g><g transform="translate(415.17 347.05)"><path d="m-5.2656-0.1875v-0.4375c0-0.14062 0.09375-0.20312 0.32812-0.20312h4.125c0.5 0 0.5625 0.015625 0.57812 0.29688l0.015625 0.35938h0.25c-0.03125-0.79688-0.03125-0.79688-0.03125-0.98438 0-0.20312 0-0.20312 0.03125-1h-0.25l-0.015625 0.35938c-0.015625 0.28125-0.078125 0.29688-0.57812 0.29688h-4.9062l-0.0625 0.078125c0.125 0.34375 0.1875 0.60938 0.29688 1.2344z"/></g><g transform="translate(415.17 344.73)"><path d="m-3.7031-1.5-0.03125 0.078125c0.17188 0.40625 0.28125 0.8125 0.32812 1.2344h0.21875v-0.29688c0-0.3125 0.0625-0.34375 0.57812-0.34375h1.7969c0.5 0 0.5625 0.015625 0.57812 0.29688l0.015625 0.35938h0.25c-0.03125-0.79688-0.03125-0.79688-0.03125-0.98438 0-0.20312 0-0.20312 0.03125-1h-0.25l-0.015625 0.35938c-0.015625 0.28125-0.078125 0.29688-0.57812 0.29688zm-1.7656 0.375c0 0.23438 0.20312 0.4375 0.4375 0.4375s0.4375-0.20312 0.4375-0.4375-0.20312-0.4375-0.4375-0.4375c-0.21875 0-0.4375 0.20312-0.4375 0.4375z"/></g><g transform="translate(415.17 342.41)"><path d="m-3.0469-0.78125h2.2969c0.59375 0 0.84375-0.26562 0.84375-0.875 0-0.1875-0.03125-0.375-0.09375-0.42188l-0.42188-0.39062-0.14062 0.10938c0.10938 0.20312 0.15625 0.3125 0.15625 0.46875 0 0.3125-0.15625 0.4375-0.54688 0.4375h-2.0938v-1.0156l-0.42188-0.078125 0.046875 1.0938h-0.3125c-0.32812 0-0.60938-0.015625-1.125-0.078125l-0.09375 0.09375c0.125 0.1875 0.23438 0.42188 0.3125 0.67188 0.23438-0.015625 0.39062-0.03125 0.625-0.03125h0.5625l0.28125 0.625h0.15625z"/></g><g transform="translate(415.17 339.81)"><path d="m-3.7031-4.0156-0.03125 0.078125c0.17188 0.40625 0.28125 0.82812 0.32812 1.25h0.21875v-0.29688c0-0.32812 0.0625-0.35938 0.57812-0.35938h1.2969c0.1875 0 0.40625 0.10938 0.59375 0.29688 0.21875 0.21875 0.32812 0.48438 0.32812 0.79688 0 0.28125-0.09375 0.5-0.23438 0.625-0.125 0.10938-0.375 0.17188-0.73438 0.17188h-2.3438l-0.03125 0.0625c0.17188 0.40625 0.28125 0.82812 0.32812 1.25h0.21875v-0.29688c0-0.3125 0.0625-0.34375 0.57812-0.34375h1.3438c0.5625 0 0.79688-0.0625 1-0.20312 0.23438-0.17188 0.35938-0.46875 0.35938-0.92188 0-0.35938-0.10938-0.6875-0.3125-0.90625l-0.48438-0.53125c0.21875 0 0.35938 0.015625 0.73438 0.03125-0.03125-0.53125-0.03125-0.53125-0.03125-0.65625 0-0.10938 0-0.10938 0.03125-0.65625h-0.25l-0.015625 0.32812c-0.015625 0.26562-0.0625 0.28125-0.57812 0.28125z"/></g><g transform="translate(415.17 335)"><path d="m-3.4844-3.2812c-0.1875 0.4375-0.25 0.67188-0.25 0.95312 0 0.20312 0.046875 0.40625 0.15625 0.59375l0.35938 0.70312c0.23438 0.45312 0.8125 0.75 1.5 0.75 0.64062 0 1.1562-0.21875 1.4844-0.60938 0.21875-0.26562 0.32812-0.64062 0.32812-1.1562 0-0.15625-0.03125-0.34375-0.0625-0.39062l-0.73438-0.875 0.73438 0.03125c-0.015625-0.39062-0.03125-0.51562-0.03125-0.60938 0-0.0625 0-0.17188 0.015625-0.34375 0-0.046875 0-0.21875 0.015625-0.375h-0.25l-0.015625 0.35938c-0.015625 0.28125-0.078125 0.29688-0.57812 0.29688h-4.9062l-0.0625 0.078125c0.125 0.34375 0.1875 0.60938 0.29688 1.2344h0.21875v-0.4375c0-0.15625 0.09375-0.20312 0.32812-0.20312zm1.7188 0c0.51562 0 0.60938 0.015625 0.78125 0.125 0.375 0.21875 0.625 0.60938 0.625 0.98438 0 0.70312-0.67188 1.2031-1.625 1.2031-0.875 0-1.375-0.4375-1.375-1.1562 0-0.29688 0.09375-0.60938 0.29688-0.89062 0.10938-0.17188 0.20312-0.26562 0.28125-0.26562z"/></g><g transform="translate(415.17 330.13)"><path d="m-0.5625-3.4844-0.078125 0.10938c0.3125 0.5 0.375 0.6875 0.375 1.0312 0 0.51562-0.23438 0.95312-0.625 1.1719-0.25 0.15625-0.48438 0.20312-0.9375 0.21875v-1.1562c0-0.54688-0.03125-0.89062-0.10938-1.4375-0.125-0.015625-0.1875-0.015625-0.28125-0.015625-0.92188 0-1.5156 0.57812-1.5156 1.4688 0 0.29688 0.09375 0.64062 0.29688 0.96875 0.375 0.65625 0.85938 0.92188 1.6875 0.92188 0.5 0 0.9375-0.125 1.2344-0.34375 0.42188-0.3125 0.67188-0.84375 0.67188-1.4375 0-0.29688-0.0625-0.59375-0.20312-0.92188-0.09375-0.21875-0.1875-0.39062-0.23438-0.42188zm-1.5625 0.625c0.015625 0.40625 0.015625 0.60938 0.015625 0.89062 0 0.35938 0 0.57812-0.046875 1-0.375 0-0.54688-0.03125-0.75-0.125-0.35938-0.17188-0.5625-0.51562-0.5625-0.89062 0-0.26562 0.09375-0.48438 0.3125-0.625 0.26562-0.17188 0.5-0.23438 1.0312-0.25z"/></g></g></g></svg>
