<svg width="46.334mm" height="44.001mm" version="1.1" viewBox="0 0 46.334 44.001" xmlns="http://www.w3.org/2000/svg"><defs><clipPath id="clip4"><path d="m448.27 277.14h98.629v98.617h-98.629z"/></clipPath></defs><g transform="translate(-185.67 -129.08)"><g shape-rendering="auto"><path d="m195.62 163.87v-34.79h0.14056v34.79zm6.9591 0v-34.79h0.14056v34.79zm6.9591 0v-34.79h0.14056v34.79zm6.9591 0v-34.79h0.14056v34.79zm6.9577 0v-34.79h0.14056v34.79zm6.9591 0v-34.79h0.14056v34.79z" color="#000000" color-rendering="auto" dominant-baseline="auto" fill="#bfbfbf" image-rendering="auto" solid-color="#000000" stop-color="#000000" style="font-feature-settings:normal;font-variant-alternates:normal;font-variant-caps:normal;font-variant-east-asian:normal;font-variant-ligatures:normal;font-variant-numeric:normal;font-variant-position:normal;font-variation-settings:normal;inline-size:0;isolation:auto;mix-blend-mode:normal;shape-margin:0;shape-padding:0;text-decoration-color:#000000;text-decoration-line:none;text-decoration-style:solid;text-indent:0;text-orientation:mixed;text-transform:none;white-space:normal"/><path d="m195.69 161.04v-0.14056h34.794v0.14056zm0-14.496v-0.14056h34.794v0.14056zm0-14.496v-0.14056h34.794v0.14056z" color="#000000" color-rendering="auto" dominant-baseline="auto" fill="#bfbfbf" image-rendering="auto" solid-color="#000000" stop-color="#000000" style="font-feature-settings:normal;font-variant-alternates:normal;font-variant-caps:normal;font-variant-east-asian:normal;font-variant-ligatures:normal;font-variant-numeric:normal;font-variant-position:normal;font-variation-settings:normal;inline-size:0;isolation:auto;mix-blend-mode:normal;shape-margin:0;shape-padding:0;text-decoration-color:#000000;text-decoration-line:none;text-decoration-style:solid;text-indent:0;text-orientation:mixed;text-transform:none;white-space:normal"/><path d="m195.65 164.61v-1.4993h0.0703v1.4993zm6.9591 0v-1.4993h0.0703v1.4993zm6.9591 0v-1.4993h0.0703v1.4993zm6.9591 0v-1.4993h0.0703v1.4993zm6.9577 0v-1.4993h0.0703v1.4993zm6.9591 0v-1.4993h0.0703v1.4993z" color="#000000" color-rendering="auto" dominant-baseline="auto" fill="#7f7f7f" image-rendering="auto" solid-color="#000000" stop-color="#000000" style="font-feature-settings:normal;font-variant-alternates:normal;font-variant-caps:normal;font-variant-east-asian:normal;font-variant-ligatures:normal;font-variant-numeric:normal;font-variant-position:normal;font-variation-settings:normal;inline-size:0;isolation:auto;mix-blend-mode:normal;shape-margin:0;shape-padding:0;text-decoration-color:#000000;text-decoration-line:none;text-decoration-style:solid;text-indent:0;text-orientation:mixed;text-transform:none;white-space:normal"/><path d="m194.94 161v-0.0703h1.4993v0.0703zm0-14.496v-0.0703h1.4993v0.0703zm0-14.496v-0.0703h1.4993v0.0703z" color="#000000" color-rendering="auto" dominant-baseline="auto" fill="#7f7f7f" image-rendering="auto" solid-color="#000000" stop-color="#000000" style="font-feature-settings:normal;font-variant-alternates:normal;font-variant-caps:normal;font-variant-east-asian:normal;font-variant-ligatures:normal;font-variant-numeric:normal;font-variant-position:normal;font-variation-settings:normal;inline-size:0;isolation:auto;mix-blend-mode:normal;shape-margin:0;shape-padding:0;text-decoration-color:#000000;text-decoration-line:none;text-decoration-style:solid;text-indent:0;text-orientation:mixed;text-transform:none;white-space:normal"/><path d="m195.69 163.94v-0.14056h34.091v0.14056z" color="#000000" color-rendering="auto" dominant-baseline="auto" image-rendering="auto" solid-color="#000000" stop-color="#000000" style="font-feature-settings:normal;font-variant-alternates:normal;font-variant-caps:normal;font-variant-east-asian:normal;font-variant-ligatures:normal;font-variant-numeric:normal;font-variant-position:normal;font-variation-settings:normal;inline-size:0;isolation:auto;mix-blend-mode:normal;shape-margin:0;shape-padding:0;text-decoration-color:#000000;text-decoration-line:none;text-decoration-style:solid;text-indent:0;text-orientation:mixed;text-transform:none;white-space:normal"/></g><g><g><path d="m230.48 163.87-1.1245-0.56224 0.42169 0.56224-0.42169 0.56224"/><path d="m195.62 163.87v-34.087h0.14056v34.087z" color="#000000" color-rendering="auto" dominant-baseline="auto" image-rendering="auto" shape-rendering="auto" solid-color="#000000" stop-color="#000000" style="font-feature-settings:normal;font-variant-alternates:normal;font-variant-caps:normal;font-variant-east-asian:normal;font-variant-ligatures:normal;font-variant-numeric:normal;font-variant-position:normal;font-variation-settings:normal;inline-size:0;isolation:auto;mix-blend-mode:normal;shape-margin:0;shape-padding:0;text-decoration-color:#000000;text-decoration-line:none;text-decoration-style:solid;text-indent:0;text-orientation:mixed;text-transform:none;white-space:normal"/><path d="m195.69 129.08-0.56224 1.1245 0.56224-0.42168 0.56224 0.42168"/></g><g transform="matrix(.35278 0 0 .35278 37.547 31.306)"><g transform="translate(446.28 386.18)"><path d="m2.0938-5.4844c-1.2344 0-1.8594 0.96875-1.8594 2.9062 0 0.92188 0.15625 1.7344 0.4375 2.125s0.73438 0.60938 1.2188 0.60938c1.2031 0 1.8125-1.0312 1.8125-3.0781 0-1.7344-0.51562-2.5625-1.6094-2.5625zm-0.14062 0.26562c0.76562 0 1.0781 0.78125 1.0781 2.7031 0 1.6875-0.29688 2.3906-1.0312 2.3906-0.76562 0-1.0938-0.79688-1.0938-2.75 0-1.6719 0.28125-2.3438 1.0469-2.3438z"/></g><g transform="translate(461.02 386.18)"><path d="m2.0938-5.4844c-1.2344 0-1.8594 0.96875-1.8594 2.9062 0 0.92188 0.15625 1.7344 0.4375 2.125s0.73438 0.60938 1.2188 0.60938c1.2031 0 1.8125-1.0312 1.8125-3.0781 0-1.7344-0.51562-2.5625-1.6094-2.5625zm-0.14062 0.26562c0.76562 0 1.0781 0.78125 1.0781 2.7031 0 1.6875-0.29688 2.3906-1.0312 2.3906-0.76562 0-1.0938-0.79688-1.0938-2.75 0-1.6719 0.28125-2.3438 1.0469-2.3438z"/></g><g transform="translate(465.01 386.18)"><path d="m0.98438-0.89062c-0.23438 0-0.45312 0.23438-0.45312 0.46875s0.21875 0.46875 0.45312 0.46875c0.25 0 0.46875-0.21875 0.46875-0.46875 0-0.23438-0.21875-0.46875-0.46875-0.46875z"/></g><g transform="translate(467 386.18)"><path d="m2.0938-5.4844c-1.2344 0-1.8594 0.96875-1.8594 2.9062 0 0.92188 0.15625 1.7344 0.4375 2.125s0.73438 0.60938 1.2188 0.60938c1.2031 0 1.8125-1.0312 1.8125-3.0781 0-1.7344-0.51562-2.5625-1.6094-2.5625zm-0.14062 0.26562c0.76562 0 1.0781 0.78125 1.0781 2.7031 0 1.6875-0.29688 2.3906-1.0312 2.3906-0.76562 0-1.0938-0.79688-1.0938-2.75 0-1.6719 0.28125-2.3438 1.0469-2.3438z"/></g><g transform="translate(470.99 386.18)"><path d="m0.125-0.1875v0.21875c1.5-0.03125 1.5-0.03125 1.7812-0.03125s0.28125 0 1.8281 0.03125c-0.015625-0.17188-0.015625-0.25-0.015625-0.35938s0-0.1875 0.015625-0.35938c-0.92188 0.03125-1.2812 0.046875-2.7656 0.078125l1.4531-1.5469c0.78125-0.8125 1.0156-1.25 1.0156-1.8594 0-0.90625-0.625-1.4688-1.6406-1.4688-0.5625 0-0.95312 0.15625-1.3438 0.54688l-0.14062 1.0938h0.23438l0.09375-0.375c0.125-0.45312 0.42188-0.65625 0.95312-0.65625 0.6875 0 1.125 0.42188 1.125 1.1094 0 0.59375-0.34375 1.1875-1.2344 2.1406z"/></g><g transform="translate(480.75 386.3)"><path d="m2.0938-5.4844c-1.2344 0-1.8594 0.96875-1.8594 2.9062 0 0.92188 0.15625 1.7344 0.4375 2.125s0.73438 0.60938 1.2188 0.60938c1.2031 0 1.8125-1.0312 1.8125-3.0781 0-1.7344-0.51562-2.5625-1.6094-2.5625zm-0.14062 0.26562c0.76562 0 1.0781 0.78125 1.0781 2.7031 0 1.6875-0.29688 2.3906-1.0312 2.3906-0.76562 0-1.0938-0.79688-1.0938-2.75 0-1.6719 0.28125-2.3438 1.0469-2.3438z"/></g><g transform="translate(484.74 386.3)"><path d="m0.98438-0.89062c-0.23438 0-0.45312 0.23438-0.45312 0.46875s0.21875 0.46875 0.45312 0.46875c0.25 0 0.46875-0.21875 0.46875-0.46875 0-0.23438-0.21875-0.46875-0.46875-0.46875z"/></g><g transform="translate(486.73 386.3)"><path d="m2.0938-5.4844c-1.2344 0-1.8594 0.96875-1.8594 2.9062 0 0.92188 0.15625 1.7344 0.4375 2.125s0.73438 0.60938 1.2188 0.60938c1.2031 0 1.8125-1.0312 1.8125-3.0781 0-1.7344-0.51562-2.5625-1.6094-2.5625zm-0.14062 0.26562c0.76562 0 1.0781 0.78125 1.0781 2.7031 0 1.6875-0.29688 2.3906-1.0312 2.3906-0.76562 0-1.0938-0.79688-1.0938-2.75 0-1.6719 0.28125-2.3438 1.0469-2.3438z"/></g><g transform="translate(490.71 386.3)"><path d="m2.2344-1.4375v0.59375c0 0.48438-0.09375 0.59375-0.48438 0.60938l-0.48438 0.015625v0.25c1.0469-0.03125 1.0469-0.03125 1.25-0.03125 0.1875 0 0.1875 0 1.25 0.03125v-0.25l-0.39062-0.015625c-0.39062-0.03125-0.46875-0.125-0.46875-0.60938v-0.59375c0.46875 0 0.625 0 0.85938 0.03125v-0.5625c-0.375 0.03125-0.53125 0.03125-0.65625 0.015625h-0.20312v-1.1094c0-1.4219 0.015625-2.0938 0.046875-2.4219l-0.09375-0.046875-0.59375 0.21875-2.25 3.6875 0.09375 0.1875zm0-0.51562h-1.7188l1.7188-2.7969z"/></g><g transform="translate(500.48 386.18)"><path d="m2.0938-5.4844c-1.2344 0-1.8594 0.96875-1.8594 2.9062 0 0.92188 0.15625 1.7344 0.4375 2.125s0.73438 0.60938 1.2188 0.60938c1.2031 0 1.8125-1.0312 1.8125-3.0781 0-1.7344-0.51562-2.5625-1.6094-2.5625zm-0.14062 0.26562c0.76562 0 1.0781 0.78125 1.0781 2.7031 0 1.6875-0.29688 2.3906-1.0312 2.3906-0.76562 0-1.0938-0.79688-1.0938-2.75 0-1.6719 0.28125-2.3438 1.0469-2.3438z"/></g><g transform="translate(504.46 386.18)"><path d="m0.98438-0.89062c-0.23438 0-0.45312 0.23438-0.45312 0.46875s0.21875 0.46875 0.45312 0.46875c0.25 0 0.46875-0.21875 0.46875-0.46875 0-0.23438-0.21875-0.46875-0.46875-0.46875z"/></g><g transform="translate(506.45 386.18)"><path d="m2.0938-5.4844c-1.2344 0-1.8594 0.96875-1.8594 2.9062 0 0.92188 0.15625 1.7344 0.4375 2.125s0.73438 0.60938 1.2188 0.60938c1.2031 0 1.8125-1.0312 1.8125-3.0781 0-1.7344-0.51562-2.5625-1.6094-2.5625zm-0.14062 0.26562c0.76562 0 1.0781 0.78125 1.0781 2.7031 0 1.6875-0.29688 2.3906-1.0312 2.3906-0.76562 0-1.0938-0.79688-1.0938-2.75 0-1.6719 0.28125-2.3438 1.0469-2.3438z"/></g><g transform="translate(510.44 386.18)"><path d="m3.3125-5.3594-0.29688-0.125c-0.76562 0.25-1.0938 0.40625-1.5 0.76562-0.8125 0.6875-1.2656 1.6562-1.2656 2.75 0 1.3125 0.64062 2.125 1.6719 2.125s1.8125-0.8125 1.8125-1.9062c0-0.90625-0.5625-1.5156-1.4062-1.5156-0.39062 0-0.625 0.10938-1.0938 0.48438-0.09375 0.078125-0.10938 0.078125-0.1875 0.14062 0.17188-1.4375 0.82812-2.2188 2.2656-2.6562zm-1.2812 2.5781c0.60938 0 1.0156 0.53125 1.0156 1.3125 0 0.82812-0.40625 1.3594-1.0156 1.3594-0.6875 0-1.0469-0.57812-1.0469-1.6406 0-0.28125 0.03125-0.4375 0.10938-0.5625 0.1875-0.28125 0.5625-0.46875 0.9375-0.46875z"/></g><g transform="translate(520.2 386.18)"><path d="m2.0938-5.4844c-1.2344 0-1.8594 0.96875-1.8594 2.9062 0 0.92188 0.15625 1.7344 0.4375 2.125s0.73438 0.60938 1.2188 0.60938c1.2031 0 1.8125-1.0312 1.8125-3.0781 0-1.7344-0.51562-2.5625-1.6094-2.5625zm-0.14062 0.26562c0.76562 0 1.0781 0.78125 1.0781 2.7031 0 1.6875-0.29688 2.3906-1.0312 2.3906-0.76562 0-1.0938-0.79688-1.0938-2.75 0-1.6719 0.28125-2.3438 1.0469-2.3438z"/></g><g transform="translate(524.19 386.18)"><path d="m0.98438-0.89062c-0.23438 0-0.45312 0.23438-0.45312 0.46875s0.21875 0.46875 0.45312 0.46875c0.25 0 0.46875-0.21875 0.46875-0.46875 0-0.23438-0.21875-0.46875-0.46875-0.46875z"/></g><g transform="translate(526.18 386.18)"><path d="m2.0938-5.4844c-1.2344 0-1.8594 0.96875-1.8594 2.9062 0 0.92188 0.15625 1.7344 0.4375 2.125s0.73438 0.60938 1.2188 0.60938c1.2031 0 1.8125-1.0312 1.8125-3.0781 0-1.7344-0.51562-2.5625-1.6094-2.5625zm-0.14062 0.26562c0.76562 0 1.0781 0.78125 1.0781 2.7031 0 1.6875-0.29688 2.3906-1.0312 2.3906-0.76562 0-1.0938-0.79688-1.0938-2.75 0-1.6719 0.28125-2.3438 1.0469-2.3438z"/></g><g transform="translate(530.17 386.18)"><path d="m1.3438-2.75c-0.32812 0.15625-0.46875 0.23438-0.64062 0.40625-0.3125 0.29688-0.46875 0.65625-0.46875 1.0781 0 0.8125 0.67188 1.4219 1.5625 1.4219 1.0469 0 1.9062-0.8125 1.9062-1.7969 0-0.64062-0.29688-0.98438-1.2031-1.3906 0.71875-0.5 0.96875-0.82812 0.96875-1.3125 0-0.6875-0.5625-1.1406-1.4062-1.1406-0.95312 0-1.6406 0.59375-1.6406 1.4375 0 0.54688 0.21875 0.84375 0.92188 1.2969zm0.92188 0.40625c0.5 0.21875 0.79688 0.60938 0.79688 1.0312 0 0.67188-0.5 1.2031-1.1406 1.2031-0.67188 0-1.1094-0.48438-1.1094-1.2188 0-0.57812 0.21875-0.95312 0.8125-1.3125zm-0.48438-1.0312c-0.5-0.25-0.76562-0.5625-0.76562-0.95312 0-0.53125 0.39062-0.89062 0.95312-0.89062 0.57812 0 0.96875 0.375 0.96875 0.96875 0 0.45312-0.20312 0.76562-0.71875 1.0938z"/></g><g transform="translate(541.92 386.3)"><path d="m2.0938-5.4844c-1.2344 0-1.8594 0.96875-1.8594 2.9062 0 0.92188 0.15625 1.7344 0.4375 2.125s0.73438 0.60938 1.2188 0.60938c1.2031 0 1.8125-1.0312 1.8125-3.0781 0-1.7344-0.51562-2.5625-1.6094-2.5625zm-0.14062 0.26562c0.76562 0 1.0781 0.78125 1.0781 2.7031 0 1.6875-0.29688 2.3906-1.0312 2.3906-0.76562 0-1.0938-0.79688-1.0938-2.75 0-1.6719 0.28125-2.3438 1.0469-2.3438z"/></g><g transform="translate(545.91 386.3)"><path d="m0.98438-0.89062c-0.23438 0-0.45312 0.23438-0.45312 0.46875s0.21875 0.46875 0.45312 0.46875c0.25 0 0.46875-0.21875 0.46875-0.46875 0-0.23438-0.21875-0.46875-0.46875-0.46875z"/></g><g transform="translate(547.9 386.3)"><path d="m0.53125-4.4219h0.078125l1.0312-0.46875h0.03125c0.046875 0 0.0625 0.0625 0.0625 0.26562v3.8594c0 0.42188-0.09375 0.5-0.51562 0.53125l-0.45312 0.015625v0.25c1.2188-0.03125 1.2188-0.03125 1.3125-0.03125 0.10938 0 0.28125 0 0.54688 0.015625 0.09375 0 0.375 0 0.70312 0.015625v-0.25l-0.40625-0.015625c-0.4375-0.03125-0.51562-0.10938-0.51562-0.53125v-4.7188l-0.125-0.046875c-0.51562 0.26562-1.0781 0.51562-1.7969 0.76562z"/></g><g transform="translate(432.75 369.92)"><path d="m5.4844-1.9062c0.14062 0 0.28125 0 0.28125-0.17188s-0.14062-0.17188-0.28125-0.17188h-4.5c-0.14062 0-0.29688 0-0.29688 0.17188s0.15625 0.17188 0.29688 0.17188z"/></g><g transform="translate(439.31 369.92)"><path d="m1.0156-4.8281c1.0312 0.03125 1.4688 0.046875 2.4219 0.046875l0.046875-0.046875c-0.015625-0.14062-0.015625-0.20312-0.015625-0.29688 0-0.125 0-0.1875 0.015625-0.32812l-0.046875-0.03125c-0.59375 0.03125-0.95312 0.03125-1.375 0.03125-0.4375 0-0.79688 0-1.3906-0.03125l-0.046875 0.03125c0.015625 0.48438 0.015625 0.84375 0.015625 1.0938 0 0.67188-0.015625 1.4375-0.046875 1.7969l0.15625 0.046875c0.375-0.375 0.59375-0.48438 0.98438-0.48438 0.76562 0 1.25 0.53125 1.25 1.3906 0 0.89062-0.51562 1.4062-1.375 1.4062-0.4375 0-0.84375-0.14062-0.95312-0.34375l-0.35938-0.65625-0.1875 0.10938c0.17188 0.45312 0.26562 0.71875 0.39062 1.0625 0.21875 0.125 0.53125 0.1875 0.875 0.1875 0.53125 0 1.1094-0.23438 1.5469-0.60938 0.48438-0.4375 0.73438-0.96875 0.73438-1.5625 0-0.90625-0.64062-1.5312-1.5469-1.5312-0.39062 0-0.67188 0.09375-1.1719 0.39062z"/></g><g transform="translate(439.31 329.11)"><path d="m2.0938-5.4844c-1.2344 0-1.8594 0.96875-1.8594 2.9062 0 0.92188 0.15625 1.7344 0.4375 2.125s0.73438 0.60938 1.2188 0.60938c1.2031 0 1.8125-1.0312 1.8125-3.0781 0-1.7344-0.51562-2.5625-1.6094-2.5625zm-0.14062 0.26562c0.76562 0 1.0781 0.78125 1.0781 2.7031 0 1.6875-0.29688 2.3906-1.0312 2.3906-0.76562 0-1.0938-0.79688-1.0938-2.75 0-1.6719 0.28125-2.3438 1.0469-2.3438z"/></g><g transform="translate(439.31 288.02)"><path d="m1.0156-4.8281c1.0312 0.03125 1.4688 0.046875 2.4219 0.046875l0.046875-0.046875c-0.015625-0.14062-0.015625-0.20312-0.015625-0.29688 0-0.125 0-0.1875 0.015625-0.32812l-0.046875-0.03125c-0.59375 0.03125-0.95312 0.03125-1.375 0.03125-0.4375 0-0.79688 0-1.3906-0.03125l-0.046875 0.03125c0.015625 0.48438 0.015625 0.84375 0.015625 1.0938 0 0.67188-0.015625 1.4375-0.046875 1.7969l0.15625 0.046875c0.375-0.375 0.59375-0.48438 0.98438-0.48438 0.76562 0 1.25 0.53125 1.25 1.3906 0 0.89062-0.51562 1.4062-1.375 1.4062-0.4375 0-0.84375-0.14062-0.95312-0.34375l-0.35938-0.65625-0.1875 0.10938c0.17188 0.45312 0.26562 0.71875 0.39062 1.0625 0.21875 0.125 0.53125 0.1875 0.875 0.1875 0.53125 0 1.1094-0.23438 1.5469-0.60938 0.48438-0.4375 0.73438-0.96875 0.73438-1.5625 0-0.90625-0.64062-1.5312-1.5469-1.5312-0.39062 0-0.67188 0.09375-1.1719 0.39062z"/></g></g></g><g transform="matrix(.35278 0 0 .35278 37.547 31.306)" clip-path="url(#clip4)"><path transform="matrix(1 0 0 -1 448.27 375.76)" d="m60.59 6.4102-0.83398 2.0215-0.67188 3.2598-0.66797 4.5723-0.66016 5.6152-0.66016 6.3008-0.66602 6.5977-0.6582 6.5059-0.66406 6.0293-0.6582 5.2148-0.66016 4.127-0.64648 2.8223-0.54297 1.2344-0.05664 0.01172-0.45312-0.77734-0.63672-2.166-0.65625-3.0605-0.66211-3.6035-0.66016-3.7969-0.66602-3.627-0.66406-3.1074-0.6875-2.3145-0.87305-1.502-1.2676 0.27734-0.7793 1.791-0.67773 2.9473-0.66406 4.1777-0.66211 5.2422-0.66406 6.0449-0.66211 6.5059-0.66211 6.6016-0.66016 6.2891-0.66406 5.5918-0.65625 4.5293-0.65234 3.1348-0.48047 1.168-0.54102-1.5508-0.65234-3.543-0.66016-5.1172-0.66016-6.4199-0.66406-7.3867-0.66016-7.9629-0.66406-8.1211-0.66016-7.8496-0.66406-7.1699-0.66211-6.1211-0.66602-4.7754-0.67578-3.2344-0.89062-1.9453-1.3105 0.57422-0.74219 2.1973-0.67188 3.4941-0.66406 4.709-0.66406 5.6133-0.66016 6.1484-0.66406 6.2969-0.66016 6.0469-0.66406 5.4316-0.65625 4.502-0.65625 3.3047-0.61133 1.8711-0.19141 0.17969-0.25781-0.29102-0.61914-1.873-0.65625-3.0039-0.6582-3.7793-0.66406-4.2246-0.66016-4.3027-0.66602-4.0215-0.66406-3.4043-0.68359-2.5234-0.82617-1.623-1.2812 0.04687-0.81445 1.7129-0.67773 2.8066-0.66797 3.9707-0.66211 4.9492-0.66406 5.6426-0.66016 5.9824-0.66406 5.9395-0.66016 5.5-0.66211 4.6758-0.65234 3.4902-0.59961 1.9062-0.054688 0.039063-0.37305-0.72852-0.64648-2.9609-0.65625-4.668-0.66211-6.1445-0.66016-7.3301-0.66406-8.1641-0.6582-8.5879-0.99414 0.076172 0.66016 8.5898 0.66406 8.1719 0.66016 7.3418 0.66602 6.1699 0.66406 4.7207 0.68164 3.125 0.94922 1.8516 1.2715-0.87695 0.7207-2.2891 0.66797-3.5723 0.66602-4.707 0.66211-5.5156 0.66406-5.9434 0.66016-5.9785 0.66211-5.6309 0.6582-4.9258 0.66016-3.9199 0.64453-2.6699 0.51172-1.0762h0.04101l0.49219 0.96289 0.64648 2.3906 0.6543 3.3535 0.66211 4.002 0.66016 4.2988 0.66602 4.2363 0.66211 3.8066 0.67188 3.0762 0.70117 2.1172 1.0703 1.209 1.127-1.0527 0.70898-2.1699 0.67383-3.3906 0.66211-4.5371 0.66602-5.4512 0.66016-6.0547 0.66406-6.2969 0.66016-6.1406 0.66211-5.5977 0.6582-4.6738 0.6543-3.4043 0.58008-1.7168 0.0098-0.0039 0.43555 0.95312 0.64648 3.0938 0.66016 4.7246 0.6582 6.0996 0.66406 7.1582 0.66016 7.8438 0.66406 8.1211 0.66016 7.9668 0.66406 7.3965 0.66211 6.4375 0.66602 5.1582 0.66992 3.6445 0.76953 2.2012 1.3457 0.23828 0.83008-2.0195 0.67773-3.2559 0.66211-4.5723 0.66602-5.6113 0.66016-6.2969 0.66406-6.6016 0.66016-6.502 0.66406-6.0332 0.6582-5.2188 0.65625-4.127 0.64844-2.8262 0.54102-1.2383 0.06055-0.01367 0.44726 0.77148 0.64258 2.1621 0.6543 3.0566 0.66211 3.6074 0.66016 3.7969 0.66602 3.623 0.66602 3.1113 0.68164 2.3184 0.87695 1.5039 1.2617-0.26953 0.78516-1.7871 0.67578-2.9453 0.66797-4.1777 0.66211-5.2383 0.66406-6.041 0.66016-6.5098 0.66406-6.5977 0.66016-6.293 0.6582-5.5957 0.66211-4.5293 0.64648-3.1387 0.48438-1.1738 0.54297 1.543 0.65039 3.5391 0.66211 5.1113 0.6582 6.418 0.66406 7.3848 0.66016 7.9629 0.66016 8.1172 0.66406 7.8555 0.66016 7.1699 0.66602 6.123 0.66406 4.7793 0.67774 3.2422 0.88476 1.9473 1.3164-0.56445 0.74219-2.1973 0.67383-3.4902 0.66211-4.709 0.66602-5.6094 0.66016-6.1484 0.66016-6.293 0.66406-6.0508 0.6582-5.4355 0.66211-4.502 0.65039-3.3086 0.61524-1.875 0.19531-0.18359 0.25586 0.28711 0.61914 1.875 0.65625 2.998 0.6582 3.7793 0.6582 4.2207 0.66406 4.3027 0.66211 4.0215 0.66992 3.4121 0.67774 2.5195 0.83008 1.623 1.2793-0.03125 0.81836-1.7168 0.67578-2.8027 0.66797-3.9668 0.66211-4.9453 0.66211-5.6387 0.66406-5.9863 0.66016-5.9395 0.66211-5.5 0.6582-4.6797 0.65625-3.4941 0.59961-1.9102 0.05664-0.03906 0.37109 0.7207 0.64648 2.9531 0.65625 4.6641 0.6582 6.1445 0.66406 7.3262 0.66016 8.1602 0.66406 8.5898 0.99414-0.07813-0.66602-8.5898-0.66016-8.168-0.66406-7.3379-0.66211-6.168-0.66406-4.7188-0.68164-3.1172-0.94922-1.8477-1.2715 0.88086-0.7207 2.293-0.67188 3.5762-0.66211 4.7109-0.66406 5.5156-0.66016 5.9434-0.66406 5.9824-0.66016 5.627-0.6582 4.9219-0.66016 3.916-0.64258 2.666-0.51172 1.0723h-0.04102l-0.49612-0.97071-0.64258-2.3867-0.66016-3.3613-0.6582-4.002-0.66406-4.2988-0.66016-4.2305-0.66211-3.8086-0.67188-3.0703-0.70117-2.1191-1.0742-1.2051-1.125 1.0586-0.71289 2.1719-0.66797 3.3945-0.66797 4.5371-0.66016 5.4551-0.66406 6.0586-0.66016 6.293-0.66016 6.1406-0.66406 5.5938-0.65625 4.6738-0.65625 3.4004-0.57812 1.7109-0.01172 0.0039-0.43554-0.95898-0.64844-3.1016-0.6582-4.7285-0.66211-6.1016-0.66016-7.1582-0.66406-7.8496-0.66016-8.1172-0.66016-7.9668-0.66406-7.3945-0.66016-6.4355-0.66797-5.1523-0.66992-3.6426-0.77344-2.1953z" color="#000000" color-rendering="auto" dominant-baseline="auto" fill="#ff7f00" image-rendering="auto" shape-rendering="auto" solid-color="#000000" stop-color="#000000" style="font-feature-settings:normal;font-variant-alternates:normal;font-variant-caps:normal;font-variant-east-asian:normal;font-variant-ligatures:normal;font-variant-numeric:normal;font-variant-position:normal;font-variation-settings:normal;inline-size:0;isolation:auto;mix-blend-mode:normal;shape-margin:0;shape-padding:0;text-decoration-color:#000000;text-decoration-line:none;text-decoration-style:solid;text-indent:0;text-orientation:mixed;text-transform:none;white-space:normal"/></g><g transform="matrix(.35278 0 0 .35278 37.547 31.306)"><g transform="translate(483.47 399.79)"><path d="m0.78125-3.0469v2.2969c0 0.59375 0.26562 0.84375 0.875 0.84375 0.1875 0 0.375-0.03125 0.42188-0.09375l0.39062-0.42188-0.10938-0.14062c-0.20312 0.10938-0.3125 0.15625-0.46875 0.15625-0.3125 0-0.4375-0.15625-0.4375-0.54688v-2.0938h1.0156l0.078125-0.42188-1.0938 0.046875v-0.3125c0-0.32812 0.015625-0.60938 0.078125-1.125l-0.09375-0.09375c-0.1875 0.125-0.42188 0.23438-0.67188 0.3125 0.015625 0.23438 0.03125 0.39062 0.03125 0.625v0.5625l-0.625 0.28125v0.15625z"/></g><g transform="translate(486.07 399.79)"><path d="m1.5-3.7031-0.078125-0.03125c-0.40625 0.17188-0.8125 0.28125-1.2344 0.32812v0.21875h0.29688c0.3125 0 0.34375 0.0625 0.34375 0.57812v1.7969c0 0.5-0.015625 0.5625-0.29688 0.57812l-0.35938 0.015625v0.25c0.79688-0.03125 0.79688-0.03125 0.98438-0.03125 0.20312 0 0.20312 0 1 0.03125v-0.25l-0.35938-0.015625c-0.28125-0.015625-0.29688-0.078125-0.29688-0.57812zm-0.375-1.7656c-0.23438 0-0.4375 0.20312-0.4375 0.4375s0.20312 0.4375 0.4375 0.4375 0.4375-0.20312 0.4375-0.4375c0-0.21875-0.20312-0.4375-0.4375-0.4375z"/></g><g transform="translate(488.39 399.79)"><path d="m0.14062-3.1875h0.29688c0.3125 0 0.34375 0.0625 0.34375 0.57812v1.7969c0 0.5-0.015625 0.5625-0.28125 0.57812l-0.375 0.015625v0.25c0.76562-0.03125 0.79688-0.03125 1.0156-0.03125s0.42188 0.015625 0.95312 0.03125v-0.25l-0.34375-0.015625c-0.26562-0.015625-0.29688-0.078125-0.29688-0.57812v-1.6875c0-0.35938 0.53125-0.75 1.0156-0.75 0.42188 0 0.71875 0.40625 0.71875 1.0156v1.4219c0 0.5-0.03125 0.5625-0.29688 0.57812l-0.35938 0.015625v0.25c0.79688-0.03125 0.79688-0.03125 0.98438-0.03125 0.20312 0 0.20312 0 1 0.03125v-0.25l-0.35938-0.015625c-0.28125-0.015625-0.29688-0.078125-0.29688-0.57812v-1.6875c0-0.35938 0.51562-0.75 1-0.75 0.4375 0 0.73438 0.40625 0.73438 1.0156v2.2656c0.48438-0.03125 0.48438-0.03125 0.625-0.03125 0.09375 0 0.09375 0 0.70312 0.03125v-0.25l-0.375-0.015625c-0.26562-0.015625-0.29688-0.078125-0.29688-0.57812v-1.6406c0-0.79688-0.45312-1.2812-1.1875-1.2812-0.28125 0-0.51562 0.0625-0.65625 0.20312l-0.60938 0.53125c-0.25-0.51562-0.57812-0.73438-1.125-0.73438-0.29688 0-0.51562 0.0625-0.65625 0.20312l-0.5625 0.5v-0.67188l-0.0625-0.03125c-0.40625 0.17188-0.82812 0.28125-1.25 0.32812z"/></g><g transform="translate(495.43 399.79)"><path d="m3.4844-0.5625-0.10938-0.078125c-0.5 0.3125-0.6875 0.375-1.0312 0.375-0.51562 0-0.95312-0.23438-1.1719-0.625-0.15625-0.25-0.20312-0.48438-0.21875-0.9375h1.1562c0.54688 0 0.89062-0.03125 1.4375-0.10938 0.015625-0.125 0.015625-0.1875 0.015625-0.28125 0-0.92188-0.57812-1.5156-1.4688-1.5156-0.29688 0-0.64062 0.09375-0.96875 0.29688-0.65625 0.375-0.92188 0.85938-0.92188 1.6875 0 0.5 0.125 0.9375 0.34375 1.2344 0.3125 0.42188 0.84375 0.67188 1.4375 0.67188 0.29688 0 0.59375-0.0625 0.92188-0.20312 0.21875-0.09375 0.39062-0.1875 0.42188-0.23438zm-0.625-1.5625c-0.40625 0.015625-0.60938 0.015625-0.89062 0.015625-0.35938 0-0.57812 0-1-0.046875 0-0.375 0.03125-0.54688 0.125-0.75 0.17188-0.35938 0.51562-0.5625 0.89062-0.5625 0.26562 0 0.48438 0.09375 0.625 0.3125 0.17188 0.26562 0.23438 0.5 0.25 1.0312z"/></g><g transform="translate(501.67 399.79)"><path d="m2.75 2c0-0.03125 0-0.046875-0.14062-0.1875-1.0312-1.0469-1.2969-2.625-1.2969-3.8906 0-1.4531 0.3125-2.8906 1.3281-3.9375 0.10938-0.09375 0.10938-0.10938 0.10938-0.14062 0-0.046875-0.03125-0.078125-0.078125-0.078125-0.09375 0-0.82812 0.5625-1.3281 1.625-0.42188 0.90625-0.51562 1.8281-0.51562 2.5312 0 0.64062 0.09375 1.6562 0.54688 2.5938 0.5 1.0156 1.2031 1.5625 1.2969 1.5625 0.046875 0 0.078125-0.03125 0.078125-0.078125z"/></g><g transform="translate(505.08 399.79)"><path d="m0.25-1.1719c-0.046875 0.40625-0.09375 0.67188-0.17188 1.0469 0.29688 0.14062 0.5625 0.21875 0.84375 0.21875 0.39062 0 0.76562-0.15625 1.1719-0.46875s0.5625-0.60938 0.5625-1.0156c0-0.42188-0.25-0.65625-0.84375-0.76562l-0.34375-0.0625c-0.46875-0.09375-0.625-0.23438-0.625-0.54688 0-0.4375 0.35938-0.75 0.8125-0.75 0.32812 0 0.625 0.14062 0.76562 0.35938v0.4375h0.17188c0.03125-0.28125 0.0625-0.5 0.15625-0.90625-0.3125-0.15625-0.53125-0.21875-0.79688-0.21875-0.42188 0-0.90625 0.23438-1.2812 0.625-0.20312 0.21875-0.29688 0.40625-0.29688 0.70312 0 0.4375 0.25 0.70312 0.76562 0.79688l0.51562 0.09375c0.34375 0.078125 0.46875 0.21875 0.46875 0.53125 0 0.51562-0.35938 0.85938-0.9375 0.85938-0.26562 0-0.51562-0.078125-0.73438-0.28125v-0.65625z"/></g><g transform="translate(508.38 399.79)"><path d="m2.4062-2.0781c0-0.64062-0.09375-1.6562-0.54688-2.5938-0.5-1.0156-1.2188-1.5625-1.2969-1.5625-0.0625 0-0.09375 0.03125-0.09375 0.078125 0 0.03125 0 0.046875 0.15625 0.20312 0.82812 0.8125 1.2969 2.1406 1.2969 3.875 0 1.4219-0.3125 2.8906-1.3438 3.9375-0.10938 0.09375-0.10938 0.10938-0.10938 0.14062 0 0.046875 0.03125 0.078125 0.09375 0.078125 0.078125 0 0.82812-0.5625 1.3125-1.625 0.42188-0.90625 0.53125-1.8281 0.53125-2.5312z"/></g></g><g transform="matrix(.35278 0 0 .35278 41.251 31.306)"><g transform="translate(415.17 344.72)"><path d="m-0.65625-2.5781 0.6875 0.03125c-0.03125-0.51562-0.03125-0.51562-0.03125-0.60938 0-0.046875 0.015625-0.25 0.03125-0.59375h-0.25l-0.015625 0.3125c0 0.1875-0.0625 0.21875-0.45312 0.21875h-1.4688c-1.1562 0-1.5781 0.32812-1.5781 1.2656 0 0.32812 0.078125 0.65625 0.26562 0.95312l0.25 0.42188h0.53125l0.046875-0.20312-0.25-0.10938c-0.375-0.15625-0.42188-0.23438-0.42188-0.60938 0-0.75 0.29688-1.0625 1.0156-1.0781l0.14062 0.78125c0.20312 1.0938 0.57812 1.5469 1.2656 1.5469 0.625 0 0.98438-0.375 0.98438-1.0156 0-0.14062-0.015625-0.26562-0.0625-0.32812zm-0.32812 0c0.32812 0.23438 0.625 0.73438 0.625 1.0469s-0.29688 0.59375-0.64062 0.59375c-0.29688 0-0.5625-0.15625-0.71875-0.40625-0.125-0.1875-0.23438-0.625-0.32812-1.2344z"/></g><g transform="translate(415.17 340.74)"><path d="m-3.1875-0.14062v-0.29688c0-0.3125 0.0625-0.34375 0.57812-0.34375h1.7969c0.5 0 0.5625 0.015625 0.57812 0.28125l0.015625 0.375h0.25c-0.03125-0.76562-0.03125-0.79688-0.03125-1.0156s0.015625-0.42188 0.03125-0.95312h-0.25l-0.015625 0.34375c-0.015625 0.26562-0.078125 0.29688-0.57812 0.29688h-1.6875c-0.35938 0-0.75-0.53125-0.75-1.0156 0-0.42188 0.40625-0.71875 1.0156-0.71875h1.4219c0.5 0 0.5625 0.03125 0.57812 0.29688l0.015625 0.35938h0.25c-0.03125-0.79688-0.03125-0.79688-0.03125-0.98438 0-0.20312 0-0.20312 0.03125-1h-0.25l-0.015625 0.35938c-0.015625 0.28125-0.078125 0.29688-0.57812 0.29688h-1.6875c-0.35938 0-0.75-0.51562-0.75-1 0-0.4375 0.40625-0.73438 1.0156-0.73438h2.2656c-0.03125-0.48438-0.03125-0.48438-0.03125-0.625 0-0.09375 0-0.09375 0.03125-0.70312h-0.25l-0.015625 0.375c-0.015625 0.26562-0.078125 0.29688-0.57812 0.29688h-1.6406c-0.79688 0-1.2812 0.45312-1.2812 1.1875 0 0.28125 0.0625 0.51562 0.20312 0.65625l0.53125 0.60938c-0.51562 0.25-0.73438 0.57812-0.73438 1.125 0 0.29688 0.0625 0.51562 0.20312 0.65625l0.5 0.5625h-0.67188l-0.03125 0.0625c0.17188 0.40625 0.28125 0.82812 0.32812 1.25z"/></g><g transform="translate(415.17 333.7)"><path d="m-3.1875-0.078125v-0.29688c0-0.3125 0.0625-0.34375 0.57812-0.34375h4.0156c0.5 0 0.54688 0.015625 0.5625 0.28125l0.03125 0.375h0.23438c-0.015625-0.79688-0.015625-0.79688-0.015625-1s0-0.20312 0.015625-1h-0.23438l-0.03125 0.375c-0.015625 0.26562-0.0625 0.29688-0.5625 0.29688h-1.5156c0.15625-0.25 0.20312-0.5 0.20312-0.85938 0-0.23438-0.046875-0.4375-0.125-0.5625l-0.59375-0.90625c-0.20312-0.32812-1.0312-0.70312-1.5312-0.70312-0.89062 0-1.5781 0.73438-1.5781 1.6719 0 0.28125 0.078125 0.57812 0.20312 0.70312l0.59375 0.65625h-0.76562l-0.03125 0.0625c0.17188 0.40625 0.28125 0.82812 0.32812 1.25zm0.75-1.3125c-0.10938 0-0.20312-0.046875-0.32812-0.14062-0.29688-0.23438-0.45312-0.5625-0.45312-0.96875 0-0.75 0.53125-1.2188 1.3594-1.2188 0.89062 0 1.5469 0.53125 1.5469 1.25 0 0.4375-0.14062 0.76562-0.46875 1.0781z"/></g><g transform="translate(415.17 328.91)"><path d="m-5.2656-0.1875v-0.4375c0-0.14062 0.09375-0.20312 0.32812-0.20312h4.125c0.5 0 0.5625 0.015625 0.57812 0.29688l0.015625 0.35938h0.25c-0.03125-0.79688-0.03125-0.79688-0.03125-0.98438 0-0.20312 0-0.20312 0.03125-1h-0.25l-0.015625 0.35938c-0.015625 0.28125-0.078125 0.29688-0.57812 0.29688h-4.9062l-0.0625 0.078125c0.125 0.34375 0.1875 0.60938 0.29688 1.2344z"/></g><g transform="translate(415.17 326.59)"><path d="m-3.7031-1.5-0.03125 0.078125c0.17188 0.40625 0.28125 0.8125 0.32812 1.2344h0.21875v-0.29688c0-0.3125 0.0625-0.34375 0.57812-0.34375h1.7969c0.5 0 0.5625 0.015625 0.57812 0.29688l0.015625 0.35938h0.25c-0.03125-0.79688-0.03125-0.79688-0.03125-0.98438 0-0.20312 0-0.20312 0.03125-1h-0.25l-0.015625 0.35938c-0.015625 0.28125-0.078125 0.29688-0.57812 0.29688zm-1.7656 0.375c0 0.23438 0.20312 0.4375 0.4375 0.4375s0.4375-0.20312 0.4375-0.4375-0.20312-0.4375-0.4375-0.4375c-0.21875 0-0.4375 0.20312-0.4375 0.4375z"/></g><g transform="translate(415.17 324.27)"><path d="m-3.0469-0.78125h2.2969c0.59375 0 0.84375-0.26562 0.84375-0.875 0-0.1875-0.03125-0.375-0.09375-0.42188l-0.42188-0.39062-0.14062 0.10938c0.10938 0.20312 0.15625 0.3125 0.15625 0.46875 0 0.3125-0.15625 0.4375-0.54688 0.4375h-2.0938v-1.0156l-0.42188-0.078125 0.046875 1.0938h-0.3125c-0.32812 0-0.60938-0.015625-1.125-0.078125l-0.09375 0.09375c0.125 0.1875 0.23438 0.42188 0.3125 0.67188 0.23438-0.015625 0.39062-0.03125 0.625-0.03125h0.5625l0.28125 0.625h0.15625z"/></g><g transform="translate(415.17 321.67)"><path d="m-3.7031-4.0156-0.03125 0.078125c0.17188 0.40625 0.28125 0.82812 0.32812 1.25h0.21875v-0.29688c0-0.32812 0.0625-0.35938 0.57812-0.35938h1.2969c0.1875 0 0.40625 0.10938 0.59375 0.29688 0.21875 0.21875 0.32812 0.48438 0.32812 0.79688 0 0.28125-0.09375 0.5-0.23438 0.625-0.125 0.10938-0.375 0.17188-0.73438 0.17188h-2.3438l-0.03125 0.0625c0.17188 0.40625 0.28125 0.82812 0.32812 1.25h0.21875v-0.29688c0-0.3125 0.0625-0.34375 0.57812-0.34375h1.3438c0.5625 0 0.79688-0.0625 1-0.20312 0.23438-0.17188 0.35938-0.46875 0.35938-0.92188 0-0.35938-0.10938-0.6875-0.3125-0.90625l-0.48438-0.53125c0.21875 0 0.35938 0.015625 0.73438 0.03125-0.03125-0.53125-0.03125-0.53125-0.03125-0.65625 0-0.10938 0-0.10938 0.03125-0.65625h-0.25l-0.015625 0.32812c-0.015625 0.26562-0.0625 0.28125-0.57812 0.28125z"/></g><g transform="translate(415.17 316.87)"><path d="m-3.4844-3.2812c-0.1875 0.4375-0.25 0.67188-0.25 0.95312 0 0.20312 0.046875 0.40625 0.15625 0.59375l0.35938 0.70312c0.23438 0.45312 0.8125 0.75 1.5 0.75 0.64062 0 1.1562-0.21875 1.4844-0.60938 0.21875-0.26562 0.32812-0.64062 0.32812-1.1562 0-0.15625-0.03125-0.34375-0.0625-0.39062l-0.73438-0.875 0.73438 0.03125c-0.015625-0.39062-0.03125-0.51562-0.03125-0.60938 0-0.0625 0-0.17188 0.015625-0.34375 0-0.046875 0-0.21875 0.015625-0.375h-0.25l-0.015625 0.35938c-0.015625 0.28125-0.078125 0.29688-0.57812 0.29688h-4.9062l-0.0625 0.078125c0.125 0.34375 0.1875 0.60938 0.29688 1.2344h0.21875v-0.4375c0-0.15625 0.09375-0.20312 0.32812-0.20312zm1.7188 0c0.51562 0 0.60938 0.015625 0.78125 0.125 0.375 0.21875 0.625 0.60938 0.625 0.98438 0 0.70312-0.67188 1.2031-1.625 1.2031-0.875 0-1.375-0.4375-1.375-1.1562 0-0.29688 0.09375-0.60938 0.29688-0.89062 0.10938-0.17188 0.20312-0.26562 0.28125-0.26562z"/></g><g transform="translate(415.17 312)"><path d="m-0.5625-3.4844-0.078125 0.10938c0.3125 0.5 0.375 0.6875 0.375 1.0312 0 0.51562-0.23438 0.95312-0.625 1.1719-0.25 0.15625-0.48438 0.20312-0.9375 0.21875v-1.1562c0-0.54688-0.03125-0.89062-0.10938-1.4375-0.125-0.015625-0.1875-0.015625-0.28125-0.015625-0.92188 0-1.5156 0.57812-1.5156 1.4688 0 0.29688 0.09375 0.64062 0.29688 0.96875 0.375 0.65625 0.85938 0.92188 1.6875 0.92188 0.5 0 0.9375-0.125 1.2344-0.34375 0.42188-0.3125 0.67188-0.84375 0.67188-1.4375 0-0.29688-0.0625-0.59375-0.20312-0.92188-0.09375-0.21875-0.1875-0.39062-0.23438-0.42188zm-1.5625 0.625c0.015625 0.40625 0.015625 0.60938 0.015625 0.89062 0 0.35938 0 0.57812-0.046875 1-0.375 0-0.54688-0.03125-0.75-0.125-0.35938-0.17188-0.5625-0.51562-0.5625-0.89062 0-0.26562 0.09375-0.48438 0.3125-0.625 0.26562-0.17188 0.5-0.23438 1.0312-0.25z"/></g></g></g></svg>
