<svg width="93.842mm" height="48.435mm" version="1.1" viewBox="0 0 93.842 48.435" xmlns="http://www.w3.org/2000/svg"><g transform="translate(-75.543 -114.12)" shape-rendering="auto"><path d="m75.543 138.41v-0.14056h93.842v0.14056z" color="#000000" color-rendering="auto" dominant-baseline="auto" image-rendering="auto" solid-color="#000000" stop-color="#000000" style="font-feature-settings:normal;font-variant-alternates:normal;font-variant-caps:normal;font-variant-east-asian:normal;font-variant-ligatures:normal;font-variant-numeric:normal;font-variant-position:normal;font-variation-settings:normal;inline-size:0;isolation:auto;mix-blend-mode:normal;shape-margin:0;shape-padding:0;text-decoration-color:#000000;text-decoration-line:none;text-decoration-style:solid;text-indent:0;text-orientation:mixed;text-transform:none;white-space:normal"/><path d="m150.4 162.28v-2.2159h-3.1282v-7.5379h-3.1282v-10.994h-3.1268v-11.73h-3.1282v-9.5663h-3.1281v-5.034h-2.7058v0.74276h-3.1282v6.3376h-3.1282v10.361h-3.1281v11.824h-3.1282v10.361h-3.1282v6.3362h-3.1281v0.74138h-3.5505v-5.0354h-3.1268v-9.5663h-3.1281v-11.73h-3.1282v-10.994h-3.1281v-7.5365h-3.1281v-2.2159h-2.7058v3.6546h-3.1281v8.6182h-3.1281v11.453h-1.7749v-0.42168h1.3525v-11.453h3.1281v-8.6182h3.1281v-3.6546h3.5505v2.2159h3.1281v7.5365h3.1281v10.994h3.1281v11.73h3.1282v9.5663h3.1268v5.0354h2.7058v-0.74138h3.1281v-6.3362h3.1282v-10.361h3.1282v-11.824h3.1282v-10.361h3.1281v-6.3376h3.1282v-0.74277h3.5505v5.034h3.1282v9.5663h3.1282v11.73h3.1268v10.994h3.1281v7.5379h3.1282v2.2159h2.7058v-3.6518h3.1281v-8.6196h3.1282v-11.452h1.7756v0.42168h-1.3532v11.452h-3.1282v8.6196h-3.1282v3.6518z" color="#000000" color-rendering="auto" dominant-baseline="auto" fill="#f00" image-rendering="auto" solid-color="#000000" stop-color="#000000" style="font-feature-settings:normal;font-variant-alternates:normal;font-variant-caps:normal;font-variant-east-asian:normal;font-variant-ligatures:normal;font-variant-numeric:normal;font-variant-position:normal;font-variation-settings:normal;inline-size:0;isolation:auto;mix-blend-mode:normal;shape-margin:0;shape-padding:0;text-decoration-color:#000000;text-decoration-line:none;text-decoration-style:solid;text-indent:0;text-orientation:mixed;text-transform:none;white-space:normal"/><path d="m152.04 162.06v-23.726h0.28181v23.726zm-40.665-0.37345v-23.352h0.28181v23.352zm3.1282-0.74138v-22.611h0.28181v22.611zm34.408-1.101v-21.51h0.28181v21.51zm6.2563-1.4359v-20.074h0.28181v20.074zm-46.919-1.757v-18.317h0.28181v18.317zm9.3831-2.0422v-16.275h0.28181v16.275zm28.152-2.3027v-13.972h0.28181v13.972zm12.513-2.5177v-11.454h0.2818v11.454zm-53.176-2.7037v-8.7505h0.28181v8.7505zm15.639-2.8374v-5.9132h0.28181v5.9132zm21.896-2.9352v-2.9779h0.28181v2.9779zm-59.291-2.8374v-0.28112zm78.06-0.13781v-3e-3h0.28181v3e-3z" color="#000000" color-rendering="auto" dominant-baseline="auto" image-rendering="auto" solid-color="#000000" stop-color="#000000" style="font-feature-settings:normal;font-variant-alternates:normal;font-variant-caps:normal;font-variant-east-asian:normal;font-variant-ligatures:normal;font-variant-numeric:normal;font-variant-position:normal;font-variation-settings:normal;inline-size:0;isolation:auto;mix-blend-mode:normal;shape-margin:0;shape-padding:0;text-decoration-color:#000000;text-decoration-line:none;text-decoration-style:solid;text-indent:0;text-orientation:mixed;text-transform:none;white-space:normal"/><path d="m113.06 162.13-0.13642-0.0331 0.0324-0.13642 0.13712 0.0324zm39.082-5e-3 -0.13642-0.0324 0.0324-0.13712 0.13712 0.0331zm-39.56-0.10955-0.13711-0.0324 0.0331-0.13711 0.13643 0.0331zm39.082-5e-3 -0.13711-0.0331 0.0331-0.13642 0.13643 0.0324zm0.82614-0.0786-0.082-0.11507 0.11438-0.0813 0.082 0.11437zm-39.085-0.0117-0.0813-0.11437 0.11437-0.0813 0.0813 0.11438zm-1.3016-0.0193-0.13642-0.0324 0.0324-0.13712 0.13643 0.0331zm39.082-6e-3 -0.13643-0.0324 0.0324-0.13643 0.13712 0.0324zm-39.561-0.10887-0.14332-0.0338-0.0248-0.0303 0.10679-0.091-4e-3 -5e-3 0.0985 0.0234zm39.083-6e-3 -0.12541-0.0296-0.0372-0.0448 0.1068-0.091 8e-3 0.01 0.0799 0.0193zm2.1835-0.13505-0.0813-0.11437 0.11438-0.082 0.0813 0.11507zm-39.085-0.011-0.082-0.11438 0.11506-0.082 0.0813 0.11438zm-2.5776-0.18052-0.091-0.1068 0.10749-0.091 0.0909 0.1068zm39.089-0.0152-0.0909-0.10749 0.1068-0.0909 0.091 0.10749zm2.9745-0.0785-0.082-0.11507 0.11438-0.0813 0.082 0.11438zm-39.085-0.0117-0.0813-0.11438 0.11437-0.0813 0.0813 0.11437zm-3.2963-0.26941-0.0909-0.10749 0.10749-0.091 0.0909 0.10749zm42.782-5e-3 -0.0813-0.11438 0.0854-0.0613 4e-3 -6e-3 0.1192 0.0737-0.0179 0.0296zm-39.085-0.011-0.082-0.11437 0.0703-0.0503 0.0138-0.0221 0.11988 0.0737-0.0282 0.0462zm35.391 0-0.091-0.10679 0.1068-0.091 0.0909 0.1068zm-39.407-0.35898-0.0909-0.10748 0.10748-0.091 0.091 0.10748zm39.088-0.0158-0.0909-0.10749 0.10748-0.091 0.091 0.10749zm4.3243-0.0207-0.11989-0.0737 0.0737-0.11989 0.11989 0.0737zm-39.09-0.0165-0.11989-0.0737 0.0737-0.11988 0.11989 0.0737zm-4.6405-0.32246-0.0909-0.1068 0.1068-0.091 0.0916 0.1068zm39.088-0.0159-0.0909-0.1068 0.10749-0.091 0.0909 0.1068zm4.901-0.0641-0.11989-0.0737 0.0737-0.11989 0.11989 0.0737zm-39.091-0.0165-0.1192-0.0737 0.0737-0.11989 0.1192 0.0737zm-5.2166-0.27837-0.0586-0.0689-0.0296-0.0613 0.12609-0.0613 0.0227 0.0455 0.0462 0.0551zm39.088-0.0158-0.0462-0.0544-0.0379-0.0779 0.12609-0.062 0.031 0.0627 0.0345 0.0406zm5.477-0.10818-0.1192-0.0737 0.0737-0.11989 0.11989 0.0737zm-39.09-0.0165-0.11989-0.0737 0.0737-0.1192 0.11989 0.0737zm-5.7182-0.30523-0.0613-0.12609 0.12609-0.062 0.062 0.12677zm39.092-0.0179-0.0613-0.12678 0.12609-0.0613 0.062 0.12609zm5.9745-0.0792-0.1192-0.0737 0.0737-0.11989 0.1192 0.0737zm-39.09-0.0165-0.11989-0.0737 0.0737-0.1192 0.11989 0.0737zm-6.1929-0.32797-0.0613-0.12609 0.12609-0.062 0.062 0.12609zm39.092-0.0186-0.0613-0.12609 0.12609-0.062 0.0613 0.12678zm6.4492-0.0558-0.11989-0.0737 0.0737-0.11989 0.11989 0.0737zm-39.09-0.0165-0.11989-0.0737 0.0737-0.1192 0.11989 0.0737zm-6.6676-0.35071-0.062-0.12678 0.12678-0.0613 0.0613 0.12609zm39.092-0.0186-0.062-0.12609 0.12678-0.062 0.0613 0.12609zm6.924-0.0331-0.11988-0.0737 0.0737-0.1192 0.11989 0.0737zm-39.091-0.0159-0.11921-0.0737 0.0641-0.10473 3e-3 -6e-3 0.12953 0.0538-6e-3 0.0165zm-7.1417-0.37483-0.062-0.12609 0.12609-0.062 0.062 0.12678zm39.092-0.0179-0.062-0.12609 0.12609-0.062 0.062 0.12609zm7.3539-0.0455-0.13022-0.0537 0.0537-0.12953 0.13022 0.053zm-39.093-0.0179-0.13022-0.0531 0.0537-0.13023 0.12954 0.0537zm-7.5696-0.36036-0.062-0.12609 0.12609-0.062 0.062 0.12609zm39.092-0.0186-0.062-0.12609 0.12609-0.062 0.062 0.12678zm7.7577-0.0579-0.12953-0.0537 0.0531-0.13023 0.13023 0.0538zm-39.094-0.0179-0.12954-0.0537 0.0531-0.12953 0.13022 0.0531zm-7.9726-0.34727-0.062-0.12678 0.12609-0.0613 0.062 0.12609zm39.092-0.0186-0.062-0.12609 0.12609-0.062 0.062 0.12609zm8.1614-0.0717-0.12954-0.0531 0.0531-0.13022 0.13023 0.0537zm-39.094-0.0172-0.12953-0.0537 0.053-0.13023 0.13023 0.0537zm-8.3764-0.33486-0.062-0.12609 0.1261-0.062 0.062 0.12678zm39.092-0.0179-0.062-0.12609 0.12609-0.062 0.062 0.12609zm8.5652-0.0847-0.12954-0.0537 0.0531-0.12953 0.13022 0.0537zm-39.094-0.0179-0.12953-0.0531 0.053-0.13023 0.13023 0.0538zm-8.7533-0.34106-0.0476-0.13229 0.1323-0.0475 0.0475 0.13229zm39.094-0.0193-0.0475-0.1323 0.13229-0.0475 0.0475 0.13229zm8.94-0.0765-0.12953-0.0537 0.0531-0.12953 0.13023 0.053zm-39.094-0.0179-0.13023-0.0537 0.0538-0.13023 0.13022 0.0537zm-9.1075-0.34933-0.0475-0.13229 0.13229-0.0476 0.0475 0.1323zm39.094-0.0193-0.0475-0.13229 0.13229-0.0475 0.0475 0.13229zm9.2942-0.0682-0.12954-0.0537 0.0531-0.13023 0.13023 0.0538zm-39.094-0.0186-0.13022-0.0531 0.0537-0.13023 0.13022 0.0537zm-9.4616-0.35691-0.0475-0.13229 0.13229-0.0476 0.0475 0.1323zm39.094-0.0186-0.0476-0.1323 0.13229-0.0482 0.0476 0.1323zm9.6483-0.0613-0.12954-0.053 0.0531-0.13023 0.13022 0.0538zm-39.094-0.0179-0.13022-0.0537 0.0537-0.12954 0.12954 0.0531zm-9.8158-0.36518-0.0475-0.13229 0.13229-0.0475 0.0475 0.13229zm39.094-0.0186-0.0475-0.13229 0.13229-0.0476 0.0475 0.13161zm10.002-0.0531-0.12953-0.0537 0.0531-0.12954 0.13023 0.0531zm-39.094-0.0179-0.13023-0.0537 0.0537-0.13023 0.12953 0.0537zm-10.169-0.37345-0.0482-0.13229 0.1323-0.0475 0.0482 0.13229zm39.094-0.0186-0.0475-0.13229 0.13229-0.0475 0.0475 0.13229zm10.346-0.0544-0.13367-0.0434 0.0434-0.13367 0.13367 0.0434zm-39.096-0.0186-0.13367-0.0434 0.0434-0.13367 0.13367 0.0434zm-10.511-0.37138-0.0475-0.1316 0.13229-0.0482 0.0475 0.13229zm39.094-0.0186-0.0476-0.13229 0.13229-0.0475 0.0476 0.13229zm10.665-0.0599-0.13367-0.0434 0.0434-0.13367 0.13367 0.0434zm-39.095-0.0186-0.13367-0.0434 0.0427-0.13367 0.13436 0.0434zm-10.83-0.36518-0.0475-0.13229 0.13229-0.0482 0.0475 0.13229zm39.094-0.0193-0.0482-0.13229 0.13229-0.0475 0.0482 0.13229zm10.983-0.0648-0.13436-0.0434 0.0434-0.13367 0.13436 0.0434zm-39.096-0.0186-0.13367-0.0434 0.0434-0.13367 0.13367 0.0434zm-11.148-0.36035-0.0476-0.1323 0.1323-0.0475 0.0475 0.13229zm39.094-0.0193-0.0475-0.13229 0.13229-0.0475 0.0475 0.13229zm11.301-0.0696-0.13367-0.0434 0.0434-0.13367 0.13367 0.0434zm-39.096-0.0186-0.13367-0.0434 0.0434-0.13367 0.13367 0.0434zm-11.467-0.35553-0.0475-0.1323 0.13229-0.0475 0.0476 0.13229zm39.094-0.0193-0.0475-0.13229 0.13229-0.0475 0.0475 0.13229zm11.62-0.0744-0.13366-0.0434 0.0434-0.13367 0.13367 0.0434zm-39.095-0.0186-0.13367-0.0434 0.0434-0.13367 0.13367 0.0434zm-11.781-0.35623-0.0406-0.13504 0.13505-0.04 0.04 0.13436zm39.095-0.0193-0.0406-0.13505 0.13504-0.04 0.04 0.13436zm11.933-0.0744-0.13367-0.0434 0.0434-0.13367 0.13367 0.0434zm-39.096-0.0186-0.13367-0.0434 0.0434-0.13367 0.13367 0.0434zm-12.074-0.35898-0.0407-0.13504 0.13505-0.04 0.04 0.13436zm39.095-0.02-0.04-0.13436 0.13435-0.0406 0.0406 0.13505zm12.226-0.0703-0.13366-0.0434 0.0434-0.13367 0.13367 0.0434zm-39.095-0.0186-0.13367-0.0434 0.0427-0.13367 0.13436 0.0434zm-12.367-0.36242-0.0407-0.13505 0.13505-0.04 0.04 0.13436zm39.095-0.02-0.04-0.13436 0.13436-0.0406 0.0406 0.13504zm12.519-0.0668-0.13436-0.0434 0.0434-0.13367 0.13435 0.0434zm-39.096-0.0186-0.13368-0.0434 0.0434-0.13367 0.13367 0.0434zm-12.66-0.36587-0.0406-0.13505 0.13504-0.04 0.04 0.13436zm39.095-0.02-0.04-0.13436 0.13436-0.0406 0.0406 0.13505zm12.812-0.0634-0.13367-0.0434 0.0434-0.13436 0.13367 0.0434zm-39.096-0.0186-0.13367-0.0434 0.0434-0.13367 0.13367 0.0434zm-12.953-0.37001-0.04-0.13436 0.13436-0.0406 0.0407 0.13503zm39.095-0.0193-0.04-0.13436 0.13436-0.0406 0.0406 0.13505zm13.105-0.0606-0.13368-0.0434 0.0434-0.13367 0.13367 0.0434zm-39.095-0.0186-0.13367-0.0434 0.0434-0.13367 0.13367 0.0434zm-13.246-0.37276-0.04-0.13435 0.13436-0.0407 0.0406 0.13505zm39.096-0.0193-0.0406-0.13436 0.13436-0.0406 0.0406 0.13505zm13.397-0.0599-0.13505-0.0386 0.0379-0.13505 0.13573 0.0379zm-39.096-0.0186-0.13505-0.0386 0.0379-0.13505 0.13504 0.0379zm-13.539-0.37344-0.04-0.13436 0.13436-0.0406 0.0406 0.13504zm39.096-0.0193-0.0406-0.13504 0.13505-0.04 0.04 0.13436zm13.672-0.062-0.13505-0.0386 0.0379-0.13505 0.13574 0.0379zm-39.096-0.0193-0.13505-0.0379 0.0379-0.13505 0.13504 0.0379zm-13.813-0.37069-0.04-0.13436 0.13436-0.0407 0.0406 0.13505zm39.096-0.0193-0.0406-0.13505 0.13505-0.04 0.04 0.13436zm13.947-0.0648-0.13505-0.0379 0.0379-0.13574 0.13573 0.0386zm-39.096-0.0186-0.13505-0.0379 0.0379-0.13574 0.13574 0.0386zm-14.088-0.36862-0.04-0.13436 0.13436-0.0406 0.0406 0.13435zm39.096-0.0193-0.0407-0.13504 0.13505-0.04 0.04 0.13436zm14.222-0.0668-0.13505-0.0379 0.0379-0.13573 0.13573 0.0386zm-39.096-0.0186-0.13505-0.0386 0.0379-0.13505 0.13573 0.0379zm-14.363-0.36656-0.04-0.13505 0.13436-0.04 0.0406 0.13436zm39.096-0.0193-0.04-0.13504 0.13436-0.04 0.0406 0.13436zm14.497-0.0689-0.13505-0.0386 0.0379-0.13505 0.13573 0.0379zm-39.096-0.0186-0.13504-0.0386 0.0379-0.13505 0.13574 0.0379zm-14.638-0.36449-0.0406-0.13505 0.13436-0.04 0.0406 0.13436zm39.095-0.02-0.04-0.13436 0.13435-0.04 0.0406 0.13436zm14.772-0.071-0.13505-0.0379 0.0379-0.13504 0.13573 0.0379zm-39.096-0.0186-0.13505-0.0379 0.0379-0.13574 0.13574 0.0386zm-14.911-0.36449-0.0372-0.13574 0.13573-0.0365 0.0372 0.13574zm39.096-0.0193-0.0365-0.13573 0.13505-0.0365 0.0372 0.13505zm15.045-0.071-0.13505-0.0379 0.0379-0.13574 0.13573 0.0386zm-39.096-0.0186-0.13505-0.0379 0.0379-0.13574 0.13573 0.0386zm-15.174-0.36587-0.0365-0.13573 0.13574-0.0365 0.0365 0.13573zm39.096-0.0193-0.0365-0.13574 0.13574-0.0372 0.0365 0.13573zm15.307-0.0696-0.13505-0.0386 0.0379-0.13504 0.13573 0.0386zm-39.096-0.0186-0.13504-0.0386 0.0379-0.13505 0.13574 0.0379zm-15.436-0.36725-0.0365-0.13574 0.13574-0.0372 0.0365 0.13573zm39.096-0.02-0.0365-0.13574 0.13574-0.0365 0.0365 0.13574zm15.57-0.0675-0.13505-0.0386 0.0379-0.13505 0.13574 0.0379zm-39.096-0.0193-0.13505-0.0379 0.0379-0.13505 0.13574 0.0379zm-15.698-0.36862-0.0372-0.13574 0.13573-0.0365 0.0372 0.13574zm39.096-0.0193-0.0372-0.13573 0.13573-0.0365 0.0365 0.13573zm15.832-0.0668-0.13505-0.0379 0.0379-0.13505 0.13574 0.0379zm-39.096-0.0186-0.13505-0.0379 0.0379-0.13574 0.13574 0.0386zm-15.96-0.37001-0.0365-0.13573 0.13574-0.0365 0.0365 0.13573zm39.096-0.0193-0.0372-0.13574 0.13574-0.0365 0.0372 0.13505zm16.094-0.0655-0.13505-0.0379 0.0379-0.13574 0.13573 0.0386zm-39.096-0.0186-0.13504-0.0379 0.0379-0.13573 0.13574 0.0386zm-16.222-0.37138-0.0372-0.13574 0.13574-0.0365 0.0365 0.13505zm39.095-0.0193-0.0365-0.13574 0.13505-0.0372 0.0372 0.13574zm16.357-0.0641-0.13504-0.0386 0.0379-0.13505 0.13574 0.0379zm-39.096-0.0186-0.13504-0.0386 0.0386-0.13505 0.13505 0.0379zm-16.485-0.37345-0.0365-0.13505 0.13574-0.0372 0.0365 0.13574zm39.095-0.0193-0.0365-0.13573 0.13574-0.0365 0.0365 0.13574zm16.617-0.0641-0.13643-0.0358 0.0365-0.13643 0.13574 0.0358zm-39.096-0.0186-0.13574-0.0365 0.0358-0.13574 0.13643 0.0358zm-16.745-0.37276-0.0365-0.13573 0.13573-0.0365 0.0365 0.13574zm39.095-0.0193-0.0365-0.13574 0.13574-0.0365 0.0365 0.13573zm16.871-0.0655-0.13574-0.0358 0.0358-0.13573 0.13574 0.0358zm-39.096-0.0186-0.13574-0.0358 0.0358-0.13573 0.13574 0.0358zm-16.999-0.37138-0.0372-0.13574 0.13574-0.0365 0.0372 0.13573zm39.095-0.0193-0.0372-0.13574 0.13574-0.0372 0.0365 0.13574zm17.126-0.0661-0.13643-0.0358 0.0365-0.13573 0.13574 0.0358zm-39.096-0.0186-0.13574-0.0358 0.0358-0.13643 0.13574 0.0365zm-17.254-0.37069-0.0365-0.13574 0.13574-0.0372 0.0365 0.13574zm39.095-0.02-0.0372-0.13505 0.13573-0.0372 0.0372 0.13574zm17.38-0.0662-0.13574-0.0365 0.0358-0.13574 0.13573 0.0358zm-39.096-0.0193-0.13574-0.0358 0.0358-0.13574 0.13643 0.0358zm-17.507-0.37001-0.0372-0.13573 0.13573-0.0365 0.0365 0.13573zm39.094-0.0193-0.0365-0.13574 0.13505-0.0365 0.0372 0.13574zm17.635-0.0675-0.13642-0.0358 0.0365-0.13574 0.13573 0.0358zm-39.096-0.0186-0.13574-0.0358 0.0358-0.13573 0.13574 0.0358zm-17.762-0.36931-0.0365-0.13574 0.13574-0.0365 0.0365 0.13574zm39.094-0.0193-0.0365-0.13574 0.13574-0.0365 0.0365 0.13574zm17.889-0.0682-0.13573-0.0358 0.0358-0.13642 0.13573 0.0358zm-39.095-0.0186-0.13642-0.0358 0.0365-0.13642 0.13573 0.0358zm-18.017-0.36862-7e-4 -4e-3 -0.0351-0.13298 0.13642-0.0351 0.0345 0.13229 7.1e-4 3e-3zm39.094-0.02-0.0358-0.13573 0.13642-0.0358 0.0358 0.13574zm18.144-0.0689-0.13573-0.0358 0.0358-0.13573 0.13574 0.0358zm-39.096-0.0186-0.13573-0.0358 0.0358-0.13574 0.13643 0.0358zm-18.267-0.36931-0.0358-0.13574 0.13574-0.0358 0.0358 0.13574zm39.094-0.0193-0.0358-0.13573 0.13643-0.0358 0.0351 0.13573zm18.394-0.0682-0.13574-0.0358 0.0358-0.13642 0.13573 0.0365zm-39.095-0.0186-0.13573-0.0358 0.0358-0.13574 0.13573 0.0358zm-18.519-0.37-0.0351-0.13574 0.13573-0.0358 0.0358 0.13643zm39.095-0.0193-0.0358-0.13574 0.13574-0.0358 0.0358 0.13642zm18.645-0.0682-0.13574-0.0358 0.0358-0.13574 0.13574 0.0358zm-39.095-0.0179-0.13642-0.0365 0.0365-0.13574 0.13573 0.0358zm-18.77-0.37-0.0358-0.13642 0.13642-0.0358 0.0358 0.13642zm39.094-0.0193-0.0351-0.13643 0.13574-0.0351 0.0358 0.13574zm18.896-0.0682-0.13574-0.0358 0.0358-0.13574 0.13574 0.0358zm-39.095-0.0186-0.13574-0.0358 0.0358-0.13573 0.13642 0.0358zm-19.02-0.37-0.0358-0.13574 0.13574-0.0358 0.0358 0.13574zm39.094-0.0193-0.0358-0.13574 0.13642-0.0358 0.0351 0.13574zm19.146-0.0675-0.13574-0.0365 0.0358-0.13573 0.13574 0.0358zm-39.095-0.0186-0.13574-0.0358 0.0358-0.13642 0.13573 0.0365zm-19.27-0.37072-0.0358-0.13574 0.13574-0.0358 0.0358 0.13574zm39.094-0.0193-0.0358-0.13573 0.13573-0.0358 0.0358 0.13573zm19.397-0.0675-0.13574-0.0358 0.0358-0.13574 0.13574 0.0358zm-39.094-0.0179-0.13643-0.0365 0.0365-0.13574 0.13574 0.0358zm-19.522-0.37138-0.0358-0.13573 0.13643-0.0358 0.0358 0.13642zm39.094-0.0186-0.0351-0.13642 0.13574-0.0358 0.0358 0.13642zm19.648-0.0675-0.13574-0.0358 9e-3 -0.0351 0.13574 0.0358zm-39.095-0.0186-0.13574-0.0358 0.0358-0.13574 0.13574 0.0358zm-39.096-0.0207-0.13574-0.0358 0.03583-0.13574 0.13574 0.0358zm19.324-0.35003-0.0358-0.13642 0.13573-0.0351 0.0358 0.13574zm39.094-0.0193-0.0358-0.13642 0.13643-0.0351 0.0351 0.13573zm-19.196-0.0854-0.13574-0.0358 0.0358-0.13642 0.13574 0.0365zm-39.096-0.0207-0.13574-0.0358 0.03583-0.13643 0.13574 0.0365zm19.073-0.35071-0.0358-0.13574 0.13574-0.0358 0.0358 0.13574zm39.094-0.0193-0.0358-0.13574 0.13573-0.0358 0.0358 0.13574zm-18.945-0.0854-0.13643-0.0358 0.0365-0.13574 0.13574 0.0358zm-39.096-0.0207-0.13574-0.0358 0.03583-0.13574 0.13643 0.0358zm18.822-0.35071-0.0351-0.13574 0.13574-0.0358 0.0358 0.13574zm39.095-0.0193-0.0358-0.13573 0.13574-0.0358 0.0358 0.13642zm-18.695-0.0848-0.13574-0.0358 0.0358-0.13574 0.13574 0.0358zm-39.096-0.0207-0.13574-0.0358 0.03583-0.13574 0.13574 0.0358zm18.571-0.35071-0.0358-0.13642 0.13643-0.0358 0.0351 0.13642zm39.094-0.0193-0.0358-0.13643 0.13643-0.0358 0.0358 0.13643zm-18.444-0.0847-0.13574-0.0365 0.0358-0.13573 0.13574 0.0358zm-39.096-0.0207-0.13643-0.0358 0.03652-0.13642 0.13574 0.0358zm18.32-0.3514-0.0358-0.13642 0.13573-0.0351 0.0358 0.13573zm39.094-0.0193-0.0358-0.13574 0.13574-0.0358 0.0358 0.13574zm-18.193-0.0847-0.13642-0.0358 0.0358-0.13574 0.13643 0.0358zm-39.096-0.0207-0.13574-0.0358 0.03583-0.13574 0.13642 0.0358zm18.07-0.3514-0.0351-0.13574 0.13573-0.0358 0.0358 0.13574zm39.095-0.0193-0.0358-0.13574 0.13574-0.0358 0.0358 0.13574zm-17.943-0.0841-0.13573-0.0358 0.0358-0.13643 0.13574 0.0365zm-39.096-0.0207-0.13574-0.0358 0.03583-0.13574 0.13574 0.0358zm17.817-0.35072-0.0372-0.13573 0.13574-0.0365 0.0372 0.13505zm39.094-0.0193-0.0372-0.13574 0.13574-0.0365 0.0372 0.13573zm-17.69-0.0848-0.13573-0.0365 0.0358-0.13573 0.13573 0.0358zm-39.096-0.0207-0.13642-0.0365 0.03652-0.13573 0.13574 0.0358zm17.562-0.35002-0.0365-0.13574 0.13505-0.0372 0.0372 0.13573zm39.094-0.0193-0.0365-0.13574 0.13574-0.0372 0.0365 0.13574zm-17.436-0.0861-0.13574-0.0358 0.0358-0.13574 0.13642 0.0358zm-39.096-0.0207-0.13574-0.0358 0.03583-0.13574 0.13643 0.0358zm17.308-0.34933-0.0365-0.13574 0.13574-0.0365 0.0365 0.13574zm39.094-0.0193-0.0365-0.13573 0.13573-0.0365 0.0365 0.13574zm-17.181-0.0861-0.13574-0.0358 0.0358-0.13643 0.13573 0.0365zm-39.096-0.0207-0.13574-0.0358 0.03583-0.13643 0.13574 0.0365zm17.053-0.34865-0.0365-0.13573 0.13573-0.0365 0.0365 0.13574zm39.094-0.0193-0.0365-0.13574 0.13574-0.0365 0.0365 0.13573zm-16.926-0.0875-0.13574-0.0358 0.0358-0.13574 0.13573 0.0358zm-39.096-0.0207-0.13643-0.0358 0.03652-0.13574 0.13574 0.0358zm16.798-0.34727-0.0365-0.13574 0.13574-0.0372 0.0365 0.13573zm39.095-0.0193-0.0372-0.13574 0.13573-0.0365 0.0372 0.13505zm-16.672-0.0882-0.13574-0.0358 0.0358-0.13573 0.13643 0.0358zm-39.096-0.0207-0.13574-0.0358 0.03583-0.13573 0.13574 0.0358zm16.545-0.34657-0.0372-0.13574 0.13574-0.0372 0.0372 0.13574zm39.094-0.0193-0.0365-0.13573 0.13505-0.0372 0.0372 0.13574zm-16.417-0.0889-0.13574-0.0365 0.0358-0.13574 0.13573 0.0358zm-39.096-0.0207-0.13574-0.0358 0.03583-0.13642 0.13574 0.0358zm16.29-0.34658-0.0365-0.13573 0.13504-0.0365 0.0372 0.13574zm39.094-0.0193-0.0365-0.13574 0.13574-0.0365 0.0365 0.13573zm-16.159-0.0868-0.13504-0.0386 0.0379-0.13505 0.13574 0.0379zm-39.095-0.0207-0.13574-0.0386 0.03859-0.13505 0.13505 0.0379zm16.031-0.34795-0.0365-0.13574 0.13574-0.0365 0.0365 0.13574zm39.094-0.0193-0.0365-0.13574 0.13573-0.0365 0.0365 0.13574zm-15.896-0.0861-0.13505-0.0379 0.0379-0.13573 0.13574 0.0386zm-39.095-0.02-0.13574-0.0386 0.03858-0.13505 0.13505 0.0379zm15.768-0.34934-0.0365-0.13573 0.13574-0.0372 0.0365 0.13574zm39.095-0.0193-0.0372-0.13574 0.13573-0.0372 0.0372 0.13573zm-15.635-0.0848-0.13505-0.0379 0.0379-0.13573 0.13574 0.0386zm-39.095-0.0207-0.13574-0.0379 0.03858-0.13574 0.13505 0.0386zm15.506-0.35071-0.0372-0.13505 0.13573-0.0372 0.0365 0.13573zm39.094-0.0193-0.0365-0.13505 0.13505-0.0372 0.0372 0.13574zm-15.372-0.0827-0.13504-0.0386 0.0379-0.13505 0.13574 0.0379zm-39.095-0.0207-0.13574-0.0379 0.03858-0.13574 0.13505 0.0386zm15.244-0.35208-0.0372-0.13574 0.13574-0.0365 0.0372 0.13574zm39.094-0.0193-0.0365-0.13573 0.13574-0.0365 0.0365 0.13573zm-15.11-0.082-0.13505-0.0379 0.0379-0.13504 0.13574 0.0379zm-39.095-0.02-0.13574-0.0386 0.03859-0.13504 0.13505 0.0379zm14.981-0.35347-0.0365-0.13574 0.13505-0.0365 0.0372 0.13573zm39.094-0.0193-0.0365-0.13574 0.13573-0.0365 0.0365 0.13574zm-14.847-0.0806-0.13505-0.0379 0.0379-0.13574 0.13574 0.0386zm-39.095-0.0207-0.13505-0.0379 0.0379-0.13505 0.13505 0.0379zm14.715-0.3514-0.04-0.13504 0.13436-0.04 0.0406 0.13436zm39.094-0.0193-0.0406-0.13436 0.13505-0.0406 0.04 0.13505zm-14.581-0.082-0.13505-0.0386 0.0379-0.13505 0.13574 0.0386zm-39.095-0.0207-0.13505-0.0379 0.0379-0.13574 0.13505 0.0386zm14.44-0.34934-0.04-0.13504 0.13436-0.04 0.0406 0.13436zm39.094-0.0193-0.0407-0.13436 0.13505-0.0406 0.04 0.13436zm-14.306-0.0841-0.13505-0.0386 0.0379-0.13505 0.13574 0.0379zm-39.095-0.0207-0.13505-0.0379 0.0379-0.13574 0.13505 0.0386zm14.166-0.34726-0.04-0.13505 0.13436-0.04 0.0406 0.13436zm39.094-0.0193-0.0407-0.13505 0.13505-0.04 0.04 0.13436zm-14.031-0.0868-0.13505-0.0379 0.0379-0.13505 0.13573 0.0379zm-39.095-0.02-0.13505-0.0386 0.0379-0.13505 0.13505 0.0379zm13.891-0.34519-0.03996-0.13505 0.13436-0.04 0.0406 0.13435zm39.094-0.0193-0.04-0.13504 0.13436-0.04 0.0406 0.13436zm-13.756-0.0889-0.13505-0.0379 0.0379-0.13573 0.13574 0.0386zm-39.095-0.0207-0.13505-0.0379 0.0379-0.13504 0.13505 0.0379zm13.616-0.34313-0.04065-0.13436 0.13436-0.0406 0.04065 0.13505zm39.094-0.0186-0.04-0.13505 0.13436-0.04 0.0407 0.13435zm-13.481-0.0909-0.13505-0.0386 0.0379-0.13505 0.13574 0.0379zm-39.095-0.0207-0.13505-0.0379 0.0379-0.13574 0.13574 0.0386zm13.341-0.34107-0.04065-0.13436 0.13505-0.0406 0.03996 0.13505zm39.094-0.0186-0.04-0.13505 0.13436-0.04 0.0407 0.13436zm-13.206-0.093-0.13505-0.0386 0.0227-0.0799 0.0186-0.0572 0.13367 0.0434-0.0179 0.0544zm-39.095-0.0207-0.13505-0.0386 0.01723-0.0606 0.02481-0.0758 0.13367 0.0434-0.02412 0.073zm13.067-0.33899-0.04065-0.13436 0.13505-0.0406 0.03996 0.13504zm39.094-0.0186-0.04-0.13505 0.13435-0.04 0.0407 0.13436zm-12.917-0.0882-0.13367-0.0434 0.0434-0.13366 0.13367 0.0434zm-39.094-0.0207-0.13367-0.0434 0.04341-0.13367 0.13367 0.0434zm12.776-0.34382-0.04065-0.13436 0.13505-0.0406 0.03996 0.13505zm39.094-0.0193-0.04-0.13436 0.13436-0.0406 0.0406 0.13505zm-12.624-0.0847-0.13367-0.0434 0.0434-0.13368 0.13367 0.0434zm-39.094-0.02-0.13367-0.0434 0.04341-0.13367 0.13367 0.0434zm12.484-0.34727-0.03996-0.13436 0.13436-0.0406 0.04065 0.13505zm39.094-0.0193-0.0406-0.13436 0.13436-0.0406 0.0406 0.13505zm-12.331-0.0813-0.13367-0.0434 0.0434-0.13367 0.13367 0.0434zm-39.094-0.02-0.13367-0.0434 0.04341-0.13367 0.13367 0.0434zm12.19-0.35071-0.03996-0.13505 0.13436-0.04 0.04065 0.13436zm39.094-0.0193-0.0406-0.13435 0.13436-0.0407 0.0406 0.13505zm-12.039-0.0779-0.13367-0.0434 0.0434-0.13366 0.13367 0.0434zm-39.094-0.02-0.13367-0.0434 0.04341-0.13436 0.13367 0.0434zm11.897-0.35416-0.03996-0.13505 0.13436-0.04 0.04065 0.13436zm39.094-0.0193-0.0406-0.13436 0.13505-0.0406 0.04 0.13505zm-11.746-0.0744-0.13366-0.0434 0.0434-0.13367 0.13367 0.0427zm-39.094-0.0207-0.13367-0.0434 0.04341-0.13367 0.13367 0.0434zm11.6-0.3514-0.04754-0.13229 0.13229-0.0475 0.04754 0.13229zm39.093-0.0186-0.0475-0.13229 0.13229-0.0476 0.0476 0.1323zm-11.446-0.0779-0.13367-0.0434 0.0434-0.13367 0.13368 0.0434zm-39.094-0.02-0.13367-0.0434 0.04341-0.13367 0.13367 0.0434zm11.281-0.34658-0.04754-0.13229 0.13229-0.0475 0.04754 0.13229zm39.093-0.0186-0.0475-0.13229 0.13229-0.0475 0.0475 0.13229zm-11.128-0.0827-0.13367-0.0434 0.0434-0.13367 0.13367 0.0434zm-39.094-0.02-0.13367-0.0434 0.04341-0.13368 0.13367 0.0434zm10.962-0.34175-0.04754-0.13229 0.13229-0.0475 0.04754 0.13229zm39.093-0.0186-0.0475-0.1323 0.13229-0.0475 0.0475 0.13229zm-10.809-0.0875-0.13435-0.0434 0.0434-0.13367 0.13368 0.0434zm-39.095-0.0207-0.13367-0.0434 0.04341-0.13367 0.13367 0.0434zm10.644-0.33625-0.04754-0.13229 0.13229-0.0475 0.04754 0.13229zm39.093-0.0186-0.0476-0.13229 0.13229-0.0475 0.0476 0.13229zm-10.49-0.093-0.13367-0.0434 0.0434-0.13367 0.13367 0.0434zm-39.094-0.02-0.13367-0.0434 0.04341-0.13367 0.13367 0.0434zm10.325-0.33142-0.04754-0.1316 0.13229-0.0482 0.04754 0.13229zm39.093-0.0186-0.0475-0.1323 0.13229-0.0475 0.0475 0.13229zm-10.172-0.0978-0.13367-0.0434 0.0434-0.13367 0.13367 0.0434zm-39.094-0.02-0.13367-0.0434 0.04341-0.13367 0.13367 0.0434zm10.007-0.32591-0.04754-0.13229 0.13229-0.0475 0.04754 0.1316zm39.093-0.0193-0.0475-0.1323 0.13229-0.0475 0.0475 0.13229zm-9.8364-0.091-0.12953-0.0531 0.053-0.13023 0.13023 0.0538zm-39.093-0.0193-0.12954-0.0538 0.05305-0.13022 0.13022 0.0537zm9.6697-0.33348-0.04754-0.1323 0.13229-0.0475 0.04754 0.13229zm39.093-0.0186-0.0476-0.13229 0.1323-0.0482 0.0475 0.13229zm-9.4823-0.0834-0.13023-0.0537 0.0538-0.12954 0.13022 0.0531zm-39.093-0.02-0.13022-0.053 0.05374-0.13022 0.13022 0.0537zm9.3155-0.34106-0.04754-0.13229 0.13229-0.0475 0.04754 0.13229zm39.093-0.0186-0.0475-0.13229 0.13229-0.0475 0.0476 0.1316zm-9.1281-0.0751-0.13023-0.0537 0.0538-0.13023 0.13022 0.0537zm-39.093-0.02-0.13022-0.0537 0.05374-0.12954 0.13022 0.0531zm8.9614-0.34933-0.04754-0.13229 0.13229-0.0476 0.04754 0.1323zm39.093-0.0186-0.0475-0.13229 0.13229-0.0475 0.0475 0.13229zm-8.774-0.0675-0.13022-0.053 0.0537-0.13023 0.12954 0.0538zm-39.093-0.0193-0.13022-0.0537 0.05374-0.13022 0.13022 0.0537zm8.6072-0.3576-0.02205-0.0606-0.02963-0.0613 0.12609-0.062 0.03376 0.0682 0.02412 0.0682zm39.093-0.0186-0.0158-0.0434-0.0379-0.0779 0.12609-0.062 0.042 0.0847 0.0179 0.051zm-8.4198-0.0593-0.13023-0.0537 0.0537-0.13023 0.12953 0.0537zm-39.093-0.02-0.13022-0.053 0.05374-0.13023 0.13022 0.0538zm8.2138-0.33968-0.06201-0.12609 0.12609-0.062 0.06201 0.12609zm39.091-0.0179-0.062-0.12609 0.1261-0.062 0.062 0.12609zm-8.025-0.0778-0.12954-0.0531 0.0531-0.13022 0.13022 0.0537zm-39.092-0.0193-0.13022-0.0537 0.05374-0.12954 0.13022 0.0531zm7.8093-0.32729-0.06132-0.12609 0.12609-0.062 0.06201 0.12678zm39.091-0.0179-0.0613-0.12609 0.12609-0.062 0.062 0.12678zm-7.6206-0.0903-0.12953-0.0537 0.053-0.12954 0.13023 0.0531zm-39.092-0.0193-0.13022-0.0537 0.05374-0.13023 0.13022 0.0538zm7.4056-0.31419-0.06132-0.12609 0.12609-0.062 0.06201 0.12609zm39.091-0.0179-0.0613-0.12609 0.12609-0.062 0.062 0.12609zm-7.2168-0.10336-0.12954-0.0537 0.053-0.13022 0.13023 0.0537zm-39.092-0.02-0.13022-0.0531 0.05374-0.13022 0.12954 0.0537zm7.0018-0.30041-0.06132-0.12679 0.12609-0.0613 0.06201 0.12609zm39.091-0.0179-0.062-0.12608 0.12678-0.062 0.0613 0.12609zm-6.8054-0.0999-0.11989-0.0737 0.0744-0.11989 0.1192 0.0737zm-39.089-0.0179-0.1192-0.0737 0.07372-0.11989 0.1192 0.0737zm6.5877-0.30661-0.06132-0.12609 0.12609-0.062 0.06201 0.12678zm39.091-0.0172-0.062-0.12677 0.12609-0.0613 0.062 0.12609zm-6.3307-0.0772-0.11989-0.0737 0.0737-0.11989 0.11989 0.0737zm-39.089-0.0179-0.11989-0.0737 0.07373-0.11989 0.11989 0.0737zm6.113-0.32935-0.06132-0.12609 0.12609-0.062 0.06201 0.12609zm39.091-0.0179-0.062-0.12609 0.12609-0.062 0.062 0.12609zm-5.8567-0.0537-0.1192-0.0737 0.0737-0.11988 0.1192 0.0737zm-39.089-0.0179-0.1192-0.0737 0.07373-0.11989 0.1192 0.0737zm5.6389-0.35209-0.06132-0.12678 0.12609-0.0613 0.06132 0.12609zm39.091-0.0179-0.062-0.12609 0.12609-0.062 0.062 0.12609zm-5.3819-0.031-0.11989-0.0737 0.0737-0.11989 0.11989 0.0737zm-39.089-0.0179-0.11989-0.0737 0.07372-0.11989 0.11989 0.0737zm5.1091-0.31833-0.09095-0.10749 0.10749-0.0909 0.09095 0.10748zm39.087-0.0152-0.0909-0.10679 0.1068-0.0916 0.0909 0.10748zm-4.8479-0.0675-0.11989-0.0737 0.0737-0.11988 0.11989 0.0737zm-39.089-0.0179-0.11989-0.0737 0.07372-0.11989 0.11989 0.0737zm4.5324-0.27423-0.09095-0.10749 0.1068-0.091 0.09095 0.10749zm39.086-0.0152-0.0909-0.10749 0.10749-0.091 0.0909 0.10749zm-4.2712-0.11162-0.1192-0.0737 0.0737-0.11988 0.1192 0.0737zm-39.089-0.0179-0.1192-0.0737 0.07372-0.11989 0.1192 0.0737zm3.9563-0.23082-0.09164-0.1068 0.10749-0.0909 0.09095 0.10679zm39.086-0.0145-0.091-0.10749 0.1068-0.0909 0.0909 0.1068zm-3.6966-0.1192-0.0813-0.11437 0.11438-0.082 0.082 0.11438zm-39.083-0.0124-0.08131-0.11437 0.11438-0.082 0.08131 0.11438zm3.3748-0.22875-0.09095-0.1068 0.10749-0.091 0.09095 0.1068zm39.087-0.0152-0.0909-0.1068 0.10679-0.091 0.091 0.1068zm-2.9772-0.0296-0.082-0.11438 0.11438-0.082 0.082 0.11438zm-39.083-0.0124-0.08199-0.11438 0.11438-0.0813 0.08199 0.11437zm39.484-0.27354-0.0813-0.11438 0.11438-0.082 0.0813 0.11506zm-39.083-0.0124-0.08199-0.11438 0.11438-0.0813 0.08199 0.11438zm2.2552-0.0317-0.07372-0.0861 0.0186 4e-3 0.03238-0.13711 0.02687 7e-3 0.10266 0.12126zm39.086-0.0152-0.0606-0.071-7.1e-4 -7e-4 0.0324-0.13643 0.0462 0.011 0.0903 0.10611zm-39.483-0.14883-0.13711-0.0324 0.03238-0.13643 0.13711 0.0324zm39.08-4e-3 -0.13712-0.0331 0.033-0.13643 0.13643 0.0324zm-1.4545-0.0737-0.0813-0.11438 0.11438-0.0813 0.0813 0.11438zm-39.083-0.0124-0.08131-0.11438 0.11438-0.0813 0.0813 0.11438zm0.9791-0.0234-0.13643-0.0331 0.03239-0.13642 0.13643 0.0324zm39.08-5e-3 -0.13643-0.0331 0.0324-0.13642 0.13711 0.0324zm-39.559-0.10955-0.13643-0.0331 0.03238-0.13642 0.13712 0.0324zm39.08-5e-3 -0.13712-0.0331 0.0331-0.13642 0.13642 0.0324z" color="#000000" color-rendering="auto" dominant-baseline="auto" image-rendering="auto" solid-color="#000000" stop-color="#000000" style="font-feature-settings:normal;font-variant-alternates:normal;font-variant-caps:normal;font-variant-east-asian:normal;font-variant-ligatures:normal;font-variant-numeric:normal;font-variant-position:normal;font-variation-settings:normal;inline-size:0;isolation:auto;mix-blend-mode:normal;shape-margin:0;shape-padding:0;text-decoration-color:#000000;text-decoration-line:none;text-decoration-style:solid;text-indent:0;text-orientation:mixed;text-transform:none;white-space:normal"/><g transform="matrix(.35278 0 0 -.35278 83.364 162.07)"><path d="m0.99512 67.256c0 0.55078-0.44531 0.99609-0.99609 0.99609-0.55078 0-0.99609-0.44531-0.99609-0.99609s0.44531-0.99609 0.99609-0.99609c0.55078 0 0.99609 0.44531 0.99609 0.99609z" color="#000000" color-rendering="auto" dominant-baseline="auto" image-rendering="auto" solid-color="#000000" stop-color="#000000" style="font-feature-settings:normal;font-variant-alternates:normal;font-variant-caps:normal;font-variant-east-asian:normal;font-variant-ligatures:normal;font-variant-numeric:normal;font-variant-position:normal;font-variation-settings:normal;inline-size:0;isolation:auto;mix-blend-mode:normal;shape-margin:0;shape-padding:0;text-decoration-color:#000000;text-decoration-line:none;text-decoration-style:solid;text-indent:0;text-orientation:mixed;text-transform:none;white-space:normal"/><path d="m0 65.861c-0.76558 0-1.3965 0.62895-1.3965 1.3945 0 0.76558 0.63091 1.3945 1.3965 1.3945 0.76558 0 1.3945-0.62895 1.3945-1.3945 0-0.76558-0.62895-1.3945-1.3945-1.3945zm0 0.79688c0.33598 0 0.5957 0.26167 0.5957 0.59766 0 0.33598-0.25972 0.59766-0.5957 0.59766-0.33598 0-0.59766-0.26167-0.59766-0.59766 0-0.33598 0.26167-0.59766 0.59766-0.59766z" color="#000000" color-rendering="auto" dominant-baseline="auto" image-rendering="auto" solid-color="#000000" stop-color="#000000" style="font-feature-settings:normal;font-variant-alternates:normal;font-variant-caps:normal;font-variant-east-asian:normal;font-variant-ligatures:normal;font-variant-numeric:normal;font-variant-position:normal;font-variation-settings:normal;inline-size:0;isolation:auto;mix-blend-mode:normal;shape-margin:0;shape-padding:0;text-decoration-color:#000000;text-decoration-line:none;text-decoration-style:solid;text-indent:0;text-orientation:mixed;text-transform:none;white-space:normal"/><path d="m9.8623 99.72c0 0.55078-0.44531 0.99609-0.99609 0.99609-0.55078 0-0.99609-0.44531-0.99609-0.99609s0.44531-0.99609 0.99609-0.99609c0.55078 0 0.99609 0.44531 0.99609 0.99609z" color="#000000" color-rendering="auto" dominant-baseline="auto" image-rendering="auto" solid-color="#000000" stop-color="#000000" style="font-feature-settings:normal;font-variant-alternates:normal;font-variant-caps:normal;font-variant-east-asian:normal;font-variant-ligatures:normal;font-variant-numeric:normal;font-variant-position:normal;font-variation-settings:normal;inline-size:0;isolation:auto;mix-blend-mode:normal;shape-margin:0;shape-padding:0;text-decoration-color:#000000;text-decoration-line:none;text-decoration-style:solid;text-indent:0;text-orientation:mixed;text-transform:none;white-space:normal"/><path d="m8.8672 98.326c-0.76558 0-1.3965 0.62895-1.3965 1.3945 0 0.76558 0.63091 1.3945 1.3965 1.3945 0.76558 0 1.3945-0.62895 1.3945-1.3945 0-0.76558-0.62895-1.3945-1.3945-1.3945zm0 0.79688c0.33598 0 0.5957 0.26167 0.5957 0.59766 0 0.33599-0.25972 0.59766-0.5957 0.59766-0.33599 0-0.59766-0.26167-0.59766-0.59766 0-0.33598 0.26167-0.59766 0.59766-0.59766z" color="#000000" color-rendering="auto" dominant-baseline="auto" image-rendering="auto" solid-color="#000000" stop-color="#000000" style="font-feature-settings:normal;font-variant-alternates:normal;font-variant-caps:normal;font-variant-east-asian:normal;font-variant-ligatures:normal;font-variant-numeric:normal;font-variant-position:normal;font-variation-settings:normal;inline-size:0;isolation:auto;mix-blend-mode:normal;shape-margin:0;shape-padding:0;text-decoration-color:#000000;text-decoration-line:none;text-decoration-style:solid;text-indent:0;text-orientation:mixed;text-transform:none;white-space:normal"/><path d="m18.73 124.15c0 0.55078-0.44531 0.99609-0.99609 0.99609s-0.99609-0.44531-0.99609-0.99609c0-0.55079 0.44531-0.9961 0.99609-0.9961s0.99609 0.44531 0.99609 0.9961z" color="#000000" color-rendering="auto" dominant-baseline="auto" image-rendering="auto" solid-color="#000000" stop-color="#000000" style="font-feature-settings:normal;font-variant-alternates:normal;font-variant-caps:normal;font-variant-east-asian:normal;font-variant-ligatures:normal;font-variant-numeric:normal;font-variant-position:normal;font-variation-settings:normal;inline-size:0;isolation:auto;mix-blend-mode:normal;shape-margin:0;shape-padding:0;text-decoration-color:#000000;text-decoration-line:none;text-decoration-style:solid;text-indent:0;text-orientation:mixed;text-transform:none;white-space:normal"/><path d="m17.734 122.76c-0.76558 0-1.3965 0.62895-1.3965 1.3945s0.63091 1.3945 1.3965 1.3945 1.3945-0.62895 1.3945-1.3945-0.62895-1.3945-1.3945-1.3945zm0 0.79687c0.33598 0 0.5957 0.26168 0.5957 0.59766s-0.25972 0.59766-0.5957 0.59766-0.59766-0.26168-0.59766-0.59766 0.26167-0.59766 0.59766-0.59766z" color="#000000" color-rendering="auto" dominant-baseline="auto" image-rendering="auto" solid-color="#000000" stop-color="#000000" style="font-feature-settings:normal;font-variant-alternates:normal;font-variant-caps:normal;font-variant-east-asian:normal;font-variant-ligatures:normal;font-variant-numeric:normal;font-variant-position:normal;font-variation-settings:normal;inline-size:0;isolation:auto;mix-blend-mode:normal;shape-margin:0;shape-padding:0;text-decoration-color:#000000;text-decoration-line:none;text-decoration-style:solid;text-indent:0;text-orientation:mixed;text-transform:none;white-space:normal"/><path d="m27.597 134.51c0 0.55078-0.44531 0.99609-0.99609 0.99609-0.55078 0-0.99609-0.44531-0.99609-0.99609s0.44531-0.99609 0.99609-0.99609c0.55078 0 0.99609 0.44531 0.99609 0.99609z" color="#000000" color-rendering="auto" dominant-baseline="auto" image-rendering="auto" solid-color="#000000" stop-color="#000000" style="font-feature-settings:normal;font-variant-alternates:normal;font-variant-caps:normal;font-variant-east-asian:normal;font-variant-ligatures:normal;font-variant-numeric:normal;font-variant-position:normal;font-variation-settings:normal;inline-size:0;isolation:auto;mix-blend-mode:normal;shape-margin:0;shape-padding:0;text-decoration-color:#000000;text-decoration-line:none;text-decoration-style:solid;text-indent:0;text-orientation:mixed;text-transform:none;white-space:normal"/><path d="m26.602 133.12c-0.76558 0-1.3965 0.62896-1.3965 1.3945 0 0.76557 0.63091 1.3945 1.3965 1.3945 0.76558 0 1.3945-0.62896 1.3945-1.3945 0-0.76558-0.62895-1.3945-1.3945-1.3945zm0 0.79688c0.33598 0 0.5957 0.26167 0.5957 0.59766 0 0.33598-0.25972 0.59765-0.5957 0.59765-0.33598 0-0.59766-0.26167-0.59766-0.59765 0-0.33599 0.26167-0.59766 0.59766-0.59766z" color="#000000" color-rendering="auto" dominant-baseline="auto" image-rendering="auto" solid-color="#000000" stop-color="#000000" style="font-feature-settings:normal;font-variant-alternates:normal;font-variant-caps:normal;font-variant-east-asian:normal;font-variant-ligatures:normal;font-variant-numeric:normal;font-variant-position:normal;font-variation-settings:normal;inline-size:0;isolation:auto;mix-blend-mode:normal;shape-margin:0;shape-padding:0;text-decoration-color:#000000;text-decoration-line:none;text-decoration-style:solid;text-indent:0;text-orientation:mixed;text-transform:none;white-space:normal"/><path d="m36.464 128.23c0 0.55078-0.44531 0.99609-0.99609 0.99609s-0.99609-0.44531-0.99609-0.99609c0-0.54687 0.44531-0.99609 0.99609-0.99609s0.99609 0.44922 0.99609 0.99609z" color="#000000" color-rendering="auto" dominant-baseline="auto" image-rendering="auto" solid-color="#000000" stop-color="#000000" style="font-feature-settings:normal;font-variant-alternates:normal;font-variant-caps:normal;font-variant-east-asian:normal;font-variant-ligatures:normal;font-variant-numeric:normal;font-variant-position:normal;font-variation-settings:normal;inline-size:0;isolation:auto;mix-blend-mode:normal;shape-margin:0;shape-padding:0;text-decoration-color:#000000;text-decoration-line:none;text-decoration-style:solid;text-indent:0;text-orientation:mixed;text-transform:none;white-space:normal"/><path d="m35.469 126.83c-0.76746 0-1.3965 0.63133-1.3965 1.3945 0 0.76557 0.63091 1.3945 1.3965 1.3945s1.3945-0.62896 1.3945-1.3945c0-0.76321-0.62707-1.3945-1.3945-1.3945zm0 0.79688c0.3341 0 0.5957 0.26711 0.5957 0.59766 0 0.33598-0.25972 0.59765-0.5957 0.59765s-0.59766-0.26167-0.59766-0.59765c0-0.33055 0.26356-0.59766 0.59766-0.59766z" color="#000000" color-rendering="auto" dominant-baseline="auto" image-rendering="auto" solid-color="#000000" stop-color="#000000" style="font-feature-settings:normal;font-variant-alternates:normal;font-variant-caps:normal;font-variant-east-asian:normal;font-variant-ligatures:normal;font-variant-numeric:normal;font-variant-position:normal;font-variation-settings:normal;inline-size:0;isolation:auto;mix-blend-mode:normal;shape-margin:0;shape-padding:0;text-decoration-color:#000000;text-decoration-line:none;text-decoration-style:solid;text-indent:0;text-orientation:mixed;text-transform:none;white-space:normal"/><path d="m45.331 106.86c0 0.55078-0.44531 0.99609-0.99609 0.99609-0.55078 0-0.99609-0.44531-0.99609-0.99609s0.44531-0.99609 0.99609-0.99609c0.55078 0 0.99609 0.44531 0.99609 0.99609z" color="#000000" color-rendering="auto" dominant-baseline="auto" image-rendering="auto" solid-color="#000000" stop-color="#000000" style="font-feature-settings:normal;font-variant-alternates:normal;font-variant-caps:normal;font-variant-east-asian:normal;font-variant-ligatures:normal;font-variant-numeric:normal;font-variant-position:normal;font-variation-settings:normal;inline-size:0;isolation:auto;mix-blend-mode:normal;shape-margin:0;shape-padding:0;text-decoration-color:#000000;text-decoration-line:none;text-decoration-style:solid;text-indent:0;text-orientation:mixed;text-transform:none;white-space:normal"/><path d="m44.336 105.47c-0.76558 0-1.3965 0.62896-1.3965 1.3945 0 0.76558 0.63091 1.3945 1.3965 1.3945 0.76558 0 1.3945-0.62896 1.3945-1.3945 0-0.76557-0.62895-1.3945-1.3945-1.3945zm0 0.79688c0.33598 0 0.5957 0.26167 0.5957 0.59765 0 0.33599-0.25972 0.59766-0.5957 0.59766-0.33599 0-0.59766-0.26167-0.59766-0.59766 0-0.33598 0.26167-0.59765 0.59766-0.59765z" color="#000000" color-rendering="auto" dominant-baseline="auto" image-rendering="auto" solid-color="#000000" stop-color="#000000" style="font-feature-settings:normal;font-variant-alternates:normal;font-variant-caps:normal;font-variant-east-asian:normal;font-variant-ligatures:normal;font-variant-numeric:normal;font-variant-position:normal;font-variation-settings:normal;inline-size:0;isolation:auto;mix-blend-mode:normal;shape-margin:0;shape-padding:0;text-decoration-color:#000000;text-decoration-line:none;text-decoration-style:solid;text-indent:0;text-orientation:mixed;text-transform:none;white-space:normal"/><path d="m54.198 75.701c0 0.55078-0.44531 0.99609-0.99609 0.99609s-0.99609-0.44531-0.99609-0.99609c0-0.55078 0.44531-0.99609 0.99609-0.99609s0.99609 0.44531 0.99609 0.99609z" color="#000000" color-rendering="auto" dominant-baseline="auto" image-rendering="auto" solid-color="#000000" stop-color="#000000" style="font-feature-settings:normal;font-variant-alternates:normal;font-variant-caps:normal;font-variant-east-asian:normal;font-variant-ligatures:normal;font-variant-numeric:normal;font-variant-position:normal;font-variation-settings:normal;inline-size:0;isolation:auto;mix-blend-mode:normal;shape-margin:0;shape-padding:0;text-decoration-color:#000000;text-decoration-line:none;text-decoration-style:solid;text-indent:0;text-orientation:mixed;text-transform:none;white-space:normal"/><path d="m53.203 74.307c-0.76558 0-1.3965 0.62895-1.3965 1.3945 0 0.76558 0.63091 1.3945 1.3965 1.3945s1.3945-0.62895 1.3945-1.3945c0-0.76558-0.62895-1.3945-1.3945-1.3945zm0 0.79688c0.33598 0 0.5957 0.26167 0.5957 0.59766 0 0.33598-0.25972 0.59766-0.5957 0.59766s-0.59766-0.26167-0.59766-0.59766c0-0.33598 0.26167-0.59766 0.59766-0.59766z" color="#000000" color-rendering="auto" dominant-baseline="auto" image-rendering="auto" solid-color="#000000" stop-color="#000000" style="font-feature-settings:normal;font-variant-alternates:normal;font-variant-caps:normal;font-variant-east-asian:normal;font-variant-ligatures:normal;font-variant-numeric:normal;font-variant-position:normal;font-variation-settings:normal;inline-size:0;isolation:auto;mix-blend-mode:normal;shape-margin:0;shape-padding:0;text-decoration-color:#000000;text-decoration-line:none;text-decoration-style:solid;text-indent:0;text-orientation:mixed;text-transform:none;white-space:normal"/><path d="m63.065 42.451c0 0.55078-0.44922 0.99609-0.99609 0.99609-0.55078 0-0.99609-0.44531-0.99609-0.99609 0-0.55078 0.44531-0.99609 0.99609-0.99609 0.54688 0 0.99609 0.44531 0.99609 0.99609z" color="#000000" color-rendering="auto" dominant-baseline="auto" image-rendering="auto" solid-color="#000000" stop-color="#000000" style="font-feature-settings:normal;font-variant-alternates:normal;font-variant-caps:normal;font-variant-east-asian:normal;font-variant-ligatures:normal;font-variant-numeric:normal;font-variant-position:normal;font-variation-settings:normal;inline-size:0;isolation:auto;mix-blend-mode:normal;shape-margin:0;shape-padding:0;text-decoration-color:#000000;text-decoration-line:none;text-decoration-style:solid;text-indent:0;text-orientation:mixed;text-transform:none;white-space:normal"/><path d="m62.07 41.057c-0.76558 0-1.3965 0.62895-1.3965 1.3945s0.63091 1.3945 1.3965 1.3945c0.76321 0 1.3945-0.62707 1.3945-1.3945s-0.63132-1.3945-1.3945-1.3945zm0 0.79688c0.33054 0 0.5957 0.26356 0.5957 0.59766 0 0.3341-0.26516 0.59766-0.5957 0.59766-0.33598 0-0.59766-0.26167-0.59766-0.59766 0-0.33598 0.26167-0.59766 0.59766-0.59766z" color="#000000" color-rendering="auto" dominant-baseline="auto" image-rendering="auto" solid-color="#000000" stop-color="#000000" style="font-feature-settings:normal;font-variant-alternates:normal;font-variant-caps:normal;font-variant-east-asian:normal;font-variant-ligatures:normal;font-variant-numeric:normal;font-variant-position:normal;font-variation-settings:normal;inline-size:0;isolation:auto;mix-blend-mode:normal;shape-margin:0;shape-padding:0;text-decoration-color:#000000;text-decoration-line:none;text-decoration-style:solid;text-indent:0;text-orientation:mixed;text-transform:none;white-space:normal"/><path d="m71.933 15.334c0 0.55078-0.44922 0.99609-0.99609 0.99609-0.55078 0-1-0.44531-1-0.99609s0.44922-0.99609 1-0.99609c0.54688 0 0.99609 0.44531 0.99609 0.99609z" color="#000000" color-rendering="auto" dominant-baseline="auto" image-rendering="auto" solid-color="#000000" stop-color="#000000" style="font-feature-settings:normal;font-variant-alternates:normal;font-variant-caps:normal;font-variant-east-asian:normal;font-variant-ligatures:normal;font-variant-numeric:normal;font-variant-position:normal;font-variation-settings:normal;inline-size:0;isolation:auto;mix-blend-mode:normal;shape-margin:0;shape-padding:0;text-decoration-color:#000000;text-decoration-line:none;text-decoration-style:solid;text-indent:0;text-orientation:mixed;text-transform:none;white-space:normal"/><path d="m70.938 13.939c-0.76558 0-1.4004 0.62707-1.4004 1.3945 0 0.76746 0.63481 1.3945 1.4004 1.3945 0.76321 0 1.3945-0.62707 1.3945-1.3945 0-0.76746-0.63132-1.3945-1.3945-1.3945zm0 0.79688c0.33054 0 0.5957 0.26356 0.5957 0.59766 0 0.3341-0.26516 0.59766-0.5957 0.59766-0.33598 0-0.60156-0.26356-0.60156-0.59766 0-0.3341 0.26558-0.59766 0.60156-0.59766z" color="#000000" color-rendering="auto" dominant-baseline="auto" image-rendering="auto" solid-color="#000000" stop-color="#000000" style="font-feature-settings:normal;font-variant-alternates:normal;font-variant-caps:normal;font-variant-east-asian:normal;font-variant-ligatures:normal;font-variant-numeric:normal;font-variant-position:normal;font-variation-settings:normal;inline-size:0;isolation:auto;mix-blend-mode:normal;shape-margin:0;shape-padding:0;text-decoration-color:#000000;text-decoration-line:none;text-decoration-style:solid;text-indent:0;text-orientation:mixed;text-transform:none;white-space:normal"/><path d="m80.796 1.0603c0 0.55078-0.44531 0.99609-0.99609 0.99609-0.54688 0-0.99609-0.44531-0.99609-0.99609 0-0.55078 0.44922-0.99609 0.99609-0.99609 0.55078 0 0.99609 0.44531 0.99609 0.99609z" color="#000000" color-rendering="auto" dominant-baseline="auto" image-rendering="auto" solid-color="#000000" stop-color="#000000" style="font-feature-settings:normal;font-variant-alternates:normal;font-variant-caps:normal;font-variant-east-asian:normal;font-variant-ligatures:normal;font-variant-numeric:normal;font-variant-position:normal;font-variation-settings:normal;inline-size:0;isolation:auto;mix-blend-mode:normal;shape-margin:0;shape-padding:0;text-decoration-color:#000000;text-decoration-line:none;text-decoration-style:solid;text-indent:0;text-orientation:mixed;text-transform:none;white-space:normal"/><path d="m79.801-0.33398c-0.76321 0-1.3965 0.62707-1.3965 1.3945 0 0.76746 0.63328 1.3945 1.3965 1.3945 0.76558 0 1.3945-0.62895 1.3945-1.3945 0-0.76558-0.62895-1.3945-1.3945-1.3945zm0 0.79688c0.33599 0 0.5957 0.26167 0.5957 0.59766 0 0.33599-0.25972 0.59766-0.5957 0.59766-0.33054 0-0.59766-0.26355-0.59766-0.59766 0-0.3341 0.26711-0.59766 0.59766-0.59766z" color="#000000" color-rendering="auto" dominant-baseline="auto" image-rendering="auto" solid-color="#000000" stop-color="#000000" style="font-feature-settings:normal;font-variant-alternates:normal;font-variant-caps:normal;font-variant-east-asian:normal;font-variant-ligatures:normal;font-variant-numeric:normal;font-variant-position:normal;font-variation-settings:normal;inline-size:0;isolation:auto;mix-blend-mode:normal;shape-margin:0;shape-padding:0;text-decoration-color:#000000;text-decoration-line:none;text-decoration-style:solid;text-indent:0;text-orientation:mixed;text-transform:none;white-space:normal"/><path d="m89.663 3.1618c0 0.55078-0.44531 0.99609-0.99609 0.99609s-0.99609-0.44531-0.99609-0.99609 0.44531-0.99609 0.99609-0.99609 0.99609 0.44531 0.99609 0.99609z" color="#000000" color-rendering="auto" dominant-baseline="auto" image-rendering="auto" solid-color="#000000" stop-color="#000000" style="font-feature-settings:normal;font-variant-alternates:normal;font-variant-caps:normal;font-variant-east-asian:normal;font-variant-ligatures:normal;font-variant-numeric:normal;font-variant-position:normal;font-variation-settings:normal;inline-size:0;isolation:auto;mix-blend-mode:normal;shape-margin:0;shape-padding:0;text-decoration-color:#000000;text-decoration-line:none;text-decoration-style:solid;text-indent:0;text-orientation:mixed;text-transform:none;white-space:normal"/><path d="m88.668 1.7676c-0.76558 0-1.3965 0.62895-1.3965 1.3945 0 0.76558 0.63091 1.3945 1.3965 1.3945 0.76558 0 1.3945-0.62895 1.3945-1.3945 0-0.76558-0.62895-1.3945-1.3945-1.3945zm0 0.79688c0.33598 0 0.5957 0.26167 0.5957 0.59766 0 0.33598-0.25972 0.59766-0.5957 0.59766-0.33598 0-0.59766-0.26167-0.59766-0.59766 0-0.33598 0.26167-0.59766 0.59766-0.59766z" color="#000000" color-rendering="auto" dominant-baseline="auto" image-rendering="auto" solid-color="#000000" stop-color="#000000" style="font-feature-settings:normal;font-variant-alternates:normal;font-variant-caps:normal;font-variant-east-asian:normal;font-variant-ligatures:normal;font-variant-numeric:normal;font-variant-position:normal;font-variation-settings:normal;inline-size:0;isolation:auto;mix-blend-mode:normal;shape-margin:0;shape-padding:0;text-decoration-color:#000000;text-decoration-line:none;text-decoration-style:solid;text-indent:0;text-orientation:mixed;text-transform:none;white-space:normal"/><path d="m98.53 21.123c0 0.55078-0.44531 0.99609-0.99609 0.99609-0.55078 0-0.99609-0.44531-0.99609-0.99609 0-0.55078 0.44531-0.99609 0.99609-0.99609 0.55078 0 0.99609 0.44531 0.99609 0.99609z" color="#000000" color-rendering="auto" dominant-baseline="auto" image-rendering="auto" solid-color="#000000" stop-color="#000000" style="font-feature-settings:normal;font-variant-alternates:normal;font-variant-caps:normal;font-variant-east-asian:normal;font-variant-ligatures:normal;font-variant-numeric:normal;font-variant-position:normal;font-variation-settings:normal;inline-size:0;isolation:auto;mix-blend-mode:normal;shape-margin:0;shape-padding:0;text-decoration-color:#000000;text-decoration-line:none;text-decoration-style:solid;text-indent:0;text-orientation:mixed;text-transform:none;white-space:normal"/><path d="m97.535 19.729c-0.76558 0-1.3965 0.62895-1.3965 1.3945s0.63091 1.3945 1.3965 1.3945c0.76558 0 1.3945-0.62895 1.3945-1.3945s-0.62895-1.3945-1.3945-1.3945zm0 0.79688c0.33599 0 0.5957 0.26167 0.5957 0.59766 0 0.33598-0.25972 0.59766-0.5957 0.59766-0.33598 0-0.59766-0.26167-0.59766-0.59766 0-0.33598 0.26167-0.59766 0.59766-0.59766z" color="#000000" color-rendering="auto" dominant-baseline="auto" image-rendering="auto" solid-color="#000000" stop-color="#000000" style="font-feature-settings:normal;font-variant-alternates:normal;font-variant-caps:normal;font-variant-east-asian:normal;font-variant-ligatures:normal;font-variant-numeric:normal;font-variant-position:normal;font-variation-settings:normal;inline-size:0;isolation:auto;mix-blend-mode:normal;shape-margin:0;shape-padding:0;text-decoration-color:#000000;text-decoration-line:none;text-decoration-style:solid;text-indent:0;text-orientation:mixed;text-transform:none;white-space:normal"/><path d="m107.4 50.494c0 0.55078-0.44531 0.99609-0.99609 0.99609-0.55079 0-0.9961-0.44531-0.9961-0.99609s0.44531-0.99609 0.9961-0.99609c0.55078 0 0.99609 0.44531 0.99609 0.99609z" color="#000000" color-rendering="auto" dominant-baseline="auto" image-rendering="auto" solid-color="#000000" stop-color="#000000" style="font-feature-settings:normal;font-variant-alternates:normal;font-variant-caps:normal;font-variant-east-asian:normal;font-variant-ligatures:normal;font-variant-numeric:normal;font-variant-position:normal;font-variation-settings:normal;inline-size:0;isolation:auto;mix-blend-mode:normal;shape-margin:0;shape-padding:0;text-decoration-color:#000000;text-decoration-line:none;text-decoration-style:solid;text-indent:0;text-orientation:mixed;text-transform:none;white-space:normal"/><path d="m106.4 49.1c-0.76557 0-1.3965 0.62895-1.3965 1.3945 0 0.76558 0.63091 1.3945 1.3965 1.3945 0.76558 0 1.3945-0.62895 1.3945-1.3945 0-0.76558-0.62896-1.3945-1.3945-1.3945zm0 0.79688c0.33599 0 0.59571 0.26167 0.59571 0.59766 0 0.33598-0.25972 0.59766-0.59571 0.59766-0.33598 0-0.59765-0.26167-0.59765-0.59766 0-0.33598 0.26167-0.59766 0.59765-0.59766z" color="#000000" color-rendering="auto" dominant-baseline="auto" image-rendering="auto" solid-color="#000000" stop-color="#000000" style="font-feature-settings:normal;font-variant-alternates:normal;font-variant-caps:normal;font-variant-east-asian:normal;font-variant-ligatures:normal;font-variant-numeric:normal;font-variant-position:normal;font-variation-settings:normal;inline-size:0;isolation:auto;mix-blend-mode:normal;shape-margin:0;shape-padding:0;text-decoration-color:#000000;text-decoration-line:none;text-decoration-style:solid;text-indent:0;text-orientation:mixed;text-transform:none;white-space:normal"/><path d="m116.26 84.01c0 0.55078-0.44532 0.99609-0.9961 0.99609s-0.99609-0.44531-0.99609-0.99609 0.44531-0.99609 0.99609-0.99609 0.9961 0.44531 0.9961 0.99609z" color="#000000" color-rendering="auto" dominant-baseline="auto" image-rendering="auto" solid-color="#000000" stop-color="#000000" style="font-feature-settings:normal;font-variant-alternates:normal;font-variant-caps:normal;font-variant-east-asian:normal;font-variant-ligatures:normal;font-variant-numeric:normal;font-variant-position:normal;font-variation-settings:normal;inline-size:0;isolation:auto;mix-blend-mode:normal;shape-margin:0;shape-padding:0;text-decoration-color:#000000;text-decoration-line:none;text-decoration-style:solid;text-indent:0;text-orientation:mixed;text-transform:none;white-space:normal"/><path d="m115.27 82.615c-0.76558 0-1.3965 0.62895-1.3965 1.3945s0.6309 1.3945 1.3965 1.3945 1.3945-0.62895 1.3945-1.3945-0.62895-1.3945-1.3945-1.3945zm0 0.79688c0.33599 0 0.5957 0.26167 0.5957 0.59766s-0.25971 0.59766-0.5957 0.59766c-0.33598 0-0.59765-0.26167-0.59765-0.59766s0.26167-0.59766 0.59765-0.59766z" color="#000000" color-rendering="auto" dominant-baseline="auto" image-rendering="auto" solid-color="#000000" stop-color="#000000" style="font-feature-settings:normal;font-variant-alternates:normal;font-variant-caps:normal;font-variant-east-asian:normal;font-variant-ligatures:normal;font-variant-numeric:normal;font-variant-position:normal;font-variation-settings:normal;inline-size:0;isolation:auto;mix-blend-mode:normal;shape-margin:0;shape-padding:0;text-decoration-color:#000000;text-decoration-line:none;text-decoration-style:solid;text-indent:0;text-orientation:mixed;text-transform:none;white-space:normal"/><path d="m125.13 113.38c0 0.55079-0.44531 0.9961-0.99609 0.9961s-0.99609-0.44531-0.99609-0.9961c0-0.54687 0.44531-0.99609 0.99609-0.99609s0.99609 0.44922 0.99609 0.99609z" color="#000000" color-rendering="auto" dominant-baseline="auto" image-rendering="auto" solid-color="#000000" stop-color="#000000" style="font-feature-settings:normal;font-variant-alternates:normal;font-variant-caps:normal;font-variant-east-asian:normal;font-variant-ligatures:normal;font-variant-numeric:normal;font-variant-position:normal;font-variation-settings:normal;inline-size:0;isolation:auto;mix-blend-mode:normal;shape-margin:0;shape-padding:0;text-decoration-color:#000000;text-decoration-line:none;text-decoration-style:solid;text-indent:0;text-orientation:mixed;text-transform:none;white-space:normal"/><path d="m124.14 111.99c-0.76746 0-1.3965 0.63132-1.3965 1.3945 0 0.76558 0.63091 1.3945 1.3965 1.3945s1.3945-0.62895 1.3945-1.3945c0-0.76321-0.62707-1.3945-1.3945-1.3945zm0 0.79687c0.3341 0 0.5957 0.26712 0.5957 0.59766 0 0.33598-0.25972 0.59766-0.5957 0.59766s-0.59766-0.26168-0.59766-0.59766c0-0.33054 0.26356-0.59766 0.59766-0.59766z" color="#000000" color-rendering="auto" dominant-baseline="auto" image-rendering="auto" solid-color="#000000" stop-color="#000000" style="font-feature-settings:normal;font-variant-alternates:normal;font-variant-caps:normal;font-variant-east-asian:normal;font-variant-ligatures:normal;font-variant-numeric:normal;font-variant-position:normal;font-variation-settings:normal;inline-size:0;isolation:auto;mix-blend-mode:normal;shape-margin:0;shape-padding:0;text-decoration-color:#000000;text-decoration-line:none;text-decoration-style:solid;text-indent:0;text-orientation:mixed;text-transform:none;white-space:normal"/><path d="m134 131.35c0 0.55078-0.44531 0.99609-0.99609 0.99609s-0.9961-0.44531-0.9961-0.99609 0.44532-0.9961 0.9961-0.9961 0.99609 0.44532 0.99609 0.9961z" color="#000000" color-rendering="auto" dominant-baseline="auto" image-rendering="auto" solid-color="#000000" stop-color="#000000" style="font-feature-settings:normal;font-variant-alternates:normal;font-variant-caps:normal;font-variant-east-asian:normal;font-variant-ligatures:normal;font-variant-numeric:normal;font-variant-position:normal;font-variation-settings:normal;inline-size:0;isolation:auto;mix-blend-mode:normal;shape-margin:0;shape-padding:0;text-decoration-color:#000000;text-decoration-line:none;text-decoration-style:solid;text-indent:0;text-orientation:mixed;text-transform:none;white-space:normal"/><path d="m133 129.95c-0.76558 0-1.3965 0.62895-1.3965 1.3945s0.63091 1.3945 1.3965 1.3945c0.76557 0 1.3945-0.62895 1.3945-1.3945s-0.62896-1.3945-1.3945-1.3945zm0 0.79688c0.33598 0 0.5957 0.26167 0.5957 0.59765 0 0.33599-0.25972 0.59766-0.5957 0.59766-0.33599 0-0.59766-0.26167-0.59766-0.59766 0-0.33598 0.26167-0.59765 0.59766-0.59765z" color="#000000" color-rendering="auto" dominant-baseline="auto" image-rendering="auto" solid-color="#000000" stop-color="#000000" style="font-feature-settings:normal;font-variant-alternates:normal;font-variant-caps:normal;font-variant-east-asian:normal;font-variant-ligatures:normal;font-variant-numeric:normal;font-variant-position:normal;font-variation-settings:normal;inline-size:0;isolation:auto;mix-blend-mode:normal;shape-margin:0;shape-padding:0;text-decoration-color:#000000;text-decoration-line:none;text-decoration-style:solid;text-indent:0;text-orientation:mixed;text-transform:none;white-space:normal"/><path d="m142.87 133.45c0 0.55078-0.44531 0.99609-0.9961 0.99609-0.55078 0-0.99609-0.44531-0.99609-0.99609 0-0.55079 0.44531-0.9961 0.99609-0.9961 0.55079 0 0.9961 0.44531 0.9961 0.9961z" color="#000000" color-rendering="auto" dominant-baseline="auto" image-rendering="auto" solid-color="#000000" stop-color="#000000" style="font-feature-settings:normal;font-variant-alternates:normal;font-variant-caps:normal;font-variant-east-asian:normal;font-variant-ligatures:normal;font-variant-numeric:normal;font-variant-position:normal;font-variation-settings:normal;inline-size:0;isolation:auto;mix-blend-mode:normal;shape-margin:0;shape-padding:0;text-decoration-color:#000000;text-decoration-line:none;text-decoration-style:solid;text-indent:0;text-orientation:mixed;text-transform:none;white-space:normal"/><path d="m141.87 132.06c-0.76557 0-1.3965 0.62895-1.3965 1.3945s0.63091 1.3945 1.3965 1.3945c0.76558 0 1.3945-0.62895 1.3945-1.3945s-0.62895-1.3945-1.3945-1.3945zm0 0.79688c0.33599 0 0.59571 0.26167 0.59571 0.59765 0 0.33599-0.25972 0.59766-0.59571 0.59766-0.33598 0-0.59765-0.26167-0.59765-0.59766 0-0.33598 0.26167-0.59765 0.59765-0.59765z" color="#000000" color-rendering="auto" dominant-baseline="auto" image-rendering="auto" solid-color="#000000" stop-color="#000000" style="font-feature-settings:normal;font-variant-alternates:normal;font-variant-caps:normal;font-variant-east-asian:normal;font-variant-ligatures:normal;font-variant-numeric:normal;font-variant-position:normal;font-variation-settings:normal;inline-size:0;isolation:auto;mix-blend-mode:normal;shape-margin:0;shape-padding:0;text-decoration-color:#000000;text-decoration-line:none;text-decoration-style:solid;text-indent:0;text-orientation:mixed;text-transform:none;white-space:normal"/><path d="m151.73 119.18c0 0.54687-0.44532 0.99609-0.9961 0.99609s-0.99609-0.44922-0.99609-0.99609c0-0.55079 0.44531-0.9961 0.99609-0.9961s0.9961 0.44531 0.9961 0.9961z" color="#000000" color-rendering="auto" dominant-baseline="auto" image-rendering="auto" solid-color="#000000" stop-color="#000000" style="font-feature-settings:normal;font-variant-alternates:normal;font-variant-caps:normal;font-variant-east-asian:normal;font-variant-ligatures:normal;font-variant-numeric:normal;font-variant-position:normal;font-variation-settings:normal;inline-size:0;isolation:auto;mix-blend-mode:normal;shape-margin:0;shape-padding:0;text-decoration-color:#000000;text-decoration-line:none;text-decoration-style:solid;text-indent:0;text-orientation:mixed;text-transform:none;white-space:normal"/><path d="m150.74 117.79c-0.76558 0-1.3965 0.62895-1.3965 1.3945 0 0.76321 0.62902 1.3945 1.3965 1.3945s1.3945-0.63132 1.3945-1.3945c0-0.76558-0.62895-1.3945-1.3945-1.3945zm0 0.79687c0.33599 0 0.5957 0.26168 0.5957 0.59766 0 0.33054-0.2616 0.59766-0.5957 0.59766s-0.59766-0.26712-0.59766-0.59766c0-0.33598 0.26168-0.59766 0.59766-0.59766z" color="#000000" color-rendering="auto" dominant-baseline="auto" image-rendering="auto" solid-color="#000000" stop-color="#000000" style="font-feature-settings:normal;font-variant-alternates:normal;font-variant-caps:normal;font-variant-east-asian:normal;font-variant-ligatures:normal;font-variant-numeric:normal;font-variant-position:normal;font-variation-settings:normal;inline-size:0;isolation:auto;mix-blend-mode:normal;shape-margin:0;shape-padding:0;text-decoration-color:#000000;text-decoration-line:none;text-decoration-style:solid;text-indent:0;text-orientation:mixed;text-transform:none;white-space:normal"/><path d="m160.6 92.064c0 0.55078-0.44922 0.99609-0.99609 0.99609-0.55078 0-0.99609-0.44531-0.99609-0.99609 0-0.55078 0.44531-0.99609 0.99609-0.99609 0.54687 0 0.99609 0.44531 0.99609 0.99609z" color="#000000" color-rendering="auto" dominant-baseline="auto" image-rendering="auto" solid-color="#000000" stop-color="#000000" style="font-feature-settings:normal;font-variant-alternates:normal;font-variant-caps:normal;font-variant-east-asian:normal;font-variant-ligatures:normal;font-variant-numeric:normal;font-variant-position:normal;font-variation-settings:normal;inline-size:0;isolation:auto;mix-blend-mode:normal;shape-margin:0;shape-padding:0;text-decoration-color:#000000;text-decoration-line:none;text-decoration-style:solid;text-indent:0;text-orientation:mixed;text-transform:none;white-space:normal"/><path d="m159.61 90.67c-0.76558 0-1.3965 0.62895-1.3965 1.3945 0 0.76558 0.63091 1.3945 1.3965 1.3945 0.7632 0 1.3945-0.62707 1.3945-1.3945s-0.63133-1.3945-1.3945-1.3945zm0 0.79688c0.33054 0 0.5957 0.26356 0.5957 0.59766 0 0.3341-0.26516 0.59766-0.5957 0.59766-0.33599 0-0.59766-0.26167-0.59766-0.59766 0-0.33598 0.26167-0.59766 0.59766-0.59766z" color="#000000" color-rendering="auto" dominant-baseline="auto" image-rendering="auto" solid-color="#000000" stop-color="#000000" style="font-feature-settings:normal;font-variant-alternates:normal;font-variant-caps:normal;font-variant-east-asian:normal;font-variant-ligatures:normal;font-variant-numeric:normal;font-variant-position:normal;font-variation-settings:normal;inline-size:0;isolation:auto;mix-blend-mode:normal;shape-margin:0;shape-padding:0;text-decoration-color:#000000;text-decoration-line:none;text-decoration-style:solid;text-indent:0;text-orientation:mixed;text-transform:none;white-space:normal"/><path d="m169.47 58.814c0 0.55078-0.44922 0.99609-1 0.99609-0.54687 0-0.99609-0.44531-0.99609-0.99609 0-0.55078 0.44922-0.99609 0.99609-0.99609 0.55078 0 1 0.44531 1 0.99609z" color="#000000" color-rendering="auto" dominant-baseline="auto" image-rendering="auto" solid-color="#000000" stop-color="#000000" style="font-feature-settings:normal;font-variant-alternates:normal;font-variant-caps:normal;font-variant-east-asian:normal;font-variant-ligatures:normal;font-variant-numeric:normal;font-variant-position:normal;font-variation-settings:normal;inline-size:0;isolation:auto;mix-blend-mode:normal;shape-margin:0;shape-padding:0;text-decoration-color:#000000;text-decoration-line:none;text-decoration-style:solid;text-indent:0;text-orientation:mixed;text-transform:none;white-space:normal"/><path d="m168.47 57.42c-0.76321 0-1.3965 0.62707-1.3965 1.3945s0.63327 1.3945 1.3965 1.3945c0.76558 0 1.3984-0.62707 1.3984-1.3945s-0.63286-1.3945-1.3984-1.3945zm0 0.79688c0.33598 0 0.59961 0.26356 0.59961 0.59766 0 0.3341-0.26363 0.59766-0.59961 0.59766-0.33054 0-0.59766-0.26356-0.59766-0.59766 0-0.3341 0.26712-0.59766 0.59766-0.59766z" color="#000000" color-rendering="auto" dominant-baseline="auto" image-rendering="auto" solid-color="#000000" stop-color="#000000" style="font-feature-settings:normal;font-variant-alternates:normal;font-variant-caps:normal;font-variant-east-asian:normal;font-variant-ligatures:normal;font-variant-numeric:normal;font-variant-position:normal;font-variation-settings:normal;inline-size:0;isolation:auto;mix-blend-mode:normal;shape-margin:0;shape-padding:0;text-decoration-color:#000000;text-decoration-line:none;text-decoration-style:solid;text-indent:0;text-orientation:mixed;text-transform:none;white-space:normal"/><path d="m178.33 27.65c0 0.55078-0.44531 0.99609-0.99609 0.99609-0.54688 0-0.9961-0.44531-0.9961-0.99609s0.44922-0.99609 0.9961-0.99609c0.55078 0 0.99609 0.44531 0.99609 0.99609z" color="#000000" color-rendering="auto" dominant-baseline="auto" image-rendering="auto" solid-color="#000000" stop-color="#000000" style="font-feature-settings:normal;font-variant-alternates:normal;font-variant-caps:normal;font-variant-east-asian:normal;font-variant-ligatures:normal;font-variant-numeric:normal;font-variant-position:normal;font-variation-settings:normal;inline-size:0;isolation:auto;mix-blend-mode:normal;shape-margin:0;shape-padding:0;text-decoration-color:#000000;text-decoration-line:none;text-decoration-style:solid;text-indent:0;text-orientation:mixed;text-transform:none;white-space:normal"/><path d="m177.34 26.256c-0.76321 0-1.3965 0.62707-1.3965 1.3945 0 0.76746 0.63328 1.3945 1.3965 1.3945 0.76558 0 1.3945-0.62895 1.3945-1.3945s-0.62895-1.3945-1.3945-1.3945zm0 0.79688c0.33598 0 0.5957 0.26167 0.5957 0.59766s-0.25972 0.59766-0.5957 0.59766c-0.33055 0-0.59766-0.26356-0.59766-0.59766 0-0.3341 0.26711-0.59766 0.59766-0.59766z" color="#000000" color-rendering="auto" dominant-baseline="auto" image-rendering="auto" solid-color="#000000" stop-color="#000000" style="font-feature-settings:normal;font-variant-alternates:normal;font-variant-caps:normal;font-variant-east-asian:normal;font-variant-ligatures:normal;font-variant-numeric:normal;font-variant-position:normal;font-variation-settings:normal;inline-size:0;isolation:auto;mix-blend-mode:normal;shape-margin:0;shape-padding:0;text-decoration-color:#000000;text-decoration-line:none;text-decoration-style:solid;text-indent:0;text-orientation:mixed;text-transform:none;white-space:normal"/><path d="m187.2 6.2829c0 0.55078-0.44531 0.99609-0.99609 0.99609-0.55079 0-0.9961-0.44531-0.9961-0.99609 0-0.55078 0.44531-0.99609 0.9961-0.99609 0.55078 0 0.99609 0.44531 0.99609 0.99609z" color="#000000" color-rendering="auto" dominant-baseline="auto" image-rendering="auto" solid-color="#000000" stop-color="#000000" style="font-feature-settings:normal;font-variant-alternates:normal;font-variant-caps:normal;font-variant-east-asian:normal;font-variant-ligatures:normal;font-variant-numeric:normal;font-variant-position:normal;font-variation-settings:normal;inline-size:0;isolation:auto;mix-blend-mode:normal;shape-margin:0;shape-padding:0;text-decoration-color:#000000;text-decoration-line:none;text-decoration-style:solid;text-indent:0;text-orientation:mixed;text-transform:none;white-space:normal"/><path d="m186.2 4.8887c-0.76557 0-1.3965 0.62895-1.3965 1.3945 0 0.76558 0.63091 1.3945 1.3965 1.3945 0.76558 0 1.3945-0.62895 1.3945-1.3945 0-0.76558-0.62896-1.3945-1.3945-1.3945zm0 0.79688c0.33599 0 0.59571 0.26167 0.59571 0.59766 0 0.33598-0.25972 0.59766-0.59571 0.59766-0.33598 0-0.59765-0.26167-0.59765-0.59766 0-0.33598 0.26167-0.59766 0.59765-0.59766z" color="#000000" color-rendering="auto" dominant-baseline="auto" image-rendering="auto" solid-color="#000000" stop-color="#000000" style="font-feature-settings:normal;font-variant-alternates:normal;font-variant-caps:normal;font-variant-east-asian:normal;font-variant-ligatures:normal;font-variant-numeric:normal;font-variant-position:normal;font-variation-settings:normal;inline-size:0;isolation:auto;mix-blend-mode:normal;shape-margin:0;shape-padding:0;text-decoration-color:#000000;text-decoration-line:none;text-decoration-style:solid;text-indent:0;text-orientation:mixed;text-transform:none;white-space:normal"/><path d="m196.07 0.0016875c0 0.55078-0.44532 0.99609-0.9961 0.99609s-0.99609-0.44531-0.99609-0.99609 0.44531-0.99609 0.99609-0.99609 0.9961 0.44531 0.9961 0.99609z" color="#000000" color-rendering="auto" dominant-baseline="auto" image-rendering="auto" solid-color="#000000" stop-color="#000000" style="font-feature-settings:normal;font-variant-alternates:normal;font-variant-caps:normal;font-variant-east-asian:normal;font-variant-ligatures:normal;font-variant-numeric:normal;font-variant-position:normal;font-variation-settings:normal;inline-size:0;isolation:auto;mix-blend-mode:normal;shape-margin:0;shape-padding:0;text-decoration-color:#000000;text-decoration-line:none;text-decoration-style:solid;text-indent:0;text-orientation:mixed;text-transform:none;white-space:normal"/><path d="m195.07-1.3926c-0.76558 0-1.3965 0.62895-1.3965 1.3945 0 0.76558 0.6309 1.3945 1.3965 1.3945s1.3945-0.62895 1.3945-1.3945c0-0.76558-0.62895-1.3945-1.3945-1.3945zm0 0.79687c0.33599 0 0.59571 0.26167 0.59571 0.59766 0 0.33598-0.25972 0.59766-0.59571 0.59766-0.33598 0-0.59765-0.26167-0.59765-0.59766 0-0.33598 0.26167-0.59766 0.59765-0.59766z" color="#000000" color-rendering="auto" dominant-baseline="auto" image-rendering="auto" solid-color="#000000" stop-color="#000000" style="font-feature-settings:normal;font-variant-alternates:normal;font-variant-caps:normal;font-variant-east-asian:normal;font-variant-ligatures:normal;font-variant-numeric:normal;font-variant-position:normal;font-variation-settings:normal;inline-size:0;isolation:auto;mix-blend-mode:normal;shape-margin:0;shape-padding:0;text-decoration-color:#000000;text-decoration-line:none;text-decoration-style:solid;text-indent:0;text-orientation:mixed;text-transform:none;white-space:normal"/><path d="m204.93 10.353c0 0.55078-0.44531 1-0.99609 1s-0.99609-0.44922-0.99609-1c0-0.54688 0.44531-0.99609 0.99609-0.99609s0.99609 0.44922 0.99609 0.99609z" color="#000000" color-rendering="auto" dominant-baseline="auto" image-rendering="auto" solid-color="#000000" stop-color="#000000" style="font-feature-settings:normal;font-variant-alternates:normal;font-variant-caps:normal;font-variant-east-asian:normal;font-variant-ligatures:normal;font-variant-numeric:normal;font-variant-position:normal;font-variation-settings:normal;inline-size:0;isolation:auto;mix-blend-mode:normal;shape-margin:0;shape-padding:0;text-decoration-color:#000000;text-decoration-line:none;text-decoration-style:solid;text-indent:0;text-orientation:mixed;text-transform:none;white-space:normal"/><path d="m203.94 8.959c-0.76746 0-1.3965 0.63132-1.3965 1.3945 0 0.76558 0.62902 1.3984 1.3965 1.3984s1.3945-0.63286 1.3945-1.3984c0-0.76321-0.62707-1.3945-1.3945-1.3945zm0 0.79688c0.3341 0 0.5957 0.26711 0.5957 0.59766 0 0.33598-0.2616 0.60156-0.5957 0.60156s-0.59766-0.26558-0.59766-0.60156c0-0.33054 0.26356-0.59766 0.59766-0.59766z" color="#000000" color-rendering="auto" dominant-baseline="auto" image-rendering="auto" solid-color="#000000" stop-color="#000000" style="font-feature-settings:normal;font-variant-alternates:normal;font-variant-caps:normal;font-variant-east-asian:normal;font-variant-ligatures:normal;font-variant-numeric:normal;font-variant-position:normal;font-variation-settings:normal;inline-size:0;isolation:auto;mix-blend-mode:normal;shape-margin:0;shape-padding:0;text-decoration-color:#000000;text-decoration-line:none;text-decoration-style:solid;text-indent:0;text-orientation:mixed;text-transform:none;white-space:normal"/><path d="m213.8 34.787c0 0.55078-0.44531 0.99609-0.99609 0.99609s-0.9961-0.44531-0.9961-0.99609 0.44532-0.99609 0.9961-0.99609 0.99609 0.44531 0.99609 0.99609z" color="#000000" color-rendering="auto" dominant-baseline="auto" image-rendering="auto" solid-color="#000000" stop-color="#000000" style="font-feature-settings:normal;font-variant-alternates:normal;font-variant-caps:normal;font-variant-east-asian:normal;font-variant-ligatures:normal;font-variant-numeric:normal;font-variant-position:normal;font-variation-settings:normal;inline-size:0;isolation:auto;mix-blend-mode:normal;shape-margin:0;shape-padding:0;text-decoration-color:#000000;text-decoration-line:none;text-decoration-style:solid;text-indent:0;text-orientation:mixed;text-transform:none;white-space:normal"/><path d="m212.8 33.393c-0.76558 0-1.3965 0.62895-1.3965 1.3945s0.63091 1.3945 1.3965 1.3945 1.3945-0.62895 1.3945-1.3945-0.62895-1.3945-1.3945-1.3945zm0 0.79688c0.33598 0 0.5957 0.26167 0.5957 0.59766s-0.25972 0.59766-0.5957 0.59766c-0.33599 0-0.59766-0.26167-0.59766-0.59766s0.26167-0.59766 0.59766-0.59766z" color="#000000" color-rendering="auto" dominant-baseline="auto" image-rendering="auto" solid-color="#000000" stop-color="#000000" style="font-feature-settings:normal;font-variant-alternates:normal;font-variant-caps:normal;font-variant-east-asian:normal;font-variant-ligatures:normal;font-variant-numeric:normal;font-variant-position:normal;font-variation-settings:normal;inline-size:0;isolation:auto;mix-blend-mode:normal;shape-margin:0;shape-padding:0;text-decoration-color:#000000;text-decoration-line:none;text-decoration-style:solid;text-indent:0;text-orientation:mixed;text-transform:none;white-space:normal"/><path d="m222.67 67.248c0 0.55078-0.44531 0.99609-0.99609 0.99609-0.55079 0-0.9961-0.44531-0.9961-0.99609 0-0.55078 0.44531-0.99609 0.9961-0.99609 0.55078 0 0.99609 0.44531 0.99609 0.99609z" color="#000000" color-rendering="auto" dominant-baseline="auto" image-rendering="auto" solid-color="#000000" stop-color="#000000" style="font-feature-settings:normal;font-variant-alternates:normal;font-variant-caps:normal;font-variant-east-asian:normal;font-variant-ligatures:normal;font-variant-numeric:normal;font-variant-position:normal;font-variation-settings:normal;inline-size:0;isolation:auto;mix-blend-mode:normal;shape-margin:0;shape-padding:0;text-decoration-color:#000000;text-decoration-line:none;text-decoration-style:solid;text-indent:0;text-orientation:mixed;text-transform:none;white-space:normal"/><path d="m221.67 65.854c-0.76558 0-1.3965 0.62895-1.3965 1.3945 0 0.76558 0.63091 1.3945 1.3965 1.3945 0.76557 0 1.3945-0.62895 1.3945-1.3945 0-0.76558-0.62896-1.3945-1.3945-1.3945zm0 0.79688c0.33598 0 0.5957 0.26167 0.5957 0.59766 0 0.33598-0.25972 0.59766-0.5957 0.59766-0.33599 0-0.59766-0.26167-0.59766-0.59766 0-0.33598 0.26167-0.59766 0.59766-0.59766z" color="#000000" color-rendering="auto" dominant-baseline="auto" image-rendering="auto" solid-color="#000000" stop-color="#000000" style="font-feature-settings:normal;font-variant-alternates:normal;font-variant-caps:normal;font-variant-east-asian:normal;font-variant-ligatures:normal;font-variant-numeric:normal;font-variant-position:normal;font-variation-settings:normal;inline-size:0;isolation:auto;mix-blend-mode:normal;shape-margin:0;shape-padding:0;text-decoration-color:#000000;text-decoration-line:none;text-decoration-style:solid;text-indent:0;text-orientation:mixed;text-transform:none;white-space:normal"/></g></g></svg>
