<svg width="46.863mm" height="44.984mm" version="1.1" viewBox="0 0 46.863 44.984" xmlns="http://www.w3.org/2000/svg"><defs><clipPath id="clip1"><path d="m448.27 127h98.629v54h-98.629z"/></clipPath><clipPath id="clip2"><path d="m448.27 115h98.629v79h-98.629z"/></clipPath><clipPath id="clip3"><path d="m448.27 105h98.629v98.633h-98.629z"/></clipPath></defs><g transform="translate(-114.23 -68.222)"><g shape-rendering="auto"><path d="m124.7 104v-34.795h0.14056v34.795zm6.9591 0v-34.795h0.14056v34.795zm6.9591 0v-34.795h0.14056v34.795zm6.9591 0v-34.795h0.14056v34.795zm6.9577 0v-34.795h0.14056v34.795zm6.9591 0v-34.795h0.14056v34.795z" color="#000000" color-rendering="auto" dominant-baseline="auto" fill="#bfbfbf" image-rendering="auto" solid-color="#000000" stop-color="#000000" style="font-feature-settings:normal;font-variant-alternates:normal;font-variant-caps:normal;font-variant-east-asian:normal;font-variant-ligatures:normal;font-variant-numeric:normal;font-variant-position:normal;font-variation-settings:normal;inline-size:0;isolation:auto;mix-blend-mode:normal;shape-margin:0;shape-padding:0;text-decoration-color:#000000;text-decoration-line:none;text-decoration-style:solid;text-indent:0;text-orientation:mixed;text-transform:none;white-space:normal"/><path d="m124.77 104.07v-0.14056h34.794v0.14056zm0-8.6996v-0.14056h34.794v0.14056zm0-8.6982v-0.14056h34.794v0.14056zm0-8.6982v-0.14056h34.794v0.14056zm0-8.6996v-0.14056h34.794v0.14056z" color="#000000" color-rendering="auto" dominant-baseline="auto" fill="#bfbfbf" image-rendering="auto" solid-color="#000000" stop-color="#000000" style="font-feature-settings:normal;font-variant-alternates:normal;font-variant-caps:normal;font-variant-east-asian:normal;font-variant-ligatures:normal;font-variant-numeric:normal;font-variant-position:normal;font-variation-settings:normal;inline-size:0;isolation:auto;mix-blend-mode:normal;shape-margin:0;shape-padding:0;text-decoration-color:#000000;text-decoration-line:none;text-decoration-style:solid;text-indent:0;text-orientation:mixed;text-transform:none;white-space:normal"/><path d="m124.74 104.74v-1.4993h0.0703v1.4993zm6.9591 0v-1.4993h0.0703v1.4993zm6.9591 0v-1.4993h0.0703v1.4993zm6.9591 0v-1.4993h0.0703v1.4993zm6.9577 0v-1.4993h0.0703v1.4993zm6.9591 0v-1.4993h0.0703v1.4993z" color="#000000" color-rendering="auto" dominant-baseline="auto" fill="#7f7f7f" image-rendering="auto" solid-color="#000000" stop-color="#000000" style="font-feature-settings:normal;font-variant-alternates:normal;font-variant-caps:normal;font-variant-east-asian:normal;font-variant-ligatures:normal;font-variant-numeric:normal;font-variant-position:normal;font-variation-settings:normal;inline-size:0;isolation:auto;mix-blend-mode:normal;shape-margin:0;shape-padding:0;text-decoration-color:#000000;text-decoration-line:none;text-decoration-style:solid;text-indent:0;text-orientation:mixed;text-transform:none;white-space:normal"/><path d="m124.02 104.03v-0.0703h1.4993v0.0703zm0-8.6996v-0.07028h1.4993v0.07028zm0-8.6982v-0.07028h1.4993v0.07028zm0-8.6982v-0.07028h1.4993v0.07028zm0-8.6996v-0.07028h1.4993v0.07028z" color="#000000" color-rendering="auto" dominant-baseline="auto" fill="#7f7f7f" image-rendering="auto" solid-color="#000000" stop-color="#000000" style="font-feature-settings:normal;font-variant-alternates:normal;font-variant-caps:normal;font-variant-east-asian:normal;font-variant-ligatures:normal;font-variant-numeric:normal;font-variant-position:normal;font-variation-settings:normal;inline-size:0;isolation:auto;mix-blend-mode:normal;shape-margin:0;shape-padding:0;text-decoration-color:#000000;text-decoration-line:none;text-decoration-style:solid;text-indent:0;text-orientation:mixed;text-transform:none;white-space:normal"/><path d="m124.77 104.07v-0.14056h34.091v0.14056z" color="#000000" color-rendering="auto" dominant-baseline="auto" image-rendering="auto" solid-color="#000000" stop-color="#000000" style="font-feature-settings:normal;font-variant-alternates:normal;font-variant-caps:normal;font-variant-east-asian:normal;font-variant-ligatures:normal;font-variant-numeric:normal;font-variant-position:normal;font-variation-settings:normal;inline-size:0;isolation:auto;mix-blend-mode:normal;shape-margin:0;shape-padding:0;text-decoration-color:#000000;text-decoration-line:none;text-decoration-style:solid;text-indent:0;text-orientation:mixed;text-transform:none;white-space:normal"/></g><g><g><path d="m159.57 104-1.1245-0.56224 0.42169 0.56224-0.42169 0.56224"/><path d="m124.7 104v-34.093h0.14056v34.093z" color="#000000" color-rendering="auto" dominant-baseline="auto" image-rendering="auto" shape-rendering="auto" solid-color="#000000" stop-color="#000000" style="font-feature-settings:normal;font-variant-alternates:normal;font-variant-caps:normal;font-variant-east-asian:normal;font-variant-ligatures:normal;font-variant-numeric:normal;font-variant-position:normal;font-variation-settings:normal;inline-size:0;isolation:auto;mix-blend-mode:normal;shape-margin:0;shape-padding:0;text-decoration-color:#000000;text-decoration-line:none;text-decoration-style:solid;text-indent:0;text-orientation:mixed;text-transform:none;white-space:normal"/><path d="m124.77 69.2-0.56224 1.1259 0.56224-0.42306 0.56224 0.42306"/></g><g transform="matrix(.35278 0 0 .35278 -33.37 32.16)"><g transform="translate(446.28 214.05)"><path d="m2.0938-5.4844c-1.2344 0-1.8594 0.96875-1.8594 2.9062 0 0.92188 0.15625 1.7344 0.4375 2.125s0.73438 0.60938 1.2188 0.60938c1.2031 0 1.8125-1.0312 1.8125-3.0781 0-1.7344-0.51562-2.5625-1.6094-2.5625zm-0.14062 0.26562c0.76562 0 1.0781 0.78125 1.0781 2.7031 0 1.6875-0.29688 2.3906-1.0312 2.3906-0.76562 0-1.0938-0.79688-1.0938-2.75 0-1.6719 0.28125-2.3438 1.0469-2.3438z"/></g><g transform="translate(461.02 214.05)"><path d="m2.0938-5.4844c-1.2344 0-1.8594 0.96875-1.8594 2.9062 0 0.92188 0.15625 1.7344 0.4375 2.125s0.73438 0.60938 1.2188 0.60938c1.2031 0 1.8125-1.0312 1.8125-3.0781 0-1.7344-0.51562-2.5625-1.6094-2.5625zm-0.14062 0.26562c0.76562 0 1.0781 0.78125 1.0781 2.7031 0 1.6875-0.29688 2.3906-1.0312 2.3906-0.76562 0-1.0938-0.79688-1.0938-2.75 0-1.6719 0.28125-2.3438 1.0469-2.3438z"/></g><g transform="translate(465.01 214.05)"><path d="m0.98438-0.89062c-0.23438 0-0.45312 0.23438-0.45312 0.46875s0.21875 0.46875 0.45312 0.46875c0.25 0 0.46875-0.21875 0.46875-0.46875 0-0.23438-0.21875-0.46875-0.46875-0.46875z"/></g><g transform="translate(467 214.05)"><path d="m2.0938-5.4844c-1.2344 0-1.8594 0.96875-1.8594 2.9062 0 0.92188 0.15625 1.7344 0.4375 2.125s0.73438 0.60938 1.2188 0.60938c1.2031 0 1.8125-1.0312 1.8125-3.0781 0-1.7344-0.51562-2.5625-1.6094-2.5625zm-0.14062 0.26562c0.76562 0 1.0781 0.78125 1.0781 2.7031 0 1.6875-0.29688 2.3906-1.0312 2.3906-0.76562 0-1.0938-0.79688-1.0938-2.75 0-1.6719 0.28125-2.3438 1.0469-2.3438z"/></g><g transform="translate(470.99 214.05)"><path d="m0.125-0.1875v0.21875c1.5-0.03125 1.5-0.03125 1.7812-0.03125s0.28125 0 1.8281 0.03125c-0.015625-0.17188-0.015625-0.25-0.015625-0.35938s0-0.1875 0.015625-0.35938c-0.92188 0.03125-1.2812 0.046875-2.7656 0.078125l1.4531-1.5469c0.78125-0.8125 1.0156-1.25 1.0156-1.8594 0-0.90625-0.625-1.4688-1.6406-1.4688-0.5625 0-0.95312 0.15625-1.3438 0.54688l-0.14062 1.0938h0.23438l0.09375-0.375c0.125-0.45312 0.42188-0.65625 0.95312-0.65625 0.6875 0 1.125 0.42188 1.125 1.1094 0 0.59375-0.34375 1.1875-1.2344 2.1406z"/></g><g transform="translate(480.75 214.17)"><path d="m2.0938-5.4844c-1.2344 0-1.8594 0.96875-1.8594 2.9062 0 0.92188 0.15625 1.7344 0.4375 2.125s0.73438 0.60938 1.2188 0.60938c1.2031 0 1.8125-1.0312 1.8125-3.0781 0-1.7344-0.51562-2.5625-1.6094-2.5625zm-0.14062 0.26562c0.76562 0 1.0781 0.78125 1.0781 2.7031 0 1.6875-0.29688 2.3906-1.0312 2.3906-0.76562 0-1.0938-0.79688-1.0938-2.75 0-1.6719 0.28125-2.3438 1.0469-2.3438z"/></g><g transform="translate(484.74 214.17)"><path d="m0.98438-0.89062c-0.23438 0-0.45312 0.23438-0.45312 0.46875s0.21875 0.46875 0.45312 0.46875c0.25 0 0.46875-0.21875 0.46875-0.46875 0-0.23438-0.21875-0.46875-0.46875-0.46875z"/></g><g transform="translate(486.73 214.17)"><path d="m2.0938-5.4844c-1.2344 0-1.8594 0.96875-1.8594 2.9062 0 0.92188 0.15625 1.7344 0.4375 2.125s0.73438 0.60938 1.2188 0.60938c1.2031 0 1.8125-1.0312 1.8125-3.0781 0-1.7344-0.51562-2.5625-1.6094-2.5625zm-0.14062 0.26562c0.76562 0 1.0781 0.78125 1.0781 2.7031 0 1.6875-0.29688 2.3906-1.0312 2.3906-0.76562 0-1.0938-0.79688-1.0938-2.75 0-1.6719 0.28125-2.3438 1.0469-2.3438z"/></g><g transform="translate(490.71 214.17)"><path d="m2.2344-1.4375v0.59375c0 0.48438-0.09375 0.59375-0.48438 0.60938l-0.48438 0.015625v0.25c1.0469-0.03125 1.0469-0.03125 1.25-0.03125 0.1875 0 0.1875 0 1.25 0.03125v-0.25l-0.39062-0.015625c-0.39062-0.03125-0.46875-0.125-0.46875-0.60938v-0.59375c0.46875 0 0.625 0 0.85938 0.03125v-0.5625c-0.375 0.03125-0.53125 0.03125-0.65625 0.015625h-0.20312v-1.1094c0-1.4219 0.015625-2.0938 0.046875-2.4219l-0.09375-0.046875-0.59375 0.21875-2.25 3.6875 0.09375 0.1875zm0-0.51562h-1.7188l1.7188-2.7969z"/></g><g transform="translate(500.48 214.05)"><path d="m2.0938-5.4844c-1.2344 0-1.8594 0.96875-1.8594 2.9062 0 0.92188 0.15625 1.7344 0.4375 2.125s0.73438 0.60938 1.2188 0.60938c1.2031 0 1.8125-1.0312 1.8125-3.0781 0-1.7344-0.51562-2.5625-1.6094-2.5625zm-0.14062 0.26562c0.76562 0 1.0781 0.78125 1.0781 2.7031 0 1.6875-0.29688 2.3906-1.0312 2.3906-0.76562 0-1.0938-0.79688-1.0938-2.75 0-1.6719 0.28125-2.3438 1.0469-2.3438z"/></g><g transform="translate(504.46 214.05)"><path d="m0.98438-0.89062c-0.23438 0-0.45312 0.23438-0.45312 0.46875s0.21875 0.46875 0.45312 0.46875c0.25 0 0.46875-0.21875 0.46875-0.46875 0-0.23438-0.21875-0.46875-0.46875-0.46875z"/></g><g transform="translate(506.45 214.05)"><path d="m2.0938-5.4844c-1.2344 0-1.8594 0.96875-1.8594 2.9062 0 0.92188 0.15625 1.7344 0.4375 2.125s0.73438 0.60938 1.2188 0.60938c1.2031 0 1.8125-1.0312 1.8125-3.0781 0-1.7344-0.51562-2.5625-1.6094-2.5625zm-0.14062 0.26562c0.76562 0 1.0781 0.78125 1.0781 2.7031 0 1.6875-0.29688 2.3906-1.0312 2.3906-0.76562 0-1.0938-0.79688-1.0938-2.75 0-1.6719 0.28125-2.3438 1.0469-2.3438z"/></g><g transform="translate(510.44 214.05)"><path d="m3.3125-5.3594-0.29688-0.125c-0.76562 0.25-1.0938 0.40625-1.5 0.76562-0.8125 0.6875-1.2656 1.6562-1.2656 2.75 0 1.3125 0.64062 2.125 1.6719 2.125s1.8125-0.8125 1.8125-1.9062c0-0.90625-0.5625-1.5156-1.4062-1.5156-0.39062 0-0.625 0.10938-1.0938 0.48438-0.09375 0.078125-0.10938 0.078125-0.1875 0.14062 0.17188-1.4375 0.82812-2.2188 2.2656-2.6562zm-1.2812 2.5781c0.60938 0 1.0156 0.53125 1.0156 1.3125 0 0.82812-0.40625 1.3594-1.0156 1.3594-0.6875 0-1.0469-0.57812-1.0469-1.6406 0-0.28125 0.03125-0.4375 0.10938-0.5625 0.1875-0.28125 0.5625-0.46875 0.9375-0.46875z"/></g><g transform="translate(520.2 214.05)"><path d="m2.0938-5.4844c-1.2344 0-1.8594 0.96875-1.8594 2.9062 0 0.92188 0.15625 1.7344 0.4375 2.125s0.73438 0.60938 1.2188 0.60938c1.2031 0 1.8125-1.0312 1.8125-3.0781 0-1.7344-0.51562-2.5625-1.6094-2.5625zm-0.14062 0.26562c0.76562 0 1.0781 0.78125 1.0781 2.7031 0 1.6875-0.29688 2.3906-1.0312 2.3906-0.76562 0-1.0938-0.79688-1.0938-2.75 0-1.6719 0.28125-2.3438 1.0469-2.3438z"/></g><g transform="translate(524.19 214.05)"><path d="m0.98438-0.89062c-0.23438 0-0.45312 0.23438-0.45312 0.46875s0.21875 0.46875 0.45312 0.46875c0.25 0 0.46875-0.21875 0.46875-0.46875 0-0.23438-0.21875-0.46875-0.46875-0.46875z"/></g><g transform="translate(526.18 214.05)"><path d="m2.0938-5.4844c-1.2344 0-1.8594 0.96875-1.8594 2.9062 0 0.92188 0.15625 1.7344 0.4375 2.125s0.73438 0.60938 1.2188 0.60938c1.2031 0 1.8125-1.0312 1.8125-3.0781 0-1.7344-0.51562-2.5625-1.6094-2.5625zm-0.14062 0.26562c0.76562 0 1.0781 0.78125 1.0781 2.7031 0 1.6875-0.29688 2.3906-1.0312 2.3906-0.76562 0-1.0938-0.79688-1.0938-2.75 0-1.6719 0.28125-2.3438 1.0469-2.3438z"/></g><g transform="translate(530.17 214.05)"><path d="m1.3438-2.75c-0.32812 0.15625-0.46875 0.23438-0.64062 0.40625-0.3125 0.29688-0.46875 0.65625-0.46875 1.0781 0 0.8125 0.67188 1.4219 1.5625 1.4219 1.0469 0 1.9062-0.8125 1.9062-1.7969 0-0.64062-0.29688-0.98438-1.2031-1.3906 0.71875-0.5 0.96875-0.82812 0.96875-1.3125 0-0.6875-0.5625-1.1406-1.4062-1.1406-0.95312 0-1.6406 0.59375-1.6406 1.4375 0 0.54688 0.21875 0.84375 0.92188 1.2969zm0.92188 0.40625c0.5 0.21875 0.79688 0.60938 0.79688 1.0312 0 0.67188-0.5 1.2031-1.1406 1.2031-0.67188 0-1.1094-0.48438-1.1094-1.2188 0-0.57812 0.21875-0.95312 0.8125-1.3125zm-0.48438-1.0312c-0.5-0.25-0.76562-0.5625-0.76562-0.95312 0-0.53125 0.39062-0.89062 0.95312-0.89062 0.57812 0 0.96875 0.375 0.96875 0.96875 0 0.45312-0.20312 0.76562-0.71875 1.0938z"/></g><g transform="translate(541.92 214.17)"><path d="m2.0938-5.4844c-1.2344 0-1.8594 0.96875-1.8594 2.9062 0 0.92188 0.15625 1.7344 0.4375 2.125s0.73438 0.60938 1.2188 0.60938c1.2031 0 1.8125-1.0312 1.8125-3.0781 0-1.7344-0.51562-2.5625-1.6094-2.5625zm-0.14062 0.26562c0.76562 0 1.0781 0.78125 1.0781 2.7031 0 1.6875-0.29688 2.3906-1.0312 2.3906-0.76562 0-1.0938-0.79688-1.0938-2.75 0-1.6719 0.28125-2.3438 1.0469-2.3438z"/></g><g transform="translate(545.91 214.17)"><path d="m0.98438-0.89062c-0.23438 0-0.45312 0.23438-0.45312 0.46875s0.21875 0.46875 0.45312 0.46875c0.25 0 0.46875-0.21875 0.46875-0.46875 0-0.23438-0.21875-0.46875-0.46875-0.46875z"/></g><g transform="translate(547.9 214.17)"><path d="m0.53125-4.4219h0.078125l1.0312-0.46875h0.03125c0.046875 0 0.0625 0.0625 0.0625 0.26562v3.8594c0 0.42188-0.09375 0.5-0.51562 0.53125l-0.45312 0.015625v0.25c1.2188-0.03125 1.2188-0.03125 1.3125-0.03125 0.10938 0 0.28125 0 0.54688 0.015625 0.09375 0 0.375 0 0.70312 0.015625v-0.25l-0.40625-0.015625c-0.4375-0.03125-0.51562-0.10938-0.51562-0.53125v-4.7188l-0.125-0.046875c-0.51562 0.26562-1.0781 0.51562-1.7969 0.76562z"/></g><g transform="translate(432.75 206.07)"><path d="m5.4844-1.9062c0.14062 0 0.28125 0 0.28125-0.17188s-0.14062-0.17188-0.28125-0.17188h-4.5c-0.14062 0-0.29688 0-0.29688 0.17188s0.15625 0.17188 0.29688 0.17188z"/></g><g transform="translate(439.31 206.07)"><path d="m2.2344-1.4375v0.59375c0 0.48438-0.09375 0.59375-0.48438 0.60938l-0.48438 0.015625v0.25c1.0469-0.03125 1.0469-0.03125 1.25-0.03125 0.1875 0 0.1875 0 1.25 0.03125v-0.25l-0.39062-0.015625c-0.39062-0.03125-0.46875-0.125-0.46875-0.60938v-0.59375c0.46875 0 0.625 0 0.85938 0.03125v-0.5625c-0.375 0.03125-0.53125 0.03125-0.65625 0.015625h-0.20312v-1.1094c0-1.4219 0.015625-2.0938 0.046875-2.4219l-0.09375-0.046875-0.59375 0.21875-2.25 3.6875 0.09375 0.1875zm0-0.51562h-1.7188l1.7188-2.7969z"/></g><g transform="translate(432.75 181.35)"><path d="m5.4844-1.9062c0.14062 0 0.28125 0 0.28125-0.17188s-0.14062-0.17188-0.28125-0.17188h-4.5c-0.14062 0-0.29688 0-0.29688 0.17188s0.15625 0.17188 0.29688 0.17188z"/></g><g transform="translate(439.31 181.35)"><path d="m0.125-0.1875v0.21875c1.5-0.03125 1.5-0.03125 1.7812-0.03125s0.28125 0 1.8281 0.03125c-0.015625-0.17188-0.015625-0.25-0.015625-0.35938s0-0.1875 0.015625-0.35938c-0.92188 0.03125-1.2812 0.046875-2.7656 0.078125l1.4531-1.5469c0.78125-0.8125 1.0156-1.25 1.0156-1.8594 0-0.90625-0.625-1.4688-1.6406-1.4688-0.5625 0-0.95312 0.15625-1.3438 0.54688l-0.14062 1.0938h0.23438l0.09375-0.375c0.125-0.45312 0.42188-0.65625 0.95312-0.65625 0.6875 0 1.125 0.42188 1.125 1.1094 0 0.59375-0.34375 1.1875-1.2344 2.1406z"/></g><g transform="translate(439.31 156.97)"><path d="m2.0938-5.4844c-1.2344 0-1.8594 0.96875-1.8594 2.9062 0 0.92188 0.15625 1.7344 0.4375 2.125s0.73438 0.60938 1.2188 0.60938c1.2031 0 1.8125-1.0312 1.8125-3.0781 0-1.7344-0.51562-2.5625-1.6094-2.5625zm-0.14062 0.26562c0.76562 0 1.0781 0.78125 1.0781 2.7031 0 1.6875-0.29688 2.3906-1.0312 2.3906-0.76562 0-1.0938-0.79688-1.0938-2.75 0-1.6719 0.28125-2.3438 1.0469-2.3438z"/></g><g transform="translate(439.31 132.35)"><path d="m0.125-0.1875v0.21875c1.5-0.03125 1.5-0.03125 1.7812-0.03125s0.28125 0 1.8281 0.03125c-0.015625-0.17188-0.015625-0.25-0.015625-0.35938s0-0.1875 0.015625-0.35938c-0.92188 0.03125-1.2812 0.046875-2.7656 0.078125l1.4531-1.5469c0.78125-0.8125 1.0156-1.25 1.0156-1.8594 0-0.90625-0.625-1.4688-1.6406-1.4688-0.5625 0-0.95312 0.15625-1.3438 0.54688l-0.14062 1.0938h0.23438l0.09375-0.375c0.125-0.45312 0.42188-0.65625 0.95312-0.65625 0.6875 0 1.125 0.42188 1.125 1.1094 0 0.59375-0.34375 1.1875-1.2344 2.1406z"/></g><g transform="translate(439.31 107.76)"><path d="m2.2344-1.4375v0.59375c0 0.48438-0.09375 0.59375-0.48438 0.60938l-0.48438 0.015625v0.25c1.0469-0.03125 1.0469-0.03125 1.25-0.03125 0.1875 0 0.1875 0 1.25 0.03125v-0.25l-0.39062-0.015625c-0.39062-0.03125-0.46875-0.125-0.46875-0.60938v-0.59375c0.46875 0 0.625 0 0.85938 0.03125v-0.5625c-0.375 0.03125-0.53125 0.03125-0.65625 0.015625h-0.20312v-1.1094c0-1.4219 0.015625-2.0938 0.046875-2.4219l-0.09375-0.046875-0.59375 0.21875-2.25 3.6875 0.09375 0.1875zm0-0.51562h-1.7188l1.7188-2.7969z"/></g></g></g><g><g transform="matrix(.35278 0 0 .35278 -33.37 32.16)" clip-path="url(#clip1)"><path transform="matrix(1 0 0 -1 448.27 203.63)" d="m73.846 36.488-0.50976 0.0098-0.50977 0.02344-0.50586 0.03516-0.50781 0.04492-0.50977 0.06055-0.50781 0.07031-0.50195 0.08398-0.50977 0.09766-0.50781 0.11133-0.50391 0.11914-0.50781 0.13086-0.50586 0.14453-0.50586 0.15625-0.50781 0.16602-0.5 0.17969-0.50586 0.1875-0.50391 0.20117-0.50391 0.21094-0.50391 0.21875-0.50391 0.23438-0.50195 0.23633-0.50586 0.25-0.49805 0.26172-0.50195 0.26758-0.5 0.27734-0.50391 0.28516-0.50195 0.29688-0.5 0.30274-0.5 0.30664-0.50195 0.32031-0.5 0.32226-0.49414 0.33008-0.5 0.33594-0.99805 0.69141-0.5 0.35352-0.99609 0.72266-0.5 0.36914-0.49414 0.37305-0.49805 0.37109-0.99414 0.75976-0.99414 0.76758-0.99414 0.77539-0.49219 0.39062-0.49609 0.38672-0.99219 0.78125-1.4863 1.1582-0.49609 0.38281-0.49023 0.38281-0.99024 0.75391-0.49414 0.37305-0.98828 0.73242-0.49219 0.36133-0.49414 0.35352-0.49023 0.34961-0.49219 0.3457-0.49219 0.33789-0.49219 0.33203-0.98633 0.64453-0.49023 0.30859-0.49219 0.30664-0.49023 0.29492-0.48828 0.28906-0.48828 0.27734-0.49219 0.26953-0.49023 0.26367-0.48828 0.25391-0.49023 0.24219-0.48828 0.23633-0.49024 0.22266-0.48242 0.21484-0.48828 0.19922-0.48828 0.19727-0.48633 0.17969-0.48633 0.17187-0.48633 0.16211-0.48633 0.14844-0.48633 0.13672-0.48047 0.12695-0.48828 0.11524-0.48438 0.10742-0.48242 0.08984-0.48437 0.08008-0.48633 0.07031-0.48242 0.05664-0.48438 0.04102-0.48242 0.03516-0.48242 0.02344-0.48242 0.0059-0.48438-2e-3 -0.48438-0.01563-0.48438-0.02734-0.48242-0.037147-0.48438-0.054688-0.48242-0.060546-0.48242-0.072266-0.48242-0.087891-0.48828-0.099609-0.48438-0.10742-0.48438-0.12109-0.48633-0.13476-0.48633-0.14062-0.48438-0.1582-0.48438-0.16406-0.48633-0.17578-0.48828-0.1875-0.48828-0.20117-0.48828-0.20703-0.48633-0.21875-0.48828-0.23047-0.49024-0.24023-0.48633-0.24609-0.48828-0.25781-0.49219-0.26758-0.49023-0.27344-0.49023-0.28125-0.49024-0.29492-0.49219-0.29688-0.49024-0.31055-0.48828-0.3125-0.49219-0.32227-0.49219-0.33008-0.49219-0.33594-0.49414-0.34375-0.49219-0.3457-0.49414-0.35156-0.49219-0.35742-0.49023-0.36328-0.49609-0.36523-0.49219-0.36914-0.49414-0.375-0.49414-0.37695-0.99023-0.76367-0.49609-0.38477-0.49219-0.38672-0.99023-0.77344-0.49609-0.39062-0.61719 0.7832 0.49805 0.39062 0.99219 0.77344 0.49219 0.38672 0.49805 0.38867 0.99414 0.76758 0.49805 0.38086 0.49805 0.375 0.49805 0.37305 0.49805 0.36914 0.49414 0.36328 0.49805 0.36133 0.5 0.35938 0.49805 0.34961 0.5 0.3457 0.49805 0.3418 0.50195 0.33398 0.49805 0.32812 0.49609 0.31836 0.50195 0.31445 0.50195 0.30469 0.5 0.30078 0.50195 0.28711 0.50195 0.28125 0.50195 0.27148 0.50195 0.26562 0.5 0.25391 0.50195 0.24414 0.50391 0.23828 0.50391 0.22656 0.50391 0.21484 0.50391 0.20703 0.50586 0.19336 0.50586 0.18359 0.5 0.17188 0.50586 0.16211 0.50781 0.14844 0.50391 0.13867 0.50977 0.12891 0.50586 0.11133 0.50586 0.10352 0.50977 0.0918 0.50781 0.07617 0.50195 0.06445 0.50781 0.05469 0.50977 0.04102 0.50781 0.02734 0.50781 0.01758 0.50781 0.0039 0.50977-0.0098 0.50976-0.02344 0.50195-0.03516 0.50781-0.04492 0.50977-0.06055 0.50781-0.07031 0.50781-0.08398 0.50781-0.09766 0.50781-0.11133 0.50586-0.11914 0.50195-0.13086 0.50586-0.14453 0.50781-0.1543 0.50586-0.16797 0.50391-0.17969 0.50586-0.18555 0.50391-0.20313 0.50391-0.20703 0.50195-0.22266 0.50195-0.22852 0.50391-0.24219 0.50391-0.25 0.50195-0.26172 0.50195-0.26758 0.50195-0.27734 0.50195-0.28516 0.49805-0.29492 0.5-0.30078 0.50195-0.31055 0.5-0.31641 1-0.65234 0.5-0.33984 0.49805-0.3418 0.50195-0.34961 0.49414-0.35352 0.49805-0.35742 0.49805-0.36524 0.99609-0.73633 0.5-0.37695 0.99414-0.75977 0.49219-0.38476 0.49805-0.38281 1.4902-1.1621 0.99219-0.78125 0.49609-0.38672 0.49219-0.39062 0.99023-0.77148 0.99024-0.76367 0.98828-0.75586 0.49414-0.37109 0.49219-0.36914 0.49219-0.36523 0.98828-0.71484 0.49219-0.34961 0.98633-0.68359 0.49219-0.32812 0.48828-0.32617 0.49219-0.31836 0.49219-0.3125 0.49024-0.30274 0.49219-0.29883 0.49024-0.28906 0.49023-0.27734 0.49023-0.26953 0.49219-0.26367 0.48438-0.25391 0.48633-0.24219 0.49023-0.23242 0.49024-0.22656 0.48633-0.21094 0.49023-0.20312 0.48633-0.19531 0.48633-0.18164 0.48438-0.17188 0.48633-0.16016 0.48437-0.15039 0.48633-0.13672 0.48633-0.12695 0.48633-0.11523 0.48438-0.10742 0.48438-0.08984 0.48047-0.08008 0.48438-0.07031 0.48242-0.05664 0.48438-0.04102 0.48633-0.03516 0.48242-0.02344 0.48242-0.0059 0.48438 0.0039 0.48047 0.01367 0.48438 0.02734 0.48438 0.03906 0.48242 0.04883 0.48438 0.06445 0.48633 0.07227 0.48438 0.08789 0.48438 0.0957 0.47852 0.10938 0.48828 0.12305 0.48633 0.13086 0.48438 0.14453 0.48633 0.1543 0.48633 0.16797 0.48828 0.17578 0.48828 0.18945 0.48633 0.19531 0.48242 0.21094 0.49023 0.2207 0.49024 0.22656 0.48828 0.23828 0.48828 0.24609 0.49023 0.25781 0.49024 0.26758 0.48828 0.27344 0.48828 0.28516 0.49219 0.29102 0.49023 0.30078 0.49219 0.30664 0.49023 0.31641 0.49414 0.32227 0.49219 0.33008 0.49219 0.33398 0.48828 0.3418 0.49414 0.3457 0.49219 0.35156 0.49414 0.35938 0.49414 0.36133 0.49219 0.36523 0.99023 0.74609 0.49024 0.37891 0.49609 0.37891 0.49414 0.38086 1.4863 1.1582 0.49609 0.39062 0.49609 0.38867 0.61328-0.78711-0.49414-0.38477-0.49609-0.39062-1.4902-1.1621-0.49805-0.38477-0.49805-0.37891-0.49219-0.37891-0.99609-0.75391-0.5-0.36914-0.49805-0.36524-0.99609-0.71875-0.5-0.34766-0.49414-0.34766-0.5-0.33789-0.5-0.33398-0.5-0.32617-0.5-0.32422-0.50195-0.31055-0.5-0.30859-0.5-0.29492-0.49805-0.29297-0.50391-0.28125-0.5-0.27148-0.50391-0.26562-0.50195-0.25391-0.50391-0.24609-0.50391-0.23242-0.50195-0.22656-0.5-0.21875-0.50586-0.20312-0.50391-0.19336-0.50586-0.18359-0.50586-0.17578-0.50586-0.1582-0.50586-0.15234-0.50781-0.13477-0.50391-0.12695-0.50586-0.11719-0.50586-0.09961-0.50781-0.0918-0.50781-0.07617-0.50781-0.06836-0.50976-0.05078-0.50781-0.04102-0.50781-0.02734-0.50391-0.01563z" color="#000000" color-rendering="auto" dominant-baseline="auto" fill="#00f" image-rendering="auto" shape-rendering="auto" solid-color="#000000" stop-color="#000000" style="font-feature-settings:normal;font-variant-alternates:normal;font-variant-caps:normal;font-variant-east-asian:normal;font-variant-ligatures:normal;font-variant-numeric:normal;font-variant-position:normal;font-variation-settings:normal;inline-size:0;isolation:auto;mix-blend-mode:normal;shape-margin:0;shape-padding:0;text-decoration-color:#000000;text-decoration-line:none;text-decoration-style:solid;text-indent:0;text-orientation:mixed;text-transform:none;white-space:normal"/></g><g transform="matrix(.35278 0 0 .35278 -33.37 32.16)" clip-path="url(#clip2)"><path transform="matrix(1 0 0 -1 448.27 203.63)" d="m57.473 24.15-0.68945 0.17773-0.61914 0.43945-0.55859 0.63867-0.53125 0.83008-0.51367 1.0176-0.50781 1.209-0.5 1.3828-0.50195 1.5508-0.49805 1.7109-0.5 1.8477-0.49609 1.9766-0.49805 2.082-0.49805 2.1738-0.49609 2.2441-0.49219 2.2949-0.49609 2.3242-0.49609 2.332-0.49609 2.3242-0.49609 2.291-0.49609 2.2402-0.49414 2.1621-0.49609 2.0742-0.49023 1.957-0.49219 1.832-0.49414 1.6836-0.49023 1.5234-0.48828 1.3418-0.48438 1.1484-0.47852 0.94336-0.46289 0.72461-0.42773 0.49414-0.37109 0.25976-0.30273 0.07813-0.29297-0.05469-0.36133-0.22852-0.42383-0.45312-0.45898-0.6875-0.47461-0.9082-0.48438-1.1152-0.48438-1.3145-0.49023-1.4941-0.49219-1.6582-0.49414-1.8086-0.49414-1.9375-0.49609-2.0566-0.49414-2.1523-0.49609-2.2266-0.49024-2.2832-0.49609-2.3203-0.49609-2.332-0.49609-2.3281-0.49805-2.3027-0.49609-2.252-0.49609-2.1875-0.49805-2.0996-0.49414-1.9902-0.49805-1.873-0.5-1.7324-0.5-1.5781-0.50391-1.4141-0.50586-1.2324-0.51367-1.0508-0.52539-0.86133-0.55078-0.67383-0.60742-0.46875-0.67969-0.22461-0.70508 0.07813-0.64453 0.35938-0.57617 0.57031-0.53711 0.76758-0.51953 0.95703-0.50586 1.1484-0.50391 1.3223-0.50195 1.4961-0.5 1.6582-0.49805 1.8027-0.49805 1.9375-0.49805 2.0488-0.49609 2.1445-0.49805 2.2227-0.49219 2.2793-0.49609 2.3164-0.49609 2.332-0.49609 2.3281-0.49609 2.3066-0.49609 2.2559-0.49414 2.1914-0.49609 2.1055-0.49023 2.002-0.49414 1.873-0.49219 1.7363-0.49219 1.5801-0.49023 1.4023-0.48633 1.2148-0.47852 1.0156-0.46875 0.79688-0.44141 0.57031-0.39648 0.33789-0.32227 0.13281-0.28516-0.01172-0.33594-0.16211-0.40625-0.375-0.44922-0.60743-0.4707-0.83789-0.47852-1.0469-0.48633-1.25-0.49023-1.4355-0.49219-1.6035-0.49414-1.7598-0.49219-1.8984-0.49609-2.0176-0.49414-2.1191-0.49219-2.207-0.49609-2.2637-0.49414-2.3125-0.49609-2.332-0.97461 0.20898 0.49609 2.332 0.49609 2.3145 0.49609 2.2676 0.49414 2.2129 0.49609 2.1309 0.49805 2.0293 0.49805 1.9141 0.49805 1.7793 0.50195 1.6309 0.50195 1.4707 0.50391 1.2969 0.50781 1.1094 0.52148 0.92774 0.54297 0.73633 0.58398 0.53906 0.65625 0.31445 0.70898 0.0293 0.66797-0.27539 0.59766-0.50586 0.54297-0.70312 0.52344-0.89062 0.51172-1.0859 0.50586-1.2617 0.50195-1.4414 0.50195-1.6074 0.49805-1.7559 0.49805-1.8926 0.49414-2.0137 0.49805-2.1133 0.49609-2.1992 0.49609-2.2598 0.49805-2.3105 0.49609-2.3281 0.49609-2.332 0.49609-2.3164 0.49023-2.2754 0.49609-2.2148 0.49414-2.1367 0.49609-2.0371 0.49414-1.9219 0.49219-1.7832 0.49219-1.6309 0.49023-1.4629 0.48828-1.2812 0.47852-1.0859 0.47266-0.87109 0.45508-0.64648 0.41602-0.41406 0.34961-0.19531 0.28711-0.03125 0.3125 0.10352 0.38281 0.29688 0.43555 0.5293 0.46484 0.76367 0.47852 0.98047 0.48633 1.1816 0.48828 1.375 0.49219 1.5469 0.49219 1.7129 0.49414 1.8535 0.49024 1.9785 0.49609 2.0879 0.49414 2.1797 0.49609 2.248 0.49609 2.2988 0.49609 2.3281 0.49609 2.332 0.49609 2.3203 0.49219 2.2871 0.49609 2.2344 0.49805 2.1602 0.49805 2.0684 0.49805 1.9531 0.49805 1.8242 0.5 1.6855 0.5 1.5234 0.5 1.3555 0.50976 1.1738 0.51758 0.99023 0.5332 0.79688 0.56641 0.60938 0.63086 0.39648 0.69922 0.13281 0.69141-0.17969 0.61914-0.43555 0.55664-0.63867 0.5293-0.83008 0.51562-1.0176 0.50781-1.2031 0.50391-1.3848 0.5-1.5547 0.5-1.7051 0.49805-1.8496 0.49414-1.9727 0.49805-2.082 0.49609-2.1719 0.49609-2.2461 0.49805-2.2949 0.49609-2.3242 0.49609-2.332 0.49609-2.3242 0.49023-2.291 0.49609-2.2383 0.49609-2.1641 0.49414-2.0742 0.49414-1.9609 0.49414-1.832 0.49219-1.6855 0.49219-1.5215 0.48438-1.3438 0.48438-1.1504 0.47656-0.94336 0.46289-0.72461 0.43164-0.49414 0.375-0.26367 0.30078-0.07813 0.29297 0.05273 0.35547 0.22461 0.42578 0.45508 0.45898 0.6875 0.47461 0.90625 0.48438 1.1152 0.48633 1.3145 0.49219 1.4922 0.49219 1.6543 0.49414 1.8066 0.49023 1.9434 0.49414 2.0527 0.49414 2.1484 0.49609 2.2305 0.49609 2.2832 0.49609 2.3203 0.49609 2.332 0.49609 2.3281 0.49219 2.2988 0.49609 2.2559 0.49805 2.1875 0.49609 2.0996 0.49805 1.9941 0.49805 1.873 0.5 1.7285 0.5 1.582 0.5 1.4141 0.50586 1.2324 0.51367 1.0547 0.52734 0.86328 0.55273 0.66992 0.60742 0.47461 0.68164 0.22461 0.70312-0.07813 0.64062-0.35547 0.57617-0.57031 0.53711-0.76758 0.51953-0.95703 0.50977-1.1426 0.50391-1.3223 0.50195-1.498 0.5-1.6582 0.49609-1.8027 0.49805-1.9336 0.49609-2.0488 0.49805-2.1445 0.49609-2.2207 0.49805-2.2812 0.49609-2.3164 0.49609-2.332 0.49609-2.3281 0.49219-2.3086 0.49414-2.2578 0.49609-2.1914 0.49414-2.1055 0.49414-2 0.49414-1.875 0.49414-1.7363 0.49219-1.5801 0.48438-1.4023 0.48633-1.2188 0.48047-1.0156 0.46875-0.79688 0.44531-0.57422 0.39453-0.33789 0.32617-0.13281 0.2832 0.0098 0.33008 0.16016 0.4082 0.375 0.44922 0.60742 0.4707 0.83594 0.48047 1.0488 0.48828 1.2461 0.49023 1.4316 0.49024 1.6035 0.49023 1.7598 0.49414 1.8984 0.49414 2.0176 0.49609 2.1191 0.49414 2.2051 0.49609 2.2676 0.49609 2.3105 0.49609 2.332 0.97461-0.20898-0.49609-2.332-0.49805-2.3125-0.49609-2.2734-0.49609-2.209-0.49805-2.1309-0.49609-2.0293-0.49805-1.9141-0.49609-1.7793-0.5-1.6309-0.50195-1.4668-0.50586-1.293-0.50977-1.1152-0.52148-0.92188-0.54297-0.73633-0.58594-0.53906-0.65234-0.31641-0.70898-0.02148-0.66797 0.27344-0.5957 0.50586-0.54688 0.70703-0.52344 0.89063-0.51367 1.0859-0.50586 1.2656-0.49805 1.4414-0.5 1.6074-0.5 1.7559-0.49805 1.8906-0.49805 2.0156-0.49609 2.1133-0.49805 2.1992-0.49609 2.2656-0.49219 2.3086-0.49609 2.3281-0.49609 2.332-0.49609 2.3164-0.49609 2.2754-0.49414 2.2148-0.49609 2.1367-0.49414 2.0371-0.49414 1.918-0.49023 1.7832-0.49219 1.6309-0.49024 1.4648-0.48828 1.2773-0.48242 1.084-0.47266 0.87109-0.45508 0.64648-0.41406 0.41406-0.3457 0.19141-0.28711 0.03125-0.3125-0.10352-0.38477-0.29883-0.43945-0.5332-0.46484-0.76172-0.47852-0.98438-0.48438-1.1797-0.48633-1.375-0.49219-1.5527-0.49219-1.709-0.49414-1.8535-0.49414-1.9824-0.49414-2.0879-0.49609-2.1797-0.49609-2.252-0.49023-2.2949-0.49609-2.3281-0.49609-2.332-0.49609-2.3203-0.49805-2.2871-0.49609-2.2383-0.49805-2.1562-0.49609-2.0645-0.49414-1.9551-0.49805-1.8262-0.5-1.6816-0.50195-1.5234-0.50391-1.3574-0.50976-1.1738-0.51562-0.98438-0.5332-0.79688-0.56836-0.60742-0.62695-0.40039z" color="#000000" color-rendering="auto" dominant-baseline="auto" fill="#f00" image-rendering="auto" shape-rendering="auto" solid-color="#000000" stop-color="#000000" style="font-feature-settings:normal;font-variant-alternates:normal;font-variant-caps:normal;font-variant-east-asian:normal;font-variant-ligatures:normal;font-variant-numeric:normal;font-variant-position:normal;font-variation-settings:normal;inline-size:0;isolation:auto;mix-blend-mode:normal;shape-margin:0;shape-padding:0;text-decoration-color:#000000;text-decoration-line:none;text-decoration-style:solid;text-indent:0;text-orientation:mixed;text-transform:none;white-space:normal"/></g><g transform="matrix(.35278 0 0 .35278 -33.37 32.16)" clip-path="url(#clip3)"><path transform="matrix(1 0 0 -1 448.27 203.63)" d="m28.713 11.504-0.92383 1.3379-0.52344 2.127-0.50195 3.2734-0.49609 4.3652-0.49805 5.3125-0.49219 6.0762-0.49609 6.6152-0.49609 6.9258-0.49609 6.9883-0.49609 6.7988-0.49609 6.3652-0.49609 5.7051-0.49414 4.8359-0.49024 3.7891-0.48633 2.5859-0.28125 0.77539-0.24414-0.62305-0.48438-2.4805-0.49219-3.6973-0.49609-4.7578-0.49609-5.6426-0.49024-6.3203-0.49609-6.7715-0.49609-6.9805-0.49609-6.9414-0.49609-6.6504-0.49805-6.125-0.49609-5.3828-0.49805-4.4512-0.49609-3.3652-0.51953-2.2148-0.86328-1.4355-1.041 1.0391-0.53711 1.9531-0.50195 3.0801-0.49805 4.1914-0.49805 5.166-0.49219 5.9609-0.49609 6.543-0.49609 6.8906-0.49609 6.9961-0.49609 6.8477-0.49609 6.4531-0.49609 5.8301-0.49414 4.9941-0.49023 3.9785-0.48828 2.7988-0.35547 1.1367-0.17383-0.36328-0.47852-2.2539-0.49414-3.5059-0.49414-4.5918-0.49219-5.5059-0.49414-6.2227-0.49609-6.7129-0.49609-6.9648-0.99414 0.072265 0.49609 6.9648 0.49609 6.7168 0.49609 6.2305 0.49219 5.5195 0.49805 4.6172 0.5 3.5566 0.51172 2.4023 0.75 1.5801 1.1328-0.63281 0.56641-1.8066 0.50391-2.8887 0.49414-4.0137 0.49609-5.0137 0.49609-5.8418 0.49805-6.459 0.49609-6.8496 0.49609-6.9961 0.49609-6.8906 0.49414-6.5352 0.49219-5.9531 0.49609-5.1465 0.49414-4.1602 0.49024-3.0059 0.42969-1.5625 0.10352 0.17383 0.47266 2.0195 0.48828 3.3066 0.49414 4.4238 0.49609 5.3691 0.49609 6.1152 0.49609 6.6465 0.49609 6.9414 0.49609 6.9805 0.49609 6.7754 0.49219 6.3281 0.49609 5.6543 0.49805 4.7812 0.49805 3.7402 0.50781 2.5977 0.65234 1.6582 1.1836-0.12891 0.61523-1.6973 0.50586-2.6953 0.49609-3.8281 0.49609-4.8574 0.49609-5.7188 0.49805-6.3691 0.49609-6.8027 0.49609-6.9883 0.49609-6.9258 0.49414-6.6113 0.49219-6.0645 0.49609-5.2969 0.49414-4.3379 0.49219-3.2109 0.46875-1.9043 0.06836-0.09766 0.0059 0.0078 0.46289 1.7773 0.48633 3.1055 0.49609 4.2422 0.49414 5.2227 0.49609 6.0078 0.49609 6.5742 0.49609 6.9062 0.49609 6.9922 0.49609 6.8301 0.49219 6.416 0.49609 5.7832 0.49805 4.9395 0.49805 3.9258 0.50586 2.791 0.58594 1.75 1.1641 0.39453 0.69922-1.6191 0.50586-2.5 0.49805-3.6445 0.49805-4.6953 0.49609-5.5879 0.49805-6.2773 0.49609-6.7441 0.49609-6.9766 0.49609-6.9531 0.49609-6.6816 0.49024-6.1719 0.49609-5.4375 0.49414-4.5098 0.49219-3.4102 0.47852-2.1445 0.13867-0.26172 0.39062 1.3379 0.48633 2.8965 0.49414 4.0645 0.49414 5.0703 0.49609 5.8887 0.49609 6.4961 0.49609 6.8711 0.49609 6.9961 0.49609 6.8711 0.49219 6.5039 0.49609 5.9043 0.49805 5.0938 0.49805 4.1035 0.50195 2.9863 0.54883 1.8789 1.0898 0.85938 0.80859-1.5195 0.50976-2.3047 0.5-3.459 0.49805-4.5293 0.49609-5.4492 0.49805-6.1797 0.49609-6.6816 0.49609-6.9531 0.49609-6.9766 0.49219-6.7441 0.49414-6.2734 0.49609-5.5762 0.49414-4.6797 0.49414-3.6016 0.48242-2.3711 0.20898-0.49023 0.31836 0.94141 0.48242 2.6895 0.49414 3.8789 0.49414 4.916 0.49609 5.7637 0.49609 6.4121 0.49609 6.8223 0.49609 6.9922 0.49609 6.9102 0.49219 6.582 0.49609 6.0195 0.49805 5.2422 0.49609 4.2812 0.50195 3.1797 0.5293 2.041 0.98047 1.2129 0.92969-1.332 0.51953-2.123 0.5-3.2656 0.49805-4.3613 0.49609-5.3086 0.49609-6.0684 0.49805-6.6191 0.49609-6.9219 0.49609-6.9883 0.49219-6.7988 0.49414-6.3691 0.49609-5.707 0.49609-4.8418 0.49219-3.7949 0.48633-2.5918 0.28125-0.7832 0.24023 0.61133 0.48438 2.4727 0.49414 3.6934 0.49414 4.75 0.49609 5.6387 0.49609 6.3164 0.49609 6.7715 0.49609 6.9805 0.49609 6.9414 0.49219 6.6543 0.49609 6.1309 0.49609 5.3848 0.49805 4.4512 0.5 3.373 0.51953 2.2207 0.86133 1.4434 1.043-1.0273 0.53516-1.9512 0.50195-3.0762 0.49805-4.1836 0.49609-5.1621 0.49609-5.957 0.49805-6.543 0.49609-6.8867 0.49609-6.9961 0.49219-6.8477 0.4941-6.457 0.49609-5.834 0.49609-4.998 0.49414-3.9863 0.48828-2.8027 0.35742-1.1465 0.16602 0.34961 0.48047 2.25 0.49219 3.498 0.49414 4.5898 0.49609 5.5 0.49609 6.2188 0.49609 6.7129 0.49609 6.9648 0.99414-0.07227-0.49609-6.9648-0.49609-6.7168-0.49805-6.2266-0.49609-5.5156-0.49805-4.6133-0.49805-3.5488-0.51367-2.3984-0.74609-1.5723-1.1328 0.64258-0.56445 1.8125-0.50391 2.8926-0.49805 4.0215-0.49805 5.0176-0.49609 5.8457-0.49609 6.4648-0.49219 6.8477-0.49609 6.9961-0.49609 6.8867-0.49609 6.5352-0.49609 5.9492-0.49414 5.1426-0.49414 4.1523-0.49024 3.002-0.42578 1.5469-0.10352-0.17578-0.47461-2.0293-0.49219-3.3144-0.49414-4.4238-0.49609-5.3711-0.49414-6.1211-0.49219-6.6504-0.49609-6.9414-0.49609-6.9805-0.49609-6.7754-0.49805-6.3242-0.49609-5.6504-0.49609-4.7734-0.5-3.7363-0.50781-2.5898-0.64844-1.6582-1.1836 0.14062-0.61524 1.7051-0.50586 2.6992-0.49805 3.8359-0.49805 4.8633-0.49609 5.7207-0.49609 6.373-0.49219 6.8027-0.49609 6.9883-0.49609 6.9219-0.49609 6.6152-0.49609 6.0566-0.49414 5.293-0.49609 4.334-0.49024 3.2031-0.46484 1.9004-0.06445 0.0918-0.01172-0.01563-0.46289-1.7852-0.49023-3.1113-0.49414-4.25-0.49609-5.2266-0.49609-6.0098-0.49024-6.5762-0.49609-6.9102-0.49609-6.9922-0.49609-6.8262-0.49805-6.416-0.49609-5.7754-0.49609-4.9355-0.5-3.918-0.5-2.7871-0.58789-1.75-1.168-0.37695-0.69531 1.625-0.50781 2.5039-0.5 3.6484-0.49805 4.7031-0.49609 5.5879-0.49609 6.2812-0.49219 6.748-0.49609 6.9766-0.49609 6.9531-0.49609 6.6777-0.49609 6.1719-0.49609 5.4336-0.49414 4.502-0.49219 3.4082-0.47266 2.1328-0.13672 0.25781-0.39453-1.3516-0.48828-2.9043-0.49414-4.0684-0.49609-5.0781-0.49609-5.8926-0.49023-6.4961-0.49609-6.8711-0.49609-6.9961-0.49609-6.8711-0.49805-6.5039-0.49609-5.9004-0.49609-5.0859-0.49805-4.0996-0.5-2.9785-0.54883-1.873-1.0918-0.85156-0.80469 1.5273-0.51562 2.3105-0.5 3.4629-0.49805 4.5371-0.49609 5.4531-0.49219 6.1797-0.49609 6.6855-0.49609 6.9531-0.49609 6.9766-0.49609 6.7402-0.49609 6.2695-0.49609 5.5762-0.49414 4.6719-0.49219 3.5977-0.47852 2.3672-0.20703 0.47852-0.32031-0.95312-0.48828-2.6934-0.49219-3.8867-0.49609-4.9199-0.49609-5.7715-0.49023-6.4102-0.49609-6.8281-0.49609-6.9922-0.49609-6.9062-0.49805-6.582-0.49609-6.0156-0.49609-5.2383-0.49805-4.2734-0.49805-3.1738-0.5293-2.0371z" color="#000000" color-rendering="auto" dominant-baseline="auto" fill="#0f0" image-rendering="auto" shape-rendering="auto" solid-color="#000000" stop-color="#000000" style="font-feature-settings:normal;font-variant-alternates:normal;font-variant-caps:normal;font-variant-east-asian:normal;font-variant-ligatures:normal;font-variant-numeric:normal;font-variant-position:normal;font-variation-settings:normal;inline-size:0;isolation:auto;mix-blend-mode:normal;shape-margin:0;shape-padding:0;text-decoration-color:#000000;text-decoration-line:none;text-decoration-style:solid;text-indent:0;text-orientation:mixed;text-transform:none;white-space:normal"/></g></g><g transform="matrix(.35278 0 0 .35278 -33.37 32.16)"><g transform="translate(483.47 227.66)"><path d="m0.78125-3.0469v2.2969c0 0.59375 0.26562 0.84375 0.875 0.84375 0.1875 0 0.375-0.03125 0.42188-0.09375l0.39062-0.42188-0.10938-0.14062c-0.20312 0.10938-0.3125 0.15625-0.46875 0.15625-0.3125 0-0.4375-0.15625-0.4375-0.54688v-2.0938h1.0156l0.078125-0.42188-1.0938 0.046875v-0.3125c0-0.32812 0.015625-0.60938 0.078125-1.125l-0.09375-0.09375c-0.1875 0.125-0.42188 0.23438-0.67188 0.3125 0.015625 0.23438 0.03125 0.39062 0.03125 0.625v0.5625l-0.625 0.28125v0.15625z"/></g><g transform="translate(486.07 227.66)"><path d="m1.5-3.7031-0.078125-0.03125c-0.40625 0.17188-0.8125 0.28125-1.2344 0.32812v0.21875h0.29688c0.3125 0 0.34375 0.0625 0.34375 0.57812v1.7969c0 0.5-0.015625 0.5625-0.29688 0.57812l-0.35938 0.015625v0.25c0.79688-0.03125 0.79688-0.03125 0.98438-0.03125 0.20312 0 0.20312 0 1 0.03125v-0.25l-0.35938-0.015625c-0.28125-0.015625-0.29688-0.078125-0.29688-0.57812zm-0.375-1.7656c-0.23438 0-0.4375 0.20312-0.4375 0.4375s0.20312 0.4375 0.4375 0.4375 0.4375-0.20312 0.4375-0.4375c0-0.21875-0.20312-0.4375-0.4375-0.4375z"/></g><g transform="translate(488.39 227.66)"><path d="m0.14062-3.1875h0.29688c0.3125 0 0.34375 0.0625 0.34375 0.57812v1.7969c0 0.5-0.015625 0.5625-0.28125 0.57812l-0.375 0.015625v0.25c0.76562-0.03125 0.79688-0.03125 1.0156-0.03125s0.42188 0.015625 0.95312 0.03125v-0.25l-0.34375-0.015625c-0.26562-0.015625-0.29688-0.078125-0.29688-0.57812v-1.6875c0-0.35938 0.53125-0.75 1.0156-0.75 0.42188 0 0.71875 0.40625 0.71875 1.0156v1.4219c0 0.5-0.03125 0.5625-0.29688 0.57812l-0.35938 0.015625v0.25c0.79688-0.03125 0.79688-0.03125 0.98438-0.03125 0.20312 0 0.20312 0 1 0.03125v-0.25l-0.35938-0.015625c-0.28125-0.015625-0.29688-0.078125-0.29688-0.57812v-1.6875c0-0.35938 0.51562-0.75 1-0.75 0.4375 0 0.73438 0.40625 0.73438 1.0156v2.2656c0.48438-0.03125 0.48438-0.03125 0.625-0.03125 0.09375 0 0.09375 0 0.70312 0.03125v-0.25l-0.375-0.015625c-0.26562-0.015625-0.29688-0.078125-0.29688-0.57812v-1.6406c0-0.79688-0.45312-1.2812-1.1875-1.2812-0.28125 0-0.51562 0.0625-0.65625 0.20312l-0.60938 0.53125c-0.25-0.51562-0.57812-0.73438-1.125-0.73438-0.29688 0-0.51562 0.0625-0.65625 0.20312l-0.5625 0.5v-0.67188l-0.0625-0.03125c-0.40625 0.17188-0.82812 0.28125-1.25 0.32812z"/></g><g transform="translate(495.43 227.66)"><path d="m3.4844-0.5625-0.10938-0.078125c-0.5 0.3125-0.6875 0.375-1.0312 0.375-0.51562 0-0.95312-0.23438-1.1719-0.625-0.15625-0.25-0.20312-0.48438-0.21875-0.9375h1.1562c0.54688 0 0.89062-0.03125 1.4375-0.10938 0.015625-0.125 0.015625-0.1875 0.015625-0.28125 0-0.92188-0.57812-1.5156-1.4688-1.5156-0.29688 0-0.64062 0.09375-0.96875 0.29688-0.65625 0.375-0.92188 0.85938-0.92188 1.6875 0 0.5 0.125 0.9375 0.34375 1.2344 0.3125 0.42188 0.84375 0.67188 1.4375 0.67188 0.29688 0 0.59375-0.0625 0.92188-0.20312 0.21875-0.09375 0.39062-0.1875 0.42188-0.23438zm-0.625-1.5625c-0.40625 0.015625-0.60938 0.015625-0.89062 0.015625-0.35938 0-0.57812 0-1-0.046875 0-0.375 0.03125-0.54688 0.125-0.75 0.17188-0.35938 0.51562-0.5625 0.89062-0.5625 0.26562 0 0.48438 0.09375 0.625 0.3125 0.17188 0.26562 0.23438 0.5 0.25 1.0312z"/></g><g transform="translate(501.67 227.66)"><path d="m2.75 2c0-0.03125 0-0.046875-0.14062-0.1875-1.0312-1.0469-1.2969-2.625-1.2969-3.8906 0-1.4531 0.3125-2.8906 1.3281-3.9375 0.10938-0.09375 0.10938-0.10938 0.10938-0.14062 0-0.046875-0.03125-0.078125-0.078125-0.078125-0.09375 0-0.82812 0.5625-1.3281 1.625-0.42188 0.90625-0.51562 1.8281-0.51562 2.5312 0 0.64062 0.09375 1.6562 0.54688 2.5938 0.5 1.0156 1.2031 1.5625 1.2969 1.5625 0.046875 0 0.078125-0.03125 0.078125-0.078125z"/></g><g transform="translate(505.08 227.66)"><path d="m0.25-1.1719c-0.046875 0.40625-0.09375 0.67188-0.17188 1.0469 0.29688 0.14062 0.5625 0.21875 0.84375 0.21875 0.39062 0 0.76562-0.15625 1.1719-0.46875s0.5625-0.60938 0.5625-1.0156c0-0.42188-0.25-0.65625-0.84375-0.76562l-0.34375-0.0625c-0.46875-0.09375-0.625-0.23438-0.625-0.54688 0-0.4375 0.35938-0.75 0.8125-0.75 0.32812 0 0.625 0.14062 0.76562 0.35938v0.4375h0.17188c0.03125-0.28125 0.0625-0.5 0.15625-0.90625-0.3125-0.15625-0.53125-0.21875-0.79688-0.21875-0.42188 0-0.90625 0.23438-1.2812 0.625-0.20312 0.21875-0.29688 0.40625-0.29688 0.70312 0 0.4375 0.25 0.70312 0.76562 0.79688l0.51562 0.09375c0.34375 0.078125 0.46875 0.21875 0.46875 0.53125 0 0.51562-0.35938 0.85938-0.9375 0.85938-0.26562 0-0.51562-0.078125-0.73438-0.28125v-0.65625z"/></g><g transform="translate(508.38 227.66)"><path d="m2.4062-2.0781c0-0.64062-0.09375-1.6562-0.54688-2.5938-0.5-1.0156-1.2188-1.5625-1.2969-1.5625-0.0625 0-0.09375 0.03125-0.09375 0.078125 0 0.03125 0 0.046875 0.15625 0.20312 0.82812 0.8125 1.2969 2.1406 1.2969 3.875 0 1.4219-0.3125 2.8906-1.3438 3.9375-0.10938 0.09375-0.10938 0.10938-0.10938 0.14062 0 0.046875 0.03125 0.078125 0.09375 0.078125 0.078125 0 0.82812-0.5625 1.3125-1.625 0.42188-0.90625 0.53125-1.8281 0.53125-2.5312z"/></g></g><g transform="matrix(.35278 0 0 .35278 -30.195 32.16)"><g transform="translate(415.17 172.59)"><path d="m-0.65625-2.5781 0.6875 0.03125c-0.03125-0.51562-0.03125-0.51562-0.03125-0.60938 0-0.046875 0.015625-0.25 0.03125-0.59375h-0.25l-0.015625 0.3125c0 0.1875-0.0625 0.21875-0.45312 0.21875h-1.4688c-1.1562 0-1.5781 0.32812-1.5781 1.2656 0 0.32812 0.078125 0.65625 0.26562 0.95312l0.25 0.42188h0.53125l0.046875-0.20312-0.25-0.10938c-0.375-0.15625-0.42188-0.23438-0.42188-0.60938 0-0.75 0.29688-1.0625 1.0156-1.0781l0.14062 0.78125c0.20312 1.0938 0.57812 1.5469 1.2656 1.5469 0.625 0 0.98438-0.375 0.98438-1.0156 0-0.14062-0.015625-0.26562-0.0625-0.32812zm-0.32812 0c0.32812 0.23438 0.625 0.73438 0.625 1.0469s-0.29688 0.59375-0.64062 0.59375c-0.29688 0-0.5625-0.15625-0.71875-0.40625-0.125-0.1875-0.23438-0.625-0.32812-1.2344z"/></g><g transform="translate(415.17 168.6)"><path d="m-3.1875-0.14062v-0.29688c0-0.3125 0.0625-0.34375 0.57812-0.34375h1.7969c0.5 0 0.5625 0.015625 0.57812 0.28125l0.015625 0.375h0.25c-0.03125-0.76562-0.03125-0.79688-0.03125-1.0156s0.015625-0.42188 0.03125-0.95312h-0.25l-0.015625 0.34375c-0.015625 0.26562-0.078125 0.29688-0.57812 0.29688h-1.6875c-0.35938 0-0.75-0.53125-0.75-1.0156 0-0.42188 0.40625-0.71875 1.0156-0.71875h1.4219c0.5 0 0.5625 0.03125 0.57812 0.29688l0.015625 0.35938h0.25c-0.03125-0.79688-0.03125-0.79688-0.03125-0.98438 0-0.20312 0-0.20312 0.03125-1h-0.25l-0.015625 0.35938c-0.015625 0.28125-0.078125 0.29688-0.57812 0.29688h-1.6875c-0.35938 0-0.75-0.51562-0.75-1 0-0.4375 0.40625-0.73438 1.0156-0.73438h2.2656c-0.03125-0.48438-0.03125-0.48438-0.03125-0.625 0-0.09375 0-0.09375 0.03125-0.70312h-0.25l-0.015625 0.375c-0.015625 0.26562-0.078125 0.29688-0.57812 0.29688h-1.6406c-0.79688 0-1.2812 0.45312-1.2812 1.1875 0 0.28125 0.0625 0.51562 0.20312 0.65625l0.53125 0.60938c-0.51562 0.25-0.73438 0.57812-0.73438 1.125 0 0.29688 0.0625 0.51562 0.20312 0.65625l0.5 0.5625h-0.67188l-0.03125 0.0625c0.17188 0.40625 0.28125 0.82812 0.32812 1.25z"/></g><g transform="translate(415.17 161.56)"><path d="m-3.1875-0.078125v-0.29688c0-0.3125 0.0625-0.34375 0.57812-0.34375h4.0156c0.5 0 0.54688 0.015625 0.5625 0.28125l0.03125 0.375h0.23438c-0.015625-0.79688-0.015625-0.79688-0.015625-1s0-0.20312 0.015625-1h-0.23438l-0.03125 0.375c-0.015625 0.26562-0.0625 0.29688-0.5625 0.29688h-1.5156c0.15625-0.25 0.20312-0.5 0.20312-0.85938 0-0.23438-0.046875-0.4375-0.125-0.5625l-0.59375-0.90625c-0.20312-0.32812-1.0312-0.70312-1.5312-0.70312-0.89062 0-1.5781 0.73438-1.5781 1.6719 0 0.28125 0.078125 0.57812 0.20312 0.70312l0.59375 0.65625h-0.76562l-0.03125 0.0625c0.17188 0.40625 0.28125 0.82812 0.32812 1.25zm0.75-1.3125c-0.10938 0-0.20312-0.046875-0.32812-0.14062-0.29688-0.23438-0.45312-0.5625-0.45312-0.96875 0-0.75 0.53125-1.2188 1.3594-1.2188 0.89062 0 1.5469 0.53125 1.5469 1.25 0 0.4375-0.14062 0.76562-0.46875 1.0781z"/></g><g transform="translate(415.17 156.77)"><path d="m-5.2656-0.1875v-0.4375c0-0.14062 0.09375-0.20312 0.32812-0.20312h4.125c0.5 0 0.5625 0.015625 0.57812 0.29688l0.015625 0.35938h0.25c-0.03125-0.79688-0.03125-0.79688-0.03125-0.98438 0-0.20312 0-0.20312 0.03125-1h-0.25l-0.015625 0.35938c-0.015625 0.28125-0.078125 0.29688-0.57812 0.29688h-4.9062l-0.0625 0.078125c0.125 0.34375 0.1875 0.60938 0.29688 1.2344z"/></g><g transform="translate(415.17 154.45)"><path d="m-3.7031-1.5-0.03125 0.078125c0.17188 0.40625 0.28125 0.8125 0.32812 1.2344h0.21875v-0.29688c0-0.3125 0.0625-0.34375 0.57812-0.34375h1.7969c0.5 0 0.5625 0.015625 0.57812 0.29688l0.015625 0.35938h0.25c-0.03125-0.79688-0.03125-0.79688-0.03125-0.98438 0-0.20312 0-0.20312 0.03125-1h-0.25l-0.015625 0.35938c-0.015625 0.28125-0.078125 0.29688-0.57812 0.29688zm-1.7656 0.375c0 0.23438 0.20312 0.4375 0.4375 0.4375s0.4375-0.20312 0.4375-0.4375-0.20312-0.4375-0.4375-0.4375c-0.21875 0-0.4375 0.20312-0.4375 0.4375z"/></g><g transform="translate(415.17 152.13)"><path d="m-3.0469-0.78125h2.2969c0.59375 0 0.84375-0.26562 0.84375-0.875 0-0.1875-0.03125-0.375-0.09375-0.42188l-0.42188-0.39062-0.14062 0.10938c0.10938 0.20312 0.15625 0.3125 0.15625 0.46875 0 0.3125-0.15625 0.4375-0.54688 0.4375h-2.0938v-1.0156l-0.42188-0.078125 0.046875 1.0938h-0.3125c-0.32812 0-0.60938-0.015625-1.125-0.078125l-0.09375 0.09375c0.125 0.1875 0.23438 0.42188 0.3125 0.67188 0.23438-0.015625 0.39062-0.03125 0.625-0.03125h0.5625l0.28125 0.625h0.15625z"/></g><g transform="translate(415.17 149.54)"><path d="m-3.7031-4.0156-0.03125 0.078125c0.17188 0.40625 0.28125 0.82812 0.32812 1.25h0.21875v-0.29688c0-0.32812 0.0625-0.35938 0.57812-0.35938h1.2969c0.1875 0 0.40625 0.10938 0.59375 0.29688 0.21875 0.21875 0.32812 0.48438 0.32812 0.79688 0 0.28125-0.09375 0.5-0.23438 0.625-0.125 0.10938-0.375 0.17188-0.73438 0.17188h-2.3438l-0.03125 0.0625c0.17188 0.40625 0.28125 0.82812 0.32812 1.25h0.21875v-0.29688c0-0.3125 0.0625-0.34375 0.57812-0.34375h1.3438c0.5625 0 0.79688-0.0625 1-0.20312 0.23438-0.17188 0.35938-0.46875 0.35938-0.92188 0-0.35938-0.10938-0.6875-0.3125-0.90625l-0.48438-0.53125c0.21875 0 0.35938 0.015625 0.73438 0.03125-0.03125-0.53125-0.03125-0.53125-0.03125-0.65625 0-0.10938 0-0.10938 0.03125-0.65625h-0.25l-0.015625 0.32812c-0.015625 0.26562-0.0625 0.28125-0.57812 0.28125z"/></g><g transform="translate(415.17 144.73)"><path d="m-3.4844-3.2812c-0.1875 0.4375-0.25 0.67188-0.25 0.95312 0 0.20312 0.046875 0.40625 0.15625 0.59375l0.35938 0.70312c0.23438 0.45312 0.8125 0.75 1.5 0.75 0.64062 0 1.1562-0.21875 1.4844-0.60938 0.21875-0.26562 0.32812-0.64062 0.32812-1.1562 0-0.15625-0.03125-0.34375-0.0625-0.39062l-0.73438-0.875 0.73438 0.03125c-0.015625-0.39062-0.03125-0.51562-0.03125-0.60938 0-0.0625 0-0.17188 0.015625-0.34375 0-0.046875 0-0.21875 0.015625-0.375h-0.25l-0.015625 0.35938c-0.015625 0.28125-0.078125 0.29688-0.57812 0.29688h-4.9062l-0.0625 0.078125c0.125 0.34375 0.1875 0.60938 0.29688 1.2344h0.21875v-0.4375c0-0.15625 0.09375-0.20312 0.32812-0.20312zm1.7188 0c0.51562 0 0.60938 0.015625 0.78125 0.125 0.375 0.21875 0.625 0.60938 0.625 0.98438 0 0.70312-0.67188 1.2031-1.625 1.2031-0.875 0-1.375-0.4375-1.375-1.1562 0-0.29688 0.09375-0.60938 0.29688-0.89062 0.10938-0.17188 0.20312-0.26562 0.28125-0.26562z"/></g><g transform="translate(415.17 139.86)"><path d="m-0.5625-3.4844-0.078125 0.10938c0.3125 0.5 0.375 0.6875 0.375 1.0312 0 0.51562-0.23438 0.95312-0.625 1.1719-0.25 0.15625-0.48438 0.20312-0.9375 0.21875v-1.1562c0-0.54688-0.03125-0.89062-0.10938-1.4375-0.125-0.015625-0.1875-0.015625-0.28125-0.015625-0.92188 0-1.5156 0.57812-1.5156 1.4688 0 0.29688 0.09375 0.64062 0.29688 0.96875 0.375 0.65625 0.85938 0.92188 1.6875 0.92188 0.5 0 0.9375-0.125 1.2344-0.34375 0.42188-0.3125 0.67188-0.84375 0.67188-1.4375 0-0.29688-0.0625-0.59375-0.20312-0.92188-0.09375-0.21875-0.1875-0.39062-0.23438-0.42188zm-1.5625 0.625c0.015625 0.40625 0.015625 0.60938 0.015625 0.89062 0 0.35938 0 0.57812-0.046875 1-0.375 0-0.54688-0.03125-0.75-0.125-0.35938-0.17188-0.5625-0.51562-0.5625-0.89062 0-0.26562 0.09375-0.48438 0.3125-0.625 0.26562-0.17188 0.5-0.23438 1.0312-0.25z"/></g></g></g></svg>
