<svg width="48.619mm" height="44.354mm" version="1.1" viewBox="0 0 48.619 44.354" xmlns="http://www.w3.org/2000/svg"><defs><clipPath id="clip1"><path d="m447.24 191.46h98.633v98.633h-98.633z"/></clipPath></defs><g transform="translate(-18.78 -29.228)"><g shape-rendering="auto"><path d="m32.063 65.214v-34.795h0.14056v34.795zm6.9591 0v-34.795h0.14056v34.795zm6.9591 0v-34.795h0.14056v34.795zm6.9591 0v-34.795h0.14056v34.795zm6.9591 0v-34.795h0.14056v34.795zm6.9591 0v-34.795h0.14056v34.795z" color="#000000" color-rendering="auto" dominant-baseline="auto" fill="#bfbfbf" image-rendering="auto" solid-color="#000000" stop-color="#000000" style="font-feature-settings:normal;font-variant-alternates:normal;font-variant-caps:normal;font-variant-east-asian:normal;font-variant-ligatures:normal;font-variant-numeric:normal;font-variant-position:normal;font-variation-settings:normal;inline-size:0;isolation:auto;mix-blend-mode:normal;shape-margin:0;shape-padding:0;text-decoration-color:#000000;text-decoration-line:none;text-decoration-style:solid;text-indent:0;text-orientation:mixed;text-transform:none;white-space:normal"/><path d="m32.133 65.284v-0.14056h34.795v0.14056zm0-4.3505v-0.14056h34.795v0.14056zm0-4.3491v-0.14056h34.795v0.14056zm0-4.3491v-0.14056h34.795v0.14056zm0-4.3491v-0.14056h34.795v0.14056zm0-4.3491v-0.14056h34.795v0.14056zm0-4.3505v-0.14056h34.795v0.14056zm0-4.3491v-0.14056h34.795v0.14056zm0-4.3491v-0.14056h34.795v0.14056z" color="#000000" color-rendering="auto" dominant-baseline="auto" fill="#bfbfbf" image-rendering="auto" solid-color="#000000" stop-color="#000000" style="font-feature-settings:normal;font-variant-alternates:normal;font-variant-caps:normal;font-variant-east-asian:normal;font-variant-ligatures:normal;font-variant-numeric:normal;font-variant-position:normal;font-variation-settings:normal;inline-size:0;isolation:auto;mix-blend-mode:normal;shape-margin:0;shape-padding:0;text-decoration-color:#000000;text-decoration-line:none;text-decoration-style:solid;text-indent:0;text-orientation:mixed;text-transform:none;white-space:normal"/><path d="m32.098 65.963v-1.5007h0.07028v1.5007zm6.9591 0v-1.5007h0.07028v1.5007zm6.9591 0v-1.5007h0.07028v1.5007zm6.9591 0v-1.5007h0.07028v1.5007zm6.9591 0v-1.5007h0.07028v1.5007zm6.9591 0v-1.5007h0.07028v1.5007z" color="#000000" color-rendering="auto" dominant-baseline="auto" fill="#7f7f7f" image-rendering="auto" solid-color="#000000" stop-color="#000000" style="font-feature-settings:normal;font-variant-alternates:normal;font-variant-caps:normal;font-variant-east-asian:normal;font-variant-ligatures:normal;font-variant-numeric:normal;font-variant-position:normal;font-variation-settings:normal;inline-size:0;isolation:auto;mix-blend-mode:normal;shape-margin:0;shape-padding:0;text-decoration-color:#000000;text-decoration-line:none;text-decoration-style:solid;text-indent:0;text-orientation:mixed;text-transform:none;white-space:normal"/><path d="m31.384 65.249v-0.07028h1.4993v0.07028zm0-4.3505v-0.07028h1.4993v0.07028zm0-4.3491v-0.07028h1.4993v0.07028zm0-4.3491v-0.07028h1.4993v0.07028zm0-4.3491v-0.07028h1.4993v0.07028zm0-4.3491v-0.07028h1.4993v0.07028zm0-4.3505v-0.07028h1.4993v0.07028zm0-4.3491v-0.07028h1.4993v0.07028zm0-4.3491v-0.07028h1.4993v0.07028z" color="#000000" color-rendering="auto" dominant-baseline="auto" fill="#7f7f7f" image-rendering="auto" solid-color="#000000" stop-color="#000000" style="font-feature-settings:normal;font-variant-alternates:normal;font-variant-caps:normal;font-variant-east-asian:normal;font-variant-ligatures:normal;font-variant-numeric:normal;font-variant-position:normal;font-variation-settings:normal;inline-size:0;isolation:auto;mix-blend-mode:normal;shape-margin:0;shape-padding:0;text-decoration-color:#000000;text-decoration-line:none;text-decoration-style:solid;text-indent:0;text-orientation:mixed;text-transform:none;white-space:normal"/><path d="m32.133 65.284v-0.14056h34.091v0.14056z" color="#000000" color-rendering="auto" dominant-baseline="auto" image-rendering="auto" solid-color="#000000" stop-color="#000000" style="font-feature-settings:normal;font-variant-alternates:normal;font-variant-caps:normal;font-variant-east-asian:normal;font-variant-ligatures:normal;font-variant-numeric:normal;font-variant-position:normal;font-variation-settings:normal;inline-size:0;isolation:auto;mix-blend-mode:normal;shape-margin:0;shape-padding:0;text-decoration-color:#000000;text-decoration-line:none;text-decoration-style:solid;text-indent:0;text-orientation:mixed;text-transform:none;white-space:normal"/></g><g><g><path d="m66.929 65.214-1.1259-0.56362 0.42168 0.56362-0.42168 0.56224"/><path d="m32.063 65.214v-34.093h0.14056v34.093z" color="#000000" color-rendering="auto" dominant-baseline="auto" image-rendering="auto" shape-rendering="auto" solid-color="#000000" stop-color="#000000" style="font-feature-settings:normal;font-variant-alternates:normal;font-variant-caps:normal;font-variant-east-asian:normal;font-variant-ligatures:normal;font-variant-numeric:normal;font-variant-position:normal;font-variation-settings:normal;inline-size:0;isolation:auto;mix-blend-mode:normal;shape-margin:0;shape-padding:0;text-decoration-color:#000000;text-decoration-line:none;text-decoration-style:solid;text-indent:0;text-orientation:mixed;text-transform:none;white-space:normal"/><path d="m32.133 30.418-0.56224 1.1245 0.56224-0.42168 0.56224 0.42168"/></g><g transform="matrix(.35278 0 0 .35278 -125.64 -37.124)"><g transform="translate(445.25 300.51)"><path d="m2.0938-5.4844c-1.2344 0-1.8594 0.96875-1.8594 2.9062 0 0.92188 0.15625 1.7344 0.4375 2.125s0.73438 0.60938 1.2188 0.60938c1.2031 0 1.8125-1.0312 1.8125-3.0781 0-1.7344-0.51562-2.5625-1.6094-2.5625zm-0.14062 0.26562c0.76562 0 1.0781 0.78125 1.0781 2.7031 0 1.6875-0.29688 2.3906-1.0312 2.3906-0.76562 0-1.0938-0.79688-1.0938-2.75 0-1.6719 0.28125-2.3438 1.0469-2.3438z"/></g><g transform="translate(461.98 300.51)"><path d="m2.0938-5.4844c-1.2344 0-1.8594 0.96875-1.8594 2.9062 0 0.92188 0.15625 1.7344 0.4375 2.125s0.73438 0.60938 1.2188 0.60938c1.2031 0 1.8125-1.0312 1.8125-3.0781 0-1.7344-0.51562-2.5625-1.6094-2.5625zm-0.14062 0.26562c0.76562 0 1.0781 0.78125 1.0781 2.7031 0 1.6875-0.29688 2.3906-1.0312 2.3906-0.76562 0-1.0938-0.79688-1.0938-2.75 0-1.6719 0.28125-2.3438 1.0469-2.3438z"/></g><g transform="translate(465.97 300.51)"><path d="m0.98438-0.89062c-0.23438 0-0.45312 0.23438-0.45312 0.46875s0.21875 0.46875 0.45312 0.46875c0.25 0 0.46875-0.21875 0.46875-0.46875 0-0.23438-0.21875-0.46875-0.46875-0.46875z"/></g><g transform="translate(467.96 300.51)"><path d="m0.125-0.1875v0.21875c1.5-0.03125 1.5-0.03125 1.7812-0.03125s0.28125 0 1.8281 0.03125c-0.015625-0.17188-0.015625-0.25-0.015625-0.35938s0-0.1875 0.015625-0.35938c-0.92188 0.03125-1.2812 0.046875-2.7656 0.078125l1.4531-1.5469c0.78125-0.8125 1.0156-1.25 1.0156-1.8594 0-0.90625-0.625-1.4688-1.6406-1.4688-0.5625 0-0.95312 0.15625-1.3438 0.54688l-0.14062 1.0938h0.23438l0.09375-0.375c0.125-0.45312 0.42188-0.65625 0.95312-0.65625 0.6875 0 1.125 0.42188 1.125 1.1094 0 0.59375-0.34375 1.1875-1.2344 2.1406z"/></g><g transform="translate(481.71 300.63)"><path d="m2.0938-5.4844c-1.2344 0-1.8594 0.96875-1.8594 2.9062 0 0.92188 0.15625 1.7344 0.4375 2.125s0.73438 0.60938 1.2188 0.60938c1.2031 0 1.8125-1.0312 1.8125-3.0781 0-1.7344-0.51562-2.5625-1.6094-2.5625zm-0.14062 0.26562c0.76562 0 1.0781 0.78125 1.0781 2.7031 0 1.6875-0.29688 2.3906-1.0312 2.3906-0.76562 0-1.0938-0.79688-1.0938-2.75 0-1.6719 0.28125-2.3438 1.0469-2.3438z"/></g><g transform="translate(485.7 300.63)"><path d="m0.98438-0.89062c-0.23438 0-0.45312 0.23438-0.45312 0.46875s0.21875 0.46875 0.45312 0.46875c0.25 0 0.46875-0.21875 0.46875-0.46875 0-0.23438-0.21875-0.46875-0.46875-0.46875z"/></g><g transform="translate(487.69 300.63)"><path d="m2.2344-1.4375v0.59375c0 0.48438-0.09375 0.59375-0.48438 0.60938l-0.48438 0.015625v0.25c1.0469-0.03125 1.0469-0.03125 1.25-0.03125 0.1875 0 0.1875 0 1.25 0.03125v-0.25l-0.39062-0.015625c-0.39062-0.03125-0.46875-0.125-0.46875-0.60938v-0.59375c0.46875 0 0.625 0 0.85938 0.03125v-0.5625c-0.375 0.03125-0.53125 0.03125-0.65625 0.015625h-0.20312v-1.1094c0-1.4219 0.015625-2.0938 0.046875-2.4219l-0.09375-0.046875-0.59375 0.21875-2.25 3.6875 0.09375 0.1875zm0-0.51562h-1.7188l1.7188-2.7969z"/></g><g transform="translate(501.44 300.51)"><path d="m2.0938-5.4844c-1.2344 0-1.8594 0.96875-1.8594 2.9062 0 0.92188 0.15625 1.7344 0.4375 2.125s0.73438 0.60938 1.2188 0.60938c1.2031 0 1.8125-1.0312 1.8125-3.0781 0-1.7344-0.51562-2.5625-1.6094-2.5625zm-0.14062 0.26562c0.76562 0 1.0781 0.78125 1.0781 2.7031 0 1.6875-0.29688 2.3906-1.0312 2.3906-0.76562 0-1.0938-0.79688-1.0938-2.75 0-1.6719 0.28125-2.3438 1.0469-2.3438z"/></g><g transform="translate(505.42 300.51)"><path d="m0.98438-0.89062c-0.23438 0-0.45312 0.23438-0.45312 0.46875s0.21875 0.46875 0.45312 0.46875c0.25 0 0.46875-0.21875 0.46875-0.46875 0-0.23438-0.21875-0.46875-0.46875-0.46875z"/></g><g transform="translate(507.41 300.51)"><path d="m3.3125-5.3594-0.29688-0.125c-0.76562 0.25-1.0938 0.40625-1.5 0.76562-0.8125 0.6875-1.2656 1.6562-1.2656 2.75 0 1.3125 0.64062 2.125 1.6719 2.125s1.8125-0.8125 1.8125-1.9062c0-0.90625-0.5625-1.5156-1.4062-1.5156-0.39062 0-0.625 0.10938-1.0938 0.48438-0.09375 0.078125-0.10938 0.078125-0.1875 0.14062 0.17188-1.4375 0.82812-2.2188 2.2656-2.6562zm-1.2812 2.5781c0.60938 0 1.0156 0.53125 1.0156 1.3125 0 0.82812-0.40625 1.3594-1.0156 1.3594-0.6875 0-1.0469-0.57812-1.0469-1.6406 0-0.28125 0.03125-0.4375 0.10938-0.5625 0.1875-0.28125 0.5625-0.46875 0.9375-0.46875z"/></g><g transform="translate(521.16 300.51)"><path d="m2.0938-5.4844c-1.2344 0-1.8594 0.96875-1.8594 2.9062 0 0.92188 0.15625 1.7344 0.4375 2.125s0.73438 0.60938 1.2188 0.60938c1.2031 0 1.8125-1.0312 1.8125-3.0781 0-1.7344-0.51562-2.5625-1.6094-2.5625zm-0.14062 0.26562c0.76562 0 1.0781 0.78125 1.0781 2.7031 0 1.6875-0.29688 2.3906-1.0312 2.3906-0.76562 0-1.0938-0.79688-1.0938-2.75 0-1.6719 0.28125-2.3438 1.0469-2.3438z"/></g><g transform="translate(525.15 300.51)"><path d="m0.98438-0.89062c-0.23438 0-0.45312 0.23438-0.45312 0.46875s0.21875 0.46875 0.45312 0.46875c0.25 0 0.46875-0.21875 0.46875-0.46875 0-0.23438-0.21875-0.46875-0.46875-0.46875z"/></g><g transform="translate(527.14 300.51)"><path d="m1.3438-2.75c-0.32812 0.15625-0.46875 0.23438-0.64062 0.40625-0.3125 0.29688-0.46875 0.65625-0.46875 1.0781 0 0.8125 0.67188 1.4219 1.5625 1.4219 1.0469 0 1.9062-0.8125 1.9062-1.7969 0-0.64062-0.29688-0.98438-1.2031-1.3906 0.71875-0.5 0.96875-0.82812 0.96875-1.3125 0-0.6875-0.5625-1.1406-1.4062-1.1406-0.95312 0-1.6406 0.59375-1.6406 1.4375 0 0.54688 0.21875 0.84375 0.92188 1.2969zm0.92188 0.40625c0.5 0.21875 0.79688 0.60938 0.79688 1.0312 0 0.67188-0.5 1.2031-1.1406 1.2031-0.67188 0-1.1094-0.48438-1.1094-1.2188 0-0.57812 0.21875-0.95312 0.8125-1.3125zm-0.48438-1.0312c-0.5-0.25-0.76562-0.5625-0.76562-0.95312 0-0.53125 0.39062-0.89062 0.95312-0.89062 0.57812 0 0.96875 0.375 0.96875 0.96875 0 0.45312-0.20312 0.76562-0.71875 1.0938z"/></g><g transform="translate(543.88 300.63)"><path d="m0.53125-4.4219h0.078125l1.0312-0.46875h0.03125c0.046875 0 0.0625 0.0625 0.0625 0.26562v3.8594c0 0.42188-0.09375 0.5-0.51562 0.53125l-0.45312 0.015625v0.25c1.2188-0.03125 1.2188-0.03125 1.3125-0.03125 0.10938 0 0.28125 0 0.54688 0.015625 0.09375 0 0.375 0 0.70312 0.015625v-0.25l-0.40625-0.015625c-0.4375-0.03125-0.51562-0.10938-0.51562-0.53125v-4.7188l-0.125-0.046875c-0.51562 0.26562-1.0781 0.51562-1.7969 0.76562z"/></g><g transform="translate(531.81 309.5)"><path d="m1.5938-2.0781c0-0.23438-0.20312-0.4375-0.4375-0.4375s-0.4375 0.20312-0.4375 0.4375 0.20312 0.4375 0.4375 0.4375 0.4375-0.20312 0.4375-0.4375z"/></g><g transform="translate(534.21 309.5)"><path d="m0.53125-4.4219h0.078125l1.0312-0.46875h0.03125c0.046875 0 0.0625 0.0625 0.0625 0.26562v3.8594c0 0.42188-0.09375 0.5-0.51562 0.53125l-0.45312 0.015625v0.25c1.2188-0.03125 1.2188-0.03125 1.3125-0.03125 0.10938 0 0.28125 0 0.54688 0.015625 0.09375 0 0.375 0 0.70312 0.015625v-0.25l-0.40625-0.015625c-0.4375-0.03125-0.51562-0.10938-0.51562-0.53125v-4.7188l-0.125-0.046875c-0.51562 0.26562-1.0781 0.51562-1.7969 0.76562z"/></g><g transform="translate(538.2 309.5)"><path d="m2.0938-5.4844c-1.2344 0-1.8594 0.96875-1.8594 2.9062 0 0.92188 0.15625 1.7344 0.4375 2.125s0.73438 0.60938 1.2188 0.60938c1.2031 0 1.8125-1.0312 1.8125-3.0781 0-1.7344-0.51562-2.5625-1.6094-2.5625zm-0.14062 0.26562c0.76562 0 1.0781 0.78125 1.0781 2.7031 0 1.6875-0.29688 2.3906-1.0312 2.3906-0.76562 0-1.0938-0.79688-1.0938-2.75 0-1.6719 0.28125-2.3438 1.0469-2.3438z"/></g><g transform="translate(542.18 306.6)"><path d="m1.6719-1.0781v0.4375c0 0.35938-0.0625 0.45312-0.35938 0.46875l-0.35938 0.015625v0.17188c0.78125-0.015625 0.78125-0.015625 0.9375-0.015625 0.14062 0 0.14062 0 0.9375 0.015625v-0.17188l-0.29688-0.015625c-0.28125-0.03125-0.35938-0.10938-0.35938-0.46875v-0.4375c0.35938 0 0.48438 0 0.65625 0.015625v-0.42188c-0.28125 0.03125-0.40625 0.03125-0.48438 0.015625h-0.17188v-0.82812c0-1.0625 0.015625-1.5781 0.046875-1.8281l-0.078125-0.03125-0.4375 0.17188-1.6875 2.7656 0.0625 0.14062zm0-0.39062h-1.2812l1.2812-2.1094z"/></g><g transform="translate(438.27 292.75)"><path d="m2.0938-5.4844c-1.2344 0-1.8594 0.96875-1.8594 2.9062 0 0.92188 0.15625 1.7344 0.4375 2.125s0.73438 0.60938 1.2188 0.60938c1.2031 0 1.8125-1.0312 1.8125-3.0781 0-1.7344-0.51562-2.5625-1.6094-2.5625zm-0.14062 0.26562c0.76562 0 1.0781 0.78125 1.0781 2.7031 0 1.6875-0.29688 2.3906-1.0312 2.3906-0.76562 0-1.0938-0.79688-1.0938-2.75 0-1.6719 0.28125-2.3438 1.0469-2.3438z"/></g><g transform="translate(430.3 280.48)"><path d="m2.2344-1.4375v0.59375c0 0.48438-0.09375 0.59375-0.48438 0.60938l-0.48438 0.015625v0.25c1.0469-0.03125 1.0469-0.03125 1.25-0.03125 0.1875 0 0.1875 0 1.25 0.03125v-0.25l-0.39062-0.015625c-0.39062-0.03125-0.46875-0.125-0.46875-0.60938v-0.59375c0.46875 0 0.625 0 0.85938 0.03125v-0.5625c-0.375 0.03125-0.53125 0.03125-0.65625 0.015625h-0.20312v-1.1094c0-1.4219 0.015625-2.0938 0.046875-2.4219l-0.09375-0.046875-0.59375 0.21875-2.25 3.6875 0.09375 0.1875zm0-0.51562h-1.7188l1.7188-2.7969z"/></g><g transform="translate(434.29 280.48)"><path d="m2.0938-5.4844c-1.2344 0-1.8594 0.96875-1.8594 2.9062 0 0.92188 0.15625 1.7344 0.4375 2.125s0.73438 0.60938 1.2188 0.60938c1.2031 0 1.8125-1.0312 1.8125-3.0781 0-1.7344-0.51562-2.5625-1.6094-2.5625zm-0.14062 0.26562c0.76562 0 1.0781 0.78125 1.0781 2.7031 0 1.6875-0.29688 2.3906-1.0312 2.3906-0.76562 0-1.0938-0.79688-1.0938-2.75 0-1.6719 0.28125-2.3438 1.0469-2.3438z"/></g><g transform="translate(438.27 280.48)"><path d="m2.0938-5.4844c-1.2344 0-1.8594 0.96875-1.8594 2.9062 0 0.92188 0.15625 1.7344 0.4375 2.125s0.73438 0.60938 1.2188 0.60938c1.2031 0 1.8125-1.0312 1.8125-3.0781 0-1.7344-0.51562-2.5625-1.6094-2.5625zm-0.14062 0.26562c0.76562 0 1.0781 0.78125 1.0781 2.7031 0 1.6875-0.29688 2.3906-1.0312 2.3906-0.76562 0-1.0938-0.79688-1.0938-2.75 0-1.6719 0.28125-2.3438 1.0469-2.3438z"/></g><g transform="translate(430.3 268.09)"><path d="m1.3438-2.75c-0.32812 0.15625-0.46875 0.23438-0.64062 0.40625-0.3125 0.29688-0.46875 0.65625-0.46875 1.0781 0 0.8125 0.67188 1.4219 1.5625 1.4219 1.0469 0 1.9062-0.8125 1.9062-1.7969 0-0.64062-0.29688-0.98438-1.2031-1.3906 0.71875-0.5 0.96875-0.82812 0.96875-1.3125 0-0.6875-0.5625-1.1406-1.4062-1.1406-0.95312 0-1.6406 0.59375-1.6406 1.4375 0 0.54688 0.21875 0.84375 0.92188 1.2969zm0.92188 0.40625c0.5 0.21875 0.79688 0.60938 0.79688 1.0312 0 0.67188-0.5 1.2031-1.1406 1.2031-0.67188 0-1.1094-0.48438-1.1094-1.2188 0-0.57812 0.21875-0.95312 0.8125-1.3125zm-0.48438-1.0312c-0.5-0.25-0.76562-0.5625-0.76562-0.95312 0-0.53125 0.39062-0.89062 0.95312-0.89062 0.57812 0 0.96875 0.375 0.96875 0.96875 0 0.45312-0.20312 0.76562-0.71875 1.0938z"/></g><g transform="translate(434.29 268.09)"><path d="m2.0938-5.4844c-1.2344 0-1.8594 0.96875-1.8594 2.9062 0 0.92188 0.15625 1.7344 0.4375 2.125s0.73438 0.60938 1.2188 0.60938c1.2031 0 1.8125-1.0312 1.8125-3.0781 0-1.7344-0.51562-2.5625-1.6094-2.5625zm-0.14062 0.26562c0.76562 0 1.0781 0.78125 1.0781 2.7031 0 1.6875-0.29688 2.3906-1.0312 2.3906-0.76562 0-1.0938-0.79688-1.0938-2.75 0-1.6719 0.28125-2.3438 1.0469-2.3438z"/></g><g transform="translate(438.27 268.09)"><path d="m2.0938-5.4844c-1.2344 0-1.8594 0.96875-1.8594 2.9062 0 0.92188 0.15625 1.7344 0.4375 2.125s0.73438 0.60938 1.2188 0.60938c1.2031 0 1.8125-1.0312 1.8125-3.0781 0-1.7344-0.51562-2.5625-1.6094-2.5625zm-0.14062 0.26562c0.76562 0 1.0781 0.78125 1.0781 2.7031 0 1.6875-0.29688 2.3906-1.0312 2.3906-0.76562 0-1.0938-0.79688-1.0938-2.75 0-1.6719 0.28125-2.3438 1.0469-2.3438z"/></g><g transform="translate(424.33 255.27)"><path d="m0.53125-4.4219h0.078125l1.0312-0.46875h0.03125c0.046875 0 0.0625 0.0625 0.0625 0.26562v3.8594c0 0.42188-0.09375 0.5-0.51562 0.53125l-0.45312 0.015625v0.25c1.2188-0.03125 1.2188-0.03125 1.3125-0.03125 0.10938 0 0.28125 0 0.54688 0.015625 0.09375 0 0.375 0 0.70312 0.015625v-0.25l-0.40625-0.015625c-0.4375-0.03125-0.51562-0.10938-0.51562-0.53125v-4.7188l-0.125-0.046875c-0.51562 0.26562-1.0781 0.51562-1.7969 0.76562z"/></g><g transform="translate(428.31 255.27)"><path d="m1.625-0.98438c-0.21875 0.078125-0.35938 0.125-0.78125 0.25-0.0625 0.59375-0.25 1.1094-0.71875 1.875l0.10938 0.09375 0.32812-0.15625c0.65625-0.82812 0.95312-1.3281 1.1719-1.9531z"/></g><g transform="translate(430.3 255.27)"><path d="m0.125-0.1875v0.21875c1.5-0.03125 1.5-0.03125 1.7812-0.03125s0.28125 0 1.8281 0.03125c-0.015625-0.17188-0.015625-0.25-0.015625-0.35938s0-0.1875 0.015625-0.35938c-0.92188 0.03125-1.2812 0.046875-2.7656 0.078125l1.4531-1.5469c0.78125-0.8125 1.0156-1.25 1.0156-1.8594 0-0.90625-0.625-1.4688-1.6406-1.4688-0.5625 0-0.95312 0.15625-1.3438 0.54688l-0.14062 1.0938h0.23438l0.09375-0.375c0.125-0.45312 0.42188-0.65625 0.95312-0.65625 0.6875 0 1.125 0.42188 1.125 1.1094 0 0.59375-0.34375 1.1875-1.2344 2.1406z"/></g><g transform="translate(434.29 255.27)"><path d="m2.0938-5.4844c-1.2344 0-1.8594 0.96875-1.8594 2.9062 0 0.92188 0.15625 1.7344 0.4375 2.125s0.73438 0.60938 1.2188 0.60938c1.2031 0 1.8125-1.0312 1.8125-3.0781 0-1.7344-0.51562-2.5625-1.6094-2.5625zm-0.14062 0.26562c0.76562 0 1.0781 0.78125 1.0781 2.7031 0 1.6875-0.29688 2.3906-1.0312 2.3906-0.76562 0-1.0938-0.79688-1.0938-2.75 0-1.6719 0.28125-2.3438 1.0469-2.3438z"/></g><g transform="translate(438.27 255.27)"><path d="m2.0938-5.4844c-1.2344 0-1.8594 0.96875-1.8594 2.9062 0 0.92188 0.15625 1.7344 0.4375 2.125s0.73438 0.60938 1.2188 0.60938c1.2031 0 1.8125-1.0312 1.8125-3.0781 0-1.7344-0.51562-2.5625-1.6094-2.5625zm-0.14062 0.26562c0.76562 0 1.0781 0.78125 1.0781 2.7031 0 1.6875-0.29688 2.3906-1.0312 2.3906-0.76562 0-1.0938-0.79688-1.0938-2.75 0-1.6719 0.28125-2.3438 1.0469-2.3438z"/></g><g transform="translate(424.33 242.94)"><path d="m0.53125-4.4219h0.078125l1.0312-0.46875h0.03125c0.046875 0 0.0625 0.0625 0.0625 0.26562v3.8594c0 0.42188-0.09375 0.5-0.51562 0.53125l-0.45312 0.015625v0.25c1.2188-0.03125 1.2188-0.03125 1.3125-0.03125 0.10938 0 0.28125 0 0.54688 0.015625 0.09375 0 0.375 0 0.70312 0.015625v-0.25l-0.40625-0.015625c-0.4375-0.03125-0.51562-0.10938-0.51562-0.53125v-4.7188l-0.125-0.046875c-0.51562 0.26562-1.0781 0.51562-1.7969 0.76562z"/></g><g transform="translate(428.31 242.94)"><path d="m1.625-0.98438c-0.21875 0.078125-0.35938 0.125-0.78125 0.25-0.0625 0.59375-0.25 1.1094-0.71875 1.875l0.10938 0.09375 0.32812-0.15625c0.65625-0.82812 0.95312-1.3281 1.1719-1.9531z"/></g><g transform="translate(430.3 242.94)"><path d="m3.3125-5.3594-0.29688-0.125c-0.76562 0.25-1.0938 0.40625-1.5 0.76562-0.8125 0.6875-1.2656 1.6562-1.2656 2.75 0 1.3125 0.64062 2.125 1.6719 2.125s1.8125-0.8125 1.8125-1.9062c0-0.90625-0.5625-1.5156-1.4062-1.5156-0.39062 0-0.625 0.10938-1.0938 0.48438-0.09375 0.078125-0.10938 0.078125-0.1875 0.14062 0.17188-1.4375 0.82812-2.2188 2.2656-2.6562zm-1.2812 2.5781c0.60938 0 1.0156 0.53125 1.0156 1.3125 0 0.82812-0.40625 1.3594-1.0156 1.3594-0.6875 0-1.0469-0.57812-1.0469-1.6406 0-0.28125 0.03125-0.4375 0.10938-0.5625 0.1875-0.28125 0.5625-0.46875 0.9375-0.46875z"/></g><g transform="translate(434.29 242.94)"><path d="m2.0938-5.4844c-1.2344 0-1.8594 0.96875-1.8594 2.9062 0 0.92188 0.15625 1.7344 0.4375 2.125s0.73438 0.60938 1.2188 0.60938c1.2031 0 1.8125-1.0312 1.8125-3.0781 0-1.7344-0.51562-2.5625-1.6094-2.5625zm-0.14062 0.26562c0.76562 0 1.0781 0.78125 1.0781 2.7031 0 1.6875-0.29688 2.3906-1.0312 2.3906-0.76562 0-1.0938-0.79688-1.0938-2.75 0-1.6719 0.28125-2.3438 1.0469-2.3438z"/></g><g transform="translate(438.27 242.94)"><path d="m2.0938-5.4844c-1.2344 0-1.8594 0.96875-1.8594 2.9062 0 0.92188 0.15625 1.7344 0.4375 2.125s0.73438 0.60938 1.2188 0.60938c1.2031 0 1.8125-1.0312 1.8125-3.0781 0-1.7344-0.51562-2.5625-1.6094-2.5625zm-0.14062 0.26562c0.76562 0 1.0781 0.78125 1.0781 2.7031 0 1.6875-0.29688 2.3906-1.0312 2.3906-0.76562 0-1.0938-0.79688-1.0938-2.75 0-1.6719 0.28125-2.3438 1.0469-2.3438z"/></g><g transform="translate(424.33 230.55)"><path d="m0.125-0.1875v0.21875c1.5-0.03125 1.5-0.03125 1.7812-0.03125s0.28125 0 1.8281 0.03125c-0.015625-0.17188-0.015625-0.25-0.015625-0.35938s0-0.1875 0.015625-0.35938c-0.92188 0.03125-1.2812 0.046875-2.7656 0.078125l1.4531-1.5469c0.78125-0.8125 1.0156-1.25 1.0156-1.8594 0-0.90625-0.625-1.4688-1.6406-1.4688-0.5625 0-0.95312 0.15625-1.3438 0.54688l-0.14062 1.0938h0.23438l0.09375-0.375c0.125-0.45312 0.42188-0.65625 0.95312-0.65625 0.6875 0 1.125 0.42188 1.125 1.1094 0 0.59375-0.34375 1.1875-1.2344 2.1406z"/></g><g transform="translate(428.31 230.55)"><path d="m1.625-0.98438c-0.21875 0.078125-0.35938 0.125-0.78125 0.25-0.0625 0.59375-0.25 1.1094-0.71875 1.875l0.10938 0.09375 0.32812-0.15625c0.65625-0.82812 0.95312-1.3281 1.1719-1.9531z"/></g><g transform="translate(430.3 230.55)"><path d="m2.0938-5.4844c-1.2344 0-1.8594 0.96875-1.8594 2.9062 0 0.92188 0.15625 1.7344 0.4375 2.125s0.73438 0.60938 1.2188 0.60938c1.2031 0 1.8125-1.0312 1.8125-3.0781 0-1.7344-0.51562-2.5625-1.6094-2.5625zm-0.14062 0.26562c0.76562 0 1.0781 0.78125 1.0781 2.7031 0 1.6875-0.29688 2.3906-1.0312 2.3906-0.76562 0-1.0938-0.79688-1.0938-2.75 0-1.6719 0.28125-2.3438 1.0469-2.3438z"/></g><g transform="translate(434.29 230.55)"><path d="m2.0938-5.4844c-1.2344 0-1.8594 0.96875-1.8594 2.9062 0 0.92188 0.15625 1.7344 0.4375 2.125s0.73438 0.60938 1.2188 0.60938c1.2031 0 1.8125-1.0312 1.8125-3.0781 0-1.7344-0.51562-2.5625-1.6094-2.5625zm-0.14062 0.26562c0.76562 0 1.0781 0.78125 1.0781 2.7031 0 1.6875-0.29688 2.3906-1.0312 2.3906-0.76562 0-1.0938-0.79688-1.0938-2.75 0-1.6719 0.28125-2.3438 1.0469-2.3438z"/></g><g transform="translate(438.27 230.55)"><path d="m2.0938-5.4844c-1.2344 0-1.8594 0.96875-1.8594 2.9062 0 0.92188 0.15625 1.7344 0.4375 2.125s0.73438 0.60938 1.2188 0.60938c1.2031 0 1.8125-1.0312 1.8125-3.0781 0-1.7344-0.51562-2.5625-1.6094-2.5625zm-0.14062 0.26562c0.76562 0 1.0781 0.78125 1.0781 2.7031 0 1.6875-0.29688 2.3906-1.0312 2.3906-0.76562 0-1.0938-0.79688-1.0938-2.75 0-1.6719 0.28125-2.3438 1.0469-2.3438z"/></g><g transform="translate(424.33 218.28)"><path d="m0.125-0.1875v0.21875c1.5-0.03125 1.5-0.03125 1.7812-0.03125s0.28125 0 1.8281 0.03125c-0.015625-0.17188-0.015625-0.25-0.015625-0.35938s0-0.1875 0.015625-0.35938c-0.92188 0.03125-1.2812 0.046875-2.7656 0.078125l1.4531-1.5469c0.78125-0.8125 1.0156-1.25 1.0156-1.8594 0-0.90625-0.625-1.4688-1.6406-1.4688-0.5625 0-0.95312 0.15625-1.3438 0.54688l-0.14062 1.0938h0.23438l0.09375-0.375c0.125-0.45312 0.42188-0.65625 0.95312-0.65625 0.6875 0 1.125 0.42188 1.125 1.1094 0 0.59375-0.34375 1.1875-1.2344 2.1406z"/></g><g transform="translate(428.31 218.28)"><path d="m1.625-0.98438c-0.21875 0.078125-0.35938 0.125-0.78125 0.25-0.0625 0.59375-0.25 1.1094-0.71875 1.875l0.10938 0.09375 0.32812-0.15625c0.65625-0.82812 0.95312-1.3281 1.1719-1.9531z"/></g><g transform="translate(430.3 218.28)"><path d="m2.2344-1.4375v0.59375c0 0.48438-0.09375 0.59375-0.48438 0.60938l-0.48438 0.015625v0.25c1.0469-0.03125 1.0469-0.03125 1.25-0.03125 0.1875 0 0.1875 0 1.25 0.03125v-0.25l-0.39062-0.015625c-0.39062-0.03125-0.46875-0.125-0.46875-0.60938v-0.59375c0.46875 0 0.625 0 0.85938 0.03125v-0.5625c-0.375 0.03125-0.53125 0.03125-0.65625 0.015625h-0.20312v-1.1094c0-1.4219 0.015625-2.0938 0.046875-2.4219l-0.09375-0.046875-0.59375 0.21875-2.25 3.6875 0.09375 0.1875zm0-0.51562h-1.7188l1.7188-2.7969z"/></g><g transform="translate(434.29 218.28)"><path d="m2.0938-5.4844c-1.2344 0-1.8594 0.96875-1.8594 2.9062 0 0.92188 0.15625 1.7344 0.4375 2.125s0.73438 0.60938 1.2188 0.60938c1.2031 0 1.8125-1.0312 1.8125-3.0781 0-1.7344-0.51562-2.5625-1.6094-2.5625zm-0.14062 0.26562c0.76562 0 1.0781 0.78125 1.0781 2.7031 0 1.6875-0.29688 2.3906-1.0312 2.3906-0.76562 0-1.0938-0.79688-1.0938-2.75 0-1.6719 0.28125-2.3438 1.0469-2.3438z"/></g><g transform="translate(438.27 218.28)"><path d="m2.0938-5.4844c-1.2344 0-1.8594 0.96875-1.8594 2.9062 0 0.92188 0.15625 1.7344 0.4375 2.125s0.73438 0.60938 1.2188 0.60938c1.2031 0 1.8125-1.0312 1.8125-3.0781 0-1.7344-0.51562-2.5625-1.6094-2.5625zm-0.14062 0.26562c0.76562 0 1.0781 0.78125 1.0781 2.7031 0 1.6875-0.29688 2.3906-1.0312 2.3906-0.76562 0-1.0938-0.79688-1.0938-2.75 0-1.6719 0.28125-2.3438 1.0469-2.3438z"/></g><g transform="translate(424.33 205.9)"><path d="m0.125-0.1875v0.21875c1.5-0.03125 1.5-0.03125 1.7812-0.03125s0.28125 0 1.8281 0.03125c-0.015625-0.17188-0.015625-0.25-0.015625-0.35938s0-0.1875 0.015625-0.35938c-0.92188 0.03125-1.2812 0.046875-2.7656 0.078125l1.4531-1.5469c0.78125-0.8125 1.0156-1.25 1.0156-1.8594 0-0.90625-0.625-1.4688-1.6406-1.4688-0.5625 0-0.95312 0.15625-1.3438 0.54688l-0.14062 1.0938h0.23438l0.09375-0.375c0.125-0.45312 0.42188-0.65625 0.95312-0.65625 0.6875 0 1.125 0.42188 1.125 1.1094 0 0.59375-0.34375 1.1875-1.2344 2.1406z"/></g><g transform="translate(428.31 205.9)"><path d="m1.625-0.98438c-0.21875 0.078125-0.35938 0.125-0.78125 0.25-0.0625 0.59375-0.25 1.1094-0.71875 1.875l0.10938 0.09375 0.32812-0.15625c0.65625-0.82812 0.95312-1.3281 1.1719-1.9531z"/></g><g transform="translate(430.3 205.9)"><path d="m1.3438-2.75c-0.32812 0.15625-0.46875 0.23438-0.64062 0.40625-0.3125 0.29688-0.46875 0.65625-0.46875 1.0781 0 0.8125 0.67188 1.4219 1.5625 1.4219 1.0469 0 1.9062-0.8125 1.9062-1.7969 0-0.64062-0.29688-0.98438-1.2031-1.3906 0.71875-0.5 0.96875-0.82812 0.96875-1.3125 0-0.6875-0.5625-1.1406-1.4062-1.1406-0.95312 0-1.6406 0.59375-1.6406 1.4375 0 0.54688 0.21875 0.84375 0.92188 1.2969zm0.92188 0.40625c0.5 0.21875 0.79688 0.60938 0.79688 1.0312 0 0.67188-0.5 1.2031-1.1406 1.2031-0.67188 0-1.1094-0.48438-1.1094-1.2188 0-0.57812 0.21875-0.95312 0.8125-1.3125zm-0.48438-1.0312c-0.5-0.25-0.76562-0.5625-0.76562-0.95312 0-0.53125 0.39062-0.89062 0.95312-0.89062 0.57812 0 0.96875 0.375 0.96875 0.96875 0 0.45312-0.20312 0.76562-0.71875 1.0938z"/></g><g transform="translate(434.29 205.9)"><path d="m2.0938-5.4844c-1.2344 0-1.8594 0.96875-1.8594 2.9062 0 0.92188 0.15625 1.7344 0.4375 2.125s0.73438 0.60938 1.2188 0.60938c1.2031 0 1.8125-1.0312 1.8125-3.0781 0-1.7344-0.51562-2.5625-1.6094-2.5625zm-0.14062 0.26562c0.76562 0 1.0781 0.78125 1.0781 2.7031 0 1.6875-0.29688 2.3906-1.0312 2.3906-0.76562 0-1.0938-0.79688-1.0938-2.75 0-1.6719 0.28125-2.3438 1.0469-2.3438z"/></g><g transform="translate(438.27 205.9)"><path d="m2.0938-5.4844c-1.2344 0-1.8594 0.96875-1.8594 2.9062 0 0.92188 0.15625 1.7344 0.4375 2.125s0.73438 0.60938 1.2188 0.60938c1.2031 0 1.8125-1.0312 1.8125-3.0781 0-1.7344-0.51562-2.5625-1.6094-2.5625zm-0.14062 0.26562c0.76562 0 1.0781 0.78125 1.0781 2.7031 0 1.6875-0.29688 2.3906-1.0312 2.3906-0.76562 0-1.0938-0.79688-1.0938-2.75 0-1.6719 0.28125-2.3438 1.0469-2.3438z"/></g><g transform="translate(424.33 193.57)"><path d="m0.34375-3.9688h0.25l0.14062-0.45312c0.09375-0.26562 0.59375-0.53125 1-0.53125 0.51562 0 0.9375 0.42188 0.9375 0.92188 0 0.59375-0.46875 1.0938-1.0312 1.0938-0.0625 0-0.15625 0-0.25-0.015625h-0.125l-0.09375 0.42188 0.0625 0.046875c0.29688-0.14062 0.45312-0.17188 0.65625-0.17188 0.67188 0 1.0469 0.42188 1.0469 1.1406 0 0.8125-0.48438 1.3438-1.2188 1.3438-0.375 0-0.70312-0.10938-0.9375-0.34375-0.1875-0.17188-0.29688-0.35938-0.45312-0.78125l-0.20312 0.078125c0.15625 0.48438 0.21875 0.76562 0.26562 1.1719 0.4375 0.14062 0.78125 0.20312 1.0781 0.20312 0.64062 0 1.375-0.35938 1.8125-0.89062 0.26562-0.32812 0.40625-0.67188 0.40625-1.0469 0-0.39062-0.17188-0.71875-0.45312-0.92188-0.20312-0.14062-0.375-0.20312-0.78125-0.28125 0.64062-0.48438 0.875-0.85938 0.875-1.3281 0-0.70312-0.59375-1.1719-1.4688-1.1719-0.54688 0-0.90625 0.14062-1.2812 0.53125z"/></g><g transform="translate(428.31 193.57)"><path d="m1.625-0.98438c-0.21875 0.078125-0.35938 0.125-0.78125 0.25-0.0625 0.59375-0.25 1.1094-0.71875 1.875l0.10938 0.09375 0.32812-0.15625c0.65625-0.82812 0.95312-1.3281 1.1719-1.9531z"/></g><g transform="translate(430.3 193.57)"><path d="m0.125-0.1875v0.21875c1.5-0.03125 1.5-0.03125 1.7812-0.03125s0.28125 0 1.8281 0.03125c-0.015625-0.17188-0.015625-0.25-0.015625-0.35938s0-0.1875 0.015625-0.35938c-0.92188 0.03125-1.2812 0.046875-2.7656 0.078125l1.4531-1.5469c0.78125-0.8125 1.0156-1.25 1.0156-1.8594 0-0.90625-0.625-1.4688-1.6406-1.4688-0.5625 0-0.95312 0.15625-1.3438 0.54688l-0.14062 1.0938h0.23438l0.09375-0.375c0.125-0.45312 0.42188-0.65625 0.95312-0.65625 0.6875 0 1.125 0.42188 1.125 1.1094 0 0.59375-0.34375 1.1875-1.2344 2.1406z"/></g><g transform="translate(434.29 193.57)"><path d="m2.0938-5.4844c-1.2344 0-1.8594 0.96875-1.8594 2.9062 0 0.92188 0.15625 1.7344 0.4375 2.125s0.73438 0.60938 1.2188 0.60938c1.2031 0 1.8125-1.0312 1.8125-3.0781 0-1.7344-0.51562-2.5625-1.6094-2.5625zm-0.14062 0.26562c0.76562 0 1.0781 0.78125 1.0781 2.7031 0 1.6875-0.29688 2.3906-1.0312 2.3906-0.76562 0-1.0938-0.79688-1.0938-2.75 0-1.6719 0.28125-2.3438 1.0469-2.3438z"/></g><g transform="translate(438.27 193.57)"><path d="m2.0938-5.4844c-1.2344 0-1.8594 0.96875-1.8594 2.9062 0 0.92188 0.15625 1.7344 0.4375 2.125s0.73438 0.60938 1.2188 0.60938c1.2031 0 1.8125-1.0312 1.8125-3.0781 0-1.7344-0.51562-2.5625-1.6094-2.5625zm-0.14062 0.26562c0.76562 0 1.0781 0.78125 1.0781 2.7031 0 1.6875-0.29688 2.3906-1.0312 2.3906-0.76562 0-1.0938-0.79688-1.0938-2.75 0-1.6719 0.28125-2.3438 1.0469-2.3438z"/></g></g></g><g transform="matrix(.35278 0 0 .35278 -125.64 -37.124)" clip-path="url(#clip1)"><path transform="matrix(1 0 0 -1 447.24 290.09)" d="m0.48242-0.125-0.9668 0.24609 4.1172 16.248 4.127 11.064 4.1309 8.3906 4.1309 6.7637 4.1328 5.6641 4.1309 4.873 4.1309 4.2773 4.1348 3.8027 4.127 3.4297 4.127 3.1191 4.125 2.8652 4.123 2.6504 4.123 2.457 4.1211 2.2969 4.1211 2.1543 4.1211 2.0273 4.1172 1.9141 4.1191 1.8164 4.1172 1.7266 4.1172 1.6445 4.1172 1.5645 4.1152 1.502 4.1152 1.4355 4.1113 1.3848 0.31836-0.94531-4.1074-1.3809-4.1035-1.4316-4.1016-1.498-4.1035-1.5605-4.1016-1.6367-4.1016-1.7188-4.0996-1.8086-4.0996-1.9062-4.0996-2.0176-4.0977-2.1426-4.0977-2.2832-4.0957-2.4414-4.0957-2.6309-4.0938-2.8438-4.0918-3.0938-4.0898-3.3984-4.0938-3.7676-4.0879-4.2305-4.0879-4.8223-4.0859-5.6016-4.0879-6.6895-4.0879-8.3047-4.0918-10.967z" color="#000000" color-rendering="auto" dominant-baseline="auto" fill="#f00" image-rendering="auto" shape-rendering="auto" solid-color="#000000" stop-color="#000000" style="font-feature-settings:normal;font-variant-alternates:normal;font-variant-caps:normal;font-variant-east-asian:normal;font-variant-ligatures:normal;font-variant-numeric:normal;font-variant-position:normal;font-variation-settings:normal;inline-size:0;isolation:auto;mix-blend-mode:normal;shape-margin:0;shape-padding:0;text-decoration-color:#000000;text-decoration-line:none;text-decoration-style:solid;text-indent:0;text-orientation:mixed;text-transform:none;white-space:normal"/></g><g transform="matrix(.35278 0 0 .35278 -125.64 -37.124)"><g transform="translate(476.78 313.65)"><path d="m4.9062-0.95312c0 0.625-0.03125 0.6875-0.40625 0.71875l-0.375 0.015625v0.25c0.46875-0.015625 0.75-0.03125 1.1562-0.03125 0.42188 0 0.70312 0.015625 1.1719 0.03125v-0.25l-0.375-0.015625c-0.375-0.03125-0.40625-0.09375-0.40625-0.71875v-3.5781c0-0.625 0.03125-0.70312 0.40625-0.71875l0.375-0.03125v-0.23438c-0.57812 0.03125-0.75 0.03125-1.1719 0.03125-0.39062 0-0.59375-0.015625-1.1562-0.03125v0.23438l0.375 0.03125c0.375 0.015625 0.40625 0.09375 0.40625 0.71875v1.4219c-0.17188 0-0.32812 0.015625-0.65625 0.015625h-1.875c-0.3125 0-0.5-0.015625-0.65625-0.015625v-1.4219c0-0.625 0.046875-0.70312 0.40625-0.71875l0.39062-0.03125v-0.23438c-0.59375 0.03125-0.76562 0.03125-1.1719 0.03125s-0.59375-0.015625-1.1719-0.03125v0.23438l0.39062 0.03125c0.35938 0.015625 0.40625 0.09375 0.40625 0.71875v3.5781c0 0.625-0.046875 0.6875-0.40625 0.71875l-0.39062 0.015625v0.25c0.46875-0.015625 0.75-0.03125 1.1719-0.03125 0.40625 0 0.70312 0.015625 1.1719 0.03125v-0.25l-0.39062-0.015625c-0.35938-0.03125-0.40625-0.09375-0.40625-0.71875v-1.7812c0.21875-0.015625 0.34375-0.015625 0.65625-0.015625h1.875c0.3125 0 0.4375 0 0.65625 0.015625z"/></g><g transform="translate(483.42 313.65)"><path d="m3.4844-0.5625-0.10938-0.078125c-0.5 0.3125-0.6875 0.375-1.0312 0.375-0.51562 0-0.95312-0.23438-1.1719-0.625-0.15625-0.25-0.20312-0.48438-0.21875-0.9375h1.1562c0.54688 0 0.89062-0.03125 1.4375-0.10938 0.015625-0.125 0.015625-0.1875 0.015625-0.28125 0-0.92188-0.57812-1.5156-1.4688-1.5156-0.29688 0-0.64062 0.09375-0.96875 0.29688-0.65625 0.375-0.92188 0.85938-0.92188 1.6875 0 0.5 0.125 0.9375 0.34375 1.2344 0.3125 0.42188 0.84375 0.67188 1.4375 0.67188 0.29688 0 0.59375-0.0625 0.92188-0.20312 0.21875-0.09375 0.39062-0.1875 0.42188-0.23438zm-0.625-1.5625c-0.40625 0.015625-0.60938 0.015625-0.89062 0.015625-0.35938 0-0.57812 0-1-0.046875 0-0.375 0.03125-0.54688 0.125-0.75 0.17188-0.35938 0.51562-0.5625 0.89062-0.5625 0.26562 0 0.48438 0.09375 0.625 0.3125 0.17188 0.26562 0.23438 0.5 0.25 1.0312z"/></g><g transform="translate(487.23 313.65)"><path d="m0.1875-3.1875h0.29688c0.3125 0 0.34375 0.0625 0.34375 0.57812v1.7969c0 0.5-0.015625 0.5625-0.29688 0.57812l-0.35938 0.015625v0.25c0.5625-0.015625 0.78125-0.03125 0.96875-0.03125 0.17188 0 0.17188 0 1.1406 0.03125v-0.25l-0.40625-0.015625c-0.35938-0.03125-0.375-0.046875-0.375-0.57812v-1.375c0-0.46875 0.3125-0.875 0.70312-0.875 0.25 0 0.40625 0.10938 0.53125 0.375h0.17188l0.078125-0.96875c-0.09375-0.046875-0.23438-0.078125-0.375-0.078125-0.25 0-0.5 0.125-0.67188 0.32812l-0.4375 0.51562v-0.8125l-0.078125-0.03125c-0.40625 0.17188-0.8125 0.28125-1.2344 0.32812z"/></g><g transform="translate(490.38 313.65)"><path d="m0.78125-3.0469v2.2969c0 0.59375 0.26562 0.84375 0.875 0.84375 0.1875 0 0.375-0.03125 0.42188-0.09375l0.39062-0.42188-0.10938-0.14062c-0.20312 0.10938-0.3125 0.15625-0.46875 0.15625-0.3125 0-0.4375-0.15625-0.4375-0.54688v-2.0938h1.0156l0.078125-0.42188-1.0938 0.046875v-0.3125c0-0.32812 0.015625-0.60938 0.078125-1.125l-0.09375-0.09375c-0.1875 0.125-0.42188 0.23438-0.67188 0.3125 0.015625 0.23438 0.03125 0.39062 0.03125 0.625v0.5625l-0.625 0.28125v0.15625z"/></g><g transform="translate(492.98 313.65)"><path d="m3.625-3.4375v-0.25c-0.5625 0.015625-0.79688 0.03125-1.0938 0.03125l-1.9844-0.03125c-0.015625 0.40625-0.015625 0.51562-0.0625 1.0625h0.23438l0.09375-0.54688c0.03125-0.17188 0.17188-0.20312 0.76562-0.20312h1.1406c-0.17188 0.26562-0.29688 0.4375-0.51562 0.71875l-1.3594 1.6875c-0.1875 0.23438-0.29688 0.35938-0.71875 0.82812l0.046875 0.17188c0.82812-0.03125 0.875-0.03125 1.2188-0.03125l2.2031 0.03125c0-0.1875 0.015625-0.375 0.078125-0.76562l0.046875-0.375h-0.25l-0.14062 0.625c-0.03125 0.15625-0.35938 0.20312-1.125 0.20312h-1.0781z"/></g><g transform="translate(499.28 313.65)"><path d="m0.32812-1.1406c0 0.54688-0.03125 0.79688-0.09375 1.1094 0.42188 0.14062 0.73438 0.1875 1.0938 0.1875 1.0469 0 1.7812-0.54688 1.7812-1.3281 0-0.25-0.0625-0.4375-0.21875-0.59375-0.20312-0.20312-0.46875-0.29688-1.1719-0.4375-0.65625-0.125-0.85938-0.28125-0.85938-0.65625 0-0.39062 0.26562-0.60938 0.76562-0.60938 0.53125 0 0.9375 0.26562 0.9375 0.64062v0.1875h0.21875c0-0.45312 0.015625-0.65625 0.046875-0.89062-0.42188-0.15625-0.71875-0.20312-1.0469-0.20312-0.92188 0-1.4844 0.4375-1.4844 1.1562 0 0.375 0.17188 0.65625 0.54688 0.8125 0.20312 0.09375 0.625 0.23438 1.1719 0.34375 0.35938 0.078125 0.51562 0.25 0.51562 0.54688 0 0.4375-0.40625 0.73438-0.96875 0.73438-0.57812 0-1-0.28125-1-0.67188v-0.32812z"/></g><g transform="translate(502.66 313.65)"><path d="m3.1719-2.4844c0-0.35938 0.046875-0.6875 0.125-0.96875-0.32812-0.20312-0.60938-0.28125-0.9375-0.28125-0.375 0-0.82812 0.15625-1.2969 0.45312-0.5625 0.34375-0.85938 0.90625-0.85938 1.6094 0 1.0781 0.76562 1.8281 1.8281 1.8281 0.42188 0 1.0156-0.14062 1.0938-0.26562l0.17188-0.25-0.078125-0.125c-0.29688 0.15625-0.5625 0.23438-0.84375 0.23438-0.89062 0-1.4688-0.6875-1.4688-1.7344 0-0.85938 0.40625-1.3438 1.125-1.3438 0.34375 0 0.71875 0.17188 0.875 0.35938l0.046875 0.48438z"/></g><g transform="translate(506.2 313.65)"><path d="m2.5781-0.65625-0.03125 0.6875c0.51562-0.03125 0.51562-0.03125 0.60938-0.03125 0.046875 0 0.25 0.015625 0.59375 0.03125v-0.25l-0.3125-0.015625c-0.1875 0-0.21875-0.0625-0.21875-0.45312v-1.4688c0-1.1562-0.32812-1.5781-1.2656-1.5781-0.32812 0-0.65625 0.078125-0.95312 0.26562l-0.42188 0.25v0.53125l0.20312 0.046875 0.10938-0.25c0.15625-0.375 0.23438-0.42188 0.60938-0.42188 0.75 0 1.0625 0.29688 1.0781 1.0156l-0.78125 0.14062c-1.0938 0.20312-1.5469 0.57812-1.5469 1.2656 0 0.625 0.375 0.98438 1.0156 0.98438 0.14062 0 0.26562-0.015625 0.32812-0.0625zm0-0.32812c-0.23438 0.32812-0.73438 0.625-1.0469 0.625s-0.59375-0.29688-0.59375-0.64062c0-0.29688 0.15625-0.5625 0.40625-0.71875 0.1875-0.125 0.625-0.23438 1.2344-0.32812z"/></g><g transform="translate(510.19 313.65)"><path d="m0.1875-5.2656h0.4375c0.14062 0 0.20312 0.09375 0.20312 0.32812v4.125c0 0.5-0.015625 0.5625-0.29688 0.57812l-0.35938 0.015625v0.25c0.79688-0.03125 0.79688-0.03125 0.98438-0.03125 0.20312 0 0.20312 0 1 0.03125v-0.25l-0.35938-0.015625c-0.28125-0.015625-0.29688-0.078125-0.29688-0.57812v-4.9062l-0.078125-0.0625c-0.34375 0.125-0.60938 0.1875-1.2344 0.29688z"/></g><g transform="translate(512.51 313.65)"><path d="m3.4844-0.5625-0.10938-0.078125c-0.5 0.3125-0.6875 0.375-1.0312 0.375-0.51562 0-0.95312-0.23438-1.1719-0.625-0.15625-0.25-0.20312-0.48438-0.21875-0.9375h1.1562c0.54688 0 0.89062-0.03125 1.4375-0.10938 0.015625-0.125 0.015625-0.1875 0.015625-0.28125 0-0.92188-0.57812-1.5156-1.4688-1.5156-0.29688 0-0.64062 0.09375-0.96875 0.29688-0.65625 0.375-0.92188 0.85938-0.92188 1.6875 0 0.5 0.125 0.9375 0.34375 1.2344 0.3125 0.42188 0.84375 0.67188 1.4375 0.67188 0.29688 0 0.59375-0.0625 0.92188-0.20312 0.21875-0.09375 0.39062-0.1875 0.42188-0.23438zm-0.625-1.5625c-0.40625 0.015625-0.60938 0.015625-0.89062 0.015625-0.35938 0-0.57812 0-1-0.046875 0-0.375 0.03125-0.54688 0.125-0.75 0.17188-0.35938 0.51562-0.5625 0.89062-0.5625 0.26562 0 0.48438 0.09375 0.625 0.3125 0.17188 0.26562 0.23438 0.5 0.25 1.0312z"/></g><g transform="translate(415.17 257.04)"><path d="m-3.1875-0.14062v-0.29688c0-0.3125 0.0625-0.34375 0.57812-0.34375h1.7969c0.5 0 0.5625 0.015625 0.57812 0.28125l0.015625 0.375h0.25c-0.03125-0.76562-0.03125-0.79688-0.03125-1.0156s0.015625-0.42188 0.03125-0.95312h-0.25l-0.015625 0.34375c-0.015625 0.26562-0.078125 0.29688-0.57812 0.29688h-1.6875c-0.35938 0-0.75-0.53125-0.75-1.0156 0-0.42188 0.40625-0.71875 1.0156-0.71875h1.4219c0.5 0 0.5625 0.03125 0.57812 0.29688l0.015625 0.35938h0.25c-0.03125-0.79688-0.03125-0.79688-0.03125-0.98438 0-0.20312 0-0.20312 0.03125-1h-0.25l-0.015625 0.35938c-0.015625 0.28125-0.078125 0.29688-0.57812 0.29688h-1.6875c-0.35938 0-0.75-0.51562-0.75-1 0-0.4375 0.40625-0.73438 1.0156-0.73438h2.2656c-0.03125-0.48438-0.03125-0.48438-0.03125-0.625 0-0.09375 0-0.09375 0.03125-0.70312h-0.25l-0.015625 0.375c-0.015625 0.26562-0.078125 0.29688-0.57812 0.29688h-1.6406c-0.79688 0-1.2812 0.45312-1.2812 1.1875 0 0.28125 0.0625 0.51562 0.20312 0.65625l0.53125 0.60938c-0.51562 0.25-0.73438 0.57812-0.73438 1.125 0 0.29688 0.0625 0.51562 0.20312 0.65625l0.5 0.5625h-0.67188l-0.03125 0.0625c0.17188 0.40625 0.28125 0.82812 0.32812 1.25z"/></g><g transform="translate(415.17 250)"><path d="m-0.5625-3.4844-0.078125 0.10938c0.3125 0.5 0.375 0.6875 0.375 1.0312 0 0.51562-0.23438 0.95312-0.625 1.1719-0.25 0.15625-0.48438 0.20312-0.9375 0.21875v-1.1562c0-0.54688-0.03125-0.89062-0.10938-1.4375-0.125-0.015625-0.1875-0.015625-0.28125-0.015625-0.92188 0-1.5156 0.57812-1.5156 1.4688 0 0.29688 0.09375 0.64062 0.29688 0.96875 0.375 0.65625 0.85938 0.92188 1.6875 0.92188 0.5 0 0.9375-0.125 1.2344-0.34375 0.42188-0.3125 0.67188-0.84375 0.67188-1.4375 0-0.29688-0.0625-0.59375-0.20312-0.92188-0.09375-0.21875-0.1875-0.39062-0.23438-0.42188zm-1.5625 0.625c0.015625 0.40625 0.015625 0.60938 0.015625 0.89062 0 0.35938 0 0.57812-0.046875 1-0.375 0-0.54688-0.03125-0.75-0.125-0.35938-0.17188-0.5625-0.51562-0.5625-0.89062 0-0.26562 0.09375-0.48438 0.3125-0.625 0.26562-0.17188 0.5-0.23438 1.0312-0.25z"/></g><g transform="translate(415.17 246.18)"><path d="m-5.2656-0.1875v-0.4375c0-0.14062 0.09375-0.20312 0.32812-0.20312h4.125c0.5 0 0.5625 0.015625 0.57812 0.29688l0.015625 0.35938h0.25c-0.03125-0.79688-0.03125-0.79688-0.03125-0.98438 0-0.20312 0-0.20312 0.03125-1h-0.25l-0.015625 0.35938c-0.015625 0.28125-0.078125 0.29688-0.57812 0.29688h-4.9062l-0.0625 0.078125c0.125 0.34375 0.1875 0.60938 0.29688 1.2344z"/></g><g transform="translate(415.17 241.55)"><path d="m-1.1406-0.32812c0.54688 0 0.79688 0.03125 1.1094 0.09375 0.14062-0.42188 0.1875-0.73438 0.1875-1.0938 0-1.0469-0.54688-1.7812-1.3281-1.7812-0.25 0-0.4375 0.0625-0.59375 0.21875-0.20312 0.20312-0.29688 0.46875-0.4375 1.1719-0.125 0.65625-0.28125 0.85938-0.65625 0.85938-0.39062 0-0.60938-0.26562-0.60938-0.76562 0-0.53125 0.26562-0.9375 0.64062-0.9375h0.1875v-0.21875c-0.45312 0-0.65625-0.015625-0.89062-0.046875-0.15625 0.42188-0.20312 0.71875-0.20312 1.0469 0 0.92188 0.4375 1.4844 1.1562 1.4844 0.375 0 0.65625-0.17188 0.8125-0.54688 0.09375-0.20312 0.23438-0.625 0.34375-1.1719 0.078125-0.35938 0.25-0.51562 0.54688-0.51562 0.4375 0 0.73438 0.40625 0.73438 0.96875 0 0.57812-0.28125 1-0.67188 1h-0.32812z"/></g><g transform="translate(415.17 238.17)"><path d="m-2.4844-3.1719c-0.35938 0-0.6875-0.046875-0.96875-0.125-0.20312 0.32812-0.28125 0.60938-0.28125 0.9375 0 0.375 0.15625 0.82812 0.45312 1.2969 0.34375 0.5625 0.90625 0.85938 1.6094 0.85938 1.0781 0 1.8281-0.76562 1.8281-1.8281 0-0.42188-0.14062-1.0156-0.26562-1.0938l-0.25-0.17188-0.125 0.078125c0.15625 0.29688 0.23438 0.5625 0.23438 0.84375 0 0.89062-0.6875 1.4688-1.7344 1.4688-0.85938 0-1.3438-0.40625-1.3438-1.125 0-0.34375 0.17188-0.71875 0.35938-0.875l0.48438-0.046875z"/></g><g transform="translate(415.17 234.63)"><path d="m-0.65625-2.5781 0.6875 0.03125c-0.03125-0.51562-0.03125-0.51562-0.03125-0.60938 0-0.046875 0.015625-0.25 0.03125-0.59375h-0.25l-0.015625 0.3125c0 0.1875-0.0625 0.21875-0.45312 0.21875h-1.4688c-1.1562 0-1.5781 0.32812-1.5781 1.2656 0 0.32812 0.078125 0.65625 0.26562 0.95312l0.25 0.42188h0.53125l0.046875-0.20312-0.25-0.10938c-0.375-0.15625-0.42188-0.23438-0.42188-0.60938 0-0.75 0.29688-1.0625 1.0156-1.0781l0.14062 0.78125c0.20312 1.0938 0.57812 1.5469 1.2656 1.5469 0.625 0 0.98438-0.375 0.98438-1.0156 0-0.14062-0.015625-0.26562-0.0625-0.32812zm-0.32812 0c0.32812 0.23438 0.625 0.73438 0.625 1.0469s-0.29688 0.59375-0.64062 0.59375c-0.29688 0-0.5625-0.15625-0.71875-0.40625-0.125-0.1875-0.23438-0.625-0.32812-1.2344z"/></g><g transform="translate(415.17 230.64)"><path d="m-5.2656-0.1875v-0.4375c0-0.14062 0.09375-0.20312 0.32812-0.20312h4.125c0.5 0 0.5625 0.015625 0.57812 0.29688l0.015625 0.35938h0.25c-0.03125-0.79688-0.03125-0.79688-0.03125-0.98438 0-0.20312 0-0.20312 0.03125-1h-0.25l-0.015625 0.35938c-0.015625 0.28125-0.078125 0.29688-0.57812 0.29688h-4.9062l-0.0625 0.078125c0.125 0.34375 0.1875 0.60938 0.29688 1.2344z"/></g><g transform="translate(415.17 228.32)"><path d="m-0.5625-3.4844-0.078125 0.10938c0.3125 0.5 0.375 0.6875 0.375 1.0312 0 0.51562-0.23438 0.95312-0.625 1.1719-0.25 0.15625-0.48438 0.20312-0.9375 0.21875v-1.1562c0-0.54688-0.03125-0.89062-0.10938-1.4375-0.125-0.015625-0.1875-0.015625-0.28125-0.015625-0.92188 0-1.5156 0.57812-1.5156 1.4688 0 0.29688 0.09375 0.64062 0.29688 0.96875 0.375 0.65625 0.85938 0.92188 1.6875 0.92188 0.5 0 0.9375-0.125 1.2344-0.34375 0.42188-0.3125 0.67188-0.84375 0.67188-1.4375 0-0.29688-0.0625-0.59375-0.20312-0.92188-0.09375-0.21875-0.1875-0.39062-0.23438-0.42188zm-1.5625 0.625c0.015625 0.40625 0.015625 0.60938 0.015625 0.89062 0 0.35938 0 0.57812-0.046875 1-0.375 0-0.54688-0.03125-0.75-0.125-0.35938-0.17188-0.5625-0.51562-0.5625-0.89062 0-0.26562 0.09375-0.48438 0.3125-0.625 0.26562-0.17188 0.5-0.23438 1.0312-0.25z"/></g></g></g></svg>
