<svg width="108.08mm" height="67.55mm" version="1.1" viewBox="0 0 108.08 67.55" xmlns="http://www.w3.org/2000/svg"><g transform="translate(32.118 -45.6)"><g shape-rendering="auto"><path d="m-18.018 104.02v-56.938h0.14056v56.938zm14.436 0v-56.938h0.14056v56.938zm14.438 0v-56.938h0.14056v56.938zm14.436 0v-56.938h0.14056v56.938zm14.438 0v-56.938h0.14056v56.938zm14.436 0v-56.938h0.14056v56.938zm14.436 0v-56.938h0.14056v56.938z" color="#000000" color-rendering="auto" dominant-baseline="auto" fill="#bfbfbf" image-rendering="auto" solid-color="#000000" stop-color="#000000" style="font-feature-settings:normal;font-variant-alternates:normal;font-variant-caps:normal;font-variant-east-asian:normal;font-variant-ligatures:normal;font-variant-numeric:normal;font-variant-position:normal;font-variation-settings:normal;inline-size:0;isolation:auto;mix-blend-mode:normal;shape-margin:0;shape-padding:0;text-decoration-color:#000000;text-decoration-line:none;text-decoration-style:solid;text-indent:0;text-orientation:mixed;text-transform:none;white-space:normal"/><path d="m-17.948 104.09v-0.14056h93.84v0.14056zm0-14.235v-0.14056h93.84v0.14056zm0-14.234v-0.14056h93.84v0.14056zm0-14.234v-0.14056h93.84v0.14056zm0-14.235v-0.14056h93.84v0.14056z" color="#000000" color-rendering="auto" dominant-baseline="auto" fill="#bfbfbf" image-rendering="auto" solid-color="#000000" stop-color="#000000" style="font-feature-settings:normal;font-variant-alternates:normal;font-variant-caps:normal;font-variant-east-asian:normal;font-variant-ligatures:normal;font-variant-numeric:normal;font-variant-position:normal;font-variation-settings:normal;inline-size:0;isolation:auto;mix-blend-mode:normal;shape-margin:0;shape-padding:0;text-decoration-color:#000000;text-decoration-line:none;text-decoration-style:solid;text-indent:0;text-orientation:mixed;text-transform:none;white-space:normal"/><path d="m-17.983 104.02v-1.5007h0.07028v1.5007zm14.436 0v-1.5007h0.07028v1.5007zm14.438 0v-1.5007h0.07028v1.5007zm14.436 0v-1.5007h0.07028v1.5007zm14.438 0v-1.5007h0.07028v1.5007zm14.436 0v-1.5007h0.07028v1.5007zm14.436 0v-1.5007h0.07028v1.5007zm-86.621-55.437v-1.5007h0.07028v1.5007zm14.436 0v-1.5007h0.07028v1.5007zm14.438 0v-1.5007h0.07028v1.5007zm14.436 0v-1.5007h0.07028v1.5007zm14.438 0v-1.5007h0.07028v1.5007zm14.436 0v-1.5007h0.07028v1.5007zm14.436 0v-1.5007h0.07028v1.5007z" color="#000000" color-rendering="auto" dominant-baseline="auto" fill="#7f7f7f" image-rendering="auto" solid-color="#000000" stop-color="#000000" style="font-feature-settings:normal;font-variant-alternates:normal;font-variant-caps:normal;font-variant-east-asian:normal;font-variant-ligatures:normal;font-variant-numeric:normal;font-variant-position:normal;font-variation-settings:normal;inline-size:0;isolation:auto;mix-blend-mode:normal;shape-margin:0;shape-padding:0;text-decoration-color:#000000;text-decoration-line:none;text-decoration-style:solid;text-indent:0;text-orientation:mixed;text-transform:none;white-space:normal"/><path d="m-17.948 104.06v-0.0703h1.4993v0.0703zm92.34 0v-0.0703h1.5007v0.0703zm-92.34-14.235v-0.07028h1.4993v0.07028zm92.34 0v-0.07028h1.5007v0.07028zm-92.34-14.234v-0.07028h1.4993v0.07028zm92.34 0v-0.07028h1.5007v0.07028zm-92.34-14.234v-0.07028h1.4993v0.07028zm92.34 0v-0.07028h1.5007v0.07028zm-92.34-14.235v-0.07028h1.4993v0.07028zm92.34 0v-0.07028h1.5007v0.07028z" color="#000000" color-rendering="auto" dominant-baseline="auto" fill="#7f7f7f" image-rendering="auto" solid-color="#000000" stop-color="#000000" style="font-feature-settings:normal;font-variant-alternates:normal;font-variant-caps:normal;font-variant-east-asian:normal;font-variant-ligatures:normal;font-variant-numeric:normal;font-variant-position:normal;font-variation-settings:normal;inline-size:0;isolation:auto;mix-blend-mode:normal;shape-margin:0;shape-padding:0;text-decoration-color:#000000;text-decoration-line:none;text-decoration-style:solid;text-indent:0;text-orientation:mixed;text-transform:none;white-space:normal"/><path d="m-18.018 104.09v-57.078h93.981v57.078zm0.14056-0.14056h93.7v-56.797h-93.7z" color="#000000" color-rendering="auto" dominant-baseline="auto" image-rendering="auto" solid-color="#000000" stop-color="#000000" style="font-feature-settings:normal;font-variant-alternates:normal;font-variant-caps:normal;font-variant-east-asian:normal;font-variant-ligatures:normal;font-variant-numeric:normal;font-variant-position:normal;font-variation-settings:normal;inline-size:0;isolation:auto;mix-blend-mode:normal;shape-margin:0;shape-padding:0;text-decoration-color:#000000;text-decoration-line:none;text-decoration-style:solid;text-indent:0;text-orientation:mixed;text-transform:none;white-space:normal"/></g><g><g transform="matrix(.35278 0 0 .35278 -58.893 17.963)"><g transform="translate(113.57 254.27)"><path d="m2.625-6.875c-1.5469 0-2.3281 1.2344-2.3281 3.6406 0 1.1719 0.20312 2.1719 0.54688 2.6719 0.35938 0.48438 0.90625 0.76562 1.5312 0.76562 1.5 0 2.2656-1.2969 2.2656-3.8594 0-2.1719-0.65625-3.2188-2.0156-3.2188zm-0.1875 0.35938c0.96875 0 1.3594 0.96875 1.3594 3.3594 0 2.125-0.375 3-1.2969 3-0.96875 0-1.375-1-1.375-3.4375 0-2.0938 0.375-2.9219 1.3125-2.9219z"/></g><g transform="translate(154.5 254.27)"><path d="m0.15625-0.23438v0.26562c1.875-0.03125 1.875-0.03125 2.2188-0.03125 0.35938 0 0.35938 0 2.2969 0.03125-0.03125-0.20312-0.03125-0.3125-0.03125-0.45312 0-0.125 0-0.21875 0.03125-0.45312-1.1562 0.0625-1.6094 0.0625-3.4531 0.10938l1.8125-1.9219c0.96875-1.0312 1.2656-1.5781 1.2656-2.3281 0-1.1406-0.78125-1.8594-2.0469-1.8594-0.71875 0-1.2031 0.20312-1.6875 0.70312l-0.17188 1.3594h0.28125l0.14062-0.46875c0.15625-0.57812 0.51562-0.8125 1.1875-0.8125 0.84375 0 1.4062 0.53125 1.4062 1.375 0 0.75-0.42188 1.4844-1.5469 2.6875z"/></g><g transform="translate(195.42 254.42)"><path d="m2.7969-1.7969v0.73438c0 0.60938-0.10938 0.75-0.60938 0.76562l-0.60938 0.03125v0.29688c1.3281-0.03125 1.3281-0.03125 1.5625-0.03125s0.23438 0 1.5625 0.03125v-0.29688l-0.46875-0.03125c-0.5-0.03125-0.60938-0.15625-0.60938-0.76562v-0.73438c0.59375 0 0.79688 0 1.0781 0.03125v-0.70312c-0.46875 0.03125-0.65625 0.03125-0.8125 0.03125h-0.26562v-1.3906c0-1.7812 0.03125-2.625 0.078125-3.0469l-0.125-0.046875-0.73438 0.26562-2.8281 4.625 0.10938 0.23438zm0-0.64062h-2.1562l2.1562-3.5156z"/></g><g transform="translate(236.34 254.27)"><path d="m4.1406-6.7031-0.35938-0.17188c-0.95312 0.32812-1.375 0.53125-1.875 0.96875-1.0312 0.85938-1.5938 2.0781-1.5938 3.4375 0 1.6562 0.79688 2.6719 2.0938 2.6719s2.2656-1.0312 2.2656-2.3906c0-1.1406-0.6875-1.8906-1.75-1.8906-0.5 0-0.79688 0.125-1.3906 0.59375-0.10938 0.09375-0.10938 0.10938-0.21875 0.1875 0.20312-1.8125 1.0469-2.7812 2.8281-3.3281zm-1.5938 3.2188c0.75 0 1.2656 0.65625 1.2656 1.6562 0 1.0312-0.51562 1.7031-1.2812 1.7031-0.84375 0-1.3125-0.73438-1.3125-2.0625 0-0.35938 0.046875-0.54688 0.15625-0.71875 0.21875-0.32812 0.6875-0.57812 1.1719-0.57812z"/></g><g transform="translate(277.27 254.27)"><path d="m1.6719-3.4375c-0.40625 0.1875-0.57812 0.29688-0.79688 0.5-0.375 0.39062-0.57812 0.82812-0.57812 1.3594 0 1.0156 0.82812 1.7812 1.9531 1.7812 1.2969 0 2.375-1.0156 2.375-2.25 0-0.79688-0.375-1.2344-1.5-1.75 0.90625-0.625 1.2188-1.0312 1.2188-1.6406 0-0.85938-0.70312-1.4375-1.7656-1.4375-1.1875 0-2.0469 0.76562-2.0469 1.8125 0 0.67188 0.26562 1.0625 1.1406 1.625zm1.1562 0.5c0.625 0.28125 1.0156 0.76562 1.0156 1.2969 0 0.84375-0.64062 1.5-1.4375 1.5-0.84375 0-1.4062-0.59375-1.4062-1.5312 0-0.71875 0.29688-1.1719 1.0312-1.625zm-0.60938-1.2812c-0.625-0.3125-0.9375-0.70312-0.9375-1.2031 0-0.65625 0.46875-1.1094 1.1875-1.1094s1.2031 0.48438 1.2031 1.2031c0 0.57812-0.25 0.96875-0.90625 1.375z"/></g><g transform="translate(315.7 254.42)"><path d="m0.67188-5.5312h0.09375l1.2812-0.57812c0.015625-0.015625 0.03125-0.015625 0.03125-0.015625 0.0625 0 0.078125 0.09375 0.078125 0.32812v4.8438c0 0.51562-0.10938 0.625-0.64062 0.65625l-0.5625 0.03125v0.29688c1.5469-0.03125 1.5469-0.03125 1.6562-0.03125 0.125 0 0.34375 0 0.6875 0.015625 0.10938 0 0.46875 0 0.875 0.015625v-0.29688l-0.51562-0.03125c-0.5625-0.03125-0.65625-0.14062-0.65625-0.65625v-5.9219l-0.14062-0.046875c-0.64062 0.34375-1.3594 0.64062-2.2656 0.95312z"/></g><g transform="translate(320.68 254.42)"><path d="m2.625-6.875c-1.5469 0-2.3281 1.2344-2.3281 3.6406 0 1.1719 0.20312 2.1719 0.54688 2.6719 0.35938 0.48438 0.90625 0.76562 1.5312 0.76562 1.5 0 2.2656-1.2969 2.2656-3.8594 0-2.1719-0.65625-3.2188-2.0156-3.2188zm-0.1875 0.35938c0.96875 0 1.3594 0.96875 1.3594 3.3594 0 2.125-0.375 3-1.2969 3-0.96875 0-1.375-1-1.375-3.4375 0-2.0938 0.375-2.9219 1.3125-2.9219z"/></g><g transform="translate(356.62 254.42)"><path d="m0.67188-5.5312h0.09375l1.2812-0.57812c0.015625-0.015625 0.03125-0.015625 0.03125-0.015625 0.0625 0 0.078125 0.09375 0.078125 0.32812v4.8438c0 0.51562-0.10938 0.625-0.64062 0.65625l-0.5625 0.03125v0.29688c1.5469-0.03125 1.5469-0.03125 1.6562-0.03125 0.125 0 0.34375 0 0.6875 0.015625 0.10938 0 0.46875 0 0.875 0.015625v-0.29688l-0.51562-0.03125c-0.5625-0.03125-0.65625-0.14062-0.65625-0.65625v-5.9219l-0.14062-0.046875c-0.64062 0.34375-1.3594 0.64062-2.2656 0.95312z"/></g><g transform="translate(361.6 254.42)"><path d="m0.15625-0.23438v0.26562c1.875-0.03125 1.875-0.03125 2.2188-0.03125 0.35938 0 0.35938 0 2.2969 0.03125-0.03125-0.20312-0.03125-0.3125-0.03125-0.45312 0-0.125 0-0.21875 0.03125-0.45312-1.1562 0.0625-1.6094 0.0625-3.4531 0.10938l1.8125-1.9219c0.96875-1.0312 1.2656-1.5781 1.2656-2.3281 0-1.1406-0.78125-1.8594-2.0469-1.8594-0.71875 0-1.2031 0.20312-1.6875 0.70312l-0.17188 1.3594h0.28125l0.14062-0.46875c0.15625-0.57812 0.51562-0.8125 1.1875-0.8125 0.84375 0 1.4062 0.53125 1.4062 1.375 0 0.75-0.42188 1.4844-1.5469 2.6875z"/></g><g transform="translate(107.56 247.27)"><path d="m2.625-6.875c-1.5469 0-2.3281 1.2344-2.3281 3.6406 0 1.1719 0.20312 2.1719 0.54688 2.6719 0.35938 0.48438 0.90625 0.76562 1.5312 0.76562 1.5 0 2.2656-1.2969 2.2656-3.8594 0-2.1719-0.65625-3.2188-2.0156-3.2188zm-0.1875 0.35938c0.96875 0 1.3594 0.96875 1.3594 3.3594 0 2.125-0.375 3-1.2969 3-0.96875 0-1.375-1-1.375-3.4375 0-2.0938 0.375-2.9219 1.3125-2.9219z"/></g><g transform="translate(90.129 206.31)"><path d="m0.67188-5.5312h0.09375l1.2812-0.57812c0.015625-0.015625 0.03125-0.015625 0.03125-0.015625 0.0625 0 0.078125 0.09375 0.078125 0.32812v4.8438c0 0.51562-0.10938 0.625-0.64062 0.65625l-0.5625 0.03125v0.29688c1.5469-0.03125 1.5469-0.03125 1.6562-0.03125 0.125 0 0.34375 0 0.6875 0.015625 0.10938 0 0.46875 0 0.875 0.015625v-0.29688l-0.51562-0.03125c-0.5625-0.03125-0.65625-0.14062-0.65625-0.65625v-5.9219l-0.14062-0.046875c-0.64062 0.34375-1.3594 0.64062-2.2656 0.95312z"/></g><g transform="translate(95.11 206.31)"><path d="m2.0312-1.2188c-0.26562 0.078125-0.45312 0.14062-0.96875 0.29688-0.078125 0.75-0.32812 1.4062-0.90625 2.3594l0.14062 0.10938 0.40625-0.1875c0.8125-1.0469 1.1875-1.6719 1.4688-2.4531z"/></g><g transform="translate(97.601 206.31)"><path d="m2.625-6.875c-1.5469 0-2.3281 1.2344-2.3281 3.6406 0 1.1719 0.20312 2.1719 0.54688 2.6719 0.35938 0.48438 0.90625 0.76562 1.5312 0.76562 1.5 0 2.2656-1.2969 2.2656-3.8594 0-2.1719-0.65625-3.2188-2.0156-3.2188zm-0.1875 0.35938c0.96875 0 1.3594 0.96875 1.3594 3.3594 0 2.125-0.375 3-1.2969 3-0.96875 0-1.375-1-1.375-3.4375 0-2.0938 0.375-2.9219 1.3125-2.9219z"/></g><g transform="translate(102.58 206.31)"><path d="m2.625-6.875c-1.5469 0-2.3281 1.2344-2.3281 3.6406 0 1.1719 0.20312 2.1719 0.54688 2.6719 0.35938 0.48438 0.90625 0.76562 1.5312 0.76562 1.5 0 2.2656-1.2969 2.2656-3.8594 0-2.1719-0.65625-3.2188-2.0156-3.2188zm-0.1875 0.35938c0.96875 0 1.3594 0.96875 1.3594 3.3594 0 2.125-0.375 3-1.2969 3-0.96875 0-1.375-1-1.375-3.4375 0-2.0938 0.375-2.9219 1.3125-2.9219z"/></g><g transform="translate(107.56 206.31)"><path d="m2.625-6.875c-1.5469 0-2.3281 1.2344-2.3281 3.6406 0 1.1719 0.20312 2.1719 0.54688 2.6719 0.35938 0.48438 0.90625 0.76562 1.5312 0.76562 1.5 0 2.2656-1.2969 2.2656-3.8594 0-2.1719-0.65625-3.2188-2.0156-3.2188zm-0.1875 0.35938c0.96875 0 1.3594 0.96875 1.3594 3.3594 0 2.125-0.375 3-1.2969 3-0.96875 0-1.375-1-1.375-3.4375 0-2.0938 0.375-2.9219 1.3125-2.9219z"/></g><g transform="translate(90.129 165.89)"><path d="m0.15625-0.23438v0.26562c1.875-0.03125 1.875-0.03125 2.2188-0.03125 0.35938 0 0.35938 0 2.2969 0.03125-0.03125-0.20312-0.03125-0.3125-0.03125-0.45312 0-0.125 0-0.21875 0.03125-0.45312-1.1562 0.0625-1.6094 0.0625-3.4531 0.10938l1.8125-1.9219c0.96875-1.0312 1.2656-1.5781 1.2656-2.3281 0-1.1406-0.78125-1.8594-2.0469-1.8594-0.71875 0-1.2031 0.20312-1.6875 0.70312l-0.17188 1.3594h0.28125l0.14062-0.46875c0.15625-0.57812 0.51562-0.8125 1.1875-0.8125 0.84375 0 1.4062 0.53125 1.4062 1.375 0 0.75-0.42188 1.4844-1.5469 2.6875z"/></g><g transform="translate(95.11 165.89)"><path d="m2.0312-1.2188c-0.26562 0.078125-0.45312 0.14062-0.96875 0.29688-0.078125 0.75-0.32812 1.4062-0.90625 2.3594l0.14062 0.10938 0.40625-0.1875c0.8125-1.0469 1.1875-1.6719 1.4688-2.4531z"/></g><g transform="translate(97.601 165.89)"><path d="m2.625-6.875c-1.5469 0-2.3281 1.2344-2.3281 3.6406 0 1.1719 0.20312 2.1719 0.54688 2.6719 0.35938 0.48438 0.90625 0.76562 1.5312 0.76562 1.5 0 2.2656-1.2969 2.2656-3.8594 0-2.1719-0.65625-3.2188-2.0156-3.2188zm-0.1875 0.35938c0.96875 0 1.3594 0.96875 1.3594 3.3594 0 2.125-0.375 3-1.2969 3-0.96875 0-1.375-1-1.375-3.4375 0-2.0938 0.375-2.9219 1.3125-2.9219z"/></g><g transform="translate(102.58 165.89)"><path d="m2.625-6.875c-1.5469 0-2.3281 1.2344-2.3281 3.6406 0 1.1719 0.20312 2.1719 0.54688 2.6719 0.35938 0.48438 0.90625 0.76562 1.5312 0.76562 1.5 0 2.2656-1.2969 2.2656-3.8594 0-2.1719-0.65625-3.2188-2.0156-3.2188zm-0.1875 0.35938c0.96875 0 1.3594 0.96875 1.3594 3.3594 0 2.125-0.375 3-1.2969 3-0.96875 0-1.375-1-1.375-3.4375 0-2.0938 0.375-2.9219 1.3125-2.9219z"/></g><g transform="translate(107.56 165.89)"><path d="m2.625-6.875c-1.5469 0-2.3281 1.2344-2.3281 3.6406 0 1.1719 0.20312 2.1719 0.54688 2.6719 0.35938 0.48438 0.90625 0.76562 1.5312 0.76562 1.5 0 2.2656-1.2969 2.2656-3.8594 0-2.1719-0.65625-3.2188-2.0156-3.2188zm-0.1875 0.35938c0.96875 0 1.3594 0.96875 1.3594 3.3594 0 2.125-0.375 3-1.2969 3-0.96875 0-1.375-1-1.375-3.4375 0-2.0938 0.375-2.9219 1.3125-2.9219z"/></g><g transform="translate(90.129 125.54)"><path d="m0.42188-4.9688h0.3125l0.1875-0.54688c0.10938-0.34375 0.73438-0.6875 1.25-0.6875 0.65625 0 1.1719 0.53125 1.1719 1.1562 0 0.75-0.57812 1.375-1.2969 1.375-0.078125 0-0.1875 0-0.3125-0.015625l-0.15625-0.015625-0.10938 0.53125 0.0625 0.0625c0.375-0.17188 0.57812-0.21875 0.84375-0.21875 0.82812 0 1.2969 0.53125 1.2969 1.4375 0 1.0156-0.59375 1.6875-1.5312 1.6875-0.45312 0-0.85938-0.15625-1.1562-0.4375-0.25-0.21875-0.375-0.45312-0.5625-0.98438l-0.26562 0.09375c0.20312 0.60938 0.28125 0.96875 0.34375 1.4688 0.53125 0.1875 0.96875 0.26562 1.3281 0.26562 0.79688 0 1.7188-0.45312 2.2656-1.125 0.34375-0.40625 0.51562-0.84375 0.51562-1.3125 0-0.48438-0.20312-0.89062-0.5625-1.1406-0.25-0.1875-0.48438-0.26562-0.96875-0.35938 0.79688-0.60938 1.0938-1.0781 1.0938-1.6562 0-0.89062-0.75-1.4844-1.8438-1.4844-0.6875 0-1.125 0.20312-1.6094 0.67188z"/></g><g transform="translate(95.11 125.54)"><path d="m2.0312-1.2188c-0.26562 0.078125-0.45312 0.14062-0.96875 0.29688-0.078125 0.75-0.32812 1.4062-0.90625 2.3594l0.14062 0.10938 0.40625-0.1875c0.8125-1.0469 1.1875-1.6719 1.4688-2.4531z"/></g><g transform="translate(97.601 125.54)"><path d="m2.625-6.875c-1.5469 0-2.3281 1.2344-2.3281 3.6406 0 1.1719 0.20312 2.1719 0.54688 2.6719 0.35938 0.48438 0.90625 0.76562 1.5312 0.76562 1.5 0 2.2656-1.2969 2.2656-3.8594 0-2.1719-0.65625-3.2188-2.0156-3.2188zm-0.1875 0.35938c0.96875 0 1.3594 0.96875 1.3594 3.3594 0 2.125-0.375 3-1.2969 3-0.96875 0-1.375-1-1.375-3.4375 0-2.0938 0.375-2.9219 1.3125-2.9219z"/></g><g transform="translate(102.58 125.54)"><path d="m2.625-6.875c-1.5469 0-2.3281 1.2344-2.3281 3.6406 0 1.1719 0.20312 2.1719 0.54688 2.6719 0.35938 0.48438 0.90625 0.76562 1.5312 0.76562 1.5 0 2.2656-1.2969 2.2656-3.8594 0-2.1719-0.65625-3.2188-2.0156-3.2188zm-0.1875 0.35938c0.96875 0 1.3594 0.96875 1.3594 3.3594 0 2.125-0.375 3-1.2969 3-0.96875 0-1.375-1-1.375-3.4375 0-2.0938 0.375-2.9219 1.3125-2.9219z"/></g><g transform="translate(107.56 125.54)"><path d="m2.625-6.875c-1.5469 0-2.3281 1.2344-2.3281 3.6406 0 1.1719 0.20312 2.1719 0.54688 2.6719 0.35938 0.48438 0.90625 0.76562 1.5312 0.76562 1.5 0 2.2656-1.2969 2.2656-3.8594 0-2.1719-0.65625-3.2188-2.0156-3.2188zm-0.1875 0.35938c0.96875 0 1.3594 0.96875 1.3594 3.3594 0 2.125-0.375 3-1.2969 3-0.96875 0-1.375-1-1.375-3.4375 0-2.0938 0.375-2.9219 1.3125-2.9219z"/></g><g transform="translate(90.129 85.263)"><path d="m2.7969-1.7969v0.73438c0 0.60938-0.10938 0.75-0.60938 0.76562l-0.60938 0.03125v0.29688c1.3281-0.03125 1.3281-0.03125 1.5625-0.03125s0.23438 0 1.5625 0.03125v-0.29688l-0.46875-0.03125c-0.5-0.03125-0.60938-0.15625-0.60938-0.76562v-0.73438c0.59375 0 0.79688 0 1.0781 0.03125v-0.70312c-0.46875 0.03125-0.65625 0.03125-0.8125 0.03125h-0.26562v-1.3906c0-1.7812 0.03125-2.625 0.078125-3.0469l-0.125-0.046875-0.73438 0.26562-2.8281 4.625 0.10938 0.23438zm0-0.64062h-2.1562l2.1562-3.5156z"/></g><g transform="translate(95.11 85.263)"><path d="m2.0312-1.2188c-0.26562 0.078125-0.45312 0.14062-0.96875 0.29688-0.078125 0.75-0.32812 1.4062-0.90625 2.3594l0.14062 0.10938 0.40625-0.1875c0.8125-1.0469 1.1875-1.6719 1.4688-2.4531z"/></g><g transform="translate(97.601 85.263)"><path d="m2.625-6.875c-1.5469 0-2.3281 1.2344-2.3281 3.6406 0 1.1719 0.20312 2.1719 0.54688 2.6719 0.35938 0.48438 0.90625 0.76562 1.5312 0.76562 1.5 0 2.2656-1.2969 2.2656-3.8594 0-2.1719-0.65625-3.2188-2.0156-3.2188zm-0.1875 0.35938c0.96875 0 1.3594 0.96875 1.3594 3.3594 0 2.125-0.375 3-1.2969 3-0.96875 0-1.375-1-1.375-3.4375 0-2.0938 0.375-2.9219 1.3125-2.9219z"/></g><g transform="translate(102.58 85.263)"><path d="m2.625-6.875c-1.5469 0-2.3281 1.2344-2.3281 3.6406 0 1.1719 0.20312 2.1719 0.54688 2.6719 0.35938 0.48438 0.90625 0.76562 1.5312 0.76562 1.5 0 2.2656-1.2969 2.2656-3.8594 0-2.1719-0.65625-3.2188-2.0156-3.2188zm-0.1875 0.35938c0.96875 0 1.3594 0.96875 1.3594 3.3594 0 2.125-0.375 3-1.2969 3-0.96875 0-1.375-1-1.375-3.4375 0-2.0938 0.375-2.9219 1.3125-2.9219z"/></g><g transform="translate(107.56 85.263)"><path d="m2.625-6.875c-1.5469 0-2.3281 1.2344-2.3281 3.6406 0 1.1719 0.20312 2.1719 0.54688 2.6719 0.35938 0.48438 0.90625 0.76562 1.5312 0.76562 1.5 0 2.2656-1.2969 2.2656-3.8594 0-2.1719-0.65625-3.2188-2.0156-3.2188zm-0.1875 0.35938c0.96875 0 1.3594 0.96875 1.3594 3.3594 0 2.125-0.375 3-1.2969 3-0.96875 0-1.375-1-1.375-3.4375 0-2.0938 0.375-2.9219 1.3125-2.9219z"/></g></g><path d="m10.955 74.194-0.05857-0.12747 21.654-9.9646 0.05857 0.12747z" color="#000000" color-rendering="auto" dominant-baseline="auto" image-rendering="auto" shape-rendering="auto" solid-color="#000000" stop-color="#000000" style="font-feature-settings:normal;font-variant-alternates:normal;font-variant-caps:normal;font-variant-east-asian:normal;font-variant-ligatures:normal;font-variant-numeric:normal;font-variant-position:normal;font-variation-settings:normal;inline-size:0;isolation:auto;mix-blend-mode:normal;shape-margin:0;shape-padding:0;text-decoration-color:#000000;text-decoration-line:none;text-decoration-style:solid;text-indent:0;text-orientation:mixed;text-transform:none;white-space:normal"/><g transform="matrix(.35278 0 0 .35278 -58.893 17.963)"><g transform="translate(241.18 164.05)"><path d="m0.0625-6.5938h0.5625c0.1875 0 0.25 0.10938 0.25 0.40625v5.1719c0 0.625-0.03125 0.70312-0.35938 0.71875l-0.45312 0.03125v0.29688c0.67188-0.015625 0.9375-0.03125 1.2344-0.03125 0.28125 0 0.5625 0.015625 1.2344 0.03125v-0.29688l-0.45312-0.03125c-0.32812-0.015625-0.35938-0.09375-0.35938-0.71875v-2.1094c0-0.45312 0.65625-0.9375 1.2656-0.9375 0.67188 0 1.1094 0.5 1.1094 1.2656v2.8281c0.59375-0.03125 0.60938-0.03125 0.78125-0.03125 0.14062 0 0.14062 0 0.82812 0.03125v-0.29688l-0.40625-0.03125c-0.34375-0.015625-0.375-0.078125-0.375-0.71875v-1.9219c0-1.1719-0.54688-1.7344-1.6562-1.7344-0.375 0-0.57812 0.0625-0.79688 0.25l-0.75 0.65625v-3.3906l-0.09375-0.078125c-0.4375 0.17188-0.76562 0.25-1.5625 0.35938z"/></g><g transform="translate(246.97 164.05)"><path d="m3.2344-0.8125-0.046875 0.84375c0.64062-0.03125 0.64062-0.03125 0.76562-0.03125 0.046875 0 0.29688 0.015625 0.73438 0.03125v-0.29688l-0.375-0.03125c-0.25 0-0.28125-0.078125-0.28125-0.57812v-1.8125c0-1.4531-0.42188-1.9844-1.5781-1.9844-0.42188 0-0.82812 0.10938-1.2031 0.32812l-0.53125 0.32812v0.64062l0.26562 0.078125 0.125-0.3125c0.20312-0.46875 0.3125-0.53125 0.76562-0.53125 0.9375 0 1.3281 0.35938 1.3594 1.2656l-0.98438 0.1875c-1.3594 0.25-1.9375 0.71875-1.9375 1.5781 0 0.78125 0.46875 1.2344 1.2656 1.2344 0.17188 0 0.34375-0.03125 0.42188-0.078125zm0-0.42188c-0.29688 0.40625-0.92188 0.78125-1.3125 0.78125s-0.75-0.35938-0.75-0.79688c0-0.35938 0.20312-0.71875 0.5-0.90625 0.25-0.14062 0.79688-0.28125 1.5625-0.39062z"/></g><g transform="translate(251.96 164.05)"><path d="m0.40625-1.4219c0 0.6875-0.03125 0.98438-0.10938 1.375 0.51562 0.17188 0.90625 0.25 1.375 0.25 1.2969 0 2.2188-0.70312 2.2188-1.6719 0-0.3125-0.078125-0.54688-0.26562-0.75-0.26562-0.25-0.59375-0.35938-1.4688-0.53125-0.82812-0.15625-1.0938-0.35938-1.0938-0.8125 0-0.5 0.35938-0.78125 0.96875-0.78125 0.65625 0 1.1719 0.34375 1.1719 0.8125v0.23438h0.28125c0-0.57812 0.015625-0.8125 0.046875-1.125-0.53125-0.1875-0.89062-0.25-1.2969-0.25-1.1562 0-1.8594 0.54688-1.8594 1.4375 0 0.48438 0.21875 0.82812 0.67188 1.0312 0.26562 0.125 0.79688 0.28125 1.4688 0.42188 0.45312 0.10938 0.64062 0.3125 0.64062 0.6875 0 0.54688-0.5 0.92188-1.2031 0.92188-0.73438 0-1.25-0.34375-1.25-0.84375v-0.40625z"/></g><g transform="translate(256.18 164.05)"><path d="m0.0625-6.5938h0.5625c0.1875 0 0.25 0.10938 0.25 0.40625v5.1719c0 0.625-0.03125 0.70312-0.35938 0.71875l-0.45312 0.03125v0.29688c0.67188-0.015625 0.9375-0.03125 1.2344-0.03125 0.28125 0 0.5625 0.015625 1.2344 0.03125v-0.29688l-0.45312-0.03125c-0.32812-0.015625-0.35938-0.09375-0.35938-0.71875v-2.1094c0-0.45312 0.65625-0.9375 1.2656-0.9375 0.67188 0 1.1094 0.5 1.1094 1.2656v2.8281c0.59375-0.03125 0.60938-0.03125 0.78125-0.03125 0.14062 0 0.14062 0 0.82812 0.03125v-0.29688l-0.40625-0.03125c-0.34375-0.015625-0.375-0.078125-0.375-0.71875v-1.9219c0-1.1719-0.54688-1.7344-1.6562-1.7344-0.375 0-0.57812 0.0625-0.79688 0.25l-0.75 0.65625v-3.3906l-0.09375-0.078125c-0.4375 0.17188-0.76562 0.25-1.5625 0.35938z"/></g><g transform="translate(262.1 164.05)"><path d="m7.125-3.3906c0.15625 0 0.35938 0 0.35938-0.20312 0-0.21875-0.20312-0.21875-0.34375-0.21875h-6.2188c-0.14062 0-0.34375 0-0.34375 0.21875 0 0.20312 0.20312 0.20312 0.35938 0.20312zm0.015625 2.0156c0.14062 0 0.34375 0 0.34375-0.21875 0-0.20312-0.20312-0.20312-0.35938-0.20312h-6.1875c-0.15625 0-0.35938 0-0.35938 0.20312 0 0.21875 0.20312 0.21875 0.34375 0.21875z"/></g><g transform="translate(273.19 164.05)"><path d="m4.3906-6.8125c-0.17188-0.125-0.95312-0.28125-1.2031-0.28125-0.78125 0-1.1406 0.4375-1.1406 1.0469 0 0.53125 0.15625 0.85938 0.46875 1.4688-0.09375 0.046875-0.1875 0.125-0.25 0.17188-0.51562 0.45312-1.0312 0.9375-1.4219 1.4844-0.29688 0.39062-0.67188 0.98438-0.67188 1.5312 0 1.2344 0.45312 1.5 1.1094 1.5 0.4375 0 0.82812-0.20312 1.3281-0.64062 0.078125-0.0625 0.15625-0.14062 0.23438-0.23438 0.5-0.5 1.125-1.2812 1.125-2.0625 0-0.90625-0.35938-1.4219-0.70312-1.8438-0.35938-0.46875-0.9375-1.1875-0.9375-1.625 0-0.21875 0.1875-0.46875 0.54688-0.46875 0.29688 0 0.5 0.10938 0.73438 0.21875 0.078125 0.046875 0.375 0.23438 0.5 0.48438l0.10938-0.046875c0.046875-0.15625 0.09375-0.42188 0.1875-0.60938zm-1.1875 4.8438c-0.3125 0.75-0.95312 1.5781-1.5156 1.5781-0.48438 0-0.76562-0.45312-0.76562-1.1094 0-0.17188 0.078125-0.4375 0.125-0.60938 0.23438-0.82812 0.78125-1.5 1.4531-2.0469 0.046875-0.046875 0.10938-0.078125 0.20312-0.125 0.28125 0.5 0.60938 1.0781 0.60938 1.7812 0 0.17188-0.0625 0.42188-0.10938 0.53125z"/></g><g transform="translate(277.62 165.55)"><path d="m4.2031-3.2031 0.078125 0.14062c0.0625-0.046875 0.14062-0.0625 0.20312-0.0625 0.20312 0 0.32812 0.17188 0.32812 0.46875 0 1.1094-0.73438 2.3594-1.375 2.3594-0.21875 0-0.39062-0.29688-0.39062-0.71875 0-0.35938 0.078125-0.85938 0.17188-1.1875l0.39062-1.3906-0.0625-0.0625-0.54688 0.17188-0.21875 1.125c-0.09375 0.46875-0.20312 0.78125-0.42188 1.1875-0.3125 0.5625-0.59375 0.875-0.82812 0.875-0.26562 0-0.4375-0.29688-0.4375-0.73438 0-0.90625 0.3125-1.6406 1.0625-2.4844l-0.078125-0.14062c-0.14062 0.078125-0.25 0.09375-0.45312 0.09375-0.21875 0-0.53125-0.015625-0.75-0.03125l-0.09375-0.015625h-0.09375c-0.09375 0-0.15625 0.015625-0.23438 0.046875-0.10938 0.20312-0.20312 0.48438-0.29688 0.89062h0.17188l0.125-0.3125c0.046875-0.125 0.20312-0.21875 0.39062-0.21875 0.03125 0 0.10938 0 0.20312 0.015625h0.21875c0.15625 0 0.25 0 0.45312-0.03125l-0.03125 0.03125c-0.046875 0.0625-0.078125 0.10938-0.20312 0.25-0.6875 0.79688-0.9375 1.3438-0.9375 1.9844 0 0.625 0.26562 1.0312 0.67188 1.0312 0.48438 0 0.875-0.40625 1.4375-1.5-0.078125 0.34375-0.09375 0.53125-0.09375 0.70312 0 0.46875 0.21875 0.79688 0.5625 0.79688 0.60938 0 1.4062-0.76562 1.875-1.7969 0.17188-0.375 0.29688-0.89062 0.29688-1.1875 0-0.4375-0.20312-0.75-0.46875-0.75-0.09375 0-0.1875 0.03125-0.25 0.09375z"/></g><g transform="translate(286.57 164.05)"><path d="m1.2188-1.1094c-0.29688 0-0.5625 0.28125-0.5625 0.57812s0.26562 0.57812 0.5625 0.57812c0.3125 0 0.59375-0.26562 0.59375-0.57812 0-0.29688-0.28125-0.57812-0.59375-0.57812zm0-3.4375c-0.29688 0-0.5625 0.28125-0.5625 0.57812s0.26562 0.57812 0.5625 0.57812c0.3125 0 0.59375-0.26562 0.59375-0.5625 0-0.3125-0.28125-0.59375-0.59375-0.59375z"/></g><g transform="translate(292.08 164.05)"><path d="m4.3906-6.8125c-0.17188-0.125-0.95312-0.28125-1.2031-0.28125-0.78125 0-1.1406 0.4375-1.1406 1.0469 0 0.53125 0.15625 0.85938 0.46875 1.4688-0.09375 0.046875-0.1875 0.125-0.25 0.17188-0.51562 0.45312-1.0312 0.9375-1.4219 1.4844-0.29688 0.39062-0.67188 0.98438-0.67188 1.5312 0 1.2344 0.45312 1.5 1.1094 1.5 0.4375 0 0.82812-0.20312 1.3281-0.64062 0.078125-0.0625 0.15625-0.14062 0.23438-0.23438 0.5-0.5 1.125-1.2812 1.125-2.0625 0-0.90625-0.35938-1.4219-0.70312-1.8438-0.35938-0.46875-0.9375-1.1875-0.9375-1.625 0-0.21875 0.1875-0.46875 0.54688-0.46875 0.29688 0 0.5 0.10938 0.73438 0.21875 0.078125 0.046875 0.375 0.23438 0.5 0.48438l0.10938-0.046875c0.046875-0.15625 0.09375-0.42188 0.1875-0.60938zm-1.1875 4.8438c-0.3125 0.75-0.95312 1.5781-1.5156 1.5781-0.48438 0-0.76562-0.45312-0.76562-1.1094 0-0.17188 0.078125-0.4375 0.125-0.60938 0.23438-0.82812 0.78125-1.5 1.4531-2.0469 0.046875-0.046875 0.10938-0.078125 0.20312-0.125 0.28125 0.5 0.60938 1.0781 0.60938 1.7812 0 0.17188-0.0625 0.42188-0.10938 0.53125z"/></g><g transform="translate(297.5 166.14)"><path d="m2.1719-2.9062c0.03125-0.14062 0.078125-0.3125 0.125-0.42188l-0.03125-0.046875-0.046875 0.015625c-0.1875 0.046875-0.26562 0.046875-0.64062 0.046875h-0.125l0.15625-0.84375c0.125-0.65625 0.34375-0.9375 0.6875-0.9375 0.23438 0 0.4375 0.10938 0.54688 0.29688l0.078125-0.03125c0.03125-0.125 0.10938-0.35938 0.17188-0.51562l0.03125-0.10938c-0.10938-0.0625-0.34375-0.10938-0.53125-0.10938-0.078125 0-0.20312 0.03125-0.26562 0.0625-0.17188 0.078125-0.79688 0.54688-0.96875 0.71875s-0.26562 0.40625-0.34375 0.82812l-0.10938 0.60938c-0.3125 0.14062-0.46875 0.20312-0.65625 0.28125l-0.03125 0.15625h0.60938l-0.0625 0.42188c-0.23438 1.4844-0.51562 2.8906-0.6875 3.4219-0.125 0.4375-0.35938 0.67188-0.625 0.67188-0.1875 0-0.26562-0.046875-0.40625-0.21875l-0.09375 0.03125c-0.03125 0.17188-0.14062 0.54688-0.1875 0.60938 0.078125 0.03125 0.1875 0.0625 0.26562 0.0625 0.3125 0 0.71875-0.23438 1.0156-0.59375 0.46875-0.54688 0.64062-1.0781 1.1875-3.7344 0.03125-0.09375 0.078125-0.375 0.14062-0.67188z"/></g><g transform="translate(304.11 164.05)"><path d="m1.2188-1.1094c-0.29688 0-0.5625 0.28125-0.5625 0.57812s0.26562 0.57812 0.5625 0.57812c0.3125 0 0.59375-0.26562 0.59375-0.57812 0-0.29688-0.28125-0.57812-0.59375-0.57812zm0-3.4375c-0.29688 0-0.5625 0.28125-0.5625 0.57812s0.26562 0.57812 0.5625 0.57812c0.3125 0 0.59375-0.26562 0.59375-0.5625 0-0.3125-0.28125-0.59375-0.59375-0.59375z"/></g><g transform="translate(310.91 164.05)"><path d="m2.8438-3.8125c0.046875-0.1875 0.10938-0.42188 0.17188-0.5625l-0.03125-0.078125-0.078125 0.03125c-0.23438 0.0625-0.34375 0.0625-0.82812 0.0625h-0.17188l0.21875-1.1094c0.15625-0.85938 0.4375-1.2344 0.89062-1.2344 0.29688 0 0.57812 0.14062 0.71875 0.39062l0.10938-0.046875c0.046875-0.15625 0.14062-0.46875 0.21875-0.67188l0.046875-0.14062c-0.15625-0.078125-0.45312-0.14062-0.6875-0.14062-0.10938 0-0.26562 0.03125-0.34375 0.078125-0.25 0.10938-1.0625 0.71875-1.2969 0.95312-0.21875 0.21875-0.32812 0.51562-0.45312 1.0938l-0.14062 0.78125c-0.40625 0.20312-0.60938 0.28125-0.85938 0.375l-0.046875 0.21875h0.8125l-0.09375 0.54688c-0.29688 1.9531-0.67188 3.7969-0.89062 4.4844-0.17188 0.59375-0.48438 0.90625-0.84375 0.90625-0.21875 0-0.32812-0.078125-0.51562-0.29688l-0.14062 0.046875c-0.03125 0.23438-0.17188 0.70312-0.21875 0.79688 0.078125 0.046875 0.23438 0.078125 0.34375 0.078125 0.40625 0 0.95312-0.3125 1.3281-0.78125 0.60938-0.71875 0.82812-1.4062 1.5625-4.9062 0.03125-0.125 0.10938-0.5 0.1875-0.875z"/></g><g transform="translate(314.05 165.91)"><path d="m0.5-4.2031h0.078125l0.98438-0.4375c0-0.015625 0.015625-0.015625 0.015625-0.015625 0.046875 0 0.0625 0.078125 0.0625 0.25v3.6719c0 0.40625-0.078125 0.48438-0.48438 0.5l-0.42188 0.03125v0.21875c1.1562-0.015625 1.1562-0.015625 1.25-0.015625h0.51562c0.09375 0.015625 0.35938 0.015625 0.67188 0.015625v-0.21875l-0.39062-0.03125c-0.42188-0.015625-0.5-0.09375-0.5-0.5v-4.4844l-0.10938-0.046875c-0.48438 0.26562-1.0312 0.48438-1.7188 0.73438z"/></g><g transform="translate(241.18 178)"><path d="m4.1094-4.6719c-0.8125 1.9062-0.95312 2.2344-1.5781 3.6406l-0.84375-2.75c-0.015625-0.09375-0.03125-0.17188-0.03125-0.25 0-0.15625 0.125-0.23438 0.375-0.25l0.40625-0.015625v-0.28125c-0.98438 0.03125-0.98438 0.03125-1.1875 0.03125s-0.20312 0-1.1875-0.03125v0.28125l0.28125 0.015625c0.28125 0.03125 0.40625 0.21875 0.65625 1l1.0156 3.3438h0.46875l0.96875-2.2812c0.0625-0.125 0.17188-0.35938 0.32812-0.70312l0.20312-0.42188 1.3438 3.4062h0.46875c0.0625-0.20312 0.14062-0.4375 0.21875-0.65625 0.20312-0.57812 0.42188-1.2031 0.46875-1.2656l0.67188-1.5469c0.29688-0.67188 0.42188-0.84375 0.64062-0.875l0.26562-0.015625v-0.28125c-0.82812 0.03125-0.82812 0.03125-0.98438 0.03125s-0.15625 0-0.98438-0.03125v0.28125l0.34375 0.015625c0.25 0.015625 0.39062 0.14062 0.39062 0.3125 0 0.10938-0.015625 0.23438-0.0625 0.35938l-0.5 1.3906c-0.078125 0.21875-0.17188 0.42188-0.48438 1.2344l-1.1406-2.8906c-0.14062-0.32812-0.21875-0.53125-0.29688-0.79688z"/></g><g transform="translate(249.48 178)"><path d="m1.875-4.6406-0.09375-0.03125c-0.5 0.20312-1.0312 0.34375-1.5469 0.40625v0.28125h0.35938c0.40625 0 0.4375 0.0625 0.4375 0.71875v2.25c0 0.625-0.03125 0.70312-0.35938 0.71875l-0.46875 0.03125v0.29688c1-0.03125 1-0.03125 1.25-0.03125s0.25 0 1.25 0.03125v-0.29688l-0.45312-0.03125c-0.34375-0.015625-0.375-0.09375-0.375-0.71875zm-0.45312-2.2031c-0.3125 0-0.5625 0.25-0.5625 0.54688s0.25 0.5625 0.54688 0.5625c0.28125 0 0.5625-0.26562 0.5625-0.5625 0-0.26562-0.28125-0.54688-0.54688-0.54688z"/></g><g transform="translate(252.38 178)"><path d="m4.0938 0.03125c0.59375-0.03125 0.60938-0.03125 0.78125-0.03125 0.14062 0 0.14062 0 0.82812 0.03125v-0.29688l-0.40625-0.03125c-0.34375-0.015625-0.375-0.078125-0.375-0.71875v-1.9219c0-1.1719-0.54688-1.7344-1.6562-1.7344-0.375 0-0.57812 0.0625-0.79688 0.25l-0.75 0.65625v-0.875l-0.09375-0.03125c-0.51562 0.20312-1.0312 0.34375-1.5625 0.40625v0.28125h0.375c0.40625 0 0.4375 0.0625 0.4375 0.71875v2.25c0 0.625-0.03125 0.70312-0.35938 0.71875l-0.45312 0.03125v0.29688c0.67188-0.015625 0.9375-0.03125 1.2344-0.03125 0.28125 0 0.5625 0.015625 1.2344 0.03125v-0.29688l-0.45312-0.03125c-0.32812-0.015625-0.35938-0.09375-0.35938-0.71875v-2.1094c0-0.45312 0.65625-0.9375 1.2656-0.9375 0.67188 0 1.1094 0.5 1.1094 1.2656z"/></g><g transform="translate(258.18 178)"><path d="m4.1094-4.3594c-0.5625-0.23438-0.84375-0.3125-1.1875-0.3125-0.26562 0-0.51562 0.0625-0.76562 0.1875l-0.875 0.45312c-0.5625 0.29688-0.9375 1.0312-0.9375 1.875 0 0.79688 0.28125 1.4531 0.76562 1.8594 0.34375 0.28125 0.79688 0.42188 1.4531 0.42188 0.20312 0 0.42188-0.046875 0.48438-0.078125l1.0938-0.9375-0.046875 0.92188c0.48438-0.015625 0.65625-0.03125 0.76562-0.03125 0.078125 0 0.21875 0 0.4375 0.015625 0.0625 0 0.26562 0 0.46875 0.015625v-0.29688l-0.45312-0.03125c-0.34375-0.015625-0.375-0.09375-0.375-0.71875v-6.1406l-0.078125-0.078125c-0.4375 0.17188-0.76562 0.25-1.5625 0.35938v0.28125h0.5625c0.17188 0 0.25 0.10938 0.25 0.40625zm0 2.1562c0 0.64062-0.015625 0.75-0.15625 0.98438-0.28125 0.46875-0.76562 0.76562-1.2344 0.76562-0.875 0-1.5-0.84375-1.5-2.0312 0-1.0781 0.53125-1.7188 1.4375-1.7188 0.375 0 0.76562 0.125 1.125 0.35938 0.20312 0.14062 0.32812 0.28125 0.32812 0.35938z"/></g><g transform="translate(264.27 178)"><path d="m2.7812-4.6719c-1.4531 0-2.4688 1.0156-2.4688 2.5156 0 1.4062 0.89062 2.3594 2.1875 2.3594 1.5312 0 2.625-1.0781 2.625-2.5625 0-1.3438-0.98438-2.3125-2.3438-2.3125zm-0.17188 0.32812c0.90625 0 1.5938 1 1.5938 2.3438 0 1.1562-0.51562 1.875-1.3281 1.875-0.96875 0-1.625-0.96875-1.625-2.375 0-1.2031 0.46875-1.8438 1.3594-1.8438z"/></g><g transform="translate(269.44 178)"><path d="m4.1094-4.6719c-0.8125 1.9062-0.95312 2.2344-1.5781 3.6406l-0.84375-2.75c-0.015625-0.09375-0.03125-0.17188-0.03125-0.25 0-0.15625 0.125-0.23438 0.375-0.25l0.40625-0.015625v-0.28125c-0.98438 0.03125-0.98438 0.03125-1.1875 0.03125s-0.20312 0-1.1875-0.03125v0.28125l0.28125 0.015625c0.28125 0.03125 0.40625 0.21875 0.65625 1l1.0156 3.3438h0.46875l0.96875-2.2812c0.0625-0.125 0.17188-0.35938 0.32812-0.70312l0.20312-0.42188 1.3438 3.4062h0.46875c0.0625-0.20312 0.14062-0.4375 0.21875-0.65625 0.20312-0.57812 0.42188-1.2031 0.46875-1.2656l0.67188-1.5469c0.29688-0.67188 0.42188-0.84375 0.64062-0.875l0.26562-0.015625v-0.28125c-0.82812 0.03125-0.82812 0.03125-0.98438 0.03125s-0.15625 0-0.98438-0.03125v0.28125l0.34375 0.015625c0.25 0.015625 0.39062 0.14062 0.39062 0.3125 0 0.10938-0.015625 0.23438-0.0625 0.35938l-0.5 1.3906c-0.078125 0.21875-0.17188 0.42188-0.48438 1.2344l-1.1406-2.8906c-0.14062-0.32812-0.21875-0.53125-0.29688-0.79688z"/></g><g transform="translate(277.75 178)"><path d="m5.5312-3.8438h-5.0156v0.54688h5.0156zm0 1.9375h-5.0156v0.54688h5.0156z"/></g><g transform="translate(283.91 178)"><path d="m5.5156-4.2188 0.10938 0.1875c0.09375-0.0625 0.1875-0.078125 0.28125-0.078125 0.26562 0 0.42188 0.21875 0.42188 0.625 0 1.4375-0.96875 3.0938-1.8125 3.0938-0.28125 0-0.5-0.39062-0.5-0.9375 0-0.46875 0.09375-1.1406 0.21875-1.5625l0.51562-1.8281-0.078125-0.09375-0.73438 0.23438-0.28125 1.4844c-0.125 0.60938-0.26562 1.0156-0.5625 1.5469-0.39062 0.75-0.76562 1.1562-1.0625 1.1562-0.35938 0-0.57812-0.39062-0.57812-0.96875 0-1.1875 0.40625-2.1562 1.3906-3.2656l-0.10938-0.1875c-0.1875 0.09375-0.32812 0.125-0.59375 0.125-0.28125 0-0.70312-0.015625-1-0.046875l-0.10938-0.015625h-0.125c-0.125 0-0.20312 0.015625-0.3125 0.0625-0.14062 0.26562-0.25 0.625-0.39062 1.1719h0.21875l0.17188-0.40625c0.078125-0.17188 0.28125-0.28125 0.51562-0.28125h0.26562c0.078125 0.015625 0.15625 0.015625 0.29688 0.015625 0.20312 0 0.32812-0.015625 0.57812-0.046875l-0.03125 0.046875c-0.0625 0.078125-0.09375 0.125-0.26562 0.3125-0.89062 1.0469-1.2344 1.7656-1.2344 2.625 0 0.8125 0.34375 1.3594 0.875 1.3594 0.64062 0 1.1562-0.54688 1.8906-1.9688-0.078125 0.4375-0.10938 0.6875-0.10938 0.90625 0 0.64062 0.28125 1.0625 0.73438 1.0625 0.8125 0 1.8594-1 2.4688-2.375 0.21875-0.5 0.39062-1.1562 0.39062-1.5625 0-0.5625-0.26562-0.98438-0.625-0.98438-0.125 0-0.25 0.046875-0.32812 0.125z"/></g><g transform="translate(291.18 179.86)"><path d="m0.5-4.2031h0.078125l0.98438-0.4375c0-0.015625 0.015625-0.015625 0.015625-0.015625 0.046875 0 0.0625 0.078125 0.0625 0.25v3.6719c0 0.40625-0.078125 0.48438-0.48438 0.5l-0.42188 0.03125v0.21875c1.1562-0.015625 1.1562-0.015625 1.25-0.015625h0.51562c0.09375 0.015625 0.35938 0.015625 0.67188 0.015625v-0.21875l-0.39062-0.03125c-0.42188-0.015625-0.5-0.09375-0.5-0.5v-4.4844l-0.10938-0.046875c-0.48438 0.26562-1.0312 0.48438-1.7188 0.73438z"/></g></g><path d="m10.57 74.741-0.11369-0.08268 0.35622-0.49058-0.5774-0.1881 0.04341-0.13367 0.57809 0.1881v-0.60634h0.14056v0.60565l0.57602-0.18741 0.04341 0.13367-0.57671 0.1881 0.35553 0.49058-0.11369 0.08199-0.35484-0.49058z" color="#000000" color-rendering="auto" dominant-baseline="auto" image-rendering="auto" shape-rendering="auto" solid-color="#000000" stop-color="#000000" style="font-feature-settings:normal;font-variant-alternates:normal;font-variant-caps:normal;font-variant-east-asian:normal;font-variant-ligatures:normal;font-variant-numeric:normal;font-variant-position:normal;font-variation-settings:normal;inline-size:0;isolation:auto;mix-blend-mode:normal;shape-margin:0;shape-padding:0;text-decoration-color:#000000;text-decoration-line:none;text-decoration-style:solid;text-indent:0;text-orientation:mixed;text-transform:none;white-space:normal"/><g transform="matrix(.35278 0 0 .35278 -58.893 17.963)"><g transform="translate(182.26 147.27)"><path d="m3 1.9375c-0.71875-0.89062-0.96875-1.375-1.2344-2.2656-0.20312-0.71875-0.3125-1.4688-0.3125-2.3281 0-0.82812 0.10938-1.5312 0.29688-2.1719 0.25-0.82812 0.51562-1.2969 1.25-2.1562l-0.1875-0.25c-1.0312 0.92188-1.4531 1.4688-1.8281 2.4531-0.25 0.67188-0.39062 1.375-0.39062 2.125 0 1.0781 0.25 2.0781 0.73438 2.9688 0.34375 0.67188 0.67188 1.0625 1.4844 1.8281z"/></g><g transform="translate(185.7 147.27)"><path d="m5.5156-4.2188 0.10938 0.1875c0.09375-0.0625 0.1875-0.078125 0.28125-0.078125 0.26562 0 0.42188 0.21875 0.42188 0.625 0 1.4375-0.96875 3.0938-1.8125 3.0938-0.28125 0-0.5-0.39062-0.5-0.9375 0-0.46875 0.09375-1.1406 0.21875-1.5625l0.51562-1.8281-0.078125-0.09375-0.73438 0.23438-0.28125 1.4844c-0.125 0.60938-0.26562 1.0156-0.5625 1.5469-0.39062 0.75-0.76562 1.1562-1.0625 1.1562-0.35938 0-0.57812-0.39062-0.57812-0.96875 0-1.1875 0.40625-2.1562 1.3906-3.2656l-0.10938-0.1875c-0.1875 0.09375-0.32812 0.125-0.59375 0.125-0.28125 0-0.70312-0.015625-1-0.046875l-0.10938-0.015625h-0.125c-0.125 0-0.20312 0.015625-0.3125 0.0625-0.14062 0.26562-0.25 0.625-0.39062 1.1719h0.21875l0.17188-0.40625c0.078125-0.17188 0.28125-0.28125 0.51562-0.28125h0.26562c0.078125 0.015625 0.15625 0.015625 0.29688 0.015625 0.20312 0 0.32812-0.015625 0.57812-0.046875l-0.03125 0.046875c-0.0625 0.078125-0.09375 0.125-0.26562 0.3125-0.89062 1.0469-1.2344 1.7656-1.2344 2.625 0 0.8125 0.34375 1.3594 0.875 1.3594 0.64062 0 1.1562-0.54688 1.8906-1.9688-0.078125 0.4375-0.10938 0.6875-0.10938 0.90625 0 0.64062 0.28125 1.0625 0.73438 1.0625 0.8125 0 1.8594-1 2.4688-2.375 0.21875-0.5 0.39062-1.1562 0.39062-1.5625 0-0.5625-0.26562-0.98438-0.625-0.98438-0.125 0-0.25 0.046875-0.32812 0.125z"/></g><g transform="translate(192.97 149.13)"><path d="m0.5-4.2031h0.078125l0.98438-0.4375c0-0.015625 0.015625-0.015625 0.015625-0.015625 0.046875 0 0.0625 0.078125 0.0625 0.25v3.6719c0 0.40625-0.078125 0.48438-0.48438 0.5l-0.42188 0.03125v0.21875c1.1562-0.015625 1.1562-0.015625 1.25-0.015625h0.51562c0.09375 0.015625 0.35938 0.015625 0.67188 0.015625v-0.21875l-0.39062-0.03125c-0.42188-0.015625-0.5-0.09375-0.5-0.5v-4.4844l-0.10938-0.046875c-0.48438 0.26562-1.0312 0.48438-1.7188 0.73438z"/></g><g transform="translate(197.25 147.27)"><path d="m2.0312-1.2188c-0.26562 0.078125-0.45312 0.14062-0.96875 0.29688-0.078125 0.75-0.32812 1.4062-0.90625 2.3594l0.14062 0.10938 0.40625-0.1875c0.8125-1.0469 1.1875-1.6719 1.4688-2.4531z"/></g><g transform="translate(202.82 147.27)"><path d="m2.8438-3.8125c0.046875-0.1875 0.10938-0.42188 0.17188-0.5625l-0.03125-0.078125-0.078125 0.03125c-0.23438 0.0625-0.34375 0.0625-0.82812 0.0625h-0.17188l0.21875-1.1094c0.15625-0.85938 0.4375-1.2344 0.89062-1.2344 0.29688 0 0.57812 0.14062 0.71875 0.39062l0.10938-0.046875c0.046875-0.15625 0.14062-0.46875 0.21875-0.67188l0.046875-0.14062c-0.15625-0.078125-0.45312-0.14062-0.6875-0.14062-0.10938 0-0.26562 0.03125-0.34375 0.078125-0.25 0.10938-1.0625 0.71875-1.2969 0.95312-0.21875 0.21875-0.32812 0.51562-0.45312 1.0938l-0.14062 0.78125c-0.40625 0.20312-0.60938 0.28125-0.85938 0.375l-0.046875 0.21875h0.8125l-0.09375 0.54688c-0.29688 1.9531-0.67188 3.7969-0.89062 4.4844-0.17188 0.59375-0.48438 0.90625-0.84375 0.90625-0.21875 0-0.32812-0.078125-0.51562-0.29688l-0.14062 0.046875c-0.03125 0.23438-0.17188 0.70312-0.21875 0.79688 0.078125 0.046875 0.23438 0.078125 0.34375 0.078125 0.40625 0 0.95312-0.3125 1.3281-0.78125 0.60938-0.71875 0.82812-1.4062 1.5625-4.9062 0.03125-0.125 0.10938-0.5 0.1875-0.875z"/></g><g transform="translate(205.96 149.13)"><path d="m0.5-4.2031h0.078125l0.98438-0.4375c0-0.015625 0.015625-0.015625 0.015625-0.015625 0.046875 0 0.0625 0.078125 0.0625 0.25v3.6719c0 0.40625-0.078125 0.48438-0.48438 0.5l-0.42188 0.03125v0.21875c1.1562-0.015625 1.1562-0.015625 1.25-0.015625h0.51562c0.09375 0.015625 0.35938 0.015625 0.67188 0.015625v-0.21875l-0.39062-0.03125c-0.42188-0.015625-0.5-0.09375-0.5-0.5v-4.4844l-0.10938-0.046875c-0.48438 0.26562-1.0312 0.48438-1.7188 0.73438z"/></g><g transform="translate(210.25 147.27)"><path d="m0.51562 2.1406c0.6875-0.64062 0.96875-0.96875 1.2812-1.4688 0.60938-0.96875 0.92188-2.125 0.92188-3.3125 0-0.76562-0.125-1.4688-0.39062-2.1406-0.375-0.96875-0.78125-1.5156-1.8125-2.4531l-0.20312 0.25c0.73438 0.85938 1 1.3281 1.25 2.1562 0.20312 0.64062 0.29688 1.3438 0.29688 2.1719 0 0.85938-0.09375 1.6094-0.29688 2.3281-0.26562 0.89062-0.53125 1.375-1.25 2.2656z"/></g></g><path d="m32.224 64.776-0.11369-0.08268 0.35622-0.49058-0.57602-0.18672 0.04341-0.13367 0.57671 0.18673v-0.60634h0.14056v0.60634l0.57602-0.18673 0.04341 0.13367-0.57602 0.18672 0.35622 0.49058-0.11369 0.08268-0.35691-0.49058z" color="#000000" color-rendering="auto" dominant-baseline="auto" image-rendering="auto" shape-rendering="auto" solid-color="#000000" stop-color="#000000" style="font-feature-settings:normal;font-variant-alternates:normal;font-variant-caps:normal;font-variant-east-asian:normal;font-variant-ligatures:normal;font-variant-numeric:normal;font-variant-position:normal;font-variation-settings:normal;inline-size:0;isolation:auto;mix-blend-mode:normal;shape-margin:0;shape-padding:0;text-decoration-color:#000000;text-decoration-line:none;text-decoration-style:solid;text-indent:0;text-orientation:mixed;text-transform:none;white-space:normal"/><g transform="matrix(.35278 0 0 .35278 -58.893 17.963)"><g transform="translate(243.64 119.03)"><path d="m3 1.9375c-0.71875-0.89062-0.96875-1.375-1.2344-2.2656-0.20312-0.71875-0.3125-1.4688-0.3125-2.3281 0-0.82812 0.10938-1.5312 0.29688-2.1719 0.25-0.82812 0.51562-1.2969 1.25-2.1562l-0.1875-0.25c-1.0312 0.92188-1.4531 1.4688-1.8281 2.4531-0.25 0.67188-0.39062 1.375-0.39062 2.125 0 1.0781 0.25 2.0781 0.73438 2.9688 0.34375 0.67188 0.67188 1.0625 1.4844 1.8281z"/></g><g transform="translate(247.08 119.03)"><path d="m5.5156-4.2188 0.10938 0.1875c0.09375-0.0625 0.1875-0.078125 0.28125-0.078125 0.26562 0 0.42188 0.21875 0.42188 0.625 0 1.4375-0.96875 3.0938-1.8125 3.0938-0.28125 0-0.5-0.39062-0.5-0.9375 0-0.46875 0.09375-1.1406 0.21875-1.5625l0.51562-1.8281-0.078125-0.09375-0.73438 0.23438-0.28125 1.4844c-0.125 0.60938-0.26562 1.0156-0.5625 1.5469-0.39062 0.75-0.76562 1.1562-1.0625 1.1562-0.35938 0-0.57812-0.39062-0.57812-0.96875 0-1.1875 0.40625-2.1562 1.3906-3.2656l-0.10938-0.1875c-0.1875 0.09375-0.32812 0.125-0.59375 0.125-0.28125 0-0.70312-0.015625-1-0.046875l-0.10938-0.015625h-0.125c-0.125 0-0.20312 0.015625-0.3125 0.0625-0.14062 0.26562-0.25 0.625-0.39062 1.1719h0.21875l0.17188-0.40625c0.078125-0.17188 0.28125-0.28125 0.51562-0.28125h0.26562c0.078125 0.015625 0.15625 0.015625 0.29688 0.015625 0.20312 0 0.32812-0.015625 0.57812-0.046875l-0.03125 0.046875c-0.0625 0.078125-0.09375 0.125-0.26562 0.3125-0.89062 1.0469-1.2344 1.7656-1.2344 2.625 0 0.8125 0.34375 1.3594 0.875 1.3594 0.64062 0 1.1562-0.54688 1.8906-1.9688-0.078125 0.4375-0.10938 0.6875-0.10938 0.90625 0 0.64062 0.28125 1.0625 0.73438 1.0625 0.8125 0 1.8594-1 2.4688-2.375 0.21875-0.5 0.39062-1.1562 0.39062-1.5625 0-0.5625-0.26562-0.98438-0.625-0.98438-0.125 0-0.25 0.046875-0.32812 0.125z"/></g><g transform="translate(254.35 120.77)"><path d="m0.125-0.17188v0.1875c1.4062-0.015625 1.4062-0.015625 1.6875-0.015625 0.26562 0 0.26562 0 1.7344 0.015625-0.015625-0.15625-0.015625-0.23438-0.015625-0.32812 0-0.10938 0-0.1875 0.015625-0.34375-0.875 0.03125-1.2188 0.046875-2.625 0.078125l1.375-1.4688c0.73438-0.78125 0.96875-1.2031 0.96875-1.7656 0-0.875-0.59375-1.4062-1.5469-1.4062-0.54688 0-0.92188 0.15625-1.2969 0.53125l-0.125 1.0312h0.21875l0.09375-0.35938c0.125-0.4375 0.40625-0.625 0.90625-0.625 0.65625 0 1.0625 0.40625 1.0625 1.0625 0 0.5625-0.3125 1.125-1.1719 2.0312z"/></g><g transform="translate(258.64 119.03)"><path d="m2.0312-1.2188c-0.26562 0.078125-0.45312 0.14062-0.96875 0.29688-0.078125 0.75-0.32812 1.4062-0.90625 2.3594l0.14062 0.10938 0.40625-0.1875c0.8125-1.0469 1.1875-1.6719 1.4688-2.4531z"/></g><g transform="translate(264.21 119.03)"><path d="m2.8438-3.8125c0.046875-0.1875 0.10938-0.42188 0.17188-0.5625l-0.03125-0.078125-0.078125 0.03125c-0.23438 0.0625-0.34375 0.0625-0.82812 0.0625h-0.17188l0.21875-1.1094c0.15625-0.85938 0.4375-1.2344 0.89062-1.2344 0.29688 0 0.57812 0.14062 0.71875 0.39062l0.10938-0.046875c0.046875-0.15625 0.14062-0.46875 0.21875-0.67188l0.046875-0.14062c-0.15625-0.078125-0.45312-0.14062-0.6875-0.14062-0.10938 0-0.26562 0.03125-0.34375 0.078125-0.25 0.10938-1.0625 0.71875-1.2969 0.95312-0.21875 0.21875-0.32812 0.51562-0.45312 1.0938l-0.14062 0.78125c-0.40625 0.20312-0.60938 0.28125-0.85938 0.375l-0.046875 0.21875h0.8125l-0.09375 0.54688c-0.29688 1.9531-0.67188 3.7969-0.89062 4.4844-0.17188 0.59375-0.48438 0.90625-0.84375 0.90625-0.21875 0-0.32812-0.078125-0.51562-0.29688l-0.14062 0.046875c-0.03125 0.23438-0.17188 0.70312-0.21875 0.79688 0.078125 0.046875 0.23438 0.078125 0.34375 0.078125 0.40625 0 0.95312-0.3125 1.3281-0.78125 0.60938-0.71875 0.82812-1.4062 1.5625-4.9062 0.03125-0.125 0.10938-0.5 0.1875-0.875z"/></g><g transform="translate(267.35 120.77)"><path d="m0.125-0.17188v0.1875c1.4062-0.015625 1.4062-0.015625 1.6875-0.015625 0.26562 0 0.26562 0 1.7344 0.015625-0.015625-0.15625-0.015625-0.23438-0.015625-0.32812 0-0.10938 0-0.1875 0.015625-0.34375-0.875 0.03125-1.2188 0.046875-2.625 0.078125l1.375-1.4688c0.73438-0.78125 0.96875-1.2031 0.96875-1.7656 0-0.875-0.59375-1.4062-1.5469-1.4062-0.54688 0-0.92188 0.15625-1.2969 0.53125l-0.125 1.0312h0.21875l0.09375-0.35938c0.125-0.4375 0.40625-0.625 0.90625-0.625 0.65625 0 1.0625 0.40625 1.0625 1.0625 0 0.5625-0.3125 1.125-1.1719 2.0312z"/></g><g transform="translate(271.63 119.03)"><path d="m0.51562 2.1406c0.6875-0.64062 0.96875-0.96875 1.2812-1.4688 0.60938-0.96875 0.92188-2.125 0.92188-3.3125 0-0.76562-0.125-1.4688-0.39062-2.1406-0.375-0.96875-0.78125-1.5156-1.8125-2.4531l-0.20312 0.25c0.73438 0.85938 1 1.3281 1.25 2.1562 0.20312 0.64062 0.29688 1.3438 0.29688 2.1719 0 0.85938-0.09375 1.6094-0.29688 2.3281-0.26562 0.89062-0.53125 1.375-1.25 2.2656z"/></g></g></g><path d="m10.926 75.606c-0.81518 0-1.4773-0.66201-1.4773-1.4759s0.66207-1.4759 1.4773-1.4759c0.81387 0 1.4759 0.66201 1.4759 1.4759s-0.66201 1.4759-1.4759 1.4759zm0-0.14056c0.7378 0 1.3353-0.59752 1.3353-1.3353 0-0.7378-0.59752-1.3353-1.3353-1.3353-0.73924 0-1.3367 0.59752-1.3367 1.3353 0 0.7378 0.59745 1.3353 1.3367 1.3353z" color="#000000" color-rendering="auto" dominant-baseline="auto" fill="#f00" image-rendering="auto" shape-rendering="auto" solid-color="#000000" stop-color="#000000" style="font-feature-settings:normal;font-variant-alternates:normal;font-variant-caps:normal;font-variant-east-asian:normal;font-variant-ligatures:normal;font-variant-numeric:normal;font-variant-position:normal;font-variation-settings:normal;inline-size:0;isolation:auto;mix-blend-mode:normal;shape-margin:0;shape-padding:0;text-decoration-color:#000000;text-decoration-line:none;text-decoration-style:solid;text-indent:0;text-orientation:mixed;text-transform:none;white-space:normal"/><g transform="matrix(.35278 0 0 .35278 -58.893 17.963)"><g transform="translate(230.23 269.62)"><path d="m7.3125 0.09375c0.046875-0.15625 0.078125-0.29688 0.078125-0.34375 0.03125-0.09375 0.10938-0.39062 0.20312-0.67188l1.5156-5.3594c0.0625-0.17188 0.15625-0.26562 0.375-0.28125l0.32812-0.03125v-0.29688l-1.0469 0.015625c-0.10938 0-0.10938 0-1.0469-0.015625v0.29688l0.39062 0.03125c0.35938 0.015625 0.46875 0.078125 0.46875 0.23438v0.09375l-1.3281 4.875-1.625-4.6094c-0.21875-0.59375-0.25-0.67188-0.32812-1.0156h-0.32812c-0.20312 0.625-0.375 1.0781-0.89062 2.4062l-1.2344 3.1406-1-4.4688c-0.03125-0.125-0.046875-0.23438-0.046875-0.32812 0-0.21875 0.10938-0.3125 0.375-0.32812l0.42188-0.03125v-0.29688l-1.2656 0.015625c-0.0625 0-0.48438 0-1.25-0.015625v0.29688l0.28125 0.03125c0.28125 0.015625 0.40625 0.125 0.5 0.48438l1.1875 5.1406c0.125 0.5625 0.125 0.57812 0.21875 1.0312h0.5c0.09375-0.32812 0.17188-0.5625 0.35938-1.0312l1.7344-4.4062 1.25 3.375c0.32812 0.89062 0.35938 0.96875 0.70312 2.0625z"/></g><g transform="translate(239.64 269.62)"><path d="m1.875-4.6406-0.09375-0.03125c-0.5 0.20312-1.0312 0.34375-1.5469 0.40625v0.28125h0.35938c0.40625 0 0.4375 0.0625 0.4375 0.71875v2.25c0 0.625-0.03125 0.70312-0.35938 0.71875l-0.46875 0.03125v0.29688c1-0.03125 1-0.03125 1.25-0.03125s0.25 0 1.25 0.03125v-0.29688l-0.45312-0.03125c-0.34375-0.015625-0.375-0.09375-0.375-0.71875zm-0.45312-2.2031c-0.3125 0-0.5625 0.25-0.5625 0.54688s0.25 0.5625 0.54688 0.5625c0.28125 0 0.5625-0.26562 0.5625-0.5625 0-0.26562-0.28125-0.54688-0.54688-0.54688z"/></g><g transform="translate(242.54 269.62)"><path d="m4.0938 0.03125c0.59375-0.03125 0.60938-0.03125 0.78125-0.03125 0.14062 0 0.14062 0 0.82812 0.03125v-0.29688l-0.40625-0.03125c-0.34375-0.015625-0.375-0.078125-0.375-0.71875v-1.9219c0-1.1719-0.54688-1.7344-1.6562-1.7344-0.375 0-0.57812 0.0625-0.79688 0.25l-0.75 0.65625v-0.875l-0.09375-0.03125c-0.51562 0.20312-1.0312 0.34375-1.5625 0.40625v0.28125h0.375c0.40625 0 0.4375 0.0625 0.4375 0.71875v2.25c0 0.625-0.03125 0.70312-0.35938 0.71875l-0.45312 0.03125v0.29688c0.67188-0.015625 0.9375-0.03125 1.2344-0.03125 0.28125 0 0.5625 0.015625 1.2344 0.03125v-0.29688l-0.45312-0.03125c-0.32812-0.015625-0.35938-0.09375-0.35938-0.71875v-2.1094c0-0.45312 0.65625-0.9375 1.2656-0.9375 0.67188 0 1.1094 0.5 1.1094 1.2656z"/></g><g transform="translate(248.34 269.62)"><path d="m4.1094-4.3594c-0.5625-0.23438-0.84375-0.3125-1.1875-0.3125-0.26562 0-0.51562 0.0625-0.76562 0.1875l-0.875 0.45312c-0.5625 0.29688-0.9375 1.0312-0.9375 1.875 0 0.79688 0.28125 1.4531 0.76562 1.8594 0.34375 0.28125 0.79688 0.42188 1.4531 0.42188 0.20312 0 0.42188-0.046875 0.48438-0.078125l1.0938-0.9375-0.046875 0.92188c0.48438-0.015625 0.65625-0.03125 0.76562-0.03125 0.078125 0 0.21875 0 0.4375 0.015625 0.0625 0 0.26562 0 0.46875 0.015625v-0.29688l-0.45312-0.03125c-0.34375-0.015625-0.375-0.09375-0.375-0.71875v-6.1406l-0.078125-0.078125c-0.4375 0.17188-0.76562 0.25-1.5625 0.35938v0.28125h0.5625c0.17188 0 0.25 0.10938 0.25 0.40625zm0 2.1562c0 0.64062-0.015625 0.75-0.15625 0.98438-0.28125 0.46875-0.76562 0.76562-1.2344 0.76562-0.875 0-1.5-0.84375-1.5-2.0312 0-1.0781 0.53125-1.7188 1.4375-1.7188 0.375 0 0.76562 0.125 1.125 0.35938 0.20312 0.14062 0.32812 0.28125 0.32812 0.35938z"/></g><g transform="translate(254.43 269.62)"><path d="m2.7812-4.6719c-1.4531 0-2.4688 1.0156-2.4688 2.5156 0 1.4062 0.89062 2.3594 2.1875 2.3594 1.5312 0 2.625-1.0781 2.625-2.5625 0-1.3438-0.98438-2.3125-2.3438-2.3125zm-0.17188 0.32812c0.90625 0 1.5938 1 1.5938 2.3438 0 1.1562-0.51562 1.875-1.3281 1.875-0.96875 0-1.625-0.96875-1.625-2.375 0-1.2031 0.46875-1.8438 1.3594-1.8438z"/></g><g transform="translate(259.6 269.62)"><path d="m4.1094-4.6719c-0.8125 1.9062-0.95312 2.2344-1.5781 3.6406l-0.84375-2.75c-0.015625-0.09375-0.03125-0.17188-0.03125-0.25 0-0.15625 0.125-0.23438 0.375-0.25l0.40625-0.015625v-0.28125c-0.98438 0.03125-0.98438 0.03125-1.1875 0.03125s-0.20312 0-1.1875-0.03125v0.28125l0.28125 0.015625c0.28125 0.03125 0.40625 0.21875 0.65625 1l1.0156 3.3438h0.46875l0.96875-2.2812c0.0625-0.125 0.17188-0.35938 0.32812-0.70312l0.20312-0.42188 1.3438 3.4062h0.46875c0.0625-0.20312 0.14062-0.4375 0.21875-0.65625 0.20312-0.57812 0.42188-1.2031 0.46875-1.2656l0.67188-1.5469c0.29688-0.67188 0.42188-0.84375 0.64062-0.875l0.26562-0.015625v-0.28125c-0.82812 0.03125-0.82812 0.03125-0.98438 0.03125s-0.15625 0-0.98438-0.03125v0.28125l0.34375 0.015625c0.25 0.015625 0.39062 0.14062 0.39062 0.3125 0 0.10938-0.015625 0.23438-0.0625 0.35938l-0.5 1.3906c-0.078125 0.21875-0.17188 0.42188-0.48438 1.2344l-1.1406-2.8906c-0.14062-0.32812-0.21875-0.53125-0.29688-0.79688z"/></g><g transform="translate(83.681 198.79)"><path d="m-3.2656-2.1562c-0.015625-0.28125-0.03125-0.57812-0.03125-1.0312 0-0.73438 0.03125-1 0.125-1.1719l0.25-0.09375 0.59375-0.046875v-0.29688c-0.9375 0.03125-0.9375 0.03125-1.1094 0.03125-0.15625 0-0.15625 0-1.1562-0.03125v0.29688l0.51562 0.046875c0.09375 0.015625 0.1875 0.046875 0.26562 0.09375 0.078125 0.17188 0.10938 0.45312 0.10938 1.1094 0 0.42188-0.015625 0.75-0.03125 1.0938h-2.6719c-0.0625-0.29688-0.078125-0.46875-0.078125-1.0625 0-0.48438 0.0625-1.0312 0.14062-1.3438 0.0625-0.25 0.10938-0.26562 0.34375-0.26562h0.64062v-0.35938c-0.59375 0-1.0781-0.046875-1.5156-0.15625-0.015625 0.48438-0.015625 0.78125-0.015625 1.2188v1.0625c0.015625 0.48438 0.015625 0.84375 0.015625 1.0938 0 0.28125 0 0.28125-0.015625 1.75h0.29688l0.03125-0.48438c0.015625-0.45312 0.10938-0.5 0.89062-0.5h4.4688c0.79688 0 0.875 0.046875 0.90625 0.5l0.03125 0.48438h0.29688c-0.015625-0.59375-0.03125-0.9375-0.03125-1.4531s0.015625-0.875 0.03125-1.4688h-0.29688l-0.03125 0.48438c-0.03125 0.45312-0.10938 0.5-0.90625 0.5z"/></g><g transform="translate(83.681 193.25)"><path d="m-3.9844-0.23438v-0.35938c0-0.40625 0.0625-0.4375 0.71875-0.4375h2.25c0.625 0 0.70312 0.03125 0.71875 0.35938l0.03125 0.46875h0.29688c-0.015625-0.71875-0.03125-0.98438-0.03125-1.2344 0-0.20312 0-0.20312 0.03125-1.4219h-0.29688l-0.03125 0.51562c-0.03125 0.45312-0.0625 0.46875-0.71875 0.46875h-1.7188c-0.59375 0-1.0938-0.39062-1.0938-0.89062 0-0.29688 0.14062-0.5 0.45312-0.65625v-0.21875l-1.1875-0.09375c-0.078125 0.10938-0.10938 0.29688-0.10938 0.46875 0 0.3125 0.15625 0.625 0.40625 0.82812l0.65625 0.5625h-1.0312l-0.03125 0.09375c0.20312 0.5 0.34375 1.0312 0.40625 1.5469z"/></g><g transform="translate(83.681 189.37)"><path d="m-0.70312-4.3594-0.09375 0.125c0.375 0.64062 0.46875 0.875 0.46875 1.2969 0 0.65625-0.29688 1.1875-0.78125 1.4688-0.32812 0.1875-0.60938 0.26562-1.1875 0.28125v-1.4531c0-0.6875-0.03125-1.125-0.14062-1.8125-0.14062 0-0.21875-0.015625-0.34375-0.015625-1.1406 0-1.8906 0.73438-1.8906 1.8594 0 0.35938 0.125 0.79688 0.35938 1.2031 0.46875 0.8125 1.0938 1.1406 2.125 1.1406 0.625 0 1.1719-0.14062 1.5469-0.40625 0.53125-0.40625 0.84375-1.0781 0.84375-1.8281 0-0.35938-0.078125-0.73438-0.26562-1.1406-0.10938-0.26562-0.23438-0.46875-0.29688-0.51562zm-1.9531 0.78125c0.015625 0.51562 0.03125 0.75 0.03125 1.1094 0 0.46875-0.015625 0.71875-0.0625 1.2656-0.46875 0-0.6875-0.046875-0.95312-0.17188-0.4375-0.20312-0.70312-0.64062-0.70312-1.125 0-0.32812 0.125-0.57812 0.39062-0.76562 0.32812-0.21875 0.625-0.28125 1.2969-0.3125z"/></g><g transform="translate(83.681 184.6)"><path d="m-0.65625-3.9219h2.4062c0.625 0 0.70312 0.046875 0.71875 0.375l0.03125 0.57812h0.29688c-0.03125-1.1562-0.03125-1.1562-0.03125-1.3906s0.015625-0.51562 0.03125-1.2188h-0.29688l-0.03125 0.45312c-0.015625 0.34375-0.09375 0.375-0.71875 0.375h-4.9219c-0.60938 0-1-0.0625-1.375-0.23438l-0.10938 0.1875 0.3125 0.48438c-0.23438 0.51562-0.32812 0.9375-0.32812 1.375 0 0.28125 0.078125 0.64062 0.17188 0.78125l0.53125 0.84375c0.40625 0.64062 1.0625 0.96875 1.9375 0.96875 1.2969 0 2.1562-0.79688 2.1562-2.0312 0-0.20312-0.046875-0.375-0.125-0.5zm-0.54688 0c0.14062 0 0.40625 0.25 0.5625 0.51562 0.125 0.23438 0.1875 0.46875 0.1875 0.70312 0 0.875-0.8125 1.4844-2.0156 1.4844-1.0938 0-1.7344-0.5625-1.7344-1.5156 0-0.48438 0.10938-0.82812 0.40625-1.1875z"/></g><g transform="translate(83.681 179.02)"><path d="m-4.6406-5.0156-0.03125 0.09375c0.20312 0.5 0.34375 1.0312 0.40625 1.5469h0.28125v-0.35938c0-0.40625 0.0625-0.4375 0.71875-0.4375h1.625c0.21875 0 0.5 0.14062 0.73438 0.35938 0.28125 0.28125 0.42188 0.60938 0.42188 0.98438 0 0.35938-0.10938 0.64062-0.29688 0.79688-0.17188 0.14062-0.46875 0.20312-0.90625 0.20312h-2.9531l-0.03125 0.09375c0.20312 0.51562 0.34375 1.0312 0.40625 1.5625h0.28125v-0.375c0-0.40625 0.0625-0.4375 0.71875-0.4375h1.6875c0.6875 0 1-0.0625 1.25-0.23438 0.29688-0.23438 0.45312-0.60938 0.45312-1.1719 0-0.45312-0.14062-0.84375-0.39062-1.125l-0.625-0.65625c0.29688 0 0.45312 0 0.92188 0.03125-0.03125-0.67188-0.03125-0.67188-0.03125-0.82812 0-0.14062 0-0.14062 0.03125-0.82812h-0.29688l-0.03125 0.40625c-0.015625 0.34375-0.078125 0.375-0.71875 0.375z"/></g><g transform="translate(83.681 173.01)"><path d="m-0.70312-4.3594-0.09375 0.125c0.375 0.64062 0.46875 0.875 0.46875 1.2969 0 0.65625-0.29688 1.1875-0.78125 1.4688-0.32812 0.1875-0.60938 0.26562-1.1875 0.28125v-1.4531c0-0.6875-0.03125-1.125-0.14062-1.8125-0.14062 0-0.21875-0.015625-0.34375-0.015625-1.1406 0-1.8906 0.73438-1.8906 1.8594 0 0.35938 0.125 0.79688 0.35938 1.2031 0.46875 0.8125 1.0938 1.1406 2.125 1.1406 0.625 0 1.1719-0.14062 1.5469-0.40625 0.53125-0.40625 0.84375-1.0781 0.84375-1.8281 0-0.35938-0.078125-0.73438-0.26562-1.1406-0.10938-0.26562-0.23438-0.46875-0.29688-0.51562zm-1.9531 0.78125c0.015625 0.51562 0.03125 0.75 0.03125 1.1094 0 0.46875-0.015625 0.71875-0.0625 1.2656-0.46875 0-0.6875-0.046875-0.95312-0.17188-0.4375-0.20312-0.70312-0.64062-0.70312-1.125 0-0.32812 0.125-0.57812 0.39062-0.76562 0.32812-0.21875 0.625-0.28125 1.2969-0.3125z"/></g><g transform="translate(83.681 168.24)"><path d="m0.03125-4.0938c-0.03125-0.59375-0.03125-0.60938-0.03125-0.78125 0-0.14062 0-0.14062 0.03125-0.82812h-0.29688l-0.03125 0.40625c-0.015625 0.34375-0.078125 0.375-0.71875 0.375h-1.9219c-1.1719 0-1.7344 0.54688-1.7344 1.6562 0 0.375 0.0625 0.57812 0.25 0.79688l0.65625 0.75h-0.875l-0.03125 0.09375c0.20312 0.51562 0.34375 1.0312 0.40625 1.5625h0.28125v-0.375c0-0.40625 0.0625-0.4375 0.71875-0.4375h2.25c0.625 0 0.70312 0.03125 0.71875 0.35938l0.03125 0.45312h0.29688c-0.015625-0.67188-0.03125-0.9375-0.03125-1.2344 0-0.28125 0.015625-0.5625 0.03125-1.2344h-0.29688l-0.03125 0.45312c-0.015625 0.32812-0.09375 0.35938-0.71875 0.35938h-2.1094c-0.45312 0-0.9375-0.65625-0.9375-1.2656 0-0.67188 0.5-1.1094 1.2656-1.1094z"/></g><g transform="translate(83.681 162.44)"><path d="m-3.0938-3.9844c-0.46875 0-0.875-0.046875-1.2344-0.125-0.23438 0.39062-0.34375 0.73438-0.34375 1.1562 0 0.46875 0.1875 1.0312 0.5625 1.625 0.4375 0.70312 1.1406 1.0625 2.0156 1.0625 1.3438 0 2.2969-0.9375 2.2969-2.2812 0-0.51562-0.1875-1.2656-0.34375-1.3594l-0.3125-0.20312-0.15625 0.09375c0.20312 0.35938 0.29688 0.6875 0.29688 1.0469 0 1.1094-0.85938 1.8281-2.1875 1.8281-1.0625 0-1.6562-0.5-1.6562-1.3906 0-0.4375 0.20312-0.92188 0.45312-1.0938l0.60938-0.078125z"/></g><g transform="translate(83.681 158.02)"><path d="m-0.85938-2.9531c-0.375 0.21875-0.60938 0.32812-1.0938 0.5l-1.6719 0.64062c-0.17188 0.0625-0.32812 0.09375-0.42188 0.09375-0.14062 0-0.21875-0.10938-0.23438-0.32812l-0.015625-0.39062h-0.28125c0.03125 0.96875 0.03125 0.96875 0.03125 1.1562s0 0.1875-0.03125 1.1562h0.28125l0.015625-0.17188c0.03125-0.25 0.14062-0.375 0.5-0.51562l2.6094-1.0938c0.67188-0.28125 0.90625-0.375 1.4062-0.5625l0.60938 0.23438c0.84375 0.32812 1.3125 0.70312 1.3125 1.0938 0 0.15625-0.078125 0.32812-0.23438 0.5v0.125l0.75 0.25c0.09375-0.1875 0.15625-0.35938 0.15625-0.54688 0-0.65625-0.35938-1.0938-1.2344-1.4688l-4.6719-2.0312c-0.90625-0.39062-1.1719-0.57812-1.2031-0.82812l-0.015625-0.28125h-0.28125c0.03125 0.78125 0.03125 0.78125 0.03125 0.95312 0 0.15625 0 0.15625-0.03125 0.9375h0.28125l0.015625-0.25c0.03125-0.28125 0.10938-0.42188 0.25-0.42188 0.078125 0 0.15625 0.015625 0.26562 0.0625z"/></g><g transform="translate(83.681 149.45)"><path d="m2.4844-3.4375c-0.03125 0-0.046875 0-0.21875 0.1875-1.3125 1.2969-3.2656 1.625-4.8594 1.625-1.8125 0-3.6094-0.39062-4.9062-1.6719-0.125-0.14062-0.14062-0.14062-0.17188-0.14062-0.078125 0-0.10938 0.046875-0.10938 0.10938 0 0.09375 0.70312 1.0312 2.0156 1.6406 1.1562 0.53125 2.2969 0.65625 3.1719 0.65625 0.8125 0 2.0625-0.10938 3.2344-0.6875 1.2812-0.60938 1.9531-1.5156 1.9531-1.6094 0-0.0625-0.03125-0.10938-0.10938-0.10938z"/></g><g transform="translate(83.681 144.8)"><path d="m-3.8438-2.2031-2.2656-0.42188c-0.39062-0.0625-0.45312-0.14062-0.48438-0.5l-0.03125-0.42188-0.26562-0.03125v0.23438l0.015625 0.90625v0.76562l-0.015625 0.64062 0.26562 0.03125 0.03125-0.46875c0-0.25 0.078125-0.35938 0.26562-0.35938 0.14062 0 0.45312 0.046875 0.75 0.09375l4.3281 0.73438c0.92188 0.17188 0.9375 0.1875 0.96875 0.57812l0.03125 0.40625 0.28125 0.046875-0.015625-0.42188c0-0.48438-0.015625-0.70312-0.015625-0.89062l0.03125-0.96875v-0.26562l-0.28125-0.03125-0.03125 0.5c-0.015625 0.26562-0.09375 0.35938-0.29688 0.35938-0.09375 0-0.15625-0.015625-0.34375-0.046875l-2.4688-0.42188-0.015625-0.60938c0-0.60938-0.015625-1.0312-0.015625-1.2188s0.015625-0.59375 0.015625-1.2344l0.015625-0.60938 2.1406 0.40625c0.5 0.09375 0.76562 0.15625 0.82812 0.20312 0.078125 0.046875 0.125 0.15625 0.14062 0.375l0.03125 0.5 0.28125 0.03125-0.015625-0.54688c0-0.4375-0.015625-0.75-0.015625-0.85938 0-0.15625 0.015625-0.46875 0.015625-0.89062l0.015625-0.42188-0.28125-0.03125-0.03125 0.57812c-0.015625 0.26562-0.09375 0.35938-0.29688 0.35938-0.09375 0-0.17188 0-0.34375-0.03125l-5.1875-0.92188c-0.39062-0.0625-0.4375-0.125-0.48438-0.51562l-0.03125-0.34375-0.26562-0.03125v0.15625l0.015625 0.90625v0.79688l-0.015625 0.625 0.26562 0.03125 0.03125-0.48438c0-0.23438 0.078125-0.34375 0.26562-0.34375 0.14062 0 0.45312 0.046875 0.75 0.09375l1.7344 0.29688z"/></g><g transform="translate(83.681 136.53)"><path d="m-0.20312 0.015625 0.26562-0.09375c-0.23438-0.29688-0.32812-0.5625-0.32812-0.90625 0-0.25 0.0625-0.53125 0.17188-1.0469 0.15625-0.59375 0.20312-0.90625 0.20312-1.1719 0-0.125-0.015625-0.21875-0.09375-0.5-0.625-0.10938-0.96875-0.1875-1.4375-0.29688v0.21875l0.60938 0.21875c0.17188 0.046875 0.25 0.17188 0.25 0.375 0 0.125-0.03125 0.28125-0.078125 0.5l-0.03125 0.17188c-0.078125 0.32812-0.125 0.67188-0.125 0.85938 0 0.32812 0.0625 0.59375 0.20312 0.95312l-3.7969-3.3906-0.32812-0.046875-0.09375 0.078125 0.23438 0.23438c0.10938 0.09375 0.14062 0.20312 0.14062 0.34375 0 0.32812-0.078125 0.85938-0.20312 1.3281l-0.046875 0.1875c-0.078125 0.28125-0.125 0.46875-0.125 0.60938 0 0.17188 0.03125 0.375 0.10938 0.60938l1.2188 0.32812v-0.21875l-0.57812-0.29688c-0.046875-0.17188-0.046875-0.26562-0.046875-0.39062 0-0.14062 0-0.25 0.046875-0.45312 0.0625-0.32812 0.09375-0.59375 0.09375-0.79688 0-0.35938-0.0625-0.60938-0.23438-0.9375z"/></g><g transform="translate(83.681 131.86)"><path d="m-2.5938-3c-0.8125 0-2.0625 0.10938-3.2344 0.6875-1.2812 0.625-1.9531 1.5156-1.9531 1.625 0 0.046875 0.046875 0.09375 0.10938 0.09375 0.03125 0 0.046875 0 0.23438-0.1875 1.0312-1.0312 2.6719-1.6094 4.8438-1.6094 1.7812 0 3.5938 0.375 4.9062 1.6719 0.125 0.125 0.14062 0.125 0.17188 0.125 0.0625 0 0.10938-0.046875 0.10938-0.09375 0-0.10938-0.70312-1.0469-2.0156-1.6562-1.1562-0.53125-2.2969-0.65625-3.1719-0.65625z"/></g></g></g></svg>
