<svg width="109.55mm" height="68.339mm" version="1.1" viewBox="0 0 109.55 68.339" xmlns="http://www.w3.org/2000/svg"><defs><clipPath id="clip1"><path d="m115.19 285.11h27.809v161.39h-27.809z"/></clipPath><clipPath id="clip2"><path d="m141 285.11h28v161.39h-28z"/></clipPath><clipPath id="clip3"><path d="m167 285.11h29v161.39h-29z"/></clipPath><clipPath id="clip4"><path d="m194 285.11h29v161.39h-29z"/></clipPath><clipPath id="clip5"><path d="m220 285.11h29v161.39h-29z"/></clipPath><clipPath id="clip6"><path d="m247 285.11h29v161.39h-29z"/></clipPath><clipPath id="clip7"><path d="m274 285.11h28v161.39h-28z"/></clipPath><clipPath id="clip8"><path d="m300 285.11h29v161.39h-29z"/></clipPath><clipPath id="clip9"><path d="m327 285.11h29v161.39h-29z"/></clipPath><clipPath id="clip10"><path d="m354 285.11h27.199v161.39h-27.199z"/></clipPath><clipPath id="clip11"><path d="m128 285.11h28v161.39h-28z"/></clipPath><clipPath id="clip12"><path d="m155 285.11h27v161.39h-27z"/></clipPath><clipPath id="clip13"><path d="m154 285.11h28v161.39h-28z"/></clipPath><clipPath id="clip14"><path d="m181 285.11h28v161.39h-28z"/></clipPath><clipPath id="clip15"><path d="m208 285.11h27v161.39h-27z"/></clipPath><clipPath id="clip16"><path d="m208 285.11h28v161.39h-28z"/></clipPath><clipPath id="clip17"><path d="m234 285.11h28v161.39h-28z"/></clipPath><clipPath id="clip18"><path d="m261 285.11h28v161.39h-28z"/></clipPath><clipPath id="clip19"><path d="m288 285.11h27v161.39h-27z"/></clipPath><clipPath id="clip20"><path d="m287 285.11h28v161.39h-28z"/></clipPath><clipPath id="clip21"><path d="m314 285.11h28v161.39h-28z"/></clipPath><clipPath id="clip22"><path d="m341 285.11h27v161.39h-27z"/></clipPath><clipPath id="clip23"><path d="m341 285.11h28v161.39h-28z"/></clipPath><clipPath id="clip24"><path d="m115.19 285.11h266.01v161.39h-266.01z"/></clipPath></defs><g transform="translate(48.729 -31.598)"><g shape-rendering="auto"><path d="m-34.724 89.76v-56.936h0.14056v56.936zm9.3844 0v-56.936h0.14056v56.936zm9.3844 0v-56.936h0.14056v56.936zm9.3844 0v-56.936h0.14056v56.936zm9.3831 0v-56.936h0.14056v56.936zm9.3844 0v-56.936h0.14056v56.936zm9.3844 0v-56.936h0.14056v56.936zm9.3844 0v-56.936h0.14056v56.936zm9.3831 0v-56.936h0.14056v56.936zm9.3844 0v-56.936h0.14056v56.936zm9.3844 0v-56.936h0.14056v56.936z" color="#000000" color-rendering="auto" dominant-baseline="auto" fill="#bfbfbf" image-rendering="auto" solid-color="#000000" stop-color="#000000" style="font-feature-settings:normal;font-variant-alternates:normal;font-variant-caps:normal;font-variant-east-asian:normal;font-variant-ligatures:normal;font-variant-numeric:normal;font-variant-position:normal;font-variation-settings:normal;inline-size:0;isolation:auto;mix-blend-mode:normal;shape-margin:0;shape-padding:0;text-decoration-color:#000000;text-decoration-line:none;text-decoration-style:solid;text-indent:0;text-orientation:mixed;text-transform:none;white-space:normal"/><path d="m-34.654 89.831v-0.14056h93.842v0.14056zm0-14.234v-0.14056h93.842v0.14056zm0-14.235v-0.14056h93.842v0.14056zm0-14.234v-0.14056h93.842v0.14056zm0-14.234v-0.14056h93.842v0.14056z" color="#000000" color-rendering="auto" dominant-baseline="auto" fill="#bfbfbf" image-rendering="auto" solid-color="#000000" stop-color="#000000" style="font-feature-settings:normal;font-variant-alternates:normal;font-variant-caps:normal;font-variant-east-asian:normal;font-variant-ligatures:normal;font-variant-numeric:normal;font-variant-position:normal;font-variation-settings:normal;inline-size:0;isolation:auto;mix-blend-mode:normal;shape-margin:0;shape-padding:0;text-decoration-color:#000000;text-decoration-line:none;text-decoration-style:solid;text-indent:0;text-orientation:mixed;text-transform:none;white-space:normal"/><path d="m-34.689 89.76v-1.4993h0.07028v1.4993zm9.3844 0v-1.4993h0.07028v1.4993zm9.3844 0v-1.4993h0.07028v1.4993zm9.3844 0v-1.4993h0.07028v1.4993zm9.3831 0v-1.4993h0.07028v1.4993zm9.3844 0v-1.4993h0.07028v1.4993zm9.3844 0v-1.4993h0.07028v1.4993zm9.3844 0v-1.4993h0.07028v1.4993zm9.3831 0v-1.4993h0.07028v1.4993zm9.3844 0v-1.4993h0.07028v1.4993zm9.3844 0v-1.4993h0.07028v1.4993zm-93.842-55.437v-1.4993h0.07028v1.4993zm9.3844 0v-1.4993h0.07028v1.4993zm9.3844 0v-1.4993h0.07028v1.4993zm9.3844 0v-1.4993h0.07028v1.4993zm9.3831 0v-1.4993h0.07028v1.4993zm9.3844 0v-1.4993h0.07028v1.4993zm9.3844 0v-1.4993h0.07028v1.4993zm9.3844 0v-1.4993h0.07028v1.4993zm9.3831 0v-1.4993h0.07028v1.4993zm9.3844 0v-1.4993h0.07028v1.4993zm9.3844 0v-1.4993h0.07028v1.4993z" color="#000000" color-rendering="auto" dominant-baseline="auto" fill="#7f7f7f" image-rendering="auto" solid-color="#000000" stop-color="#000000" style="font-feature-settings:normal;font-variant-alternates:normal;font-variant-caps:normal;font-variant-east-asian:normal;font-variant-ligatures:normal;font-variant-numeric:normal;font-variant-position:normal;font-variation-settings:normal;inline-size:0;isolation:auto;mix-blend-mode:normal;shape-margin:0;shape-padding:0;text-decoration-color:#000000;text-decoration-line:none;text-decoration-style:solid;text-indent:0;text-orientation:mixed;text-transform:none;white-space:normal"/><path d="m-34.654 89.795v-0.07028h1.5007v0.07028zm92.341 0v-0.07028h1.5007v0.07028zm-92.341-14.234v-0.07028h1.5007v0.07028zm92.341 0v-0.07028h1.5007v0.07028zm-92.341-14.235v-0.07028h1.5007v0.07028zm92.341 0v-0.07028h1.5007v0.07028zm-92.341-14.234v-0.07028h1.5007v0.07028zm92.341 0v-0.07028h1.5007v0.07028zm-92.341-14.234v-0.07028h1.5007v0.07028zm92.341 0v-0.07028h1.5007v0.07028z" color="#000000" color-rendering="auto" dominant-baseline="auto" fill="#7f7f7f" image-rendering="auto" solid-color="#000000" stop-color="#000000" style="font-feature-settings:normal;font-variant-alternates:normal;font-variant-caps:normal;font-variant-east-asian:normal;font-variant-ligatures:normal;font-variant-numeric:normal;font-variant-position:normal;font-variation-settings:normal;inline-size:0;isolation:auto;mix-blend-mode:normal;shape-margin:0;shape-padding:0;text-decoration-color:#000000;text-decoration-line:none;text-decoration-style:solid;text-indent:0;text-orientation:mixed;text-transform:none;white-space:normal"/><path d="m-34.724 89.831v-57.077h93.982v57.077zm0.14056-0.14056h93.701v-56.796h-93.701z" color="#000000" color-rendering="auto" dominant-baseline="auto" image-rendering="auto" solid-color="#000000" stop-color="#000000" style="font-feature-settings:normal;font-variant-alternates:normal;font-variant-caps:normal;font-variant-east-asian:normal;font-variant-ligatures:normal;font-variant-numeric:normal;font-variant-position:normal;font-variation-settings:normal;inline-size:0;isolation:auto;mix-blend-mode:normal;shape-margin:0;shape-padding:0;text-decoration-color:#000000;text-decoration-line:none;text-decoration-style:solid;text-indent:0;text-orientation:mixed;text-transform:none;white-space:normal"/></g><g transform="matrix(.35278 0 0 .35278 -75.291 -67.758)"><g transform="translate(112.7 456.83)"><path d="m2.625-6.875c-1.5469 0-2.3281 1.2344-2.3281 3.6406 0 1.1719 0.20312 2.1719 0.54688 2.6719 0.35938 0.48438 0.90625 0.76562 1.5312 0.76562 1.5 0 2.2656-1.2969 2.2656-3.8594 0-2.1719-0.65625-3.2188-2.0156-3.2188zm-0.1875 0.35938c0.96875 0 1.3594 0.96875 1.3594 3.3594 0 2.125-0.375 3-1.2969 3-0.96875 0-1.375-1-1.375-3.4375 0-2.0938 0.375-2.9219 1.3125-2.9219z"/></g><g transform="translate(139.3 456.98)"><path d="m0.67188-5.5312h0.09375l1.2812-0.57812c0.015625-0.015625 0.03125-0.015625 0.03125-0.015625 0.0625 0 0.078125 0.09375 0.078125 0.32812v4.8438c0 0.51562-0.10938 0.625-0.64062 0.65625l-0.5625 0.03125v0.29688c1.5469-0.03125 1.5469-0.03125 1.6562-0.03125 0.125 0 0.34375 0 0.6875 0.015625 0.10938 0 0.46875 0 0.875 0.015625v-0.29688l-0.51562-0.03125c-0.5625-0.03125-0.65625-0.14062-0.65625-0.65625v-5.9219l-0.14062-0.046875c-0.64062 0.34375-1.3594 0.64062-2.2656 0.95312z"/></g><g transform="translate(165.9 456.83)"><path d="m0.15625-0.23438v0.26562c1.875-0.03125 1.875-0.03125 2.2188-0.03125 0.35938 0 0.35938 0 2.2969 0.03125-0.03125-0.20312-0.03125-0.3125-0.03125-0.45312 0-0.125 0-0.21875 0.03125-0.45312-1.1562 0.0625-1.6094 0.0625-3.4531 0.10938l1.8125-1.9219c0.96875-1.0312 1.2656-1.5781 1.2656-2.3281 0-1.1406-0.78125-1.8594-2.0469-1.8594-0.71875 0-1.2031 0.20312-1.6875 0.70312l-0.17188 1.3594h0.28125l0.14062-0.46875c0.15625-0.57812 0.51562-0.8125 1.1875-0.8125 0.84375 0 1.4062 0.53125 1.4062 1.375 0 0.75-0.42188 1.4844-1.5469 2.6875z"/></g><g transform="translate(192.5 456.83)"><path d="m0.42188-4.9688h0.3125l0.1875-0.54688c0.10938-0.34375 0.73438-0.6875 1.25-0.6875 0.65625 0 1.1719 0.53125 1.1719 1.1562 0 0.75-0.57812 1.375-1.2969 1.375-0.078125 0-0.1875 0-0.3125-0.015625l-0.15625-0.015625-0.10938 0.53125 0.0625 0.0625c0.375-0.17188 0.57812-0.21875 0.84375-0.21875 0.82812 0 1.2969 0.53125 1.2969 1.4375 0 1.0156-0.59375 1.6875-1.5312 1.6875-0.45312 0-0.85938-0.15625-1.1562-0.4375-0.25-0.21875-0.375-0.45312-0.5625-0.98438l-0.26562 0.09375c0.20312 0.60938 0.28125 0.96875 0.34375 1.4688 0.53125 0.1875 0.96875 0.26562 1.3281 0.26562 0.79688 0 1.7188-0.45312 2.2656-1.125 0.34375-0.40625 0.51562-0.84375 0.51562-1.3125 0-0.48438-0.20312-0.89062-0.5625-1.1406-0.25-0.1875-0.48438-0.26562-0.96875-0.35938 0.79688-0.60938 1.0938-1.0781 1.0938-1.6562 0-0.89062-0.75-1.4844-1.8438-1.4844-0.6875 0-1.125 0.20312-1.6094 0.67188z"/></g><g transform="translate(219.1 456.98)"><path d="m2.7969-1.7969v0.73438c0 0.60938-0.10938 0.75-0.60938 0.76562l-0.60938 0.03125v0.29688c1.3281-0.03125 1.3281-0.03125 1.5625-0.03125s0.23438 0 1.5625 0.03125v-0.29688l-0.46875-0.03125c-0.5-0.03125-0.60938-0.15625-0.60938-0.76562v-0.73438c0.59375 0 0.79688 0 1.0781 0.03125v-0.70312c-0.46875 0.03125-0.65625 0.03125-0.8125 0.03125h-0.26562v-1.3906c0-1.7812 0.03125-2.625 0.078125-3.0469l-0.125-0.046875-0.73438 0.26562-2.8281 4.625 0.10938 0.23438zm0-0.64062h-2.1562l2.1562-3.5156z"/></g><g transform="translate(245.7 456.83)"><path d="m1.2656-6.0312c1.2812 0.046875 1.8438 0.046875 3.0469 0.046875l0.046875-0.046875c-0.015625-0.17188-0.015625-0.26562-0.015625-0.39062 0-0.14062 0-0.21875 0.015625-0.39062l-0.046875-0.0625c-0.75 0.046875-1.2031 0.0625-1.7344 0.0625-0.54688 0-1-0.015625-1.7344-0.0625l-0.0625 0.0625c0.015625 0.60938 0.03125 1.0469 0.03125 1.3594 0 0.84375-0.03125 1.7969-0.0625 2.25l0.20312 0.046875c0.46875-0.46875 0.73438-0.60938 1.2188-0.60938 0.95312 0 1.5625 0.6875 1.5625 1.7656 0 1.1094-0.64062 1.75-1.7344 1.75-0.53125 0-1.0312-0.17188-1.1719-0.4375l-0.45312-0.8125-0.25 0.14062c0.23438 0.5625 0.35938 0.875 0.5 1.3125 0.26562 0.15625 0.67188 0.25 1.0938 0.25 0.67188 0 1.375-0.29688 1.9375-0.76562 0.59375-0.54688 0.92188-1.2188 0.92188-1.9531 0-1.1406-0.8125-1.9375-1.9531-1.9375-0.46875 0-0.82812 0.14062-1.4531 0.5z"/></g><g transform="translate(272.3 456.83)"><path d="m4.1406-6.7031-0.35938-0.17188c-0.95312 0.32812-1.375 0.53125-1.875 0.96875-1.0312 0.85938-1.5938 2.0781-1.5938 3.4375 0 1.6562 0.79688 2.6719 2.0938 2.6719s2.2656-1.0312 2.2656-2.3906c0-1.1406-0.6875-1.8906-1.75-1.8906-0.5 0-0.79688 0.125-1.3906 0.59375-0.10938 0.09375-0.10938 0.10938-0.21875 0.1875 0.20312-1.8125 1.0469-2.7812 2.8281-3.3281zm-1.5938 3.2188c0.75 0 1.2656 0.65625 1.2656 1.6562 0 1.0312-0.51562 1.7031-1.2812 1.7031-0.84375 0-1.3125-0.73438-1.3125-2.0625 0-0.35938 0.046875-0.54688 0.15625-0.71875 0.21875-0.32812 0.6875-0.57812 1.1719-0.57812z"/></g><g transform="translate(298.9 456.83)"><path d="m0.5625-0.09375 0.078125 0.125c0.39062-0.03125 0.39062-0.03125 0.46875-0.03125 0.0625 0 0.0625 0 0.45312 0.03125 0.42188-1.0938 0.90625-2.125 1.5625-3.3281l1.8281-3.2656v-0.3125c-1.0781 0.046875-1.4219 0.0625-2.2344 0.0625-0.71875 0-1.2188-0.015625-2.1875-0.0625l-0.09375 0.0625c0.03125 0.9375 0.03125 0.9375 0.03125 1.0469s0 0.10938-0.03125 1.0156h0.29688l0.078125-0.5625c0.078125-0.625 0.14062-0.70312 0.60938-0.70312h2.6562c-0.40625 0.82812-0.70312 1.4062-1.0938 2.0156z"/></g><g transform="translate(325.5 456.83)"><path d="m1.6719-3.4375c-0.40625 0.1875-0.57812 0.29688-0.79688 0.5-0.375 0.39062-0.57812 0.82812-0.57812 1.3594 0 1.0156 0.82812 1.7812 1.9531 1.7812 1.2969 0 2.375-1.0156 2.375-2.25 0-0.79688-0.375-1.2344-1.5-1.75 0.90625-0.625 1.2188-1.0312 1.2188-1.6406 0-0.85938-0.70312-1.4375-1.7656-1.4375-1.1875 0-2.0469 0.76562-2.0469 1.8125 0 0.67188 0.26562 1.0625 1.1406 1.625zm1.1562 0.5c0.625 0.28125 1.0156 0.76562 1.0156 1.2969 0 0.84375-0.64062 1.5-1.4375 1.5-0.84375 0-1.4062-0.59375-1.4062-1.5312 0-0.71875 0.29688-1.1719 1.0312-1.625zm-0.60938-1.2812c-0.625-0.3125-0.9375-0.70312-0.9375-1.2031 0-0.65625 0.46875-1.1094 1.1875-1.1094s1.2031 0.48438 1.2031 1.2031c0 0.57812-0.25 0.96875-0.90625 1.375z"/></g><g transform="translate(352.11 456.83)"><path d="m0.95312 0.20312c1.1094-0.35938 1.5938-0.59375 2.125-1.0469 0.96875-0.82812 1.4844-1.9844 1.4844-3.3125 0-1.6875-0.8125-2.7188-2.125-2.7188-1.2812 0-2.2344 1-2.2344 2.3438 0 1.1406 0.75 1.9844 1.7812 1.9844 0.34375 0 0.73438-0.10938 0.90625-0.26562l0.70312-0.57812c-0.078125 1.6719-1.1719 2.9062-2.9688 3.3438v0.078125zm1.4375-6.75c0.45312 0 0.78125 0.20312 1 0.59375 0.17188 0.32812 0.29688 0.8125 0.29688 1.2656 0 0.90625-0.53125 1.5312-1.2969 1.5312-0.79688 0-1.3281-0.71875-1.3281-1.75 0-1 0.51562-1.6406 1.3281-1.6406z"/></g><g transform="translate(376.21 456.98)"><path d="m0.67188-5.5312h0.09375l1.2812-0.57812c0.015625-0.015625 0.03125-0.015625 0.03125-0.015625 0.0625 0 0.078125 0.09375 0.078125 0.32812v4.8438c0 0.51562-0.10938 0.625-0.64062 0.65625l-0.5625 0.03125v0.29688c1.5469-0.03125 1.5469-0.03125 1.6562-0.03125 0.125 0 0.34375 0 0.6875 0.015625 0.10938 0 0.46875 0 0.875 0.015625v-0.29688l-0.51562-0.03125c-0.5625-0.03125-0.65625-0.14062-0.65625-0.65625v-5.9219l-0.14062-0.046875c-0.64062 0.34375-1.3594 0.64062-2.2656 0.95312z"/></g><g transform="translate(381.2 456.98)"><path d="m2.625-6.875c-1.5469 0-2.3281 1.2344-2.3281 3.6406 0 1.1719 0.20312 2.1719 0.54688 2.6719 0.35938 0.48438 0.90625 0.76562 1.5312 0.76562 1.5 0 2.2656-1.2969 2.2656-3.8594 0-2.1719-0.65625-3.2188-2.0156-3.2188zm-0.1875 0.35938c0.96875 0 1.3594 0.96875 1.3594 3.3594 0 2.125-0.375 3-1.2969 3-0.96875 0-1.375-1-1.375-3.4375 0-2.0938 0.375-2.9219 1.3125-2.9219z"/></g><g transform="translate(98.498 449.56)"><path d="m6.8438-2.3906c0.17188 0 0.35938 0 0.35938-0.20312s-0.1875-0.20312-0.35938-0.20312h-5.625c-0.17188 0-0.35938 0-0.35938 0.20312s0.1875 0.20312 0.35938 0.20312z"/></g><g transform="translate(106.69 449.56)"><path d="m0.67188-5.5312h0.09375l1.2812-0.57812c0.015625-0.015625 0.03125-0.015625 0.03125-0.015625 0.0625 0 0.078125 0.09375 0.078125 0.32812v4.8438c0 0.51562-0.10938 0.625-0.64062 0.65625l-0.5625 0.03125v0.29688c1.5469-0.03125 1.5469-0.03125 1.6562-0.03125 0.125 0 0.34375 0 0.6875 0.015625 0.10938 0 0.46875 0 0.875 0.015625v-0.29688l-0.51562-0.03125c-0.5625-0.03125-0.65625-0.14062-0.65625-0.65625v-5.9219l-0.14062-0.046875c-0.64062 0.34375-1.3594 0.64062-2.2656 0.95312z"/></g><g transform="translate(91.026 409.13)"><path d="m6.8438-2.3906c0.17188 0 0.35938 0 0.35938-0.20312s-0.1875-0.20312-0.35938-0.20312h-5.625c-0.17188 0-0.35938 0-0.35938 0.20312s0.1875 0.20312 0.35938 0.20312z"/></g><g transform="translate(99.22 409.13)"><path d="m2.625-6.875c-1.5469 0-2.3281 1.2344-2.3281 3.6406 0 1.1719 0.20312 2.1719 0.54688 2.6719 0.35938 0.48438 0.90625 0.76562 1.5312 0.76562 1.5 0 2.2656-1.2969 2.2656-3.8594 0-2.1719-0.65625-3.2188-2.0156-3.2188zm-0.1875 0.35938c0.96875 0 1.3594 0.96875 1.3594 3.3594 0 2.125-0.375 3-1.2969 3-0.96875 0-1.375-1-1.375-3.4375 0-2.0938 0.375-2.9219 1.3125-2.9219z"/></g><g transform="translate(104.2 409.13)"><path d="m1.2344-1.1094c-0.29688 0-0.5625 0.28125-0.5625 0.57812s0.26562 0.57812 0.54688 0.57812c0.32812 0 0.60938-0.26562 0.60938-0.57812 0-0.29688-0.28125-0.57812-0.59375-0.57812z"/></g><g transform="translate(106.69 409.13)"><path d="m1.2656-6.0312c1.2812 0.046875 1.8438 0.046875 3.0469 0.046875l0.046875-0.046875c-0.015625-0.17188-0.015625-0.26562-0.015625-0.39062 0-0.14062 0-0.21875 0.015625-0.39062l-0.046875-0.0625c-0.75 0.046875-1.2031 0.0625-1.7344 0.0625-0.54688 0-1-0.015625-1.7344-0.0625l-0.0625 0.0625c0.015625 0.60938 0.03125 1.0469 0.03125 1.3594 0 0.84375-0.03125 1.7969-0.0625 2.25l0.20312 0.046875c0.46875-0.46875 0.73438-0.60938 1.2188-0.60938 0.95312 0 1.5625 0.6875 1.5625 1.7656 0 1.1094-0.64062 1.75-1.7344 1.75-0.53125 0-1.0312-0.17188-1.1719-0.4375l-0.45312-0.8125-0.25 0.14062c0.23438 0.5625 0.35938 0.875 0.5 1.3125 0.26562 0.15625 0.67188 0.25 1.0938 0.25 0.67188 0 1.375-0.29688 1.9375-0.76562 0.59375-0.54688 0.92188-1.2188 0.92188-1.9531 0-1.1406-0.8125-1.9375-1.9531-1.9375-0.46875 0-0.82812 0.14062-1.4531 0.5z"/></g><g transform="translate(106.69 369.13)"><path d="m2.625-6.875c-1.5469 0-2.3281 1.2344-2.3281 3.6406 0 1.1719 0.20312 2.1719 0.54688 2.6719 0.35938 0.48438 0.90625 0.76562 1.5312 0.76562 1.5 0 2.2656-1.2969 2.2656-3.8594 0-2.1719-0.65625-3.2188-2.0156-3.2188zm-0.1875 0.35938c0.96875 0 1.3594 0.96875 1.3594 3.3594 0 2.125-0.375 3-1.2969 3-0.96875 0-1.375-1-1.375-3.4375 0-2.0938 0.375-2.9219 1.3125-2.9219z"/></g><g transform="translate(99.22 328.78)"><path d="m2.625-6.875c-1.5469 0-2.3281 1.2344-2.3281 3.6406 0 1.1719 0.20312 2.1719 0.54688 2.6719 0.35938 0.48438 0.90625 0.76562 1.5312 0.76562 1.5 0 2.2656-1.2969 2.2656-3.8594 0-2.1719-0.65625-3.2188-2.0156-3.2188zm-0.1875 0.35938c0.96875 0 1.3594 0.96875 1.3594 3.3594 0 2.125-0.375 3-1.2969 3-0.96875 0-1.375-1-1.375-3.4375 0-2.0938 0.375-2.9219 1.3125-2.9219z"/></g><g transform="translate(104.2 328.78)"><path d="m1.2344-1.1094c-0.29688 0-0.5625 0.28125-0.5625 0.57812s0.26562 0.57812 0.54688 0.57812c0.32812 0 0.60938-0.26562 0.60938-0.57812 0-0.29688-0.28125-0.57812-0.59375-0.57812z"/></g><g transform="translate(106.69 328.78)"><path d="m1.2656-6.0312c1.2812 0.046875 1.8438 0.046875 3.0469 0.046875l0.046875-0.046875c-0.015625-0.17188-0.015625-0.26562-0.015625-0.39062 0-0.14062 0-0.21875 0.015625-0.39062l-0.046875-0.0625c-0.75 0.046875-1.2031 0.0625-1.7344 0.0625-0.54688 0-1-0.015625-1.7344-0.0625l-0.0625 0.0625c0.015625 0.60938 0.03125 1.0469 0.03125 1.3594 0 0.84375-0.03125 1.7969-0.0625 2.25l0.20312 0.046875c0.46875-0.46875 0.73438-0.60938 1.2188-0.60938 0.95312 0 1.5625 0.6875 1.5625 1.7656 0 1.1094-0.64062 1.75-1.7344 1.75-0.53125 0-1.0312-0.17188-1.1719-0.4375l-0.45312-0.8125-0.25 0.14062c0.23438 0.5625 0.35938 0.875 0.5 1.3125 0.26562 0.15625 0.67188 0.25 1.0938 0.25 0.67188 0 1.375-0.29688 1.9375-0.76562 0.59375-0.54688 0.92188-1.2188 0.92188-1.9531 0-1.1406-0.8125-1.9375-1.9531-1.9375-0.46875 0-0.82812 0.14062-1.4531 0.5z"/></g><g transform="translate(106.69 288.56)"><path d="m0.67188-5.5312h0.09375l1.2812-0.57812c0.015625-0.015625 0.03125-0.015625 0.03125-0.015625 0.0625 0 0.078125 0.09375 0.078125 0.32812v4.8438c0 0.51562-0.10938 0.625-0.64062 0.65625l-0.5625 0.03125v0.29688c1.5469-0.03125 1.5469-0.03125 1.6562-0.03125 0.125 0 0.34375 0 0.6875 0.015625 0.10938 0 0.46875 0 0.875 0.015625v-0.29688l-0.51562-0.03125c-0.5625-0.03125-0.65625-0.14062-0.65625-0.65625v-5.9219l-0.14062-0.046875c-0.64062 0.34375-1.3594 0.64062-2.2656 0.95312z"/></g></g><g><g transform="matrix(.35278 0 0 .35278 -75.291 -67.758)" clip-path="url(#clip1)"><path transform="matrix(1 0 0 -1 115.19 446.51)" d="m-0.59961-0.59766v162.59h27.797v-162.59zm1.1953 1.1953h25.406v160.2h-25.406z" color="#000000" color-rendering="auto" dominant-baseline="auto" fill="#f00" image-rendering="auto" shape-rendering="auto" solid-color="#000000" stop-color="#000000" style="font-feature-settings:normal;font-variant-alternates:normal;font-variant-caps:normal;font-variant-east-asian:normal;font-variant-ligatures:normal;font-variant-numeric:normal;font-variant-position:normal;font-variation-settings:normal;inline-size:0;isolation:auto;mix-blend-mode:normal;shape-margin:0;shape-padding:0;text-decoration-color:#000000;text-decoration-line:none;text-decoration-style:solid;text-indent:0;text-orientation:mixed;text-transform:none;white-space:normal"/></g><g transform="matrix(.35278 0 0 .35278 -75.291 -67.758)" clip-path="url(#clip2)"><path transform="matrix(1 0 0 -1 115.19 446.51)" d="m26.002-0.59766v162.59h27.797v-162.59zm1.1953 1.1953h25.406v160.2h-25.406z" color="#000000" color-rendering="auto" dominant-baseline="auto" fill="#f00" image-rendering="auto" shape-rendering="auto" solid-color="#000000" stop-color="#000000" style="font-feature-settings:normal;font-variant-alternates:normal;font-variant-caps:normal;font-variant-east-asian:normal;font-variant-ligatures:normal;font-variant-numeric:normal;font-variant-position:normal;font-variation-settings:normal;inline-size:0;isolation:auto;mix-blend-mode:normal;shape-margin:0;shape-padding:0;text-decoration-color:#000000;text-decoration-line:none;text-decoration-style:solid;text-indent:0;text-orientation:mixed;text-transform:none;white-space:normal"/></g><g transform="matrix(.35278 0 0 .35278 -75.291 -67.758)" clip-path="url(#clip3)"><path transform="matrix(1 0 0 -1 115.19 446.51)" d="m52.604-0.59766v162.59h27.797v-162.59zm1.1953 1.1953h25.406v160.2h-25.406z" color="#000000" color-rendering="auto" dominant-baseline="auto" fill="#f00" image-rendering="auto" shape-rendering="auto" solid-color="#000000" stop-color="#000000" style="font-feature-settings:normal;font-variant-alternates:normal;font-variant-caps:normal;font-variant-east-asian:normal;font-variant-ligatures:normal;font-variant-numeric:normal;font-variant-position:normal;font-variation-settings:normal;inline-size:0;isolation:auto;mix-blend-mode:normal;shape-margin:0;shape-padding:0;text-decoration-color:#000000;text-decoration-line:none;text-decoration-style:solid;text-indent:0;text-orientation:mixed;text-transform:none;white-space:normal"/></g><g transform="matrix(.35278 0 0 .35278 -75.291 -67.758)" clip-path="url(#clip4)"><path transform="matrix(1 0 0 -1 115.19 446.51)" d="m79.205-0.59766v162.59h27.793v-162.59zm1.1953 1.1953h25.402v160.2h-25.402z" color="#000000" color-rendering="auto" dominant-baseline="auto" fill="#f00" image-rendering="auto" shape-rendering="auto" solid-color="#000000" stop-color="#000000" style="font-feature-settings:normal;font-variant-alternates:normal;font-variant-caps:normal;font-variant-east-asian:normal;font-variant-ligatures:normal;font-variant-numeric:normal;font-variant-position:normal;font-variation-settings:normal;inline-size:0;isolation:auto;mix-blend-mode:normal;shape-margin:0;shape-padding:0;text-decoration-color:#000000;text-decoration-line:none;text-decoration-style:solid;text-indent:0;text-orientation:mixed;text-transform:none;white-space:normal"/></g><g transform="matrix(.35278 0 0 .35278 -75.291 -67.758)" clip-path="url(#clip5)"><path transform="matrix(1 0 0 -1 115.19 446.51)" d="m105.8-0.59766v162.59h27.797v-162.59zm1.1953 1.1953h25.406v160.2h-25.406z" color="#000000" color-rendering="auto" dominant-baseline="auto" fill="#f00" image-rendering="auto" shape-rendering="auto" solid-color="#000000" stop-color="#000000" style="font-feature-settings:normal;font-variant-alternates:normal;font-variant-caps:normal;font-variant-east-asian:normal;font-variant-ligatures:normal;font-variant-numeric:normal;font-variant-position:normal;font-variation-settings:normal;inline-size:0;isolation:auto;mix-blend-mode:normal;shape-margin:0;shape-padding:0;text-decoration-color:#000000;text-decoration-line:none;text-decoration-style:solid;text-indent:0;text-orientation:mixed;text-transform:none;white-space:normal"/></g><g transform="matrix(.35278 0 0 .35278 -75.291 -67.758)" clip-path="url(#clip6)"><path transform="matrix(1 0 0 -1 115.19 446.51)" d="m132.4-0.59766v162.59h27.797v-162.59zm1.1953 1.1953h25.406v160.2h-25.406z" color="#000000" color-rendering="auto" dominant-baseline="auto" fill="#f00" image-rendering="auto" shape-rendering="auto" solid-color="#000000" stop-color="#000000" style="font-feature-settings:normal;font-variant-alternates:normal;font-variant-caps:normal;font-variant-east-asian:normal;font-variant-ligatures:normal;font-variant-numeric:normal;font-variant-position:normal;font-variation-settings:normal;inline-size:0;isolation:auto;mix-blend-mode:normal;shape-margin:0;shape-padding:0;text-decoration-color:#000000;text-decoration-line:none;text-decoration-style:solid;text-indent:0;text-orientation:mixed;text-transform:none;white-space:normal"/></g><g transform="matrix(.35278 0 0 .35278 -75.291 -67.758)" clip-path="url(#clip7)"><path transform="matrix(1 0 0 -1 115.19 446.51)" d="m159.01-0.59766v162.59h27.797v-162.59zm1.1953 1.1953h25.406v160.2h-25.406z" color="#000000" color-rendering="auto" dominant-baseline="auto" fill="#f00" image-rendering="auto" shape-rendering="auto" solid-color="#000000" stop-color="#000000" style="font-feature-settings:normal;font-variant-alternates:normal;font-variant-caps:normal;font-variant-east-asian:normal;font-variant-ligatures:normal;font-variant-numeric:normal;font-variant-position:normal;font-variation-settings:normal;inline-size:0;isolation:auto;mix-blend-mode:normal;shape-margin:0;shape-padding:0;text-decoration-color:#000000;text-decoration-line:none;text-decoration-style:solid;text-indent:0;text-orientation:mixed;text-transform:none;white-space:normal"/></g><g transform="matrix(.35278 0 0 .35278 -75.291 -67.758)" clip-path="url(#clip8)"><path transform="matrix(1 0 0 -1 115.19 446.51)" d="m185.61-0.59766v162.59h27.793v-162.59zm1.1953 1.1953h25.402v160.2h-25.402z" color="#000000" color-rendering="auto" dominant-baseline="auto" fill="#f00" image-rendering="auto" shape-rendering="auto" solid-color="#000000" stop-color="#000000" style="font-feature-settings:normal;font-variant-alternates:normal;font-variant-caps:normal;font-variant-east-asian:normal;font-variant-ligatures:normal;font-variant-numeric:normal;font-variant-position:normal;font-variation-settings:normal;inline-size:0;isolation:auto;mix-blend-mode:normal;shape-margin:0;shape-padding:0;text-decoration-color:#000000;text-decoration-line:none;text-decoration-style:solid;text-indent:0;text-orientation:mixed;text-transform:none;white-space:normal"/></g><g transform="matrix(.35278 0 0 .35278 -75.291 -67.758)" clip-path="url(#clip9)"><path transform="matrix(1 0 0 -1 115.19 446.51)" d="m212.21-0.59766v162.59h27.797v-162.59zm1.1953 1.1953h25.406v160.2h-25.406z" color="#000000" color-rendering="auto" dominant-baseline="auto" fill="#f00" image-rendering="auto" shape-rendering="auto" solid-color="#000000" stop-color="#000000" style="font-feature-settings:normal;font-variant-alternates:normal;font-variant-caps:normal;font-variant-east-asian:normal;font-variant-ligatures:normal;font-variant-numeric:normal;font-variant-position:normal;font-variation-settings:normal;inline-size:0;isolation:auto;mix-blend-mode:normal;shape-margin:0;shape-padding:0;text-decoration-color:#000000;text-decoration-line:none;text-decoration-style:solid;text-indent:0;text-orientation:mixed;text-transform:none;white-space:normal"/></g><g transform="matrix(.35278 0 0 .35278 -75.291 -67.758)" clip-path="url(#clip10)"><path transform="matrix(1 0 0 -1 115.19 446.51)" d="m238.81-0.59766v162.59h27.797v-162.59zm1.1953 1.1953h25.406v160.2h-25.406z" color="#000000" color-rendering="auto" dominant-baseline="auto" fill="#f00" image-rendering="auto" shape-rendering="auto" solid-color="#000000" stop-color="#000000" style="font-feature-settings:normal;font-variant-alternates:normal;font-variant-caps:normal;font-variant-east-asian:normal;font-variant-ligatures:normal;font-variant-numeric:normal;font-variant-position:normal;font-variation-settings:normal;inline-size:0;isolation:auto;mix-blend-mode:normal;shape-margin:0;shape-padding:0;text-decoration-color:#000000;text-decoration-line:none;text-decoration-style:solid;text-indent:0;text-orientation:mixed;text-transform:none;white-space:normal"/></g><g transform="matrix(.35278 0 0 .35278 -75.291 -67.758)" clip-path="url(#clip11)"><g transform="matrix(1 0 0 -1 115.19 446.51)" fill="#0f0" shape-rendering="auto"><path d="m13.299 1.875e-4v161.39h26.602v-161.39z" color="#000000" color-rendering="auto" dominant-baseline="auto" fill-opacity=".2" image-rendering="auto" solid-color="#000000" stop-color="#000000" style="font-feature-settings:normal;font-variant-alternates:normal;font-variant-caps:normal;font-variant-east-asian:normal;font-variant-ligatures:normal;font-variant-numeric:normal;font-variant-position:normal;font-variation-settings:normal;inline-size:0;isolation:auto;mix-blend-mode:normal;shape-margin:0;shape-padding:0;text-decoration-color:#000000;text-decoration-line:none;text-decoration-style:solid;text-indent:0;text-orientation:mixed;text-transform:none;white-space:normal"/><path d="m13.1-0.19922v161.79h27v-161.79zm0.39844 0.39844h26.203v161h-26.203z" color="#000000" color-rendering="auto" dominant-baseline="auto" image-rendering="auto" solid-color="#000000" stop-color="#000000" style="font-feature-settings:normal;font-variant-alternates:normal;font-variant-caps:normal;font-variant-east-asian:normal;font-variant-ligatures:normal;font-variant-numeric:normal;font-variant-position:normal;font-variation-settings:normal;inline-size:0;isolation:auto;mix-blend-mode:normal;shape-margin:0;shape-padding:0;text-decoration-color:#000000;text-decoration-line:none;text-decoration-style:solid;text-indent:0;text-orientation:mixed;text-transform:none;white-space:normal"/></g></g><g transform="matrix(.35278 0 0 .35278 -75.291 -67.758)" clip-path="url(#clip12)"><path d="m155.09 446.51v-161.39h26.602v161.39z" fill="#0f0" fill-opacity=".2"/></g><g transform="matrix(.35278 0 0 .35278 -75.291 -67.758)" clip-path="url(#clip13)"><path transform="matrix(1 0 0 -1 115.19 446.51)" d="m39.701-0.19922v161.79h27v-161.79zm0.39844 0.39844h26.203v161h-26.203z" color="#000000" color-rendering="auto" dominant-baseline="auto" fill="#0f0" image-rendering="auto" shape-rendering="auto" solid-color="#000000" stop-color="#000000" style="font-feature-settings:normal;font-variant-alternates:normal;font-variant-caps:normal;font-variant-east-asian:normal;font-variant-ligatures:normal;font-variant-numeric:normal;font-variant-position:normal;font-variation-settings:normal;inline-size:0;isolation:auto;mix-blend-mode:normal;shape-margin:0;shape-padding:0;text-decoration-color:#000000;text-decoration-line:none;text-decoration-style:solid;text-indent:0;text-orientation:mixed;text-transform:none;white-space:normal"/></g><g transform="matrix(.35278 0 0 .35278 -75.291 -67.758)" clip-path="url(#clip14)"><g transform="matrix(1 0 0 -1 115.19 446.51)" fill="#0f0" shape-rendering="auto"><path d="m66.502 1.875e-4v161.39h26.602v-161.39z" color="#000000" color-rendering="auto" dominant-baseline="auto" fill-opacity=".2" image-rendering="auto" solid-color="#000000" stop-color="#000000" style="font-feature-settings:normal;font-variant-alternates:normal;font-variant-caps:normal;font-variant-east-asian:normal;font-variant-ligatures:normal;font-variant-numeric:normal;font-variant-position:normal;font-variation-settings:normal;inline-size:0;isolation:auto;mix-blend-mode:normal;shape-margin:0;shape-padding:0;text-decoration-color:#000000;text-decoration-line:none;text-decoration-style:solid;text-indent:0;text-orientation:mixed;text-transform:none;white-space:normal"/><path d="m66.303-0.19922v161.79h27v-161.79zm0.39844 0.39844h26.203v161h-26.203z" color="#000000" color-rendering="auto" dominant-baseline="auto" image-rendering="auto" solid-color="#000000" stop-color="#000000" style="font-feature-settings:normal;font-variant-alternates:normal;font-variant-caps:normal;font-variant-east-asian:normal;font-variant-ligatures:normal;font-variant-numeric:normal;font-variant-position:normal;font-variation-settings:normal;inline-size:0;isolation:auto;mix-blend-mode:normal;shape-margin:0;shape-padding:0;text-decoration-color:#000000;text-decoration-line:none;text-decoration-style:solid;text-indent:0;text-orientation:mixed;text-transform:none;white-space:normal"/></g></g><g transform="matrix(.35278 0 0 .35278 -75.291 -67.758)" clip-path="url(#clip15)"><path d="m208.3 446.51v-161.39h26.598v161.39z" fill="#0f0" fill-opacity=".2"/></g><g transform="matrix(.35278 0 0 .35278 -75.291 -67.758)" clip-path="url(#clip16)"><path transform="matrix(1 0 0 -1 115.19 446.51)" d="m92.904-0.19922v161.79h26.996v-161.79zm0.39844 0.39844h26.199v161h-26.199z" color="#000000" color-rendering="auto" dominant-baseline="auto" fill="#0f0" image-rendering="auto" shape-rendering="auto" solid-color="#000000" stop-color="#000000" style="font-feature-settings:normal;font-variant-alternates:normal;font-variant-caps:normal;font-variant-east-asian:normal;font-variant-ligatures:normal;font-variant-numeric:normal;font-variant-position:normal;font-variation-settings:normal;inline-size:0;isolation:auto;mix-blend-mode:normal;shape-margin:0;shape-padding:0;text-decoration-color:#000000;text-decoration-line:none;text-decoration-style:solid;text-indent:0;text-orientation:mixed;text-transform:none;white-space:normal"/></g><g transform="matrix(.35278 0 0 .35278 -75.291 -67.758)" clip-path="url(#clip17)"><g transform="matrix(1 0 0 -1 115.19 446.51)" fill="#0f0" shape-rendering="auto"><path d="m119.7 1.875e-4v161.39h26.602v-161.39z" color="#000000" color-rendering="auto" dominant-baseline="auto" fill-opacity=".2" image-rendering="auto" solid-color="#000000" stop-color="#000000" style="font-feature-settings:normal;font-variant-alternates:normal;font-variant-caps:normal;font-variant-east-asian:normal;font-variant-ligatures:normal;font-variant-numeric:normal;font-variant-position:normal;font-variation-settings:normal;inline-size:0;isolation:auto;mix-blend-mode:normal;shape-margin:0;shape-padding:0;text-decoration-color:#000000;text-decoration-line:none;text-decoration-style:solid;text-indent:0;text-orientation:mixed;text-transform:none;white-space:normal"/><path d="m119.5-0.19922v161.79h27v-161.79zm0.39844 0.39844h26.203v161h-26.203z" color="#000000" color-rendering="auto" dominant-baseline="auto" image-rendering="auto" solid-color="#000000" stop-color="#000000" style="font-feature-settings:normal;font-variant-alternates:normal;font-variant-caps:normal;font-variant-east-asian:normal;font-variant-ligatures:normal;font-variant-numeric:normal;font-variant-position:normal;font-variation-settings:normal;inline-size:0;isolation:auto;mix-blend-mode:normal;shape-margin:0;shape-padding:0;text-decoration-color:#000000;text-decoration-line:none;text-decoration-style:solid;text-indent:0;text-orientation:mixed;text-transform:none;white-space:normal"/></g></g><g transform="matrix(.35278 0 0 .35278 -75.291 -67.758)" clip-path="url(#clip18)"><g transform="matrix(1 0 0 -1 115.19 446.51)" fill="#0f0" shape-rendering="auto"><path d="m146.3 1.875e-4v161.39h26.602v-161.39z" color="#000000" color-rendering="auto" dominant-baseline="auto" fill-opacity=".2" image-rendering="auto" solid-color="#000000" stop-color="#000000" style="font-feature-settings:normal;font-variant-alternates:normal;font-variant-caps:normal;font-variant-east-asian:normal;font-variant-ligatures:normal;font-variant-numeric:normal;font-variant-position:normal;font-variation-settings:normal;inline-size:0;isolation:auto;mix-blend-mode:normal;shape-margin:0;shape-padding:0;text-decoration-color:#000000;text-decoration-line:none;text-decoration-style:solid;text-indent:0;text-orientation:mixed;text-transform:none;white-space:normal"/><path d="m146.1-0.19922v161.79h27v-161.79zm0.39843 0.39844h26.203v161h-26.203z" color="#000000" color-rendering="auto" dominant-baseline="auto" image-rendering="auto" solid-color="#000000" stop-color="#000000" style="font-feature-settings:normal;font-variant-alternates:normal;font-variant-caps:normal;font-variant-east-asian:normal;font-variant-ligatures:normal;font-variant-numeric:normal;font-variant-position:normal;font-variation-settings:normal;inline-size:0;isolation:auto;mix-blend-mode:normal;shape-margin:0;shape-padding:0;text-decoration-color:#000000;text-decoration-line:none;text-decoration-style:solid;text-indent:0;text-orientation:mixed;text-transform:none;white-space:normal"/></g></g><g transform="matrix(.35278 0 0 .35278 -75.291 -67.758)" clip-path="url(#clip19)"><path d="m288.1 446.51v-161.39h26.602v161.39z" fill="#0f0" fill-opacity=".2"/></g><g transform="matrix(.35278 0 0 .35278 -75.291 -67.758)" clip-path="url(#clip20)"><path transform="matrix(1 0 0 -1 115.19 446.51)" d="m172.71-0.19922v161.79h27v-161.79zm0.39844 0.39844h26.203v161h-26.203z" color="#000000" color-rendering="auto" dominant-baseline="auto" fill="#0f0" image-rendering="auto" shape-rendering="auto" solid-color="#000000" stop-color="#000000" style="font-feature-settings:normal;font-variant-alternates:normal;font-variant-caps:normal;font-variant-east-asian:normal;font-variant-ligatures:normal;font-variant-numeric:normal;font-variant-position:normal;font-variation-settings:normal;inline-size:0;isolation:auto;mix-blend-mode:normal;shape-margin:0;shape-padding:0;text-decoration-color:#000000;text-decoration-line:none;text-decoration-style:solid;text-indent:0;text-orientation:mixed;text-transform:none;white-space:normal"/></g><g transform="matrix(.35278 0 0 .35278 -75.291 -67.758)" clip-path="url(#clip21)"><g transform="matrix(1 0 0 -1 115.19 446.51)" fill="#0f0" shape-rendering="auto"><path d="m199.51 1.875e-4v161.39h26.598v-161.39z" color="#000000" color-rendering="auto" dominant-baseline="auto" fill-opacity=".2" image-rendering="auto" solid-color="#000000" stop-color="#000000" style="font-feature-settings:normal;font-variant-alternates:normal;font-variant-caps:normal;font-variant-east-asian:normal;font-variant-ligatures:normal;font-variant-numeric:normal;font-variant-position:normal;font-variation-settings:normal;inline-size:0;isolation:auto;mix-blend-mode:normal;shape-margin:0;shape-padding:0;text-decoration-color:#000000;text-decoration-line:none;text-decoration-style:solid;text-indent:0;text-orientation:mixed;text-transform:none;white-space:normal"/><path d="m199.31-0.19922v161.79h26.996v-161.79zm0.39844 0.39844h26.199v161h-26.199z" color="#000000" color-rendering="auto" dominant-baseline="auto" image-rendering="auto" solid-color="#000000" stop-color="#000000" style="font-feature-settings:normal;font-variant-alternates:normal;font-variant-caps:normal;font-variant-east-asian:normal;font-variant-ligatures:normal;font-variant-numeric:normal;font-variant-position:normal;font-variation-settings:normal;inline-size:0;isolation:auto;mix-blend-mode:normal;shape-margin:0;shape-padding:0;text-decoration-color:#000000;text-decoration-line:none;text-decoration-style:solid;text-indent:0;text-orientation:mixed;text-transform:none;white-space:normal"/></g></g><g transform="matrix(.35278 0 0 .35278 -75.291 -67.758)" clip-path="url(#clip22)"><path d="m341.3 446.51v-161.39h26.602v161.39z" fill="#0f0" fill-opacity=".2"/></g><g transform="matrix(.35278 0 0 .35278 -75.291 -67.758)" clip-path="url(#clip23)"><path transform="matrix(1 0 0 -1 115.19 446.51)" d="m225.9-0.19922v161.79h27v-161.79zm0.39843 0.39844h26.203v161h-26.203z" color="#000000" color-rendering="auto" dominant-baseline="auto" fill="#0f0" image-rendering="auto" shape-rendering="auto" solid-color="#000000" stop-color="#000000" style="font-feature-settings:normal;font-variant-alternates:normal;font-variant-caps:normal;font-variant-east-asian:normal;font-variant-ligatures:normal;font-variant-numeric:normal;font-variant-position:normal;font-variation-settings:normal;inline-size:0;isolation:auto;mix-blend-mode:normal;shape-margin:0;shape-padding:0;text-decoration-color:#000000;text-decoration-line:none;text-decoration-style:solid;text-indent:0;text-orientation:mixed;text-transform:none;white-space:normal"/></g><g transform="matrix(.35278 0 0 .35278 -75.291 -67.758)" clip-path="url(#clip24)"><path transform="matrix(1 0 0 -1 115.19 446.51)" d="m32.51 4.9746-2.2637 10.615-0.94531 89.844-0.73438-44.891v-0.01563h-0.99609v0.01563l-1.0605 65.814-0.61524-14.559-0.99414-0.01-1.0117 15.873-0.67578-5.1484-1.332-4.4531-1.334-46.541v-0.02539l-0.99609 2e-3v0.02539l-0.82226 34.756-0.85352-38.418v-0.03125l-0.99609-0.0078-0.72852 18.006-0.95117-36.635v-0.02539l-0.99609 2e-3v0.02539l-1.3359 55.227-0.88477 9.1367-1.1855-10.117-1.1719 6.5254-1.1699-21.725-2.2559 2.459-0.76562 9.123-1.0684-18.084-2.0879 5.7734-0.55664 0.24805-1.2305-7.1445-0.98242 0.16797 1.4492 8.4102 2.1133-0.94531 0.58594-1.6211 1.1934 20.211 0.99219 0.0117 1.3223-15.729 0.42578-0.46289 1.5 27.92 1.5-8.3476 1.4863 12.699 1.7871-18.451 0.85547-35.404 0.82422 31.746v0.0332l0.99609 6e-3 0.69336-17.111 0.98242 44.26v0.0234h0.99609v-0.0234l0.88476-37.437 0.79297 27.65 1.3477 4.502 1.3301 10.135 0.99219-0.0332 0.73633-11.574 0.93945 22.217 0.99609-0.0137v-0.0293l0.8418-52.191 0.83789 51.273v0.0137l0.99609-2e-3v-0.0137l1.3359-126.8 0.41016-1.9199 1.2656 80.023v0.01758l0.99609 2e-3v-0.01758l0.9043-42.68 0.77539 28.012 1.3359 40.84v0.0273l0.99609-0.00386v-0.0273l0.72852-29.379 0.94726 59.885v0.0176l0.99609 2e-3v-0.0176l1.3359-68.379 0.76367-31.76 0.91602 51.271 1.3359 49.758v0.0176l0.99609-8e-3v-0.0195l1.1934-126.31 0.48242 8.5781 1.3359 80.318 0.99414 0.0312 1.3418-17.525 1.3359-59.316 0.72656-9.082 0.94922 18.777 0.99609-0.0039 0.60156-14.08 1.0781 70.414 0.99414 0.0352 1.0293-11.797 0.65039 3.3125 1.334 33.246 0.99609 6e-3 1.3359-26.311 1.2676-48.578 0.41406 1.2207 1.334 57.953v0.0293l0.99609 6e-3 1.3359-36.244 0.5293-3.5703 1.2656 36.533 1.6523-6.3965 1.6191 8.2695 1.6172-21.049 1.0332-24.027 0.6582 6.6758 1.502 1.9844 1.1973 0.54688 1.5723 12.502 2.0039-5.9199 0.7832-1.002 1.5156 3.2363 1.3672-3.918 0.74805 1.373 1.502 19.357 2.1504-5.7129 1.0059-16.24 0.90039 7.4219 1.7578-3.9414 1.6406 1.8086 0.73438-18.256 1.0117 47.209 2.2207-1.8262 1.4219-3.0527 1.1582-16.791 1.4199 4.6582 1.4356-41.918 0.56054-2.8867 1.1211 21.137 1.3359 69.215v0.0156l0.99609-2e-3v-0.0176l0.96875-69.656 0.70898 29.727 1.3398 7.0703 1.334 33.764 0.99609-4e-3 0.8379-26.332 0.83789 26.48 0.99609 0.01 1.3359-25.969 0.80859-49.359 0.87109 59.652v0.0176l0.9961 2e-3v-0.0176l1.3359-70.855 1.2832-46.457 0.39453 0.73438 1.334 111.55v0.0195l0.99609 0.01v-0.0215l1.3398-45.57 0.68164-5.8672 1.0996 18.174 2.2227-4.1016 0.85742-31.471 0.82617 28.479 1.3359 25.549 0.99219 0.041 0.55859-4.2266 1.1211 30.768 0.9961-4e-3v-0.0312l0.96289-35.246 0.86328 18.867 2.1856-8.3633 1.2676-78.912 0.41015 1.8281 1.3359 40.156 1.3359 6.4473 1.3379 26.465 0.99218 0.0332 1.3398-11.389 0.78906-27.326 0.88672 37.371 0.99609 0.0254 1.3359-17.771 1-27.371 0.68164 9.623 1.334 27.137 0.99414 0.02539 1.2285-12.252 0.60156 0.62305 1.248 1.1094 1.8223 6.1055 1.7578-7.1914 0.85742-1.6562 0.89649 1.8125 1.4394 3.0117 2.1152 0.44336 1.3047-11.199 0.45117 0.31445 1.3223 26.432 0.99609-6e-3 1.1856-31.332 0.57617 2.668 2.166 0.39844 0.60742-3.8789 1.1523 32.729v0.0273l0.9961-8e-3v-0.0274l1.043-52.926 0.63868 13.43 1.3359 9.8027 1.334 55.322v0.0215l0.99609-2e-3v-0.0215l1.1758-59.803 0.50196 4.9121 0.99414-0.03711 0.76562-29.664 0.91407 47.426v0.02344l0.99609 0.0059v-0.02539l1.3359-45.662 0.46289-4.2168 1.2129 79.398v0.0176l0.99609 4e-3v-0.0195l1.332-60.809 0.3711-0.38477 1.3125 67.777 0.99414 0.0352 1.3379-14.881 0.89648-50.5 0.78125 34.799 2.2812 6.043 1.3887-66.504 0.6875-6.9473 0.98829 18.629 0.99609-2e-3 0.66992-12.773 1.0098 38.777 0.99218 0.05664 0.81446-5.6562 0.86523 6.7207 1.3359 67.334v0.0137l0.99609-4e-3v-0.0156l1.0859-111.91 0.58984 20.33 1.3398 45.664v0.02734l0.99609-0.0039v-0.02539l0.77734-34.496 0.89844 51.211v0.0195h0.9961v-0.0176l1.0801-52.982 0.59571 10.109 1.3848 54.365 2.2832-3.8535 1.3398-50.711 0.44922-2.4062 1.2266 53.068v0.0273l0.99609 4e-3v-0.0273l1.3398-44.926 0.70898-11.184 0.9668 25.895 0.99609-0.0039 1.0508-32.193 0.62696 7.6602 0.99219 0.01367 0.56445-5.2168 1.2324 39.479 2.2109-9.1406 0.80664-7.4473 0.87695 9.3809 0.99414-0.01367 1.1582-17.551 0.54687 1.7832 1.4902 4.248 1.9238-0.49414 0.72852-0.80859 1.373 9.2246 2.1211-3.2266 1.041-8.166 0.65626 2.3203 1.332 25.039 0.99609-4e-3 1.3359-27.691 0.72265-9.6504 1.0469 22.828 1.9902-4.0996 0.9043 0.36523 0.37305-0.92383-1.7676-0.71484-0.68359 1.4102-1.2461-27.172-0.99414-0.01367-1.3398 17.908-0.86328 17.898-0.81836-15.344-2.0156-7.125-1.6289 12.779-0.56054 0.85352-1.2988-8.7305-1.9434 2.1523-0.74805 0.19336-1.1797-3.3691-2.1328-6.9473-1.1035 16.725-1.2129-12.994-1.8652 17.205-0.46093 1.9062-1.2246-39.258-0.99219-0.03711-0.77149 7.127-0.91015-11.127-0.99414 0.02539-0.8711 26.67-0.80468-21.559-0.99414-0.01367-1.3379 21.082-0.7793 26.129-1.0098-43.797-2.2207 11.869-1.334 50.531-0.38867 0.65429-1.2949-50.924-1.3359-22.656-0.99609 0.01953-0.80078 39.293-0.875-49.826v-0.01953l-0.9961-0.0039v0.02148l-0.90429 40.148-0.77539-26.469-1.3359-46.039v-0.019531l-0.99609 0.00977v0.017578l-1.0078 103.9-0.66797-33.666-1.8066-14.023-1.0176 7.0742-1.1875-45.598-0.9961-0.01172-0.83984 16.018-0.83594-15.744-0.99414-0.02344-1.3379 13.52-1.2812 61.387-0.40039-1.0586-1.334-59.383v-0.02148l-0.9961 0.0039v0.01953l-1.3359 75.219-0.51757 5.75-1.1816-61.045-2.3086 2.3906-0.75391 34.42-0.92578-60.617-0.99218-0.04687-1.3379 12.211-0.73829 25.201-0.94336-48.996v-0.02344l-0.99609-2e-3v0.02148l-1.1348 43.949-0.54297-5.3066-0.99414 0.04102-0.88868 45.246-0.7871-32.635-1.3379-9.8145-1.3379-28.201-0.99609 0.01367v0.0332l-0.97852 49.598-0.69726-19.826-0.99024-0.05859-1.2559 8.0215-0.50585-0.09375-2.1055-9.7559-1.0566 27.91-0.78125-15.596-2.2207-1.5449-1.3691 11.77-0.56445-0.11914-1.2324-2.5742-1.7734-3.5781-1.8144 3.5078-0.91407 3.7363-0.85156-2.8535-1.4316-1.2734-2.0703-2.1426-0.77734 7.75-1.0078-20.48-1.3359-18.893-0.99609 0.01758-1.3398 36.627-0.57813 7.7031-1.0976-46.209v-0.02539l-0.9961-2e-3v0.02539l-1.334 46.189-0.64063 5.4551-1.043-20.617-1.3359-6.4375-1.3359-40.164-2.2617-10.111-1.4023 87.184-0.4961 1.8945-1.1855-25.943-0.9961 0.0098-0.9082 33.287-0.76758-21.057-0.99219-0.04687-0.62695 4.7344-1.0527-20.135-1.3398-46.146v-0.02734h-0.99609v0.02734l-1.332 48.912-0.44922 0.82812-1.2305-20.326-0.99219-0.02734-1.3379 11.514-0.63476 21.559-1.0488-87.732-2.2774-4.252-1.3887 50.207-0.77539 41.092-0.90429-62.018v-0.01563h-0.9961v0.01563l-1.3359 81.475-0.71875 13.977-0.95703-30.158v-0.0312h-0.99609v0.0312l-0.89258 28.029-0.78516-19.875-1.3379-7.0625-1.3359-56.01v-0.01953l-0.9961 0.0059v0.01758l-0.91797 66.039-0.75781-39.244-1.5508-29.258-2.1191 10.93-1.2363 36.018-1.25-4.1055-1.5156 21.998-1.25 2.6816-0.45898 0.37695-1.3145-61.283v-0.0293l-0.99609-0.0098-1.2871 31.971-1.0312-1.1367-0.91406 2.0508-1.123-9.2539-0.99023 0.0293-1.332 21.523-0.52148 1.3828-1.1699-15.105-1.9238-3.5332-1.3027 3.7305-1.166-2.4902-1.8867 2.4121-0.66797 1.9746-1.1016-8.752-1.4727-0.67188-1.1797-1.5605-1.3223-13.408-0.99414 0.02734-1.334 31.051-1.0547 13.723-1.0547-5.3848-1.0273 3.9785-1.2168-35.113-0.99023-0.05469-1.3398 9.0312-0.72461 19.666-0.95508-41.494-2.2578-6.6465-1.4121 54.141-0.7793 15.35-0.89844-22.369-2.0215-10.299-0.79688 9.1309-1.1914-77.826v-0.0293l-0.99609-0.01367-0.87891 20.557-0.79688-15.736-0.99414-0.01367-1.3379 16.721-1.3359 59.316-0.52148 6.8242-1.1582-69.633-1.3359-23.721-0.99609 0.023437-1.0762 114.02-0.59961-22.322-1.3398-75.012v-0.01953l-0.99609-0.0039v0.02148l-1.3359 55.504-0.78516 40.223-0.89062-56.252v-0.01953l-0.99609-0.0039v0.01953l-0.90625 36.59-0.76953-23.531-1.3398-48.369v-0.02344l-0.99609 0.0039v0.02344l-0.76562 36.131z" color="#000000" color-rendering="auto" dominant-baseline="auto" fill="#00f" image-rendering="auto" shape-rendering="auto" solid-color="#000000" stop-color="#000000" style="font-feature-settings:normal;font-variant-alternates:normal;font-variant-caps:normal;font-variant-east-asian:normal;font-variant-ligatures:normal;font-variant-numeric:normal;font-variant-position:normal;font-variation-settings:normal;inline-size:0;isolation:auto;mix-blend-mode:normal;shape-margin:0;shape-padding:0;text-decoration-color:#000000;text-decoration-line:none;text-decoration-style:solid;text-indent:0;text-orientation:mixed;text-transform:none;white-space:normal"/></g></g><g transform="matrix(.35278 0 0 .35278 -75.291 -67.758)"><g transform="translate(230.55 472.76)"><path d="m0.98438-3.8125v2.875c0 0.73438 0.32812 1.0625 1.0938 1.0625 0.21875 0 0.46875-0.0625 0.53125-0.125l0.46875-0.53125-0.125-0.17188c-0.25 0.14062-0.40625 0.1875-0.59375 0.1875-0.39062 0-0.54688-0.1875-0.54688-0.6875v-2.6094h1.2812l0.09375-0.53125-1.375 0.0625v-0.39062c0-0.40625 0.03125-0.76562 0.10938-1.4062l-0.125-0.10938c-0.23438 0.14062-0.53125 0.28125-0.84375 0.375 0.03125 0.29688 0.046875 0.48438 0.046875 0.78125v0.70312l-0.78125 0.34375v0.21875z"/></g><g transform="translate(233.8 472.76)"><path d="m1.875-4.6406-0.09375-0.03125c-0.5 0.20312-1.0312 0.34375-1.5469 0.40625v0.28125h0.35938c0.40625 0 0.4375 0.0625 0.4375 0.71875v2.25c0 0.625-0.03125 0.70312-0.35938 0.71875l-0.46875 0.03125v0.29688c1-0.03125 1-0.03125 1.25-0.03125s0.25 0 1.25 0.03125v-0.29688l-0.45312-0.03125c-0.34375-0.015625-0.375-0.09375-0.375-0.71875zm-0.45312-2.2031c-0.3125 0-0.5625 0.25-0.5625 0.54688s0.25 0.5625 0.54688 0.5625c0.28125 0 0.5625-0.26562 0.5625-0.5625 0-0.26562-0.28125-0.54688-0.54688-0.54688z"/></g><g transform="translate(236.7 472.76)"><path d="m0.17188-3.9844h0.375c0.40625 0 0.4375 0.0625 0.4375 0.71875v2.25c0 0.625-0.03125 0.70312-0.35938 0.71875l-0.46875 0.03125v0.29688c0.95312-0.03125 0.98438-0.03125 1.2656-0.03125s0.54688 0.015625 1.1875 0.03125v-0.29688l-0.42188-0.03125c-0.32812-0.015625-0.35938-0.09375-0.35938-0.71875v-2.1094c0-0.45312 0.65625-0.9375 1.25-0.9375 0.54688 0 0.90625 0.5 0.90625 1.2656v1.7812c0 0.625-0.03125 0.70312-0.35938 0.71875l-0.46875 0.03125v0.29688c1-0.03125 1-0.03125 1.25-0.03125s0.25 0 1.25 0.03125v-0.29688l-0.46875-0.03125c-0.32812-0.015625-0.35938-0.09375-0.35938-0.71875v-2.1094c0-0.45312 0.65625-0.9375 1.25-0.9375 0.54688 0 0.90625 0.5 0.90625 1.2656v2.8281c0.60938-0.03125 0.625-0.03125 0.79688-0.03125 0.125 0 0.125 0 0.875 0.03125v-0.29688l-0.46875-0.03125c-0.32812-0.015625-0.35938-0.09375-0.35938-0.71875v-2.0625c0-0.98438-0.57812-1.5938-1.5-1.5938-0.34375 0-0.64062 0.09375-0.8125 0.25l-0.76562 0.67188c-0.3125-0.65625-0.71875-0.92188-1.4062-0.92188-0.375 0-0.65625 0.09375-0.82812 0.25l-0.6875 0.64062v-0.85938l-0.09375-0.03125c-0.51562 0.20312-1.0312 0.34375-1.5625 0.40625z"/></g><g transform="translate(245.49 472.76)"><path d="m4.3594-0.70312-0.125-0.09375c-0.64062 0.375-0.875 0.46875-1.2969 0.46875-0.65625 0-1.1875-0.29688-1.4688-0.78125-0.1875-0.32812-0.26562-0.60938-0.28125-1.1875h1.4531c0.6875 0 1.125-0.03125 1.8125-0.14062 0-0.14062 0.015625-0.21875 0.015625-0.34375 0-1.1406-0.73438-1.8906-1.8594-1.8906-0.35938 0-0.79688 0.125-1.2031 0.35938-0.8125 0.46875-1.1406 1.0938-1.1406 2.125 0 0.625 0.14062 1.1719 0.40625 1.5469 0.40625 0.53125 1.0781 0.84375 1.8281 0.84375 0.35938 0 0.73438-0.078125 1.1406-0.26562 0.26562-0.10938 0.46875-0.23438 0.51562-0.29688zm-0.78125-1.9531c-0.51562 0.015625-0.75 0.03125-1.1094 0.03125-0.46875 0-0.71875-0.015625-1.2656-0.0625 0-0.46875 0.046875-0.6875 0.17188-0.95312 0.20312-0.4375 0.64062-0.70312 1.125-0.70312 0.32812 0 0.57812 0.125 0.76562 0.39062 0.21875 0.32812 0.28125 0.625 0.3125 1.2969z"/></g><g transform="translate(253.29 472.76)"><path d="m3.4375 2.4844c0-0.03125 0-0.046875-0.1875-0.21875-1.2969-1.3125-1.625-3.2656-1.625-4.8594 0-1.8125 0.39062-3.6094 1.6719-4.9062 0.14062-0.125 0.14062-0.14062 0.14062-0.17188 0-0.078125-0.046875-0.10938-0.10938-0.10938-0.09375 0-1.0312 0.70312-1.6406 2.0156-0.53125 1.1562-0.65625 2.2969-0.65625 3.1719 0 0.8125 0.10938 2.0625 0.6875 3.2344 0.60938 1.2812 1.5156 1.9531 1.6094 1.9531 0.0625 0 0.10938-0.03125 0.10938-0.10938z"/></g><g transform="translate(257.56 472.76)"><path d="m0.3125-1.4688c-0.046875 0.5-0.10938 0.84375-0.21875 1.3125 0.375 0.17188 0.71875 0.26562 1.0625 0.26562 0.48438 0 0.95312-0.17188 1.4531-0.57812 0.51562-0.40625 0.71875-0.76562 0.71875-1.2656 0-0.53125-0.3125-0.82812-1.0625-0.96875l-0.42188-0.078125c-0.59375-0.10938-0.78125-0.28125-0.78125-0.6875 0-0.53125 0.4375-0.9375 1.0156-0.9375 0.40625 0 0.78125 0.17188 0.9375 0.45312v0.54688h0.23438c0.046875-0.35938 0.078125-0.625 0.1875-1.125-0.39062-0.1875-0.67188-0.28125-1-0.28125-0.51562 0-1.125 0.3125-1.5938 0.78125-0.26562 0.26562-0.375 0.51562-0.375 0.875 0 0.5625 0.3125 0.89062 0.96875 1.0156l0.625 0.10938c0.4375 0.09375 0.59375 0.26562 0.59375 0.65625 0 0.64062-0.45312 1.0781-1.1562 1.0781-0.35938 0-0.65625-0.10938-0.9375-0.34375v-0.82812z"/></g><g transform="translate(261.69 472.76)"><path d="m3-2.5938c0-0.8125-0.10938-2.0625-0.6875-3.2344-0.625-1.2812-1.5156-1.9531-1.625-1.9531-0.046875 0-0.09375 0.046875-0.09375 0.10938 0 0.03125 0 0.046875 0.1875 0.23438 1.0312 1.0312 1.6094 2.6719 1.6094 4.8438 0 1.7812-0.375 3.5938-1.6719 4.9062-0.125 0.125-0.125 0.14062-0.125 0.17188 0 0.0625 0.046875 0.10938 0.09375 0.10938 0.10938 0 1.0469-0.70312 1.6562-2.0156 0.53125-1.1562 0.65625-2.2969 0.65625-3.1719z"/></g><g transform="translate(82.528 388.65)"><path d="m-0.8125-3.2344 0.84375 0.046875c-0.03125-0.64062-0.03125-0.64062-0.03125-0.76562 0-0.046875 0.015625-0.29688 0.03125-0.73438h-0.29688l-0.03125 0.375c0 0.25-0.078125 0.28125-0.57812 0.28125h-1.8125c-1.4531 0-1.9844 0.42188-1.9844 1.5781 0 0.42188 0.10938 0.82812 0.32812 1.2031l0.32812 0.53125h0.64062l0.078125-0.26562-0.3125-0.125c-0.46875-0.20312-0.53125-0.3125-0.53125-0.76562 0-0.9375 0.35938-1.3281 1.2656-1.3594l0.1875 0.98438c0.25 1.3594 0.71875 1.9375 1.5781 1.9375 0.78125 0 1.2344-0.46875 1.2344-1.2656 0-0.17188-0.03125-0.34375-0.078125-0.42188zm-0.42188 0c0.40625 0.29688 0.78125 0.92188 0.78125 1.3125s-0.35938 0.75-0.79688 0.75c-0.35938 0-0.71875-0.20312-0.90625-0.5-0.14062-0.25-0.28125-0.79688-0.39062-1.5625z"/></g><g transform="translate(82.528 383.67)"><path d="m-3.9844-0.17188v-0.375c0-0.40625 0.0625-0.4375 0.71875-0.4375h2.25c0.625 0 0.70312 0.03125 0.71875 0.35938l0.03125 0.46875h0.29688c-0.03125-0.95312-0.03125-0.98438-0.03125-1.2656s0.015625-0.54688 0.03125-1.1875h-0.29688l-0.03125 0.42188c-0.015625 0.32812-0.09375 0.35938-0.71875 0.35938h-2.1094c-0.45312 0-0.9375-0.65625-0.9375-1.25 0-0.54688 0.5-0.90625 1.2656-0.90625h1.7812c0.625 0 0.70312 0.03125 0.71875 0.35938l0.03125 0.46875h0.29688c-0.03125-1-0.03125-1-0.03125-1.25s0-0.25 0.03125-1.25h-0.29688l-0.03125 0.46875c-0.015625 0.32812-0.09375 0.35938-0.71875 0.35938h-2.1094c-0.45312 0-0.9375-0.65625-0.9375-1.25 0-0.54688 0.5-0.90625 1.2656-0.90625h2.8281c-0.03125-0.60938-0.03125-0.625-0.03125-0.79688 0-0.125 0-0.125 0.03125-0.875h-0.29688l-0.03125 0.46875c-0.015625 0.32812-0.09375 0.35938-0.71875 0.35938h-2.0625c-0.98438 0-1.5938 0.57812-1.5938 1.5 0 0.34375 0.09375 0.64062 0.25 0.8125l0.67188 0.76562c-0.65625 0.3125-0.92188 0.71875-0.92188 1.4062 0 0.375 0.09375 0.65625 0.25 0.82812l0.64062 0.6875h-0.85938l-0.03125 0.09375c0.20312 0.51562 0.34375 1.0312 0.40625 1.5625z"/></g><g transform="translate(82.528 374.87)"><path d="m-3.9844-0.09375v-0.375c0-0.40625 0.0625-0.4375 0.71875-0.4375h5.0156c0.625 0 0.70312 0.03125 0.71875 0.375l0.03125 0.45312h0.29688c-0.03125-1-0.03125-1-0.03125-1.25s0-0.25 0.03125-1.25h-0.29688l-0.03125 0.46875c-0.015625 0.32812-0.09375 0.35938-0.71875 0.35938h-1.875c0.17188-0.29688 0.25-0.60938 0.25-1.0625 0-0.28125-0.0625-0.54688-0.17188-0.70312l-0.73438-1.1406c-0.25-0.39062-1.2812-0.85938-1.9219-0.85938-1.1094 0-1.9688 0.90625-1.9688 2.0625 0 0.375 0.09375 0.73438 0.25 0.89062l0.75 0.8125h-0.96875l-0.03125 0.09375c0.20312 0.51562 0.34375 1.0312 0.40625 1.5625zm0.9375-1.6562c-0.14062 0-0.25-0.046875-0.42188-0.17188-0.375-0.29688-0.5625-0.70312-0.5625-1.2031 0-0.9375 0.65625-1.5312 1.7031-1.5312 1.1094 0 1.9375 0.67188 1.9375 1.5625 0 0.54688-0.17188 0.95312-0.59375 1.3438z"/></g><g transform="translate(82.528 368.88)"><path d="m-6.5938-0.23438v-0.54688c0-0.1875 0.10938-0.25 0.40625-0.25h5.1719c0.625 0 0.70312 0.03125 0.71875 0.35938l0.03125 0.46875h0.29688c-0.03125-1-0.03125-1-0.03125-1.25s0-0.25 0.03125-1.25h-0.29688l-0.03125 0.45312c-0.015625 0.34375-0.09375 0.375-0.71875 0.375h-6.1406l-0.078125 0.09375c0.17188 0.4375 0.25 0.76562 0.35938 1.5469z"/></g><g transform="translate(82.528 365.99)"><path d="m-4.6406-1.875-0.03125 0.09375c0.20312 0.5 0.34375 1.0312 0.40625 1.5469h0.28125v-0.35938c0-0.40625 0.0625-0.4375 0.71875-0.4375h2.25c0.625 0 0.70312 0.03125 0.71875 0.35938l0.03125 0.46875h0.29688c-0.03125-1-0.03125-1-0.03125-1.25s0-0.25 0.03125-1.25h-0.29688l-0.03125 0.45312c-0.015625 0.34375-0.09375 0.375-0.71875 0.375zm-2.2031 0.45312c0 0.3125 0.25 0.5625 0.54688 0.5625s0.5625-0.25 0.5625-0.54688c0-0.28125-0.26562-0.5625-0.5625-0.5625-0.26562 0-0.54688 0.28125-0.54688 0.54688z"/></g><g transform="translate(82.528 363.09)"><path d="m-3.8125-0.98438h2.875c0.73438 0 1.0625-0.32812 1.0625-1.0938 0-0.21875-0.0625-0.46875-0.125-0.53125l-0.53125-0.46875-0.17188 0.125c0.14062 0.25 0.1875 0.40625 0.1875 0.59375 0 0.39062-0.1875 0.54688-0.6875 0.54688h-2.6094v-1.2812l-0.53125-0.09375 0.0625 1.375h-0.39062c-0.40625 0-0.76562-0.03125-1.4062-0.10938l-0.10938 0.125c0.14062 0.23438 0.28125 0.53125 0.375 0.84375 0.29688-0.03125 0.48438-0.046875 0.78125-0.046875h0.70312l0.34375 0.78125h0.21875z"/></g><g transform="translate(82.528 359.84)"><path d="m-4.6406-5.0156-0.03125 0.09375c0.20312 0.5 0.34375 1.0312 0.40625 1.5469h0.28125v-0.35938c0-0.40625 0.0625-0.4375 0.71875-0.4375h1.625c0.21875 0 0.5 0.14062 0.73438 0.35938 0.28125 0.28125 0.42188 0.60938 0.42188 0.98438 0 0.35938-0.10938 0.64062-0.29688 0.79688-0.17188 0.14062-0.46875 0.20312-0.90625 0.20312h-2.9531l-0.03125 0.09375c0.20312 0.51562 0.34375 1.0312 0.40625 1.5625h0.28125v-0.375c0-0.40625 0.0625-0.4375 0.71875-0.4375h1.6875c0.6875 0 1-0.0625 1.25-0.23438 0.29688-0.23438 0.45312-0.60938 0.45312-1.1719 0-0.45312-0.14062-0.84375-0.39062-1.125l-0.625-0.65625c0.29688 0 0.45312 0 0.92188 0.03125-0.03125-0.67188-0.03125-0.67188-0.03125-0.82812 0-0.14062 0-0.14062 0.03125-0.82812h-0.29688l-0.03125 0.40625c-0.015625 0.34375-0.078125 0.375-0.71875 0.375z"/></g><g transform="translate(82.528 353.83)"><path d="m-4.3594-4.1094c-0.23438 0.5625-0.3125 0.84375-0.3125 1.1875 0 0.26562 0.0625 0.51562 0.1875 0.76562l0.45312 0.875c0.29688 0.5625 1.0312 0.9375 1.875 0.9375 0.79688 0 1.4531-0.28125 1.8594-0.76562 0.28125-0.34375 0.42188-0.79688 0.42188-1.4531 0-0.20312-0.046875-0.42188-0.078125-0.48438l-0.9375-1.0938 0.92188 0.046875c-0.015625-0.48438-0.03125-0.65625-0.03125-0.76562 0-0.078125 0-0.21875 0.015625-0.4375 0-0.0625 0-0.26562 0.015625-0.46875h-0.29688l-0.03125 0.45312c-0.015625 0.34375-0.09375 0.375-0.71875 0.375h-6.1406l-0.078125 0.078125c0.17188 0.4375 0.25 0.76562 0.35938 1.5625h0.28125v-0.5625c0-0.17188 0.10938-0.25 0.40625-0.25zm2.1562 0c0.64062 0 0.75 0.015625 0.98438 0.15625 0.46875 0.28125 0.76562 0.76562 0.76562 1.2344 0 0.875-0.84375 1.5-2.0312 1.5-1.0781 0-1.7188-0.53125-1.7188-1.4375 0-0.375 0.125-0.76562 0.35938-1.125 0.14062-0.20312 0.28125-0.32812 0.35938-0.32812z"/></g><g transform="translate(82.528 347.74)"><path d="m-0.70312-4.3594-0.09375 0.125c0.375 0.64062 0.46875 0.875 0.46875 1.2969 0 0.65625-0.29688 1.1875-0.78125 1.4688-0.32812 0.1875-0.60938 0.26562-1.1875 0.28125v-1.4531c0-0.6875-0.03125-1.125-0.14062-1.8125-0.14062 0-0.21875-0.015625-0.34375-0.015625-1.1406 0-1.8906 0.73438-1.8906 1.8594 0 0.35938 0.125 0.79688 0.35938 1.2031 0.46875 0.8125 1.0938 1.1406 2.125 1.1406 0.625 0 1.1719-0.14062 1.5469-0.40625 0.53125-0.40625 0.84375-1.0781 0.84375-1.8281 0-0.35938-0.078125-0.73438-0.26562-1.1406-0.10938-0.26562-0.23438-0.46875-0.29688-0.51562zm-1.9531 0.78125c0.015625 0.51562 0.03125 0.75 0.03125 1.1094 0 0.46875-0.015625 0.71875-0.0625 1.2656-0.46875 0-0.6875-0.046875-0.95312-0.17188-0.4375-0.20312-0.70312-0.64062-0.70312-1.125 0-0.32812 0.125-0.57812 0.39062-0.76562 0.32812-0.21875 0.625-0.28125 1.2969-0.3125z"/></g></g></g></svg>
