<?xml version="1.0" encoding="UTF-8" standalone="no"?>
<svg
   xmlns:dc="http://purl.org/dc/elements/1.1/"
   xmlns:cc="http://creativecommons.org/ns#"
   xmlns:rdf="http://www.w3.org/1999/02/22-rdf-syntax-ns#"
   xmlns:svg="http://www.w3.org/2000/svg"
   xmlns="http://www.w3.org/2000/svg"
   xmlns:sodipodi="http://sodipodi.sourceforge.net/DTD/sodipodi-0.dtd"
   xmlns:inkscape="http://www.inkscape.org/namespaces/inkscape"
   width="174.35063mm"
   height="63.84594mm"
   viewBox="0 0 174.35063 63.845939"
   version="1.1"
   id="svg8"
   inkscape:version="1.0.2-2 (e86c870879, 2021-01-15)"
   sodipodi:docname="schema_inkscape.svg">
  <defs
     id="defs2">
    <inkscape:perspective
       sodipodi:type="inkscape:persp3d"
       inkscape:vp_x="0 : -84.654061 : 1"
       inkscape:vp_y="0 : 999.99993 : 0"
       inkscape:vp_z="210 : -84.654061 : 1"
       inkscape:persp3d-origin="105 : -134.15406 : 1"
       id="perspective76" />
    <filter
       inkscape:label="Pointillism"
       style="color-interpolation-filters:sRGB"
       inkscape:menu-tooltip="Gives a turbulent pointillist HSL sensitive transparency"
       inkscape:menu="Scatter"
       height="1.2"
       width="1.2"
       y="-0.1"
       x="-0.1"
       id="filter1041">
      <feTurbulence
         seed="50"
         type="fractalNoise"
         baseFrequency="1"
         numOctaves="3"
         result="result1"
         id="feTurbulence1023" />
      <feColorMatrix
         type="luminanceToAlpha"
         in="SourceGraphic"
         result="result0"
         id="feColorMatrix1025" />
      <feColorMatrix
         result="result2"
         values="1 0 0 0 0 0 1 0 0 0 0 0 1 0 0 0 0 0 0.5 0 "
         id="feColorMatrix1027" />
      <feComposite
         result="result3"
         operator="over"
         in="result1"
         in2="result2"
         id="feComposite1029" />
      <feColorMatrix
         result="result91"
         values="1 0 0 0 0 0 1 0 0 0 0 0 1 0 0 0 0 0 5 -3.2"
         id="feColorMatrix1031" />
      <feComposite
         in2="result91"
         operator="arithmetic"
         k1="1.5"
         result="result93"
         id="feComposite1033"
         k2="0"
         k3="0"
         k4="0" />
      <feComposite
         in2="result93"
         in="SourceGraphic"
         operator="out"
         result="result4"
         id="feComposite1035" />
      <feComposite
         in2="result4"
         operator="arithmetic"
         k2="0.5"
         k1="1"
         id="feComposite1037"
         k3="0"
         k4="0" />
      <feDisplacementMap
         scale="15"
         xChannelSelector="R"
         yChannelSelector="A"
         in2="result1"
         result="result92"
         id="feDisplacementMap1039" />
    </filter>
  </defs>
  <sodipodi:namedview
     id="base"
     pagecolor="#ffffff"
     bordercolor="#666666"
     borderopacity="1.0"
     inkscape:pageopacity="0.0"
     inkscape:pageshadow="2"
     inkscape:zoom="1.4"
     inkscape:cx="393.98991"
     inkscape:cy="133.70701"
     inkscape:document-units="mm"
     inkscape:current-layer="layer1"
     inkscape:document-rotation="0"
     showgrid="false"
     fit-margin-top="0"
     fit-margin-left="0"
     fit-margin-right="0"
     fit-margin-bottom="0"
     inkscape:window-width="1440"
     inkscape:window-height="831"
     inkscape:window-x="-9"
     inkscape:window-y="-9"
     inkscape:window-maximized="1" />
  <metadata
     id="metadata5">
    <rdf:RDF>
      <cc:Work
         rdf:about="">
        <dc:format>image/svg+xml</dc:format>
        <dc:type
           rdf:resource="http://purl.org/dc/dcmitype/StillImage" />
        <dc:title></dc:title>
      </cc:Work>
    </rdf:RDF>
  </metadata>
  <g
     inkscape:label="Livello 1"
     inkscape:groupmode="layer"
     id="layer1"
     transform="translate(-50.677695,0.3078744)">
    <rect
       style="fill:none;stroke:#000000;stroke-width:0.264999;stroke-opacity:1"
       id="rect10"
       width="35.718746"
       height="22.489584"
       x="59.342266"
       y="38.55357" />
    <g
       aria-label="sensor"
       id="text14"
       style="font-style:normal;font-weight:normal;font-size:10.5833px;line-height:1.25;font-family:sans-serif;fill:#000000;fill-opacity:1;stroke:none;stroke-width:0.264583">
      <path
         d="m 64.611019,25.361323 q 0,0.790647 -0.656288,1.297075 -0.651121,0.506427 -1.782831,0.506427 -0.640786,0 -1.178219,-0.149861 -0.532266,-0.155029 -0.894,-0.335896 v -1.090369 h 0.05168 q 0.459918,0.346231 1.02319,0.552936 0.563271,0.201537 1.080034,0.201537 0.640785,0 1.002519,-0.206705 0.361734,-0.206705 0.361734,-0.651121 0,-0.341063 -0.19637,-0.516762 -0.196369,-0.1757 -0.754473,-0.299723 -0.206705,-0.04651 -0.542601,-0.10852 -0.330728,-0.06201 -0.604612,-0.134358 -0.759641,-0.201538 -1.080034,-0.58911 -0.315226,-0.392739 -0.315226,-0.961178 0,-0.356566 0.144694,-0.671792 0.149861,-0.315225 0.449584,-0.563271 0.289387,-0.242878 0.733803,-0.382404 0.449583,-0.144694 1.002519,-0.144694 0.516763,0 1.043861,0.129191 0.532265,0.124023 0.883664,0.30489 v 1.038693 h -0.05168 q -0.372069,-0.273885 -0.904335,-0.459919 -0.532266,-0.191202 -1.043861,-0.191202 -0.532265,0 -0.899167,0.206705 -0.366901,0.201537 -0.366901,0.604612 0,0.356566 0.222208,0.537433 0.21704,0.180867 0.702797,0.294555 0.268717,0.06201 0.599445,0.124023 0.335895,0.06201 0.558103,0.113688 0.676959,0.155029 1.043861,0.532265 0.366901,0.382405 0.366902,1.012855 z"
         style="stroke-width:0.264583"
         id="path972" />
      <path
         d="m 70.832842,24.239948 h -4.252957 q 0,0.532266 0.160197,0.930173 0.160196,0.39274 0.439248,0.645953 0.268717,0.248046 0.635618,0.37207 0.372069,0.124023 0.816485,0.124023 0.58911,0 1.183387,-0.232544 0.599444,-0.23771 0.852658,-0.465086 h 0.05168 V 26.6739 q -0.490924,0.206706 -1.002519,0.346231 -0.511595,0.139526 -1.074867,0.139526 -1.4366,0 -2.24275,-0.775144 -0.806149,-0.780311 -0.806149,-2.211744 0,-1.41593 0.769976,-2.247918 0.775144,-0.831987 2.036045,-0.831987 1.167884,0 1.798334,0.682126 0.635618,0.682127 0.635618,1.93786 z M 69.887167,23.49581 q -0.0052,-0.764809 -0.387573,-1.183387 -0.377236,-0.418577 -1.15238,-0.418577 -0.780312,0 -1.245398,0.459918 -0.459919,0.459919 -0.521931,1.142046 z"
         style="stroke-width:0.264583"
         id="path974" />
      <path
         d="m 77.13218,27.025299 h -0.971514 v -3.286611 q 0,-0.397907 -0.04651,-0.744138 -0.04651,-0.351398 -0.170531,-0.547768 -0.129191,-0.217041 -0.372069,-0.320393 -0.242879,-0.10852 -0.630451,-0.10852 -0.397907,0 -0.831988,0.19637 -0.43408,0.196369 -0.831988,0.501259 v 4.309801 H 72.305617 V 21.25306 h 0.971513 v 0.640786 q 0.454752,-0.377237 0.940508,-0.58911 0.485757,-0.211872 0.997352,-0.211872 0.935341,0 1.426265,0.563271 0.490925,0.563271 0.490925,1.622635 z"
         style="stroke-width:0.264583"
         id="path976" />
      <path
         d="m 83.126625,25.361323 q 0,0.790647 -0.656288,1.297075 -0.651121,0.506427 -1.782831,0.506427 -0.640786,0 -1.178219,-0.149861 -0.532266,-0.155029 -0.894,-0.335896 v -1.090369 h 0.05168 q 0.459918,0.346231 1.02319,0.552936 0.563271,0.201537 1.080034,0.201537 0.640785,0 1.002519,-0.206705 0.361734,-0.206705 0.361734,-0.651121 0,-0.341063 -0.19637,-0.516762 -0.19637,-0.1757 -0.754473,-0.299723 -0.206705,-0.04651 -0.542601,-0.10852 -0.330728,-0.06201 -0.604612,-0.134358 -0.759642,-0.201538 -1.080034,-0.58911 -0.315226,-0.392739 -0.315226,-0.961178 0,-0.356566 0.144694,-0.671792 0.149861,-0.315225 0.449583,-0.563271 0.289388,-0.242878 0.733803,-0.382404 0.449584,-0.144694 1.00252,-0.144694 0.516763,0 1.043861,0.129191 0.532265,0.124023 0.883664,0.30489 v 1.038693 h -0.05168 q -0.37207,-0.273885 -0.904335,-0.459919 -0.532266,-0.191202 -1.043861,-0.191202 -0.532265,0 -0.899167,0.206705 -0.366901,0.201537 -0.366901,0.604612 0,0.356566 0.222208,0.537433 0.21704,0.180867 0.702797,0.294555 0.268717,0.06201 0.599445,0.124023 0.335895,0.06201 0.558103,0.113688 0.676959,0.155029 1.043861,0.532265 0.366901,0.382405 0.366901,1.012855 z"
         style="stroke-width:0.264583"
         id="path978" />
      <path
         d="m 89.436299,24.141763 q 0,1.410762 -0.723468,2.227247 -0.723468,0.816486 -1.93786,0.816486 -1.224728,0 -1.948195,-0.816486 -0.7183,-0.816485 -0.7183,-2.227247 0,-1.410762 0.7183,-2.227247 0.723467,-0.821652 1.948195,-0.821652 1.214392,0 1.93786,0.821652 0.723468,0.816485 0.723468,2.227247 z m -1.00252,0 q 0,-1.121375 -0.439248,-1.663975 -0.439248,-0.547769 -1.21956,-0.547769 -0.790647,0 -1.229895,0.547769 -0.434081,0.5426 -0.434081,1.663975 0,1.085202 0.439248,1.648473 0.439249,0.558104 1.224728,0.558104 0.775144,0 1.214392,-0.552936 0.444416,-0.558104 0.444416,-1.653641 z"
         style="stroke-width:0.264583"
         id="path980" />
      <path
         d="m 94.541913,22.312423 h -0.05168 q -0.217041,-0.05168 -0.423746,-0.07235 -0.201537,-0.02584 -0.480589,-0.02584 -0.449584,0 -0.868161,0.201537 -0.418578,0.19637 -0.80615,0.511595 v 4.097928 h -0.97151 V 21.25306 h 0.971514 v 0.852658 q 0.578774,-0.465086 1.018022,-0.656288 0.444416,-0.19637 0.904335,-0.19637 0.253214,0 0.366901,0.0155 0.113688,0.01034 0.341064,0.04651 z"
         style="stroke-width:0.264583"
         id="path982" />
    </g>
    <rect
       style="fill:none;stroke:#000000;stroke-width:0.264999;stroke-opacity:1"
       id="rect16"
       width="39.498512"
       height="10.772322"
       x="57.641365"
       y="18.898809" />
    <g
       aria-label="MCU"
       id="text20"
       style="font-style:normal;font-weight:normal;font-size:10.5833px;line-height:1.25;font-family:sans-serif;fill:#000000;fill-opacity:1;stroke:none;stroke-width:0.264583">
      <path
         d="m 73.086688,53.672619 h -1.02319 V 47.042554 L 69.9241,51.553892 h -0.609779 l -2.123895,-4.511338 v 6.630065 h -0.956011 v -7.694596 h 1.395259 l 2.051548,4.283962 1.984369,-4.283962 h 1.421097 z"
         style="stroke-width:0.264583"
         id="path985" />
      <path
         d="m 81.09651,53.114515 q -0.28422,0.124023 -0.516763,0.232543 -0.227376,0.108521 -0.599445,0.227376 -0.315225,0.09819 -0.687294,0.165364 -0.366902,0.07235 -0.811317,0.07235 -0.837156,0 -1.52445,-0.232543 -0.682127,-0.237711 -1.188555,-0.738971 -0.496092,-0.490925 -0.775144,-1.245398 -0.279051,-0.759641 -0.279051,-1.762161 0,-0.950843 0.268716,-1.700149 0.268717,-0.749306 0.775144,-1.266069 0.490925,-0.501259 1.183387,-0.764808 0.697629,-0.263549 1.54512,-0.263549 0.620115,0 1.235063,0.149861 0.620115,0.149861 1.374589,0.527098 v 1.214392 H 81.019 q -0.635618,-0.532265 -1.260901,-0.775144 -0.625283,-0.242878 -1.338415,-0.242878 -0.583942,0 -1.054196,0.191202 -0.465086,0.186034 -0.831988,0.583942 -0.356566,0.387572 -0.558103,0.981849 -0.19637,0.589109 -0.19637,1.364253 0,0.811318 0.21704,1.395259 0.222208,0.583942 0.568439,0.950844 0.361734,0.382404 0.842323,0.568439 0.485757,0.180867 1.02319,0.180867 0.738971,0 1.384924,-0.253214 0.645954,-0.253214 1.209225,-0.759641 h 0.07235 z"
         style="stroke-width:0.264583"
         id="path987" />
      <path
         d="m 88.336355,50.582378 q 0,0.837156 -0.186034,1.462438 -0.180867,0.620116 -0.599445,1.033526 -0.397907,0.392739 -0.930173,0.573606 -0.532266,0.180867 -1.24023,0.180867 -0.723468,0 -1.260901,-0.191202 -0.537434,-0.191202 -0.904335,-0.563271 -0.418578,-0.423746 -0.604612,-1.02319 -0.180867,-0.599445 -0.180867,-1.472774 v -4.604355 h 1.02319 v 4.656031 q 0,0.625283 0.08268,0.987017 0.08785,0.361734 0.289387,0.656289 0.227375,0.335895 0.614948,0.506427 0.392739,0.170532 0.940508,0.170532 0.552936,0 0.940508,-0.165364 0.387572,-0.170532 0.620115,-0.511595 0.201537,-0.294555 0.284219,-0.671792 0.08785,-0.382404 0.08785,-0.945676 v -4.681869 h 1.02319 z"
         style="stroke-width:0.264583"
         id="path989" />
    </g>
    <path
       style="fill:none;stroke:#000000;stroke-width:0.264583px;stroke-linecap:butt;stroke-linejoin:miter;stroke-opacity:1"
       d="m 77.201635,29.671131 -0.09449,8.787945 -1.228424,-1.133927 1.322917,1.133927 1.13393,-0.944941"
       id="path24" />
    <rect
       style="fill:none;stroke:#000000;stroke-width:0.265112;stroke-miterlimit:4;stroke-dasharray:none;stroke-opacity:1"
       id="rect10-5"
       width="46.113091"
       height="26.080359"
       x="115.75522"
       y="37.32515" />
    <g
       aria-label="access point"
       id="text48"
       style="font-style:normal;font-weight:normal;font-size:10.5833px;line-height:1.25;font-family:sans-serif;fill:#000000;fill-opacity:1;stroke:none;stroke-width:0.264583">
      <path
         d="m 126.50609,46.680061 h -0.96635 v -0.614947 q -0.12919,0.08785 -0.35139,0.248046 -0.21704,0.155029 -0.42375,0.248046 -0.24288,0.118855 -0.5581,0.19637 -0.31523,0.08268 -0.73897,0.08268 -0.78032,0 -1.32292,-0.516763 -0.5426,-0.516763 -0.5426,-1.317745 0,-0.656288 0.27905,-1.059363 0.28422,-0.408243 0.80615,-0.640786 0.5271,-0.232543 1.26607,-0.315225 0.73897,-0.08268 1.58646,-0.124023 V 42.71649 q 0,-0.330729 -0.11885,-0.547769 -0.11369,-0.21704 -0.33073,-0.341063 -0.2067,-0.118856 -0.49609,-0.160197 -0.28939,-0.04134 -0.60461,-0.04134 -0.38241,0 -0.85266,0.103353 -0.47026,0.09819 -0.97152,0.289387 h -0.0517 v -0.987017 q 0.28422,-0.07751 0.82165,-0.170531 0.53743,-0.09302 1.05936,-0.09302 0.60978,0 1.05937,0.103353 0.45475,0.09819 0.78548,0.341063 0.32556,0.237711 0.49609,0.614948 0.17053,0.377237 0.17053,0.93534 z m -0.96635,-1.421097 v -1.607132 q -0.44441,0.02584 -1.04902,0.07751 -0.59945,0.05168 -0.95085,0.149862 -0.41857,0.118855 -0.67696,0.372069 -0.25838,0.248046 -0.25838,0.687294 0,0.496092 0.29972,0.749306 0.29973,0.248046 0.91467,0.248046 0.5116,0 0.93535,-0.19637 0.42374,-0.201537 0.78547,-0.480589 z"
         style="text-align:center;text-anchor:middle;stroke-width:0.264583"
         id="path992" />
      <path
         d="m 132.64523,46.318327 q -0.48576,0.232544 -0.925,0.361734 -0.43408,0.129191 -0.92501,0.129191 -0.62528,0 -1.14721,-0.180867 -0.52193,-0.186034 -0.894,-0.558104 -0.37724,-0.372069 -0.58394,-0.940508 -0.20671,-0.568439 -0.20671,-1.32808 0,-1.41593 0.77515,-2.222079 0.78031,-0.80615 2.05671,-0.80615 0.49609,0 0.97151,0.139526 0.48059,0.139526 0.8785,0.341063 v 1.080034 h -0.0517 q -0.44442,-0.346231 -0.91984,-0.532265 -0.47026,-0.186035 -0.91984,-0.186035 -0.82682,0 -1.30741,0.558104 -0.47542,0.552936 -0.47542,1.627802 0,1.043861 0.46509,1.607132 0.47025,0.558104 1.31774,0.558104 0.29455,0 0.59944,-0.07751 0.30489,-0.07751 0.54777,-0.201537 0.21188,-0.10852 0.39791,-0.227376 0.18603,-0.124023 0.29456,-0.211872 h 0.0517 z"
         style="text-align:center;text-anchor:middle;stroke-width:0.264583"
         id="path994" />
      <path
         d="m 138.15909,46.318327 q -0.48576,0.232544 -0.92501,0.361734 -0.43408,0.129191 -0.925,0.129191 -0.62528,0 -1.14721,-0.180867 -0.52193,-0.186034 -0.894,-0.558104 -0.37724,-0.372069 -0.58395,-0.940508 -0.2067,-0.568439 -0.2067,-1.32808 0,-1.41593 0.77514,-2.222079 0.78032,-0.80615 2.05672,-0.80615 0.49609,0 0.97151,0.139526 0.48059,0.139526 0.8785,0.341063 v 1.080034 h -0.0517 q -0.44441,-0.346231 -0.91983,-0.532265 -0.47026,-0.186035 -0.91984,-0.186035 -0.82682,0 -1.30741,0.558104 -0.47542,0.552936 -0.47542,1.627802 0,1.043861 0.46508,1.607132 0.47026,0.558104 1.31775,0.558104 0.29455,0 0.59944,-0.07751 0.30489,-0.07751 0.54777,-0.201537 0.21187,-0.10852 0.39791,-0.227376 0.18603,-0.124023 0.29455,-0.211872 h 0.0517 z"
         style="text-align:center;text-anchor:middle;stroke-width:0.264583"
         id="path996" />
      <path
         d="m 144.23622,43.894711 h -4.25296 q 0,0.532265 0.1602,0.930172 0.16019,0.39274 0.43925,0.645954 0.26871,0.248046 0.63561,0.372069 0.37207,0.124023 0.81649,0.124023 0.58911,0 1.18338,-0.232543 0.59945,-0.237711 0.85266,-0.465087 h 0.0517 v 1.059364 q -0.49092,0.206705 -1.00252,0.346231 -0.51159,0.139526 -1.07487,0.139526 -1.4366,0 -2.24275,-0.775144 -0.80615,-0.780312 -0.80615,-2.211745 0,-1.415929 0.76998,-2.247917 0.77514,-0.831988 2.03605,-0.831988 1.16788,0 1.79833,0.682127 0.63562,0.682126 0.63562,1.93786 z m -0.94568,-0.744139 q -0.005,-0.764809 -0.38757,-1.183386 -0.37724,-0.418578 -1.15238,-0.418578 -0.78031,0 -1.2454,0.459919 -0.45992,0.459919 -0.52193,1.142045 z"
         style="text-align:center;text-anchor:middle;stroke-width:0.264583"
         id="path998" />
      <path
         d="m 149.83276,45.016086 q 0,0.790646 -0.65629,1.297074 -0.65112,0.506427 -1.78283,0.506427 -0.64079,0 -1.17822,-0.149861 -0.53227,-0.155029 -0.894,-0.335896 v -1.090369 h 0.0517 q 0.45992,0.346231 1.02319,0.552936 0.56327,0.201538 1.08003,0.201538 0.64079,0 1.00252,-0.206705 0.36173,-0.206706 0.36173,-0.651121 0,-0.341064 -0.19637,-0.516763 -0.19637,-0.175699 -0.75447,-0.299722 -0.2067,-0.04651 -0.5426,-0.108521 -0.33073,-0.06201 -0.60461,-0.134358 -0.75964,-0.201537 -1.08004,-0.589109 -0.31522,-0.39274 -0.31522,-0.961179 0,-0.356566 0.14469,-0.671791 0.14986,-0.315226 0.44959,-0.563272 0.28938,-0.242878 0.7338,-0.382404 0.44958,-0.144694 1.00252,-0.144694 0.51676,0 1.04386,0.129191 0.53226,0.124023 0.88366,0.30489 v 1.038693 h -0.0517 q -0.37207,-0.273884 -0.90434,-0.459919 -0.53226,-0.191202 -1.04386,-0.191202 -0.53226,0 -0.89917,0.206705 -0.3669,0.201537 -0.3669,0.604612 0,0.356567 0.22221,0.537434 0.21704,0.180866 0.7028,0.294554 0.26871,0.06201 0.59944,0.124023 0.3359,0.06201 0.55811,0.113688 0.67696,0.155029 1.04386,0.532266 0.3669,0.382404 0.3669,1.012855 z"
         style="text-align:center;text-anchor:middle;stroke-width:0.264583"
         id="path1000" />
      <path
         d="m 155.34662,45.016086 q 0,0.790646 -0.65629,1.297074 -0.65112,0.506427 -1.78283,0.506427 -0.64079,0 -1.17822,-0.149861 -0.53227,-0.155029 -0.894,-0.335896 v -1.090369 h 0.0517 q 0.45992,0.346231 1.02319,0.552936 0.56328,0.201538 1.08004,0.201538 0.64078,0 1.00252,-0.206705 0.36173,-0.206706 0.36173,-0.651121 0,-0.341064 -0.19637,-0.516763 -0.19637,-0.175699 -0.75447,-0.299722 -0.20671,-0.04651 -0.5426,-0.108521 -0.33073,-0.06201 -0.60462,-0.134358 -0.75964,-0.201537 -1.08003,-0.589109 -0.31522,-0.39274 -0.31522,-0.961179 0,-0.356566 0.14469,-0.671791 0.14986,-0.315226 0.44958,-0.563272 0.28939,-0.242878 0.73381,-0.382404 0.44958,-0.144694 1.00252,-0.144694 0.51676,0 1.04386,0.129191 0.53226,0.124023 0.88366,0.30489 v 1.038693 h -0.0517 q -0.37207,-0.273884 -0.90433,-0.459919 -0.53227,-0.191202 -1.04386,-0.191202 -0.53227,0 -0.89917,0.206705 -0.3669,0.201537 -0.3669,0.604612 0,0.356567 0.22221,0.537434 0.21704,0.180866 0.7028,0.294554 0.26871,0.06201 0.59944,0.124023 0.3359,0.06201 0.5581,0.113688 0.67696,0.155029 1.04386,0.532266 0.36691,0.382404 0.36691,1.012855 z"
         style="text-align:center;text-anchor:middle;stroke-width:0.264583"
         id="path1002" />
      <path
         d="m 131.06394,56.953303 q 0,0.702798 -0.20154,1.286739 -0.20154,0.578775 -0.56844,0.98185 -0.34106,0.382404 -0.80615,0.594277 -0.45992,0.206705 -0.97668,0.206705 -0.44958,0 -0.81649,-0.09819 -0.36173,-0.09819 -0.73897,-0.30489 v 2.418449 h -0.97151 v -7.901301 h 0.97151 v 0.604612 q 0.38758,-0.32556 0.86817,-0.542601 0.48575,-0.222208 1.03352,-0.222208 1.04386,0 1.62264,0.790647 0.58394,0.78548 0.58394,2.185906 z m -1.00252,0.02584 q 0,-1.043861 -0.35657,-1.560624 -0.35656,-0.516762 -1.09554,-0.516762 -0.41857,0 -0.84232,0.180866 -0.42374,0.180867 -0.81132,0.475422 v 3.271108 q 0.41341,0.186034 0.70797,0.253214 0.29972,0.06718 0.67696,0.06718 0.81132,0 1.26607,-0.547769 0.45475,-0.547768 0.45475,-1.622634 z"
         style="text-align:center;text-anchor:middle;stroke-width:0.264583"
         id="path1004" />
      <path
         d="m 137.49763,57.02565 q 0,1.410762 -0.72347,2.227247 -0.72346,0.816485 -1.93786,0.816485 -1.22472,0 -1.94819,-0.816485 -0.7183,-0.816485 -0.7183,-2.227247 0,-1.410762 0.7183,-2.227247 0.72347,-0.821653 1.94819,-0.821653 1.2144,0 1.93786,0.821653 0.72347,0.816485 0.72347,2.227247 z m -1.00252,0 q 0,-1.121375 -0.43925,-1.663976 -0.43924,-0.547768 -1.21956,-0.547768 -0.79064,0 -1.22989,0.547768 -0.43408,0.542601 -0.43408,1.663976 0,1.085202 0.43925,1.648473 0.43925,0.558104 1.22472,0.558104 0.77515,0 1.2144,-0.552936 0.44441,-0.558104 0.44441,-1.653641 z"
         style="text-align:center;text-anchor:middle;stroke-width:0.264583"
         id="path1006" />
      <path
         d="m 140.04527,53.170601 h -1.09553 v -1.007688 h 1.09553 z m -0.062,6.738585 h -0.97151 v -5.772239 h 0.97151 z"
         style="text-align:center;text-anchor:middle;stroke-width:0.264583"
         id="path1008" />
      <path
         d="m 146.73218,59.909186 h -0.97151 v -3.286611 q 0,-0.397907 -0.0465,-0.744138 -0.0465,-0.351399 -0.17053,-0.547768 -0.12919,-0.217041 -0.37207,-0.320393 -0.24288,-0.10852 -0.63045,-0.10852 -0.39791,0 -0.83199,0.196369 -0.43408,0.19637 -0.83199,0.50126 v 4.309801 h -0.97151 v -5.772239 h 0.97151 v 0.640785 q 0.45475,-0.377236 0.94051,-0.589109 0.48576,-0.211873 0.99735,-0.211873 0.93534,0 1.42627,0.563272 0.49092,0.563271 0.49092,1.622634 z"
         style="text-align:center;text-anchor:middle;stroke-width:0.264583"
         id="path1010" />
      <path
         d="m 151.60009,59.85751 q -0.27389,0.07235 -0.59945,0.118855 -0.32039,0.04651 -0.57361,0.04651 -0.88366,0 -1.34358,-0.475422 -0.45992,-0.475422 -0.45992,-1.52445 v -3.06957 h -0.65629 v -0.816485 h 0.65629 V 52.47814 h 0.97152 v 1.658808 h 2.00504 v 0.816485 h -2.00504 v 2.630322 q 0,0.454751 0.0207,0.713132 0.0207,0.253214 0.14469,0.475422 0.11369,0.206705 0.31006,0.30489 0.20154,0.09302 0.60978,0.09302 0.23771,0 0.49609,-0.06718 0.25838,-0.07235 0.37207,-0.118855 h 0.0517 z"
         style="text-align:center;text-anchor:middle;stroke-width:0.264583"
         id="path1012" />
    </g>
    <path
       style="fill:none;stroke:#000000;stroke-width:0.264582px;stroke-linecap:butt;stroke-linejoin:miter;stroke-opacity:1"
       d="m 95.004048,50.38444 20.685622,0.05264 -2.6552,1.233806 2.65414,-1.328295 -2.23686,-1.129417"
       id="path24-0" />
    <rect
       style="fill:none;stroke:#000000;stroke-width:0.264999;stroke-opacity:1"
       id="rect92"
       width="42.144344"
       height="25.513393"
       x="182.75148"
       y="37.608631" />
    <g
       aria-label="rest server"
       id="text96"
       style="font-style:normal;font-weight:normal;font-size:10.5833px;line-height:1.25;font-family:sans-serif;fill:#000000;fill-opacity:1;stroke:none;stroke-width:0.264583">
      <path
         d="m 198.10883,42.345161 h -0.0517 q -0.21704,-0.05168 -0.42375,-0.07235 -0.20154,-0.02584 -0.48059,-0.02584 -0.44958,0 -0.86816,0.201538 -0.41858,0.19637 -0.80615,0.511595 v 4.097928 H 194.507 v -5.772239 h 0.97151 v 0.852658 q 0.57878,-0.465086 1.01802,-0.656288 0.44442,-0.19637 0.90434,-0.19637 0.25321,0 0.3669,0.0155 0.11369,0.01033 0.34106,0.04651 z"
         style="text-align:center;text-anchor:middle;stroke-width:0.264583"
         id="path1024" />
      <path
         d="m 203.85523,44.272686 h -4.25295 q 0,0.532266 0.16019,0.930173 0.1602,0.392739 0.43925,0.645953 0.26872,0.248046 0.63562,0.372069 0.37207,0.124023 0.81649,0.124023 0.5891,0 1.18338,-0.232543 0.59945,-0.237711 0.85266,-0.465086 h 0.0517 v 1.059363 q -0.49093,0.206705 -1.00252,0.346231 -0.5116,0.139526 -1.07487,0.139526 -1.4366,0 -2.24275,-0.775144 -0.80615,-0.780312 -0.80615,-2.211744 0,-1.41593 0.76998,-2.247918 0.77514,-0.831988 2.03604,-0.831988 1.16789,0 1.79834,0.682127 0.63561,0.682127 0.63561,1.93786 z m -0.94567,-0.744138 q -0.005,-0.764809 -0.38757,-1.183387 -0.37724,-0.418578 -1.15238,-0.418578 -0.78032,0 -1.2454,0.459919 -0.45992,0.459919 -0.52193,1.142046 z"
         style="text-align:center;text-anchor:middle;stroke-width:0.264583"
         id="path1026" />
      <path
         d="m 209.45177,45.394061 q 0,0.790647 -0.65628,1.297074 -0.65113,0.506428 -1.78284,0.506428 -0.64078,0 -1.17821,-0.149861 -0.53227,-0.155029 -0.894,-0.335896 v -1.090369 h 0.0517 q 0.45992,0.346231 1.02319,0.552936 0.56327,0.201537 1.08004,0.201537 0.64078,0 1.00252,-0.206705 0.36173,-0.206705 0.36173,-0.651121 0,-0.341063 -0.19637,-0.516763 -0.19637,-0.175699 -0.75447,-0.299722 -0.20671,-0.04651 -0.5426,-0.10852 -0.33073,-0.06201 -0.60462,-0.134358 -0.75964,-0.201538 -1.08003,-0.58911 -0.31523,-0.39274 -0.31523,-0.961178 0,-0.356567 0.1447,-0.671792 0.14986,-0.315225 0.44958,-0.563271 0.28939,-0.242879 0.7338,-0.382405 0.44959,-0.144693 1.00252,-0.144693 0.51677,0 1.04386,0.12919 0.53227,0.124023 0.88367,0.30489 v 1.038693 h -0.0517 q -0.37207,-0.273884 -0.90433,-0.459918 -0.53227,-0.191203 -1.04386,-0.191203 -0.53227,0 -0.89917,0.206706 -0.3669,0.201537 -0.3669,0.604612 0,0.356566 0.22221,0.537433 0.21704,0.180867 0.70279,0.294555 0.26872,0.06201 0.59945,0.124023 0.33589,0.06201 0.5581,0.113688 0.67696,0.155028 1.04386,0.532265 0.3669,0.382405 0.3669,1.012855 z"
         style="text-align:center;text-anchor:middle;stroke-width:0.264583"
         id="path1028" />
      <path
         d="m 213.83909,47.006361 q -0.27388,0.07235 -0.59944,0.118855 -0.3204,0.04651 -0.57361,0.04651 -0.88366,0 -1.34358,-0.475422 -0.45992,-0.475422 -0.45992,-1.52445 v -3.06957 h -0.65629 v -0.816485 h 0.65629 V 39.62699 h 0.97151 v 1.658808 h 2.00504 v 0.816485 h -2.00504 v 2.630322 q 0,0.454751 0.0207,0.713132 0.0207,0.253214 0.1447,0.475422 0.11368,0.206705 0.31005,0.30489 0.20154,0.09302 0.60978,0.09302 0.23771,0 0.4961,-0.06718 0.25838,-0.07235 0.37206,-0.118855 h 0.0517 z"
         style="text-align:center;text-anchor:middle;stroke-width:0.264583"
         id="path1030" />
      <path
         d="m 192.22032,58.623186 q 0,0.790646 -0.65629,1.297074 -0.65112,0.506427 -1.78283,0.506427 -0.64078,0 -1.17822,-0.149861 -0.53226,-0.155029 -0.894,-0.335896 v -1.090369 h 0.0517 q 0.45992,0.346231 1.02319,0.552936 0.56327,0.201538 1.08004,0.201538 0.64078,0 1.00251,-0.206705 0.36174,-0.206706 0.36174,-0.651121 0,-0.341064 -0.19637,-0.516763 -0.19637,-0.175699 -0.75447,-0.299722 -0.20671,-0.04651 -0.54261,-0.108521 -0.33072,-0.06201 -0.60461,-0.134358 -0.75964,-0.201537 -1.08003,-0.589109 -0.31523,-0.39274 -0.31523,-0.961179 0,-0.356566 0.1447,-0.671791 0.14986,-0.315226 0.44958,-0.563272 0.28939,-0.242878 0.7338,-0.382404 0.44959,-0.144694 1.00252,-0.144694 0.51677,0 1.04386,0.129191 0.53227,0.124023 0.88367,0.30489 v 1.038693 h -0.0517 q -0.37207,-0.273884 -0.90433,-0.459919 -0.53227,-0.191202 -1.04386,-0.191202 -0.53227,0 -0.89917,0.206705 -0.3669,0.201537 -0.3669,0.604612 0,0.356567 0.22221,0.537434 0.21704,0.180867 0.70279,0.294554 0.26872,0.06201 0.59945,0.124023 0.33589,0.06201 0.5581,0.113688 0.67696,0.155029 1.04386,0.532266 0.3669,0.382404 0.3669,1.012855 z"
         style="text-align:center;text-anchor:middle;stroke-width:0.264583"
         id="path1032" />
      <path
         d="m 198.44215,57.501811 h -4.25296 q 0,0.532265 0.1602,0.930172 0.16019,0.39274 0.43924,0.645954 0.26872,0.248046 0.63562,0.372069 0.37207,0.124023 0.81649,0.124023 0.58911,0 1.18338,-0.232543 0.59945,-0.237711 0.85266,-0.465087 h 0.0517 v 1.059364 q -0.49093,0.206705 -1.00252,0.346231 -0.5116,0.139526 -1.07487,0.139526 -1.4366,0 -2.24275,-0.775144 -0.80615,-0.780312 -0.80615,-2.211745 0,-1.415929 0.76998,-2.247917 0.77514,-0.831988 2.03604,-0.831988 1.16789,0 1.79834,0.682127 0.63562,0.682126 0.63562,1.93786 z m -0.94568,-0.744139 q -0.005,-0.764809 -0.38757,-1.183386 -0.37724,-0.418578 -1.15238,-0.418578 -0.78031,0 -1.2454,0.459919 -0.45992,0.459919 -0.52193,1.142045 z"
         style="text-align:center;text-anchor:middle;stroke-width:0.264583"
         id="path1034" />
      <path
         d="m 203.51676,55.574286 h -0.0517 q -0.21704,-0.05168 -0.42375,-0.07235 -0.20153,-0.02584 -0.48059,-0.02584 -0.44958,0 -0.86816,0.201537 -0.41857,0.19637 -0.80615,0.511595 v 4.097928 h -0.97151 v -5.772239 h 0.97151 v 0.852659 q 0.57878,-0.465087 1.01803,-0.656289 0.44441,-0.19637 0.90433,-0.19637 0.25321,0 0.3669,0.0155 0.11369,0.01033 0.34107,0.04651 z"
         style="text-align:center;text-anchor:middle;stroke-width:0.264583"
         id="path1036" />
      <path
         d="m 209.42335,54.514922 -2.33576,5.772239 h -0.97669 l -2.32026,-5.772239 h 1.0542 l 1.788,4.59402 1.77249,-4.59402 z"
         style="text-align:center;text-anchor:middle;stroke-width:0.264583"
         id="path1038" />
      <path
         d="m 215.4333,57.501811 h -4.25295 q 0,0.532265 0.16019,0.930172 0.1602,0.39274 0.43925,0.645954 0.26872,0.248046 0.63562,0.372069 0.37207,0.124023 0.81648,0.124023 0.58911,0 1.18339,-0.232543 0.59944,-0.237711 0.85266,-0.465087 h 0.0517 v 1.059364 q -0.49092,0.206705 -1.00252,0.346231 -0.51159,0.139526 -1.07486,0.139526 -1.4366,0 -2.24275,-0.775144 -0.80615,-0.780312 -0.80615,-2.211745 0,-1.415929 0.76998,-2.247917 0.77514,-0.831988 2.03604,-0.831988 1.16788,0 1.79833,0.682127 0.63562,0.682126 0.63562,1.93786 z m -0.94567,-0.744139 q -0.005,-0.764809 -0.38758,-1.183386 -0.37723,-0.418578 -1.15238,-0.418578 -0.78031,0 -1.24539,0.459919 -0.45992,0.459919 -0.52193,1.142045 z"
         style="text-align:center;text-anchor:middle;stroke-width:0.264583"
         id="path1040" />
      <path
         d="m 220.50791,55.574286 h -0.0517 q -0.21704,-0.05168 -0.42375,-0.07235 -0.20154,-0.02584 -0.48059,-0.02584 -0.44958,0 -0.86816,0.201537 -0.41858,0.19637 -0.80615,0.511595 v 4.097928 h -0.97151 v -5.772239 h 0.97151 v 0.852659 q 0.57878,-0.465087 1.01802,-0.656289 0.44442,-0.19637 0.90434,-0.19637 0.25321,0 0.3669,0.0155 0.11369,0.01033 0.34106,0.04651 z"
         style="text-align:center;text-anchor:middle;stroke-width:0.264583"
         id="path1042" />
    </g>
    <path
       style="fill:none;stroke:#000000;stroke-width:0.264582px;stroke-linecap:butt;stroke-linejoin:miter;stroke-opacity:1"
       d="m 161.86775,50.401291 20.68562,0.05264 -2.6552,1.233806 2.65414,-1.328295 -2.23686,-1.129417"
       id="path24-0-4" />
    <g
       aria-label="WiFi"
       id="text945"
       style="font-style:normal;font-weight:normal;font-size:6.96845px;line-height:1.25;font-family:sans-serif;fill:#000000;fill-opacity:1;stroke:none;stroke-width:0.264583">
      <path
         d="m 104.88084,44.69394 -1.3168,5.066417 h -0.75877 l -1.065,-4.205569 -1.04118,4.205569 h -0.741764 l -1.34061,-5.066417 h 0.690721 l 1.065003,4.212373 1.04799,-4.212373 h 0.68391 l 1.0582,4.253204 1.0582,-4.253204 z"
         style="stroke-width:0.264583"
         id="path1015" />
      <path
         d="m 106.51066,45.323414 h -0.72134 v -0.6635 h 0.72134 z m -0.0408,4.436943 h -0.63968 v -3.800664 h 0.63968 z"
         style="stroke-width:0.264583"
         id="path1017" />
      <path
         d="m 111.02246,45.292791 h -2.56213 v 1.429077 h 2.20146 v 0.598851 h -2.20146 v 2.439638 h -0.6737 V 44.69394 h 3.23583 z"
         style="stroke-width:0.264583"
         id="path1019" />
      <path
         d="m 112.42772,45.323414 h -0.72134 v -0.6635 h 0.72134 z m -0.0408,4.436943 h -0.63968 v -3.800664 h 0.63968 z"
         style="stroke-width:0.264583"
         id="path1021" />
    </g>
    <g
       aria-label="pollutant"
       id="text56"
       style="font-style:normal;font-weight:normal;font-size:10.5833px;line-height:1.25;font-family:sans-serif;fill:#000000;fill-opacity:1;stroke:none;stroke-width:0.264583;filter:url(#filter1041)">
      <path
         d="m 60.331858,5.7940593 q 0,0.7027973 -0.201537,1.2867391 -0.201538,0.5787742 -0.568439,0.9818491 -0.341064,0.3824043 -0.80615,0.594277 -0.459919,0.2067051 -0.976681,0.2067051 -0.449584,0 -0.816485,-0.098185 -0.361734,-0.098185 -0.738971,-0.30489 V 10.879004 H 55.252081 V 2.9777027 h 0.971514 v 0.6046124 q 0.387572,-0.3255605 0.868161,-0.5426009 0.485757,-0.2222079 1.033526,-0.2222079 1.04386,0 1.622634,0.7906469 0.583942,0.7854793 0.583942,2.1859061 z m -1.002519,0.025838 q 0,-1.0438606 -0.356567,-1.5606232 -0.356566,-0.5167627 -1.095537,-0.5167627 -0.418577,0 -0.842323,0.1808669 -0.423745,0.180867 -0.811317,0.4754217 v 3.2711077 q 0.41341,0.1860346 0.707965,0.2532137 0.299722,0.067179 0.676959,0.067179 0.811317,0 1.266068,-0.5477684 0.454752,-0.5477685 0.454752,-1.6226347 z"
         style="stroke-width:0.264583"
         id="path236" />
      <path
         d="m 66.765553,5.8664061 q 0,1.4107621 -0.723467,2.2272471 -0.723468,0.8164851 -1.93786,0.8164851 -1.224728,0 -1.948196,-0.8164851 -0.7183,-0.816485 -0.7183,-2.2272471 0,-1.4107621 0.7183,-2.2272472 0.723468,-0.8216526 1.948196,-0.8216526 1.214392,0 1.93786,0.8216526 0.723467,0.8164851 0.723467,2.2272472 z m -1.002519,0 q 0,-1.121375 -0.439249,-1.6639758 -0.439248,-0.5477685 -1.219559,-0.5477685 -0.790647,0 -1.229896,0.5477685 -0.43408,0.5426008 -0.43408,1.6639758 0,1.0852016 0.439248,1.6484729 0.439248,0.5581037 1.224728,0.5581037 0.775144,0 1.214392,-0.552936 0.444416,-0.5581037 0.444416,-1.6536406 z"
         style="stroke-width:0.264583"
         id="path238" />
      <path
         d="M 69.251182,8.7499418 H 68.279668 V 0.70911456 h 0.971514 z"
         style="stroke-width:0.264583"
         id="path240" />
      <path
         d="M 72.155387,8.7499418 H 71.183874 V 0.70911456 h 0.971513 z"
         style="stroke-width:0.264583"
         id="path242" />
      <path
         d="M 78.862968,8.7499418 H 77.891454 V 8.1091561 q -0.490924,0.387572 -0.940508,0.5942771 -0.449583,0.2067051 -0.992184,0.2067051 -0.909503,0 -1.41593,-0.5529361 Q 74.036405,7.7990985 74.036405,6.7242321 V 2.9777027 h 0.971513 v 3.2866106 q 0,0.4392483 0.04134,0.7544736 0.04134,0.3100576 0.1757,0.5322655 0.139526,0.2273756 0.361734,0.3307281 0.222208,0.1033526 0.645953,0.1033526 0.377237,0 0.821653,-0.1963699 0.449583,-0.1963698 0.837155,-0.5012598 V 2.9777027 h 0.971514 z"
         style="stroke-width:0.264583"
         id="path244" />
      <path
         d="m 83.772212,8.6982656 q -0.273884,0.072347 -0.599445,0.1188554 -0.320393,0.046509 -0.573606,0.046509 -0.883665,0 -1.343583,-0.4754216 Q 80.795659,7.9127863 80.795659,6.8637581 V 3.7941877 H 80.13937 v -0.816485 h 0.656289 V 1.3188945 h 0.971514 v 1.6588082 h 2.005039 v 0.816485 h -2.005039 v 2.6303221 q 0,0.4547511 0.02067,0.7131325 0.02067,0.2532137 0.144694,0.4754216 0.113687,0.2067051 0.310057,0.30489 0.201538,0.093017 0.60978,0.093017 0.237711,0 0.496092,-0.067179 0.258382,-0.072347 0.37207,-0.1188554 h 0.05168 z"
         style="stroke-width:0.264583"
         id="path246" />
      <path
         d="M 89.430765,8.7499418 H 88.464419 V 8.1349942 q -0.129191,0.08785 -0.351399,0.2480461 -0.21704,0.1550288 -0.423745,0.2480461 -0.242879,0.1188554 -0.558104,0.1963698 -0.315225,0.082682 -0.738971,0.082682 -0.780311,0 -1.322912,-0.5167627 -0.542601,-0.5167627 -0.542601,-1.3177448 0,-0.6562887 0.279052,-1.0593635 0.28422,-0.4082426 0.80615,-0.6407858 0.527098,-0.2325432 1.266068,-0.3152252 0.738971,-0.082682 1.586462,-0.124023 V 4.7863721 q 0,-0.3307281 -0.118856,-0.5477684 Q 88.231876,4.0215633 88.014835,3.8975403 87.80813,3.7786849 87.518743,3.7373439 q -0.289387,-0.041341 -0.604612,-0.041341 -0.382405,0 -0.852659,0.1033526 -0.470254,0.098185 -0.971513,0.2893871 h -0.05168 V 3.1017258 q 0.28422,-0.077514 0.821653,-0.1705317 0.537433,-0.093017 1.059363,-0.093017 0.60978,0 1.059364,0.1033525 0.454751,0.098185 0.785479,0.3410634 0.325561,0.2377108 0.496092,0.6149476 0.170532,0.3772367 0.170532,0.9353404 z M 88.464419,7.3288445 v -1.607132 q -0.444416,0.025838 -1.049028,0.077514 -0.599445,0.051676 -0.950844,0.1498612 -0.418578,0.1188554 -0.676959,0.3720691 -0.258381,0.2480461 -0.258381,0.6872944 0,0.4960922 0.299722,0.7493059 0.299722,0.2480461 0.91467,0.2480461 0.511595,0 0.935341,-0.1963698 0.423745,-0.2015375 0.785479,-0.4805889 z"
         style="stroke-width:0.264583"
         id="path248" />
      <path
         d="M 96.128007,8.7499418 H 95.156493 V 5.4633312 q 0,-0.3979073 -0.04651,-0.7441383 -0.04651,-0.3513986 -0.170532,-0.5477684 -0.12919,-0.2170403 -0.372069,-0.3203929 -0.242878,-0.1085201 -0.63045,-0.1085201 -0.397907,0 -0.831988,0.1963698 -0.434081,0.1963698 -0.831988,0.5012598 V 8.7499418 H 91.301443 V 2.9777027 h 0.971514 v 0.6407857 q 0.454751,-0.3772367 0.940508,-0.5891094 0.485757,-0.2118727 0.997352,-0.2118727 0.935341,0 1.426265,0.5632713 0.490925,0.5632713 0.490925,1.6226348 z"
         style="stroke-width:0.264583"
         id="path250" />
      <path
         d="m 100.99591,8.6982656 q -0.27388,0.072347 -0.59944,0.1188554 -0.32039,0.046509 -0.573608,0.046509 -0.883664,0 -1.343583,-0.4754216 Q 98.01936,7.9127863 98.01936,6.8637581 V 3.7941877 H 97.363072 V 2.9777027 H 98.01936 V 1.3188945 h 0.971514 v 1.6588082 h 2.005036 v 0.816485 h -2.005036 v 2.6303221 q 0,0.4547511 0.02067,0.7131325 0.02067,0.2532137 0.144693,0.4754216 0.113688,0.2067051 0.310058,0.30489 0.201537,0.093017 0.609785,0.093017 0.23771,0 0.49609,-0.067179 0.25838,-0.072347 0.37207,-0.1188554 h 0.0517 z"
         style="stroke-width:0.264583"
         id="path252" />
    </g>
    <g
       aria-label="pollutant"
       id="text56-2"
       style="font-style:normal;font-weight:normal;font-size:10.5833px;line-height:1.25;font-family:sans-serif;fill:#000000;fill-opacity:1;stroke:none;stroke-width:0.264583">
      <path
         d="m 60.331858,5.7940593 q 0,0.7027973 -0.201537,1.2867391 -0.201538,0.5787742 -0.568439,0.9818491 -0.341064,0.3824043 -0.80615,0.594277 -0.459919,0.2067051 -0.976681,0.2067051 -0.449584,0 -0.816485,-0.098185 -0.361734,-0.098185 -0.738971,-0.30489 V 10.879004 H 55.252081 V 2.9777027 h 0.971514 v 0.6046124 q 0.387572,-0.3255605 0.868161,-0.5426009 0.485757,-0.2222079 1.033526,-0.2222079 1.04386,0 1.622634,0.7906469 0.583942,0.7854793 0.583942,2.1859061 z m -1.002519,0.025838 q 0,-1.0438606 -0.356567,-1.5606232 -0.356566,-0.5167627 -1.095537,-0.5167627 -0.418577,0 -0.842323,0.1808669 -0.423745,0.180867 -0.811317,0.4754217 v 3.2711077 q 0.41341,0.1860346 0.707965,0.2532137 0.299722,0.067179 0.676959,0.067179 0.811317,0 1.266068,-0.5477684 0.454752,-0.5477685 0.454752,-1.6226347 z"
         style="stroke-width:0.264583"
         id="path236-0" />
      <path
         d="m 66.765553,5.8664061 q 0,1.4107621 -0.723467,2.2272471 -0.723468,0.8164851 -1.93786,0.8164851 -1.224728,0 -1.948196,-0.8164851 -0.7183,-0.816485 -0.7183,-2.2272471 0,-1.4107621 0.7183,-2.2272472 0.723468,-0.8216526 1.948196,-0.8216526 1.214392,0 1.93786,0.8216526 0.723467,0.8164851 0.723467,2.2272472 z m -1.002519,0 q 0,-1.121375 -0.439249,-1.6639758 -0.439248,-0.5477685 -1.219559,-0.5477685 -0.790647,0 -1.229896,0.5477685 -0.43408,0.5426008 -0.43408,1.6639758 0,1.0852016 0.439248,1.6484729 0.439248,0.5581037 1.224728,0.5581037 0.775144,0 1.214392,-0.552936 0.444416,-0.5581037 0.444416,-1.6536406 z"
         style="stroke-width:0.264583"
         id="path238-0" />
      <path
         d="M 69.251182,8.7499418 H 68.279668 V 0.70911456 h 0.971514 z"
         style="stroke-width:0.264583"
         id="path240-0" />
      <path
         d="M 72.155387,8.7499418 H 71.183874 V 0.70911456 h 0.971513 z"
         style="stroke-width:0.264583"
         id="path242-4" />
      <path
         d="M 78.862968,8.7499418 H 77.891454 V 8.1091561 q -0.490924,0.387572 -0.940508,0.5942771 -0.449583,0.2067051 -0.992184,0.2067051 -0.909503,0 -1.41593,-0.5529361 Q 74.036405,7.7990985 74.036405,6.7242321 V 2.9777027 h 0.971513 v 3.2866106 q 0,0.4392483 0.04134,0.7544736 0.04134,0.3100576 0.1757,0.5322655 0.139526,0.2273756 0.361734,0.3307281 0.222208,0.1033526 0.645953,0.1033526 0.377237,0 0.821653,-0.1963699 0.449583,-0.1963698 0.837155,-0.5012598 V 2.9777027 h 0.971514 z"
         style="stroke-width:0.264583"
         id="path244-2" />
      <path
         d="m 83.772212,8.6982656 q -0.273884,0.072347 -0.599445,0.1188554 -0.320393,0.046509 -0.573606,0.046509 -0.883665,0 -1.343583,-0.4754216 Q 80.795659,7.9127863 80.795659,6.8637581 V 3.7941877 H 80.13937 v -0.816485 h 0.656289 V 1.3188945 h 0.971514 v 1.6588082 h 2.005039 v 0.816485 h -2.005039 v 2.6303221 q 0,0.4547511 0.02067,0.7131325 0.02067,0.2532137 0.144694,0.4754216 0.113687,0.2067051 0.310057,0.30489 0.201538,0.093017 0.60978,0.093017 0.237711,0 0.496092,-0.067179 0.258382,-0.072347 0.37207,-0.1188554 h 0.05168 z"
         style="stroke-width:0.264583"
         id="path246-3" />
      <path
         d="M 89.430765,8.7499418 H 88.464419 V 8.1349942 q -0.129191,0.08785 -0.351399,0.2480461 -0.21704,0.1550288 -0.423745,0.2480461 -0.242879,0.1188554 -0.558104,0.1963698 -0.315225,0.082682 -0.738971,0.082682 -0.780311,0 -1.322912,-0.5167627 -0.542601,-0.5167627 -0.542601,-1.3177448 0,-0.6562887 0.279052,-1.0593635 0.28422,-0.4082426 0.80615,-0.6407858 0.527098,-0.2325432 1.266068,-0.3152252 0.738971,-0.082682 1.586462,-0.124023 V 4.7863721 q 0,-0.3307281 -0.118856,-0.5477684 Q 88.231876,4.0215633 88.014835,3.8975403 87.80813,3.7786849 87.518743,3.7373439 q -0.289387,-0.041341 -0.604612,-0.041341 -0.382405,0 -0.852659,0.1033526 -0.470254,0.098185 -0.971513,0.2893871 h -0.05168 V 3.1017258 q 0.28422,-0.077514 0.821653,-0.1705317 0.537433,-0.093017 1.059363,-0.093017 0.60978,0 1.059364,0.1033525 0.454751,0.098185 0.785479,0.3410634 0.325561,0.2377108 0.496092,0.6149476 0.170532,0.3772367 0.170532,0.9353404 z M 88.464419,7.3288445 v -1.607132 q -0.444416,0.025838 -1.049028,0.077514 -0.599445,0.051676 -0.950844,0.1498612 -0.418578,0.1188554 -0.676959,0.3720691 -0.258381,0.2480461 -0.258381,0.6872944 0,0.4960922 0.299722,0.7493059 0.299722,0.2480461 0.91467,0.2480461 0.511595,0 0.935341,-0.1963698 0.423745,-0.2015375 0.785479,-0.4805889 z"
         style="stroke-width:0.264583"
         id="path248-8" />
      <path
         d="M 96.128007,8.7499418 H 95.156493 V 5.4633312 q 0,-0.3979073 -0.04651,-0.7441383 -0.04651,-0.3513986 -0.170532,-0.5477684 -0.12919,-0.2170403 -0.372069,-0.3203929 -0.242878,-0.1085201 -0.63045,-0.1085201 -0.397907,0 -0.831988,0.1963698 -0.434081,0.1963698 -0.831988,0.5012598 V 8.7499418 H 91.301443 V 2.9777027 h 0.971514 v 0.6407857 q 0.454751,-0.3772367 0.940508,-0.5891094 0.485757,-0.2118727 0.997352,-0.2118727 0.935341,0 1.426265,0.5632713 0.490925,0.5632713 0.490925,1.6226348 z"
         style="stroke-width:0.264583"
         id="path250-6" />
      <path
         d="m 100.99591,8.6982656 q -0.27388,0.072347 -0.59944,0.1188554 -0.32039,0.046509 -0.573608,0.046509 -0.883664,0 -1.343583,-0.4754216 Q 98.01936,7.9127863 98.01936,6.8637581 V 3.7941877 H 97.363072 V 2.9777027 H 98.01936 V 1.3188945 h 0.971514 v 1.6588082 h 2.005036 v 0.816485 h -2.005036 v 2.6303221 q 0,0.4547511 0.02067,0.7131325 0.02067,0.2532137 0.144693,0.4754216 0.113688,0.2067051 0.310058,0.30489 0.201537,0.093017 0.609785,0.093017 0.23771,0 0.49609,-0.067179 0.25838,-0.072347 0.37207,-0.1188554 h 0.0517 z"
         style="stroke-width:0.264583"
         id="path252-3" />
    </g>
    <path
       style="fill:none;stroke:#000000;stroke-width:0.264583px;stroke-linecap:butt;stroke-linejoin:miter;stroke-opacity:1"
       d="m 61.15271,12.323924 6.90041,5.442541 -1.64814,0.280032 1.70586,-0.354856 -0.0556,-1.474999"
       id="path24-3" />
    <path
       style="fill:none;stroke:#000000;stroke-width:0.264583px;stroke-linecap:butt;stroke-linejoin:miter;stroke-opacity:1"
       d="m 93.203948,12.489962 -6.90041,5.442541 1.64814,0.280032 -1.70586,-0.354856 0.0556,-1.474999"
       id="path24-3-0" />
  </g>
</svg>
