<svg width="174.35mm" height="63.846mm" version="1.1" viewBox="0 0 174.35 63.846" xmlns="http://www.w3.org/2000/svg"><defs><filter id="filter1041" color-interpolation-filters="sRGB"><feTurbulence baseFrequency="1" numOctaves="3" result="result1" seed="50" type="fractalNoise"/><feColorMatrix in="SourceGraphic" result="result0" type="luminanceToAlpha"/><feColorMatrix result="result2" values="1 0 0 0 0 0 1 0 0 0 0 0 1 0 0 0 0 0 0.5 0 "/><feComposite in="result1" in2="result2" result="result3"/><feColorMatrix result="result91" values="1 0 0 0 0 0 1 0 0 0 0 0 1 0 0 0 0 0 5 -3.2"/><feComposite in2="result91" k1="1.5" operator="arithmetic" result="result93"/><feComposite in="SourceGraphic" in2="result93" operator="out" result="result4"/><feComposite in2="result4" k1="1" k2="0.5" operator="arithmetic"/><feDisplacementMap in2="result1" result="result92" scale="15" xChannelSelector="R"/></filter></defs><g transform="translate(-50.678 .30787)"><rect x="59.342" y="38.554" width="35.719" height="22.49" fill="none" stroke="#000" stroke-width=".265"/><g stroke-width=".26458" aria-label="sensor"><path d="m64.611 25.361q0 0.79065-0.65629 1.2971-0.65112 0.50643-1.7828 0.50643-0.64079 0-1.1782-0.14986-0.53227-0.15503-0.894-0.3359v-1.0904h0.05168q0.45992 0.34623 1.0232 0.55294 0.56327 0.20154 1.08 0.20154 0.64078 0 1.0025-0.2067t0.36173-0.65112q0-0.34106-0.19637-0.51676-0.19637-0.1757-0.75447-0.29972-0.2067-0.04651-0.5426-0.10852-0.33073-0.06201-0.60461-0.13436-0.75964-0.20154-1.08-0.58911-0.31523-0.39274-0.31523-0.96118 0-0.35657 0.14469-0.67179 0.14986-0.31522 0.44958-0.56327 0.28939-0.24288 0.7338-0.3824 0.44958-0.14469 1.0025-0.14469 0.51676 0 1.0439 0.12919 0.53226 0.12402 0.88366 0.30489v1.0387h-0.05168q-0.37207-0.27388-0.90434-0.45992-0.53227-0.1912-1.0439-0.1912-0.53226 0-0.89917 0.2067-0.3669 0.20154-0.3669 0.60461 0 0.35657 0.22221 0.53743 0.21704 0.18087 0.7028 0.29456 0.26872 0.06201 0.59944 0.12402 0.3359 0.06201 0.5581 0.11369 0.67696 0.15503 1.0439 0.53226 0.3669 0.3824 0.3669 1.0129z"/><path d="m70.833 24.24h-4.253q0 0.53227 0.1602 0.93017 0.1602 0.39274 0.43925 0.64595 0.26872 0.24805 0.63562 0.37207 0.37207 0.12402 0.81648 0.12402 0.58911 0 1.1834-0.23254 0.59944-0.23771 0.85266-0.46509h0.05168v1.0594q-0.49092 0.20671-1.0025 0.34623-0.5116 0.13953-1.0749 0.13953-1.4366 0-2.2428-0.77514-0.80615-0.78031-0.80615-2.2117 0-1.4159 0.76998-2.2479 0.77514-0.83199 2.036-0.83199 1.1679 0 1.7983 0.68213 0.63562 0.68213 0.63562 1.9379zm-0.94568-0.74414q-0.0052-0.76481-0.38757-1.1834-0.37724-0.41858-1.1524-0.41858-0.78031 0-1.2454 0.45992-0.45992 0.45992-0.52193 1.142z"/><path d="m77.132 27.025h-0.97151v-3.2866q0-0.39791-0.04651-0.74414-0.04651-0.3514-0.17053-0.54777-0.12919-0.21704-0.37207-0.32039-0.24288-0.10852-0.63045-0.10852-0.39791 0-0.83199 0.19637-0.43408 0.19637-0.83199 0.50126v4.3098h-0.97151v-5.7722h0.97151v0.64079q0.45475-0.37724 0.94051-0.58911 0.48576-0.21187 0.99735-0.21187 0.93534 0 1.4263 0.56327 0.49092 0.56327 0.49092 1.6226z"/><path d="m83.127 25.361q0 0.79065-0.65629 1.2971-0.65112 0.50643-1.7828 0.50643-0.64079 0-1.1782-0.14986-0.53227-0.15503-0.894-0.3359v-1.0904h0.05168q0.45992 0.34623 1.0232 0.55294 0.56327 0.20154 1.08 0.20154 0.64078 0 1.0025-0.2067t0.36173-0.65112q0-0.34106-0.19637-0.51676-0.19637-0.1757-0.75447-0.29972-0.2067-0.04651-0.5426-0.10852-0.33073-0.06201-0.60461-0.13436-0.75964-0.20154-1.08-0.58911-0.31523-0.39274-0.31523-0.96118 0-0.35657 0.14469-0.67179 0.14986-0.31522 0.44958-0.56327 0.28939-0.24288 0.7338-0.3824 0.44958-0.14469 1.0025-0.14469 0.51676 0 1.0439 0.12919 0.53226 0.12402 0.88366 0.30489v1.0387h-0.05168q-0.37207-0.27388-0.90434-0.45992-0.53227-0.1912-1.0439-0.1912-0.53226 0-0.89917 0.2067-0.3669 0.20154-0.3669 0.60461 0 0.35657 0.22221 0.53743 0.21704 0.18087 0.7028 0.29456 0.26872 0.06201 0.59944 0.12402 0.3359 0.06201 0.5581 0.11369 0.67696 0.15503 1.0439 0.53226 0.3669 0.3824 0.3669 1.0129z"/><path d="m89.436 24.142q0 1.4108-0.72347 2.2272-0.72347 0.81649-1.9379 0.81649-1.2247 0-1.9482-0.81649-0.7183-0.81648-0.7183-2.2272t0.7183-2.2272q0.72347-0.82165 1.9482-0.82165 1.2144 0 1.9379 0.82165 0.72347 0.81648 0.72347 2.2272zm-1.0025 0q0-1.1214-0.43925-1.664-0.43925-0.54777-1.2196-0.54777-0.79065 0-1.2299 0.54777-0.43408 0.5426-0.43408 1.664 0 1.0852 0.43925 1.6485 0.43925 0.5581 1.2247 0.5581 0.77514 0 1.2144-0.55294 0.44442-0.5581 0.44442-1.6536z"/><path d="m94.542 22.312h-0.05168q-0.21704-0.05168-0.42375-0.07235-0.20154-0.02584-0.48059-0.02584-0.44958 0-0.86816 0.20154-0.41858 0.19637-0.80615 0.5116v4.0979h-0.97151v-5.7722h0.97151v0.85266q0.57877-0.46509 1.018-0.65629 0.44442-0.19637 0.90434-0.19637 0.25321 0 0.3669 0.0155 0.11369 0.01034 0.34106 0.04651z"/></g><rect x="57.641" y="18.899" width="39.499" height="10.772" fill="none" stroke="#000" stroke-width=".265"/><g stroke-width=".26458" aria-label="MCU"><path d="m73.087 53.673h-1.0232v-6.6301l-2.1394 4.5113h-0.60978l-2.1239-4.5113v6.6301h-0.95601v-7.6946h1.3953l2.0515 4.284 1.9844-4.284h1.4211z"/><path d="m81.097 53.115q-0.28422 0.12402-0.51676 0.23254-0.22738 0.10852-0.59944 0.22738-0.31522 0.09819-0.68729 0.16536-0.3669 0.07235-0.81132 0.07235-0.83716 0-1.5244-0.23254-0.68213-0.23771-1.1886-0.73897-0.49609-0.49092-0.77514-1.2454-0.27905-0.75964-0.27905-1.7622 0-0.95084 0.26872-1.7001 0.26872-0.74931 0.77514-1.2661 0.49092-0.50126 1.1834-0.76481 0.69763-0.26355 1.5451-0.26355 0.62012 0 1.2351 0.14986 0.62012 0.14986 1.3746 0.5271v1.2144h-0.07751q-0.63562-0.53226-1.2609-0.77514-0.62528-0.24288-1.3384-0.24288-0.58394 0-1.0542 0.1912-0.46509 0.18603-0.83199 0.58394-0.35657 0.38757-0.5581 0.98185-0.19637 0.58911-0.19637 1.3643 0 0.81132 0.21704 1.3953 0.22221 0.58394 0.56844 0.95084 0.36173 0.3824 0.84232 0.56844 0.48576 0.18087 1.0232 0.18087 0.73897 0 1.3849-0.25321 0.64595-0.25321 1.2092-0.75964h0.07235z"/><path d="m88.336 50.582q0 0.83716-0.18603 1.4624-0.18087 0.62012-0.59944 1.0335-0.39791 0.39274-0.93017 0.57361t-1.2402 0.18087q-0.72347 0-1.2609-0.1912-0.53743-0.1912-0.90434-0.56327-0.41858-0.42375-0.60461-1.0232-0.18087-0.59944-0.18087-1.4728v-4.6044h1.0232v4.656q0 0.62528 0.08268 0.98702 0.08785 0.36173 0.28939 0.65629 0.22738 0.3359 0.61495 0.50643 0.39274 0.17053 0.94051 0.17053 0.55294 0 0.94051-0.16536 0.38757-0.17053 0.62012-0.5116 0.20154-0.29456 0.28422-0.67179 0.08785-0.3824 0.08785-0.94568v-4.6819h1.0232z"/></g><path d="m77.202 29.671-0.09449 8.7879-1.2284-1.1339 1.3229 1.1339 1.1339-0.94494" fill="none" stroke="#000" stroke-width=".26458px"/><rect x="115.76" y="37.325" width="46.113" height="26.08" fill="none" stroke="#000" stroke-width=".26511"/><g stroke-width=".26458" aria-label="access point"><path d="m126.51 46.68h-0.96635v-0.61495q-0.12919 0.08785-0.35139 0.24805-0.21704 0.15503-0.42375 0.24805-0.24288 0.11886-0.5581 0.19637-0.31523 0.08268-0.73897 0.08268-0.78032 0-1.3229-0.51676t-0.5426-1.3177q0-0.65629 0.27905-1.0594 0.28422-0.40824 0.80615-0.64079 0.5271-0.23254 1.2661-0.31522 0.73897-0.08268 1.5865-0.12402v-0.14986q0-0.33073-0.11885-0.54777-0.11369-0.21704-0.33073-0.34106-0.2067-0.11886-0.49609-0.1602-0.28939-0.04134-0.60461-0.04134-0.38241 0-0.85266 0.10335-0.47026 0.09819-0.97152 0.28939h-0.0517v-0.98702q0.28422-0.07751 0.82165-0.17053 0.53743-0.09302 1.0594-0.09302 0.60978 0 1.0594 0.10335 0.45475 0.09819 0.78548 0.34106 0.32556 0.23771 0.49609 0.61495t0.17053 0.93534zm-0.96635-1.4211v-1.6071q-0.44441 0.02584-1.049 0.07751-0.59945 0.05168-0.95085 0.14986-0.41857 0.11886-0.67696 0.37207-0.25838 0.24805-0.25838 0.68729 0 0.49609 0.29972 0.74931 0.29973 0.24805 0.91467 0.24805 0.5116 0 0.93535-0.19637 0.42374-0.20154 0.78547-0.48059z"/><path d="m132.65 46.318q-0.48576 0.23254-0.925 0.36173-0.43408 0.12919-0.92501 0.12919-0.62528 0-1.1472-0.18087-0.52193-0.18603-0.894-0.5581-0.37724-0.37207-0.58394-0.94051-0.20671-0.56844-0.20671-1.3281 0-1.4159 0.77515-2.2221 0.78031-0.80615 2.0567-0.80615 0.49609 0 0.97151 0.13953 0.48059 0.13953 0.8785 0.34106v1.08h-0.0517q-0.44442-0.34623-0.91984-0.53226-0.47026-0.18604-0.91984-0.18604-0.82682 0-1.3074 0.5581-0.47542 0.55294-0.47542 1.6278 0 1.0439 0.46509 1.6071 0.47025 0.5581 1.3177 0.5581 0.29455 0 0.59944-0.07751t0.54777-0.20154q0.21188-0.10852 0.39791-0.22738 0.18603-0.12402 0.29456-0.21187h0.0517z"/><path d="m138.16 46.318q-0.48576 0.23254-0.92501 0.36173-0.43408 0.12919-0.925 0.12919-0.62528 0-1.1472-0.18087-0.52193-0.18603-0.894-0.5581-0.37724-0.37207-0.58395-0.94051-0.2067-0.56844-0.2067-1.3281 0-1.4159 0.77514-2.2221 0.78032-0.80615 2.0567-0.80615 0.49609 0 0.97151 0.13953 0.48059 0.13953 0.8785 0.34106v1.08h-0.0517q-0.44441-0.34623-0.91983-0.53226-0.47026-0.18604-0.91984-0.18604-0.82682 0-1.3074 0.5581-0.47542 0.55294-0.47542 1.6278 0 1.0439 0.46508 1.6071 0.47026 0.5581 1.3178 0.5581 0.29455 0 0.59944-0.07751t0.54777-0.20154q0.21187-0.10852 0.39791-0.22738 0.18603-0.12402 0.29455-0.21187h0.0517z"/><path d="m144.24 43.895h-4.253q0 0.53226 0.1602 0.93017 0.16019 0.39274 0.43925 0.64595 0.26871 0.24805 0.63561 0.37207 0.37207 0.12402 0.81649 0.12402 0.58911 0 1.1834-0.23254 0.59945-0.23771 0.85266-0.46509h0.0517v1.0594q-0.49092 0.2067-1.0025 0.34623-0.51159 0.13953-1.0749 0.13953-1.4366 0-2.2428-0.77514-0.80615-0.78031-0.80615-2.2117 0-1.4159 0.76998-2.2479 0.77514-0.83199 2.036-0.83199 1.1679 0 1.7983 0.68213 0.63562 0.68213 0.63562 1.9379zm-0.94568-0.74414q-5e-3 -0.76481-0.38757-1.1834-0.37724-0.41858-1.1524-0.41858-0.78031 0-1.2454 0.45992-0.45992 0.45992-0.52193 1.142z"/><path d="m149.83 45.016q0 0.79065-0.65629 1.2971-0.65112 0.50643-1.7828 0.50643-0.64079 0-1.1782-0.14986-0.53227-0.15503-0.894-0.3359v-1.0904h0.0517q0.45992 0.34623 1.0232 0.55294 0.56327 0.20154 1.08 0.20154 0.64079 0 1.0025-0.2067 0.36173-0.20671 0.36173-0.65112 0-0.34106-0.19637-0.51676t-0.75447-0.29972q-0.2067-0.04651-0.5426-0.10852-0.33073-0.06201-0.60461-0.13436-0.75964-0.20154-1.08-0.58911-0.31522-0.39274-0.31522-0.96118 0-0.35657 0.14469-0.67179 0.14986-0.31523 0.44959-0.56327 0.28938-0.24288 0.7338-0.3824 0.44958-0.14469 1.0025-0.14469 0.51676 0 1.0439 0.12919 0.53226 0.12402 0.88366 0.30489v1.0387h-0.0517q-0.37207-0.27388-0.90434-0.45992-0.53226-0.1912-1.0439-0.1912-0.53226 0-0.89917 0.2067-0.3669 0.20154-0.3669 0.60461 0 0.35657 0.22221 0.53743 0.21704 0.18087 0.7028 0.29455 0.26871 0.06201 0.59944 0.12402 0.3359 0.06201 0.55811 0.11369 0.67696 0.15503 1.0439 0.53227 0.3669 0.3824 0.3669 1.0129z"/><path d="m155.35 45.016q0 0.79065-0.65629 1.2971-0.65112 0.50643-1.7828 0.50643-0.64079 0-1.1782-0.14986-0.53227-0.15503-0.894-0.3359v-1.0904h0.0517q0.45992 0.34623 1.0232 0.55294 0.56328 0.20154 1.08 0.20154 0.64078 0 1.0025-0.2067 0.36173-0.20671 0.36173-0.65112 0-0.34106-0.19637-0.51676t-0.75447-0.29972q-0.20671-0.04651-0.5426-0.10852-0.33073-0.06201-0.60462-0.13436-0.75964-0.20154-1.08-0.58911-0.31522-0.39274-0.31522-0.96118 0-0.35657 0.14469-0.67179 0.14986-0.31523 0.44958-0.56327 0.28939-0.24288 0.73381-0.3824 0.44958-0.14469 1.0025-0.14469 0.51676 0 1.0439 0.12919 0.53226 0.12402 0.88366 0.30489v1.0387h-0.0517q-0.37207-0.27388-0.90433-0.45992-0.53227-0.1912-1.0439-0.1912-0.53227 0-0.89917 0.2067-0.3669 0.20154-0.3669 0.60461 0 0.35657 0.22221 0.53743 0.21704 0.18087 0.7028 0.29455 0.26871 0.06201 0.59944 0.12402 0.3359 0.06201 0.5581 0.11369 0.67696 0.15503 1.0439 0.53227 0.36691 0.3824 0.36691 1.0129z"/><path d="m131.06 56.953q0 0.7028-0.20154 1.2867-0.20154 0.57878-0.56844 0.98185-0.34106 0.3824-0.80615 0.59428-0.45992 0.2067-0.97668 0.2067-0.44958 0-0.81649-0.09819-0.36173-0.09819-0.73897-0.30489v2.4184h-0.97151v-7.9013h0.97151v0.60461q0.38758-0.32556 0.86817-0.5426 0.48575-0.22221 1.0335-0.22221 1.0439 0 1.6226 0.79065 0.58394 0.78548 0.58394 2.1859zm-1.0025 0.02584q0-1.0439-0.35657-1.5606-0.35656-0.51676-1.0955-0.51676-0.41857 0-0.84232 0.18087-0.42374 0.18087-0.81132 0.47542v3.2711q0.41341 0.18603 0.70797 0.25321 0.29972 0.06718 0.67696 0.06718 0.81132 0 1.2661-0.54777 0.45475-0.54777 0.45475-1.6226z"/><path d="m137.5 57.026q0 1.4108-0.72347 2.2272-0.72346 0.81648-1.9379 0.81648-1.2247 0-1.9482-0.81648-0.7183-0.81648-0.7183-2.2272t0.7183-2.2272q0.72347-0.82165 1.9482-0.82165 1.2144 0 1.9379 0.82165 0.72347 0.81648 0.72347 2.2272zm-1.0025 0q0-1.1214-0.43925-1.664-0.43924-0.54777-1.2196-0.54777-0.79064 0-1.2299 0.54777-0.43408 0.5426-0.43408 1.664 0 1.0852 0.43925 1.6485 0.43925 0.5581 1.2247 0.5581 0.77515 0 1.2144-0.55294 0.44441-0.5581 0.44441-1.6536z"/><path d="m140.05 53.171h-1.0955v-1.0077h1.0955zm-0.062 6.7386h-0.97151v-5.7722h0.97151z"/><path d="m146.73 59.909h-0.97151v-3.2866q0-0.39791-0.0465-0.74414-0.0465-0.3514-0.17053-0.54777-0.12919-0.21704-0.37207-0.32039-0.24288-0.10852-0.63045-0.10852-0.39791 0-0.83199 0.19637-0.43408 0.19637-0.83199 0.50126v4.3098h-0.97151v-5.7722h0.97151v0.64078q0.45475-0.37724 0.94051-0.58911t0.99735-0.21187q0.93534 0 1.4263 0.56327 0.49092 0.56327 0.49092 1.6226z"/><path d="m151.6 59.858q-0.27389 0.07235-0.59945 0.11886-0.32039 0.04651-0.57361 0.04651-0.88366 0-1.3436-0.47542t-0.45992-1.5244v-3.0696h-0.65629v-0.81648h0.65629v-1.6588h0.97152v1.6588h2.005v0.81648h-2.005v2.6303q0 0.45475 0.0207 0.71313 0.0207 0.25321 0.14469 0.47542 0.11369 0.2067 0.31006 0.30489 0.20154 0.09302 0.60978 0.09302 0.23771 0 0.49609-0.06718 0.25838-0.07235 0.37207-0.11886h0.0517z"/></g><path d="m95.004 50.384 20.686 0.05264-2.6552 1.2338 2.6541-1.3283-2.2369-1.1294" fill="none" stroke="#000" stroke-width=".26458px"/><rect x="182.75" y="37.609" width="42.144" height="25.513" fill="none" stroke="#000" stroke-width=".265"/><g stroke-width=".26458" aria-label="rest server"><path d="m198.11 42.345h-0.0517q-0.21704-0.05168-0.42375-0.07235-0.20154-0.02584-0.48059-0.02584-0.44958 0-0.86816 0.20154-0.41858 0.19637-0.80615 0.5116v4.0979h-0.97148v-5.7722h0.97151v0.85266q0.57878-0.46509 1.018-0.65629 0.44442-0.19637 0.90434-0.19637 0.25321 0 0.3669 0.0155 0.11369 0.01033 0.34106 0.04651z"/><path d="m203.86 44.273h-4.253q0 0.53227 0.16019 0.93017 0.1602 0.39274 0.43925 0.64595 0.26872 0.24805 0.63562 0.37207 0.37207 0.12402 0.81649 0.12402 0.5891 0 1.1834-0.23254 0.59945-0.23771 0.85266-0.46509h0.0517v1.0594q-0.49093 0.2067-1.0025 0.34623-0.5116 0.13953-1.0749 0.13953-1.4366 0-2.2428-0.77514-0.80615-0.78031-0.80615-2.2117 0-1.4159 0.76998-2.2479 0.77514-0.83199 2.036-0.83199 1.1679 0 1.7983 0.68213 0.63561 0.68213 0.63561 1.9379zm-0.94567-0.74414q-5e-3 -0.76481-0.38757-1.1834-0.37724-0.41858-1.1524-0.41858-0.78032 0-1.2454 0.45992-0.45992 0.45992-0.52193 1.142z"/><path d="m209.45 45.394q0 0.79065-0.65628 1.2971-0.65113 0.50643-1.7828 0.50643-0.64078 0-1.1782-0.14986-0.53227-0.15503-0.894-0.3359v-1.0904h0.0517q0.45992 0.34623 1.0232 0.55294 0.56327 0.20154 1.08 0.20154 0.64078 0 1.0025-0.2067 0.36173-0.2067 0.36173-0.65112 0-0.34106-0.19637-0.51676-0.19637-0.1757-0.75447-0.29972-0.20671-0.04651-0.5426-0.10852-0.33073-0.06201-0.60462-0.13436-0.75964-0.20154-1.08-0.58911-0.31523-0.39274-0.31523-0.96118 0-0.35657 0.1447-0.67179 0.14986-0.31522 0.44958-0.56327 0.28939-0.24288 0.7338-0.3824 0.44959-0.14469 1.0025-0.14469 0.51677 0 1.0439 0.12919 0.53227 0.12402 0.88367 0.30489v1.0387h-0.0517q-0.37207-0.27388-0.90433-0.45992-0.53227-0.1912-1.0439-0.1912-0.53227 0-0.89917 0.20671-0.3669 0.20154-0.3669 0.60461 0 0.35657 0.22221 0.53743 0.21704 0.18087 0.70279 0.29456 0.26872 0.06201 0.59945 0.12402 0.33589 0.06201 0.5581 0.11369 0.67696 0.15503 1.0439 0.53226 0.3669 0.3824 0.3669 1.0129z"/><path d="m213.84 47.006q-0.27388 0.07235-0.59944 0.11886-0.3204 0.04651-0.57361 0.04651-0.88366 0-1.3436-0.47542t-0.45992-1.5244v-3.0696h-0.65629v-0.81648h0.65629v-1.6588h0.97151v1.6588h2.005v0.81648h-2.005v2.6303q0 0.45475 0.0207 0.71313 0.0207 0.25321 0.1447 0.47542 0.11368 0.2067 0.31005 0.30489 0.20154 0.09302 0.60978 0.09302 0.23771 0 0.4961-0.06718 0.25838-0.07235 0.37206-0.11886h0.0517z"/><path d="m192.22 58.623q0 0.79065-0.65629 1.2971-0.65112 0.50643-1.7828 0.50643-0.64078 0-1.1782-0.14986-0.53226-0.15503-0.894-0.3359v-1.0904h0.0517q0.45992 0.34623 1.0232 0.55294 0.56327 0.20154 1.08 0.20154 0.64078 0 1.0025-0.2067 0.36174-0.20671 0.36174-0.65112 0-0.34106-0.19637-0.51676t-0.75447-0.29972q-0.20671-0.04651-0.54261-0.10852-0.33072-0.06201-0.60461-0.13436-0.75964-0.20154-1.08-0.58911-0.31523-0.39274-0.31523-0.96118 0-0.35657 0.1447-0.67179 0.14986-0.31523 0.44958-0.56327 0.28939-0.24288 0.7338-0.3824 0.44959-0.14469 1.0025-0.14469 0.51677 0 1.0439 0.12919 0.53227 0.12402 0.88367 0.30489v1.0387h-0.0517q-0.37207-0.27388-0.90433-0.45992-0.53227-0.1912-1.0439-0.1912-0.53227 0-0.89917 0.2067-0.3669 0.20154-0.3669 0.60461 0 0.35657 0.22221 0.53743 0.21704 0.18087 0.70279 0.29455 0.26872 0.06201 0.59945 0.12402 0.33589 0.06201 0.5581 0.11369 0.67696 0.15503 1.0439 0.53227 0.3669 0.3824 0.3669 1.0129z"/><path d="m198.44 57.502h-4.253q0 0.53226 0.1602 0.93017 0.16019 0.39274 0.43924 0.64595 0.26872 0.24805 0.63562 0.37207 0.37207 0.12402 0.81649 0.12402 0.58911 0 1.1834-0.23254 0.59945-0.23771 0.85266-0.46509h0.0517v1.0594q-0.49093 0.2067-1.0025 0.34623-0.5116 0.13953-1.0749 0.13953-1.4366 0-2.2428-0.77514-0.80615-0.78031-0.80615-2.2117 0-1.4159 0.76998-2.2479 0.77514-0.83199 2.036-0.83199 1.1679 0 1.7983 0.68213 0.63562 0.68213 0.63562 1.9379zm-0.94568-0.74414q-5e-3 -0.76481-0.38757-1.1834-0.37724-0.41858-1.1524-0.41858-0.78031 0-1.2454 0.45992-0.45992 0.45992-0.52193 1.142z"/><path d="m203.52 55.574h-0.0517q-0.21704-0.05168-0.42375-0.07235-0.20153-0.02584-0.48059-0.02584-0.44958 0-0.86816 0.20154-0.41857 0.19637-0.80615 0.5116v4.0979h-0.97151v-5.7722h0.97151v0.85266q0.57878-0.46509 1.018-0.65629 0.44441-0.19637 0.90433-0.19637 0.25321 0 0.3669 0.0155 0.11369 0.01033 0.34107 0.04651z"/><path d="m209.42 54.515-2.3358 5.7722h-0.97669l-2.3203-5.7722h1.0542l1.788 4.594 1.7725-4.594z"/><path d="m215.43 57.502h-4.253q0 0.53226 0.16019 0.93017 0.1602 0.39274 0.43925 0.64595 0.26872 0.24805 0.63562 0.37207 0.37207 0.12402 0.81648 0.12402 0.58911 0 1.1834-0.23254 0.59944-0.23771 0.85266-0.46509h0.0517v1.0594q-0.49092 0.2067-1.0025 0.34623-0.51159 0.13953-1.0749 0.13953-1.4366 0-2.2428-0.77514-0.80615-0.78031-0.80615-2.2117 0-1.4159 0.76998-2.2479 0.77514-0.83199 2.036-0.83199 1.1679 0 1.7983 0.68213 0.63562 0.68213 0.63562 1.9379zm-0.94567-0.74414q-5e-3 -0.76481-0.38758-1.1834-0.37723-0.41858-1.1524-0.41858-0.78031 0-1.2454 0.45992-0.45992 0.45992-0.52193 1.142z"/><path d="m220.51 55.574h-0.0517q-0.21704-0.05168-0.42375-0.07235-0.20154-0.02584-0.48059-0.02584-0.44958 0-0.86816 0.20154-0.41858 0.19637-0.80615 0.5116v4.0979h-0.97151v-5.7722h0.97151v0.85266q0.57878-0.46509 1.018-0.65629 0.44442-0.19637 0.90434-0.19637 0.25321 0 0.3669 0.0155 0.11369 0.01033 0.34106 0.04651z"/></g><path d="m161.87 50.401 20.686 0.05264-2.6552 1.2338 2.6541-1.3283-2.2369-1.1294" fill="none" stroke="#000" stroke-width=".26458px"/><g stroke-width=".26458"><g aria-label="WiFi"><path d="m104.88 44.694-1.3168 5.0664h-0.75877l-1.065-4.2056-1.0412 4.2056h-0.74176l-1.3406-5.0664h0.69072l1.065 4.2124 1.048-4.2124h0.68391l1.0582 4.2532 1.0582-4.2532z"/><path d="m106.51 45.323h-0.72134v-0.6635h0.72134zm-0.0408 4.4369h-0.63968v-3.8007h0.63968z"/><path d="m111.02 45.293h-2.5621v1.4291h2.2015v0.59885h-2.2015v2.4396h-0.6737v-5.0664h3.2358z"/><path d="m112.43 45.323h-0.72134v-0.6635h0.72134zm-0.0408 4.4369h-0.63968v-3.8007h0.63968z"/></g><g filter="url(#filter1041)" aria-label="pollutant"><path d="m60.332 5.7941q0 0.7028-0.20154 1.2867-0.20154 0.57877-0.56844 0.98185-0.34106 0.3824-0.80615 0.59428-0.45992 0.20671-0.97668 0.20671-0.44958 0-0.81648-0.098185-0.36173-0.098185-0.73897-0.30489v2.4184h-0.97151v-7.9013h0.97151v0.60461q0.38757-0.32556 0.86816-0.5426 0.48576-0.22221 1.0335-0.22221 1.0439 0 1.6226 0.79065 0.58394 0.78548 0.58394 2.1859zm-1.0025 0.025838q0-1.0439-0.35657-1.5606-0.35657-0.51676-1.0955-0.51676-0.41858 0-0.84232 0.18087-0.42374 0.18087-0.81132 0.47542v3.2711q0.41341 0.18603 0.70796 0.25321 0.29972 0.067179 0.67696 0.067179 0.81132 0 1.2661-0.54777 0.45475-0.54777 0.45475-1.6226z"/><path d="m66.766 5.8664q0 1.4108-0.72347 2.2272-0.72347 0.81649-1.9379 0.81649-1.2247 0-1.9482-0.81649-0.7183-0.81648-0.7183-2.2272t0.7183-2.2272q0.72347-0.82165 1.9482-0.82165 1.2144 0 1.9379 0.82165 0.72347 0.81649 0.72347 2.2272zm-1.0025 0q0-1.1214-0.43925-1.664-0.43925-0.54777-1.2196-0.54777-0.79065 0-1.2299 0.54777-0.43408 0.5426-0.43408 1.664 0 1.0852 0.43925 1.6485 0.43925 0.5581 1.2247 0.5581 0.77514 0 1.2144-0.55294 0.44442-0.5581 0.44442-1.6536z"/><path d="m69.251 8.7499h-0.97151v-8.0408h0.97151z"/><path d="m72.155 8.7499h-0.97151v-8.0408h0.97151z"/><path d="m78.863 8.7499h-0.97151v-0.64079q-0.49092 0.38757-0.94051 0.59428-0.44958 0.20671-0.99218 0.20671-0.9095 0-1.4159-0.55294-0.50643-0.5581-0.50643-1.633v-3.7465h0.97151v3.2866q0 0.43925 0.04134 0.75447 0.04134 0.31006 0.1757 0.53227 0.13953 0.22738 0.36173 0.33073 0.22221 0.10335 0.64595 0.10335 0.37724 0 0.82165-0.19637 0.44958-0.19637 0.83716-0.50126v-4.3098h0.97151z"/><path d="m83.772 8.6983q-0.27388 0.072347-0.59944 0.11886-0.32039 0.046509-0.57361 0.046509-0.88366 0-1.3436-0.47542-0.45992-0.47542-0.45992-1.5245v-3.0696h-0.65629v-0.81648h0.65629v-1.6588h0.97151v1.6588h2.005v0.81648h-2.005v2.6303q0 0.45475 0.02067 0.71313 0.02067 0.25321 0.14469 0.47542 0.11369 0.20671 0.31006 0.30489 0.20154 0.093017 0.60978 0.093017 0.23771 0 0.49609-0.067179 0.25838-0.072347 0.37207-0.11886h0.05168z"/><path d="m89.431 8.7499h-0.96635v-0.61495q-0.12919 0.08785-0.3514 0.24805-0.21704 0.15503-0.42374 0.24805-0.24288 0.11886-0.5581 0.19637-0.31522 0.082682-0.73897 0.082682-0.78031 0-1.3229-0.51676t-0.5426-1.3177q0-0.65629 0.27905-1.0594 0.28422-0.40824 0.80615-0.64079 0.5271-0.23254 1.2661-0.31523 0.73897-0.082682 1.5865-0.12402v-0.14986q0-0.33073-0.11886-0.54777-0.11369-0.21704-0.33073-0.34106-0.2067-0.11886-0.49609-0.1602t-0.60461-0.041341q-0.3824 0-0.85266 0.10335-0.47025 0.098185-0.97151 0.28939h-0.05168v-0.98702q0.28422-0.077514 0.82165-0.17053 0.53743-0.093017 1.0594-0.093017 0.60978 0 1.0594 0.10335 0.45475 0.098185 0.78548 0.34106 0.32556 0.23771 0.49609 0.61495 0.17053 0.37724 0.17053 0.93534zm-0.96635-1.4211v-1.6071q-0.44442 0.025838-1.049 0.077514-0.59944 0.051676-0.95084 0.14986-0.41858 0.11886-0.67696 0.37207-0.25838 0.24805-0.25838 0.68729 0 0.49609 0.29972 0.74931 0.29972 0.24805 0.91467 0.24805 0.5116 0 0.93534-0.19637 0.42374-0.20154 0.78548-0.48059z"/><path d="m96.128 8.7499h-0.97151v-3.2866q0-0.39791-0.04651-0.74414-0.04651-0.3514-0.17053-0.54777-0.12919-0.21704-0.37207-0.32039-0.24288-0.10852-0.63045-0.10852-0.39791 0-0.83199 0.19637t-0.83199 0.50126v4.3098h-0.97151v-5.7722h0.97151v0.64079q0.45475-0.37724 0.94051-0.58911t0.99735-0.21187q0.93534 0 1.4263 0.56327 0.49092 0.56327 0.49092 1.6226z"/><path d="m101 8.6983q-0.27388 0.072347-0.59944 0.11886-0.32039 0.046509-0.57361 0.046509-0.88366 0-1.3436-0.47542-0.45992-0.47542-0.45992-1.5245v-3.0696h-0.65629v-0.81648h0.65629v-1.6588h0.97151v1.6588h2.005v0.81648h-2.005v2.6303q0 0.45475 0.02067 0.71313 0.02067 0.25321 0.14469 0.47542 0.11369 0.20671 0.31006 0.30489 0.20154 0.093017 0.60978 0.093017 0.23771 0 0.49609-0.067179 0.25838-0.072347 0.37207-0.11886h0.0517z"/></g><g aria-label="pollutant"><path d="m60.332 5.7941q0 0.7028-0.20154 1.2867-0.20154 0.57877-0.56844 0.98185-0.34106 0.3824-0.80615 0.59428-0.45992 0.20671-0.97668 0.20671-0.44958 0-0.81648-0.098185-0.36173-0.098185-0.73897-0.30489v2.4184h-0.97151v-7.9013h0.97151v0.60461q0.38757-0.32556 0.86816-0.5426 0.48576-0.22221 1.0335-0.22221 1.0439 0 1.6226 0.79065 0.58394 0.78548 0.58394 2.1859zm-1.0025 0.025838q0-1.0439-0.35657-1.5606-0.35657-0.51676-1.0955-0.51676-0.41858 0-0.84232 0.18087-0.42374 0.18087-0.81132 0.47542v3.2711q0.41341 0.18603 0.70796 0.25321 0.29972 0.067179 0.67696 0.067179 0.81132 0 1.2661-0.54777 0.45475-0.54777 0.45475-1.6226z"/><path d="m66.766 5.8664q0 1.4108-0.72347 2.2272-0.72347 0.81649-1.9379 0.81649-1.2247 0-1.9482-0.81649-0.7183-0.81648-0.7183-2.2272t0.7183-2.2272q0.72347-0.82165 1.9482-0.82165 1.2144 0 1.9379 0.82165 0.72347 0.81649 0.72347 2.2272zm-1.0025 0q0-1.1214-0.43925-1.664-0.43925-0.54777-1.2196-0.54777-0.79065 0-1.2299 0.54777-0.43408 0.5426-0.43408 1.664 0 1.0852 0.43925 1.6485 0.43925 0.5581 1.2247 0.5581 0.77514 0 1.2144-0.55294 0.44442-0.5581 0.44442-1.6536z"/><path d="m69.251 8.7499h-0.97151v-8.0408h0.97151z"/><path d="m72.155 8.7499h-0.97151v-8.0408h0.97151z"/><path d="m78.863 8.7499h-0.97151v-0.64079q-0.49092 0.38757-0.94051 0.59428-0.44958 0.20671-0.99218 0.20671-0.9095 0-1.4159-0.55294-0.50643-0.5581-0.50643-1.633v-3.7465h0.97151v3.2866q0 0.43925 0.04134 0.75447 0.04134 0.31006 0.1757 0.53227 0.13953 0.22738 0.36173 0.33073 0.22221 0.10335 0.64595 0.10335 0.37724 0 0.82165-0.19637 0.44958-0.19637 0.83716-0.50126v-4.3098h0.97151z"/><path d="m83.772 8.6983q-0.27388 0.072347-0.59944 0.11886-0.32039 0.046509-0.57361 0.046509-0.88366 0-1.3436-0.47542-0.45992-0.47542-0.45992-1.5245v-3.0696h-0.65629v-0.81648h0.65629v-1.6588h0.97151v1.6588h2.005v0.81648h-2.005v2.6303q0 0.45475 0.02067 0.71313 0.02067 0.25321 0.14469 0.47542 0.11369 0.20671 0.31006 0.30489 0.20154 0.093017 0.60978 0.093017 0.23771 0 0.49609-0.067179 0.25838-0.072347 0.37207-0.11886h0.05168z"/><path d="m89.431 8.7499h-0.96635v-0.61495q-0.12919 0.08785-0.3514 0.24805-0.21704 0.15503-0.42374 0.24805-0.24288 0.11886-0.5581 0.19637-0.31522 0.082682-0.73897 0.082682-0.78031 0-1.3229-0.51676t-0.5426-1.3177q0-0.65629 0.27905-1.0594 0.28422-0.40824 0.80615-0.64079 0.5271-0.23254 1.2661-0.31523 0.73897-0.082682 1.5865-0.12402v-0.14986q0-0.33073-0.11886-0.54777-0.11369-0.21704-0.33073-0.34106-0.2067-0.11886-0.49609-0.1602t-0.60461-0.041341q-0.3824 0-0.85266 0.10335-0.47025 0.098185-0.97151 0.28939h-0.05168v-0.98702q0.28422-0.077514 0.82165-0.17053 0.53743-0.093017 1.0594-0.093017 0.60978 0 1.0594 0.10335 0.45475 0.098185 0.78548 0.34106 0.32556 0.23771 0.49609 0.61495 0.17053 0.37724 0.17053 0.93534zm-0.96635-1.4211v-1.6071q-0.44442 0.025838-1.049 0.077514-0.59944 0.051676-0.95084 0.14986-0.41858 0.11886-0.67696 0.37207-0.25838 0.24805-0.25838 0.68729 0 0.49609 0.29972 0.74931 0.29972 0.24805 0.91467 0.24805 0.5116 0 0.93534-0.19637 0.42374-0.20154 0.78548-0.48059z"/><path d="m96.128 8.7499h-0.97151v-3.2866q0-0.39791-0.04651-0.74414-0.04651-0.3514-0.17053-0.54777-0.12919-0.21704-0.37207-0.32039-0.24288-0.10852-0.63045-0.10852-0.39791 0-0.83199 0.19637t-0.83199 0.50126v4.3098h-0.97151v-5.7722h0.97151v0.64079q0.45475-0.37724 0.94051-0.58911t0.99735-0.21187q0.93534 0 1.4263 0.56327 0.49092 0.56327 0.49092 1.6226z"/><path d="m101 8.6983q-0.27388 0.072347-0.59944 0.11886-0.32039 0.046509-0.57361 0.046509-0.88366 0-1.3436-0.47542-0.45992-0.47542-0.45992-1.5245v-3.0696h-0.65629v-0.81648h0.65629v-1.6588h0.97151v1.6588h2.005v0.81648h-2.005v2.6303q0 0.45475 0.02067 0.71313 0.02067 0.25321 0.14469 0.47542 0.11369 0.20671 0.31006 0.30489 0.20154 0.093017 0.60978 0.093017 0.23771 0 0.49609-0.067179 0.25838-0.072347 0.37207-0.11886h0.0517z"/></g></g><path d="m61.153 12.324 6.9004 5.4425-1.6481 0.28003 1.7059-0.35486-0.0556-1.475" fill="none" stroke="#000" stroke-width=".26458px"/><path d="m93.204 12.49-6.9004 5.4425 1.6481 0.28003-1.7059-0.35486 0.0556-1.475" fill="none" stroke="#000" stroke-width=".26458px"/></g></svg>
