<svg width="109.4mm" height="11.624mm" version="1.1" viewBox="0 0 109.4 11.624" xmlns="http://www.w3.org/2000/svg"><g transform="translate(-26.188 -59.2)"><g transform="matrix(.35278 0 0 .35278 -1.4892 -107.06)"><g transform="translate(116.4 476.56)"><path d="m2-5.2188c-1.1875 0-1.7812 0.92188-1.7812 2.7656 0 0.89062 0.15625 1.6562 0.42188 2.0156 0.26562 0.375 0.6875 0.59375 1.1562 0.59375 1.1562 0 1.7344-0.98438 1.7344-2.9375 0-1.6562-0.5-2.4375-1.5312-2.4375zm-0.14062 0.26562c0.73438 0 1.0312 0.73438 1.0312 2.5625 0 1.6094-0.29688 2.2812-0.98438 2.2812-0.73438 0-1.0469-0.76562-1.0469-2.625 0-1.5938 0.28125-2.2188 1-2.2188z"/></g><g transform="translate(108.95 482.73)"><path d="m4.5781-0.92188c0-0.26562 0-0.28125-0.20312-0.28125-1.0156 0-3.2656 0.48438-4.6094 2.9219v0.15625c0 0.25 0 0.26562 0.23438 0.26562 0.1875 0 0.20312-0.015625 0.25-0.09375 0.8125-1.2969 2.1875-2 4.2188-2.0469 0.10938 0 0.10938-0.0625 0.10938-0.28125z"/></g><g transform="translate(113.69 482.73)"><path d="m4.7188-3.0781c0-0.23438 0-0.25-0.23438-0.25-0.1875 0-0.20312 0.015625-0.25 0.078125-0.8125 1.3125-2.1875 2.0156-4.2188 2.0469-0.10938 0-0.10938 0.078125-0.10938 0.28125v0.64062c0 0.26562 0 0.28125 0.20312 0.28125 1.0156 0 3.2656-0.48438 4.6094-2.9062z"/></g><g transform="translate(118.42 482.73)"><path d="m4.5781-0.92188c0-0.21875 0-0.28125-0.125-0.28125-0.60938 0-1.6094-0.078125-2.5-0.51562-1.0781-0.54688-1.4844-1.1719-1.7344-1.5625-0.03125-0.046875-0.09375-0.046875-0.21875-0.046875-0.23438 0-0.23438 0.015625-0.23438 0.25v0.17188c1.3438 2.4375 3.5938 2.9062 4.6094 2.9062 0.20312 0 0.20312-0.015625 0.20312-0.28125z"/></g><g transform="translate(123.15 482.73)"><path d="m4.7188 1.7188c-1.3438-2.4531-3.5938-2.9219-4.6094-2.9219-0.20312 0-0.20312 0.015625-0.20312 0.28125v0.64062c0 0.23438 0 0.28125 0.14062 0.28125 0.59375 0.015625 1.5938 0.09375 2.4844 0.53125 1.0781 0.53125 1.4844 1.1562 1.7344 1.5469 0.03125 0.0625 0.09375 0.0625 0.21875 0.0625 0.23438 0 0.23438-0.015625 0.23438-0.26562z"/></g><g transform="translate(147.28 476.56)"><path d="m0.5-4.2031h0.078125l0.98438-0.4375c0-0.015625 0.015625-0.015625 0.015625-0.015625 0.046875 0 0.0625 0.078125 0.0625 0.25v3.6719c0 0.40625-0.078125 0.48438-0.48438 0.5l-0.42188 0.03125v0.21875c1.1562-0.015625 1.1562-0.015625 1.25-0.015625h0.51562c0.09375 0.015625 0.35938 0.015625 0.67188 0.015625v-0.21875l-0.39062-0.03125c-0.42188-0.015625-0.5-0.09375-0.5-0.5v-4.4844l-0.10938-0.046875c-0.48438 0.26562-1.0312 0.48438-1.7188 0.73438z"/></g><g transform="translate(139.84 482.73)"><path d="m4.5781-0.92188c0-0.26562 0-0.28125-0.20312-0.28125-1.0156 0-3.2656 0.48438-4.6094 2.9219v0.15625c0 0.25 0 0.26562 0.23438 0.26562 0.1875 0 0.20312-0.015625 0.25-0.09375 0.8125-1.2969 2.1875-2 4.2188-2.0469 0.10938 0 0.10938-0.0625 0.10938-0.28125z"/></g><g transform="translate(144.57 482.73)"><path d="m4.7188-3.0781c0-0.23438 0-0.25-0.23438-0.25-0.1875 0-0.20312 0.015625-0.25 0.078125-0.8125 1.3125-2.1875 2.0156-4.2188 2.0469-0.10938 0-0.10938 0.078125-0.10938 0.28125v0.64062c0 0.26562 0 0.28125 0.20312 0.28125 1.0156 0 3.2656-0.48438 4.6094-2.9062z"/></g><g transform="translate(149.3 482.73)"><path d="m4.5781-0.92188c0-0.21875 0-0.28125-0.125-0.28125-0.60938 0-1.6094-0.078125-2.5-0.51562-1.0781-0.54688-1.4844-1.1719-1.7344-1.5625-0.03125-0.046875-0.09375-0.046875-0.21875-0.046875-0.23438 0-0.23438 0.015625-0.23438 0.25v0.17188c1.3438 2.4375 3.5938 2.9062 4.6094 2.9062 0.20312 0 0.20312-0.015625 0.20312-0.28125z"/></g><g transform="translate(154.03 482.73)"><path d="m4.7188 1.7188c-1.3438-2.4531-3.5938-2.9219-4.6094-2.9219-0.20312 0-0.20312 0.015625-0.20312 0.28125v0.64062c0 0.23438 0 0.28125 0.14062 0.28125 0.59375 0.015625 1.5938 0.09375 2.4844 0.53125 1.0781 0.53125 1.4844 1.1562 1.7344 1.5469 0.03125 0.0625 0.09375 0.0625 0.21875 0.0625 0.23438 0 0.23438-0.015625 0.23438-0.26562z"/></g><g transform="translate(178.17 476.56)"><path d="m0.125-0.17188v0.1875c1.4062-0.015625 1.4062-0.015625 1.6875-0.015625 0.26562 0 0.26562 0 1.7344 0.015625-0.015625-0.15625-0.015625-0.23438-0.015625-0.32812 0-0.10938 0-0.1875 0.015625-0.34375-0.875 0.03125-1.2188 0.046875-2.625 0.078125l1.375-1.4688c0.73438-0.78125 0.96875-1.2031 0.96875-1.7656 0-0.875-0.59375-1.4062-1.5469-1.4062-0.54688 0-0.92188 0.15625-1.2969 0.53125l-0.125 1.0312h0.21875l0.09375-0.35938c0.125-0.4375 0.40625-0.625 0.90625-0.625 0.65625 0 1.0625 0.40625 1.0625 1.0625 0 0.5625-0.3125 1.125-1.1719 2.0312z"/></g><g transform="translate(170.72 482.73)"><path d="m4.5781-0.92188c0-0.26562 0-0.28125-0.20312-0.28125-1.0156 0-3.2656 0.48438-4.6094 2.9219v0.15625c0 0.25 0 0.26562 0.23438 0.26562 0.1875 0 0.20312-0.015625 0.25-0.09375 0.8125-1.2969 2.1875-2 4.2188-2.0469 0.10938 0 0.10938-0.0625 0.10938-0.28125z"/></g><g transform="translate(175.45 482.73)"><path d="m4.7188-3.0781c0-0.23438 0-0.25-0.23438-0.25-0.1875 0-0.20312 0.015625-0.25 0.078125-0.8125 1.3125-2.1875 2.0156-4.2188 2.0469-0.10938 0-0.10938 0.078125-0.10938 0.28125v0.64062c0 0.26562 0 0.28125 0.20312 0.28125 1.0156 0 3.2656-0.48438 4.6094-2.9062z"/></g><g transform="translate(180.19 482.73)"><path d="m4.5781-0.92188c0-0.21875 0-0.28125-0.125-0.28125-0.60938 0-1.6094-0.078125-2.5-0.51562-1.0781-0.54688-1.4844-1.1719-1.7344-1.5625-0.03125-0.046875-0.09375-0.046875-0.21875-0.046875-0.23438 0-0.23438 0.015625-0.23438 0.25v0.17188c1.3438 2.4375 3.5938 2.9062 4.6094 2.9062 0.20312 0 0.20312-0.015625 0.20312-0.28125z"/></g><g transform="translate(184.92 482.73)"><path d="m4.7188 1.7188c-1.3438-2.4531-3.5938-2.9219-4.6094-2.9219-0.20312 0-0.20312 0.015625-0.20312 0.28125v0.64062c0 0.23438 0 0.28125 0.14062 0.28125 0.59375 0.015625 1.5938 0.09375 2.4844 0.53125 1.0781 0.53125 1.4844 1.1562 1.7344 1.5469 0.03125 0.0625 0.09375 0.0625 0.21875 0.0625 0.23438 0 0.23438-0.015625 0.23438-0.26562z"/></g><g transform="translate(209.05 476.56)"><path d="m0.32812-3.7812h0.23438l0.14062-0.42188c0.078125-0.25 0.5625-0.51562 0.95312-0.51562 0.48438 0 0.89062 0.40625 0.89062 0.89062 0 0.5625-0.45312 1.0469-0.98438 1.0469-0.0625 0-0.14062-0.015625-0.25-0.015625l-0.10938-0.015625-0.09375 0.40625 0.0625 0.046875c0.28125-0.14062 0.42188-0.17188 0.625-0.17188 0.64062 0 1 0.40625 1 1.0938 0 0.76562-0.46875 1.2812-1.1719 1.2812-0.34375 0-0.65625-0.10938-0.875-0.32812-0.1875-0.17188-0.28125-0.34375-0.4375-0.75l-0.20312 0.078125c0.15625 0.45312 0.21875 0.73438 0.26562 1.1094 0.40625 0.14062 0.73438 0.20312 1.0156 0.20312 0.60938 0 1.3125-0.34375 1.7188-0.85938 0.26562-0.3125 0.39062-0.64062 0.39062-1s-0.15625-0.67188-0.42188-0.85938c-0.1875-0.14062-0.35938-0.20312-0.75-0.26562 0.60938-0.46875 0.84375-0.82812 0.84375-1.2656 0-0.6875-0.5625-1.125-1.4062-1.125-0.51562 0-0.85938 0.14062-1.2188 0.5z"/></g><g transform="translate(201.6 482.73)"><path d="m4.5781-0.92188c0-0.26562 0-0.28125-0.20312-0.28125-1.0156 0-3.2656 0.48438-4.6094 2.9219v0.15625c0 0.25 0 0.26562 0.23438 0.26562 0.1875 0 0.20312-0.015625 0.25-0.09375 0.8125-1.2969 2.1875-2 4.2188-2.0469 0.10938 0 0.10938-0.0625 0.10938-0.28125z"/></g><g transform="translate(206.34 482.73)"><path d="m4.7188-3.0781c0-0.23438 0-0.25-0.23438-0.25-0.1875 0-0.20312 0.015625-0.25 0.078125-0.8125 1.3125-2.1875 2.0156-4.2188 2.0469-0.10938 0-0.10938 0.078125-0.10938 0.28125v0.64062c0 0.26562 0 0.28125 0.20312 0.28125 1.0156 0 3.2656-0.48438 4.6094-2.9062z"/></g><g transform="translate(211.07 482.73)"><path d="m4.5781-0.92188c0-0.21875 0-0.28125-0.125-0.28125-0.60938 0-1.6094-0.078125-2.5-0.51562-1.0781-0.54688-1.4844-1.1719-1.7344-1.5625-0.03125-0.046875-0.09375-0.046875-0.21875-0.046875-0.23438 0-0.23438 0.015625-0.23438 0.25v0.17188c1.3438 2.4375 3.5938 2.9062 4.6094 2.9062 0.20312 0 0.20312-0.015625 0.20312-0.28125z"/></g><g transform="translate(215.8 482.73)"><path d="m4.7188 1.7188c-1.3438-2.4531-3.5938-2.9219-4.6094-2.9219-0.20312 0-0.20312 0.015625-0.20312 0.28125v0.64062c0 0.23438 0 0.28125 0.14062 0.28125 0.59375 0.015625 1.5938 0.09375 2.4844 0.53125 1.0781 0.53125 1.4844 1.1562 1.7344 1.5469 0.03125 0.0625 0.09375 0.0625 0.21875 0.0625 0.23438 0 0.23438-0.015625 0.23438-0.26562z"/></g><g transform="translate(232.37 485.72)"><path d="m1.2344-1.1094c-0.29688 0-0.5625 0.28125-0.5625 0.57812s0.26562 0.57812 0.54688 0.57812c0.32812 0 0.60938-0.26562 0.60938-0.57812 0-0.29688-0.28125-0.57812-0.59375-0.57812z"/></g><g transform="translate(234.86 485.72)"><path d="m1.2344-1.1094c-0.29688 0-0.5625 0.28125-0.5625 0.57812s0.26562 0.57812 0.54688 0.57812c0.32812 0 0.60938-0.26562 0.60938-0.57812 0-0.29688-0.28125-0.57812-0.59375-0.57812z"/></g><g transform="translate(237.35 485.72)"><path d="m1.2344-1.1094c-0.29688 0-0.5625 0.28125-0.5625 0.57812s0.26562 0.57812 0.54688 0.57812c0.32812 0 0.60938-0.26562 0.60938-0.57812 0-0.29688-0.28125-0.57812-0.59375-0.57812z"/></g><g transform="translate(257.95 476.56)"><path d="m0.96875-4.5781c0.96875 0.03125 1.3906 0.03125 2.3125 0.03125l0.03125-0.03125c-0.015625-0.14062-0.015625-0.20312-0.015625-0.29688 0-0.10938 0-0.17188 0.015625-0.3125l-0.03125-0.03125c-0.57812 0.03125-0.92188 0.03125-1.3281 0.03125-0.42188 0-0.75 0-1.3125-0.03125l-0.046875 0.03125c0.015625 0.46875 0.015625 0.79688 0.015625 1.0469 0 0.64062-0.015625 1.3594-0.046875 1.7031l0.15625 0.046875c0.35938-0.35938 0.5625-0.46875 0.9375-0.46875 0.71875 0 1.1719 0.51562 1.1719 1.3438s-0.48438 1.3281-1.3125 1.3281c-0.40625 0-0.78125-0.14062-0.89062-0.32812l-0.34375-0.625-0.1875 0.10938c0.17188 0.42188 0.26562 0.67188 0.375 1 0.21875 0.10938 0.51562 0.1875 0.84375 0.1875 0.5 0 1.0469-0.21875 1.4688-0.59375 0.45312-0.40625 0.70312-0.92188 0.70312-1.4844 0-0.85938-0.625-1.4531-1.4844-1.4531-0.35938 0-0.64062 0.09375-1.1094 0.375z"/></g><g transform="translate(261.74 476.56)"><path d="m2-5.2188c-1.1875 0-1.7812 0.92188-1.7812 2.7656 0 0.89062 0.15625 1.6562 0.42188 2.0156 0.26562 0.375 0.6875 0.59375 1.1562 0.59375 1.1562 0 1.7344-0.98438 1.7344-2.9375 0-1.6562-0.5-2.4375-1.5312-2.4375zm-0.14062 0.26562c0.73438 0 1.0312 0.73438 1.0312 2.5625 0 1.6094-0.29688 2.2812-0.98438 2.2812-0.73438 0-1.0469-0.76562-1.0469-2.625 0-1.5938 0.28125-2.2188 1-2.2188z"/></g><g transform="translate(265.52 476.56)"><path d="m1.2656-2.6094c-0.29688 0.14062-0.4375 0.21875-0.59375 0.375-0.29688 0.29688-0.4375 0.64062-0.4375 1.0312 0 0.78125 0.625 1.3594 1.4844 1.3594 0.98438 0 1.7969-0.78125 1.7969-1.7188 0-0.60938-0.28125-0.9375-1.1406-1.3281 0.6875-0.46875 0.92188-0.78125 0.92188-1.2344 0-0.65625-0.53125-1.0938-1.3281-1.0938-0.90625 0-1.5625 0.57812-1.5625 1.375 0 0.51562 0.20312 0.79688 0.85938 1.2344zm0.89062 0.375c0.46875 0.21875 0.76562 0.57812 0.76562 0.98438 0 0.64062-0.48438 1.1406-1.0938 1.1406-0.64062 0-1.0625-0.45312-1.0625-1.1562 0-0.54688 0.21875-0.90625 0.78125-1.25zm-0.46875-0.96875c-0.46875-0.23438-0.71875-0.54688-0.71875-0.92188 0-0.5 0.35938-0.84375 0.90625-0.84375s0.90625 0.375 0.90625 0.92188c0 0.4375-0.1875 0.73438-0.67188 1.0469z"/></g><g transform="translate(254.29 482.73)"><path d="m4.5781-0.92188c0-0.26562 0-0.28125-0.20312-0.28125-1.0156 0-3.2656 0.48438-4.6094 2.9219v0.15625c0 0.25 0 0.26562 0.23438 0.26562 0.1875 0 0.20312-0.015625 0.25-0.09375 0.8125-1.2969 2.1875-2 4.2188-2.0469 0.10938 0 0.10938-0.0625 0.10938-0.28125z"/></g><g transform="translate(259.02 482.73)"><path d="m4.7188-3.0781c0-0.23438 0-0.25-0.23438-0.25-0.1875 0-0.20312 0.015625-0.25 0.078125-0.8125 1.3125-2.1875 2.0156-4.2188 2.0469-0.10938 0-0.10938 0.078125-0.10938 0.28125v0.64062c0 0.26562 0 0.28125 0.20312 0.28125 1.0156 0 3.2656-0.48438 4.6094-2.9062z"/></g><g transform="translate(263.76 482.73)"><path d="m4.5781-0.92188c0-0.21875 0-0.28125-0.125-0.28125-0.60938 0-1.6094-0.078125-2.5-0.51562-1.0781-0.54688-1.4844-1.1719-1.7344-1.5625-0.03125-0.046875-0.09375-0.046875-0.21875-0.046875-0.23438 0-0.23438 0.015625-0.23438 0.25v0.17188c1.3438 2.4375 3.5938 2.9062 4.6094 2.9062 0.20312 0 0.20312-0.015625 0.20312-0.28125z"/></g><g transform="translate(268.49 482.73)"><path d="m4.7188 1.7188c-1.3438-2.4531-3.5938-2.9219-4.6094-2.9219-0.20312 0-0.20312 0.015625-0.20312 0.28125v0.64062c0 0.23438 0 0.28125 0.14062 0.28125 0.59375 0.015625 1.5938 0.09375 2.4844 0.53125 1.0781 0.53125 1.4844 1.1562 1.7344 1.5469 0.03125 0.0625 0.09375 0.0625 0.21875 0.0625 0.23438 0 0.23438-0.015625 0.23438-0.26562z"/></g><g transform="translate(293.59 476.56)"><path d="m0.96875-4.5781c0.96875 0.03125 1.3906 0.03125 2.3125 0.03125l0.03125-0.03125c-0.015625-0.14062-0.015625-0.20312-0.015625-0.29688 0-0.10938 0-0.17188 0.015625-0.3125l-0.03125-0.03125c-0.57812 0.03125-0.92188 0.03125-1.3281 0.03125-0.42188 0-0.75 0-1.3125-0.03125l-0.046875 0.03125c0.015625 0.46875 0.015625 0.79688 0.015625 1.0469 0 0.64062-0.015625 1.3594-0.046875 1.7031l0.15625 0.046875c0.35938-0.35938 0.5625-0.46875 0.9375-0.46875 0.71875 0 1.1719 0.51562 1.1719 1.3438s-0.48438 1.3281-1.3125 1.3281c-0.40625 0-0.78125-0.14062-0.89062-0.32812l-0.34375-0.625-0.1875 0.10938c0.17188 0.42188 0.26562 0.67188 0.375 1 0.21875 0.10938 0.51562 0.1875 0.84375 0.1875 0.5 0 1.0469-0.21875 1.4688-0.59375 0.45312-0.40625 0.70312-0.92188 0.70312-1.4844 0-0.85938-0.625-1.4531-1.4844-1.4531-0.35938 0-0.64062 0.09375-1.1094 0.375z"/></g><g transform="translate(297.37 476.56)"><path d="m2-5.2188c-1.1875 0-1.7812 0.92188-1.7812 2.7656 0 0.89062 0.15625 1.6562 0.42188 2.0156 0.26562 0.375 0.6875 0.59375 1.1562 0.59375 1.1562 0 1.7344-0.98438 1.7344-2.9375 0-1.6562-0.5-2.4375-1.5312-2.4375zm-0.14062 0.26562c0.73438 0 1.0312 0.73438 1.0312 2.5625 0 1.6094-0.29688 2.2812-0.98438 2.2812-0.73438 0-1.0469-0.76562-1.0469-2.625 0-1.5938 0.28125-2.2188 1-2.2188z"/></g><g transform="translate(301.16 476.56)"><path d="m0.73438 0.15625c0.82812-0.28125 1.2031-0.45312 1.6094-0.79688 0.73438-0.625 1.125-1.5 1.125-2.5156 0-1.2812-0.625-2.0625-1.625-2.0625-0.96875 0-1.6875 0.75-1.6875 1.7656 0 0.875 0.5625 1.5156 1.3594 1.5156 0.25 0 0.54688-0.078125 0.6875-0.20312l0.53125-0.4375c-0.0625 1.2812-0.89062 2.2031-2.2656 2.5469v0.046875zm1.0781-5.125c0.34375 0 0.59375 0.14062 0.76562 0.4375 0.14062 0.25 0.21875 0.625 0.21875 0.96875 0 0.6875-0.39062 1.1562-0.98438 1.1562s-1.0156-0.53125-1.0156-1.3281c0-0.76562 0.40625-1.2344 1.0156-1.2344z"/></g><g transform="translate(289.93 482.73)"><path d="m4.5781-0.92188c0-0.26562 0-0.28125-0.20312-0.28125-1.0156 0-3.2656 0.48438-4.6094 2.9219v0.15625c0 0.25 0 0.26562 0.23438 0.26562 0.1875 0 0.20312-0.015625 0.25-0.09375 0.8125-1.2969 2.1875-2 4.2188-2.0469 0.10938 0 0.10938-0.0625 0.10938-0.28125z"/></g><g transform="translate(294.66 482.73)"><path d="m4.7188-3.0781c0-0.23438 0-0.25-0.23438-0.25-0.1875 0-0.20312 0.015625-0.25 0.078125-0.8125 1.3125-2.1875 2.0156-4.2188 2.0469-0.10938 0-0.10938 0.078125-0.10938 0.28125v0.64062c0 0.26562 0 0.28125 0.20312 0.28125 1.0156 0 3.2656-0.48438 4.6094-2.9062z"/></g><g transform="translate(299.39 482.73)"><path d="m4.5781-0.92188c0-0.21875 0-0.28125-0.125-0.28125-0.60938 0-1.6094-0.078125-2.5-0.51562-1.0781-0.54688-1.4844-1.1719-1.7344-1.5625-0.03125-0.046875-0.09375-0.046875-0.21875-0.046875-0.23438 0-0.23438 0.015625-0.23438 0.25v0.17188c1.3438 2.4375 3.5938 2.9062 4.6094 2.9062 0.20312 0 0.20312-0.015625 0.20312-0.28125z"/></g><g transform="translate(304.12 482.73)"><path d="m4.7188 1.7188c-1.3438-2.4531-3.5938-2.9219-4.6094-2.9219-0.20312 0-0.20312 0.015625-0.20312 0.28125v0.64062c0 0.23438 0 0.28125 0.14062 0.28125 0.59375 0.015625 1.5938 0.09375 2.4844 0.53125 1.0781 0.53125 1.4844 1.1562 1.7344 1.5469 0.03125 0.0625 0.09375 0.0625 0.21875 0.0625 0.23438 0 0.23438-0.015625 0.23438-0.26562z"/></g><g transform="translate(329.23 476.56)"><path d="m0.96875-4.5781c0.96875 0.03125 1.3906 0.03125 2.3125 0.03125l0.03125-0.03125c-0.015625-0.14062-0.015625-0.20312-0.015625-0.29688 0-0.10938 0-0.17188 0.015625-0.3125l-0.03125-0.03125c-0.57812 0.03125-0.92188 0.03125-1.3281 0.03125-0.42188 0-0.75 0-1.3125-0.03125l-0.046875 0.03125c0.015625 0.46875 0.015625 0.79688 0.015625 1.0469 0 0.64062-0.015625 1.3594-0.046875 1.7031l0.15625 0.046875c0.35938-0.35938 0.5625-0.46875 0.9375-0.46875 0.71875 0 1.1719 0.51562 1.1719 1.3438s-0.48438 1.3281-1.3125 1.3281c-0.40625 0-0.78125-0.14062-0.89062-0.32812l-0.34375-0.625-0.1875 0.10938c0.17188 0.42188 0.26562 0.67188 0.375 1 0.21875 0.10938 0.51562 0.1875 0.84375 0.1875 0.5 0 1.0469-0.21875 1.4688-0.59375 0.45312-0.40625 0.70312-0.92188 0.70312-1.4844 0-0.85938-0.625-1.4531-1.4844-1.4531-0.35938 0-0.64062 0.09375-1.1094 0.375z"/></g><g transform="translate(333.01 476.56)"><path d="m0.5-4.2031h0.078125l0.98438-0.4375c0-0.015625 0.015625-0.015625 0.015625-0.015625 0.046875 0 0.0625 0.078125 0.0625 0.25v3.6719c0 0.40625-0.078125 0.48438-0.48438 0.5l-0.42188 0.03125v0.21875c1.1562-0.015625 1.1562-0.015625 1.25-0.015625h0.51562c0.09375 0.015625 0.35938 0.015625 0.67188 0.015625v-0.21875l-0.39062-0.03125c-0.42188-0.015625-0.5-0.09375-0.5-0.5v-4.4844l-0.10938-0.046875c-0.48438 0.26562-1.0312 0.48438-1.7188 0.73438z"/></g><g transform="translate(336.8 476.56)"><path d="m2-5.2188c-1.1875 0-1.7812 0.92188-1.7812 2.7656 0 0.89062 0.15625 1.6562 0.42188 2.0156 0.26562 0.375 0.6875 0.59375 1.1562 0.59375 1.1562 0 1.7344-0.98438 1.7344-2.9375 0-1.6562-0.5-2.4375-1.5312-2.4375zm-0.14062 0.26562c0.73438 0 1.0312 0.73438 1.0312 2.5625 0 1.6094-0.29688 2.2812-0.98438 2.2812-0.73438 0-1.0469-0.76562-1.0469-2.625 0-1.5938 0.28125-2.2188 1-2.2188z"/></g><g transform="translate(325.56 482.73)"><path d="m4.5781-0.92188c0-0.26562 0-0.28125-0.20312-0.28125-1.0156 0-3.2656 0.48438-4.6094 2.9219v0.15625c0 0.25 0 0.26562 0.23438 0.26562 0.1875 0 0.20312-0.015625 0.25-0.09375 0.8125-1.2969 2.1875-2 4.2188-2.0469 0.10938 0 0.10938-0.0625 0.10938-0.28125z"/></g><g transform="translate(330.3 482.73)"><path d="m4.7188-3.0781c0-0.23438 0-0.25-0.23438-0.25-0.1875 0-0.20312 0.015625-0.25 0.078125-0.8125 1.3125-2.1875 2.0156-4.2188 2.0469-0.10938 0-0.10938 0.078125-0.10938 0.28125v0.64062c0 0.26562 0 0.28125 0.20312 0.28125 1.0156 0 3.2656-0.48438 4.6094-2.9062z"/></g><g transform="translate(335.03 482.73)"><path d="m4.5781-0.92188c0-0.21875 0-0.28125-0.125-0.28125-0.60938 0-1.6094-0.078125-2.5-0.51562-1.0781-0.54688-1.4844-1.1719-1.7344-1.5625-0.03125-0.046875-0.09375-0.046875-0.21875-0.046875-0.23438 0-0.23438 0.015625-0.23438 0.25v0.17188c1.3438 2.4375 3.5938 2.9062 4.6094 2.9062 0.20312 0 0.20312-0.015625 0.20312-0.28125z"/></g><g transform="translate(339.76 482.73)"><path d="m4.7188 1.7188c-1.3438-2.4531-3.5938-2.9219-4.6094-2.9219-0.20312 0-0.20312 0.015625-0.20312 0.28125v0.64062c0 0.23438 0 0.28125 0.14062 0.28125 0.59375 0.015625 1.5938 0.09375 2.4844 0.53125 1.0781 0.53125 1.4844 1.1562 1.7344 1.5469 0.03125 0.0625 0.09375 0.0625 0.21875 0.0625 0.23438 0 0.23438-0.015625 0.23438-0.26562z"/></g><g transform="translate(364.86 476.56)"><path d="m0.96875-4.5781c0.96875 0.03125 1.3906 0.03125 2.3125 0.03125l0.03125-0.03125c-0.015625-0.14062-0.015625-0.20312-0.015625-0.29688 0-0.10938 0-0.17188 0.015625-0.3125l-0.03125-0.03125c-0.57812 0.03125-0.92188 0.03125-1.3281 0.03125-0.42188 0-0.75 0-1.3125-0.03125l-0.046875 0.03125c0.015625 0.46875 0.015625 0.79688 0.015625 1.0469 0 0.64062-0.015625 1.3594-0.046875 1.7031l0.15625 0.046875c0.35938-0.35938 0.5625-0.46875 0.9375-0.46875 0.71875 0 1.1719 0.51562 1.1719 1.3438s-0.48438 1.3281-1.3125 1.3281c-0.40625 0-0.78125-0.14062-0.89062-0.32812l-0.34375-0.625-0.1875 0.10938c0.17188 0.42188 0.26562 0.67188 0.375 1 0.21875 0.10938 0.51562 0.1875 0.84375 0.1875 0.5 0 1.0469-0.21875 1.4688-0.59375 0.45312-0.40625 0.70312-0.92188 0.70312-1.4844 0-0.85938-0.625-1.4531-1.4844-1.4531-0.35938 0-0.64062 0.09375-1.1094 0.375z"/></g><g transform="translate(368.65 476.56)"><path d="m0.5-4.2031h0.078125l0.98438-0.4375c0-0.015625 0.015625-0.015625 0.015625-0.015625 0.046875 0 0.0625 0.078125 0.0625 0.25v3.6719c0 0.40625-0.078125 0.48438-0.48438 0.5l-0.42188 0.03125v0.21875c1.1562-0.015625 1.1562-0.015625 1.25-0.015625h0.51562c0.09375 0.015625 0.35938 0.015625 0.67188 0.015625v-0.21875l-0.39062-0.03125c-0.42188-0.015625-0.5-0.09375-0.5-0.5v-4.4844l-0.10938-0.046875c-0.48438 0.26562-1.0312 0.48438-1.7188 0.73438z"/></g><g transform="translate(372.43 476.56)"><path d="m0.5-4.2031h0.078125l0.98438-0.4375c0-0.015625 0.015625-0.015625 0.015625-0.015625 0.046875 0 0.0625 0.078125 0.0625 0.25v3.6719c0 0.40625-0.078125 0.48438-0.48438 0.5l-0.42188 0.03125v0.21875c1.1562-0.015625 1.1562-0.015625 1.25-0.015625h0.51562c0.09375 0.015625 0.35938 0.015625 0.67188 0.015625v-0.21875l-0.39062-0.03125c-0.42188-0.015625-0.5-0.09375-0.5-0.5v-4.4844l-0.10938-0.046875c-0.48438 0.26562-1.0312 0.48438-1.7188 0.73438z"/></g><g transform="translate(361.2 482.73)"><path d="m4.5781-0.92188c0-0.26562 0-0.28125-0.20312-0.28125-1.0156 0-3.2656 0.48438-4.6094 2.9219v0.15625c0 0.25 0 0.26562 0.23438 0.26562 0.1875 0 0.20312-0.015625 0.25-0.09375 0.8125-1.2969 2.1875-2 4.2188-2.0469 0.10938 0 0.10938-0.0625 0.10938-0.28125z"/></g><g transform="translate(365.93 482.73)"><path d="m4.7188-3.0781c0-0.23438 0-0.25-0.23438-0.25-0.1875 0-0.20312 0.015625-0.25 0.078125-0.8125 1.3125-2.1875 2.0156-4.2188 2.0469-0.10938 0-0.10938 0.078125-0.10938 0.28125v0.64062c0 0.26562 0 0.28125 0.20312 0.28125 1.0156 0 3.2656-0.48438 4.6094-2.9062z"/></g><g transform="translate(370.66 482.73)"><path d="m4.5781-0.92188c0-0.21875 0-0.28125-0.125-0.28125-0.60938 0-1.6094-0.078125-2.5-0.51562-1.0781-0.54688-1.4844-1.1719-1.7344-1.5625-0.03125-0.046875-0.09375-0.046875-0.21875-0.046875-0.23438 0-0.23438 0.015625-0.23438 0.25v0.17188c1.3438 2.4375 3.5938 2.9062 4.6094 2.9062 0.20312 0 0.20312-0.015625 0.20312-0.28125z"/></g><g transform="translate(375.4 482.73)"><path d="m4.7188 1.7188c-1.3438-2.4531-3.5938-2.9219-4.6094-2.9219-0.20312 0-0.20312 0.015625-0.20312 0.28125v0.64062c0 0.23438 0 0.28125 0.14062 0.28125 0.59375 0.015625 1.5938 0.09375 2.4844 0.53125 1.0781 0.53125 1.4844 1.1562 1.7344 1.5469 0.03125 0.0625 0.09375 0.0625 0.21875 0.0625 0.23438 0 0.23438-0.015625 0.23438-0.26562z"/></g></g><g shape-rendering="auto"><path d="m34.795 65.905v-0.14056h100.72v0.14056z" color="#000000" color-rendering="auto" dominant-baseline="auto" image-rendering="auto" solid-color="#000000" stop-color="#000000" style="font-feature-settings:normal;font-variant-alternates:normal;font-variant-caps:normal;font-variant-east-asian:normal;font-variant-ligatures:normal;font-variant-numeric:normal;font-variant-position:normal;font-variation-settings:normal;inline-size:0;isolation:auto;mix-blend-mode:normal;shape-margin:0;shape-padding:0;text-decoration-color:#000000;text-decoration-line:none;text-decoration-style:solid;text-indent:0;text-orientation:mixed;text-transform:none;white-space:normal"/><path d="m45.689 65.905v-0.14056h89.826v0.14056z" color="#000000" color-rendering="auto" dominant-baseline="auto" image-rendering="auto" solid-color="#000000" stop-color="#000000" style="font-feature-settings:normal;font-variant-alternates:normal;font-variant-caps:normal;font-variant-east-asian:normal;font-variant-ligatures:normal;font-variant-numeric:normal;font-variant-position:normal;font-variation-settings:normal;inline-size:0;isolation:auto;mix-blend-mode:normal;shape-margin:0;shape-padding:0;text-decoration-color:#000000;text-decoration-line:none;text-decoration-style:solid;text-indent:0;text-orientation:mixed;text-transform:none;white-space:normal"/><path d="m56.584 65.905v-0.14056h78.93v0.14056z" color="#000000" color-rendering="auto" dominant-baseline="auto" image-rendering="auto" solid-color="#000000" stop-color="#000000" style="font-feature-settings:normal;font-variant-alternates:normal;font-variant-caps:normal;font-variant-east-asian:normal;font-variant-ligatures:normal;font-variant-numeric:normal;font-variant-position:normal;font-variation-settings:normal;inline-size:0;isolation:auto;mix-blend-mode:normal;shape-margin:0;shape-padding:0;text-decoration-color:#000000;text-decoration-line:none;text-decoration-style:solid;text-indent:0;text-orientation:mixed;text-transform:none;white-space:normal"/><path d="m67.48 65.905v-0.14056h68.034v0.14056z" color="#000000" color-rendering="auto" dominant-baseline="auto" image-rendering="auto" solid-color="#000000" stop-color="#000000" style="font-feature-settings:normal;font-variant-alternates:normal;font-variant-caps:normal;font-variant-east-asian:normal;font-variant-ligatures:normal;font-variant-numeric:normal;font-variant-position:normal;font-variation-settings:normal;inline-size:0;isolation:auto;mix-blend-mode:normal;shape-margin:0;shape-padding:0;text-decoration-color:#000000;text-decoration-line:none;text-decoration-style:solid;text-indent:0;text-orientation:mixed;text-transform:none;white-space:normal"/><path d="m78.375 65.905v-0.14056h57.14v0.14056z" color="#000000" color-rendering="auto" dominant-baseline="auto" image-rendering="auto" solid-color="#000000" stop-color="#000000" style="font-feature-settings:normal;font-variant-alternates:normal;font-variant-caps:normal;font-variant-east-asian:normal;font-variant-ligatures:normal;font-variant-numeric:normal;font-variant-position:normal;font-variation-settings:normal;inline-size:0;isolation:auto;mix-blend-mode:normal;shape-margin:0;shape-padding:0;text-decoration-color:#000000;text-decoration-line:none;text-decoration-style:solid;text-indent:0;text-orientation:mixed;text-transform:none;white-space:normal"/><path d="m85.228 65.905v-0.14056h50.286v0.14056z" color="#000000" color-rendering="auto" dominant-baseline="auto" image-rendering="auto" solid-color="#000000" stop-color="#000000" style="font-feature-settings:normal;font-variant-alternates:normal;font-variant-caps:normal;font-variant-east-asian:normal;font-variant-ligatures:normal;font-variant-numeric:normal;font-variant-position:normal;font-variation-settings:normal;inline-size:0;isolation:auto;mix-blend-mode:normal;shape-margin:0;shape-padding:0;text-decoration-color:#000000;text-decoration-line:none;text-decoration-style:solid;text-indent:0;text-orientation:mixed;text-transform:none;white-space:normal"/><path d="m97.8 65.905v-0.14056h37.716v0.14056z" color="#000000" color-rendering="auto" dominant-baseline="auto" image-rendering="auto" solid-color="#000000" stop-color="#000000" style="font-feature-settings:normal;font-variant-alternates:normal;font-variant-caps:normal;font-variant-east-asian:normal;font-variant-ligatures:normal;font-variant-numeric:normal;font-variant-position:normal;font-variation-settings:normal;inline-size:0;isolation:auto;mix-blend-mode:normal;shape-margin:0;shape-padding:0;text-decoration-color:#000000;text-decoration-line:none;text-decoration-style:solid;text-indent:0;text-orientation:mixed;text-transform:none;white-space:normal"/><path d="m110.37 65.905v-0.14056h25.144v0.14056z" color="#000000" color-rendering="auto" dominant-baseline="auto" image-rendering="auto" solid-color="#000000" stop-color="#000000" style="font-feature-settings:normal;font-variant-alternates:normal;font-variant-caps:normal;font-variant-east-asian:normal;font-variant-ligatures:normal;font-variant-numeric:normal;font-variant-position:normal;font-variation-settings:normal;inline-size:0;isolation:auto;mix-blend-mode:normal;shape-margin:0;shape-padding:0;text-decoration-color:#000000;text-decoration-line:none;text-decoration-style:solid;text-indent:0;text-orientation:mixed;text-transform:none;white-space:normal"/><path d="m122.94 65.905v-0.14056h12.572v0.14056z" color="#000000" color-rendering="auto" dominant-baseline="auto" image-rendering="auto" solid-color="#000000" stop-color="#000000" style="font-feature-settings:normal;font-variant-alternates:normal;font-variant-caps:normal;font-variant-east-asian:normal;font-variant-ligatures:normal;font-variant-numeric:normal;font-variant-position:normal;font-variation-settings:normal;inline-size:0;isolation:auto;mix-blend-mode:normal;shape-margin:0;shape-padding:0;text-decoration-color:#000000;text-decoration-line:none;text-decoration-style:solid;text-indent:0;text-orientation:mixed;text-transform:none;white-space:normal"/></g><g transform="matrix(.35278 0 0 .35278 -1.4892 -107.06)"><g transform="translate(78.252 499.67)"><path d="m4.1406-0.25v0.28125c0.48438-0.015625 0.9375-0.03125 1.3594-0.03125 0.39062 0 0.84375 0.015625 1.3125 0.03125v-0.28125l-0.25-0.015625c-0.40625-0.03125-0.53125-0.10938-0.67188-0.34375l-1.7031-3.0625 2.2031-2.5156c0.29688-0.32812 0.39062-0.375 0.64062-0.40625l0.28125-0.03125v-0.26562l-1.125 0.015625c-0.125 0-0.26562 0-1.1562-0.015625v0.26562l0.32812 0.03125c0.32812 0.015625 0.45312 0.0625 0.45312 0.1875 0 0.10938-0.046875 0.20312-0.23438 0.42188l-1.5938 1.9531-1.0469-1.9844c-0.09375-0.1875-0.14062-0.29688-0.14062-0.39062 0-0.10938 0.14062-0.17188 0.4375-0.1875l0.35938-0.03125v-0.26562h-0.45312c-0.40625 0.015625-0.70312 0.015625-0.875 0.015625-0.15625 0-0.46875 0-0.875-0.015625h-0.4375v0.26562l0.25 0.03125c0.48438 0.046875 0.60938 0.10938 0.8125 0.48438l1.4531 2.6875-2.375 2.8125c-0.14062 0.1875-0.375 0.29688-0.60938 0.32812l-0.28125 0.03125v0.28125c0.48438-0.015625 0.89062-0.03125 1.25-0.03125 0.34375 0 0.75 0.015625 1.1719 0.03125v-0.28125l-0.3125-0.03125c-0.375-0.03125-0.54688-0.09375-0.54688-0.21875 0-0.078125 0.03125-0.17188 0.09375-0.25l1.8125-2.2969 1.1875 2.25c0.09375 0.17188 0.14062 0.3125 0.14062 0.39062 0 0.09375-0.0625 0.10938-0.3125 0.10938l-0.15625 0.015625z"/></g><g transform="translate(88.68 499.67)"><path d="m7.125-3.3906c0.15625 0 0.35938 0 0.35938-0.20312 0-0.21875-0.20312-0.21875-0.34375-0.21875h-6.2188c-0.14062 0-0.34375 0-0.34375 0.21875 0 0.20312 0.20312 0.20312 0.35938 0.20312zm0.015625 2.0156c0.14062 0 0.34375 0 0.34375-0.21875 0-0.20312-0.20312-0.20312-0.35938-0.20312h-6.1875c-0.15625 0-0.35938 0-0.35938 0.20312 0 0.21875 0.20312 0.21875 0.34375 0.21875z"/></g></g><g shape-rendering="auto"><path d="m34.724 70.684v-4.921h0.14056v4.921z" color="#000000" color-rendering="auto" dominant-baseline="auto" image-rendering="auto" solid-color="#000000" stop-color="#000000" style="font-feature-settings:normal;font-variant-alternates:normal;font-variant-caps:normal;font-variant-east-asian:normal;font-variant-ligatures:normal;font-variant-numeric:normal;font-variant-position:normal;font-variation-settings:normal;inline-size:0;isolation:auto;mix-blend-mode:normal;shape-margin:0;shape-padding:0;text-decoration-color:#000000;text-decoration-line:none;text-decoration-style:solid;text-indent:0;text-orientation:mixed;text-transform:none;white-space:normal"/><path d="m45.619 70.684v-4.921h0.14056v4.921z" color="#000000" color-rendering="auto" dominant-baseline="auto" image-rendering="auto" solid-color="#000000" stop-color="#000000" style="font-feature-settings:normal;font-variant-alternates:normal;font-variant-caps:normal;font-variant-east-asian:normal;font-variant-ligatures:normal;font-variant-numeric:normal;font-variant-position:normal;font-variation-settings:normal;inline-size:0;isolation:auto;mix-blend-mode:normal;shape-margin:0;shape-padding:0;text-decoration-color:#000000;text-decoration-line:none;text-decoration-style:solid;text-indent:0;text-orientation:mixed;text-transform:none;white-space:normal"/><path d="m56.514 70.684v-4.921h0.14056v4.921z" color="#000000" color-rendering="auto" dominant-baseline="auto" image-rendering="auto" solid-color="#000000" stop-color="#000000" style="font-feature-settings:normal;font-variant-alternates:normal;font-variant-caps:normal;font-variant-east-asian:normal;font-variant-ligatures:normal;font-variant-numeric:normal;font-variant-position:normal;font-variation-settings:normal;inline-size:0;isolation:auto;mix-blend-mode:normal;shape-margin:0;shape-padding:0;text-decoration-color:#000000;text-decoration-line:none;text-decoration-style:solid;text-indent:0;text-orientation:mixed;text-transform:none;white-space:normal"/><path d="m67.41 70.684v-4.921h0.13987v4.921z" color="#000000" color-rendering="auto" dominant-baseline="auto" image-rendering="auto" solid-color="#000000" stop-color="#000000" style="font-feature-settings:normal;font-variant-alternates:normal;font-variant-caps:normal;font-variant-east-asian:normal;font-variant-ligatures:normal;font-variant-numeric:normal;font-variant-position:normal;font-variation-settings:normal;inline-size:0;isolation:auto;mix-blend-mode:normal;shape-margin:0;shape-padding:0;text-decoration-color:#000000;text-decoration-line:none;text-decoration-style:solid;text-indent:0;text-orientation:mixed;text-transform:none;white-space:normal"/><path d="m78.305 70.684v-4.921h0.14056v4.921z" color="#000000" color-rendering="auto" dominant-baseline="auto" image-rendering="auto" solid-color="#000000" stop-color="#000000" style="font-feature-settings:normal;font-variant-alternates:normal;font-variant-caps:normal;font-variant-east-asian:normal;font-variant-ligatures:normal;font-variant-numeric:normal;font-variant-position:normal;font-variation-settings:normal;inline-size:0;isolation:auto;mix-blend-mode:normal;shape-margin:0;shape-padding:0;text-decoration-color:#000000;text-decoration-line:none;text-decoration-style:solid;text-indent:0;text-orientation:mixed;text-transform:none;white-space:normal"/></g><g transform="matrix(.35278 0 0 .35278 -1.4892 -107.06)"><g transform="translate(232.36 499.67)"><path d="m1.2344-1.1094c-0.29688 0-0.5625 0.28125-0.5625 0.57812s0.26562 0.57812 0.54688 0.57812c0.32812 0 0.60938-0.26562 0.60938-0.57812 0-0.29688-0.28125-0.57812-0.59375-0.57812z"/></g><g transform="translate(234.85 499.67)"><path d="m1.2344-1.1094c-0.29688 0-0.5625 0.28125-0.5625 0.57812s0.26562 0.57812 0.54688 0.57812c0.32812 0 0.60938-0.26562 0.60938-0.57812 0-0.29688-0.28125-0.57812-0.59375-0.57812z"/></g><g transform="translate(237.35 499.67)"><path d="m1.2344-1.1094c-0.29688 0-0.5625 0.28125-0.5625 0.57812s0.26562 0.57812 0.54688 0.57812c0.32812 0 0.60938-0.26562 0.60938-0.57812 0-0.29688-0.28125-0.57812-0.59375-0.57812z"/></g></g><path d="m85.158 70.684v-4.921h0.14056v4.921z" color="#000000" color-rendering="auto" dominant-baseline="auto" image-rendering="auto" shape-rendering="auto" solid-color="#000000" stop-color="#000000" style="font-feature-settings:normal;font-variant-alternates:normal;font-variant-caps:normal;font-variant-east-asian:normal;font-variant-ligatures:normal;font-variant-numeric:normal;font-variant-position:normal;font-variation-settings:normal;inline-size:0;isolation:auto;mix-blend-mode:normal;shape-margin:0;shape-padding:0;text-decoration-color:#000000;text-decoration-line:none;text-decoration-style:solid;text-indent:0;text-orientation:mixed;text-transform:none;white-space:normal"/><g transform="matrix(.35278 0 0 .35278 -1.4892 -107.06)"><g transform="translate(252.07 499.67)"><path d="m4.1406-0.25v0.28125c0.48438-0.015625 0.9375-0.03125 1.3594-0.03125 0.39062 0 0.84375 0.015625 1.3125 0.03125v-0.28125l-0.25-0.015625c-0.40625-0.03125-0.53125-0.10938-0.67188-0.34375l-1.7031-3.0625 2.2031-2.5156c0.29688-0.32812 0.39062-0.375 0.64062-0.40625l0.28125-0.03125v-0.26562l-1.125 0.015625c-0.125 0-0.26562 0-1.1562-0.015625v0.26562l0.32812 0.03125c0.32812 0.015625 0.45312 0.0625 0.45312 0.1875 0 0.10938-0.046875 0.20312-0.23438 0.42188l-1.5938 1.9531-1.0469-1.9844c-0.09375-0.1875-0.14062-0.29688-0.14062-0.39062 0-0.10938 0.14062-0.17188 0.4375-0.1875l0.35938-0.03125v-0.26562h-0.45312c-0.40625 0.015625-0.70312 0.015625-0.875 0.015625-0.15625 0-0.46875 0-0.875-0.015625h-0.4375v0.26562l0.25 0.03125c0.48438 0.046875 0.60938 0.10938 0.8125 0.48438l1.4531 2.6875-2.375 2.8125c-0.14062 0.1875-0.375 0.29688-0.60938 0.32812l-0.28125 0.03125v0.28125c0.48438-0.015625 0.89062-0.03125 1.25-0.03125 0.34375 0 0.75 0.015625 1.1719 0.03125v-0.28125l-0.3125-0.03125c-0.375-0.03125-0.54688-0.09375-0.54688-0.21875 0-0.078125 0.03125-0.17188 0.09375-0.25l1.8125-2.2969 1.1875 2.25c0.09375 0.17188 0.14062 0.3125 0.14062 0.39062 0 0.09375-0.0625 0.10938-0.3125 0.10938l-0.15625 0.015625z"/></g><g transform="translate(259.7 496.05)"><path d="m2.1719-3.375c0-0.10938 0-0.29688-0.20312-0.29688-0.125 0-0.21875 0.10938-0.20312 0.20312v0.10938l0.10938 1.2188-1-0.73438c-0.078125-0.03125-0.09375-0.046875-0.15625-0.046875-0.10938 0-0.20312 0.10938-0.20312 0.21875 0 0.125 0.078125 0.15625 0.15625 0.1875l1.125 0.54688-1.0938 0.53125c-0.125 0.0625-0.1875 0.09375-0.1875 0.20312 0 0.125 0.09375 0.21875 0.20312 0.21875 0.0625 0 0.078125 0 0.28125-0.14062l0.875-0.64062-0.10938 1.3281c0 0.15625 0.14062 0.20312 0.20312 0.20312 0.09375 0 0.20312-0.0625 0.20312-0.20312l-0.10938-1.3281 1 0.73438c0.078125 0.03125 0.09375 0.046875 0.15625 0.046875 0.10938 0 0.20312-0.10938 0.20312-0.21875s-0.0625-0.15625-0.15625-0.20312c-0.48438-0.23438-0.5-0.23438-1.125-0.53125l1.0938-0.53125c0.125-0.0625 0.1875-0.09375 0.1875-0.20312 0-0.125-0.09375-0.21875-0.20312-0.21875-0.0625 0-0.078125 0-0.28125 0.14062l-0.875 0.64062z"/></g><g transform="translate(264.36 499.67)"><path d="m2.6406 2.5938v-0.42188h-1v-9.5312h1v-0.42188h-1.4219v10.375z"/></g><g transform="translate(267.36 499.67)"><path d="m0.42188-4.9688h0.3125l0.1875-0.54688c0.10938-0.34375 0.73438-0.6875 1.25-0.6875 0.65625 0 1.1719 0.53125 1.1719 1.1562 0 0.75-0.57812 1.375-1.2969 1.375-0.078125 0-0.1875 0-0.3125-0.015625l-0.15625-0.015625-0.10938 0.53125 0.0625 0.0625c0.375-0.17188 0.57812-0.21875 0.84375-0.21875 0.82812 0 1.2969 0.53125 1.2969 1.4375 0 1.0156-0.59375 1.6875-1.5312 1.6875-0.45312 0-0.85938-0.15625-1.1562-0.4375-0.25-0.21875-0.375-0.45312-0.5625-0.98438l-0.26562 0.09375c0.20312 0.60938 0.28125 0.96875 0.34375 1.4688 0.53125 0.1875 0.96875 0.26562 1.3281 0.26562 0.79688 0 1.7188-0.45312 2.2656-1.125 0.34375-0.40625 0.51562-0.84375 0.51562-1.3125 0-0.48438-0.20312-0.89062-0.5625-1.1406-0.25-0.1875-0.48438-0.26562-0.96875-0.35938 0.79688-0.60938 1.0938-1.0781 1.0938-1.6562 0-0.89062-0.75-1.4844-1.8438-1.4844-0.6875 0-1.125 0.20312-1.6094 0.67188z"/></g><g transform="translate(272.47 499.67)"><path d="m1.6562-7.7812h-1.4219v0.42188h1v9.5312h-1v0.42188h1.4219z"/></g></g><path d="m97.73 70.684v-4.921h0.13987v4.921z" color="#000000" color-rendering="auto" dominant-baseline="auto" image-rendering="auto" shape-rendering="auto" solid-color="#000000" stop-color="#000000" style="font-feature-settings:normal;font-variant-alternates:normal;font-variant-caps:normal;font-variant-east-asian:normal;font-variant-ligatures:normal;font-variant-numeric:normal;font-variant-position:normal;font-variation-settings:normal;inline-size:0;isolation:auto;mix-blend-mode:normal;shape-margin:0;shape-padding:0;text-decoration-color:#000000;text-decoration-line:none;text-decoration-style:solid;text-indent:0;text-orientation:mixed;text-transform:none;white-space:normal"/><g transform="matrix(.35278 0 0 .35278 -1.4892 -107.06)"><g transform="translate(287.7 499.67)"><path d="m4.1406-0.25v0.28125c0.48438-0.015625 0.9375-0.03125 1.3594-0.03125 0.39062 0 0.84375 0.015625 1.3125 0.03125v-0.28125l-0.25-0.015625c-0.40625-0.03125-0.53125-0.10938-0.67188-0.34375l-1.7031-3.0625 2.2031-2.5156c0.29688-0.32812 0.39062-0.375 0.64062-0.40625l0.28125-0.03125v-0.26562l-1.125 0.015625c-0.125 0-0.26562 0-1.1562-0.015625v0.26562l0.32812 0.03125c0.32812 0.015625 0.45312 0.0625 0.45312 0.1875 0 0.10938-0.046875 0.20312-0.23438 0.42188l-1.5938 1.9531-1.0469-1.9844c-0.09375-0.1875-0.14062-0.29688-0.14062-0.39062 0-0.10938 0.14062-0.17188 0.4375-0.1875l0.35938-0.03125v-0.26562h-0.45312c-0.40625 0.015625-0.70312 0.015625-0.875 0.015625-0.15625 0-0.46875 0-0.875-0.015625h-0.4375v0.26562l0.25 0.03125c0.48438 0.046875 0.60938 0.10938 0.8125 0.48438l1.4531 2.6875-2.375 2.8125c-0.14062 0.1875-0.375 0.29688-0.60938 0.32812l-0.28125 0.03125v0.28125c0.48438-0.015625 0.89062-0.03125 1.25-0.03125 0.34375 0 0.75 0.015625 1.1719 0.03125v-0.28125l-0.3125-0.03125c-0.375-0.03125-0.54688-0.09375-0.54688-0.21875 0-0.078125 0.03125-0.17188 0.09375-0.25l1.8125-2.2969 1.1875 2.25c0.09375 0.17188 0.14062 0.3125 0.14062 0.39062 0 0.09375-0.0625 0.10938-0.3125 0.10938l-0.15625 0.015625z"/></g><g transform="translate(295.33 496.05)"><path d="m2.1719-3.375c0-0.10938 0-0.29688-0.20312-0.29688-0.125 0-0.21875 0.10938-0.20312 0.20312v0.10938l0.10938 1.2188-1-0.73438c-0.078125-0.03125-0.09375-0.046875-0.15625-0.046875-0.10938 0-0.20312 0.10938-0.20312 0.21875 0 0.125 0.078125 0.15625 0.15625 0.1875l1.125 0.54688-1.0938 0.53125c-0.125 0.0625-0.1875 0.09375-0.1875 0.20312 0 0.125 0.09375 0.21875 0.20312 0.21875 0.0625 0 0.078125 0 0.28125-0.14062l0.875-0.64062-0.10938 1.3281c0 0.15625 0.14062 0.20312 0.20312 0.20312 0.09375 0 0.20312-0.0625 0.20312-0.20312l-0.10938-1.3281 1 0.73438c0.078125 0.03125 0.09375 0.046875 0.15625 0.046875 0.10938 0 0.20312-0.10938 0.20312-0.21875s-0.0625-0.15625-0.15625-0.20312c-0.48438-0.23438-0.5-0.23438-1.125-0.53125l1.0938-0.53125c0.125-0.0625 0.1875-0.09375 0.1875-0.20312 0-0.125-0.09375-0.21875-0.20312-0.21875-0.0625 0-0.078125 0-0.28125 0.14062l-0.875 0.64062z"/></g><g transform="translate(300 499.67)"><path d="m2.6406 2.5938v-0.42188h-1v-9.5312h1v-0.42188h-1.4219v10.375z"/></g><g transform="translate(303 499.67)"><path d="m0.15625-0.23438v0.26562c1.875-0.03125 1.875-0.03125 2.2188-0.03125 0.35938 0 0.35938 0 2.2969 0.03125-0.03125-0.20312-0.03125-0.3125-0.03125-0.45312 0-0.125 0-0.21875 0.03125-0.45312-1.1562 0.0625-1.6094 0.0625-3.4531 0.10938l1.8125-1.9219c0.96875-1.0312 1.2656-1.5781 1.2656-2.3281 0-1.1406-0.78125-1.8594-2.0469-1.8594-0.71875 0-1.2031 0.20312-1.6875 0.70312l-0.17188 1.3594h0.28125l0.14062-0.46875c0.15625-0.57812 0.51562-0.8125 1.1875-0.8125 0.84375 0 1.4062 0.53125 1.4062 1.375 0 0.75-0.42188 1.4844-1.5469 2.6875z"/></g><g transform="translate(308.1 499.67)"><path d="m1.6562-7.7812h-1.4219v0.42188h1v9.5312h-1v0.42188h1.4219z"/></g></g><path d="m110.3 70.684v-4.921h0.14056v4.921z" color="#000000" color-rendering="auto" dominant-baseline="auto" image-rendering="auto" shape-rendering="auto" solid-color="#000000" stop-color="#000000" style="font-feature-settings:normal;font-variant-alternates:normal;font-variant-caps:normal;font-variant-east-asian:normal;font-variant-ligatures:normal;font-variant-numeric:normal;font-variant-position:normal;font-variation-settings:normal;inline-size:0;isolation:auto;mix-blend-mode:normal;shape-margin:0;shape-padding:0;text-decoration-color:#000000;text-decoration-line:none;text-decoration-style:solid;text-indent:0;text-orientation:mixed;text-transform:none;white-space:normal"/><g transform="matrix(.35278 0 0 .35278 -1.4892 -107.06)"><g transform="translate(323.34 499.67)"><path d="m4.1406-0.25v0.28125c0.48438-0.015625 0.9375-0.03125 1.3594-0.03125 0.39062 0 0.84375 0.015625 1.3125 0.03125v-0.28125l-0.25-0.015625c-0.40625-0.03125-0.53125-0.10938-0.67188-0.34375l-1.7031-3.0625 2.2031-2.5156c0.29688-0.32812 0.39062-0.375 0.64062-0.40625l0.28125-0.03125v-0.26562l-1.125 0.015625c-0.125 0-0.26562 0-1.1562-0.015625v0.26562l0.32812 0.03125c0.32812 0.015625 0.45312 0.0625 0.45312 0.1875 0 0.10938-0.046875 0.20312-0.23438 0.42188l-1.5938 1.9531-1.0469-1.9844c-0.09375-0.1875-0.14062-0.29688-0.14062-0.39062 0-0.10938 0.14062-0.17188 0.4375-0.1875l0.35938-0.03125v-0.26562h-0.45312c-0.40625 0.015625-0.70312 0.015625-0.875 0.015625-0.15625 0-0.46875 0-0.875-0.015625h-0.4375v0.26562l0.25 0.03125c0.48438 0.046875 0.60938 0.10938 0.8125 0.48438l1.4531 2.6875-2.375 2.8125c-0.14062 0.1875-0.375 0.29688-0.60938 0.32812l-0.28125 0.03125v0.28125c0.48438-0.015625 0.89062-0.03125 1.25-0.03125 0.34375 0 0.75 0.015625 1.1719 0.03125v-0.28125l-0.3125-0.03125c-0.375-0.03125-0.54688-0.09375-0.54688-0.21875 0-0.078125 0.03125-0.17188 0.09375-0.25l1.8125-2.2969 1.1875 2.25c0.09375 0.17188 0.14062 0.3125 0.14062 0.39062 0 0.09375-0.0625 0.10938-0.3125 0.10938l-0.15625 0.015625z"/></g><g transform="translate(330.97 496.05)"><path d="m2.1719-3.375c0-0.10938 0-0.29688-0.20312-0.29688-0.125 0-0.21875 0.10938-0.20312 0.20312v0.10938l0.10938 1.2188-1-0.73438c-0.078125-0.03125-0.09375-0.046875-0.15625-0.046875-0.10938 0-0.20312 0.10938-0.20312 0.21875 0 0.125 0.078125 0.15625 0.15625 0.1875l1.125 0.54688-1.0938 0.53125c-0.125 0.0625-0.1875 0.09375-0.1875 0.20312 0 0.125 0.09375 0.21875 0.20312 0.21875 0.0625 0 0.078125 0 0.28125-0.14062l0.875-0.64062-0.10938 1.3281c0 0.15625 0.14062 0.20312 0.20312 0.20312 0.09375 0 0.20312-0.0625 0.20312-0.20312l-0.10938-1.3281 1 0.73438c0.078125 0.03125 0.09375 0.046875 0.15625 0.046875 0.10938 0 0.20312-0.10938 0.20312-0.21875s-0.0625-0.15625-0.15625-0.20312c-0.48438-0.23438-0.5-0.23438-1.125-0.53125l1.0938-0.53125c0.125-0.0625 0.1875-0.09375 0.1875-0.20312 0-0.125-0.09375-0.21875-0.20312-0.21875-0.0625 0-0.078125 0-0.28125 0.14062l-0.875 0.64062z"/></g><g transform="translate(335.63 499.67)"><path d="m2.6406 2.5938v-0.42188h-1v-9.5312h1v-0.42188h-1.4219v10.375z"/></g><g transform="translate(338.63 499.67)"><path d="m0.67188-5.5312h0.09375l1.2812-0.57812c0.015625-0.015625 0.03125-0.015625 0.03125-0.015625 0.0625 0 0.078125 0.09375 0.078125 0.32812v4.8438c0 0.51562-0.10938 0.625-0.64062 0.65625l-0.5625 0.03125v0.29688c1.5469-0.03125 1.5469-0.03125 1.6562-0.03125 0.125 0 0.34375 0 0.6875 0.015625 0.10938 0 0.46875 0 0.875 0.015625v-0.29688l-0.51562-0.03125c-0.5625-0.03125-0.65625-0.14062-0.65625-0.65625v-5.9219l-0.14062-0.046875c-0.64062 0.34375-1.3594 0.64062-2.2656 0.95312z"/></g><g transform="translate(343.74 499.67)"><path d="m1.6562-7.7812h-1.4219v0.42188h1v9.5312h-1v0.42188h1.4219z"/></g></g><path d="m122.87 70.684v-4.921h0.14056v4.921z" color="#000000" color-rendering="auto" dominant-baseline="auto" image-rendering="auto" shape-rendering="auto" solid-color="#000000" stop-color="#000000" style="font-feature-settings:normal;font-variant-alternates:normal;font-variant-caps:normal;font-variant-east-asian:normal;font-variant-ligatures:normal;font-variant-numeric:normal;font-variant-position:normal;font-variation-settings:normal;inline-size:0;isolation:auto;mix-blend-mode:normal;shape-margin:0;shape-padding:0;text-decoration-color:#000000;text-decoration-line:none;text-decoration-style:solid;text-indent:0;text-orientation:mixed;text-transform:none;white-space:normal"/><g transform="matrix(.35278 0 0 .35278 -1.4892 -107.06)"><g transform="translate(358.97 499.67)"><path d="m4.1406-0.25v0.28125c0.48438-0.015625 0.9375-0.03125 1.3594-0.03125 0.39062 0 0.84375 0.015625 1.3125 0.03125v-0.28125l-0.25-0.015625c-0.40625-0.03125-0.53125-0.10938-0.67188-0.34375l-1.7031-3.0625 2.2031-2.5156c0.29688-0.32812 0.39062-0.375 0.64062-0.40625l0.28125-0.03125v-0.26562l-1.125 0.015625c-0.125 0-0.26562 0-1.1562-0.015625v0.26562l0.32812 0.03125c0.32812 0.015625 0.45312 0.0625 0.45312 0.1875 0 0.10938-0.046875 0.20312-0.23438 0.42188l-1.5938 1.9531-1.0469-1.9844c-0.09375-0.1875-0.14062-0.29688-0.14062-0.39062 0-0.10938 0.14062-0.17188 0.4375-0.1875l0.35938-0.03125v-0.26562h-0.45312c-0.40625 0.015625-0.70312 0.015625-0.875 0.015625-0.15625 0-0.46875 0-0.875-0.015625h-0.4375v0.26562l0.25 0.03125c0.48438 0.046875 0.60938 0.10938 0.8125 0.48438l1.4531 2.6875-2.375 2.8125c-0.14062 0.1875-0.375 0.29688-0.60938 0.32812l-0.28125 0.03125v0.28125c0.48438-0.015625 0.89062-0.03125 1.25-0.03125 0.34375 0 0.75 0.015625 1.1719 0.03125v-0.28125l-0.3125-0.03125c-0.375-0.03125-0.54688-0.09375-0.54688-0.21875 0-0.078125 0.03125-0.17188 0.09375-0.25l1.8125-2.2969 1.1875 2.25c0.09375 0.17188 0.14062 0.3125 0.14062 0.39062 0 0.09375-0.0625 0.10938-0.3125 0.10938l-0.15625 0.015625z"/></g><g transform="translate(366.61 496.05)"><path d="m2.1719-3.375c0-0.10938 0-0.29688-0.20312-0.29688-0.125 0-0.21875 0.10938-0.20312 0.20312v0.10938l0.10938 1.2188-1-0.73438c-0.078125-0.03125-0.09375-0.046875-0.15625-0.046875-0.10938 0-0.20312 0.10938-0.20312 0.21875 0 0.125 0.078125 0.15625 0.15625 0.1875l1.125 0.54688-1.0938 0.53125c-0.125 0.0625-0.1875 0.09375-0.1875 0.20312 0 0.125 0.09375 0.21875 0.20312 0.21875 0.0625 0 0.078125 0 0.28125-0.14062l0.875-0.64062-0.10938 1.3281c0 0.15625 0.14062 0.20312 0.20312 0.20312 0.09375 0 0.20312-0.0625 0.20312-0.20312l-0.10938-1.3281 1 0.73438c0.078125 0.03125 0.09375 0.046875 0.15625 0.046875 0.10938 0 0.20312-0.10938 0.20312-0.21875s-0.0625-0.15625-0.15625-0.20312c-0.48438-0.23438-0.5-0.23438-1.125-0.53125l1.0938-0.53125c0.125-0.0625 0.1875-0.09375 0.1875-0.20312 0-0.125-0.09375-0.21875-0.20312-0.21875-0.0625 0-0.078125 0-0.28125 0.14062l-0.875 0.64062z"/></g><g transform="translate(371.27 499.67)"><path d="m2.6406 2.5938v-0.42188h-1v-9.5312h1v-0.42188h-1.4219v10.375z"/></g><g transform="translate(374.27 499.67)"><path d="m2.625-6.875c-1.5469 0-2.3281 1.2344-2.3281 3.6406 0 1.1719 0.20312 2.1719 0.54688 2.6719 0.35938 0.48438 0.90625 0.76562 1.5312 0.76562 1.5 0 2.2656-1.2969 2.2656-3.8594 0-2.1719-0.65625-3.2188-2.0156-3.2188zm-0.1875 0.35938c0.96875 0 1.3594 0.96875 1.3594 3.3594 0 2.125-0.375 3-1.2969 3-0.96875 0-1.375-1-1.375-3.4375 0-2.0938 0.375-2.9219 1.3125-2.9219z"/></g><g transform="translate(379.38 499.67)"><path d="m1.6562-7.7812h-1.4219v0.42188h1v9.5312h-1v0.42188h1.4219z"/></g></g><g shape-rendering="auto"><path d="m135.45 70.684v-4.921h0.14056v4.921z" color="#000000" color-rendering="auto" dominant-baseline="auto" image-rendering="auto" solid-color="#000000" stop-color="#000000" style="font-feature-settings:normal;font-variant-alternates:normal;font-variant-caps:normal;font-variant-east-asian:normal;font-variant-ligatures:normal;font-variant-numeric:normal;font-variant-position:normal;font-variation-settings:normal;inline-size:0;isolation:auto;mix-blend-mode:normal;shape-margin:0;shape-padding:0;text-decoration-color:#000000;text-decoration-line:none;text-decoration-style:solid;text-indent:0;text-orientation:mixed;text-transform:none;white-space:normal"/><path d="m34.795 70.824v-0.14056h100.72v0.14056z" color="#000000" color-rendering="auto" dominant-baseline="auto" image-rendering="auto" solid-color="#000000" stop-color="#000000" style="font-feature-settings:normal;font-variant-alternates:normal;font-variant-caps:normal;font-variant-east-asian:normal;font-variant-ligatures:normal;font-variant-numeric:normal;font-variant-position:normal;font-variation-settings:normal;inline-size:0;isolation:auto;mix-blend-mode:normal;shape-margin:0;shape-padding:0;text-decoration-color:#000000;text-decoration-line:none;text-decoration-style:solid;text-indent:0;text-orientation:mixed;text-transform:none;white-space:normal"/><path d="m45.689 70.824v-0.14056h89.826v0.14056z" color="#000000" color-rendering="auto" dominant-baseline="auto" image-rendering="auto" solid-color="#000000" stop-color="#000000" style="font-feature-settings:normal;font-variant-alternates:normal;font-variant-caps:normal;font-variant-east-asian:normal;font-variant-ligatures:normal;font-variant-numeric:normal;font-variant-position:normal;font-variation-settings:normal;inline-size:0;isolation:auto;mix-blend-mode:normal;shape-margin:0;shape-padding:0;text-decoration-color:#000000;text-decoration-line:none;text-decoration-style:solid;text-indent:0;text-orientation:mixed;text-transform:none;white-space:normal"/><path d="m56.584 70.824v-0.14056h78.93v0.14056z" color="#000000" color-rendering="auto" dominant-baseline="auto" image-rendering="auto" solid-color="#000000" stop-color="#000000" style="font-feature-settings:normal;font-variant-alternates:normal;font-variant-caps:normal;font-variant-east-asian:normal;font-variant-ligatures:normal;font-variant-numeric:normal;font-variant-position:normal;font-variation-settings:normal;inline-size:0;isolation:auto;mix-blend-mode:normal;shape-margin:0;shape-padding:0;text-decoration-color:#000000;text-decoration-line:none;text-decoration-style:solid;text-indent:0;text-orientation:mixed;text-transform:none;white-space:normal"/><path d="m67.48 70.824v-0.14056h68.034v0.14056z" color="#000000" color-rendering="auto" dominant-baseline="auto" image-rendering="auto" solid-color="#000000" stop-color="#000000" style="font-feature-settings:normal;font-variant-alternates:normal;font-variant-caps:normal;font-variant-east-asian:normal;font-variant-ligatures:normal;font-variant-numeric:normal;font-variant-position:normal;font-variation-settings:normal;inline-size:0;isolation:auto;mix-blend-mode:normal;shape-margin:0;shape-padding:0;text-decoration-color:#000000;text-decoration-line:none;text-decoration-style:solid;text-indent:0;text-orientation:mixed;text-transform:none;white-space:normal"/><path d="m78.375 70.824v-0.14056h57.14v0.14056z" color="#000000" color-rendering="auto" dominant-baseline="auto" image-rendering="auto" solid-color="#000000" stop-color="#000000" style="font-feature-settings:normal;font-variant-alternates:normal;font-variant-caps:normal;font-variant-east-asian:normal;font-variant-ligatures:normal;font-variant-numeric:normal;font-variant-position:normal;font-variation-settings:normal;inline-size:0;isolation:auto;mix-blend-mode:normal;shape-margin:0;shape-padding:0;text-decoration-color:#000000;text-decoration-line:none;text-decoration-style:solid;text-indent:0;text-orientation:mixed;text-transform:none;white-space:normal"/><path d="m85.228 70.824v-0.14056h50.286v0.14056z" color="#000000" color-rendering="auto" dominant-baseline="auto" image-rendering="auto" solid-color="#000000" stop-color="#000000" style="font-feature-settings:normal;font-variant-alternates:normal;font-variant-caps:normal;font-variant-east-asian:normal;font-variant-ligatures:normal;font-variant-numeric:normal;font-variant-position:normal;font-variation-settings:normal;inline-size:0;isolation:auto;mix-blend-mode:normal;shape-margin:0;shape-padding:0;text-decoration-color:#000000;text-decoration-line:none;text-decoration-style:solid;text-indent:0;text-orientation:mixed;text-transform:none;white-space:normal"/><path d="m97.8 70.824v-0.14056h37.716v0.14056z" color="#000000" color-rendering="auto" dominant-baseline="auto" image-rendering="auto" solid-color="#000000" stop-color="#000000" style="font-feature-settings:normal;font-variant-alternates:normal;font-variant-caps:normal;font-variant-east-asian:normal;font-variant-ligatures:normal;font-variant-numeric:normal;font-variant-position:normal;font-variation-settings:normal;inline-size:0;isolation:auto;mix-blend-mode:normal;shape-margin:0;shape-padding:0;text-decoration-color:#000000;text-decoration-line:none;text-decoration-style:solid;text-indent:0;text-orientation:mixed;text-transform:none;white-space:normal"/><path d="m110.37 70.824v-0.14056h25.144v0.14056z" color="#000000" color-rendering="auto" dominant-baseline="auto" image-rendering="auto" solid-color="#000000" stop-color="#000000" style="font-feature-settings:normal;font-variant-alternates:normal;font-variant-caps:normal;font-variant-east-asian:normal;font-variant-ligatures:normal;font-variant-numeric:normal;font-variant-position:normal;font-variation-settings:normal;inline-size:0;isolation:auto;mix-blend-mode:normal;shape-margin:0;shape-padding:0;text-decoration-color:#000000;text-decoration-line:none;text-decoration-style:solid;text-indent:0;text-orientation:mixed;text-transform:none;white-space:normal"/><path d="m122.94 70.824v-0.14056h12.572v0.14056z" color="#000000" color-rendering="auto" dominant-baseline="auto" image-rendering="auto" solid-color="#000000" stop-color="#000000" style="font-feature-settings:normal;font-variant-alternates:normal;font-variant-caps:normal;font-variant-east-asian:normal;font-variant-ligatures:normal;font-variant-numeric:normal;font-variant-position:normal;font-variation-settings:normal;inline-size:0;isolation:auto;mix-blend-mode:normal;shape-margin:0;shape-padding:0;text-decoration-color:#000000;text-decoration-line:none;text-decoration-style:solid;text-indent:0;text-orientation:mixed;text-transform:none;white-space:normal"/></g></g></svg>
